G04 #@! TF.GenerationSoftware,KiCad,Pcbnew,10.0.5-71-g2cb2c974e9*
G04 #@! TF.CreationDate,2026-09-16T19:20:28-04:00*
G04 #@! TF.ProjectId,Fury-Taur,46757279-2d54-4617-9572-2e6b69636164,rev?*
G04 #@! TF.SameCoordinates,Original*
G04 #@! TF.FileFunction,Copper,L1,Top*
G04 #@! TF.FilePolarity,Positive*
%FSLAX46Y46*%
G04 Gerber Fmt 4.6, Leading zero omitted, Abs format (unit mm)*
G04 Created by KiCad (PCBNEW 10.0.5-71-g2cb2c974e9) date 2026-09-16 19:20:28*
%MOMM*%
%LPD*%
G01*
G04 APERTURE LIST*
G04 Aperture macros list*
%AMRoundRect*
0 Rectangle with rounded corners*
0 $1 Rounding radius*
0 $2 $3 $4 $5 $6 $7 $8 $9 X,Y pos of 4 corners*
0 Add a 4 corners polygon primitive as box body*
4,1,4,$2,$3,$4,$5,$6,$7,$8,$9,$2,$3,0*
0 Add four circle primitives for the rounded corners*
1,1,$1+$1,$2,$3*
1,1,$1+$1,$4,$5*
1,1,$1+$1,$6,$7*
1,1,$1+$1,$8,$9*
0 Add four rect primitives between the rounded corners*
20,1,$1+$1,$2,$3,$4,$5,0*
20,1,$1+$1,$4,$5,$6,$7,0*
20,1,$1+$1,$6,$7,$8,$9,0*
20,1,$1+$1,$8,$9,$2,$3,0*%
G04 Aperture macros list end*
G04 #@! TA.AperFunction,ComponentPad*
%ADD10C,1.440000*%
G04 #@! TD*
G04 #@! TA.AperFunction,ComponentPad*
%ADD11C,1.600000*%
G04 #@! TD*
G04 #@! TA.AperFunction,ComponentPad*
%ADD12C,2.400000*%
G04 #@! TD*
G04 #@! TA.AperFunction,ComponentPad*
%ADD13RoundRect,0.250001X-0.949999X0.949999X-0.949999X-0.949999X0.949999X-0.949999X0.949999X0.949999X0*%
G04 #@! TD*
G04 #@! TA.AperFunction,ComponentPad*
%ADD14RoundRect,0.250000X-0.600000X-0.600000X0.600000X-0.600000X0.600000X0.600000X-0.600000X0.600000X0*%
G04 #@! TD*
G04 #@! TA.AperFunction,ComponentPad*
%ADD15RoundRect,0.249999X-0.850001X-0.850001X0.850001X-0.850001X0.850001X0.850001X-0.850001X0.850001X0*%
G04 #@! TD*
G04 #@! TA.AperFunction,ComponentPad*
%ADD16C,2.200000*%
G04 #@! TD*
G04 #@! TA.AperFunction,ComponentPad*
%ADD17R,1.000000X1.000000*%
G04 #@! TD*
G04 #@! TA.AperFunction,ComponentPad*
%ADD18RoundRect,0.250000X0.550000X0.550000X-0.550000X0.550000X-0.550000X-0.550000X0.550000X-0.550000X0*%
G04 #@! TD*
G04 #@! TA.AperFunction,ComponentPad*
%ADD19R,1.100000X1.800000*%
G04 #@! TD*
G04 #@! TA.AperFunction,ComponentPad*
%ADD20RoundRect,0.275000X-0.275000X-0.625000X0.275000X-0.625000X0.275000X0.625000X-0.275000X0.625000X0*%
G04 #@! TD*
G04 #@! TA.AperFunction,ComponentPad*
%ADD21C,1.400000*%
G04 #@! TD*
G04 #@! TA.AperFunction,ComponentPad*
%ADD22C,1.450000*%
G04 #@! TD*
G04 #@! TA.AperFunction,ComponentPad*
%ADD23O,1.200000X3.200000*%
G04 #@! TD*
G04 #@! TA.AperFunction,ComponentPad*
%ADD24O,3.000000X1.200000*%
G04 #@! TD*
G04 #@! TA.AperFunction,ComponentPad*
%ADD25RoundRect,0.250001X0.949999X-0.949999X0.949999X0.949999X-0.949999X0.949999X-0.949999X-0.949999X0*%
G04 #@! TD*
G04 #@! TA.AperFunction,ComponentPad*
%ADD26RoundRect,0.249999X0.850001X-0.850001X0.850001X0.850001X-0.850001X0.850001X-0.850001X-0.850001X0*%
G04 #@! TD*
G04 #@! TA.AperFunction,ComponentPad*
%ADD27O,2.200000X3.500000*%
G04 #@! TD*
G04 #@! TA.AperFunction,ComponentPad*
%ADD28R,1.500000X2.500000*%
G04 #@! TD*
G04 #@! TA.AperFunction,ComponentPad*
%ADD29O,1.500000X2.500000*%
G04 #@! TD*
G04 #@! TA.AperFunction,ComponentPad*
%ADD30RoundRect,0.249999X-0.850001X0.850001X-0.850001X-0.850001X0.850001X-0.850001X0.850001X0.850001X0*%
G04 #@! TD*
G04 #@! TA.AperFunction,Conductor*
%ADD31C,0.200000*%
G04 #@! TD*
G04 APERTURE END LIST*
D10*
X134880000Y-66000000D03*
X132340000Y-66000000D03*
X129800000Y-66000000D03*
D11*
X103580000Y-78000000D03*
X108580000Y-78000000D03*
D12*
X82000000Y-83000000D03*
X82000000Y-79500000D03*
X82000000Y-76000000D03*
X82000000Y-72500000D03*
D13*
X82000000Y-69000000D03*
D14*
X151000000Y-85500000D03*
D10*
X145680000Y-66000000D03*
X143140000Y-66000000D03*
X140600000Y-66000000D03*
D15*
X126500000Y-72380000D03*
D16*
X136660000Y-72380000D03*
D11*
X132500000Y-78000000D03*
X127500000Y-78000000D03*
D17*
X151500000Y-65301700D03*
D18*
X107080000Y-84000000D03*
D11*
X105080000Y-84000000D03*
X121200000Y-72500000D03*
X116200000Y-72500000D03*
X108580000Y-70500000D03*
X103580000Y-70500000D03*
D17*
X151500000Y-67301700D03*
D11*
X121000000Y-78000000D03*
X116000000Y-78000000D03*
D19*
X122500000Y-67900000D03*
D20*
X123770000Y-65830000D03*
X125040000Y-67900000D03*
D17*
X149500000Y-65301700D03*
D21*
X102380000Y-73558600D03*
X110000000Y-73558600D03*
D14*
X148000000Y-85500000D03*
D21*
X112500000Y-81120000D03*
X112500000Y-73500000D03*
X124000000Y-72380000D03*
X124000000Y-80000000D03*
D22*
X88000000Y-65500000D03*
X93000000Y-65500000D03*
X98000000Y-65500000D03*
D23*
X90500000Y-73500000D03*
X90500000Y-77500000D03*
X90500000Y-81500000D03*
X95500000Y-73500000D03*
X95500000Y-77500000D03*
X95500000Y-81500000D03*
D24*
X87750000Y-86400000D03*
X93000000Y-86400000D03*
D25*
X149500000Y-79500000D03*
D12*
X149500000Y-76000000D03*
X149500000Y-72500000D03*
D10*
X121040000Y-85893700D03*
X118500000Y-85893700D03*
X115960000Y-85893700D03*
D26*
X139850000Y-81580000D03*
D16*
X139850000Y-71420000D03*
D27*
X144600000Y-86000000D03*
X136400000Y-86000000D03*
D28*
X142500000Y-86000000D03*
D29*
X140500000Y-86000000D03*
X138500000Y-86000000D03*
D10*
X132540000Y-85893700D03*
X130000000Y-85893700D03*
X127460000Y-85893700D03*
D19*
X114959000Y-67900000D03*
D20*
X116229000Y-65830000D03*
X117499000Y-67900000D03*
D17*
X149500000Y-67301700D03*
D30*
X143500000Y-71420000D03*
D16*
X143500000Y-81580000D03*
D31*
X125040000Y-67500000D02*
X130840000Y-67500000D01*
X130840000Y-67500000D02*
X132340000Y-66000000D01*
X138948300Y-84448300D02*
X134500000Y-80000000D01*
X140500000Y-84448300D02*
X138948300Y-84448300D01*
X134500000Y-80000000D02*
X124000000Y-80000000D01*
X140500000Y-86000000D02*
X140500000Y-84448300D01*
X130000000Y-85893700D02*
X132540000Y-85893700D01*
X118500000Y-85893700D02*
X121040000Y-85893700D01*
X124000000Y-72380000D02*
X121320000Y-72380000D01*
X121499000Y-63500000D02*
X117499000Y-67500000D01*
X148698300Y-65301700D02*
X146896600Y-63500000D01*
X146896600Y-63500000D02*
X121499000Y-63500000D01*
X115736200Y-69262800D02*
X109817200Y-69262800D01*
X117499000Y-67500000D02*
X115736200Y-69262800D01*
X149500000Y-65301700D02*
X148698300Y-65301700D01*
X109817200Y-69262800D02*
X108580000Y-70500000D01*
X116000000Y-78000000D02*
X108580000Y-78000000D01*
X139850000Y-71420000D02*
X143500000Y-71420000D01*
X90500000Y-73500000D02*
X90500000Y-71598300D01*
X90500000Y-71598300D02*
X102481700Y-71598300D01*
X102481700Y-71598300D02*
X103580000Y-70500000D01*
X95500000Y-76000000D02*
X146000000Y-76000000D01*
X146000000Y-76000000D02*
X149500000Y-79500000D01*
X95500000Y-77500000D02*
X95500000Y-76000000D01*
X111170000Y-72499800D02*
X113650000Y-70019800D01*
X113650000Y-70019800D02*
X139120200Y-70019800D01*
X139120200Y-70019800D02*
X143140000Y-66000000D01*
X96500200Y-72499800D02*
X111170000Y-72499800D01*
X95500000Y-73500000D02*
X96500200Y-72499800D01*
X90500000Y-81500000D02*
X95500000Y-81500000D01*
G04 #@! TA.AperFunction,Conductor*
G36*
X143137085Y-65995035D02*
G01*
X143144037Y-66000678D01*
X143144964Y-66002915D01*
X143345809Y-66678251D01*
X143344882Y-66687158D01*
X143338404Y-66692648D01*
X142201840Y-67084111D01*
X142192902Y-67083565D01*
X142189757Y-67081322D01*
X142058677Y-66950242D01*
X142055250Y-66941969D01*
X142055888Y-66938159D01*
X142141706Y-66688997D01*
X142447352Y-65801593D01*
X142453285Y-65794889D01*
X142461746Y-65794190D01*
X143137085Y-65995035D01*
G37*
G04 #@! TD.AperFunction*
G04 #@! TA.AperFunction,Conductor*
G36*
X149008292Y-64810133D02*
G01*
X149009512Y-64811193D01*
X149492702Y-65293419D01*
X149496137Y-65301688D01*
X149492718Y-65309965D01*
X149492702Y-65309981D01*
X149009512Y-65792206D01*
X149001235Y-65795625D01*
X148992966Y-65792190D01*
X148991912Y-65790977D01*
X148832371Y-65579454D01*
X148698300Y-65401699D01*
X148698299Y-65401698D01*
X148629739Y-65373301D01*
X148625943Y-65370765D01*
X148565143Y-65309965D01*
X148495642Y-65240463D01*
X148492216Y-65232192D01*
X148495642Y-65223920D01*
X148618405Y-65101157D01*
X148626677Y-65097731D01*
X148634950Y-65101158D01*
X148636591Y-65103219D01*
X148698299Y-65201699D01*
X148698300Y-65201700D01*
X148991908Y-64812427D01*
X148999624Y-64807887D01*
X149008292Y-64810133D01*
G37*
G04 #@! TD.AperFunction*
G04 #@! TA.AperFunction,Conductor*
G36*
X90602185Y-71601727D02*
G01*
X90603493Y-71603284D01*
X90972572Y-72129836D01*
X90974514Y-72138578D01*
X90974040Y-72140401D01*
X90511049Y-73469286D01*
X90505091Y-73475971D01*
X90496151Y-73476486D01*
X90489466Y-73470528D01*
X90488951Y-73469286D01*
X90025959Y-72140401D01*
X90026474Y-72131461D01*
X90027427Y-72129836D01*
X90396507Y-71603284D01*
X90404062Y-71598477D01*
X90406088Y-71598300D01*
X90593912Y-71598300D01*
X90602185Y-71601727D01*
G37*
G04 #@! TD.AperFunction*
G04 #@! TA.AperFunction,Conductor*
G36*
X124340043Y-79387536D02*
G01*
X125390036Y-79896802D01*
X125395983Y-79903495D01*
X125396629Y-79907328D01*
X125396629Y-80092671D01*
X125393202Y-80100944D01*
X125390035Y-80103198D01*
X124340044Y-80612462D01*
X124331105Y-80612989D01*
X124324650Y-80607507D01*
X124049788Y-80100000D01*
X123998645Y-80005570D01*
X123997719Y-79996665D01*
X123998643Y-79994433D01*
X124324650Y-79392491D01*
X124331603Y-79386849D01*
X124340043Y-79387536D01*
G37*
G04 #@! TD.AperFunction*
G04 #@! TA.AperFunction,Conductor*
G36*
X132205932Y-85268574D02*
G01*
X132541449Y-85888128D01*
X132542376Y-85897035D01*
X132541449Y-85899272D01*
X132205932Y-86518825D01*
X132198979Y-86524468D01*
X132190516Y-86523769D01*
X131888630Y-86376562D01*
X131110039Y-85996904D01*
X131104105Y-85990198D01*
X131103467Y-85986388D01*
X131103467Y-85801011D01*
X131106894Y-85792738D01*
X131110037Y-85790496D01*
X132190518Y-85263629D01*
X132199454Y-85263084D01*
X132205932Y-85268574D01*
G37*
G04 #@! TD.AperFunction*
G04 #@! TA.AperFunction,Conductor*
G36*
X130349481Y-85263629D02*
G01*
X131429961Y-85790495D01*
X131435895Y-85797201D01*
X131436533Y-85801011D01*
X131436533Y-85986388D01*
X131433106Y-85994661D01*
X131429961Y-85996904D01*
X130349483Y-86523769D01*
X130340545Y-86524315D01*
X130334067Y-86518825D01*
X129998549Y-85899270D01*
X129997623Y-85890365D01*
X129998550Y-85888128D01*
X130045728Y-85801011D01*
X130334068Y-85268572D01*
X130341020Y-85262931D01*
X130349481Y-85263629D01*
G37*
G04 #@! TD.AperFunction*
G04 #@! TA.AperFunction,Conductor*
G36*
X116960457Y-67275938D02*
G01*
X117064325Y-67318959D01*
X117489319Y-67494990D01*
X117495651Y-67501321D01*
X117495821Y-67509843D01*
X117050856Y-68718012D01*
X117044781Y-68724591D01*
X117035833Y-68724947D01*
X117034382Y-68724298D01*
X116632342Y-68510438D01*
X116629564Y-68508381D01*
X116494936Y-68373753D01*
X116491509Y-68365480D01*
X116492419Y-68360958D01*
X116945192Y-67282218D01*
X116951553Y-67275917D01*
X116960457Y-67275938D01*
G37*
G04 #@! TD.AperFunction*
G04 #@! TA.AperFunction,Conductor*
G36*
X91108200Y-80906833D02*
G01*
X91695790Y-81396492D01*
X91699952Y-81404420D01*
X91700000Y-81405479D01*
X91700000Y-81594520D01*
X91696573Y-81602793D01*
X91695790Y-81603508D01*
X91108201Y-82093165D01*
X91099652Y-82095829D01*
X91092445Y-82092457D01*
X90848572Y-81848990D01*
X90507292Y-81508278D01*
X90503859Y-81500010D01*
X90507278Y-81491735D01*
X91092445Y-80907541D01*
X91100721Y-80904122D01*
X91108200Y-80906833D01*
G37*
G04 #@! TD.AperFunction*
G04 #@! TA.AperFunction,Conductor*
G36*
X108967233Y-77299488D02*
G01*
X110169654Y-77896774D01*
X110175538Y-77903522D01*
X110176148Y-77907251D01*
X110176148Y-78092748D01*
X110172721Y-78101021D01*
X110169653Y-78103226D01*
X108967233Y-78700511D01*
X108958299Y-78701123D01*
X108951739Y-78695603D01*
X108631033Y-78103226D01*
X108578162Y-78005568D01*
X108577238Y-77996663D01*
X108578161Y-77994434D01*
X108951739Y-77304395D01*
X108958691Y-77298752D01*
X108967233Y-77299488D01*
G37*
G04 #@! TD.AperFunction*
G04 #@! TA.AperFunction,Conductor*
G36*
X142462968Y-70427303D02*
G01*
X143492158Y-71411544D01*
X143495769Y-71419739D01*
X143492528Y-71428086D01*
X143492158Y-71428456D01*
X142462968Y-72412696D01*
X142454621Y-72415937D01*
X142447290Y-72413142D01*
X141404109Y-71523503D01*
X141400038Y-71515528D01*
X141400001Y-71514601D01*
X141400001Y-71325398D01*
X141403428Y-71317125D01*
X141404099Y-71316504D01*
X142447290Y-70426856D01*
X142455809Y-70424096D01*
X142462968Y-70427303D01*
G37*
G04 #@! TD.AperFunction*
G04 #@! TA.AperFunction,Conductor*
G36*
X94907554Y-80907542D02*
G01*
X95492706Y-81491720D01*
X95496140Y-81499990D01*
X95492720Y-81508266D01*
X95492706Y-81508280D01*
X94907554Y-82092457D01*
X94899278Y-82095877D01*
X94891798Y-82093165D01*
X94304210Y-81603508D01*
X94300048Y-81595579D01*
X94300000Y-81594520D01*
X94300000Y-81405479D01*
X94303427Y-81397206D01*
X94304201Y-81396498D01*
X94891799Y-80906833D01*
X94900347Y-80904170D01*
X94907554Y-80907542D01*
G37*
G04 #@! TD.AperFunction*
G04 #@! TA.AperFunction,Conductor*
G36*
X115628260Y-77304396D02*
G01*
X116001836Y-77994430D01*
X116002761Y-78003337D01*
X116001836Y-78005570D01*
X115628260Y-78695603D01*
X115621308Y-78701247D01*
X115612766Y-78700511D01*
X114410347Y-78103226D01*
X114404462Y-78096477D01*
X114403852Y-78092748D01*
X114403852Y-77907251D01*
X114407279Y-77898978D01*
X114410343Y-77896775D01*
X115612767Y-77299487D01*
X115621700Y-77298876D01*
X115628260Y-77304396D01*
G37*
G04 #@! TD.AperFunction*
G04 #@! TA.AperFunction,Conductor*
G36*
X140602792Y-84451727D02*
G01*
X140603508Y-84452511D01*
X141074466Y-85017853D01*
X141077129Y-85026403D01*
X141075538Y-85031314D01*
X140510061Y-85984048D01*
X140502892Y-85989413D01*
X140494028Y-85988137D01*
X140489939Y-85984048D01*
X139924461Y-85031314D01*
X139923185Y-85022450D01*
X139925532Y-85017854D01*
X140396492Y-84452510D01*
X140404420Y-84448348D01*
X140405481Y-84448300D01*
X140594519Y-84448300D01*
X140602792Y-84451727D01*
G37*
G04 #@! TD.AperFunction*
G04 #@! TA.AperFunction,Conductor*
G36*
X125428810Y-67025447D02*
G01*
X126133752Y-67396709D01*
X126139475Y-67403596D01*
X126140000Y-67407061D01*
X126140000Y-67594455D01*
X126136573Y-67602728D01*
X126135709Y-67603510D01*
X125598188Y-68043300D01*
X125589615Y-68045887D01*
X125582513Y-68042526D01*
X125139182Y-67600000D01*
X125046397Y-67507384D01*
X125042964Y-67499115D01*
X125045507Y-67491822D01*
X125414204Y-67028514D01*
X125422037Y-67024175D01*
X125428810Y-67025447D01*
G37*
G04 #@! TD.AperFunction*
G04 #@! TA.AperFunction,Conductor*
G36*
X103577361Y-70494763D02*
G01*
X103584312Y-70500406D01*
X103585237Y-70502639D01*
X103808959Y-71254567D01*
X103808034Y-71263474D01*
X103801313Y-71269047D01*
X102552413Y-71669010D01*
X102552394Y-71669017D01*
X102483851Y-71697409D01*
X102479374Y-71698300D01*
X102450482Y-71698300D01*
X102442209Y-71694873D01*
X102438782Y-71686600D01*
X102438782Y-71516075D01*
X102438781Y-71516075D01*
X102434306Y-71517929D01*
X102425351Y-71517928D01*
X102419019Y-71511596D01*
X102418686Y-71503554D01*
X102810953Y-70278684D01*
X102816739Y-70271852D01*
X102825432Y-70271040D01*
X103577361Y-70494763D01*
G37*
G04 #@! TD.AperFunction*
G04 #@! TA.AperFunction,Conductor*
G36*
X96003090Y-72168011D02*
G01*
X96222292Y-72302225D01*
X96429489Y-72429089D01*
X96429489Y-72429088D01*
X96429490Y-72429089D01*
X96498049Y-72400691D01*
X96502526Y-72399800D01*
X96522532Y-72399800D01*
X96530805Y-72403227D01*
X96534232Y-72411500D01*
X96534232Y-72585702D01*
X96534232Y-72585703D01*
X96545268Y-72581131D01*
X96554220Y-72581131D01*
X96560552Y-72587463D01*
X96560607Y-72596284D01*
X96104390Y-73737543D01*
X96098137Y-73743953D01*
X96089183Y-73744064D01*
X96089064Y-73744016D01*
X95509687Y-73504995D01*
X95503346Y-73498672D01*
X95503165Y-73490151D01*
X95985998Y-72173958D01*
X95992063Y-72167373D01*
X96001010Y-72167005D01*
X96003090Y-72168011D01*
G37*
G04 #@! TD.AperFunction*
G04 #@! TA.AperFunction,Conductor*
G36*
X96420240Y-75903445D02*
G01*
X96423709Y-75911700D01*
X96423709Y-76096543D01*
X96421830Y-76102902D01*
X96106520Y-76589927D01*
X96099148Y-76595009D01*
X96090340Y-76593389D01*
X96090094Y-76593225D01*
X95373167Y-76102902D01*
X95239481Y-76011471D01*
X95234588Y-76003973D01*
X95236430Y-75995210D01*
X95241050Y-75991255D01*
X95419325Y-75906257D01*
X95424295Y-75905119D01*
X96411949Y-75900060D01*
X96420240Y-75903445D01*
G37*
G04 #@! TD.AperFunction*
G04 #@! TA.AperFunction,Conductor*
G36*
X118849481Y-85263629D02*
G01*
X119929961Y-85790495D01*
X119935895Y-85797201D01*
X119936533Y-85801011D01*
X119936533Y-85986388D01*
X119933106Y-85994661D01*
X119929961Y-85996904D01*
X118849483Y-86523769D01*
X118840545Y-86524315D01*
X118834067Y-86518825D01*
X118498549Y-85899270D01*
X118497623Y-85890365D01*
X118498550Y-85888128D01*
X118545728Y-85801011D01*
X118834068Y-85268572D01*
X118841020Y-85262931D01*
X118849481Y-85263629D01*
G37*
G04 #@! TD.AperFunction*
G04 #@! TA.AperFunction,Conductor*
G36*
X140434498Y-70487464D02*
G01*
X141940552Y-71316665D01*
X141946146Y-71323657D01*
X141946609Y-71326914D01*
X141946609Y-71513085D01*
X141943182Y-71521358D01*
X141940552Y-71523334D01*
X140434498Y-72352535D01*
X140425598Y-72353523D01*
X140418900Y-72348433D01*
X140300681Y-72156980D01*
X139849403Y-71426145D01*
X139847973Y-71417307D01*
X139849402Y-71413856D01*
X140418900Y-70491565D01*
X140426162Y-70486327D01*
X140434498Y-70487464D01*
G37*
G04 #@! TD.AperFunction*
G04 #@! TA.AperFunction,Conductor*
G36*
X120705932Y-85268574D02*
G01*
X121041449Y-85888128D01*
X121042376Y-85897035D01*
X121041449Y-85899272D01*
X120705932Y-86518825D01*
X120698979Y-86524468D01*
X120690516Y-86523769D01*
X120388630Y-86376562D01*
X119610039Y-85996904D01*
X119604105Y-85990198D01*
X119603467Y-85986388D01*
X119603467Y-85801011D01*
X119606894Y-85792738D01*
X119610037Y-85790496D01*
X120690518Y-85263629D01*
X120699454Y-85263084D01*
X120705932Y-85268574D01*
G37*
G04 #@! TD.AperFunction*
G04 #@! TA.AperFunction,Conductor*
G36*
X120866999Y-63005521D02*
G01*
X120877852Y-63008707D01*
X120936633Y-63046477D01*
X120965662Y-63110031D01*
X120955723Y-63179190D01*
X120955722Y-63179192D01*
X120952537Y-63186167D01*
X120927421Y-63222342D01*
X118004965Y-66144797D01*
X117961920Y-66172804D01*
X117447636Y-66371232D01*
X117378005Y-66376999D01*
X117316309Y-66344205D01*
X117282138Y-66283262D01*
X117279000Y-66255544D01*
X117279000Y-66080000D01*
X116647002Y-66080000D01*
X116579963Y-66060315D01*
X116539615Y-66018000D01*
X116529077Y-65999748D01*
X116529073Y-65999743D01*
X116459256Y-65929926D01*
X116459251Y-65929922D01*
X116373747Y-65880557D01*
X116373746Y-65880556D01*
X116344579Y-65872741D01*
X116278370Y-65855000D01*
X116278367Y-65855000D01*
X116179633Y-65855000D01*
X116179630Y-65855000D01*
X116122405Y-65870333D01*
X116084253Y-65880556D01*
X116084252Y-65880557D01*
X115998748Y-65929922D01*
X115998743Y-65929926D01*
X115928926Y-65999743D01*
X115928922Y-65999748D01*
X115918385Y-66018000D01*
X115867818Y-66066216D01*
X115810998Y-66080000D01*
X115179000Y-66080000D01*
X115179000Y-66357670D01*
X115173975Y-66392614D01*
X115169570Y-66407612D01*
X115131827Y-66466355D01*
X115130458Y-66467542D01*
X115075597Y-66495018D01*
X115068039Y-66496663D01*
X115041668Y-66499500D01*
X114361123Y-66499500D01*
X114359192Y-66499659D01*
X114357545Y-66499885D01*
X114301516Y-66505908D01*
X114188287Y-66548140D01*
X114166666Y-66556204D01*
X114166665Y-66556205D01*
X114051456Y-66642450D01*
X114051450Y-66642456D01*
X113965205Y-66757665D01*
X113965203Y-66757668D01*
X113914908Y-66892516D01*
X113908500Y-66952125D01*
X113908500Y-68520470D01*
X113903477Y-68555404D01*
X113899073Y-68570403D01*
X113861299Y-68629181D01*
X113861289Y-68629190D01*
X113859920Y-68630376D01*
X113805098Y-68657818D01*
X113797540Y-68659463D01*
X113771169Y-68662300D01*
X109905820Y-68662300D01*
X109905757Y-68662299D01*
X109903853Y-68662299D01*
X109896257Y-68662299D01*
X109738143Y-68662299D01*
X109630786Y-68691065D01*
X109630785Y-68691064D01*
X109585409Y-68703223D01*
X109571277Y-68711382D01*
X109571271Y-68711387D01*
X109535299Y-68732157D01*
X109535295Y-68732160D01*
X109491889Y-68757220D01*
X109491888Y-68757219D01*
X109448489Y-68782275D01*
X109448487Y-68782277D01*
X109448481Y-68782281D01*
X109448476Y-68782285D01*
X109395612Y-68835150D01*
X109347451Y-68865003D01*
X108197358Y-69251712D01*
X108197355Y-69251713D01*
X108155131Y-69268050D01*
X108149929Y-69270648D01*
X108149594Y-69269977D01*
X108132125Y-69278095D01*
X108080773Y-69294781D01*
X108080770Y-69294783D01*
X107898397Y-69387708D01*
X107898385Y-69387715D01*
X107732787Y-69508027D01*
X107732784Y-69508029D01*
X107588029Y-69652784D01*
X107588027Y-69652787D01*
X107467715Y-69818385D01*
X107467708Y-69818397D01*
X107374786Y-70000764D01*
X107374780Y-70000777D01*
X107311521Y-70195468D01*
X107279500Y-70397642D01*
X107279500Y-70602356D01*
X107310804Y-70800000D01*
X107311522Y-70804534D01*
X107335568Y-70878538D01*
X107374780Y-70999221D01*
X107374786Y-70999234D01*
X107467708Y-71181601D01*
X107467713Y-71181610D01*
X107467715Y-71181613D01*
X107588013Y-71347193D01*
X107588027Y-71347211D01*
X107588029Y-71347214D01*
X107732789Y-71491974D01*
X107898392Y-71612290D01*
X107898737Y-71612464D01*
X107977862Y-71652780D01*
X107985595Y-71656720D01*
X108014439Y-71677053D01*
X108022211Y-71684392D01*
X108057434Y-71744732D01*
X108054444Y-71814538D01*
X108014189Y-71871645D01*
X107960851Y-71896241D01*
X107956977Y-71896998D01*
X107933197Y-71899300D01*
X104232643Y-71899300D01*
X104197699Y-71894274D01*
X104187444Y-71891262D01*
X104128669Y-71853483D01*
X104099649Y-71789926D01*
X104109598Y-71720768D01*
X104145973Y-71674632D01*
X104149081Y-71672200D01*
X104169206Y-71659369D01*
X104182136Y-71652781D01*
X104182138Y-71652780D01*
X104261610Y-71612287D01*
X104311562Y-71575995D01*
X104427213Y-71491971D01*
X104427213Y-71491970D01*
X104427271Y-71491928D01*
X104428032Y-71491152D01*
X104571148Y-71348036D01*
X104571924Y-71347276D01*
X104571963Y-71347221D01*
X104571966Y-71347219D01*
X104571968Y-71347215D01*
X104571971Y-71347213D01*
X104656024Y-71231522D01*
X104692287Y-71181610D01*
X104785220Y-70999219D01*
X104848477Y-70804534D01*
X104880500Y-70602352D01*
X104880500Y-70397648D01*
X104880499Y-70397642D01*
X104849070Y-70199205D01*
X104849070Y-70199206D01*
X104848478Y-70195470D01*
X104848476Y-70195462D01*
X104807224Y-70068503D01*
X104807224Y-70068502D01*
X104786723Y-70005407D01*
X104785660Y-70001638D01*
X104784652Y-69999610D01*
X104782866Y-69995923D01*
X104781933Y-69994329D01*
X104732990Y-69898274D01*
X104692286Y-69818388D01*
X104674915Y-69794480D01*
X104674913Y-69794477D01*
X104645212Y-69753596D01*
X104571971Y-69652786D01*
X104427213Y-69508028D01*
X104427212Y-69508027D01*
X104427211Y-69508026D01*
X104269507Y-69393450D01*
X104269168Y-69393161D01*
X104261603Y-69387707D01*
X104261188Y-69387498D01*
X104204654Y-69358691D01*
X104204653Y-69358691D01*
X104079223Y-69294781D01*
X103884534Y-69231522D01*
X103884532Y-69231521D01*
X103884530Y-69231521D01*
X103884529Y-69231520D01*
X103709995Y-69203878D01*
X103693409Y-69201251D01*
X103682354Y-69199500D01*
X103682352Y-69199500D01*
X103477648Y-69199500D01*
X103477647Y-69199500D01*
X103453327Y-69203351D01*
X103453326Y-69203350D01*
X103275468Y-69231521D01*
X103080777Y-69294780D01*
X103080764Y-69294786D01*
X102898397Y-69387708D01*
X102898385Y-69387715D01*
X102732787Y-69508027D01*
X102732784Y-69508029D01*
X102588029Y-69652784D01*
X102588027Y-69652787D01*
X102467715Y-69818385D01*
X102467708Y-69818397D01*
X102374783Y-70000770D01*
X102374780Y-70000776D01*
X102347370Y-70085131D01*
X102340950Y-70101045D01*
X102329540Y-70124502D01*
X102195608Y-70542711D01*
X102079360Y-70905703D01*
X102077465Y-70911619D01*
X102038272Y-70969461D01*
X101974029Y-70996931D01*
X101959373Y-70997800D01*
X90420943Y-70997800D01*
X90268218Y-71038722D01*
X90268211Y-71038724D01*
X90268210Y-71038725D01*
X90268200Y-71038730D01*
X90131298Y-71117770D01*
X90131294Y-71117772D01*
X90131290Y-71117775D01*
X90131282Y-71117781D01*
X90131278Y-71117784D01*
X90131276Y-71117785D01*
X90019485Y-71229576D01*
X90019484Y-71229578D01*
X90019481Y-71229581D01*
X90019481Y-71229582D01*
X90019475Y-71229590D01*
X90019472Y-71229594D01*
X90019470Y-71229598D01*
X89940430Y-71366500D01*
X89940426Y-71366507D01*
X89938677Y-71370591D01*
X89937997Y-71370299D01*
X89925848Y-71394055D01*
X89613495Y-71839679D01*
X89591378Y-71874118D01*
X89590426Y-71875742D01*
X89590367Y-71875869D01*
X89590296Y-71875988D01*
X89589076Y-71878312D01*
X89588962Y-71878252D01*
X89578341Y-71896269D01*
X89558771Y-71923205D01*
X89480129Y-72077549D01*
X89426596Y-72242305D01*
X89399500Y-72413383D01*
X89399500Y-74586614D01*
X89422137Y-74729540D01*
X89426596Y-74757696D01*
X89445277Y-74815190D01*
X89480127Y-74922445D01*
X89558768Y-75076788D01*
X89660586Y-75216928D01*
X89733152Y-75289494D01*
X89783072Y-75339414D01*
X89783571Y-75339823D01*
X89785094Y-75340884D01*
X89851598Y-75389203D01*
X89876909Y-75413801D01*
X89885384Y-75424792D01*
X89910732Y-75489902D01*
X89896859Y-75558373D01*
X89893599Y-75564552D01*
X89856814Y-75607007D01*
X89783069Y-75660587D01*
X89656092Y-75787564D01*
X89651961Y-75794941D01*
X89616859Y-75843255D01*
X89616859Y-75843256D01*
X89558768Y-75923210D01*
X89480129Y-76077549D01*
X89480128Y-76077551D01*
X89480128Y-76077552D01*
X89469109Y-76111466D01*
X89426596Y-76242305D01*
X89399500Y-76413383D01*
X89399500Y-78586614D01*
X89424819Y-78746471D01*
X89424821Y-78746485D01*
X89426598Y-78757701D01*
X89480127Y-78922445D01*
X89558768Y-79076788D01*
X89660586Y-79216928D01*
X89724469Y-79280811D01*
X89783072Y-79339414D01*
X89783571Y-79339823D01*
X89785094Y-79340884D01*
X89851598Y-79389203D01*
X89876909Y-79413801D01*
X89885384Y-79424792D01*
X89910732Y-79489902D01*
X89896859Y-79558373D01*
X89893599Y-79564552D01*
X89856814Y-79607007D01*
X89783069Y-79660587D01*
X89656093Y-79787563D01*
X89651961Y-79794942D01*
X89624771Y-79832366D01*
X89561464Y-79919500D01*
X89558768Y-79923211D01*
X89558766Y-79923213D01*
X89558764Y-79923218D01*
X89480129Y-80077549D01*
X89426596Y-80242305D01*
X89399500Y-80413383D01*
X89399500Y-82586615D01*
X89425236Y-82749114D01*
X89425237Y-82749114D01*
X89426597Y-82757700D01*
X89426598Y-82757701D01*
X89469123Y-82888581D01*
X89479660Y-82921009D01*
X89480128Y-82922447D01*
X89510136Y-82981342D01*
X89558766Y-83076786D01*
X89583933Y-83111424D01*
X89660586Y-83216928D01*
X89783072Y-83339414D01*
X89923212Y-83441232D01*
X90077555Y-83519873D01*
X90242299Y-83573402D01*
X90413389Y-83600500D01*
X90413390Y-83600500D01*
X90586610Y-83600500D01*
X90586611Y-83600500D01*
X90757701Y-83573402D01*
X90922445Y-83519873D01*
X91076788Y-83441232D01*
X91216928Y-83339414D01*
X91339414Y-83216928D01*
X91441232Y-83076788D01*
X91519873Y-82922445D01*
X91573402Y-82757701D01*
X91600500Y-82586611D01*
X91600500Y-82399008D01*
X91620185Y-82331969D01*
X91645117Y-82303748D01*
X91854528Y-82129240D01*
X91918631Y-82101445D01*
X91933911Y-82100500D01*
X94066090Y-82100500D01*
X94133129Y-82120185D01*
X94145464Y-82129233D01*
X94354884Y-82303750D01*
X94393782Y-82361788D01*
X94399500Y-82399008D01*
X94399500Y-82586615D01*
X94425236Y-82749114D01*
X94425237Y-82749114D01*
X94426597Y-82757700D01*
X94426598Y-82757701D01*
X94469123Y-82888581D01*
X94479660Y-82921009D01*
X94480128Y-82922447D01*
X94510136Y-82981342D01*
X94558766Y-83076786D01*
X94583933Y-83111424D01*
X94660586Y-83216928D01*
X94783072Y-83339414D01*
X94923212Y-83441232D01*
X95077555Y-83519873D01*
X95242299Y-83573402D01*
X95413389Y-83600500D01*
X95413390Y-83600500D01*
X95586610Y-83600500D01*
X95586611Y-83600500D01*
X95757701Y-83573402D01*
X95922445Y-83519873D01*
X96076788Y-83441232D01*
X96216928Y-83339414D01*
X96339414Y-83216928D01*
X96441232Y-83076788D01*
X96519873Y-82922445D01*
X96573402Y-82757701D01*
X96600500Y-82586611D01*
X96600500Y-81025507D01*
X111299500Y-81025507D01*
X111299500Y-81214491D01*
X111323413Y-81365469D01*
X111329059Y-81401118D01*
X111387454Y-81580836D01*
X111387455Y-81580837D01*
X111387456Y-81580841D01*
X111414564Y-81634041D01*
X111414564Y-81634043D01*
X111414565Y-81634043D01*
X111473240Y-81749199D01*
X111584310Y-81902073D01*
X111717927Y-82035690D01*
X111787207Y-82086025D01*
X111870796Y-82146757D01*
X111870797Y-82146757D01*
X111870801Y-82146760D01*
X111950347Y-82187290D01*
X112032722Y-82229263D01*
X112034320Y-82230198D01*
X112038055Y-82232008D01*
X112040022Y-82232985D01*
X112043777Y-82234044D01*
X112128882Y-82261697D01*
X112218881Y-82290940D01*
X112405514Y-82320500D01*
X112405519Y-82320500D01*
X112594485Y-82320500D01*
X112594486Y-82320500D01*
X112781118Y-82290940D01*
X112960832Y-82232547D01*
X113129199Y-82146760D01*
X113282073Y-82035690D01*
X113415690Y-81902073D01*
X113526760Y-81749199D01*
X113612547Y-81580832D01*
X113670940Y-81401118D01*
X113682204Y-81330000D01*
X113700500Y-81214486D01*
X113700500Y-81025513D01*
X113670940Y-80838881D01*
X113612545Y-80659163D01*
X113537767Y-80512404D01*
X113526760Y-80490801D01*
X113526758Y-80490798D01*
X113526757Y-80490796D01*
X113494514Y-80446418D01*
X113415690Y-80337927D01*
X113282073Y-80204310D01*
X113129199Y-80093240D01*
X112960836Y-80007454D01*
X112781118Y-79949059D01*
X112781112Y-79949058D01*
X112594491Y-79919500D01*
X112594486Y-79919500D01*
X112594481Y-79919500D01*
X112405519Y-79919500D01*
X112405514Y-79919500D01*
X112405509Y-79919500D01*
X112218886Y-79949058D01*
X112218884Y-79949058D01*
X112218881Y-79949059D01*
X112039163Y-80007454D01*
X111954981Y-80050347D01*
X111870799Y-80093240D01*
X111783579Y-80156610D01*
X111783578Y-80156610D01*
X111729794Y-80195686D01*
X111722419Y-80199816D01*
X111579817Y-80342418D01*
X111575685Y-80349797D01*
X111540590Y-80398101D01*
X111495010Y-80460836D01*
X111473240Y-80490800D01*
X111473238Y-80490802D01*
X111473236Y-80490807D01*
X111462232Y-80512404D01*
X111387454Y-80659163D01*
X111329059Y-80838881D01*
X111329058Y-80838884D01*
X111329058Y-80838886D01*
X111299500Y-81025507D01*
X96600500Y-81025507D01*
X96600500Y-80413389D01*
X96573402Y-80242299D01*
X96519873Y-80077555D01*
X96441232Y-79923212D01*
X96339414Y-79783072D01*
X96216928Y-79660586D01*
X96148397Y-79610795D01*
X96123091Y-79586202D01*
X96122731Y-79585735D01*
X96114615Y-79575210D01*
X96089265Y-79510103D01*
X96103138Y-79441626D01*
X96106404Y-79435437D01*
X96143185Y-79392990D01*
X96216365Y-79339823D01*
X96216924Y-79339417D01*
X96216924Y-79339416D01*
X96216928Y-79339414D01*
X96339414Y-79216928D01*
X96441232Y-79076788D01*
X96519873Y-78922445D01*
X96573402Y-78757701D01*
X96600500Y-78586611D01*
X96600500Y-76793709D01*
X96620185Y-76726670D01*
X96620410Y-76726320D01*
X96665217Y-76657111D01*
X96718175Y-76611533D01*
X96769307Y-76600500D01*
X102927749Y-76600500D01*
X102962685Y-76605523D01*
X102972939Y-76608534D01*
X103031717Y-76646310D01*
X103060741Y-76709866D01*
X103050797Y-76779024D01*
X103014418Y-76825167D01*
X103011310Y-76827599D01*
X102991191Y-76840427D01*
X102898392Y-76887711D01*
X102898385Y-76887715D01*
X102732787Y-77008027D01*
X102732784Y-77008029D01*
X102588029Y-77152784D01*
X102588027Y-77152787D01*
X102467715Y-77318385D01*
X102467708Y-77318397D01*
X102374786Y-77500764D01*
X102374780Y-77500777D01*
X102311521Y-77695468D01*
X102279500Y-77897642D01*
X102279500Y-78102352D01*
X102279499Y-78102354D01*
X102311521Y-78304530D01*
X102311522Y-78304534D01*
X102374781Y-78499223D01*
X102426385Y-78600500D01*
X102450962Y-78648735D01*
X102467715Y-78681613D01*
X102588028Y-78847213D01*
X102588030Y-78847215D01*
X102732787Y-78991972D01*
X102771203Y-79019882D01*
X102859885Y-79084312D01*
X102898390Y-79112287D01*
X103007011Y-79167632D01*
X103074330Y-79201933D01*
X103075930Y-79202870D01*
X103079650Y-79204672D01*
X103081634Y-79205658D01*
X103085388Y-79206716D01*
X103185137Y-79239127D01*
X103275465Y-79268477D01*
X103376557Y-79284488D01*
X103477648Y-79300500D01*
X103477649Y-79300500D01*
X103682351Y-79300500D01*
X103682352Y-79300500D01*
X103884534Y-79268477D01*
X104079219Y-79205220D01*
X104261610Y-79112287D01*
X104357000Y-79042982D01*
X104388796Y-79019882D01*
X104410601Y-79004040D01*
X104427213Y-78991971D01*
X104427213Y-78991970D01*
X104427273Y-78991927D01*
X104428036Y-78991148D01*
X104571152Y-78848032D01*
X104571924Y-78847275D01*
X104571962Y-78847222D01*
X104571966Y-78847219D01*
X104571968Y-78847215D01*
X104571971Y-78847213D01*
X104645157Y-78746479D01*
X104692287Y-78681610D01*
X104785220Y-78499219D01*
X104848477Y-78304534D01*
X104880500Y-78102352D01*
X104880500Y-77897648D01*
X104859689Y-77766255D01*
X104848477Y-77695465D01*
X104815605Y-77594297D01*
X104786716Y-77505387D01*
X104785658Y-77501633D01*
X104784672Y-77499650D01*
X104782872Y-77495933D01*
X104781936Y-77494335D01*
X104742501Y-77416941D01*
X104692287Y-77318390D01*
X104692283Y-77318385D01*
X104665298Y-77281242D01*
X104571972Y-77152787D01*
X104427211Y-77008026D01*
X104269507Y-76893450D01*
X104269168Y-76893161D01*
X104261600Y-76887705D01*
X104261239Y-76887523D01*
X104174010Y-76843077D01*
X104145166Y-76822745D01*
X104137395Y-76815406D01*
X104102173Y-76755067D01*
X104105163Y-76685261D01*
X104145418Y-76628154D01*
X104198792Y-76603551D01*
X104202667Y-76602795D01*
X104226411Y-76600500D01*
X107927749Y-76600500D01*
X107962685Y-76605523D01*
X107972939Y-76608534D01*
X108031717Y-76646310D01*
X108060741Y-76709866D01*
X108050797Y-76779024D01*
X108014418Y-76825167D01*
X108011310Y-76827599D01*
X107991191Y-76840427D01*
X107898392Y-76887711D01*
X107898385Y-76887715D01*
X107732787Y-77008027D01*
X107732784Y-77008029D01*
X107588029Y-77152784D01*
X107588027Y-77152787D01*
X107467715Y-77318385D01*
X107467708Y-77318397D01*
X107374786Y-77500764D01*
X107374780Y-77500777D01*
X107311521Y-77695468D01*
X107279500Y-77897642D01*
X107279500Y-78102352D01*
X107279499Y-78102354D01*
X107311521Y-78304530D01*
X107311522Y-78304534D01*
X107374781Y-78499223D01*
X107426385Y-78600500D01*
X107450962Y-78648735D01*
X107467715Y-78681613D01*
X107588028Y-78847213D01*
X107588030Y-78847215D01*
X107732787Y-78991972D01*
X107771203Y-79019882D01*
X107859885Y-79084312D01*
X107898390Y-79112287D01*
X108007011Y-79167632D01*
X108074330Y-79201933D01*
X108075930Y-79202870D01*
X108079650Y-79204672D01*
X108081634Y-79205658D01*
X108085388Y-79206716D01*
X108185137Y-79239127D01*
X108275465Y-79268477D01*
X108376557Y-79284488D01*
X108477648Y-79300500D01*
X108477649Y-79300500D01*
X108682351Y-79300500D01*
X108682352Y-79300500D01*
X108884534Y-79268477D01*
X109079219Y-79205220D01*
X109152907Y-79167673D01*
X109170387Y-79160391D01*
X109192116Y-79153234D01*
X110278786Y-78613446D01*
X110333950Y-78600500D01*
X114246050Y-78600500D01*
X114301214Y-78613446D01*
X115387882Y-79153233D01*
X115429239Y-79171519D01*
X115429242Y-79171519D01*
X115434758Y-79173363D01*
X115434518Y-79174078D01*
X115452642Y-79180691D01*
X115494335Y-79201936D01*
X115495937Y-79202874D01*
X115499659Y-79204677D01*
X115501634Y-79205658D01*
X115505388Y-79206716D01*
X115605137Y-79239127D01*
X115695465Y-79268477D01*
X115796557Y-79284488D01*
X115897648Y-79300500D01*
X115897649Y-79300500D01*
X116102351Y-79300500D01*
X116102352Y-79300500D01*
X116304534Y-79268477D01*
X116499219Y-79205220D01*
X116681610Y-79112287D01*
X116777000Y-79042982D01*
X116808796Y-79019882D01*
X116830601Y-79004040D01*
X116847213Y-78991971D01*
X116847213Y-78991970D01*
X116847273Y-78991927D01*
X116848036Y-78991148D01*
X116991152Y-78848032D01*
X116991924Y-78847275D01*
X116991962Y-78847222D01*
X116991966Y-78847219D01*
X116991968Y-78847215D01*
X116991971Y-78847213D01*
X117065157Y-78746479D01*
X117112287Y-78681610D01*
X117205220Y-78499219D01*
X117268477Y-78304534D01*
X117300500Y-78102352D01*
X117300500Y-77897648D01*
X117279689Y-77766255D01*
X117268477Y-77695465D01*
X117235605Y-77594297D01*
X117206716Y-77505387D01*
X117205658Y-77501633D01*
X117204672Y-77499650D01*
X117202872Y-77495933D01*
X117201936Y-77494335D01*
X117162501Y-77416941D01*
X117112287Y-77318390D01*
X117112283Y-77318385D01*
X117085298Y-77281242D01*
X116991972Y-77152787D01*
X116847211Y-77008026D01*
X116689507Y-76893450D01*
X116689168Y-76893161D01*
X116681600Y-76887705D01*
X116681239Y-76887523D01*
X116594010Y-76843077D01*
X116565166Y-76822745D01*
X116557395Y-76815406D01*
X116522173Y-76755067D01*
X116525163Y-76685261D01*
X116565418Y-76628154D01*
X116618792Y-76603551D01*
X116622667Y-76602795D01*
X116646411Y-76600500D01*
X120347749Y-76600500D01*
X120382685Y-76605523D01*
X120392939Y-76608534D01*
X120451717Y-76646310D01*
X120480741Y-76709866D01*
X120470797Y-76779024D01*
X120434418Y-76825167D01*
X120431310Y-76827599D01*
X120411191Y-76840427D01*
X120318392Y-76887711D01*
X120318385Y-76887715D01*
X120152787Y-77008027D01*
X120152784Y-77008029D01*
X120008029Y-77152784D01*
X120008027Y-77152787D01*
X119887715Y-77318385D01*
X119887708Y-77318397D01*
X119794786Y-77500764D01*
X119794780Y-77500777D01*
X119731521Y-77695468D01*
X119699500Y-77897642D01*
X119699500Y-78102352D01*
X119699499Y-78102354D01*
X119731521Y-78304530D01*
X119731522Y-78304534D01*
X119794781Y-78499223D01*
X119846385Y-78600500D01*
X119870962Y-78648735D01*
X119887715Y-78681613D01*
X120008028Y-78847213D01*
X120008030Y-78847215D01*
X120152787Y-78991972D01*
X120191203Y-79019882D01*
X120279885Y-79084312D01*
X120318390Y-79112287D01*
X120427011Y-79167632D01*
X120494330Y-79201933D01*
X120495930Y-79202870D01*
X120499650Y-79204672D01*
X120501634Y-79205658D01*
X120505388Y-79206716D01*
X120605137Y-79239127D01*
X120695465Y-79268477D01*
X120796557Y-79284488D01*
X120897648Y-79300500D01*
X120897649Y-79300500D01*
X121102351Y-79300500D01*
X121102352Y-79300500D01*
X121304534Y-79268477D01*
X121499219Y-79205220D01*
X121681610Y-79112287D01*
X121777000Y-79042982D01*
X121808796Y-79019882D01*
X121830601Y-79004040D01*
X121847213Y-78991971D01*
X121847213Y-78991970D01*
X121847273Y-78991927D01*
X121848036Y-78991148D01*
X121991152Y-78848032D01*
X121991924Y-78847275D01*
X121991962Y-78847222D01*
X121991966Y-78847219D01*
X121991968Y-78847215D01*
X121991971Y-78847213D01*
X122065157Y-78746479D01*
X122112287Y-78681610D01*
X122205220Y-78499219D01*
X122268477Y-78304534D01*
X122300500Y-78102352D01*
X122300500Y-77897648D01*
X122279689Y-77766255D01*
X122268477Y-77695465D01*
X122235605Y-77594297D01*
X122206716Y-77505387D01*
X122205658Y-77501633D01*
X122204672Y-77499650D01*
X122202872Y-77495933D01*
X122201936Y-77494335D01*
X122162501Y-77416941D01*
X122112287Y-77318390D01*
X122112283Y-77318385D01*
X122085298Y-77281242D01*
X121991972Y-77152787D01*
X121847211Y-77008026D01*
X121689507Y-76893450D01*
X121689168Y-76893161D01*
X121681600Y-76887705D01*
X121681239Y-76887523D01*
X121594010Y-76843077D01*
X121565166Y-76822745D01*
X121557395Y-76815406D01*
X121522173Y-76755067D01*
X121525163Y-76685261D01*
X121565418Y-76628154D01*
X121618792Y-76603551D01*
X121622667Y-76602795D01*
X121646411Y-76600500D01*
X126847749Y-76600500D01*
X126882685Y-76605523D01*
X126892939Y-76608534D01*
X126951717Y-76646310D01*
X126980741Y-76709866D01*
X126970797Y-76779024D01*
X126934418Y-76825167D01*
X126931310Y-76827599D01*
X126911191Y-76840427D01*
X126818392Y-76887711D01*
X126818385Y-76887715D01*
X126652787Y-77008027D01*
X126652784Y-77008029D01*
X126508029Y-77152784D01*
X126508027Y-77152787D01*
X126387715Y-77318385D01*
X126387708Y-77318397D01*
X126294786Y-77500764D01*
X126294780Y-77500777D01*
X126231521Y-77695468D01*
X126199500Y-77897642D01*
X126199500Y-78102352D01*
X126199499Y-78102354D01*
X126231521Y-78304530D01*
X126231522Y-78304534D01*
X126294781Y-78499223D01*
X126346385Y-78600500D01*
X126370962Y-78648735D01*
X126387715Y-78681613D01*
X126508028Y-78847213D01*
X126508030Y-78847215D01*
X126652787Y-78991972D01*
X126779885Y-79084312D01*
X126818390Y-79112287D01*
X126885426Y-79146444D01*
X126885429Y-79146445D01*
X126885431Y-79146446D01*
X126905990Y-79156921D01*
X126934830Y-79177251D01*
X126942604Y-79184593D01*
X126977826Y-79244933D01*
X126974836Y-79314739D01*
X126934580Y-79371846D01*
X126881243Y-79396441D01*
X126877369Y-79397198D01*
X126853589Y-79399500D01*
X125551544Y-79399500D01*
X125497431Y-79387070D01*
X125482473Y-79379815D01*
X124560642Y-78932710D01*
X124521339Y-78915665D01*
X124521338Y-78915664D01*
X124521332Y-78915662D01*
X124516079Y-78913941D01*
X124498393Y-78906590D01*
X124471687Y-78892983D01*
X124460836Y-78887454D01*
X124281118Y-78829059D01*
X124275177Y-78828118D01*
X124094491Y-78799500D01*
X124094486Y-78799500D01*
X124094481Y-78799500D01*
X123905519Y-78799500D01*
X123905514Y-78799500D01*
X123905509Y-78799500D01*
X123718886Y-78829058D01*
X123718884Y-78829058D01*
X123718881Y-78829059D01*
X123539163Y-78887454D01*
X123470490Y-78922445D01*
X123370807Y-78973236D01*
X123370794Y-78973244D01*
X123306604Y-79019880D01*
X123306605Y-79019881D01*
X123229798Y-79075685D01*
X123222417Y-79079818D01*
X123079817Y-79222418D01*
X123075685Y-79229797D01*
X123055302Y-79257852D01*
X122973244Y-79370794D01*
X122973236Y-79370807D01*
X122937155Y-79441621D01*
X122887454Y-79539163D01*
X122829059Y-79718881D01*
X122829058Y-79718884D01*
X122829058Y-79718886D01*
X122799500Y-79905507D01*
X122799500Y-80094491D01*
X122824688Y-80253520D01*
X122829059Y-80281118D01*
X122887454Y-80460836D01*
X122938400Y-80560823D01*
X122962921Y-80608948D01*
X122968647Y-80620185D01*
X122973240Y-80629199D01*
X123084310Y-80782073D01*
X123217927Y-80915690D01*
X123286918Y-80965815D01*
X123370796Y-81026757D01*
X123370800Y-81026759D01*
X123370801Y-81026760D01*
X123402105Y-81042710D01*
X123402106Y-81042711D01*
X123445278Y-81064708D01*
X123532720Y-81109262D01*
X123534307Y-81110192D01*
X123538025Y-81111993D01*
X123540023Y-81112986D01*
X123543789Y-81114049D01*
X123592184Y-81129773D01*
X123623319Y-81139889D01*
X123623320Y-81139890D01*
X123646157Y-81147310D01*
X123718881Y-81170940D01*
X123905514Y-81200500D01*
X123905519Y-81200500D01*
X124094485Y-81200500D01*
X124094486Y-81200500D01*
X124281118Y-81170940D01*
X124287812Y-81168765D01*
X124294504Y-81166591D01*
X124294504Y-81166590D01*
X124294506Y-81166590D01*
X124460832Y-81112547D01*
X124522284Y-81081234D01*
X124540877Y-81073592D01*
X124560642Y-81067288D01*
X125497429Y-80612929D01*
X125551542Y-80600500D01*
X134182073Y-80600500D01*
X134217005Y-80605521D01*
X134242249Y-80612934D01*
X134294995Y-80644230D01*
X137549474Y-83898709D01*
X137570624Y-83926961D01*
X137573552Y-83932323D01*
X137588405Y-84000596D01*
X137563989Y-84066061D01*
X137508057Y-84107933D01*
X137438366Y-84112918D01*
X137438071Y-84112854D01*
X137437709Y-84112775D01*
X137391417Y-84091979D01*
X137246736Y-83986863D01*
X137246396Y-83986572D01*
X137238838Y-83981124D01*
X137238474Y-83980941D01*
X137166556Y-83944297D01*
X137143056Y-83932323D01*
X137014383Y-83866760D01*
X137014377Y-83866758D01*
X136774787Y-83788910D01*
X136556861Y-83754394D01*
X136525962Y-83749500D01*
X136525961Y-83749500D01*
X136274039Y-83749500D01*
X136274038Y-83749500D01*
X136248657Y-83753520D01*
X136243139Y-83754394D01*
X136025212Y-83788910D01*
X136025209Y-83788910D01*
X135785622Y-83866758D01*
X135785616Y-83866760D01*
X135587348Y-83967784D01*
X135561147Y-83981134D01*
X135357367Y-84129188D01*
X135357338Y-84129210D01*
X135179210Y-84307338D01*
X135179188Y-84307367D01*
X135031134Y-84511147D01*
X135031132Y-84511151D01*
X134916760Y-84735616D01*
X134916759Y-84735618D01*
X134916759Y-84735619D01*
X134838910Y-84975209D01*
X134838910Y-84975212D01*
X134817267Y-85111863D01*
X134799500Y-85224038D01*
X134799500Y-86775961D01*
X134811306Y-86850500D01*
X134838910Y-87024786D01*
X134838910Y-87024789D01*
X134916759Y-87264381D01*
X134916762Y-87264388D01*
X134948998Y-87327652D01*
X134948998Y-87327654D01*
X134948999Y-87327654D01*
X135013286Y-87453825D01*
X135031132Y-87488848D01*
X135031135Y-87488853D01*
X135126181Y-87619673D01*
X135179201Y-87692649D01*
X135179205Y-87692654D01*
X135179210Y-87692660D01*
X135357338Y-87870788D01*
X135357342Y-87870791D01*
X135357345Y-87870794D01*
X135357350Y-87870798D01*
X135357367Y-87870810D01*
X135525603Y-87993040D01*
X135525604Y-87993041D01*
X135561150Y-88018867D01*
X135561152Y-88018868D01*
X135561155Y-88018870D01*
X135704184Y-88091747D01*
X135704183Y-88091747D01*
X135715019Y-88097268D01*
X135779173Y-88129956D01*
X135780760Y-88130886D01*
X135784478Y-88132687D01*
X135786475Y-88133680D01*
X135790243Y-88134743D01*
X135981727Y-88196960D01*
X136025215Y-88211090D01*
X136274038Y-88250500D01*
X136274039Y-88250500D01*
X136525961Y-88250500D01*
X136525962Y-88250500D01*
X136774785Y-88211090D01*
X137014379Y-88133241D01*
X137238845Y-88018870D01*
X137442656Y-87870793D01*
X137620793Y-87692656D01*
X137673817Y-87619672D01*
X137698413Y-87594363D01*
X137710793Y-87584816D01*
X137775899Y-87559465D01*
X137782471Y-87558901D01*
X137849374Y-87571960D01*
X137893345Y-87594363D01*
X137914705Y-87605246D01*
X137914707Y-87605248D01*
X137932265Y-87614194D01*
X138013527Y-87655599D01*
X138015118Y-87656531D01*
X138018818Y-87658323D01*
X138020831Y-87659324D01*
X138024597Y-87660386D01*
X138062082Y-87672565D01*
X138120315Y-87691486D01*
X138120316Y-87691487D01*
X138127423Y-87693796D01*
X138207173Y-87719709D01*
X138401578Y-87750500D01*
X138401583Y-87750500D01*
X138598421Y-87750500D01*
X138598422Y-87750500D01*
X138792826Y-87719709D01*
X138872574Y-87693797D01*
X138980025Y-87658884D01*
X139155405Y-87569524D01*
X139314646Y-87453828D01*
X139399717Y-87368756D01*
X139427964Y-87347611D01*
X139441688Y-87340117D01*
X139509946Y-87325266D01*
X139511756Y-87325395D01*
X139569953Y-87344761D01*
X139576471Y-87348950D01*
X139597106Y-87365580D01*
X139685354Y-87453828D01*
X139844595Y-87569524D01*
X139914708Y-87605248D01*
X139914709Y-87605249D01*
X139932265Y-87614194D01*
X140013527Y-87655599D01*
X140015118Y-87656531D01*
X140018818Y-87658323D01*
X140020831Y-87659324D01*
X140024597Y-87660386D01*
X140062082Y-87672565D01*
X140120315Y-87691486D01*
X140120316Y-87691487D01*
X140127423Y-87693796D01*
X140207173Y-87719709D01*
X140401578Y-87750500D01*
X140401583Y-87750500D01*
X140598421Y-87750500D01*
X140598422Y-87750500D01*
X140792826Y-87719709D01*
X140872574Y-87693797D01*
X140980025Y-87658884D01*
X141155405Y-87569524D01*
X141177194Y-87553692D01*
X141208399Y-87537225D01*
X141223121Y-87531972D01*
X141292859Y-87527977D01*
X141295087Y-87528495D01*
X141348896Y-87556151D01*
X141354095Y-87560722D01*
X141371480Y-87579529D01*
X141385792Y-87598646D01*
X141387977Y-87602187D01*
X141390340Y-87605015D01*
X141394033Y-87609684D01*
X141401333Y-87614193D01*
X141507664Y-87693793D01*
X141507671Y-87693797D01*
X141557155Y-87712253D01*
X141592513Y-87738721D01*
X141649444Y-87744835D01*
X141649443Y-87744839D01*
X141649458Y-87744836D01*
X141702127Y-87750500D01*
X143297872Y-87750499D01*
X143346831Y-87745236D01*
X143382101Y-87746496D01*
X143405625Y-87750740D01*
X143456132Y-87772191D01*
X143457402Y-87773106D01*
X143472539Y-87785988D01*
X143557345Y-87870794D01*
X143557350Y-87870798D01*
X143557367Y-87870810D01*
X143725603Y-87993040D01*
X143725604Y-87993041D01*
X143761150Y-88018867D01*
X143761152Y-88018868D01*
X143761155Y-88018870D01*
X143904184Y-88091747D01*
X143904183Y-88091747D01*
X143915019Y-88097268D01*
X143979173Y-88129956D01*
X143980760Y-88130886D01*
X143984478Y-88132687D01*
X143986475Y-88133680D01*
X143990243Y-88134743D01*
X144181727Y-88196960D01*
X144225215Y-88211090D01*
X144474038Y-88250500D01*
X144474039Y-88250500D01*
X144725961Y-88250500D01*
X144725962Y-88250500D01*
X144974785Y-88211090D01*
X145214379Y-88133241D01*
X145438845Y-88018870D01*
X145642656Y-87870793D01*
X145820793Y-87692656D01*
X145968870Y-87488845D01*
X146083241Y-87264379D01*
X146161090Y-87024785D01*
X146200500Y-86775962D01*
X146200500Y-85224038D01*
X146182733Y-85111861D01*
X146161090Y-84975214D01*
X146131827Y-84885153D01*
X146120396Y-84849973D01*
X146649500Y-84849973D01*
X146649500Y-84849996D01*
X146649501Y-86150000D01*
X146649501Y-86150026D01*
X146657604Y-86229338D01*
X146660000Y-86252796D01*
X146660001Y-86252799D01*
X146715185Y-86419331D01*
X146715186Y-86419334D01*
X146807288Y-86568656D01*
X146931344Y-86692712D01*
X147080666Y-86784814D01*
X147247203Y-86839999D01*
X147349991Y-86850500D01*
X148650008Y-86850499D01*
X148752797Y-86839999D01*
X148919334Y-86784814D01*
X149068656Y-86692712D01*
X149192712Y-86568656D01*
X149284814Y-86419334D01*
X149339999Y-86252797D01*
X149350500Y-86150009D01*
X149350499Y-84849992D01*
X149350497Y-84849973D01*
X149649500Y-84849973D01*
X149649500Y-84849996D01*
X149649501Y-86150000D01*
X149649501Y-86150026D01*
X149657604Y-86229338D01*
X149660000Y-86252796D01*
X149660001Y-86252799D01*
X149715185Y-86419331D01*
X149715186Y-86419334D01*
X149807288Y-86568656D01*
X149931344Y-86692712D01*
X150080666Y-86784814D01*
X150247203Y-86839999D01*
X150349991Y-86850500D01*
X151650008Y-86850499D01*
X151752797Y-86839999D01*
X151919334Y-86784814D01*
X152068656Y-86692712D01*
X152192712Y-86568656D01*
X152284814Y-86419334D01*
X152339999Y-86252797D01*
X152350500Y-86150009D01*
X152350499Y-84849992D01*
X152350482Y-84849830D01*
X152339999Y-84747203D01*
X152339998Y-84747200D01*
X152332946Y-84725919D01*
X152284814Y-84580666D01*
X152192712Y-84431344D01*
X152068656Y-84307288D01*
X152068655Y-84307287D01*
X151927317Y-84220110D01*
X151927315Y-84220109D01*
X151919336Y-84215187D01*
X151919331Y-84215185D01*
X151919330Y-84215184D01*
X151918390Y-84214873D01*
X151917862Y-84214698D01*
X151761265Y-84162807D01*
X151758439Y-84161639D01*
X151752796Y-84159999D01*
X151650025Y-84149500D01*
X151650016Y-84149500D01*
X151349857Y-84149500D01*
X151314921Y-84144477D01*
X151306288Y-84141942D01*
X151247510Y-84104167D01*
X151218486Y-84040610D01*
X151228430Y-83971452D01*
X151268698Y-83922386D01*
X151272858Y-83919387D01*
X151297927Y-83905408D01*
X151450224Y-83842325D01*
X151450224Y-83842324D01*
X151450231Y-83842322D01*
X151605908Y-83738302D01*
X151738302Y-83605908D01*
X151842322Y-83450231D01*
X151913973Y-83277251D01*
X151950500Y-83093616D01*
X151950500Y-82906384D01*
X151913973Y-82722749D01*
X151842322Y-82549769D01*
X151842321Y-82549768D01*
X151842318Y-82549762D01*
X151842318Y-82549761D01*
X151738300Y-82394089D01*
X151738299Y-82394088D01*
X151738294Y-82394082D01*
X151605916Y-82261704D01*
X151605910Y-82261699D01*
X151605906Y-82261696D01*
X151450231Y-82157677D01*
X151450232Y-82157677D01*
X151450222Y-82157672D01*
X151277252Y-82086027D01*
X151277225Y-82086021D01*
X151093622Y-82049500D01*
X151093620Y-82049500D01*
X151093616Y-82049500D01*
X150906384Y-82049500D01*
X150906379Y-82049500D01*
X150906377Y-82049500D01*
X150722773Y-82086021D01*
X150722746Y-82086027D01*
X150549776Y-82157672D01*
X150549766Y-82157677D01*
X150394093Y-82261696D01*
X150394088Y-82261699D01*
X150394082Y-82261704D01*
X150261704Y-82394082D01*
X150261699Y-82394088D01*
X150261698Y-82394089D01*
X150157677Y-82549766D01*
X150157672Y-82549776D01*
X150086027Y-82722746D01*
X150086021Y-82722773D01*
X150049500Y-82906376D01*
X150049500Y-82906379D01*
X150049500Y-83093620D01*
X150049500Y-83093622D01*
X150049499Y-83093622D01*
X150086021Y-83277225D01*
X150086027Y-83277252D01*
X150157672Y-83450222D01*
X150157677Y-83450232D01*
X150261698Y-83605909D01*
X150261699Y-83605910D01*
X150261704Y-83605916D01*
X150394082Y-83738294D01*
X150394088Y-83738299D01*
X150394092Y-83738302D01*
X150549762Y-83842318D01*
X150549775Y-83842325D01*
X150549779Y-83842327D01*
X150557696Y-83845606D01*
X150608765Y-83866759D01*
X150608766Y-83866760D01*
X150698952Y-83904116D01*
X150729298Y-83922119D01*
X150733572Y-83925562D01*
X150735307Y-83926961D01*
X150736303Y-83927763D01*
X150776156Y-83985152D01*
X150778656Y-84054977D01*
X150743009Y-84115069D01*
X150687039Y-84144993D01*
X150682053Y-84146172D01*
X150653519Y-84149500D01*
X150349998Y-84149500D01*
X150349981Y-84149501D01*
X150320890Y-84152472D01*
X150247201Y-84160000D01*
X150247088Y-84160038D01*
X150080676Y-84215182D01*
X150080667Y-84215185D01*
X150080665Y-84215186D01*
X150080663Y-84215187D01*
X150013410Y-84256669D01*
X149931340Y-84307290D01*
X149807290Y-84431340D01*
X149807289Y-84431342D01*
X149758063Y-84511151D01*
X149715185Y-84580667D01*
X149715178Y-84580685D01*
X149708776Y-84600008D01*
X149708776Y-84600010D01*
X149670299Y-84716123D01*
X149661852Y-84729067D01*
X149660365Y-84743630D01*
X149659541Y-84749883D01*
X149659359Y-84753473D01*
X149649500Y-84849973D01*
X149350497Y-84849973D01*
X149339999Y-84747203D01*
X149284814Y-84580666D01*
X149192712Y-84431344D01*
X149068656Y-84307288D01*
X149068655Y-84307287D01*
X148927317Y-84220110D01*
X148927315Y-84220109D01*
X148919336Y-84215187D01*
X148919331Y-84215185D01*
X148919330Y-84215184D01*
X148918390Y-84214873D01*
X148917862Y-84214698D01*
X148761265Y-84162807D01*
X148758439Y-84161639D01*
X148752796Y-84159999D01*
X148650025Y-84149500D01*
X148650016Y-84149500D01*
X148349857Y-84149500D01*
X148314921Y-84144477D01*
X148306288Y-84141942D01*
X148247510Y-84104167D01*
X148218486Y-84040610D01*
X148228430Y-83971452D01*
X148268698Y-83922386D01*
X148272858Y-83919387D01*
X148297927Y-83905408D01*
X148450224Y-83842325D01*
X148450224Y-83842324D01*
X148450231Y-83842322D01*
X148605908Y-83738302D01*
X148738302Y-83605908D01*
X148842322Y-83450231D01*
X148913973Y-83277251D01*
X148950500Y-83093616D01*
X148950500Y-82906384D01*
X148913973Y-82722749D01*
X148842322Y-82549769D01*
X148842321Y-82549768D01*
X148842318Y-82549762D01*
X148842318Y-82549761D01*
X148738300Y-82394089D01*
X148738299Y-82394088D01*
X148738294Y-82394082D01*
X148605916Y-82261704D01*
X148605910Y-82261699D01*
X148605906Y-82261696D01*
X148450231Y-82157677D01*
X148450232Y-82157677D01*
X148450222Y-82157672D01*
X148277252Y-82086027D01*
X148277225Y-82086021D01*
X148093622Y-82049500D01*
X148093620Y-82049500D01*
X148093616Y-82049500D01*
X147906384Y-82049500D01*
X147906379Y-82049500D01*
X147906377Y-82049500D01*
X147722773Y-82086021D01*
X147722746Y-82086027D01*
X147549776Y-82157672D01*
X147549766Y-82157677D01*
X147394093Y-82261696D01*
X147394088Y-82261699D01*
X147394082Y-82261704D01*
X147261704Y-82394082D01*
X147261699Y-82394088D01*
X147261698Y-82394089D01*
X147157677Y-82549766D01*
X147157672Y-82549776D01*
X147086027Y-82722746D01*
X147086021Y-82722773D01*
X147049500Y-82906376D01*
X147049500Y-82906379D01*
X147049500Y-83093620D01*
X147049500Y-83093622D01*
X147049499Y-83093622D01*
X147086021Y-83277225D01*
X147086027Y-83277252D01*
X147157672Y-83450222D01*
X147157677Y-83450232D01*
X147261698Y-83605909D01*
X147261699Y-83605910D01*
X147261704Y-83605916D01*
X147394082Y-83738294D01*
X147394088Y-83738299D01*
X147394092Y-83738302D01*
X147549762Y-83842318D01*
X147549775Y-83842325D01*
X147549779Y-83842327D01*
X147557696Y-83845606D01*
X147608765Y-83866759D01*
X147608766Y-83866760D01*
X147698952Y-83904116D01*
X147729298Y-83922119D01*
X147733572Y-83925562D01*
X147735307Y-83926961D01*
X147736303Y-83927763D01*
X147776156Y-83985152D01*
X147778656Y-84054977D01*
X147743009Y-84115069D01*
X147687039Y-84144993D01*
X147682053Y-84146172D01*
X147653519Y-84149500D01*
X147349998Y-84149500D01*
X147349981Y-84149501D01*
X147320890Y-84152472D01*
X147247201Y-84160000D01*
X147247088Y-84160038D01*
X147080676Y-84215182D01*
X147080667Y-84215185D01*
X147080665Y-84215186D01*
X147080663Y-84215187D01*
X147013410Y-84256669D01*
X146931340Y-84307290D01*
X146807290Y-84431340D01*
X146807289Y-84431342D01*
X146758063Y-84511151D01*
X146715185Y-84580667D01*
X146715178Y-84580685D01*
X146708776Y-84600008D01*
X146708776Y-84600010D01*
X146670299Y-84716123D01*
X146661852Y-84729067D01*
X146660365Y-84743630D01*
X146659541Y-84749883D01*
X146659359Y-84753473D01*
X146649500Y-84849973D01*
X146120396Y-84849973D01*
X146084742Y-84740241D01*
X146083680Y-84736477D01*
X146082684Y-84734472D01*
X146080889Y-84730767D01*
X146079956Y-84729172D01*
X146014143Y-84600009D01*
X145981782Y-84536497D01*
X145968871Y-84511156D01*
X145932141Y-84460602D01*
X145910472Y-84430777D01*
X145820798Y-84307350D01*
X145820794Y-84307345D01*
X145820791Y-84307342D01*
X145820788Y-84307338D01*
X145642660Y-84129210D01*
X145642655Y-84129206D01*
X145642654Y-84129205D01*
X145642649Y-84129201D01*
X145446743Y-83986868D01*
X145446402Y-83986577D01*
X145438838Y-83981124D01*
X145438474Y-83980941D01*
X145366556Y-83944297D01*
X145343056Y-83932323D01*
X145214383Y-83866760D01*
X145214377Y-83866758D01*
X144974787Y-83788910D01*
X144756861Y-83754394D01*
X144725962Y-83749500D01*
X144725961Y-83749500D01*
X144474039Y-83749500D01*
X144474038Y-83749500D01*
X144448657Y-83753520D01*
X144443139Y-83754394D01*
X144225212Y-83788910D01*
X144225209Y-83788910D01*
X143985622Y-83866758D01*
X143985616Y-83866760D01*
X143912302Y-83904116D01*
X143761154Y-83981130D01*
X143761151Y-83981131D01*
X143761151Y-83981132D01*
X143753256Y-83986868D01*
X143557343Y-84129205D01*
X143478091Y-84208456D01*
X143449834Y-84229608D01*
X143428854Y-84241063D01*
X143376070Y-84256051D01*
X143374522Y-84256134D01*
X143354630Y-84255602D01*
X143344037Y-84254463D01*
X143297873Y-84249500D01*
X143297869Y-84249500D01*
X141702123Y-84249500D01*
X141700192Y-84249659D01*
X141698545Y-84249885D01*
X141642516Y-84255908D01*
X141507666Y-84306204D01*
X141507665Y-84306205D01*
X141392451Y-84392454D01*
X141389711Y-84395195D01*
X141386309Y-84397052D01*
X141385355Y-84397767D01*
X141385252Y-84397629D01*
X141328388Y-84428680D01*
X141258696Y-84423696D01*
X141206757Y-84386881D01*
X141054509Y-84204122D01*
X141042395Y-84186755D01*
X141020862Y-84149459D01*
X140980524Y-84079590D01*
X140980518Y-84079582D01*
X140980514Y-84079578D01*
X140980513Y-84079576D01*
X140868722Y-83967785D01*
X140868720Y-83967784D01*
X140868717Y-83967781D01*
X140868709Y-83967775D01*
X140831845Y-83946492D01*
X140731807Y-83888735D01*
X140731783Y-83888722D01*
X140597758Y-83852811D01*
X140579057Y-83847800D01*
X140579056Y-83847800D01*
X139266227Y-83847800D01*
X139231291Y-83842777D01*
X139206049Y-83835365D01*
X139153304Y-83804069D01*
X138738474Y-83389239D01*
X138717325Y-83360988D01*
X138712259Y-83351711D01*
X138697405Y-83283439D01*
X138721820Y-83217974D01*
X138777752Y-83176101D01*
X138836471Y-83169239D01*
X138840331Y-83169722D01*
X138840331Y-83169721D01*
X138869000Y-83173306D01*
X138869476Y-83173142D01*
X138887859Y-83173648D01*
X138950019Y-83179999D01*
X139599999Y-83179999D01*
X139600000Y-83179998D01*
X139600000Y-82244014D01*
X139619685Y-82176975D01*
X139672489Y-82131220D01*
X139741647Y-82121276D01*
X139756080Y-82124236D01*
X139777591Y-82130000D01*
X139922406Y-82130000D01*
X139922409Y-82130000D01*
X139943908Y-82124239D01*
X140013755Y-82125902D01*
X140071618Y-82165064D01*
X140099123Y-82229292D01*
X140100000Y-82244014D01*
X140100000Y-83179999D01*
X140749960Y-83179999D01*
X140749972Y-83179999D01*
X140749986Y-83179998D01*
X140846412Y-83170147D01*
X140849781Y-83169975D01*
X140852690Y-83169505D01*
X140852696Y-83169505D01*
X140852698Y-83169505D01*
X141019119Y-83114359D01*
X141019130Y-83114354D01*
X141168340Y-83022319D01*
X141168344Y-83022316D01*
X141292317Y-82898343D01*
X141298339Y-82888581D01*
X141377931Y-82759544D01*
X141377931Y-82759543D01*
X141384352Y-82749133D01*
X141384359Y-82749119D01*
X141439505Y-82582697D01*
X141449999Y-82479986D01*
X141450000Y-82479973D01*
X141450000Y-81830000D01*
X140514014Y-81830000D01*
X140446975Y-81810315D01*
X140401220Y-81757511D01*
X140391276Y-81688353D01*
X140394236Y-81673919D01*
X140400000Y-81652409D01*
X140400000Y-81507591D01*
X140394239Y-81486091D01*
X140395001Y-81454071D01*
X141900000Y-81454071D01*
X141900000Y-81705927D01*
X141939397Y-81954670D01*
X142017217Y-82194181D01*
X142017218Y-82194184D01*
X142091990Y-82340929D01*
X142131557Y-82418583D01*
X142182066Y-82488102D01*
X142191606Y-82514840D01*
X142205748Y-82520698D01*
X142853695Y-81872749D01*
X142915016Y-81839266D01*
X142984707Y-81844250D01*
X143040641Y-81886121D01*
X143048759Y-81898429D01*
X143053183Y-81906091D01*
X143059887Y-81917704D01*
X143059890Y-81917708D01*
X143162292Y-82020110D01*
X143162293Y-82020111D01*
X143162295Y-82020112D01*
X143181563Y-82031236D01*
X143229780Y-82081802D01*
X143243004Y-82150409D01*
X143217037Y-82215274D01*
X143207246Y-82226305D01*
X142559299Y-82874249D01*
X142559300Y-82874249D01*
X142559300Y-82874250D01*
X142661416Y-82948442D01*
X142771476Y-83004520D01*
X142885814Y-83062780D01*
X142885817Y-83062781D01*
X142980720Y-83093616D01*
X143125330Y-83140602D01*
X143374072Y-83180000D01*
X143625927Y-83180000D01*
X143625928Y-83180000D01*
X143874669Y-83140602D01*
X144114184Y-83062780D01*
X144338575Y-82948446D01*
X144338581Y-82948442D01*
X144408102Y-82897932D01*
X144434840Y-82888391D01*
X144440698Y-82874249D01*
X143792753Y-82226305D01*
X143759268Y-82164982D01*
X143764252Y-82095291D01*
X143806123Y-82039357D01*
X143818433Y-82031238D01*
X143837708Y-82020110D01*
X143940110Y-81917708D01*
X143951235Y-81898437D01*
X144001800Y-81850220D01*
X144070407Y-81836995D01*
X144135272Y-81862961D01*
X144146305Y-81872753D01*
X144794249Y-82520698D01*
X144794249Y-82520697D01*
X144794250Y-82520698D01*
X144794250Y-82520697D01*
X144807718Y-82515118D01*
X144813935Y-82493948D01*
X144817932Y-82488102D01*
X144823838Y-82479973D01*
X144868442Y-82418581D01*
X144868446Y-82418575D01*
X144982780Y-82194184D01*
X145060602Y-81954669D01*
X145100000Y-81705928D01*
X145100000Y-81454071D01*
X145060602Y-81205330D01*
X145006469Y-81038723D01*
X144982781Y-80965817D01*
X144982780Y-80965814D01*
X144868442Y-80741416D01*
X144817932Y-80671896D01*
X144808391Y-80645157D01*
X144794249Y-80639299D01*
X144146305Y-81287245D01*
X144084982Y-81320730D01*
X144015291Y-81315746D01*
X143959357Y-81273875D01*
X143951237Y-81261564D01*
X143940112Y-81242295D01*
X143940111Y-81242293D01*
X143940110Y-81242292D01*
X143837708Y-81139890D01*
X143837707Y-81139889D01*
X143826091Y-81133183D01*
X143818432Y-81128761D01*
X143770217Y-81078195D01*
X143756993Y-81009588D01*
X143782961Y-80944723D01*
X143792751Y-80933693D01*
X143887559Y-80838886D01*
X144440698Y-80285748D01*
X144338583Y-80211557D01*
X144282355Y-80182907D01*
X144114184Y-80097218D01*
X144114181Y-80097217D01*
X143874670Y-80019397D01*
X143692184Y-79990494D01*
X143625928Y-79980000D01*
X143625927Y-79980000D01*
X143374073Y-79980000D01*
X143374072Y-79980000D01*
X143307822Y-79990493D01*
X143125328Y-80019397D01*
X142885817Y-80097217D01*
X142885804Y-80097223D01*
X142661418Y-80211555D01*
X142559300Y-80285747D01*
X142559300Y-80285748D01*
X143207246Y-80933694D01*
X143240731Y-80995017D01*
X143235747Y-81064708D01*
X143193876Y-81120642D01*
X143181566Y-81128762D01*
X143162293Y-81139889D01*
X143162292Y-81139890D01*
X143059891Y-81242290D01*
X143059889Y-81242293D01*
X143048762Y-81261566D01*
X142998194Y-81309781D01*
X142929587Y-81323003D01*
X142864722Y-81297035D01*
X142853694Y-81287246D01*
X142205749Y-80639300D01*
X142205748Y-80639300D01*
X142205747Y-80639301D01*
X142191386Y-80659068D01*
X142131555Y-80741418D01*
X142017223Y-80965804D01*
X142017217Y-80965817D01*
X141939397Y-81205328D01*
X141900000Y-81454071D01*
X140395001Y-81454071D01*
X140395902Y-81416245D01*
X140435064Y-81358382D01*
X140499292Y-81330877D01*
X140514014Y-81330000D01*
X141449999Y-81330000D01*
X141449999Y-80680032D01*
X141449999Y-80680028D01*
X141449998Y-80680013D01*
X141440147Y-80583587D01*
X141439975Y-80580217D01*
X141439505Y-80577302D01*
X141439505Y-80577301D01*
X141384359Y-80410880D01*
X141384357Y-80410875D01*
X141380239Y-80404199D01*
X141380228Y-80404179D01*
X141292329Y-80261674D01*
X141292324Y-80261667D01*
X141292319Y-80261659D01*
X141292316Y-80261655D01*
X141292313Y-80261652D01*
X141292311Y-80261649D01*
X141168349Y-80137687D01*
X141168346Y-80137685D01*
X141168344Y-80137683D01*
X141168340Y-80137680D01*
X141168334Y-80137676D01*
X141168324Y-80137669D01*
X141022330Y-80047619D01*
X141019130Y-80045645D01*
X141019128Y-80045644D01*
X141019114Y-80045637D01*
X140852695Y-79990493D01*
X140749991Y-79980000D01*
X140749986Y-79980000D01*
X140100000Y-79980000D01*
X140100000Y-80915985D01*
X140080315Y-80983024D01*
X140027511Y-81028779D01*
X139958353Y-81038723D01*
X139943909Y-81035761D01*
X139937695Y-81034096D01*
X139922409Y-81030000D01*
X139922407Y-81030000D01*
X139777593Y-81030000D01*
X139777591Y-81030000D01*
X139756091Y-81035761D01*
X139686241Y-81034096D01*
X139628379Y-80994932D01*
X139600877Y-80930703D01*
X139600000Y-80915985D01*
X139600000Y-79980000D01*
X138950028Y-79980000D01*
X138950012Y-79980001D01*
X138950002Y-79980001D01*
X138950002Y-79980002D01*
X138853586Y-79989852D01*
X138850217Y-79990023D01*
X138847298Y-79990494D01*
X138680882Y-80045639D01*
X138680870Y-80045644D01*
X138680867Y-80045646D01*
X138531674Y-80137669D01*
X138531652Y-80137685D01*
X138531649Y-80137687D01*
X138407687Y-80261649D01*
X138407685Y-80261652D01*
X138407669Y-80261674D01*
X138315646Y-80410867D01*
X138315644Y-80410870D01*
X138315637Y-80410884D01*
X138260493Y-80577303D01*
X138250000Y-80680007D01*
X138250000Y-80680010D01*
X138250000Y-80680013D01*
X138250000Y-81330000D01*
X139185986Y-81330000D01*
X139253025Y-81349685D01*
X139298780Y-81402489D01*
X139308724Y-81471647D01*
X139305763Y-81486080D01*
X139300000Y-81507591D01*
X139300000Y-81652409D01*
X139305760Y-81673908D01*
X139304098Y-81743755D01*
X139264936Y-81801618D01*
X139200708Y-81829123D01*
X139185986Y-81830000D01*
X138250001Y-81830000D01*
X138250001Y-82479993D01*
X138254077Y-82519883D01*
X138257129Y-82549762D01*
X138257736Y-82555698D01*
X138258306Y-82564073D01*
X138259732Y-82605869D01*
X138242345Y-82673541D01*
X138191132Y-82721069D01*
X138122352Y-82733365D01*
X138066823Y-82713139D01*
X138063465Y-82710891D01*
X138044765Y-82695530D01*
X134991928Y-79642693D01*
X134991919Y-79642683D01*
X134935438Y-79586202D01*
X134868717Y-79519481D01*
X134868716Y-79519480D01*
X134868715Y-79519479D01*
X134817485Y-79489902D01*
X134768985Y-79461901D01*
X134768982Y-79461898D01*
X134731783Y-79440422D01*
X134731784Y-79440422D01*
X134673450Y-79424792D01*
X134659332Y-79421009D01*
X134659330Y-79421008D01*
X134608439Y-79407372D01*
X134579057Y-79399499D01*
X134579056Y-79399499D01*
X134411443Y-79399499D01*
X134411380Y-79399500D01*
X133152251Y-79399500D01*
X133117307Y-79394474D01*
X133107052Y-79391462D01*
X133048277Y-79353683D01*
X133019257Y-79290126D01*
X133029206Y-79220968D01*
X133065585Y-79174828D01*
X133068698Y-79172392D01*
X133088801Y-79159575D01*
X133114569Y-79146446D01*
X133181610Y-79112287D01*
X133277000Y-79042982D01*
X133308796Y-79019882D01*
X133330601Y-79004040D01*
X133347213Y-78991971D01*
X133347213Y-78991970D01*
X133347273Y-78991927D01*
X133348036Y-78991148D01*
X133491152Y-78848032D01*
X133491924Y-78847275D01*
X133491962Y-78847222D01*
X133491966Y-78847219D01*
X133491968Y-78847215D01*
X133491971Y-78847213D01*
X133565157Y-78746479D01*
X133612287Y-78681610D01*
X133705220Y-78499219D01*
X133768477Y-78304534D01*
X133800500Y-78102352D01*
X133800500Y-77897648D01*
X133779689Y-77766255D01*
X133768477Y-77695465D01*
X133735605Y-77594297D01*
X133706716Y-77505387D01*
X133705658Y-77501633D01*
X133704672Y-77499650D01*
X133702872Y-77495933D01*
X133701936Y-77494335D01*
X133662501Y-77416941D01*
X133612287Y-77318390D01*
X133612283Y-77318385D01*
X133585298Y-77281242D01*
X133491972Y-77152787D01*
X133347211Y-77008026D01*
X133189507Y-76893450D01*
X133189168Y-76893161D01*
X133181600Y-76887705D01*
X133181239Y-76887523D01*
X133094010Y-76843077D01*
X133065166Y-76822745D01*
X133057395Y-76815406D01*
X133022173Y-76755067D01*
X133025163Y-76685261D01*
X133065418Y-76628154D01*
X133118792Y-76603551D01*
X133122667Y-76602795D01*
X133146411Y-76600500D01*
X145682073Y-76600500D01*
X145717005Y-76605521D01*
X145742249Y-76612934D01*
X145794995Y-76644230D01*
X147133785Y-77983020D01*
X147162910Y-78029080D01*
X147600754Y-79257852D01*
X147787903Y-79783072D01*
X147792306Y-79795427D01*
X147799500Y-79837048D01*
X147799500Y-80500024D01*
X147809999Y-80602796D01*
X147811639Y-80608439D01*
X147812807Y-80611265D01*
X147828679Y-80659163D01*
X147828679Y-80659164D01*
X147865183Y-80769328D01*
X147865184Y-80769330D01*
X147865190Y-80769343D01*
X147908083Y-80838881D01*
X147957286Y-80918651D01*
X147957289Y-80918655D01*
X147957291Y-80918657D01*
X147957293Y-80918660D01*
X148081338Y-81042705D01*
X148081341Y-81042707D01*
X148081344Y-81042710D01*
X148081348Y-81042713D01*
X148156799Y-81089252D01*
X148220853Y-81128762D01*
X148230662Y-81134812D01*
X148230664Y-81134813D01*
X148230666Y-81134814D01*
X148397203Y-81189999D01*
X148499992Y-81200500D01*
X148499997Y-81200500D01*
X150500003Y-81200500D01*
X150500008Y-81200500D01*
X150602797Y-81189999D01*
X150769334Y-81134814D01*
X150918655Y-81042711D01*
X151042711Y-80918655D01*
X151134814Y-80769334D01*
X151189999Y-80602797D01*
X151200500Y-80500008D01*
X151200500Y-78499992D01*
X151189999Y-78397203D01*
X151134814Y-78230666D01*
X151134812Y-78230663D01*
X151134811Y-78230660D01*
X151055668Y-78102352D01*
X151055667Y-78102351D01*
X151042713Y-78081348D01*
X151042710Y-78081344D01*
X151042707Y-78081341D01*
X151042706Y-78081339D01*
X150918660Y-77957293D01*
X150918657Y-77957291D01*
X150918655Y-77957289D01*
X150918651Y-77957286D01*
X150821964Y-77897648D01*
X150769343Y-77865190D01*
X150769337Y-77865187D01*
X150769335Y-77865186D01*
X150769332Y-77865185D01*
X150769330Y-77865184D01*
X150769328Y-77865183D01*
X150674220Y-77833668D01*
X150674219Y-77833668D01*
X150611265Y-77812807D01*
X150608439Y-77811639D01*
X150602796Y-77809999D01*
X150500024Y-77799500D01*
X150500015Y-77799500D01*
X150500008Y-77799500D01*
X150240465Y-77799500D01*
X150205529Y-77794477D01*
X150196896Y-77791942D01*
X150138118Y-77754167D01*
X150109094Y-77690610D01*
X150119038Y-77621452D01*
X150159305Y-77572387D01*
X150163469Y-77569385D01*
X150188528Y-77555411D01*
X150253402Y-77528539D01*
X150254250Y-77528193D01*
X150259623Y-77526020D01*
X150265916Y-77521367D01*
X150301579Y-77500777D01*
X150446774Y-77416948D01*
X150446783Y-77416941D01*
X150446785Y-77416940D01*
X150575223Y-77318386D01*
X150623624Y-77281247D01*
X150781247Y-77123624D01*
X150916948Y-76946774D01*
X151028405Y-76753726D01*
X151113710Y-76547781D01*
X151171404Y-76332463D01*
X151200500Y-76111457D01*
X151200500Y-75888543D01*
X151171404Y-75667537D01*
X151113710Y-75452219D01*
X151028405Y-75246274D01*
X150916948Y-75053226D01*
X150781247Y-74876376D01*
X150781242Y-74876370D01*
X150623629Y-74718757D01*
X150623622Y-74718751D01*
X150623612Y-74718743D01*
X150623603Y-74718736D01*
X150448754Y-74584571D01*
X150446873Y-74583067D01*
X150445486Y-74582233D01*
X150443589Y-74581212D01*
X150253726Y-74471594D01*
X150138449Y-74423845D01*
X150122931Y-74411340D01*
X150048614Y-74386568D01*
X150047860Y-74386310D01*
X150002394Y-74374127D01*
X149969960Y-74360239D01*
X149960305Y-74354355D01*
X149913303Y-74302659D01*
X149901711Y-74233757D01*
X149929145Y-74169606D01*
X149929536Y-74169131D01*
X149973701Y-74135208D01*
X149975155Y-74134544D01*
X149975752Y-74134270D01*
X149995174Y-74127287D01*
X150047617Y-74113236D01*
X150253502Y-74027954D01*
X150253514Y-74027949D01*
X150446498Y-73916530D01*
X150512403Y-73865957D01*
X150512404Y-73865956D01*
X150512403Y-73865955D01*
X150512404Y-73865955D01*
X149829354Y-73182907D01*
X149795869Y-73121584D01*
X149800853Y-73051893D01*
X149842724Y-72995959D01*
X149855022Y-72987846D01*
X149868408Y-72980119D01*
X149980119Y-72868408D01*
X149987839Y-72855035D01*
X150038402Y-72806821D01*
X150107009Y-72793596D01*
X150171875Y-72819562D01*
X150182907Y-72829354D01*
X150865955Y-73512404D01*
X150865955Y-73512403D01*
X150865956Y-73512404D01*
X150865957Y-73512403D01*
X150916530Y-73446498D01*
X151027949Y-73253514D01*
X151027954Y-73253502D01*
X151113236Y-73047618D01*
X151170911Y-72832367D01*
X151170914Y-72832354D01*
X151200000Y-72611424D01*
X151200000Y-72388575D01*
X151170914Y-72167645D01*
X151170911Y-72167632D01*
X151170888Y-72167547D01*
X151136019Y-72037410D01*
X151113236Y-71952381D01*
X151027954Y-71746497D01*
X151027949Y-71746485D01*
X150929517Y-71575996D01*
X150916532Y-71553505D01*
X150865957Y-71487595D01*
X150865956Y-71487595D01*
X150865955Y-71487595D01*
X150865954Y-71487595D01*
X150182906Y-72170643D01*
X150121583Y-72204128D01*
X150051891Y-72199144D01*
X149995958Y-72157272D01*
X149987838Y-72144961D01*
X149980122Y-72131598D01*
X149980119Y-72131592D01*
X149868408Y-72019881D01*
X149861586Y-72015942D01*
X149855032Y-72012158D01*
X149806817Y-71961590D01*
X149793596Y-71892983D01*
X149819565Y-71828118D01*
X149829343Y-71817101D01*
X150512403Y-71134043D01*
X150512403Y-71134040D01*
X150512402Y-71134039D01*
X150446511Y-71083478D01*
X150446494Y-71083466D01*
X150446487Y-71083462D01*
X150253520Y-70972054D01*
X150253508Y-70972047D01*
X150169598Y-70937290D01*
X150047618Y-70886763D01*
X150047611Y-70886761D01*
X149832382Y-70829091D01*
X149832367Y-70829088D01*
X149832354Y-70829085D01*
X149832350Y-70829084D01*
X149832344Y-70829083D01*
X149611426Y-70800000D01*
X149611425Y-70800000D01*
X149388575Y-70800000D01*
X149388574Y-70800000D01*
X149167654Y-70829083D01*
X149167641Y-70829086D01*
X149167616Y-70829091D01*
X148952387Y-70886761D01*
X148952385Y-70886761D01*
X148952381Y-70886763D01*
X148870756Y-70920574D01*
X148746490Y-70972047D01*
X148746471Y-70972058D01*
X148553508Y-71083463D01*
X148487595Y-71134040D01*
X148487595Y-71134043D01*
X149170645Y-71817092D01*
X149204130Y-71878415D01*
X149199146Y-71948106D01*
X149157274Y-72004040D01*
X149144967Y-72012159D01*
X149131592Y-72019881D01*
X149131589Y-72019883D01*
X149019883Y-72131589D01*
X149019883Y-72131590D01*
X149019881Y-72131592D01*
X149019878Y-72131598D01*
X149012159Y-72144967D01*
X148961590Y-72193181D01*
X148892983Y-72206402D01*
X148828119Y-72180433D01*
X148817092Y-72170645D01*
X148134043Y-71487595D01*
X148134040Y-71487595D01*
X148083463Y-71553508D01*
X147972058Y-71746471D01*
X147972047Y-71746490D01*
X147910006Y-71896269D01*
X147886839Y-71952199D01*
X147886764Y-71952379D01*
X147886761Y-71952387D01*
X147829091Y-72167616D01*
X147829086Y-72167641D01*
X147829083Y-72167654D01*
X147800000Y-72388574D01*
X147800000Y-72611424D01*
X147829083Y-72832344D01*
X147829086Y-72832357D01*
X147829091Y-72832382D01*
X147884498Y-73039165D01*
X147886763Y-73047618D01*
X147918124Y-73123329D01*
X147972047Y-73253508D01*
X147972052Y-73253517D01*
X147972054Y-73253520D01*
X148069705Y-73422660D01*
X148083466Y-73446494D01*
X148083478Y-73446511D01*
X148134039Y-73512402D01*
X148134040Y-73512403D01*
X148134043Y-73512403D01*
X148817094Y-72829351D01*
X148878415Y-72795868D01*
X148948106Y-72800852D01*
X149004040Y-72842723D01*
X149012157Y-72855031D01*
X149019881Y-72868408D01*
X149131592Y-72980119D01*
X149144964Y-72987839D01*
X149193179Y-73038407D01*
X149206401Y-73107014D01*
X149180433Y-73171879D01*
X149170644Y-73182907D01*
X148487595Y-73865954D01*
X148487595Y-73865957D01*
X148553505Y-73916532D01*
X148554224Y-73916947D01*
X148746485Y-74027949D01*
X148746497Y-74027954D01*
X148952383Y-74113236D01*
X148997603Y-74125352D01*
X149030041Y-74139244D01*
X149039705Y-74145134D01*
X149086701Y-74196835D01*
X149098286Y-74265738D01*
X149070780Y-74329965D01*
X149070754Y-74329997D01*
X149070364Y-74330469D01*
X149026271Y-74364285D01*
X149024223Y-74365220D01*
X149004823Y-74372194D01*
X149001238Y-74373154D01*
X148967986Y-74382064D01*
X148959820Y-74383139D01*
X148955494Y-74384932D01*
X148955486Y-74384934D01*
X148955487Y-74384935D01*
X148746272Y-74471594D01*
X148553237Y-74583044D01*
X148553212Y-74583061D01*
X148553210Y-74583062D01*
X148376395Y-74718736D01*
X148376379Y-74718749D01*
X148376377Y-74718751D01*
X148376370Y-74718757D01*
X148376366Y-74718760D01*
X148376361Y-74718765D01*
X148218765Y-74876361D01*
X148218758Y-74876369D01*
X148218749Y-74876379D01*
X148218736Y-74876395D01*
X148083062Y-75053210D01*
X148083061Y-75053212D01*
X148083044Y-75053237D01*
X147971595Y-75246272D01*
X147886297Y-75452199D01*
X147886288Y-75452222D01*
X147856191Y-75564552D01*
X147844816Y-75607007D01*
X147838311Y-75631284D01*
X147838310Y-75631286D01*
X147828601Y-75667516D01*
X147828593Y-75667550D01*
X147828592Y-75667556D01*
X147799503Y-75888516D01*
X147799500Y-75888541D01*
X147799500Y-76111457D01*
X147799503Y-76111482D01*
X147828594Y-76332454D01*
X147828708Y-76333146D01*
X147829443Y-76335624D01*
X147886289Y-76547779D01*
X147886290Y-76547781D01*
X147886293Y-76547790D01*
X147910207Y-76605523D01*
X147971593Y-76753723D01*
X147995309Y-76794800D01*
X148008424Y-76827560D01*
X148009291Y-76831133D01*
X148009865Y-76833496D01*
X148006542Y-76903287D01*
X147966016Y-76960202D01*
X147901152Y-76986172D01*
X147832545Y-76972951D01*
X147832164Y-76972754D01*
X147828342Y-76970784D01*
X147797489Y-76948254D01*
X146491928Y-75642693D01*
X146491919Y-75642683D01*
X146435438Y-75586202D01*
X146368717Y-75519481D01*
X146368716Y-75519480D01*
X146368715Y-75519479D01*
X146368712Y-75519477D01*
X146302797Y-75481421D01*
X146289430Y-75469798D01*
X146266842Y-75460663D01*
X146231786Y-75440423D01*
X146173450Y-75424792D01*
X146079057Y-75399499D01*
X146079054Y-75399499D01*
X145911443Y-75399499D01*
X145911380Y-75399500D01*
X96467961Y-75399500D01*
X96433023Y-75394476D01*
X96420597Y-75390827D01*
X96361820Y-75353051D01*
X96332797Y-75289494D01*
X96340635Y-75225225D01*
X96344124Y-75216628D01*
X96358702Y-75190380D01*
X96441229Y-75076792D01*
X96441228Y-75076792D01*
X96441232Y-75076788D01*
X96519873Y-74922445D01*
X96573402Y-74757701D01*
X96600500Y-74586611D01*
X96600500Y-73882192D01*
X96609359Y-73836165D01*
X96631312Y-73781248D01*
X96872350Y-73178271D01*
X96915512Y-73123329D01*
X96981528Y-73100443D01*
X96987491Y-73100300D01*
X101078128Y-73100300D01*
X101113060Y-73105321D01*
X101126379Y-73109232D01*
X101185157Y-73147006D01*
X101214183Y-73210561D01*
X101214183Y-73210567D01*
X101215177Y-73217482D01*
X101210369Y-73273446D01*
X101209060Y-73277474D01*
X101207533Y-73287115D01*
X101207533Y-73287121D01*
X101179500Y-73464113D01*
X101179500Y-73653091D01*
X101208496Y-73836165D01*
X101209059Y-73839718D01*
X101267454Y-74019436D01*
X101344886Y-74171404D01*
X101353240Y-74187799D01*
X101464310Y-74340673D01*
X101597927Y-74474290D01*
X101750801Y-74585360D01*
X101804155Y-74612545D01*
X101912720Y-74667862D01*
X101914312Y-74668794D01*
X101918025Y-74670593D01*
X101920023Y-74671586D01*
X101923789Y-74672649D01*
X101975863Y-74689568D01*
X102009505Y-74700499D01*
X102009506Y-74700500D01*
X102039298Y-74710180D01*
X102098881Y-74729540D01*
X102285514Y-74759100D01*
X102285519Y-74759100D01*
X102474485Y-74759100D01*
X102474486Y-74759100D01*
X102661118Y-74729540D01*
X102690951Y-74719846D01*
X102694295Y-74718760D01*
X102694295Y-74718759D01*
X102694304Y-74718757D01*
X102840832Y-74671147D01*
X103009199Y-74585360D01*
X103162073Y-74474290D01*
X103295690Y-74340673D01*
X103406760Y-74187799D01*
X103492547Y-74019432D01*
X103550940Y-73839718D01*
X103551106Y-73838670D01*
X103560222Y-73781118D01*
X103577583Y-73671503D01*
X103580500Y-73653086D01*
X103580500Y-73464113D01*
X103560428Y-73337389D01*
X103559215Y-73329733D01*
X103551658Y-73282016D01*
X103551657Y-73282011D01*
X103549412Y-73267833D01*
X103549584Y-73267805D01*
X103545601Y-73244797D01*
X103545205Y-73230919D01*
X103562968Y-73163347D01*
X103614442Y-73116105D01*
X103620727Y-73113015D01*
X103675424Y-73100300D01*
X108698654Y-73100300D01*
X108733586Y-73105321D01*
X108746905Y-73109232D01*
X108805683Y-73147006D01*
X108834709Y-73210561D01*
X108834709Y-73210567D01*
X108835703Y-73217482D01*
X108830895Y-73273446D01*
X108829548Y-73277591D01*
X108828021Y-73287232D01*
X108828021Y-73287237D01*
X108802751Y-73446782D01*
X108800000Y-73464152D01*
X108800000Y-73653047D01*
X108820305Y-73781247D01*
X108829548Y-73839602D01*
X108887912Y-74019234D01*
X108887913Y-74019236D01*
X108943943Y-74129199D01*
X108973666Y-74187533D01*
X108992116Y-74212928D01*
X109500105Y-73704938D01*
X109561426Y-73671455D01*
X109631117Y-73676439D01*
X109687051Y-73718310D01*
X109695169Y-73730617D01*
X109719930Y-73773505D01*
X109785095Y-73838670D01*
X109827976Y-73863427D01*
X109876191Y-73913993D01*
X109889415Y-73982600D01*
X109863447Y-74047465D01*
X109853657Y-74058495D01*
X109345669Y-74566481D01*
X109345669Y-74566482D01*
X109345673Y-74566486D01*
X109368488Y-74583061D01*
X109371059Y-74584929D01*
X109539362Y-74670685D01*
X109539367Y-74670686D01*
X109539368Y-74670687D01*
X109540147Y-74670940D01*
X109718997Y-74729051D01*
X109905553Y-74758600D01*
X110094446Y-74758600D01*
X110094447Y-74758600D01*
X110281002Y-74729051D01*
X110460637Y-74670685D01*
X110628937Y-74584931D01*
X110654328Y-74566483D01*
X110654328Y-74566482D01*
X110417811Y-74329965D01*
X110146342Y-74058495D01*
X110112857Y-73997172D01*
X110117841Y-73927480D01*
X110159713Y-73871547D01*
X110172017Y-73863430D01*
X110214905Y-73838670D01*
X110280070Y-73773505D01*
X110304828Y-73730621D01*
X110355391Y-73682408D01*
X110423997Y-73669183D01*
X110488863Y-73695149D01*
X110499895Y-73704941D01*
X111007882Y-74212928D01*
X111007883Y-74212928D01*
X111026331Y-74187537D01*
X111112086Y-74019235D01*
X111135819Y-73946190D01*
X111151389Y-73914524D01*
X111151753Y-73913993D01*
X111157772Y-73905188D01*
X111211861Y-73860960D01*
X111281275Y-73852995D01*
X111343968Y-73883815D01*
X111346250Y-73885909D01*
X111380344Y-73938955D01*
X111381038Y-73941090D01*
X111387452Y-73960833D01*
X111397473Y-73980500D01*
X111465106Y-74113236D01*
X111465347Y-74113709D01*
X111473239Y-74129198D01*
X111486398Y-74147310D01*
X111584310Y-74282073D01*
X111717927Y-74415690D01*
X111870801Y-74526760D01*
X111948760Y-74566482D01*
X112032720Y-74609262D01*
X112034312Y-74610194D01*
X112038025Y-74611993D01*
X112040022Y-74612986D01*
X112043790Y-74614049D01*
X112080169Y-74625869D01*
X112135495Y-74643845D01*
X112135496Y-74643846D01*
X112156343Y-74650619D01*
X112218881Y-74670940D01*
X112405514Y-74700500D01*
X112405519Y-74700500D01*
X112594485Y-74700500D01*
X112594486Y-74700500D01*
X112632254Y-74694518D01*
X112781103Y-74670943D01*
X112781109Y-74670941D01*
X112781118Y-74670940D01*
X112781903Y-74670685D01*
X112960832Y-74612547D01*
X113129199Y-74526760D01*
X113282073Y-74415690D01*
X113415690Y-74282073D01*
X113526760Y-74129199D01*
X113612547Y-73960832D01*
X113670940Y-73781118D01*
X113682961Y-73705220D01*
X113700500Y-73594486D01*
X113700500Y-73405513D01*
X113670940Y-73218881D01*
X113620814Y-73064612D01*
X113615356Y-73047814D01*
X113615123Y-73047097D01*
X113614051Y-73043800D01*
X113612987Y-73040024D01*
X113611978Y-73037994D01*
X113610197Y-73034318D01*
X113609264Y-73032724D01*
X113526759Y-72870800D01*
X113520883Y-72862712D01*
X113415690Y-72717927D01*
X113282073Y-72584310D01*
X113168246Y-72501610D01*
X113156518Y-72493087D01*
X113156517Y-72493086D01*
X113129206Y-72473244D01*
X113129205Y-72473243D01*
X113129203Y-72473242D01*
X112980831Y-72397642D01*
X114899500Y-72397642D01*
X114899500Y-72602356D01*
X114931064Y-72801642D01*
X114931522Y-72804534D01*
X114994781Y-72999223D01*
X115046283Y-73100300D01*
X115083218Y-73172789D01*
X115083221Y-73172794D01*
X115083220Y-73172794D01*
X115087711Y-73181607D01*
X115087717Y-73181616D01*
X115208026Y-73347211D01*
X115208028Y-73347213D01*
X115352786Y-73491971D01*
X115493882Y-73594481D01*
X115518390Y-73612287D01*
X115634607Y-73671503D01*
X115687897Y-73698656D01*
X115694327Y-73701932D01*
X115695930Y-73702870D01*
X115699629Y-73704662D01*
X115701637Y-73705660D01*
X115705403Y-73706722D01*
X115741068Y-73718310D01*
X115805135Y-73739126D01*
X115805136Y-73739127D01*
X115835113Y-73748867D01*
X115895465Y-73768477D01*
X115996557Y-73784488D01*
X116097648Y-73800500D01*
X116097649Y-73800500D01*
X116302351Y-73800500D01*
X116302352Y-73800500D01*
X116504534Y-73768477D01*
X116699219Y-73705220D01*
X116881610Y-73612287D01*
X117018926Y-73512522D01*
X117047213Y-73491971D01*
X117047213Y-73491970D01*
X117047273Y-73491927D01*
X117048025Y-73491159D01*
X117191152Y-73348032D01*
X117191926Y-73347273D01*
X117191969Y-73347213D01*
X117191971Y-73347213D01*
X117235549Y-73287232D01*
X117275348Y-73232453D01*
X117292695Y-73208574D01*
X117312287Y-73181610D01*
X117405220Y-72999219D01*
X117468477Y-72804534D01*
X117500500Y-72602352D01*
X117500500Y-72397648D01*
X117483282Y-72288939D01*
X117480486Y-72271288D01*
X117480486Y-72271287D01*
X117468477Y-72195465D01*
X117468477Y-72195464D01*
X117417121Y-72037410D01*
X117417121Y-72037409D01*
X117406717Y-72005388D01*
X117405658Y-72001634D01*
X117404662Y-71999629D01*
X117402870Y-71995930D01*
X117401932Y-71994327D01*
X117371503Y-71934607D01*
X117352069Y-71896466D01*
X117312287Y-71818390D01*
X117284032Y-71779500D01*
X117191971Y-71652786D01*
X117047213Y-71508028D01*
X117047212Y-71508027D01*
X117047211Y-71508026D01*
X116889507Y-71393450D01*
X116889168Y-71393161D01*
X116881603Y-71387707D01*
X116881239Y-71387524D01*
X116813953Y-71353240D01*
X116813953Y-71353239D01*
X116813951Y-71353239D01*
X116699228Y-71294783D01*
X116699221Y-71294780D01*
X116594316Y-71260694D01*
X116504534Y-71231522D01*
X116504532Y-71231521D01*
X116504530Y-71231521D01*
X116504529Y-71231520D01*
X116329995Y-71203878D01*
X116313409Y-71201251D01*
X116302354Y-71199500D01*
X116302352Y-71199500D01*
X116097648Y-71199500D01*
X116097647Y-71199500D01*
X116073327Y-71203351D01*
X116073326Y-71203350D01*
X115895468Y-71231521D01*
X115700777Y-71294780D01*
X115700764Y-71294786D01*
X115518397Y-71387708D01*
X115518385Y-71387715D01*
X115352787Y-71508027D01*
X115352784Y-71508029D01*
X115208028Y-71652785D01*
X115087715Y-71818385D01*
X115087708Y-71818397D01*
X114994786Y-72000764D01*
X114994780Y-72000777D01*
X114931521Y-72195468D01*
X114899500Y-72397642D01*
X112980831Y-72397642D01*
X112960836Y-72387454D01*
X112781118Y-72329059D01*
X112781112Y-72329058D01*
X112594491Y-72299500D01*
X112594486Y-72299500D01*
X112594481Y-72299500D01*
X112536727Y-72299500D01*
X112501792Y-72294477D01*
X112490938Y-72291290D01*
X112432160Y-72253516D01*
X112403135Y-72189960D01*
X112413075Y-72120811D01*
X112416265Y-72113824D01*
X112441374Y-72077660D01*
X113039041Y-71479995D01*
X113849812Y-70669223D01*
X113878062Y-70648075D01*
X113901154Y-70635467D01*
X113960579Y-70620300D01*
X125240195Y-70620300D01*
X125275122Y-70625321D01*
X125285975Y-70628507D01*
X125344756Y-70666277D01*
X125373785Y-70729831D01*
X125363846Y-70798990D01*
X125363843Y-70798995D01*
X125363195Y-70800414D01*
X125330854Y-70843262D01*
X125330440Y-70843615D01*
X125315084Y-70854796D01*
X125303032Y-70862230D01*
X125303031Y-70862231D01*
X125181340Y-70937290D01*
X125057289Y-71061341D01*
X125057286Y-71061345D01*
X124965188Y-71210658D01*
X124965187Y-71210662D01*
X124965186Y-71210665D01*
X124948207Y-71261903D01*
X124920878Y-71344375D01*
X124905122Y-71375955D01*
X124897223Y-71387364D01*
X124842878Y-71431277D01*
X124773424Y-71438839D01*
X124766396Y-71437581D01*
X124715360Y-71415839D01*
X124629202Y-71353242D01*
X124629201Y-71353241D01*
X124629199Y-71353240D01*
X124598013Y-71337350D01*
X124460836Y-71267454D01*
X124281118Y-71209059D01*
X124281112Y-71209058D01*
X124094491Y-71179500D01*
X124094486Y-71179500D01*
X124094481Y-71179500D01*
X123905519Y-71179500D01*
X123905514Y-71179500D01*
X123905509Y-71179500D01*
X123718886Y-71209058D01*
X123718884Y-71209058D01*
X123718881Y-71209059D01*
X123600661Y-71247471D01*
X123539162Y-71267454D01*
X123539159Y-71267455D01*
X123477729Y-71298755D01*
X123459129Y-71306401D01*
X123439367Y-71312706D01*
X123439353Y-71312711D01*
X122702099Y-71670293D01*
X122633190Y-71681837D01*
X122605442Y-71675196D01*
X122272286Y-71553505D01*
X121961825Y-71440103D01*
X121931489Y-71423951D01*
X121889502Y-71393446D01*
X121889162Y-71393156D01*
X121881603Y-71387707D01*
X121881239Y-71387524D01*
X121813953Y-71353240D01*
X121813953Y-71353239D01*
X121813951Y-71353239D01*
X121699228Y-71294783D01*
X121699221Y-71294780D01*
X121594316Y-71260694D01*
X121504534Y-71231522D01*
X121504532Y-71231521D01*
X121504530Y-71231521D01*
X121504529Y-71231520D01*
X121329995Y-71203878D01*
X121313409Y-71201251D01*
X121302354Y-71199500D01*
X121302352Y-71199500D01*
X121097648Y-71199500D01*
X121097647Y-71199500D01*
X121073327Y-71203351D01*
X121073326Y-71203350D01*
X120895468Y-71231521D01*
X120700777Y-71294780D01*
X120700764Y-71294786D01*
X120518397Y-71387708D01*
X120518385Y-71387715D01*
X120352787Y-71508027D01*
X120352784Y-71508029D01*
X120208028Y-71652785D01*
X120087715Y-71818385D01*
X120087708Y-71818397D01*
X119994786Y-72000764D01*
X119994780Y-72000777D01*
X119931521Y-72195468D01*
X119899500Y-72397642D01*
X119899500Y-72602356D01*
X119931064Y-72801642D01*
X119931522Y-72804534D01*
X119994781Y-72999223D01*
X120046283Y-73100300D01*
X120083218Y-73172789D01*
X120083221Y-73172794D01*
X120083220Y-73172794D01*
X120087711Y-73181607D01*
X120087717Y-73181616D01*
X120208026Y-73347211D01*
X120208028Y-73347213D01*
X120352786Y-73491971D01*
X120493882Y-73594481D01*
X120518390Y-73612287D01*
X120634607Y-73671503D01*
X120687897Y-73698656D01*
X120694327Y-73701932D01*
X120695930Y-73702870D01*
X120699629Y-73704662D01*
X120701637Y-73705660D01*
X120705403Y-73706722D01*
X120741068Y-73718310D01*
X120805135Y-73739126D01*
X120805136Y-73739127D01*
X120835113Y-73748867D01*
X120895465Y-73768477D01*
X120996557Y-73784488D01*
X121097648Y-73800500D01*
X121097649Y-73800500D01*
X121302351Y-73800500D01*
X121302352Y-73800500D01*
X121504534Y-73768477D01*
X121699219Y-73705220D01*
X121881610Y-73612287D01*
X122018926Y-73512522D01*
X122019089Y-73512404D01*
X122030330Y-73504236D01*
X122047213Y-73491971D01*
X122047213Y-73491970D01*
X122047270Y-73491929D01*
X122048008Y-73491176D01*
X122052670Y-73486513D01*
X122078892Y-73466499D01*
X122665442Y-73131842D01*
X122733426Y-73115718D01*
X122781004Y-73127975D01*
X123439356Y-73447288D01*
X123478608Y-73464313D01*
X123478625Y-73464316D01*
X123483905Y-73466048D01*
X123501581Y-73473396D01*
X123532714Y-73489259D01*
X123534317Y-73490197D01*
X123538014Y-73491988D01*
X123540024Y-73492987D01*
X123543790Y-73494049D01*
X123580169Y-73505869D01*
X123635495Y-73523845D01*
X123635496Y-73523846D01*
X123656343Y-73530619D01*
X123718881Y-73550940D01*
X123905514Y-73580500D01*
X123905519Y-73580500D01*
X124094485Y-73580500D01*
X124094486Y-73580500D01*
X124281118Y-73550940D01*
X124286067Y-73549332D01*
X124460832Y-73492547D01*
X124461963Y-73491971D01*
X124467250Y-73489276D01*
X124629199Y-73406760D01*
X124710262Y-73347863D01*
X124741467Y-73331397D01*
X124754550Y-73326729D01*
X124824303Y-73322745D01*
X124885140Y-73357105D01*
X124885143Y-73357108D01*
X124890119Y-73362229D01*
X124918894Y-73409637D01*
X124936946Y-73464113D01*
X124965186Y-73549335D01*
X124965186Y-73549336D01*
X124965187Y-73549337D01*
X124984409Y-73580500D01*
X125057288Y-73698656D01*
X125181344Y-73822712D01*
X125330665Y-73914814D01*
X125497202Y-73969999D01*
X125599990Y-73980500D01*
X125599995Y-73980500D01*
X127400005Y-73980500D01*
X127400010Y-73980500D01*
X127502798Y-73969999D01*
X127669335Y-73914814D01*
X127818656Y-73822712D01*
X127942712Y-73698656D01*
X128034814Y-73549335D01*
X128089999Y-73382798D01*
X128100500Y-73280010D01*
X128100500Y-71479990D01*
X128089999Y-71377202D01*
X128034814Y-71210665D01*
X127942712Y-71061344D01*
X127818656Y-70937288D01*
X127818655Y-70937287D01*
X127692049Y-70859195D01*
X127664955Y-70836582D01*
X127657394Y-70828176D01*
X127627196Y-70765169D01*
X127635857Y-70695838D01*
X127680584Y-70642223D01*
X127681886Y-70641351D01*
X127732318Y-70621779D01*
X127732859Y-70621696D01*
X127751420Y-70620300D01*
X136095739Y-70620300D01*
X136130664Y-70625320D01*
X136132947Y-70625990D01*
X136137332Y-70627277D01*
X136196112Y-70665046D01*
X136225142Y-70728600D01*
X136215205Y-70797759D01*
X136170933Y-70849602D01*
X136165997Y-70852875D01*
X136135790Y-70867460D01*
X136076388Y-70886762D01*
X136076385Y-70886763D01*
X136045623Y-70896757D01*
X136045617Y-70896759D01*
X135821147Y-71011134D01*
X135617367Y-71159188D01*
X135617338Y-71159210D01*
X135439210Y-71337338D01*
X135439188Y-71337367D01*
X135291134Y-71541147D01*
X135291132Y-71541151D01*
X135176760Y-71765616D01*
X135176759Y-71765618D01*
X135176759Y-71765619D01*
X135098910Y-72005209D01*
X135098910Y-72005212D01*
X135076776Y-72144961D01*
X135065131Y-72218485D01*
X135063781Y-72227011D01*
X135059583Y-72253516D01*
X135059500Y-72254038D01*
X135059500Y-72505962D01*
X135076204Y-72611424D01*
X135080856Y-72640798D01*
X135098910Y-72754785D01*
X135098910Y-72754786D01*
X135172441Y-72981090D01*
X135176760Y-72994383D01*
X135203968Y-73047781D01*
X135232172Y-73103134D01*
X135287853Y-73212414D01*
X135291131Y-73218847D01*
X135384868Y-73347866D01*
X135439201Y-73422649D01*
X135439205Y-73422654D01*
X135439210Y-73422660D01*
X135617338Y-73600788D01*
X135617342Y-73600791D01*
X135617345Y-73600794D01*
X135617350Y-73600798D01*
X135761073Y-73705218D01*
X135821155Y-73748870D01*
X135922485Y-73800500D01*
X136039172Y-73859956D01*
X136040767Y-73860889D01*
X136044472Y-73862684D01*
X136046477Y-73863680D01*
X136050243Y-73864743D01*
X136210892Y-73916941D01*
X136285215Y-73941090D01*
X136534038Y-73980500D01*
X136534039Y-73980500D01*
X136785961Y-73980500D01*
X136785962Y-73980500D01*
X137034785Y-73941090D01*
X137274379Y-73863241D01*
X137498845Y-73748870D01*
X137702656Y-73600793D01*
X137880793Y-73422656D01*
X138028870Y-73218845D01*
X138143241Y-72994379D01*
X138221090Y-72754785D01*
X138260500Y-72505962D01*
X138260500Y-72354636D01*
X138265521Y-72319709D01*
X138268707Y-72308856D01*
X138306477Y-72250075D01*
X138370031Y-72221046D01*
X138439177Y-72230980D01*
X138442003Y-72232270D01*
X138490820Y-72272183D01*
X138525564Y-72320004D01*
X138629196Y-72462643D01*
X138629201Y-72462650D01*
X138629203Y-72462652D01*
X138629212Y-72462662D01*
X138807338Y-72640788D01*
X138807342Y-72640791D01*
X138807345Y-72640794D01*
X138807350Y-72640798D01*
X138807367Y-72640810D01*
X138964241Y-72754785D01*
X138964242Y-72754786D01*
X139011150Y-72788867D01*
X139011152Y-72788868D01*
X139011155Y-72788870D01*
X139116848Y-72842723D01*
X139138103Y-72853553D01*
X139229169Y-72899954D01*
X139230763Y-72900887D01*
X139234450Y-72902673D01*
X139236479Y-72903681D01*
X139240245Y-72904744D01*
X139465209Y-72977839D01*
X139475215Y-72981090D01*
X139724038Y-73020500D01*
X139724039Y-73020500D01*
X139975961Y-73020500D01*
X139975962Y-73020500D01*
X140224785Y-72981090D01*
X140464379Y-72903241D01*
X140663781Y-72801639D01*
X140676341Y-72796093D01*
X140678305Y-72795354D01*
X141477171Y-72355515D01*
X141545387Y-72340426D01*
X141610937Y-72364614D01*
X141617429Y-72369787D01*
X141900810Y-72611457D01*
X142095992Y-72777911D01*
X142103211Y-72784579D01*
X142181344Y-72862712D01*
X142330665Y-72954814D01*
X142497202Y-73009999D01*
X142599990Y-73020500D01*
X142599995Y-73020500D01*
X144400005Y-73020500D01*
X144400010Y-73020500D01*
X144502798Y-73009999D01*
X144669335Y-72954814D01*
X144818656Y-72862712D01*
X144942712Y-72738656D01*
X145034814Y-72589335D01*
X145089999Y-72422798D01*
X145100500Y-72320010D01*
X145100500Y-70519990D01*
X145089999Y-70417202D01*
X145034814Y-70250665D01*
X144942712Y-70101344D01*
X144818656Y-69977288D01*
X144690554Y-69898274D01*
X144669337Y-69885187D01*
X144669332Y-69885185D01*
X144511266Y-69832807D01*
X144508440Y-69831639D01*
X144502797Y-69829999D01*
X144400026Y-69819500D01*
X144400017Y-69819500D01*
X144400010Y-69819500D01*
X142599990Y-69819500D01*
X142599982Y-69819500D01*
X142599974Y-69819500D01*
X142495495Y-69830174D01*
X142489912Y-69832416D01*
X142414669Y-69857349D01*
X142330679Y-69885180D01*
X142330666Y-69885184D01*
X142181342Y-69977288D01*
X142103210Y-70055419D01*
X142095992Y-70062085D01*
X141617434Y-70470206D01*
X141553652Y-70498730D01*
X141484574Y-70488242D01*
X141477172Y-70484484D01*
X141086403Y-70269335D01*
X140678319Y-70044652D01*
X140641013Y-70026066D01*
X140629856Y-70021072D01*
X140464387Y-69936762D01*
X140464381Y-69936760D01*
X140464379Y-69936759D01*
X140362888Y-69903782D01*
X140331220Y-69888211D01*
X140319764Y-69880378D01*
X140275534Y-69826290D01*
X140267566Y-69756886D01*
X140268135Y-69753596D01*
X140289488Y-69702557D01*
X140290643Y-69700943D01*
X140303780Y-69685452D01*
X142438841Y-67550391D01*
X142486136Y-67520834D01*
X143503021Y-67170593D01*
X143543341Y-67154742D01*
X143543349Y-67154736D01*
X143548486Y-67152145D01*
X143548908Y-67152982D01*
X143566150Y-67144844D01*
X143608509Y-67131082D01*
X143779681Y-67043865D01*
X143935102Y-66930945D01*
X144070945Y-66795102D01*
X144183865Y-66639681D01*
X144271082Y-66468509D01*
X144271143Y-66468321D01*
X144271144Y-66468319D01*
X144271147Y-66468310D01*
X144271156Y-66468313D01*
X144271158Y-66468272D01*
X144286561Y-66420869D01*
X144302124Y-66389212D01*
X144308515Y-66379866D01*
X144362598Y-66335638D01*
X144432012Y-66327670D01*
X144494707Y-66358488D01*
X144496987Y-66360581D01*
X144531085Y-66413629D01*
X144548913Y-66468501D01*
X144548914Y-66468503D01*
X144618464Y-66605000D01*
X144618463Y-66605000D01*
X144636131Y-66639676D01*
X144638148Y-66642452D01*
X144749055Y-66795102D01*
X144884898Y-66930945D01*
X145040319Y-67043865D01*
X145153135Y-67101348D01*
X145211493Y-67131083D01*
X145300757Y-67160086D01*
X145394199Y-67190447D01*
X145583945Y-67220500D01*
X145583946Y-67220500D01*
X145776054Y-67220500D01*
X145776055Y-67220500D01*
X145965801Y-67190447D01*
X146148509Y-67131082D01*
X146319681Y-67043865D01*
X146475102Y-66930945D01*
X146610945Y-66795102D01*
X146723865Y-66639681D01*
X146811082Y-66468509D01*
X146870447Y-66285801D01*
X146900500Y-66096055D01*
X146900500Y-65903945D01*
X146870447Y-65714199D01*
X146832188Y-65596448D01*
X146831560Y-65594515D01*
X146811085Y-65531498D01*
X146811083Y-65531492D01*
X146745893Y-65403551D01*
X146745893Y-65403550D01*
X146723866Y-65360320D01*
X146702819Y-65331352D01*
X146610945Y-65204898D01*
X146475102Y-65069055D01*
X146320277Y-64956568D01*
X146319676Y-64956131D01*
X146276451Y-64934107D01*
X146148516Y-64868920D01*
X146148500Y-64868913D01*
X145965804Y-64809553D01*
X145965805Y-64809553D01*
X145799889Y-64783275D01*
X145776055Y-64779500D01*
X145776054Y-64779500D01*
X145583946Y-64779500D01*
X145583945Y-64779500D01*
X145560111Y-64783275D01*
X145394193Y-64809553D01*
X145211498Y-64868913D01*
X145211482Y-64868920D01*
X145040328Y-64956129D01*
X145040321Y-64956132D01*
X144979944Y-65000000D01*
X144896766Y-65060431D01*
X144889387Y-65064564D01*
X144744562Y-65209389D01*
X144740430Y-65216768D01*
X144713094Y-65254393D01*
X144637746Y-65358100D01*
X144636135Y-65360318D01*
X144636134Y-65360320D01*
X144636125Y-65360335D01*
X144548920Y-65531482D01*
X144548914Y-65531495D01*
X144533440Y-65579123D01*
X144517868Y-65610795D01*
X144511483Y-65620133D01*
X144457395Y-65664362D01*
X144387981Y-65672327D01*
X144325283Y-65641502D01*
X144322984Y-65639391D01*
X144288913Y-65586369D01*
X144271083Y-65531493D01*
X144205893Y-65403551D01*
X144205893Y-65403550D01*
X144183866Y-65360320D01*
X144162819Y-65331352D01*
X144070945Y-65204898D01*
X143935102Y-65069055D01*
X143780277Y-64956568D01*
X143779676Y-64956131D01*
X143736451Y-64934107D01*
X143608516Y-64868920D01*
X143608500Y-64868913D01*
X143425804Y-64809553D01*
X143425805Y-64809553D01*
X143259889Y-64783275D01*
X143236055Y-64779500D01*
X143236054Y-64779500D01*
X143043946Y-64779500D01*
X143043945Y-64779500D01*
X143020111Y-64783275D01*
X142854193Y-64809553D01*
X142671498Y-64868913D01*
X142671482Y-64868920D01*
X142500328Y-64956129D01*
X142500321Y-64956132D01*
X142439944Y-65000000D01*
X142356766Y-65060431D01*
X142349387Y-65064564D01*
X142204562Y-65209389D01*
X142200430Y-65216768D01*
X142173094Y-65254393D01*
X142173094Y-65254394D01*
X142096135Y-65360317D01*
X142008917Y-65531490D01*
X141993175Y-65579938D01*
X141977602Y-65611610D01*
X141971218Y-65620946D01*
X141917129Y-65665173D01*
X141847714Y-65673137D01*
X141785017Y-65642309D01*
X141782718Y-65640200D01*
X141748649Y-65587178D01*
X141730616Y-65531680D01*
X141643434Y-65360577D01*
X141643245Y-65360317D01*
X141622204Y-65331355D01*
X141622200Y-65331351D01*
X141622199Y-65331351D01*
X141136498Y-65817054D01*
X141075175Y-65850539D01*
X141005484Y-65845555D01*
X140949550Y-65803684D01*
X140941430Y-65791373D01*
X140920082Y-65754397D01*
X140920078Y-65754392D01*
X140845607Y-65679921D01*
X140845606Y-65679920D01*
X140808625Y-65658569D01*
X140760410Y-65608003D01*
X140747186Y-65539396D01*
X140773154Y-65474531D01*
X140782933Y-65463512D01*
X141268646Y-64977798D01*
X141249183Y-64963658D01*
X141239415Y-64956561D01*
X141239413Y-64956560D01*
X141195347Y-64934107D01*
X141068321Y-64869383D01*
X140885684Y-64810040D01*
X140885682Y-64810039D01*
X140885680Y-64810039D01*
X140696020Y-64780000D01*
X140696015Y-64780000D01*
X140503985Y-64780000D01*
X140503980Y-64780000D01*
X140314318Y-64810039D01*
X140314315Y-64810040D01*
X140131678Y-64869383D01*
X140066228Y-64902732D01*
X139960569Y-64956568D01*
X139956422Y-64959110D01*
X139955265Y-64957223D01*
X139937207Y-64963658D01*
X139931350Y-64977798D01*
X140417055Y-65463501D01*
X140450540Y-65524824D01*
X140445556Y-65594515D01*
X140403685Y-65650449D01*
X140391374Y-65658569D01*
X140354397Y-65679917D01*
X140354392Y-65679921D01*
X140279921Y-65754392D01*
X140279915Y-65754400D01*
X140258568Y-65791374D01*
X140208001Y-65839589D01*
X140139393Y-65852811D01*
X140074529Y-65826843D01*
X140063501Y-65817054D01*
X139577798Y-65331350D01*
X139564329Y-65336930D01*
X139558682Y-65356160D01*
X139559110Y-65356422D01*
X139558141Y-65358002D01*
X139558113Y-65358100D01*
X139557810Y-65358542D01*
X139556568Y-65360569D01*
X139512356Y-65447339D01*
X139469383Y-65531678D01*
X139469382Y-65531680D01*
X139469382Y-65531681D01*
X139410039Y-65714318D01*
X139380000Y-65903978D01*
X139380000Y-66096020D01*
X139408451Y-66275653D01*
X139410040Y-66285684D01*
X139469383Y-66468321D01*
X139556561Y-66639415D01*
X139577798Y-66668646D01*
X140063503Y-66182940D01*
X140124823Y-66149458D01*
X140194514Y-66154442D01*
X140250448Y-66196313D01*
X140258568Y-66208624D01*
X140279917Y-66245602D01*
X140279919Y-66245605D01*
X140279920Y-66245606D01*
X140354394Y-66320080D01*
X140354395Y-66320081D01*
X140354397Y-66320082D01*
X140391373Y-66341430D01*
X140439588Y-66391996D01*
X140452812Y-66460603D01*
X140426844Y-66525468D01*
X140417054Y-66536498D01*
X139931351Y-67022199D01*
X139931351Y-67022200D01*
X139931355Y-67022204D01*
X139960576Y-67043434D01*
X140131671Y-67130613D01*
X140131675Y-67130614D01*
X140131678Y-67130616D01*
X140314315Y-67189959D01*
X140503985Y-67220000D01*
X140696013Y-67220000D01*
X140696015Y-67220000D01*
X140746745Y-67211964D01*
X140782025Y-67211460D01*
X140793243Y-67212909D01*
X140857208Y-67241019D01*
X140895822Y-67299249D01*
X140896826Y-67369106D01*
X140895996Y-67372091D01*
X140864209Y-67426553D01*
X138920391Y-69370373D01*
X138892140Y-69391522D01*
X138869052Y-69404130D01*
X138809622Y-69419300D01*
X125797592Y-69419300D01*
X125762657Y-69414277D01*
X125751803Y-69411090D01*
X125693025Y-69373316D01*
X125664000Y-69309760D01*
X125673933Y-69240626D01*
X125674697Y-69238953D01*
X125707496Y-69195708D01*
X125707541Y-69195670D01*
X125721572Y-69185416D01*
X125801576Y-69135147D01*
X125925147Y-69011576D01*
X126018122Y-68863606D01*
X126075841Y-68698657D01*
X126090500Y-68568552D01*
X126090500Y-68352396D01*
X126110185Y-68285357D01*
X126135979Y-68256425D01*
X126149877Y-68245054D01*
X126292297Y-68128528D01*
X126356647Y-68101312D01*
X126370818Y-68100500D01*
X130751380Y-68100500D01*
X130751443Y-68100501D01*
X130753347Y-68100501D01*
X130760943Y-68100501D01*
X130919054Y-68100501D01*
X130919057Y-68100501D01*
X131071785Y-68059577D01*
X131121904Y-68030639D01*
X131208716Y-67980520D01*
X131320520Y-67868716D01*
X131320520Y-67868714D01*
X131330728Y-67858507D01*
X131330730Y-67858504D01*
X131638840Y-67550391D01*
X131686137Y-67520834D01*
X132703021Y-67170593D01*
X132743341Y-67154742D01*
X132743349Y-67154736D01*
X132748486Y-67152145D01*
X132748908Y-67152982D01*
X132766150Y-67144844D01*
X132808509Y-67131082D01*
X132979681Y-67043865D01*
X133135102Y-66930945D01*
X133270945Y-66795102D01*
X133383865Y-66639681D01*
X133471082Y-66468509D01*
X133471143Y-66468321D01*
X133471144Y-66468319D01*
X133471147Y-66468310D01*
X133471156Y-66468313D01*
X133471158Y-66468272D01*
X133486561Y-66420869D01*
X133502124Y-66389212D01*
X133508515Y-66379866D01*
X133562598Y-66335638D01*
X133632012Y-66327670D01*
X133694707Y-66358488D01*
X133696987Y-66360581D01*
X133731085Y-66413629D01*
X133748913Y-66468501D01*
X133748914Y-66468503D01*
X133818464Y-66605000D01*
X133818463Y-66605000D01*
X133836131Y-66639676D01*
X133838148Y-66642452D01*
X133949055Y-66795102D01*
X134084898Y-66930945D01*
X134240319Y-67043865D01*
X134353135Y-67101348D01*
X134411493Y-67131083D01*
X134500757Y-67160086D01*
X134594199Y-67190447D01*
X134783945Y-67220500D01*
X134783946Y-67220500D01*
X134976054Y-67220500D01*
X134976055Y-67220500D01*
X135165801Y-67190447D01*
X135348509Y-67131082D01*
X135519681Y-67043865D01*
X135675102Y-66930945D01*
X135810945Y-66795102D01*
X135923865Y-66639681D01*
X136011082Y-66468509D01*
X136070447Y-66285801D01*
X136100500Y-66096055D01*
X136100500Y-65903945D01*
X136070447Y-65714199D01*
X136032188Y-65596448D01*
X136031560Y-65594515D01*
X136011085Y-65531498D01*
X136011083Y-65531492D01*
X135945893Y-65403551D01*
X135945893Y-65403550D01*
X135923866Y-65360320D01*
X135902819Y-65331352D01*
X135810945Y-65204898D01*
X135675102Y-65069055D01*
X135520277Y-64956568D01*
X135519676Y-64956131D01*
X135476451Y-64934107D01*
X135348516Y-64868920D01*
X135348500Y-64868913D01*
X135165804Y-64809553D01*
X135165805Y-64809553D01*
X134999889Y-64783275D01*
X134976055Y-64779500D01*
X134976054Y-64779500D01*
X134783946Y-64779500D01*
X134783945Y-64779500D01*
X134760111Y-64783275D01*
X134594193Y-64809553D01*
X134411498Y-64868913D01*
X134411482Y-64868920D01*
X134240328Y-64956129D01*
X134240321Y-64956132D01*
X134179944Y-65000000D01*
X134096766Y-65060431D01*
X134089387Y-65064564D01*
X133944562Y-65209389D01*
X133940430Y-65216768D01*
X133913094Y-65254393D01*
X133837746Y-65358100D01*
X133836135Y-65360318D01*
X133836134Y-65360320D01*
X133836125Y-65360335D01*
X133748920Y-65531482D01*
X133748914Y-65531495D01*
X133733440Y-65579123D01*
X133717868Y-65610795D01*
X133711483Y-65620133D01*
X133657395Y-65664362D01*
X133587981Y-65672327D01*
X133525283Y-65641502D01*
X133522984Y-65639391D01*
X133488913Y-65586369D01*
X133471083Y-65531493D01*
X133405893Y-65403551D01*
X133405893Y-65403550D01*
X133383866Y-65360320D01*
X133362819Y-65331352D01*
X133270945Y-65204898D01*
X133135102Y-65069055D01*
X132980277Y-64956568D01*
X132979676Y-64956131D01*
X132936451Y-64934107D01*
X132808516Y-64868920D01*
X132808500Y-64868913D01*
X132625804Y-64809553D01*
X132625805Y-64809553D01*
X132459889Y-64783275D01*
X132436055Y-64779500D01*
X132436054Y-64779500D01*
X132243946Y-64779500D01*
X132243945Y-64779500D01*
X132220111Y-64783275D01*
X132054193Y-64809553D01*
X131871498Y-64868913D01*
X131871482Y-64868920D01*
X131700328Y-64956129D01*
X131700321Y-64956132D01*
X131639944Y-65000000D01*
X131556766Y-65060431D01*
X131549387Y-65064564D01*
X131404562Y-65209389D01*
X131400430Y-65216768D01*
X131373094Y-65254393D01*
X131373094Y-65254394D01*
X131296135Y-65360317D01*
X131208917Y-65531490D01*
X131193175Y-65579938D01*
X131177602Y-65611610D01*
X131171218Y-65620946D01*
X131117129Y-65665173D01*
X131047714Y-65673137D01*
X130985017Y-65642309D01*
X130982718Y-65640200D01*
X130948649Y-65587178D01*
X130930616Y-65531680D01*
X130843434Y-65360577D01*
X130843245Y-65360317D01*
X130822204Y-65331355D01*
X130822200Y-65331351D01*
X130336497Y-65817053D01*
X130275174Y-65850538D01*
X130205482Y-65845554D01*
X130149549Y-65803682D01*
X130141430Y-65791374D01*
X130120080Y-65754394D01*
X130045606Y-65679920D01*
X130008625Y-65658569D01*
X129960410Y-65608003D01*
X129947186Y-65539396D01*
X129973154Y-65474531D01*
X129982933Y-65463512D01*
X130468646Y-64977798D01*
X130449183Y-64963658D01*
X130439415Y-64956561D01*
X130439413Y-64956560D01*
X130395347Y-64934107D01*
X130268321Y-64869383D01*
X130085684Y-64810040D01*
X130085682Y-64810039D01*
X130085680Y-64810039D01*
X129896020Y-64780000D01*
X129896015Y-64780000D01*
X129703985Y-64780000D01*
X129703980Y-64780000D01*
X129514318Y-64810039D01*
X129514315Y-64810040D01*
X129331678Y-64869383D01*
X129266228Y-64902732D01*
X129160569Y-64956568D01*
X129156422Y-64959110D01*
X129155265Y-64957223D01*
X129137207Y-64963658D01*
X129131350Y-64977798D01*
X129617055Y-65463501D01*
X129650540Y-65524824D01*
X129645556Y-65594515D01*
X129603685Y-65650449D01*
X129591374Y-65658569D01*
X129554397Y-65679917D01*
X129554392Y-65679921D01*
X129479921Y-65754392D01*
X129479915Y-65754400D01*
X129458568Y-65791374D01*
X129408001Y-65839589D01*
X129339393Y-65852811D01*
X129274529Y-65826843D01*
X129263501Y-65817054D01*
X128777798Y-65331350D01*
X128764329Y-65336930D01*
X128758682Y-65356160D01*
X128759110Y-65356422D01*
X128758141Y-65358002D01*
X128758113Y-65358100D01*
X128757810Y-65358542D01*
X128756568Y-65360569D01*
X128712356Y-65447339D01*
X128669383Y-65531678D01*
X128669382Y-65531680D01*
X128669382Y-65531681D01*
X128610039Y-65714318D01*
X128580000Y-65903978D01*
X128580000Y-66096020D01*
X128608451Y-66275653D01*
X128610040Y-66285684D01*
X128621216Y-66320080D01*
X128669382Y-66468319D01*
X128669385Y-66468327D01*
X128756563Y-66639420D01*
X128774108Y-66663568D01*
X128791999Y-66688193D01*
X128808469Y-66719408D01*
X128812820Y-66731603D01*
X128816808Y-66801359D01*
X128782450Y-66862197D01*
X128725841Y-66893635D01*
X128716845Y-66895863D01*
X128687035Y-66899500D01*
X126305126Y-66899500D01*
X126247344Y-66885214D01*
X126247260Y-66885170D01*
X126178366Y-66848886D01*
X125671574Y-66581980D01*
X125663331Y-66575906D01*
X125638951Y-66565807D01*
X125633717Y-66564918D01*
X125488658Y-66514159D01*
X125488656Y-66514158D01*
X125488652Y-66514157D01*
X125488629Y-66514154D01*
X125358564Y-66499500D01*
X125358558Y-66499500D01*
X125358552Y-66499500D01*
X124961830Y-66499500D01*
X124926889Y-66494475D01*
X124911890Y-66490070D01*
X124853144Y-66452327D01*
X124851957Y-66450958D01*
X124824477Y-66396083D01*
X124822832Y-66388521D01*
X124820000Y-66362168D01*
X124820000Y-66080000D01*
X124188002Y-66080000D01*
X124120963Y-66060315D01*
X124080615Y-66018000D01*
X124070077Y-65999748D01*
X124070073Y-65999743D01*
X124000256Y-65929926D01*
X124000251Y-65929922D01*
X123914747Y-65880557D01*
X123914746Y-65880556D01*
X123885579Y-65872741D01*
X123819370Y-65855000D01*
X123819367Y-65855000D01*
X123720633Y-65855000D01*
X123720630Y-65855000D01*
X123663405Y-65870333D01*
X123625253Y-65880556D01*
X123625252Y-65880557D01*
X123539748Y-65929922D01*
X123539743Y-65929926D01*
X123469926Y-65999743D01*
X123469922Y-65999748D01*
X123459385Y-66018000D01*
X123408818Y-66066216D01*
X123351998Y-66080000D01*
X122720000Y-66080000D01*
X122720000Y-66357670D01*
X122714975Y-66392614D01*
X122710570Y-66407612D01*
X122672827Y-66466355D01*
X122671458Y-66467542D01*
X122616597Y-66495018D01*
X122609039Y-66496663D01*
X122582668Y-66499500D01*
X121902123Y-66499500D01*
X121900192Y-66499659D01*
X121898545Y-66499885D01*
X121842516Y-66505908D01*
X121729287Y-66548140D01*
X121707666Y-66556204D01*
X121707665Y-66556205D01*
X121592456Y-66642450D01*
X121592450Y-66642456D01*
X121506205Y-66757665D01*
X121506203Y-66757668D01*
X121455908Y-66892516D01*
X121449500Y-66952125D01*
X121449500Y-68847876D01*
X121449659Y-68849806D01*
X121449885Y-68851454D01*
X121455907Y-68907482D01*
X121483690Y-68981971D01*
X121506202Y-69042328D01*
X121506206Y-69042335D01*
X121585786Y-69148639D01*
X121587978Y-69152189D01*
X121590337Y-69155013D01*
X121594030Y-69159682D01*
X121601333Y-69164193D01*
X121628867Y-69184806D01*
X121629508Y-69185285D01*
X121654553Y-69210310D01*
X121661330Y-69219364D01*
X121685744Y-69284829D01*
X121670888Y-69353102D01*
X121621500Y-69402493D01*
X121618514Y-69404124D01*
X121559073Y-69419300D01*
X118256592Y-69419300D01*
X118221657Y-69414277D01*
X118210803Y-69411090D01*
X118152025Y-69373316D01*
X118123000Y-69309760D01*
X118132933Y-69240626D01*
X118133697Y-69238953D01*
X118166496Y-69195708D01*
X118166541Y-69195670D01*
X118180572Y-69185416D01*
X118260576Y-69135147D01*
X118384147Y-69011576D01*
X118477122Y-68863606D01*
X118534841Y-68698657D01*
X118549500Y-68568552D01*
X118549500Y-67850128D01*
X118556617Y-67808724D01*
X118584269Y-67730664D01*
X118830914Y-67034392D01*
X118860113Y-66988120D01*
X120686772Y-65161462D01*
X122720000Y-65161462D01*
X122720000Y-65161469D01*
X122720000Y-65580000D01*
X123520000Y-65580000D01*
X124020000Y-65580000D01*
X124820000Y-65580000D01*
X124820000Y-65158882D01*
X124819167Y-65154090D01*
X124806194Y-65038941D01*
X124806194Y-65038939D01*
X124805351Y-65031461D01*
X124747669Y-64866613D01*
X124654753Y-64718737D01*
X124531262Y-64595246D01*
X124383386Y-64502330D01*
X124383385Y-64502329D01*
X124383384Y-64502329D01*
X124218536Y-64444647D01*
X124088536Y-64430000D01*
X124088530Y-64430000D01*
X124020000Y-64430000D01*
X124020000Y-65580000D01*
X123520000Y-65580000D01*
X123520000Y-64430000D01*
X123451462Y-64430000D01*
X123321462Y-64444647D01*
X123156614Y-64502329D01*
X123008736Y-64595246D01*
X122885246Y-64718736D01*
X122792329Y-64866614D01*
X122734647Y-65031462D01*
X122720000Y-65161462D01*
X120686772Y-65161462D01*
X121698811Y-64149423D01*
X121727061Y-64128275D01*
X121750153Y-64115667D01*
X121809578Y-64100500D01*
X146578673Y-64100500D01*
X146613605Y-64105521D01*
X146638849Y-64112934D01*
X146691595Y-64144230D01*
X148110872Y-65563507D01*
X148122460Y-65576880D01*
X148138194Y-65597899D01*
X148138203Y-65597910D01*
X148212023Y-65671730D01*
X148212033Y-65671739D01*
X148268498Y-65728204D01*
X148268510Y-65728215D01*
X148303206Y-65756687D01*
X148312226Y-65764862D01*
X148329584Y-65782220D01*
X148342762Y-65789828D01*
X148347447Y-65792742D01*
X148349772Y-65794135D01*
X148350021Y-65794359D01*
X148351493Y-65795343D01*
X148351351Y-65795554D01*
X148385035Y-65825832D01*
X148428795Y-65883850D01*
X148428796Y-65883850D01*
X148588337Y-66095373D01*
X148603336Y-66113891D01*
X148610344Y-66122544D01*
X148611381Y-66123737D01*
X148611391Y-66123748D01*
X148620352Y-66132392D01*
X148633533Y-66147330D01*
X148635792Y-66150348D01*
X148637973Y-66153881D01*
X148640328Y-66156700D01*
X148644031Y-66161382D01*
X148651335Y-66165895D01*
X148661890Y-66173797D01*
X148673665Y-66183816D01*
X148675380Y-66185470D01*
X148675977Y-66185825D01*
X148676723Y-66186496D01*
X148681074Y-66189817D01*
X148680806Y-66190167D01*
X148711871Y-66218100D01*
X148719148Y-66227822D01*
X148743562Y-66293287D01*
X148728709Y-66361554D01*
X148726707Y-66365222D01*
X148724986Y-66368373D01*
X148690466Y-66408211D01*
X148642452Y-66444154D01*
X148642450Y-66444157D01*
X148556205Y-66559365D01*
X148556203Y-66559368D01*
X148505907Y-66694216D01*
X148499501Y-66753816D01*
X148499500Y-66753839D01*
X148499500Y-67849576D01*
X148499659Y-67851506D01*
X148499885Y-67853154D01*
X148505907Y-67909182D01*
X148523774Y-67957084D01*
X148556202Y-68044028D01*
X148556206Y-68044035D01*
X148580358Y-68076298D01*
X148642450Y-68159242D01*
X148642452Y-68159244D01*
X148642455Y-68159247D01*
X148757664Y-68245493D01*
X148757671Y-68245497D01*
X148807155Y-68263953D01*
X148842513Y-68290421D01*
X148899444Y-68296535D01*
X148899443Y-68296539D01*
X148899458Y-68296536D01*
X148952127Y-68302200D01*
X150047872Y-68302199D01*
X150107483Y-68295791D01*
X150242331Y-68245496D01*
X150357546Y-68159246D01*
X150390363Y-68115406D01*
X150415315Y-68090454D01*
X150426432Y-68082132D01*
X150491893Y-68057719D01*
X150560163Y-68072571D01*
X150566992Y-68076300D01*
X150606822Y-68110816D01*
X150642800Y-68158876D01*
X150642810Y-68158888D01*
X150642813Y-68158891D01*
X150643289Y-68159247D01*
X150757906Y-68245050D01*
X150757913Y-68245054D01*
X150892620Y-68295296D01*
X150892627Y-68295298D01*
X150897212Y-68295791D01*
X150952138Y-68301698D01*
X150952155Y-68301699D01*
X150952172Y-68301700D01*
X151250000Y-68301700D01*
X151250000Y-67654324D01*
X151269685Y-67587285D01*
X151322489Y-67541530D01*
X151391647Y-67531586D01*
X151421452Y-67539763D01*
X151438551Y-67546845D01*
X151450272Y-67551700D01*
X151549726Y-67551700D01*
X151549728Y-67551700D01*
X151567077Y-67544513D01*
X151578548Y-67539763D01*
X151648017Y-67532294D01*
X151710496Y-67563569D01*
X151746148Y-67623659D01*
X151750000Y-67654324D01*
X151750000Y-68301700D01*
X152047828Y-68301700D01*
X152047836Y-68301700D01*
X152047847Y-68301699D01*
X152083560Y-68297858D01*
X152107372Y-68295298D01*
X152107379Y-68295296D01*
X152242086Y-68245054D01*
X152242093Y-68245050D01*
X152357187Y-68158890D01*
X152357190Y-68158887D01*
X152443350Y-68043793D01*
X152443354Y-68043786D01*
X152493596Y-67909079D01*
X152493598Y-67909072D01*
X152496858Y-67878755D01*
X152499998Y-67849560D01*
X152500000Y-67849527D01*
X152500000Y-67551700D01*
X151852624Y-67551700D01*
X151785585Y-67532015D01*
X151739830Y-67479211D01*
X151729886Y-67410053D01*
X151738063Y-67380248D01*
X151744302Y-67365184D01*
X151750000Y-67351428D01*
X151750000Y-67251972D01*
X151741493Y-67231434D01*
X151738063Y-67223152D01*
X151730594Y-67153683D01*
X151761869Y-67091204D01*
X151821959Y-67055552D01*
X151852624Y-67051700D01*
X152500000Y-67051700D01*
X152500000Y-66753872D01*
X152499998Y-66753838D01*
X152494280Y-66700671D01*
X152493598Y-66694327D01*
X152493596Y-66694320D01*
X152443354Y-66559613D01*
X152443350Y-66559606D01*
X152369236Y-66460603D01*
X152357191Y-66444513D01*
X152357188Y-66444510D01*
X152357176Y-66444500D01*
X152313710Y-66411961D01*
X152288755Y-66387006D01*
X152280438Y-66375896D01*
X152256020Y-66310432D01*
X152270869Y-66242164D01*
X152274599Y-66235333D01*
X152309118Y-66195498D01*
X152357546Y-66159246D01*
X152443796Y-66044031D01*
X152494091Y-65909183D01*
X152500500Y-65849573D01*
X152500499Y-64753828D01*
X152494091Y-64694217D01*
X152488298Y-64678686D01*
X152488166Y-64678333D01*
X152443798Y-64559373D01*
X152443797Y-64559371D01*
X152443793Y-64559364D01*
X152374730Y-64467108D01*
X152357548Y-64444156D01*
X152357542Y-64444150D01*
X152266624Y-64376089D01*
X152242335Y-64357906D01*
X152242332Y-64357904D01*
X152242330Y-64357903D01*
X152242328Y-64357902D01*
X152192844Y-64339446D01*
X152157497Y-64312984D01*
X152055583Y-64302028D01*
X152050742Y-64301200D01*
X152047881Y-64301200D01*
X152047873Y-64301200D01*
X152047864Y-64301200D01*
X150952129Y-64301200D01*
X150952123Y-64301200D01*
X150950192Y-64301359D01*
X150948545Y-64301585D01*
X150892516Y-64307608D01*
X150807152Y-64339447D01*
X150757666Y-64357904D01*
X150757665Y-64357905D01*
X150642457Y-64444150D01*
X150642454Y-64444152D01*
X150609951Y-64487571D01*
X150584989Y-64512531D01*
X150573876Y-64520849D01*
X150508410Y-64545262D01*
X150440146Y-64530409D01*
X150433323Y-64526683D01*
X150393487Y-64492165D01*
X150374732Y-64467111D01*
X150374731Y-64467110D01*
X150364185Y-64453023D01*
X150359680Y-64445729D01*
X150355013Y-64442037D01*
X150352189Y-64439678D01*
X150348639Y-64437486D01*
X150338639Y-64430000D01*
X150242335Y-64357906D01*
X150242332Y-64357904D01*
X150242330Y-64357903D01*
X150242328Y-64357902D01*
X150192844Y-64339446D01*
X150157497Y-64312984D01*
X150055583Y-64302028D01*
X150050742Y-64301200D01*
X150047881Y-64301200D01*
X150047873Y-64301200D01*
X150047864Y-64301200D01*
X148952129Y-64301200D01*
X148952123Y-64301200D01*
X148950192Y-64301359D01*
X148948545Y-64301585D01*
X148892515Y-64307608D01*
X148892514Y-64307608D01*
X148757671Y-64357901D01*
X148757660Y-64357906D01*
X148757626Y-64357924D01*
X148745504Y-64363197D01*
X148724301Y-64371105D01*
X148654609Y-64376089D01*
X148654608Y-64376089D01*
X148648412Y-64374741D01*
X148587092Y-64341256D01*
X147470623Y-63224788D01*
X147449474Y-63196538D01*
X147449238Y-63196106D01*
X147444052Y-63186608D01*
X147429199Y-63118338D01*
X147453613Y-63052873D01*
X147509543Y-63011001D01*
X147513422Y-63009554D01*
X147516758Y-63008311D01*
X147560072Y-63000500D01*
X152289554Y-63000500D01*
X152296492Y-63000693D01*
X152303470Y-63001086D01*
X152310349Y-63001666D01*
X152323878Y-63003190D01*
X152383379Y-63009893D01*
X152405167Y-63014866D01*
X152415785Y-63016615D01*
X152436585Y-63021924D01*
X152496969Y-63043052D01*
X152503860Y-63047293D01*
X152509816Y-63048373D01*
X152522290Y-63054381D01*
X152534440Y-63061097D01*
X152593711Y-63098339D01*
X152605048Y-63106383D01*
X152615874Y-63115017D01*
X152619546Y-63119204D01*
X152622413Y-63120614D01*
X152626235Y-63124277D01*
X152675715Y-63173757D01*
X152684980Y-63184124D01*
X152693616Y-63194953D01*
X152701663Y-63206294D01*
X152738896Y-63265549D01*
X152745627Y-63277729D01*
X152751632Y-63290201D01*
X152756949Y-63303039D01*
X152780060Y-63369085D01*
X152783911Y-63382450D01*
X152786992Y-63395950D01*
X152789320Y-63409657D01*
X152798035Y-63487011D01*
X152798036Y-63487011D01*
X152798329Y-63489609D01*
X152798915Y-63496547D01*
X152799305Y-63503485D01*
X152799500Y-63510444D01*
X152799500Y-87989554D01*
X152799304Y-87996517D01*
X152798913Y-88003469D01*
X152798329Y-88010389D01*
X152790106Y-88083374D01*
X152785131Y-88105168D01*
X152783383Y-88115787D01*
X152778072Y-88136596D01*
X152756949Y-88196960D01*
X152752711Y-88203844D01*
X152751632Y-88209797D01*
X152745627Y-88222269D01*
X152738896Y-88234449D01*
X152701663Y-88293704D01*
X152693616Y-88305045D01*
X152684980Y-88315874D01*
X152680788Y-88319550D01*
X152679377Y-88322420D01*
X152675715Y-88326241D01*
X152626241Y-88375715D01*
X152615874Y-88384980D01*
X152605045Y-88393616D01*
X152593704Y-88401663D01*
X152534449Y-88438896D01*
X152522269Y-88445627D01*
X152509797Y-88451632D01*
X152496959Y-88456949D01*
X152430913Y-88480060D01*
X152417557Y-88483909D01*
X152408348Y-88486011D01*
X152404053Y-88486991D01*
X152390341Y-88489321D01*
X152310389Y-88498329D01*
X152303470Y-88498913D01*
X152296519Y-88499304D01*
X152289555Y-88499500D01*
X79210445Y-88499500D01*
X79203482Y-88499304D01*
X79196530Y-88498913D01*
X79189610Y-88498329D01*
X79116619Y-88490105D01*
X79094847Y-88485135D01*
X79091362Y-88484561D01*
X79091361Y-88484561D01*
X79091359Y-88484561D01*
X79084214Y-88483385D01*
X79063407Y-88478073D01*
X79035463Y-88468295D01*
X79003038Y-88456949D01*
X78996153Y-88452711D01*
X78990201Y-88451632D01*
X78977729Y-88445627D01*
X78965549Y-88438896D01*
X78906294Y-88401663D01*
X78894953Y-88393616D01*
X78884124Y-88384980D01*
X78880448Y-88380789D01*
X78877580Y-88379379D01*
X78873757Y-88375715D01*
X78824283Y-88326241D01*
X78815018Y-88315874D01*
X78806382Y-88305045D01*
X78798335Y-88293704D01*
X78761099Y-88234444D01*
X78754376Y-88222280D01*
X78748371Y-88209810D01*
X78743052Y-88196970D01*
X78721278Y-88134743D01*
X78719932Y-88130895D01*
X78716085Y-88117539D01*
X78713010Y-88104068D01*
X78710680Y-88090355D01*
X78701669Y-88010372D01*
X78701084Y-88003434D01*
X78700695Y-87996498D01*
X78700500Y-87989554D01*
X78700500Y-86149998D01*
X85775883Y-86149998D01*
X85775884Y-86149999D01*
X85775885Y-86150000D01*
X86263631Y-86150000D01*
X86330670Y-86169685D01*
X86376425Y-86222489D01*
X86386369Y-86291647D01*
X86383406Y-86306092D01*
X86375000Y-86337463D01*
X86375000Y-86462536D01*
X86383406Y-86493908D01*
X86381743Y-86563758D01*
X86342579Y-86621620D01*
X86278351Y-86649123D01*
X86263631Y-86650000D01*
X85775885Y-86650000D01*
X85777084Y-86657582D01*
X85830592Y-86822259D01*
X85909197Y-86976527D01*
X86010961Y-87116596D01*
X86133402Y-87239037D01*
X86252266Y-87325395D01*
X86273475Y-87340804D01*
X86427742Y-87419408D01*
X86592415Y-87472914D01*
X86763429Y-87500000D01*
X87500000Y-87500000D01*
X87500000Y-86999000D01*
X87519685Y-86931961D01*
X87572489Y-86886206D01*
X87624000Y-86875000D01*
X87876000Y-86875000D01*
X87943039Y-86894685D01*
X87988794Y-86947489D01*
X88000000Y-86999000D01*
X88000000Y-87500000D01*
X88736570Y-87500000D01*
X88736571Y-87500000D01*
X88907584Y-87472914D01*
X89072257Y-87419408D01*
X89226524Y-87340804D01*
X89305170Y-87283664D01*
X89366596Y-87239037D01*
X89366598Y-87239034D01*
X89366602Y-87239032D01*
X89489032Y-87116602D01*
X89489034Y-87116598D01*
X89489037Y-87116596D01*
X89534179Y-87054462D01*
X89590804Y-86976524D01*
X89669408Y-86822255D01*
X89722914Y-86657584D01*
X89724115Y-86650000D01*
X89236369Y-86650000D01*
X89169330Y-86630315D01*
X89123575Y-86577511D01*
X89113631Y-86508353D01*
X89116594Y-86493908D01*
X89118825Y-86485579D01*
X89125000Y-86462535D01*
X89125000Y-86337465D01*
X89118867Y-86314575D01*
X89116594Y-86306092D01*
X89118257Y-86236242D01*
X89157421Y-86178380D01*
X89221649Y-86150877D01*
X89236369Y-86150000D01*
X89724115Y-86150000D01*
X89724115Y-86149998D01*
X91025883Y-86149998D01*
X91025884Y-86149999D01*
X91025885Y-86150000D01*
X91513631Y-86150000D01*
X91580670Y-86169685D01*
X91626425Y-86222489D01*
X91636369Y-86291647D01*
X91633406Y-86306092D01*
X91625000Y-86337463D01*
X91625000Y-86462536D01*
X91633406Y-86493908D01*
X91631743Y-86563758D01*
X91592579Y-86621620D01*
X91528351Y-86649123D01*
X91513631Y-86650000D01*
X91025885Y-86650000D01*
X91027084Y-86657582D01*
X91080592Y-86822259D01*
X91159197Y-86976527D01*
X91260961Y-87116596D01*
X91383402Y-87239037D01*
X91502266Y-87325395D01*
X91523475Y-87340804D01*
X91677742Y-87419408D01*
X91842415Y-87472914D01*
X92013429Y-87500000D01*
X92750000Y-87500000D01*
X92750000Y-86999000D01*
X92769685Y-86931961D01*
X92822489Y-86886206D01*
X92874000Y-86875000D01*
X93126000Y-86875000D01*
X93193039Y-86894685D01*
X93238794Y-86947489D01*
X93250000Y-86999000D01*
X93250000Y-87500000D01*
X93986570Y-87500000D01*
X93986571Y-87500000D01*
X94157584Y-87472914D01*
X94322257Y-87419408D01*
X94476524Y-87340804D01*
X94555170Y-87283664D01*
X94616596Y-87239037D01*
X94616598Y-87239034D01*
X94616602Y-87239032D01*
X94739032Y-87116602D01*
X94739034Y-87116598D01*
X94739037Y-87116596D01*
X94784179Y-87054462D01*
X94840804Y-86976524D01*
X94919408Y-86822255D01*
X94972914Y-86657584D01*
X94974115Y-86650000D01*
X94486369Y-86650000D01*
X94419330Y-86630315D01*
X94373575Y-86577511D01*
X94363631Y-86508353D01*
X94366594Y-86493908D01*
X94368825Y-86485579D01*
X94375000Y-86462535D01*
X94375000Y-86337465D01*
X94368867Y-86314575D01*
X94366594Y-86306092D01*
X94368257Y-86236242D01*
X94407421Y-86178380D01*
X94471649Y-86150877D01*
X94486369Y-86150000D01*
X94974115Y-86150000D01*
X94974115Y-86149998D01*
X94972914Y-86142416D01*
X94972914Y-86142415D01*
X94919407Y-85977740D01*
X94919406Y-85977738D01*
X94853845Y-85849068D01*
X94853844Y-85849067D01*
X94840805Y-85823477D01*
X94822033Y-85797639D01*
X114739500Y-85797639D01*
X114739500Y-85989759D01*
X114769553Y-86179505D01*
X114828914Y-86362202D01*
X114828914Y-86362203D01*
X114858025Y-86419334D01*
X114858025Y-86419336D01*
X114858026Y-86419336D01*
X114916135Y-86533381D01*
X115029055Y-86688802D01*
X115164898Y-86824645D01*
X115320319Y-86937565D01*
X115396780Y-86976524D01*
X115491493Y-87024783D01*
X115582845Y-87054464D01*
X115674199Y-87084147D01*
X115863945Y-87114200D01*
X115863946Y-87114200D01*
X116056054Y-87114200D01*
X116056055Y-87114200D01*
X116245801Y-87084147D01*
X116421919Y-87026923D01*
X116428506Y-87024783D01*
X116428506Y-87024782D01*
X116428509Y-87024782D01*
X116599681Y-86937565D01*
X116755102Y-86824645D01*
X116890945Y-86688802D01*
X117003865Y-86533381D01*
X117091082Y-86362209D01*
X117094791Y-86350794D01*
X117099123Y-86337463D01*
X117101998Y-86328612D01*
X117106560Y-86314571D01*
X117122124Y-86282912D01*
X117128515Y-86273566D01*
X117182598Y-86229338D01*
X117252012Y-86221370D01*
X117314707Y-86252188D01*
X117316987Y-86254281D01*
X117351085Y-86307330D01*
X117368911Y-86362197D01*
X117369699Y-86363926D01*
X117370863Y-86366027D01*
X117456135Y-86533381D01*
X117569055Y-86688802D01*
X117704898Y-86824645D01*
X117860319Y-86937565D01*
X117936780Y-86976524D01*
X118031493Y-87024783D01*
X118122845Y-87054464D01*
X118214199Y-87084147D01*
X118403945Y-87114200D01*
X118403946Y-87114200D01*
X118596054Y-87114200D01*
X118596055Y-87114200D01*
X118785801Y-87084147D01*
X118968509Y-87024782D01*
X119032476Y-86992187D01*
X119050822Y-86984624D01*
X119071039Y-86978129D01*
X119715653Y-86663799D01*
X119784536Y-86652110D01*
X119824346Y-86663799D01*
X120135110Y-86815335D01*
X120135114Y-86815338D01*
X120468960Y-86978130D01*
X120508656Y-86995423D01*
X120514130Y-86997225D01*
X120513843Y-86998096D01*
X120531788Y-87004552D01*
X120571493Y-87024783D01*
X120662845Y-87054464D01*
X120754199Y-87084147D01*
X120943945Y-87114200D01*
X120943946Y-87114200D01*
X121136054Y-87114200D01*
X121136055Y-87114200D01*
X121325801Y-87084147D01*
X121501919Y-87026923D01*
X121508506Y-87024783D01*
X121508506Y-87024782D01*
X121508509Y-87024782D01*
X121679681Y-86937565D01*
X121835102Y-86824645D01*
X121970945Y-86688802D01*
X122083865Y-86533381D01*
X122171082Y-86362209D01*
X122230447Y-86179501D01*
X122260500Y-85989755D01*
X122260500Y-85797645D01*
X122260499Y-85797639D01*
X126239500Y-85797639D01*
X126239500Y-85989759D01*
X126269553Y-86179505D01*
X126328914Y-86362202D01*
X126328914Y-86362203D01*
X126358025Y-86419334D01*
X126358025Y-86419336D01*
X126358026Y-86419336D01*
X126416135Y-86533381D01*
X126529055Y-86688802D01*
X126664898Y-86824645D01*
X126820319Y-86937565D01*
X126896780Y-86976524D01*
X126991493Y-87024783D01*
X127082845Y-87054464D01*
X127174199Y-87084147D01*
X127363945Y-87114200D01*
X127363946Y-87114200D01*
X127556054Y-87114200D01*
X127556055Y-87114200D01*
X127745801Y-87084147D01*
X127921919Y-87026923D01*
X127928506Y-87024783D01*
X127928506Y-87024782D01*
X127928509Y-87024782D01*
X128099681Y-86937565D01*
X128255102Y-86824645D01*
X128390945Y-86688802D01*
X128503865Y-86533381D01*
X128591082Y-86362209D01*
X128594791Y-86350794D01*
X128599123Y-86337463D01*
X128601998Y-86328612D01*
X128606560Y-86314571D01*
X128622124Y-86282912D01*
X128628515Y-86273566D01*
X128682598Y-86229338D01*
X128752012Y-86221370D01*
X128814707Y-86252188D01*
X128816987Y-86254281D01*
X128851085Y-86307330D01*
X128868911Y-86362197D01*
X128869699Y-86363926D01*
X128870863Y-86366027D01*
X128956135Y-86533381D01*
X129069055Y-86688802D01*
X129204898Y-86824645D01*
X129360319Y-86937565D01*
X129436780Y-86976524D01*
X129531493Y-87024783D01*
X129622845Y-87054464D01*
X129714199Y-87084147D01*
X129903945Y-87114200D01*
X129903946Y-87114200D01*
X130096054Y-87114200D01*
X130096055Y-87114200D01*
X130285801Y-87084147D01*
X130468509Y-87024782D01*
X130532476Y-86992187D01*
X130550822Y-86984624D01*
X130571039Y-86978129D01*
X131215653Y-86663799D01*
X131284536Y-86652110D01*
X131324346Y-86663799D01*
X131635110Y-86815335D01*
X131635114Y-86815338D01*
X131968960Y-86978130D01*
X132008656Y-86995423D01*
X132014130Y-86997225D01*
X132013843Y-86998096D01*
X132031788Y-87004552D01*
X132071493Y-87024783D01*
X132162845Y-87054464D01*
X132254199Y-87084147D01*
X132443945Y-87114200D01*
X132443946Y-87114200D01*
X132636054Y-87114200D01*
X132636055Y-87114200D01*
X132825801Y-87084147D01*
X133001919Y-87026923D01*
X133008506Y-87024783D01*
X133008506Y-87024782D01*
X133008509Y-87024782D01*
X133179681Y-86937565D01*
X133335102Y-86824645D01*
X133470945Y-86688802D01*
X133583865Y-86533381D01*
X133671082Y-86362209D01*
X133730447Y-86179501D01*
X133760500Y-85989755D01*
X133760500Y-85797645D01*
X133730447Y-85607899D01*
X133700424Y-85515497D01*
X133700424Y-85515496D01*
X133671085Y-85425198D01*
X133671083Y-85425193D01*
X133607547Y-85300498D01*
X133607546Y-85300497D01*
X133607293Y-85300000D01*
X133583865Y-85254019D01*
X133470945Y-85098598D01*
X133335102Y-84962755D01*
X133179903Y-84849996D01*
X133179676Y-84849831D01*
X133008516Y-84762620D01*
X133008500Y-84762613D01*
X132825804Y-84703253D01*
X132825805Y-84703253D01*
X132636059Y-84673200D01*
X132636055Y-84673200D01*
X132443945Y-84673200D01*
X132443941Y-84673200D01*
X132380696Y-84683217D01*
X132254193Y-84703253D01*
X132071498Y-84762613D01*
X132071486Y-84762618D01*
X132007533Y-84795204D01*
X131989177Y-84802773D01*
X131968961Y-84809269D01*
X131968954Y-84809272D01*
X131324347Y-85123596D01*
X131255462Y-85135286D01*
X131215651Y-85123596D01*
X130571048Y-84809273D01*
X130531286Y-84791953D01*
X130525825Y-84790156D01*
X130526096Y-84789331D01*
X130508178Y-84782830D01*
X130468506Y-84762615D01*
X130468500Y-84762613D01*
X130285804Y-84703253D01*
X130285805Y-84703253D01*
X130096059Y-84673200D01*
X130096055Y-84673200D01*
X129903945Y-84673200D01*
X129903941Y-84673200D01*
X129840696Y-84683217D01*
X129714193Y-84703253D01*
X129531498Y-84762613D01*
X129531482Y-84762620D01*
X129360325Y-84849830D01*
X129360319Y-84849833D01*
X129324466Y-84875882D01*
X129311708Y-84885153D01*
X129216769Y-84954130D01*
X129209388Y-84958263D01*
X129064562Y-85103089D01*
X129060432Y-85110465D01*
X129037008Y-85142707D01*
X129037006Y-85142709D01*
X128956139Y-85254012D01*
X128956135Y-85254018D01*
X128956133Y-85254021D01*
X128956125Y-85254035D01*
X128868920Y-85425182D01*
X128868914Y-85425195D01*
X128853440Y-85472823D01*
X128837868Y-85504495D01*
X128831483Y-85513833D01*
X128777395Y-85558062D01*
X128707981Y-85566027D01*
X128645283Y-85535202D01*
X128642984Y-85533091D01*
X128608913Y-85480069D01*
X128591083Y-85425193D01*
X128527547Y-85300498D01*
X128503865Y-85254019D01*
X128390945Y-85098598D01*
X128255102Y-84962755D01*
X128099903Y-84849996D01*
X128099676Y-84849831D01*
X127928516Y-84762620D01*
X127928500Y-84762613D01*
X127745804Y-84703253D01*
X127745805Y-84703253D01*
X127556059Y-84673200D01*
X127556055Y-84673200D01*
X127363945Y-84673200D01*
X127363941Y-84673200D01*
X127300696Y-84683217D01*
X127174193Y-84703253D01*
X126991498Y-84762613D01*
X126991482Y-84762620D01*
X126820325Y-84849830D01*
X126820319Y-84849833D01*
X126784466Y-84875882D01*
X126771708Y-84885153D01*
X126676769Y-84954130D01*
X126669388Y-84958263D01*
X126524562Y-85103089D01*
X126520432Y-85110465D01*
X126497008Y-85142707D01*
X126497006Y-85142709D01*
X126416139Y-85254012D01*
X126416135Y-85254018D01*
X126416133Y-85254021D01*
X126416125Y-85254035D01*
X126328920Y-85425182D01*
X126328913Y-85425198D01*
X126269553Y-85607893D01*
X126239500Y-85797639D01*
X122260499Y-85797639D01*
X122230447Y-85607899D01*
X122200424Y-85515497D01*
X122200424Y-85515496D01*
X122171085Y-85425198D01*
X122171083Y-85425193D01*
X122107547Y-85300498D01*
X122107546Y-85300497D01*
X122107293Y-85300000D01*
X122083865Y-85254019D01*
X121970945Y-85098598D01*
X121835102Y-84962755D01*
X121679903Y-84849996D01*
X121679676Y-84849831D01*
X121508516Y-84762620D01*
X121508500Y-84762613D01*
X121325804Y-84703253D01*
X121325805Y-84703253D01*
X121136059Y-84673200D01*
X121136055Y-84673200D01*
X120943945Y-84673200D01*
X120943941Y-84673200D01*
X120880696Y-84683217D01*
X120754193Y-84703253D01*
X120571498Y-84762613D01*
X120571486Y-84762618D01*
X120507533Y-84795204D01*
X120489177Y-84802773D01*
X120468961Y-84809269D01*
X120468954Y-84809272D01*
X119824347Y-85123596D01*
X119755462Y-85135286D01*
X119715651Y-85123596D01*
X119071048Y-84809273D01*
X119031286Y-84791953D01*
X119025825Y-84790156D01*
X119026096Y-84789331D01*
X119008178Y-84782830D01*
X118968506Y-84762615D01*
X118968500Y-84762613D01*
X118785804Y-84703253D01*
X118785805Y-84703253D01*
X118596059Y-84673200D01*
X118596055Y-84673200D01*
X118403945Y-84673200D01*
X118403941Y-84673200D01*
X118340696Y-84683217D01*
X118214193Y-84703253D01*
X118031498Y-84762613D01*
X118031482Y-84762620D01*
X117860325Y-84849830D01*
X117860319Y-84849833D01*
X117824466Y-84875882D01*
X117811708Y-84885153D01*
X117716769Y-84954130D01*
X117709388Y-84958263D01*
X117564562Y-85103089D01*
X117560432Y-85110465D01*
X117537008Y-85142707D01*
X117537006Y-85142709D01*
X117456139Y-85254012D01*
X117456135Y-85254018D01*
X117456133Y-85254021D01*
X117456125Y-85254035D01*
X117368920Y-85425182D01*
X117368914Y-85425195D01*
X117353440Y-85472823D01*
X117337868Y-85504495D01*
X117331483Y-85513833D01*
X117277395Y-85558062D01*
X117207981Y-85566027D01*
X117145283Y-85535202D01*
X117142984Y-85533091D01*
X117108913Y-85480069D01*
X117091083Y-85425193D01*
X117027547Y-85300498D01*
X117003865Y-85254019D01*
X116890945Y-85098598D01*
X116755102Y-84962755D01*
X116599903Y-84849996D01*
X116599676Y-84849831D01*
X116428516Y-84762620D01*
X116428500Y-84762613D01*
X116245804Y-84703253D01*
X116245805Y-84703253D01*
X116056059Y-84673200D01*
X116056055Y-84673200D01*
X115863945Y-84673200D01*
X115863941Y-84673200D01*
X115800696Y-84683217D01*
X115674193Y-84703253D01*
X115491498Y-84762613D01*
X115491482Y-84762620D01*
X115320325Y-84849830D01*
X115320319Y-84849833D01*
X115284466Y-84875882D01*
X115271708Y-84885153D01*
X115176769Y-84954130D01*
X115169388Y-84958263D01*
X115024562Y-85103089D01*
X115020432Y-85110465D01*
X114997008Y-85142707D01*
X114997006Y-85142709D01*
X114916139Y-85254012D01*
X114916135Y-85254018D01*
X114916133Y-85254021D01*
X114916125Y-85254035D01*
X114828920Y-85425182D01*
X114828913Y-85425198D01*
X114769553Y-85607893D01*
X114739500Y-85797639D01*
X94822033Y-85797639D01*
X94739032Y-85683397D01*
X94616602Y-85560967D01*
X94616596Y-85560961D01*
X94476527Y-85459197D01*
X94476526Y-85459196D01*
X94476524Y-85459195D01*
X94322257Y-85380591D01*
X94257393Y-85359515D01*
X94157584Y-85327084D01*
X93986575Y-85300000D01*
X93986571Y-85300000D01*
X93250000Y-85300000D01*
X93250000Y-85801000D01*
X93230315Y-85868039D01*
X93177511Y-85913794D01*
X93126000Y-85925000D01*
X92874000Y-85925000D01*
X92806961Y-85905315D01*
X92761206Y-85852511D01*
X92750000Y-85801000D01*
X92750000Y-85300000D01*
X92013429Y-85300000D01*
X92013425Y-85300000D01*
X91842416Y-85327084D01*
X91842410Y-85327086D01*
X91734090Y-85362282D01*
X91677742Y-85380591D01*
X91590207Y-85425193D01*
X91523471Y-85459197D01*
X91383402Y-85560961D01*
X91260961Y-85683402D01*
X91159197Y-85823471D01*
X91080592Y-85977739D01*
X91027084Y-86142417D01*
X91025883Y-86149998D01*
X89724115Y-86149998D01*
X89722914Y-86142416D01*
X89673312Y-85989759D01*
X89669408Y-85977744D01*
X89669406Y-85977740D01*
X89669406Y-85977739D01*
X89636824Y-85913794D01*
X89590804Y-85823475D01*
X89572033Y-85797639D01*
X89489037Y-85683402D01*
X89366596Y-85560961D01*
X89226527Y-85459197D01*
X89226526Y-85459196D01*
X89226524Y-85459195D01*
X89072257Y-85380591D01*
X89007393Y-85359515D01*
X88907584Y-85327084D01*
X88736575Y-85300000D01*
X88736571Y-85300000D01*
X88000000Y-85300000D01*
X88000000Y-85801000D01*
X87980315Y-85868039D01*
X87927511Y-85913794D01*
X87876000Y-85925000D01*
X87624000Y-85925000D01*
X87556961Y-85905315D01*
X87511206Y-85852511D01*
X87500000Y-85801000D01*
X87500000Y-85300000D01*
X86763429Y-85300000D01*
X86763425Y-85300000D01*
X86592416Y-85327084D01*
X86592410Y-85327086D01*
X86484090Y-85362282D01*
X86427742Y-85380591D01*
X86340207Y-85425193D01*
X86273471Y-85459197D01*
X86133402Y-85560961D01*
X86010961Y-85683402D01*
X85909197Y-85823471D01*
X85830592Y-85977739D01*
X85777084Y-86142417D01*
X85775883Y-86149998D01*
X78700500Y-86149998D01*
X78700500Y-67999984D01*
X80299500Y-67999984D01*
X80299500Y-68004951D01*
X80299500Y-70000024D01*
X80309999Y-70102796D01*
X80311483Y-70107900D01*
X80312470Y-70110261D01*
X80312485Y-70110305D01*
X80312661Y-70111368D01*
X80312824Y-70111315D01*
X80365183Y-70269328D01*
X80365184Y-70269330D01*
X80365190Y-70269343D01*
X80428558Y-70372076D01*
X80457286Y-70418651D01*
X80457289Y-70418655D01*
X80457291Y-70418657D01*
X80457293Y-70418660D01*
X80581338Y-70542705D01*
X80581341Y-70542707D01*
X80581344Y-70542710D01*
X80581348Y-70542713D01*
X80707135Y-70620300D01*
X80721615Y-70629232D01*
X80730662Y-70634812D01*
X80730664Y-70634813D01*
X80730666Y-70634814D01*
X80897203Y-70689999D01*
X80999992Y-70700500D01*
X80999997Y-70700500D01*
X81259535Y-70700500D01*
X81294462Y-70705521D01*
X81303094Y-70708055D01*
X81361875Y-70745825D01*
X81390904Y-70809379D01*
X81380965Y-70878538D01*
X81340698Y-70927609D01*
X81336545Y-70930604D01*
X81311466Y-70944590D01*
X81246288Y-70971586D01*
X81246279Y-70971591D01*
X81246256Y-70971603D01*
X81053237Y-71083044D01*
X81053212Y-71083061D01*
X81053210Y-71083062D01*
X80876395Y-71218736D01*
X80876379Y-71218749D01*
X80876369Y-71218758D01*
X80876361Y-71218765D01*
X80718765Y-71376361D01*
X80718758Y-71376369D01*
X80718749Y-71376379D01*
X80718736Y-71376395D01*
X80583062Y-71553210D01*
X80583061Y-71553212D01*
X80583044Y-71553237D01*
X80471595Y-71746272D01*
X80386297Y-71952199D01*
X80386288Y-71952222D01*
X80338229Y-72131590D01*
X80338228Y-72131592D01*
X80328601Y-72167516D01*
X80328593Y-72167550D01*
X80328592Y-72167556D01*
X80299503Y-72388516D01*
X80299500Y-72388541D01*
X80299500Y-72611457D01*
X80299503Y-72611482D01*
X80328593Y-72832447D01*
X80328597Y-72832467D01*
X80386288Y-73047776D01*
X80386290Y-73047780D01*
X80386293Y-73047790D01*
X80471593Y-73253722D01*
X80471595Y-73253726D01*
X80581212Y-73443589D01*
X80582233Y-73445486D01*
X80583067Y-73446873D01*
X80584571Y-73448754D01*
X80710052Y-73612286D01*
X80718751Y-73623622D01*
X80718757Y-73623629D01*
X80876370Y-73781242D01*
X80876377Y-73781248D01*
X80952426Y-73839602D01*
X81053226Y-73916948D01*
X81246274Y-74028405D01*
X81246277Y-74028406D01*
X81246282Y-74028409D01*
X81376139Y-74082197D01*
X81376140Y-74082197D01*
X81451074Y-74113236D01*
X81451086Y-74113241D01*
X81451085Y-74113241D01*
X81452209Y-74113706D01*
X81452219Y-74113710D01*
X81495670Y-74125352D01*
X81496633Y-74125610D01*
X81529071Y-74139500D01*
X81538729Y-74145386D01*
X81585731Y-74197083D01*
X81597322Y-74265984D01*
X81569871Y-74330155D01*
X81569481Y-74330628D01*
X81525302Y-74364546D01*
X81523256Y-74365480D01*
X81503858Y-74372452D01*
X81467986Y-74382064D01*
X81459820Y-74383139D01*
X81455494Y-74384932D01*
X81455486Y-74384934D01*
X81455487Y-74384935D01*
X81246272Y-74471594D01*
X81053237Y-74583044D01*
X81053212Y-74583061D01*
X81053210Y-74583062D01*
X80876395Y-74718736D01*
X80876379Y-74718749D01*
X80876377Y-74718751D01*
X80876370Y-74718757D01*
X80876366Y-74718760D01*
X80876361Y-74718765D01*
X80718765Y-74876361D01*
X80718758Y-74876369D01*
X80718749Y-74876379D01*
X80718736Y-74876395D01*
X80583062Y-75053210D01*
X80583061Y-75053212D01*
X80583044Y-75053237D01*
X80471595Y-75246272D01*
X80386297Y-75452199D01*
X80386288Y-75452222D01*
X80356191Y-75564552D01*
X80344816Y-75607007D01*
X80338311Y-75631284D01*
X80338310Y-75631286D01*
X80328601Y-75667516D01*
X80328593Y-75667550D01*
X80328592Y-75667556D01*
X80299503Y-75888516D01*
X80299500Y-75888541D01*
X80299500Y-76111457D01*
X80299503Y-76111482D01*
X80328594Y-76332454D01*
X80328708Y-76333146D01*
X80329443Y-76335624D01*
X80386289Y-76547779D01*
X80386290Y-76547781D01*
X80386293Y-76547790D01*
X80471593Y-76753722D01*
X80471595Y-76753726D01*
X80581212Y-76943589D01*
X80582233Y-76945486D01*
X80583067Y-76946873D01*
X80584571Y-76948754D01*
X80630052Y-77008027D01*
X80718751Y-77123622D01*
X80718757Y-77123629D01*
X80876370Y-77281242D01*
X80876376Y-77281247D01*
X80876380Y-77281250D01*
X81053215Y-77416940D01*
X81053217Y-77416941D01*
X81053226Y-77416948D01*
X81246274Y-77528405D01*
X81452219Y-77613710D01*
X81497603Y-77625870D01*
X81530044Y-77639762D01*
X81539704Y-77645650D01*
X81586701Y-77697352D01*
X81598286Y-77766255D01*
X81570780Y-77830482D01*
X81570754Y-77830514D01*
X81570364Y-77830986D01*
X81526296Y-77864791D01*
X81524247Y-77865727D01*
X81504819Y-77872712D01*
X81452392Y-77886760D01*
X81452385Y-77886762D01*
X81452379Y-77886764D01*
X81452372Y-77886767D01*
X81246496Y-77972045D01*
X81246493Y-77972046D01*
X81246471Y-77972058D01*
X81053508Y-78083463D01*
X80987595Y-78134040D01*
X80987595Y-78134043D01*
X81670645Y-78817092D01*
X81704130Y-78878415D01*
X81699146Y-78948106D01*
X81657274Y-79004040D01*
X81644967Y-79012159D01*
X81631592Y-79019881D01*
X81631589Y-79019883D01*
X81519883Y-79131589D01*
X81519881Y-79131592D01*
X81512159Y-79144967D01*
X81461590Y-79193181D01*
X81392983Y-79206402D01*
X81328119Y-79180433D01*
X81317092Y-79170645D01*
X80634043Y-78487595D01*
X80634040Y-78487595D01*
X80583463Y-78553508D01*
X80472058Y-78746471D01*
X80472056Y-78746475D01*
X80472054Y-78746479D01*
X80472045Y-78746497D01*
X80399162Y-78922449D01*
X80386764Y-78952379D01*
X80386761Y-78952387D01*
X80329091Y-79167616D01*
X80329088Y-79167632D01*
X80329083Y-79167654D01*
X80300000Y-79388574D01*
X80300000Y-79611424D01*
X80329083Y-79832344D01*
X80329086Y-79832357D01*
X80329091Y-79832382D01*
X80386761Y-80047611D01*
X80386763Y-80047618D01*
X80424064Y-80137669D01*
X80472047Y-80253508D01*
X80472052Y-80253517D01*
X80472054Y-80253520D01*
X80564349Y-80413383D01*
X80583466Y-80446494D01*
X80583478Y-80446511D01*
X80634039Y-80512402D01*
X80634040Y-80512403D01*
X80634043Y-80512403D01*
X81317094Y-79829351D01*
X81378415Y-79795868D01*
X81448106Y-79800852D01*
X81504040Y-79842723D01*
X81512157Y-79855031D01*
X81519881Y-79868408D01*
X81631592Y-79980119D01*
X81644964Y-79987839D01*
X81693179Y-80038407D01*
X81706401Y-80107014D01*
X81680433Y-80171879D01*
X81670644Y-80182907D01*
X80987595Y-80865954D01*
X80987595Y-80865957D01*
X81053505Y-80916532D01*
X81053507Y-80916533D01*
X81246485Y-81027949D01*
X81246497Y-81027954D01*
X81452381Y-81113236D01*
X81498565Y-81125611D01*
X81531005Y-81139502D01*
X81540664Y-81145389D01*
X81587664Y-81197088D01*
X81599251Y-81265990D01*
X81571748Y-81330219D01*
X81571701Y-81330276D01*
X81571310Y-81330749D01*
X81527260Y-81364533D01*
X81525211Y-81365469D01*
X81505780Y-81372455D01*
X81452396Y-81386758D01*
X81452383Y-81386762D01*
X81246490Y-81472047D01*
X81246471Y-81472058D01*
X81053508Y-81583463D01*
X80987595Y-81634040D01*
X80987595Y-81634043D01*
X81670645Y-82317092D01*
X81704130Y-82378415D01*
X81699146Y-82448106D01*
X81657274Y-82504040D01*
X81644967Y-82512159D01*
X81631592Y-82519881D01*
X81631589Y-82519883D01*
X81519883Y-82631589D01*
X81519881Y-82631592D01*
X81512159Y-82644967D01*
X81461590Y-82693181D01*
X81392983Y-82706402D01*
X81328119Y-82680433D01*
X81317092Y-82670645D01*
X80634043Y-81987595D01*
X80634040Y-81987595D01*
X80583463Y-82053508D01*
X80472058Y-82246471D01*
X80472047Y-82246490D01*
X80386764Y-82452379D01*
X80386761Y-82452387D01*
X80329091Y-82667616D01*
X80329086Y-82667641D01*
X80329083Y-82667654D01*
X80300000Y-82888574D01*
X80300000Y-83111424D01*
X80329083Y-83332344D01*
X80329086Y-83332357D01*
X80329091Y-83332382D01*
X80384295Y-83538407D01*
X80386763Y-83547618D01*
X80419752Y-83627259D01*
X80472047Y-83753508D01*
X80472050Y-83753513D01*
X80472054Y-83753520D01*
X80582197Y-83944297D01*
X80583466Y-83946494D01*
X80583478Y-83946511D01*
X80634039Y-84012402D01*
X80634040Y-84012403D01*
X80634043Y-84012403D01*
X81317094Y-83329351D01*
X81378415Y-83295868D01*
X81448106Y-83300852D01*
X81504040Y-83342723D01*
X81512157Y-83355031D01*
X81519881Y-83368408D01*
X81631592Y-83480119D01*
X81644964Y-83487839D01*
X81693179Y-83538407D01*
X81706401Y-83607014D01*
X81680433Y-83671879D01*
X81670644Y-83682907D01*
X80987595Y-84365954D01*
X80987595Y-84365957D01*
X81053505Y-84416532D01*
X81074546Y-84428680D01*
X81246485Y-84527949D01*
X81246497Y-84527954D01*
X81452381Y-84613236D01*
X81598557Y-84652403D01*
X81667616Y-84670907D01*
X81667620Y-84670907D01*
X81667632Y-84670911D01*
X81667645Y-84670914D01*
X81888575Y-84700000D01*
X82111418Y-84700000D01*
X82111425Y-84700000D01*
X82332354Y-84670914D01*
X82332367Y-84670911D01*
X82547618Y-84613236D01*
X82753502Y-84527954D01*
X82753514Y-84527949D01*
X82946498Y-84416530D01*
X83012403Y-84365957D01*
X83012404Y-84365956D01*
X83012403Y-84365955D01*
X83012404Y-84365955D01*
X82329354Y-83682907D01*
X82295869Y-83621584D01*
X82300853Y-83551893D01*
X82342724Y-83495959D01*
X82355022Y-83487846D01*
X82368408Y-83480119D01*
X82480119Y-83368408D01*
X82487839Y-83355035D01*
X82538405Y-83306821D01*
X82607012Y-83293597D01*
X82671877Y-83319565D01*
X82682907Y-83329355D01*
X83365956Y-84012404D01*
X83365957Y-84012403D01*
X83416530Y-83946497D01*
X83416534Y-83946492D01*
X83444718Y-83897676D01*
X103780000Y-83897676D01*
X103780000Y-84102322D01*
X103812008Y-84304411D01*
X103812009Y-84304417D01*
X103875244Y-84499031D01*
X103916840Y-84580667D01*
X103968144Y-84681357D01*
X103968147Y-84681360D01*
X104000517Y-84725914D01*
X104000521Y-84725919D01*
X104000523Y-84725921D01*
X104000524Y-84725922D01*
X104543503Y-84182942D01*
X104604824Y-84149459D01*
X104674515Y-84154443D01*
X104730449Y-84196314D01*
X104738567Y-84208622D01*
X104759920Y-84245606D01*
X104834394Y-84320080D01*
X104871372Y-84341429D01*
X104919587Y-84391995D01*
X104932811Y-84460602D01*
X104906843Y-84525467D01*
X104897053Y-84536497D01*
X104354075Y-85079473D01*
X104354076Y-85079473D01*
X104354076Y-85079474D01*
X104398650Y-85111859D01*
X104459202Y-85142712D01*
X104580963Y-85204753D01*
X104580965Y-85204753D01*
X104580968Y-85204755D01*
X104775582Y-85267990D01*
X104977683Y-85300000D01*
X105182316Y-85300000D01*
X105182317Y-85300000D01*
X105384417Y-85267990D01*
X105579031Y-85204755D01*
X105761341Y-85111863D01*
X105761349Y-85111858D01*
X105817129Y-85071330D01*
X105848339Y-85054861D01*
X105863063Y-85049607D01*
X105932815Y-85045616D01*
X105939238Y-85047109D01*
X105998839Y-85080207D01*
X106061344Y-85142712D01*
X106210666Y-85234814D01*
X106377203Y-85289999D01*
X106479991Y-85300500D01*
X107680008Y-85300499D01*
X107782797Y-85289999D01*
X107949334Y-85234814D01*
X108098656Y-85142712D01*
X108222712Y-85018656D01*
X108314814Y-84869334D01*
X108369999Y-84702797D01*
X108380500Y-84600009D01*
X108380499Y-83399992D01*
X108369999Y-83297203D01*
X108314814Y-83130666D01*
X108222712Y-82981344D01*
X108098656Y-82857288D01*
X108098655Y-82857287D01*
X107998066Y-82795244D01*
X107998063Y-82795241D01*
X107949339Y-82765188D01*
X107949335Y-82765186D01*
X107949313Y-82765178D01*
X107926747Y-82757701D01*
X107926746Y-82757701D01*
X107791265Y-82712807D01*
X107788445Y-82711641D01*
X107782792Y-82709999D01*
X107680019Y-82699500D01*
X107680010Y-82699500D01*
X106479998Y-82699500D01*
X106479981Y-82699501D01*
X106465959Y-82700933D01*
X106377198Y-82710000D01*
X106377193Y-82710001D01*
X106377032Y-82710056D01*
X106210666Y-82765185D01*
X106210664Y-82765186D01*
X106061347Y-82857285D01*
X106004728Y-82913904D01*
X105976473Y-82935055D01*
X105962754Y-82942546D01*
X105894481Y-82957397D01*
X105894471Y-82957396D01*
X105887894Y-82956925D01*
X105823866Y-82933560D01*
X105761355Y-82888144D01*
X105761354Y-82888143D01*
X105761352Y-82888142D01*
X105579031Y-82795244D01*
X105384417Y-82732009D01*
X105377649Y-82730937D01*
X105182322Y-82700000D01*
X105182317Y-82700000D01*
X104977683Y-82700000D01*
X104977678Y-82700000D01*
X104775587Y-82732008D01*
X104775585Y-82732008D01*
X104775582Y-82732009D01*
X104683616Y-82761891D01*
X104580963Y-82795245D01*
X104398640Y-82888145D01*
X104354077Y-82920522D01*
X104354077Y-82920524D01*
X104897054Y-83463501D01*
X104930539Y-83524824D01*
X104925555Y-83594516D01*
X104883683Y-83650449D01*
X104871374Y-83658568D01*
X104834400Y-83679915D01*
X104834392Y-83679921D01*
X104759921Y-83754392D01*
X104759915Y-83754400D01*
X104738568Y-83791374D01*
X104688001Y-83839589D01*
X104619393Y-83852811D01*
X104554529Y-83826843D01*
X104543501Y-83817054D01*
X104000524Y-83274077D01*
X104000523Y-83274077D01*
X104000522Y-83274077D01*
X103968145Y-83318640D01*
X103875245Y-83500963D01*
X103860086Y-83547618D01*
X103812009Y-83695582D01*
X103812008Y-83695585D01*
X103812008Y-83695587D01*
X103780000Y-83897676D01*
X83444718Y-83897676D01*
X83483319Y-83830817D01*
X83483319Y-83830816D01*
X83527949Y-83753513D01*
X83527954Y-83753502D01*
X83613236Y-83547618D01*
X83670911Y-83332367D01*
X83670914Y-83332354D01*
X83700000Y-83111424D01*
X83700000Y-82888575D01*
X83670914Y-82667645D01*
X83670911Y-82667632D01*
X83665465Y-82647308D01*
X83639330Y-82549768D01*
X83613236Y-82452381D01*
X83527954Y-82246497D01*
X83527949Y-82246485D01*
X83416533Y-82053507D01*
X83416532Y-82053505D01*
X83365957Y-81987595D01*
X83365956Y-81987595D01*
X83365955Y-81987595D01*
X83365954Y-81987595D01*
X82682906Y-82670643D01*
X82621583Y-82704128D01*
X82551891Y-82699144D01*
X82495958Y-82657272D01*
X82487838Y-82644961D01*
X82480122Y-82631598D01*
X82480119Y-82631592D01*
X82368408Y-82519881D01*
X82359677Y-82514840D01*
X82355032Y-82512158D01*
X82306817Y-82461590D01*
X82293596Y-82392983D01*
X82319565Y-82328118D01*
X82329343Y-82317101D01*
X83012403Y-81634043D01*
X83012403Y-81634040D01*
X82946504Y-81583473D01*
X82946491Y-81583464D01*
X82753520Y-81472054D01*
X82753508Y-81472047D01*
X82582266Y-81401115D01*
X82547618Y-81386763D01*
X82547616Y-81386762D01*
X82547615Y-81386762D01*
X82547613Y-81386761D01*
X82524594Y-81380594D01*
X82501431Y-81374388D01*
X82468986Y-81360493D01*
X82459326Y-81354605D01*
X82412330Y-81302902D01*
X82400748Y-81233999D01*
X82428254Y-81169774D01*
X82428690Y-81169247D01*
X82472745Y-81135462D01*
X82474807Y-81134520D01*
X82494207Y-81127547D01*
X82547618Y-81113236D01*
X82753502Y-81027954D01*
X82753514Y-81027949D01*
X82946498Y-80916530D01*
X83012403Y-80865957D01*
X83012404Y-80865956D01*
X83012403Y-80865955D01*
X83012404Y-80865955D01*
X82329354Y-80182907D01*
X82295869Y-80121584D01*
X82300853Y-80051893D01*
X82342724Y-79995959D01*
X82355022Y-79987846D01*
X82368408Y-79980119D01*
X82480119Y-79868408D01*
X82487839Y-79855035D01*
X82538405Y-79806821D01*
X82607012Y-79793597D01*
X82671877Y-79819565D01*
X82682907Y-79829355D01*
X83365955Y-80512403D01*
X83365956Y-80512404D01*
X83365957Y-80512403D01*
X83416530Y-80446498D01*
X83527949Y-80253514D01*
X83527954Y-80253502D01*
X83613236Y-80047618D01*
X83670911Y-79832367D01*
X83670914Y-79832354D01*
X83700000Y-79611424D01*
X83700000Y-79388575D01*
X83670914Y-79167645D01*
X83670911Y-79167632D01*
X83665234Y-79146446D01*
X83646274Y-79075685D01*
X83613236Y-78952381D01*
X83527954Y-78746497D01*
X83527949Y-78746485D01*
X83416533Y-78553507D01*
X83416532Y-78553505D01*
X83365957Y-78487595D01*
X83365956Y-78487595D01*
X83365955Y-78487595D01*
X83365954Y-78487595D01*
X82682906Y-79170643D01*
X82621583Y-79204128D01*
X82551891Y-79199144D01*
X82495958Y-79157272D01*
X82487838Y-79144961D01*
X82480122Y-79131598D01*
X82480119Y-79131592D01*
X82368408Y-79019881D01*
X82361586Y-79015942D01*
X82355032Y-79012158D01*
X82306817Y-78961590D01*
X82293596Y-78892983D01*
X82319565Y-78828118D01*
X82329343Y-78817101D01*
X83012403Y-78134043D01*
X83012403Y-78134040D01*
X82971110Y-78102354D01*
X82946511Y-78083478D01*
X82946494Y-78083466D01*
X82946487Y-78083462D01*
X82753520Y-77972054D01*
X82753516Y-77972052D01*
X82753505Y-77972046D01*
X82753502Y-77972045D01*
X82717883Y-77957291D01*
X82547620Y-77886764D01*
X82547618Y-77886763D01*
X82547617Y-77886763D01*
X82528214Y-77881564D01*
X82502395Y-77874646D01*
X82469955Y-77860754D01*
X82460292Y-77854864D01*
X82413297Y-77803164D01*
X82401712Y-77734261D01*
X82429197Y-77670060D01*
X82429590Y-77669583D01*
X82473692Y-77635728D01*
X82475749Y-77634788D01*
X82495169Y-77627806D01*
X82535870Y-77616901D01*
X82547771Y-77613713D01*
X82547773Y-77613711D01*
X82547781Y-77613710D01*
X82753726Y-77528405D01*
X82946774Y-77416948D01*
X82946782Y-77416941D01*
X82946785Y-77416940D01*
X83075223Y-77318386D01*
X83123624Y-77281247D01*
X83281247Y-77123624D01*
X83416948Y-76946774D01*
X83528405Y-76753726D01*
X83613710Y-76547781D01*
X83671404Y-76332463D01*
X83700500Y-76111457D01*
X83700500Y-75888543D01*
X83671404Y-75667537D01*
X83613710Y-75452219D01*
X83528405Y-75246274D01*
X83416948Y-75053226D01*
X83281247Y-74876376D01*
X83281242Y-74876370D01*
X83123629Y-74718757D01*
X83123622Y-74718751D01*
X83123612Y-74718743D01*
X83123603Y-74718736D01*
X82948754Y-74584571D01*
X82946873Y-74583067D01*
X82945486Y-74582233D01*
X82943589Y-74581212D01*
X82753726Y-74471595D01*
X82753724Y-74471594D01*
X82753722Y-74471593D01*
X82551833Y-74387968D01*
X82550016Y-74387138D01*
X82549536Y-74386956D01*
X82548015Y-74386352D01*
X82503362Y-74374388D01*
X82470917Y-74360494D01*
X82461262Y-74354609D01*
X82414264Y-74302909D01*
X82402677Y-74234007D01*
X82430179Y-74169782D01*
X82430655Y-74169205D01*
X82474641Y-74135477D01*
X82476698Y-74134538D01*
X82496134Y-74127548D01*
X82547781Y-74113710D01*
X82753726Y-74028405D01*
X82946774Y-73916948D01*
X83123624Y-73781247D01*
X83281247Y-73623624D01*
X83416948Y-73446774D01*
X83528405Y-73253726D01*
X83592305Y-73099457D01*
X83613707Y-73047789D01*
X83613707Y-73047787D01*
X83613710Y-73047781D01*
X83671404Y-72832463D01*
X83700500Y-72611457D01*
X83700500Y-72388543D01*
X83671404Y-72167537D01*
X83613710Y-71952219D01*
X83528405Y-71746274D01*
X83416948Y-71553226D01*
X83316724Y-71422611D01*
X83281248Y-71376377D01*
X83281242Y-71376370D01*
X83123629Y-71218757D01*
X83123622Y-71218751D01*
X83123612Y-71218743D01*
X83123603Y-71218736D01*
X82948754Y-71084571D01*
X82946873Y-71083067D01*
X82945486Y-71082233D01*
X82943589Y-71081212D01*
X82753767Y-70971618D01*
X82753715Y-70971589D01*
X82743165Y-70967219D01*
X82691651Y-70945882D01*
X82661301Y-70927874D01*
X82654296Y-70922229D01*
X82614448Y-70864837D01*
X82611954Y-70795012D01*
X82647606Y-70734923D01*
X82703596Y-70704999D01*
X82708583Y-70703821D01*
X82737089Y-70700500D01*
X83000003Y-70700500D01*
X83000008Y-70700500D01*
X83102797Y-70689999D01*
X83269334Y-70634814D01*
X83418655Y-70542711D01*
X83542711Y-70418655D01*
X83634814Y-70269334D01*
X83689999Y-70102797D01*
X83700500Y-70000008D01*
X83700500Y-67999992D01*
X83689999Y-67897203D01*
X83634814Y-67730666D01*
X83623596Y-67712480D01*
X83616678Y-67701263D01*
X83577367Y-67637531D01*
X83542713Y-67581348D01*
X83542710Y-67581344D01*
X83542706Y-67581340D01*
X83542705Y-67581338D01*
X83418660Y-67457293D01*
X83418657Y-67457291D01*
X83418655Y-67457289D01*
X83418651Y-67457286D01*
X83367443Y-67425700D01*
X83269343Y-67365190D01*
X83269339Y-67365188D01*
X83269337Y-67365187D01*
X83269335Y-67365186D01*
X83186065Y-67337593D01*
X83186064Y-67337592D01*
X83111264Y-67312806D01*
X83108440Y-67311639D01*
X83102796Y-67309999D01*
X83000024Y-67299500D01*
X83000015Y-67299500D01*
X83000008Y-67299500D01*
X80999992Y-67299500D01*
X80999984Y-67299500D01*
X80999974Y-67299500D01*
X80895495Y-67310174D01*
X80889915Y-67312415D01*
X80730667Y-67365184D01*
X80730655Y-67365190D01*
X80581354Y-67457282D01*
X80581341Y-67457291D01*
X80581338Y-67457293D01*
X80457293Y-67581338D01*
X80457291Y-67581341D01*
X80457282Y-67581354D01*
X80365190Y-67730655D01*
X80365184Y-67730667D01*
X80316113Y-67878755D01*
X80316112Y-67878760D01*
X80310001Y-67897203D01*
X80310000Y-67897204D01*
X80299500Y-67999984D01*
X78700500Y-67999984D01*
X78700500Y-65010444D01*
X78700695Y-65003499D01*
X78701085Y-64996547D01*
X78701666Y-64989649D01*
X78705107Y-64959110D01*
X78705443Y-64956129D01*
X78707923Y-64934108D01*
X78709893Y-64916615D01*
X78714860Y-64894861D01*
X78715435Y-64891365D01*
X78715437Y-64891362D01*
X78715436Y-64891358D01*
X78716614Y-64884213D01*
X78721925Y-64863407D01*
X78743055Y-64803022D01*
X78747292Y-64796138D01*
X78748372Y-64790186D01*
X78754376Y-64777716D01*
X78761086Y-64765574D01*
X78798353Y-64706265D01*
X78806374Y-64694961D01*
X78815016Y-64684124D01*
X78819201Y-64680454D01*
X78820612Y-64677587D01*
X78824251Y-64673789D01*
X78873774Y-64624266D01*
X78884114Y-64615024D01*
X78894961Y-64606374D01*
X78906265Y-64598353D01*
X78965574Y-64561086D01*
X78977716Y-64554376D01*
X78990198Y-64548366D01*
X79003014Y-64543058D01*
X79069098Y-64519933D01*
X79082447Y-64516087D01*
X79095955Y-64513004D01*
X79109631Y-64510681D01*
X79183758Y-64502330D01*
X79189644Y-64501666D01*
X79196549Y-64501085D01*
X79203503Y-64500695D01*
X79210446Y-64500500D01*
X86950225Y-64500500D01*
X86985154Y-64505521D01*
X86987289Y-64506147D01*
X86996154Y-64508751D01*
X87054933Y-64546522D01*
X87083961Y-64610076D01*
X87074208Y-64678822D01*
X87066883Y-64695020D01*
X87054218Y-64716811D01*
X87030702Y-64749179D01*
X87030701Y-64749181D01*
X86951859Y-64857696D01*
X86864287Y-65029565D01*
X86864286Y-65029567D01*
X86864286Y-65029568D01*
X86860280Y-65041896D01*
X86804674Y-65213032D01*
X86794324Y-65278381D01*
X86781347Y-65360318D01*
X86781306Y-65360577D01*
X86774500Y-65403547D01*
X86774500Y-65596447D01*
X86774499Y-65596447D01*
X86778515Y-65621798D01*
X86787721Y-65679921D01*
X86804657Y-65786858D01*
X86804675Y-65786968D01*
X86804682Y-65786998D01*
X86804830Y-65787446D01*
X86864286Y-65970433D01*
X86941787Y-66122535D01*
X86951859Y-66142302D01*
X87065241Y-66298359D01*
X87201641Y-66434759D01*
X87357698Y-66548141D01*
X87529571Y-66635715D01*
X87713028Y-66695324D01*
X87903551Y-66725500D01*
X87903552Y-66725500D01*
X88096448Y-66725500D01*
X88096449Y-66725500D01*
X88286972Y-66695324D01*
X88470429Y-66635715D01*
X88642302Y-66548141D01*
X88798359Y-66434759D01*
X88934759Y-66298359D01*
X89048141Y-66142302D01*
X89135715Y-65970429D01*
X89195324Y-65786972D01*
X89225500Y-65596449D01*
X89225500Y-65403551D01*
X89195324Y-65213028D01*
X89135715Y-65029571D01*
X89048141Y-64857698D01*
X88945895Y-64716968D01*
X88933040Y-64694754D01*
X88925657Y-64678261D01*
X88916233Y-64609030D01*
X88945734Y-64545694D01*
X89004349Y-64508490D01*
X89015055Y-64505390D01*
X89049536Y-64500500D01*
X91950225Y-64500500D01*
X91985154Y-64505521D01*
X91987289Y-64506147D01*
X91996154Y-64508751D01*
X92054933Y-64546522D01*
X92083961Y-64610076D01*
X92074208Y-64678822D01*
X92066883Y-64695020D01*
X92054218Y-64716811D01*
X92030702Y-64749179D01*
X92030701Y-64749181D01*
X91951859Y-64857696D01*
X91864287Y-65029565D01*
X91864286Y-65029567D01*
X91864286Y-65029568D01*
X91860280Y-65041896D01*
X91804674Y-65213032D01*
X91794324Y-65278381D01*
X91781347Y-65360318D01*
X91781306Y-65360577D01*
X91774500Y-65403547D01*
X91774500Y-65596447D01*
X91774499Y-65596447D01*
X91778515Y-65621798D01*
X91787721Y-65679921D01*
X91804657Y-65786858D01*
X91804675Y-65786968D01*
X91804682Y-65786998D01*
X91804830Y-65787446D01*
X91864286Y-65970433D01*
X91941787Y-66122535D01*
X91951859Y-66142302D01*
X92065241Y-66298359D01*
X92201641Y-66434759D01*
X92357698Y-66548141D01*
X92529571Y-66635715D01*
X92713028Y-66695324D01*
X92903551Y-66725500D01*
X92903552Y-66725500D01*
X93096448Y-66725500D01*
X93096449Y-66725500D01*
X93286972Y-66695324D01*
X93470429Y-66635715D01*
X93642302Y-66548141D01*
X93798359Y-66434759D01*
X93934759Y-66298359D01*
X94048141Y-66142302D01*
X94135715Y-65970429D01*
X94195324Y-65786972D01*
X94200483Y-65754400D01*
X94206850Y-65714202D01*
X94206850Y-65714200D01*
X94210885Y-65688727D01*
X94210885Y-65688725D01*
X94218237Y-65642308D01*
X94225500Y-65596453D01*
X94225500Y-65403547D01*
X94218694Y-65360579D01*
X94218694Y-65360578D01*
X94205675Y-65278381D01*
X94195324Y-65213028D01*
X94135715Y-65029571D01*
X94048141Y-64857698D01*
X93945895Y-64716968D01*
X93933040Y-64694754D01*
X93925657Y-64678261D01*
X93916233Y-64609030D01*
X93945734Y-64545694D01*
X94004349Y-64508490D01*
X94015055Y-64505390D01*
X94049536Y-64500500D01*
X96950883Y-64500500D01*
X96985814Y-64505522D01*
X96996802Y-64508748D01*
X97055581Y-64546520D01*
X97084608Y-64610075D01*
X97074841Y-64678852D01*
X97067548Y-64694967D01*
X97054896Y-64716726D01*
X96952290Y-64857952D01*
X96933484Y-64894861D01*
X96902265Y-64956131D01*
X96864744Y-65029768D01*
X96864736Y-65029792D01*
X96805164Y-65213138D01*
X96805164Y-65213141D01*
X96805164Y-65213144D01*
X96799327Y-65250000D01*
X97491277Y-65250000D01*
X97558316Y-65269685D01*
X97604071Y-65322489D01*
X97614015Y-65391647D01*
X97611052Y-65406088D01*
X97600000Y-65447339D01*
X97600000Y-65552661D01*
X97609248Y-65587177D01*
X97611052Y-65593907D01*
X97609389Y-65663757D01*
X97570226Y-65721619D01*
X97505998Y-65749123D01*
X97491277Y-65750000D01*
X96799327Y-65750000D01*
X96803637Y-65777213D01*
X96803638Y-65777221D01*
X96805164Y-65786861D01*
X96864736Y-65970206D01*
X96864744Y-65970230D01*
X96864745Y-65970233D01*
X96864746Y-65970234D01*
X96864747Y-65970237D01*
X96947368Y-66132387D01*
X96952290Y-66142046D01*
X97020070Y-66235338D01*
X97065616Y-66298027D01*
X97065620Y-66298032D01*
X97065625Y-66298038D01*
X97201960Y-66434373D01*
X97201964Y-66434376D01*
X97201967Y-66434379D01*
X97201972Y-66434383D01*
X97357956Y-66547711D01*
X97529762Y-66635252D01*
X97529765Y-66635253D01*
X97529767Y-66635253D01*
X97529768Y-66635254D01*
X97529776Y-66635257D01*
X97630407Y-66667953D01*
X97713142Y-66694835D01*
X97750000Y-66700673D01*
X97750000Y-66700672D01*
X97750000Y-66008722D01*
X97769685Y-65941683D01*
X97822489Y-65895928D01*
X97891647Y-65885984D01*
X97906082Y-65888945D01*
X97947339Y-65900000D01*
X98052659Y-65900000D01*
X98052661Y-65900000D01*
X98093907Y-65888948D01*
X98163755Y-65890609D01*
X98221618Y-65929771D01*
X98249123Y-65993999D01*
X98250000Y-66008722D01*
X98250000Y-66700671D01*
X98250000Y-66700672D01*
X98277215Y-66696361D01*
X98277221Y-66696361D01*
X98286855Y-66694835D01*
X98286858Y-66694835D01*
X98307306Y-66688191D01*
X98470223Y-66635257D01*
X98470227Y-66635255D01*
X98470234Y-66635253D01*
X98470237Y-66635252D01*
X98642043Y-66547711D01*
X98798027Y-66434383D01*
X98798032Y-66434379D01*
X98934379Y-66298032D01*
X98934383Y-66298027D01*
X99047711Y-66142043D01*
X99135252Y-65970237D01*
X99135253Y-65970234D01*
X99194835Y-65786858D01*
X99194835Y-65786855D01*
X99200673Y-65750000D01*
X98508723Y-65750000D01*
X98441684Y-65730315D01*
X98395929Y-65677511D01*
X98385985Y-65608353D01*
X98388948Y-65593907D01*
X98400000Y-65552661D01*
X98400000Y-65447339D01*
X98388948Y-65406092D01*
X98390611Y-65336243D01*
X98429774Y-65278381D01*
X98494002Y-65250877D01*
X98508723Y-65250000D01*
X99200673Y-65250000D01*
X99200673Y-65249999D01*
X99197252Y-65228405D01*
X99194835Y-65213144D01*
X99194835Y-65213141D01*
X99189368Y-65196315D01*
X99178044Y-65161462D01*
X115179000Y-65161462D01*
X115179000Y-65161469D01*
X115179000Y-65580000D01*
X115979000Y-65580000D01*
X116479000Y-65580000D01*
X117279000Y-65580000D01*
X117279000Y-65161458D01*
X117278953Y-65161066D01*
X117264351Y-65031460D01*
X117206669Y-64866613D01*
X117113753Y-64718737D01*
X116990262Y-64595246D01*
X116842386Y-64502330D01*
X116842385Y-64502329D01*
X116842384Y-64502329D01*
X116677536Y-64444647D01*
X116547536Y-64430000D01*
X116547530Y-64430000D01*
X116479000Y-64430000D01*
X116479000Y-65580000D01*
X115979000Y-65580000D01*
X115979000Y-64430000D01*
X115910462Y-64430000D01*
X115780462Y-64444647D01*
X115615614Y-64502329D01*
X115467736Y-64595246D01*
X115344246Y-64718736D01*
X115251329Y-64866614D01*
X115193647Y-65031462D01*
X115179000Y-65161462D01*
X99178044Y-65161462D01*
X99172755Y-65145185D01*
X99135262Y-65029792D01*
X99135254Y-65029768D01*
X99135253Y-65029767D01*
X99135253Y-65029765D01*
X99135252Y-65029762D01*
X99047711Y-64857956D01*
X99033102Y-64837848D01*
X98945210Y-64716873D01*
X98932383Y-64694722D01*
X98925033Y-64678330D01*
X98915570Y-64609107D01*
X98945035Y-64545754D01*
X99003664Y-64508507D01*
X99014377Y-64505402D01*
X99048896Y-64500500D01*
X101819375Y-64500500D01*
X101875502Y-64500507D01*
X101875509Y-64500507D01*
X101911753Y-64500511D01*
X101921376Y-64502055D01*
X101922442Y-64501895D01*
X101940915Y-64500514D01*
X101955617Y-64500516D01*
X101964082Y-64495894D01*
X101971959Y-64494445D01*
X102153638Y-64467110D01*
X102368206Y-64401045D01*
X102570556Y-64303791D01*
X102756183Y-64177512D01*
X102920955Y-64025019D01*
X102920961Y-64025012D01*
X102930253Y-64013393D01*
X102995159Y-63932244D01*
X102995169Y-63932227D01*
X103032231Y-63885902D01*
X103032231Y-63885901D01*
X103045407Y-63869432D01*
X103045407Y-63869431D01*
X103045423Y-63869412D01*
X103045428Y-63869405D01*
X103047484Y-63866834D01*
X103047489Y-63866826D01*
X103561730Y-63224028D01*
X103584105Y-63196058D01*
X103588554Y-63190806D01*
X103593189Y-63185636D01*
X103597945Y-63180619D01*
X103654861Y-63123856D01*
X103665198Y-63114642D01*
X103676027Y-63106026D01*
X103687334Y-63098021D01*
X103746564Y-63060884D01*
X103758680Y-63054202D01*
X103771170Y-63048199D01*
X103783942Y-63042919D01*
X103849952Y-63019865D01*
X103863260Y-63016037D01*
X103876742Y-63012965D01*
X103890417Y-63010645D01*
X103970275Y-63001663D01*
X103977200Y-63001081D01*
X103984119Y-63000694D01*
X103991044Y-63000500D01*
X120832072Y-63000500D01*
X120866999Y-63005521D01*
G37*
G04 #@! TD.AperFunction*
G04 #@! TA.AperFunction,Conductor*
G36*
X123676080Y-66593062D02*
G01*
X123720630Y-66605000D01*
X123819368Y-66605000D01*
X123819370Y-66605000D01*
X123863907Y-66593066D01*
X123933754Y-66594727D01*
X123991618Y-66633889D01*
X124019123Y-66698117D01*
X124020000Y-66712840D01*
X124020000Y-67024543D01*
X124018248Y-67045312D01*
X124015363Y-67062293D01*
X124014794Y-67065643D01*
X124009589Y-67085821D01*
X124007706Y-67091204D01*
X124004157Y-67101346D01*
X124004157Y-67101348D01*
X123989500Y-67231434D01*
X123989500Y-68568564D01*
X124004154Y-68698629D01*
X124004157Y-68698652D01*
X124004158Y-68698656D01*
X124004159Y-68698659D01*
X124015882Y-68732160D01*
X124056376Y-68847883D01*
X124061878Y-68863606D01*
X124154853Y-69011576D01*
X124278424Y-69135147D01*
X124351115Y-69180821D01*
X124378023Y-69203661D01*
X124385517Y-69212134D01*
X124415186Y-69275392D01*
X124405946Y-69344648D01*
X124360791Y-69397873D01*
X124359259Y-69398881D01*
X124309757Y-69417881D01*
X124309707Y-69417889D01*
X124291056Y-69419300D01*
X123448275Y-69419300D01*
X123413340Y-69414277D01*
X123402486Y-69411090D01*
X123343708Y-69373316D01*
X123314683Y-69309760D01*
X123324626Y-69240603D01*
X123326042Y-69237504D01*
X123364521Y-69189753D01*
X123407546Y-69157546D01*
X123493796Y-69042331D01*
X123544091Y-68907483D01*
X123550500Y-68847873D01*
X123550499Y-66952128D01*
X123544091Y-66892517D01*
X123541367Y-66885214D01*
X123539353Y-66879814D01*
X123532782Y-66862197D01*
X123531694Y-66859279D01*
X123525848Y-66837971D01*
X123521968Y-66816466D01*
X123520000Y-66794456D01*
X123520000Y-66712840D01*
X123539685Y-66645801D01*
X123592489Y-66600046D01*
X123661647Y-66590102D01*
X123676080Y-66593062D01*
G37*
G04 #@! TD.AperFunction*
G04 #@! TA.AperFunction,Conductor*
G36*
X116135080Y-66593062D02*
G01*
X116179630Y-66605000D01*
X116278368Y-66605000D01*
X116278370Y-66605000D01*
X116322907Y-66593066D01*
X116392754Y-66594727D01*
X116450618Y-66633889D01*
X116478123Y-66698117D01*
X116479000Y-66712840D01*
X116479000Y-67024543D01*
X116477248Y-67045312D01*
X116474363Y-67062293D01*
X116473794Y-67065643D01*
X116471500Y-67070343D01*
X116468588Y-67085823D01*
X116466706Y-67091204D01*
X116463157Y-67101347D01*
X116461580Y-67115342D01*
X116452697Y-67149446D01*
X116247836Y-67637531D01*
X116203740Y-67691728D01*
X116137343Y-67713481D01*
X116069726Y-67695885D01*
X116022356Y-67644524D01*
X116009499Y-67589541D01*
X116009499Y-66952122D01*
X116009339Y-66950197D01*
X116009112Y-66948538D01*
X116003091Y-66892517D01*
X115998353Y-66879814D01*
X115991782Y-66862197D01*
X115990694Y-66859279D01*
X115984848Y-66837971D01*
X115980968Y-66816466D01*
X115979000Y-66794456D01*
X115979000Y-66712840D01*
X115998685Y-66645801D01*
X116051489Y-66600046D01*
X116120647Y-66590102D01*
X116135080Y-66593062D01*
G37*
G04 #@! TD.AperFunction*
G04 #@! TA.AperFunction,Conductor*
G36*
X118258529Y-66603859D02*
G01*
X118262062Y-66606283D01*
X118392879Y-66737100D01*
X118396306Y-66745373D01*
X118395634Y-66749280D01*
X118053109Y-67716215D01*
X118047117Y-67722869D01*
X118038174Y-67723336D01*
X118037620Y-67723124D01*
X117502072Y-67502265D01*
X117496306Y-67497131D01*
X117227014Y-67012455D01*
X117225991Y-67003559D01*
X117231559Y-66996546D01*
X117233017Y-66995862D01*
X118249577Y-66603640D01*
X118258529Y-66603859D01*
G37*
G04 #@! TD.AperFunction*
G04 #@! TA.AperFunction,Conductor*
G36*
X121215393Y-71705622D02*
G01*
X122780190Y-72277192D01*
X122786785Y-72283250D01*
X122787876Y-72288182D01*
X122787876Y-72473205D01*
X122784449Y-72481478D01*
X122781974Y-72483367D01*
X121779695Y-73055217D01*
X121770811Y-73056341D01*
X121765024Y-73052681D01*
X121189787Y-72383387D01*
X121186962Y-72375535D01*
X121188860Y-72277192D01*
X121199683Y-71716385D01*
X121203269Y-71708182D01*
X121211607Y-71704915D01*
X121215393Y-71705622D01*
G37*
G04 #@! TD.AperFunction*
G04 #@! TA.AperFunction,Conductor*
G36*
X123675349Y-71772492D02*
G01*
X124001353Y-72374428D01*
X124002280Y-72383335D01*
X124001353Y-72385572D01*
X123675349Y-72987507D01*
X123668396Y-72993150D01*
X123659955Y-72992462D01*
X122609965Y-72483198D01*
X122604017Y-72476504D01*
X122603371Y-72472671D01*
X122603371Y-72287328D01*
X122606798Y-72279055D01*
X122609961Y-72276803D01*
X123659956Y-71767536D01*
X123668894Y-71767010D01*
X123675349Y-71772492D01*
G37*
G04 #@! TD.AperFunction*
G04 #@! TA.AperFunction,Conductor*
G36*
X147743796Y-77597890D02*
G01*
X149704888Y-78296677D01*
X149711531Y-78302682D01*
X149712480Y-78309746D01*
X149502136Y-79492665D01*
X149497314Y-79500211D01*
X149492665Y-79502136D01*
X148309746Y-79712480D01*
X148301001Y-79710555D01*
X148296677Y-79704888D01*
X147597890Y-77743796D01*
X147598341Y-77734853D01*
X147600635Y-77731599D01*
X147731597Y-77600637D01*
X147739869Y-77597211D01*
X147743796Y-77597890D01*
G37*
G04 #@! TD.AperFunction*
G04 #@! TA.AperFunction,Conductor*
G36*
X109639996Y-69303565D02*
G01*
X109643064Y-69305770D01*
X109774229Y-69436935D01*
X109777656Y-69445208D01*
X109777046Y-69448937D01*
X109349151Y-70721521D01*
X109343266Y-70728270D01*
X109334724Y-70729006D01*
X108582639Y-70505237D01*
X108575687Y-70499593D01*
X108574764Y-70497365D01*
X108350993Y-69745274D01*
X108351918Y-69736368D01*
X108358477Y-69730848D01*
X109631062Y-69302953D01*
X109639996Y-69303565D01*
G37*
G04 #@! TD.AperFunction*
G04 #@! TA.AperFunction,Conductor*
G36*
X132337085Y-65995035D02*
G01*
X132344037Y-66000678D01*
X132344964Y-66002915D01*
X132545809Y-66678251D01*
X132544882Y-66687158D01*
X132538404Y-66692648D01*
X131401840Y-67084111D01*
X131392902Y-67083565D01*
X131389757Y-67081322D01*
X131258677Y-66950242D01*
X131255250Y-66941969D01*
X131255888Y-66938159D01*
X131341706Y-66688997D01*
X131647352Y-65801593D01*
X131653285Y-65794889D01*
X131661746Y-65794190D01*
X132337085Y-65995035D01*
G37*
G04 #@! TD.AperFunction*
M02*
