G04 #@! TF.GenerationSoftware,KiCad,Pcbnew,10.0.5-71-g2cb2c974e9*
G04 #@! TF.CreationDate,2026-08-27T22:08:04-04:00*
G04 #@! TF.ProjectId,Fury-Taur,46757279-2d54-4617-9572-2e6b69636164,rev?*
G04 #@! TF.SameCoordinates,Original*
G04 #@! TF.FileFunction,Legend,Top*
G04 #@! TF.FilePolarity,Positive*
%FSLAX46Y46*%
G04 Gerber Fmt 4.6, Leading zero omitted, Abs format (unit mm)*
G04 Created by KiCad (PCBNEW 10.0.5-71-g2cb2c974e9) date 2026-08-27 22:08:04*
%MOMM*%
%LPD*%
G01*
G04 APERTURE LIST*
G04 Aperture macros list*
%AMRoundRect*
0 Rectangle with rounded corners*
0 $1 Rounding radius*
0 $2 $3 $4 $5 $6 $7 $8 $9 X,Y pos of 4 corners*
0 Add a 4 corners polygon primitive as box body*
4,1,4,$2,$3,$4,$5,$6,$7,$8,$9,$2,$3,0*
0 Add four circle primitives for the rounded corners*
1,1,$1+$1,$2,$3*
1,1,$1+$1,$4,$5*
1,1,$1+$1,$6,$7*
1,1,$1+$1,$8,$9*
0 Add four rect primitives between the rounded corners*
20,1,$1+$1,$2,$3,$4,$5,0*
20,1,$1+$1,$4,$5,$6,$7,0*
20,1,$1+$1,$6,$7,$8,$9,0*
20,1,$1+$1,$8,$9,$2,$3,0*%
G04 Aperture macros list end*
%ADD10C,0.100000*%
%ADD11C,0.300000*%
%ADD12C,0.108000*%
%ADD13C,0.150000*%
%ADD14C,0.120000*%
%ADD15C,1.440000*%
%ADD16C,1.600000*%
%ADD17C,2.400000*%
%ADD18RoundRect,0.250001X-0.949999X0.949999X-0.949999X-0.949999X0.949999X-0.949999X0.949999X0.949999X0*%
%ADD19RoundRect,0.250000X-0.600000X-0.600000X0.600000X-0.600000X0.600000X0.600000X-0.600000X0.600000X0*%
%ADD20C,1.648000*%
%ADD21RoundRect,0.250000X-0.550000X0.550000X-0.550000X-0.550000X0.550000X-0.550000X0.550000X0.550000X0*%
%ADD22O,3.000000X1.200000*%
%ADD23R,1.100000X1.800000*%
%ADD24RoundRect,0.275000X-0.275000X-0.625000X0.275000X-0.625000X0.275000X0.625000X-0.275000X0.625000X0*%
%ADD25C,1.400000*%
%ADD26C,1.450000*%
%ADD27RoundRect,0.250001X0.949999X-0.949999X0.949999X0.949999X-0.949999X0.949999X-0.949999X-0.949999X0*%
%ADD28RoundRect,0.249999X0.850001X-0.850001X0.850001X0.850001X-0.850001X0.850001X-0.850001X-0.850001X0*%
%ADD29C,2.200000*%
%ADD30O,2.200000X3.500000*%
%ADD31R,1.500000X2.500000*%
%ADD32O,1.500000X2.500000*%
%ADD33O,1.200000X3.200000*%
%ADD34RoundRect,0.249999X-0.850001X0.850001X-0.850001X-0.850001X0.850001X-0.850001X0.850001X0.850001X0*%
G04 APERTURE END LIST*
D10*
X86500000Y-70000000D02*
X99500000Y-70000000D01*
X99500000Y-85000000D01*
X86500000Y-85000000D01*
X86500000Y-70000000D01*
X108843884Y-84076466D02*
X109605789Y-84076466D01*
X109224836Y-84457419D02*
X109224836Y-83695514D01*
G36*
X149822749Y-87509553D02*
G01*
X149822749Y-87400132D01*
X150096301Y-87400132D01*
X150096301Y-87110949D01*
X150213538Y-87110949D01*
X150213538Y-87400132D01*
X150490998Y-87400132D01*
X150490998Y-87509553D01*
X150213538Y-87509553D01*
X150213538Y-87798736D01*
X150096301Y-87798736D01*
X150096301Y-87509553D01*
X149822749Y-87509553D01*
G37*
G36*
X151018378Y-86858501D02*
G01*
X151076471Y-86874083D01*
X151126742Y-86899105D01*
X151170450Y-86933705D01*
X151208339Y-86978813D01*
X151243821Y-87042597D01*
X151271007Y-87121401D01*
X151288741Y-87218240D01*
X151295167Y-87336629D01*
X151288540Y-87463186D01*
X151270300Y-87566261D01*
X151242444Y-87649692D01*
X151206263Y-87716793D01*
X151167170Y-87764897D01*
X151122694Y-87801466D01*
X151072191Y-87827680D01*
X151014488Y-87843880D01*
X150947976Y-87849539D01*
X150882472Y-87845038D01*
X150824084Y-87832076D01*
X150770561Y-87810299D01*
X150726082Y-87781151D01*
X150688910Y-87744076D01*
X150659586Y-87699452D01*
X150639524Y-87648754D01*
X150628812Y-87589726D01*
X150760520Y-87589726D01*
X150772738Y-87637920D01*
X150792629Y-87675579D01*
X150819932Y-87704764D01*
X150854067Y-87726071D01*
X150894803Y-87739330D01*
X150943824Y-87744026D01*
X150995277Y-87738034D01*
X151038511Y-87720870D01*
X151075403Y-87692527D01*
X151106917Y-87651397D01*
X151129425Y-87604903D01*
X151146758Y-87547774D01*
X151158079Y-87477986D01*
X151162177Y-87393232D01*
X151162177Y-87338522D01*
X151127550Y-87386744D01*
X151087684Y-87423063D01*
X151042049Y-87448937D01*
X150989498Y-87464893D01*
X150928376Y-87470474D01*
X150861825Y-87464906D01*
X150803079Y-87448859D01*
X150749915Y-87422440D01*
X150705077Y-87387370D01*
X150668742Y-87343672D01*
X150641390Y-87290956D01*
X150624807Y-87231995D01*
X150618981Y-87163155D01*
X150747941Y-87163155D01*
X150751515Y-87205195D01*
X150761924Y-87243206D01*
X150778895Y-87277856D01*
X150801125Y-87307198D01*
X150828514Y-87331321D01*
X150860598Y-87349635D01*
X150896315Y-87361024D01*
X150936924Y-87364961D01*
X150979087Y-87361056D01*
X151017341Y-87349635D01*
X151052214Y-87331387D01*
X151081699Y-87307869D01*
X151105890Y-87279023D01*
X151124381Y-87244610D01*
X151135880Y-87206719D01*
X151139768Y-87165964D01*
X151135804Y-87121494D01*
X151124381Y-87082433D01*
X151106058Y-87047056D01*
X151082432Y-87017037D01*
X151053502Y-86992394D01*
X151019417Y-86973867D01*
X150981924Y-86962429D01*
X150941076Y-86958541D01*
X150900323Y-86962444D01*
X150863407Y-86973867D01*
X150830013Y-86992245D01*
X150801797Y-87016366D01*
X150779084Y-87045827D01*
X150761924Y-87081090D01*
X150751528Y-87119853D01*
X150747941Y-87163155D01*
X150618981Y-87163155D01*
X150625607Y-87096947D01*
X150644871Y-87038164D01*
X150675587Y-86985277D01*
X150715579Y-86940345D01*
X150763881Y-86903900D01*
X150820604Y-86876109D01*
X150882602Y-86858914D01*
X150950785Y-86853028D01*
X151018378Y-86858501D01*
G37*
G36*
X151363189Y-86813949D02*
G01*
X151515780Y-86813949D01*
X151736942Y-87468948D01*
X151769182Y-87573239D01*
X151801361Y-87678874D01*
X151809787Y-87678874D01*
X151819557Y-87650908D01*
X151830792Y-87614455D01*
X151847584Y-87555715D01*
X151875550Y-87468948D01*
X152103794Y-86813949D01*
X152242341Y-86813949D01*
X151872802Y-87830000D01*
X151721554Y-87830000D01*
X151363189Y-86813949D01*
G37*
D11*
G36*
X101764678Y-64715062D02*
G01*
X102734810Y-64715062D01*
X102734810Y-64890917D01*
X101975704Y-64890917D01*
X101975704Y-65400896D01*
X102684985Y-65400896D01*
X102684985Y-65576751D01*
X101975704Y-65576751D01*
X101975704Y-66245000D01*
X101764678Y-66245000D01*
X101764678Y-64715062D01*
G37*
G36*
X103679572Y-66112834D02*
G01*
X103645916Y-66151644D01*
X103605567Y-66186015D01*
X103561208Y-66214579D01*
X103516815Y-66235749D01*
X103425957Y-66261028D01*
X103340502Y-66268447D01*
X103245975Y-66261524D01*
X103173184Y-66242801D01*
X103117569Y-66214408D01*
X103068693Y-66174611D01*
X103028339Y-66127830D01*
X102995937Y-66073358D01*
X102974636Y-66014749D01*
X102964154Y-65942199D01*
X102959941Y-65788326D01*
X102959941Y-65154699D01*
X103156862Y-65154699D01*
X103156862Y-65769642D01*
X103163090Y-65893198D01*
X103174031Y-65951512D01*
X103193224Y-66001642D01*
X103222149Y-66044922D01*
X103261367Y-66079403D01*
X103311043Y-66101217D01*
X103382451Y-66109445D01*
X103448437Y-66103213D01*
X103504123Y-66085511D01*
X103551554Y-66056933D01*
X103592103Y-66016846D01*
X103630763Y-65950589D01*
X103656911Y-65857092D01*
X103666841Y-65727602D01*
X103666841Y-65154699D01*
X103866143Y-65154699D01*
X103866143Y-66245000D01*
X103679572Y-66245000D01*
X103679572Y-66112834D01*
G37*
G36*
X104367055Y-65154699D02*
G01*
X104367055Y-65309946D01*
X104409768Y-65252501D01*
X104454495Y-65210118D01*
X104501511Y-65180528D01*
X104580871Y-65152519D01*
X104668939Y-65142976D01*
X104730302Y-65146001D01*
X104793778Y-65155249D01*
X104793778Y-65334035D01*
X104723253Y-65323044D01*
X104662619Y-65318831D01*
X104580109Y-65327007D01*
X104520012Y-65348872D01*
X104471041Y-65385022D01*
X104433825Y-65433777D01*
X104408006Y-65492749D01*
X104390136Y-65567958D01*
X104380896Y-65649567D01*
X104377588Y-65745462D01*
X104377588Y-66245000D01*
X104178286Y-66245000D01*
X104178286Y-65154699D01*
X104367055Y-65154699D01*
G37*
G36*
X104851755Y-65157630D02*
G01*
X105072214Y-65157630D01*
X105261900Y-65700033D01*
X105319694Y-65885596D01*
X105372633Y-66068870D01*
X105378770Y-66068870D01*
X105434824Y-65884405D01*
X105493717Y-65700124D01*
X105685417Y-65157630D01*
X105887100Y-65157630D01*
X105482359Y-66241885D01*
X105446804Y-66339432D01*
X105410827Y-66422228D01*
X105368814Y-66497429D01*
X105322166Y-66557875D01*
X105267526Y-66607483D01*
X105206762Y-66643329D01*
X105138810Y-66665189D01*
X105057560Y-66672913D01*
X104997476Y-66672913D01*
X104928600Y-66663845D01*
X104928600Y-66495409D01*
X104981051Y-66505684D01*
X105023946Y-66508782D01*
X105075353Y-66503846D01*
X105116087Y-66490189D01*
X105151805Y-66468231D01*
X105182399Y-66439539D01*
X105207948Y-66404967D01*
X105230209Y-66362694D01*
X105264464Y-66264692D01*
X104851755Y-65157630D01*
G37*
G36*
X105983729Y-65559166D02*
G01*
X106546464Y-65559166D01*
X106546464Y-65735020D01*
X105983729Y-65735020D01*
X105983729Y-65559166D01*
G37*
G36*
X106956792Y-64890917D02*
G01*
X106452675Y-64890917D01*
X106452675Y-64715062D01*
X107671935Y-64715062D01*
X107671935Y-64890917D01*
X107167818Y-64890917D01*
X107167818Y-66245000D01*
X106956792Y-66245000D01*
X106956792Y-64890917D01*
G37*
G36*
X108151265Y-65131434D02*
G01*
X108229933Y-65147678D01*
X108289717Y-65171919D01*
X108344118Y-65206881D01*
X108386686Y-65246322D01*
X108418952Y-65290437D01*
X108452952Y-65365796D01*
X108470793Y-65449897D01*
X108480318Y-65619341D01*
X108480318Y-65915180D01*
X108485539Y-66089020D01*
X108493914Y-66168026D01*
X108508345Y-66245366D01*
X108321682Y-66245366D01*
X108311333Y-66185099D01*
X108306478Y-66104316D01*
X108259652Y-66157192D01*
X108207927Y-66198550D01*
X108150773Y-66229429D01*
X108055240Y-66258252D01*
X107941396Y-66268447D01*
X107850123Y-66261899D01*
X107774672Y-66243634D01*
X107712255Y-66215049D01*
X107660670Y-66176581D01*
X107617680Y-66127473D01*
X107587191Y-66072367D01*
X107568513Y-66010054D01*
X107562376Y-65942657D01*
X107761328Y-65942657D01*
X107767990Y-65992106D01*
X107787391Y-66034424D01*
X107820313Y-66071434D01*
X107862387Y-66098429D01*
X107915705Y-66115653D01*
X107983345Y-66121901D01*
X108041056Y-66118244D01*
X108095910Y-66107430D01*
X108146846Y-66086979D01*
X108191531Y-66054673D01*
X108227920Y-66010703D01*
X108258027Y-65948886D01*
X108276121Y-65876156D01*
X108283031Y-65775229D01*
X108283031Y-65717893D01*
X108135020Y-65731082D01*
X108045943Y-65740291D01*
X107961088Y-65757185D01*
X107882161Y-65784085D01*
X107819305Y-65820292D01*
X107787387Y-65852243D01*
X107768139Y-65892175D01*
X107761328Y-65942657D01*
X107562376Y-65942657D01*
X107562026Y-65938811D01*
X107571323Y-65854811D01*
X107597014Y-65789700D01*
X107637756Y-65734694D01*
X107690070Y-65690324D01*
X107751572Y-65655926D01*
X107823885Y-65629141D01*
X107979498Y-65595436D01*
X108138958Y-65577667D01*
X108283031Y-65563287D01*
X108283031Y-65528208D01*
X108276053Y-65449758D01*
X108257032Y-65389290D01*
X108227618Y-65342827D01*
X108186188Y-65308408D01*
X108128500Y-65286115D01*
X108049016Y-65277798D01*
X107976613Y-65284455D01*
X107917859Y-65303031D01*
X107869955Y-65332478D01*
X107833457Y-65373436D01*
X107810642Y-65427125D01*
X107802361Y-65497616D01*
X107603059Y-65497616D01*
X107611567Y-65413358D01*
X107635848Y-65341912D01*
X107675269Y-65278983D01*
X107727897Y-65226140D01*
X107791670Y-65184198D01*
X107868490Y-65151860D01*
X107952688Y-65132251D01*
X108049016Y-65125390D01*
X108151265Y-65131434D01*
G37*
G36*
X109494506Y-66112834D02*
G01*
X109460850Y-66151644D01*
X109420500Y-66186015D01*
X109376141Y-66214579D01*
X109331749Y-66235749D01*
X109240890Y-66261028D01*
X109155436Y-66268447D01*
X109060908Y-66261524D01*
X108988118Y-66242801D01*
X108932503Y-66214408D01*
X108883627Y-66174611D01*
X108843273Y-66127830D01*
X108810870Y-66073358D01*
X108789569Y-66014749D01*
X108779088Y-65942199D01*
X108774875Y-65788326D01*
X108774875Y-65154699D01*
X108971796Y-65154699D01*
X108971796Y-65769642D01*
X108978024Y-65893198D01*
X108988965Y-65951512D01*
X109008157Y-66001642D01*
X109037083Y-66044922D01*
X109076301Y-66079403D01*
X109125977Y-66101217D01*
X109197385Y-66109445D01*
X109263371Y-66103213D01*
X109319056Y-66085511D01*
X109366488Y-66056933D01*
X109407037Y-66016846D01*
X109445697Y-65950589D01*
X109471845Y-65857092D01*
X109481775Y-65727602D01*
X109481775Y-65154699D01*
X109681077Y-65154699D01*
X109681077Y-66245000D01*
X109494506Y-66245000D01*
X109494506Y-66112834D01*
G37*
G36*
X110181989Y-65154699D02*
G01*
X110181989Y-65309946D01*
X110224702Y-65252501D01*
X110269428Y-65210118D01*
X110316444Y-65180528D01*
X110395805Y-65152519D01*
X110483873Y-65142976D01*
X110545235Y-65146001D01*
X110608711Y-65155249D01*
X110608711Y-65334035D01*
X110538186Y-65323044D01*
X110477553Y-65318831D01*
X110395043Y-65327007D01*
X110334946Y-65348872D01*
X110285974Y-65385022D01*
X110248758Y-65433777D01*
X110222940Y-65492749D01*
X110205069Y-65567958D01*
X110195829Y-65649567D01*
X110192522Y-65745462D01*
X110192522Y-66245000D01*
X109993219Y-66245000D01*
X109993219Y-65154699D01*
X110181989Y-65154699D01*
G37*
D12*
X138974286Y-68327469D02*
X138562857Y-68327469D01*
X138768572Y-68327469D02*
X138768572Y-67607469D01*
X138768572Y-67607469D02*
X138700000Y-67710326D01*
X138700000Y-67710326D02*
X138631429Y-67778898D01*
X138631429Y-67778898D02*
X138562857Y-67813184D01*
X139420000Y-67607469D02*
X139488571Y-67607469D01*
X139488571Y-67607469D02*
X139557143Y-67641755D01*
X139557143Y-67641755D02*
X139591429Y-67676041D01*
X139591429Y-67676041D02*
X139625714Y-67744612D01*
X139625714Y-67744612D02*
X139660000Y-67881755D01*
X139660000Y-67881755D02*
X139660000Y-68053184D01*
X139660000Y-68053184D02*
X139625714Y-68190326D01*
X139625714Y-68190326D02*
X139591429Y-68258898D01*
X139591429Y-68258898D02*
X139557143Y-68293184D01*
X139557143Y-68293184D02*
X139488571Y-68327469D01*
X139488571Y-68327469D02*
X139420000Y-68327469D01*
X139420000Y-68327469D02*
X139351429Y-68293184D01*
X139351429Y-68293184D02*
X139317143Y-68258898D01*
X139317143Y-68258898D02*
X139282857Y-68190326D01*
X139282857Y-68190326D02*
X139248571Y-68053184D01*
X139248571Y-68053184D02*
X139248571Y-67881755D01*
X139248571Y-67881755D02*
X139282857Y-67744612D01*
X139282857Y-67744612D02*
X139317143Y-67676041D01*
X139317143Y-67676041D02*
X139351429Y-67641755D01*
X139351429Y-67641755D02*
X139420000Y-67607469D01*
X140105714Y-67607469D02*
X140174285Y-67607469D01*
X140174285Y-67607469D02*
X140242857Y-67641755D01*
X140242857Y-67641755D02*
X140277143Y-67676041D01*
X140277143Y-67676041D02*
X140311428Y-67744612D01*
X140311428Y-67744612D02*
X140345714Y-67881755D01*
X140345714Y-67881755D02*
X140345714Y-68053184D01*
X140345714Y-68053184D02*
X140311428Y-68190326D01*
X140311428Y-68190326D02*
X140277143Y-68258898D01*
X140277143Y-68258898D02*
X140242857Y-68293184D01*
X140242857Y-68293184D02*
X140174285Y-68327469D01*
X140174285Y-68327469D02*
X140105714Y-68327469D01*
X140105714Y-68327469D02*
X140037143Y-68293184D01*
X140037143Y-68293184D02*
X140002857Y-68258898D01*
X140002857Y-68258898D02*
X139968571Y-68190326D01*
X139968571Y-68190326D02*
X139934285Y-68053184D01*
X139934285Y-68053184D02*
X139934285Y-67881755D01*
X139934285Y-67881755D02*
X139968571Y-67744612D01*
X139968571Y-67744612D02*
X140002857Y-67676041D01*
X140002857Y-67676041D02*
X140037143Y-67641755D01*
X140037143Y-67641755D02*
X140105714Y-67607469D01*
X141202856Y-68327469D02*
X141202856Y-67607469D01*
X141614285Y-68327469D02*
X141305713Y-67916041D01*
X141614285Y-67607469D02*
X141202856Y-68018898D01*
X141888570Y-68327469D02*
X142059999Y-68327469D01*
X142059999Y-68327469D02*
X142059999Y-68190326D01*
X142059999Y-68190326D02*
X141991428Y-68156041D01*
X141991428Y-68156041D02*
X141922856Y-68087469D01*
X141922856Y-68087469D02*
X141888570Y-67984612D01*
X141888570Y-67984612D02*
X141888570Y-67813184D01*
X141888570Y-67813184D02*
X141922856Y-67710326D01*
X141922856Y-67710326D02*
X141991428Y-67641755D01*
X141991428Y-67641755D02*
X142094285Y-67607469D01*
X142094285Y-67607469D02*
X142231428Y-67607469D01*
X142231428Y-67607469D02*
X142334285Y-67641755D01*
X142334285Y-67641755D02*
X142402856Y-67710326D01*
X142402856Y-67710326D02*
X142437142Y-67813184D01*
X142437142Y-67813184D02*
X142437142Y-67984612D01*
X142437142Y-67984612D02*
X142402856Y-68087469D01*
X142402856Y-68087469D02*
X142334285Y-68156041D01*
X142334285Y-68156041D02*
X142265713Y-68190326D01*
X142265713Y-68190326D02*
X142265713Y-68327469D01*
X142265713Y-68327469D02*
X142437142Y-68327469D01*
D13*
X123947833Y-69859580D02*
X123900214Y-69907200D01*
X123900214Y-69907200D02*
X123757357Y-69954819D01*
X123757357Y-69954819D02*
X123662119Y-69954819D01*
X123662119Y-69954819D02*
X123519262Y-69907200D01*
X123519262Y-69907200D02*
X123424024Y-69811961D01*
X123424024Y-69811961D02*
X123376405Y-69716723D01*
X123376405Y-69716723D02*
X123328786Y-69526247D01*
X123328786Y-69526247D02*
X123328786Y-69383390D01*
X123328786Y-69383390D02*
X123376405Y-69192914D01*
X123376405Y-69192914D02*
X123424024Y-69097676D01*
X123424024Y-69097676D02*
X123519262Y-69002438D01*
X123519262Y-69002438D02*
X123662119Y-68954819D01*
X123662119Y-68954819D02*
X123757357Y-68954819D01*
X123757357Y-68954819D02*
X123900214Y-69002438D01*
X123900214Y-69002438D02*
X123947833Y-69050057D01*
X124804976Y-69288152D02*
X124804976Y-69954819D01*
X124566881Y-68907200D02*
X124328786Y-69621485D01*
X124328786Y-69621485D02*
X124947833Y-69621485D01*
D12*
X123000214Y-67327469D02*
X122588785Y-67327469D01*
X122794500Y-67327469D02*
X122794500Y-66607469D01*
X122794500Y-66607469D02*
X122725928Y-66710326D01*
X122725928Y-66710326D02*
X122657357Y-66778898D01*
X122657357Y-66778898D02*
X122588785Y-66813184D01*
X123445928Y-66607469D02*
X123514499Y-66607469D01*
X123514499Y-66607469D02*
X123583071Y-66641755D01*
X123583071Y-66641755D02*
X123617357Y-66676041D01*
X123617357Y-66676041D02*
X123651642Y-66744612D01*
X123651642Y-66744612D02*
X123685928Y-66881755D01*
X123685928Y-66881755D02*
X123685928Y-67053184D01*
X123685928Y-67053184D02*
X123651642Y-67190326D01*
X123651642Y-67190326D02*
X123617357Y-67258898D01*
X123617357Y-67258898D02*
X123583071Y-67293184D01*
X123583071Y-67293184D02*
X123514499Y-67327469D01*
X123514499Y-67327469D02*
X123445928Y-67327469D01*
X123445928Y-67327469D02*
X123377357Y-67293184D01*
X123377357Y-67293184D02*
X123343071Y-67258898D01*
X123343071Y-67258898D02*
X123308785Y-67190326D01*
X123308785Y-67190326D02*
X123274499Y-67053184D01*
X123274499Y-67053184D02*
X123274499Y-66881755D01*
X123274499Y-66881755D02*
X123308785Y-66744612D01*
X123308785Y-66744612D02*
X123343071Y-66676041D01*
X123343071Y-66676041D02*
X123377357Y-66641755D01*
X123377357Y-66641755D02*
X123445928Y-66607469D01*
X124131642Y-66607469D02*
X124200213Y-66607469D01*
X124200213Y-66607469D02*
X124268785Y-66641755D01*
X124268785Y-66641755D02*
X124303071Y-66676041D01*
X124303071Y-66676041D02*
X124337356Y-66744612D01*
X124337356Y-66744612D02*
X124371642Y-66881755D01*
X124371642Y-66881755D02*
X124371642Y-67053184D01*
X124371642Y-67053184D02*
X124337356Y-67190326D01*
X124337356Y-67190326D02*
X124303071Y-67258898D01*
X124303071Y-67258898D02*
X124268785Y-67293184D01*
X124268785Y-67293184D02*
X124200213Y-67327469D01*
X124200213Y-67327469D02*
X124131642Y-67327469D01*
X124131642Y-67327469D02*
X124063071Y-67293184D01*
X124063071Y-67293184D02*
X124028785Y-67258898D01*
X124028785Y-67258898D02*
X123994499Y-67190326D01*
X123994499Y-67190326D02*
X123960213Y-67053184D01*
X123960213Y-67053184D02*
X123960213Y-66881755D01*
X123960213Y-66881755D02*
X123994499Y-66744612D01*
X123994499Y-66744612D02*
X124028785Y-66676041D01*
X124028785Y-66676041D02*
X124063071Y-66641755D01*
X124063071Y-66641755D02*
X124131642Y-66607469D01*
X124680213Y-66847469D02*
X124680213Y-67327469D01*
X124680213Y-66916041D02*
X124714499Y-66881755D01*
X124714499Y-66881755D02*
X124783070Y-66847469D01*
X124783070Y-66847469D02*
X124885927Y-66847469D01*
X124885927Y-66847469D02*
X124954499Y-66881755D01*
X124954499Y-66881755D02*
X124988785Y-66950326D01*
X124988785Y-66950326D02*
X124988785Y-67327469D01*
X125571642Y-66950326D02*
X125331642Y-66950326D01*
X125331642Y-67327469D02*
X125331642Y-66607469D01*
X125331642Y-66607469D02*
X125674499Y-66607469D01*
X149514286Y-68327469D02*
X149102857Y-68327469D01*
X149308572Y-68327469D02*
X149308572Y-67607469D01*
X149308572Y-67607469D02*
X149240000Y-67710326D01*
X149240000Y-67710326D02*
X149171429Y-67778898D01*
X149171429Y-67778898D02*
X149102857Y-67813184D01*
X149960000Y-67607469D02*
X150028571Y-67607469D01*
X150028571Y-67607469D02*
X150097143Y-67641755D01*
X150097143Y-67641755D02*
X150131429Y-67676041D01*
X150131429Y-67676041D02*
X150165714Y-67744612D01*
X150165714Y-67744612D02*
X150200000Y-67881755D01*
X150200000Y-67881755D02*
X150200000Y-68053184D01*
X150200000Y-68053184D02*
X150165714Y-68190326D01*
X150165714Y-68190326D02*
X150131429Y-68258898D01*
X150131429Y-68258898D02*
X150097143Y-68293184D01*
X150097143Y-68293184D02*
X150028571Y-68327469D01*
X150028571Y-68327469D02*
X149960000Y-68327469D01*
X149960000Y-68327469D02*
X149891429Y-68293184D01*
X149891429Y-68293184D02*
X149857143Y-68258898D01*
X149857143Y-68258898D02*
X149822857Y-68190326D01*
X149822857Y-68190326D02*
X149788571Y-68053184D01*
X149788571Y-68053184D02*
X149788571Y-67881755D01*
X149788571Y-67881755D02*
X149822857Y-67744612D01*
X149822857Y-67744612D02*
X149857143Y-67676041D01*
X149857143Y-67676041D02*
X149891429Y-67641755D01*
X149891429Y-67641755D02*
X149960000Y-67607469D01*
X150645714Y-67607469D02*
X150714285Y-67607469D01*
X150714285Y-67607469D02*
X150782857Y-67641755D01*
X150782857Y-67641755D02*
X150817143Y-67676041D01*
X150817143Y-67676041D02*
X150851428Y-67744612D01*
X150851428Y-67744612D02*
X150885714Y-67881755D01*
X150885714Y-67881755D02*
X150885714Y-68053184D01*
X150885714Y-68053184D02*
X150851428Y-68190326D01*
X150851428Y-68190326D02*
X150817143Y-68258898D01*
X150817143Y-68258898D02*
X150782857Y-68293184D01*
X150782857Y-68293184D02*
X150714285Y-68327469D01*
X150714285Y-68327469D02*
X150645714Y-68327469D01*
X150645714Y-68327469D02*
X150577143Y-68293184D01*
X150577143Y-68293184D02*
X150542857Y-68258898D01*
X150542857Y-68258898D02*
X150508571Y-68190326D01*
X150508571Y-68190326D02*
X150474285Y-68053184D01*
X150474285Y-68053184D02*
X150474285Y-67881755D01*
X150474285Y-67881755D02*
X150508571Y-67744612D01*
X150508571Y-67744612D02*
X150542857Y-67676041D01*
X150542857Y-67676041D02*
X150577143Y-67641755D01*
X150577143Y-67641755D02*
X150645714Y-67607469D01*
X151742856Y-68327469D02*
X151742856Y-67607469D01*
X152154285Y-68327469D02*
X151845713Y-67916041D01*
X152154285Y-67607469D02*
X151742856Y-68018898D01*
X152428570Y-68327469D02*
X152599999Y-68327469D01*
X152599999Y-68327469D02*
X152599999Y-68190326D01*
X152599999Y-68190326D02*
X152531428Y-68156041D01*
X152531428Y-68156041D02*
X152462856Y-68087469D01*
X152462856Y-68087469D02*
X152428570Y-67984612D01*
X152428570Y-67984612D02*
X152428570Y-67813184D01*
X152428570Y-67813184D02*
X152462856Y-67710326D01*
X152462856Y-67710326D02*
X152531428Y-67641755D01*
X152531428Y-67641755D02*
X152634285Y-67607469D01*
X152634285Y-67607469D02*
X152771428Y-67607469D01*
X152771428Y-67607469D02*
X152874285Y-67641755D01*
X152874285Y-67641755D02*
X152942856Y-67710326D01*
X152942856Y-67710326D02*
X152977142Y-67813184D01*
X152977142Y-67813184D02*
X152977142Y-67984612D01*
X152977142Y-67984612D02*
X152942856Y-68087469D01*
X152942856Y-68087469D02*
X152874285Y-68156041D01*
X152874285Y-68156041D02*
X152805713Y-68190326D01*
X152805713Y-68190326D02*
X152805713Y-68327469D01*
X152805713Y-68327469D02*
X152977142Y-68327469D01*
D13*
X148074819Y-77068094D02*
X147074819Y-77068094D01*
X147074819Y-77068094D02*
X147074819Y-76829999D01*
X147074819Y-76829999D02*
X147122438Y-76687142D01*
X147122438Y-76687142D02*
X147217676Y-76591904D01*
X147217676Y-76591904D02*
X147312914Y-76544285D01*
X147312914Y-76544285D02*
X147503390Y-76496666D01*
X147503390Y-76496666D02*
X147646247Y-76496666D01*
X147646247Y-76496666D02*
X147836723Y-76544285D01*
X147836723Y-76544285D02*
X147931961Y-76591904D01*
X147931961Y-76591904D02*
X148027200Y-76687142D01*
X148027200Y-76687142D02*
X148074819Y-76829999D01*
X148074819Y-76829999D02*
X148074819Y-77068094D01*
X148074819Y-75544285D02*
X148074819Y-76115713D01*
X148074819Y-75829999D02*
X147074819Y-75829999D01*
X147074819Y-75829999D02*
X147217676Y-75925237D01*
X147217676Y-75925237D02*
X147312914Y-76020475D01*
X147312914Y-76020475D02*
X147360533Y-76115713D01*
X147754819Y-71511904D02*
X146754819Y-71511904D01*
X147754819Y-70940476D02*
X147183390Y-71369047D01*
X146754819Y-70940476D02*
X147326247Y-71511904D01*
X129833333Y-81209580D02*
X129785714Y-81257200D01*
X129785714Y-81257200D02*
X129642857Y-81304819D01*
X129642857Y-81304819D02*
X129547619Y-81304819D01*
X129547619Y-81304819D02*
X129404762Y-81257200D01*
X129404762Y-81257200D02*
X129309524Y-81161961D01*
X129309524Y-81161961D02*
X129261905Y-81066723D01*
X129261905Y-81066723D02*
X129214286Y-80876247D01*
X129214286Y-80876247D02*
X129214286Y-80733390D01*
X129214286Y-80733390D02*
X129261905Y-80542914D01*
X129261905Y-80542914D02*
X129309524Y-80447676D01*
X129309524Y-80447676D02*
X129404762Y-80352438D01*
X129404762Y-80352438D02*
X129547619Y-80304819D01*
X129547619Y-80304819D02*
X129642857Y-80304819D01*
X129642857Y-80304819D02*
X129785714Y-80352438D01*
X129785714Y-80352438D02*
X129833333Y-80400057D01*
X130166667Y-80304819D02*
X130833333Y-80304819D01*
X130833333Y-80304819D02*
X130404762Y-81304819D01*
D12*
X129160000Y-77847469D02*
X129160000Y-78327469D01*
X128988571Y-77573184D02*
X128817142Y-78087469D01*
X128817142Y-78087469D02*
X129262857Y-78087469D01*
X129468571Y-77607469D02*
X129948571Y-77607469D01*
X129948571Y-77607469D02*
X129639999Y-78327469D01*
X130222856Y-77847469D02*
X130222856Y-78567469D01*
X130222856Y-77881755D02*
X130291428Y-77847469D01*
X130291428Y-77847469D02*
X130428570Y-77847469D01*
X130428570Y-77847469D02*
X130497142Y-77881755D01*
X130497142Y-77881755D02*
X130531428Y-77916041D01*
X130531428Y-77916041D02*
X130565713Y-77984612D01*
X130565713Y-77984612D02*
X130565713Y-78190326D01*
X130565713Y-78190326D02*
X130531428Y-78258898D01*
X130531428Y-78258898D02*
X130497142Y-78293184D01*
X130497142Y-78293184D02*
X130428570Y-78327469D01*
X130428570Y-78327469D02*
X130291428Y-78327469D01*
X130291428Y-78327469D02*
X130222856Y-78293184D01*
X131114285Y-77950326D02*
X130874285Y-77950326D01*
X130874285Y-78327469D02*
X130874285Y-77607469D01*
X130874285Y-77607469D02*
X131217142Y-77607469D01*
D13*
X105103333Y-88759580D02*
X105055714Y-88807200D01*
X105055714Y-88807200D02*
X104912857Y-88854819D01*
X104912857Y-88854819D02*
X104817619Y-88854819D01*
X104817619Y-88854819D02*
X104674762Y-88807200D01*
X104674762Y-88807200D02*
X104579524Y-88711961D01*
X104579524Y-88711961D02*
X104531905Y-88616723D01*
X104531905Y-88616723D02*
X104484286Y-88426247D01*
X104484286Y-88426247D02*
X104484286Y-88283390D01*
X104484286Y-88283390D02*
X104531905Y-88092914D01*
X104531905Y-88092914D02*
X104579524Y-87997676D01*
X104579524Y-87997676D02*
X104674762Y-87902438D01*
X104674762Y-87902438D02*
X104817619Y-87854819D01*
X104817619Y-87854819D02*
X104912857Y-87854819D01*
X104912857Y-87854819D02*
X105055714Y-87902438D01*
X105055714Y-87902438D02*
X105103333Y-87950057D01*
X106008095Y-87854819D02*
X105531905Y-87854819D01*
X105531905Y-87854819D02*
X105484286Y-88331009D01*
X105484286Y-88331009D02*
X105531905Y-88283390D01*
X105531905Y-88283390D02*
X105627143Y-88235771D01*
X105627143Y-88235771D02*
X105865238Y-88235771D01*
X105865238Y-88235771D02*
X105960476Y-88283390D01*
X105960476Y-88283390D02*
X106008095Y-88331009D01*
X106008095Y-88331009D02*
X106055714Y-88426247D01*
X106055714Y-88426247D02*
X106055714Y-88664342D01*
X106055714Y-88664342D02*
X106008095Y-88759580D01*
X106008095Y-88759580D02*
X105960476Y-88807200D01*
X105960476Y-88807200D02*
X105865238Y-88854819D01*
X105865238Y-88854819D02*
X105627143Y-88854819D01*
X105627143Y-88854819D02*
X105531905Y-88807200D01*
X105531905Y-88807200D02*
X105484286Y-88759580D01*
X118533333Y-75359580D02*
X118485714Y-75407200D01*
X118485714Y-75407200D02*
X118342857Y-75454819D01*
X118342857Y-75454819D02*
X118247619Y-75454819D01*
X118247619Y-75454819D02*
X118104762Y-75407200D01*
X118104762Y-75407200D02*
X118009524Y-75311961D01*
X118009524Y-75311961D02*
X117961905Y-75216723D01*
X117961905Y-75216723D02*
X117914286Y-75026247D01*
X117914286Y-75026247D02*
X117914286Y-74883390D01*
X117914286Y-74883390D02*
X117961905Y-74692914D01*
X117961905Y-74692914D02*
X118009524Y-74597676D01*
X118009524Y-74597676D02*
X118104762Y-74502438D01*
X118104762Y-74502438D02*
X118247619Y-74454819D01*
X118247619Y-74454819D02*
X118342857Y-74454819D01*
X118342857Y-74454819D02*
X118485714Y-74502438D01*
X118485714Y-74502438D02*
X118533333Y-74550057D01*
X119390476Y-74454819D02*
X119200000Y-74454819D01*
X119200000Y-74454819D02*
X119104762Y-74502438D01*
X119104762Y-74502438D02*
X119057143Y-74550057D01*
X119057143Y-74550057D02*
X118961905Y-74692914D01*
X118961905Y-74692914D02*
X118914286Y-74883390D01*
X118914286Y-74883390D02*
X118914286Y-75264342D01*
X118914286Y-75264342D02*
X118961905Y-75359580D01*
X118961905Y-75359580D02*
X119009524Y-75407200D01*
X119009524Y-75407200D02*
X119104762Y-75454819D01*
X119104762Y-75454819D02*
X119295238Y-75454819D01*
X119295238Y-75454819D02*
X119390476Y-75407200D01*
X119390476Y-75407200D02*
X119438095Y-75359580D01*
X119438095Y-75359580D02*
X119485714Y-75264342D01*
X119485714Y-75264342D02*
X119485714Y-75026247D01*
X119485714Y-75026247D02*
X119438095Y-74931009D01*
X119438095Y-74931009D02*
X119390476Y-74883390D01*
X119390476Y-74883390D02*
X119295238Y-74835771D01*
X119295238Y-74835771D02*
X119104762Y-74835771D01*
X119104762Y-74835771D02*
X119009524Y-74883390D01*
X119009524Y-74883390D02*
X118961905Y-74931009D01*
X118961905Y-74931009D02*
X118914286Y-75026247D01*
D12*
X117928571Y-72827469D02*
X117517142Y-72827469D01*
X117722857Y-72827469D02*
X117722857Y-72107469D01*
X117722857Y-72107469D02*
X117654285Y-72210326D01*
X117654285Y-72210326D02*
X117585714Y-72278898D01*
X117585714Y-72278898D02*
X117517142Y-72313184D01*
X118374285Y-72107469D02*
X118442856Y-72107469D01*
X118442856Y-72107469D02*
X118511428Y-72141755D01*
X118511428Y-72141755D02*
X118545714Y-72176041D01*
X118545714Y-72176041D02*
X118579999Y-72244612D01*
X118579999Y-72244612D02*
X118614285Y-72381755D01*
X118614285Y-72381755D02*
X118614285Y-72553184D01*
X118614285Y-72553184D02*
X118579999Y-72690326D01*
X118579999Y-72690326D02*
X118545714Y-72758898D01*
X118545714Y-72758898D02*
X118511428Y-72793184D01*
X118511428Y-72793184D02*
X118442856Y-72827469D01*
X118442856Y-72827469D02*
X118374285Y-72827469D01*
X118374285Y-72827469D02*
X118305714Y-72793184D01*
X118305714Y-72793184D02*
X118271428Y-72758898D01*
X118271428Y-72758898D02*
X118237142Y-72690326D01*
X118237142Y-72690326D02*
X118202856Y-72553184D01*
X118202856Y-72553184D02*
X118202856Y-72381755D01*
X118202856Y-72381755D02*
X118237142Y-72244612D01*
X118237142Y-72244612D02*
X118271428Y-72176041D01*
X118271428Y-72176041D02*
X118305714Y-72141755D01*
X118305714Y-72141755D02*
X118374285Y-72107469D01*
X118922856Y-72347469D02*
X118922856Y-72827469D01*
X118922856Y-72416041D02*
X118957142Y-72381755D01*
X118957142Y-72381755D02*
X119025713Y-72347469D01*
X119025713Y-72347469D02*
X119128570Y-72347469D01*
X119128570Y-72347469D02*
X119197142Y-72381755D01*
X119197142Y-72381755D02*
X119231428Y-72450326D01*
X119231428Y-72450326D02*
X119231428Y-72827469D01*
X119814285Y-72450326D02*
X119574285Y-72450326D01*
X119574285Y-72827469D02*
X119574285Y-72107469D01*
X119574285Y-72107469D02*
X119917142Y-72107469D01*
D13*
X104833333Y-68859580D02*
X104785714Y-68907200D01*
X104785714Y-68907200D02*
X104642857Y-68954819D01*
X104642857Y-68954819D02*
X104547619Y-68954819D01*
X104547619Y-68954819D02*
X104404762Y-68907200D01*
X104404762Y-68907200D02*
X104309524Y-68811961D01*
X104309524Y-68811961D02*
X104261905Y-68716723D01*
X104261905Y-68716723D02*
X104214286Y-68526247D01*
X104214286Y-68526247D02*
X104214286Y-68383390D01*
X104214286Y-68383390D02*
X104261905Y-68192914D01*
X104261905Y-68192914D02*
X104309524Y-68097676D01*
X104309524Y-68097676D02*
X104404762Y-68002438D01*
X104404762Y-68002438D02*
X104547619Y-67954819D01*
X104547619Y-67954819D02*
X104642857Y-67954819D01*
X104642857Y-67954819D02*
X104785714Y-68002438D01*
X104785714Y-68002438D02*
X104833333Y-68050057D01*
X105785714Y-68954819D02*
X105214286Y-68954819D01*
X105500000Y-68954819D02*
X105500000Y-67954819D01*
X105500000Y-67954819D02*
X105404762Y-68097676D01*
X105404762Y-68097676D02*
X105309524Y-68192914D01*
X105309524Y-68192914D02*
X105214286Y-68240533D01*
D12*
X104268571Y-70827469D02*
X103857142Y-70827469D01*
X104062857Y-70827469D02*
X104062857Y-70107469D01*
X104062857Y-70107469D02*
X103994285Y-70210326D01*
X103994285Y-70210326D02*
X103925714Y-70278898D01*
X103925714Y-70278898D02*
X103857142Y-70313184D01*
X104714285Y-70107469D02*
X104782856Y-70107469D01*
X104782856Y-70107469D02*
X104851428Y-70141755D01*
X104851428Y-70141755D02*
X104885714Y-70176041D01*
X104885714Y-70176041D02*
X104919999Y-70244612D01*
X104919999Y-70244612D02*
X104954285Y-70381755D01*
X104954285Y-70381755D02*
X104954285Y-70553184D01*
X104954285Y-70553184D02*
X104919999Y-70690326D01*
X104919999Y-70690326D02*
X104885714Y-70758898D01*
X104885714Y-70758898D02*
X104851428Y-70793184D01*
X104851428Y-70793184D02*
X104782856Y-70827469D01*
X104782856Y-70827469D02*
X104714285Y-70827469D01*
X104714285Y-70827469D02*
X104645714Y-70793184D01*
X104645714Y-70793184D02*
X104611428Y-70758898D01*
X104611428Y-70758898D02*
X104577142Y-70690326D01*
X104577142Y-70690326D02*
X104542856Y-70553184D01*
X104542856Y-70553184D02*
X104542856Y-70381755D01*
X104542856Y-70381755D02*
X104577142Y-70244612D01*
X104577142Y-70244612D02*
X104611428Y-70176041D01*
X104611428Y-70176041D02*
X104645714Y-70141755D01*
X104645714Y-70141755D02*
X104714285Y-70107469D01*
X105262856Y-70347469D02*
X105262856Y-70827469D01*
X105262856Y-70416041D02*
X105297142Y-70381755D01*
X105297142Y-70381755D02*
X105365713Y-70347469D01*
X105365713Y-70347469D02*
X105468570Y-70347469D01*
X105468570Y-70347469D02*
X105537142Y-70381755D01*
X105537142Y-70381755D02*
X105571428Y-70450326D01*
X105571428Y-70450326D02*
X105571428Y-70827469D01*
X106154285Y-70450326D02*
X105914285Y-70450326D01*
X105914285Y-70827469D02*
X105914285Y-70107469D01*
X105914285Y-70107469D02*
X106257142Y-70107469D01*
D13*
X118333333Y-81209580D02*
X118285714Y-81257200D01*
X118285714Y-81257200D02*
X118142857Y-81304819D01*
X118142857Y-81304819D02*
X118047619Y-81304819D01*
X118047619Y-81304819D02*
X117904762Y-81257200D01*
X117904762Y-81257200D02*
X117809524Y-81161961D01*
X117809524Y-81161961D02*
X117761905Y-81066723D01*
X117761905Y-81066723D02*
X117714286Y-80876247D01*
X117714286Y-80876247D02*
X117714286Y-80733390D01*
X117714286Y-80733390D02*
X117761905Y-80542914D01*
X117761905Y-80542914D02*
X117809524Y-80447676D01*
X117809524Y-80447676D02*
X117904762Y-80352438D01*
X117904762Y-80352438D02*
X118047619Y-80304819D01*
X118047619Y-80304819D02*
X118142857Y-80304819D01*
X118142857Y-80304819D02*
X118285714Y-80352438D01*
X118285714Y-80352438D02*
X118333333Y-80400057D01*
X118714286Y-80400057D02*
X118761905Y-80352438D01*
X118761905Y-80352438D02*
X118857143Y-80304819D01*
X118857143Y-80304819D02*
X119095238Y-80304819D01*
X119095238Y-80304819D02*
X119190476Y-80352438D01*
X119190476Y-80352438D02*
X119238095Y-80400057D01*
X119238095Y-80400057D02*
X119285714Y-80495295D01*
X119285714Y-80495295D02*
X119285714Y-80590533D01*
X119285714Y-80590533D02*
X119238095Y-80733390D01*
X119238095Y-80733390D02*
X118666667Y-81304819D01*
X118666667Y-81304819D02*
X119285714Y-81304819D01*
D12*
X117660000Y-77847469D02*
X117660000Y-78327469D01*
X117488571Y-77573184D02*
X117317142Y-78087469D01*
X117317142Y-78087469D02*
X117762857Y-78087469D01*
X117968571Y-77607469D02*
X118448571Y-77607469D01*
X118448571Y-77607469D02*
X118139999Y-78327469D01*
X118722856Y-77847469D02*
X118722856Y-78567469D01*
X118722856Y-77881755D02*
X118791428Y-77847469D01*
X118791428Y-77847469D02*
X118928570Y-77847469D01*
X118928570Y-77847469D02*
X118997142Y-77881755D01*
X118997142Y-77881755D02*
X119031428Y-77916041D01*
X119031428Y-77916041D02*
X119065713Y-77984612D01*
X119065713Y-77984612D02*
X119065713Y-78190326D01*
X119065713Y-78190326D02*
X119031428Y-78258898D01*
X119031428Y-78258898D02*
X118997142Y-78293184D01*
X118997142Y-78293184D02*
X118928570Y-78327469D01*
X118928570Y-78327469D02*
X118791428Y-78327469D01*
X118791428Y-78327469D02*
X118722856Y-78293184D01*
X119614285Y-77950326D02*
X119374285Y-77950326D01*
X119374285Y-78327469D02*
X119374285Y-77607469D01*
X119374285Y-77607469D02*
X119717142Y-77607469D01*
X131931428Y-67916041D02*
X131862857Y-67881755D01*
X131862857Y-67881755D02*
X131794285Y-67813184D01*
X131794285Y-67813184D02*
X131691428Y-67710326D01*
X131691428Y-67710326D02*
X131622857Y-67676041D01*
X131622857Y-67676041D02*
X131554285Y-67676041D01*
X131588571Y-67847469D02*
X131520000Y-67813184D01*
X131520000Y-67813184D02*
X131451428Y-67744612D01*
X131451428Y-67744612D02*
X131417142Y-67607469D01*
X131417142Y-67607469D02*
X131417142Y-67367469D01*
X131417142Y-67367469D02*
X131451428Y-67230326D01*
X131451428Y-67230326D02*
X131520000Y-67161755D01*
X131520000Y-67161755D02*
X131588571Y-67127469D01*
X131588571Y-67127469D02*
X131725714Y-67127469D01*
X131725714Y-67127469D02*
X131794285Y-67161755D01*
X131794285Y-67161755D02*
X131862857Y-67230326D01*
X131862857Y-67230326D02*
X131897142Y-67367469D01*
X131897142Y-67367469D02*
X131897142Y-67607469D01*
X131897142Y-67607469D02*
X131862857Y-67744612D01*
X131862857Y-67744612D02*
X131794285Y-67813184D01*
X131794285Y-67813184D02*
X131725714Y-67847469D01*
X131725714Y-67847469D02*
X131588571Y-67847469D01*
X132171428Y-67196041D02*
X132205714Y-67161755D01*
X132205714Y-67161755D02*
X132274286Y-67127469D01*
X132274286Y-67127469D02*
X132445714Y-67127469D01*
X132445714Y-67127469D02*
X132514286Y-67161755D01*
X132514286Y-67161755D02*
X132548571Y-67196041D01*
X132548571Y-67196041D02*
X132582857Y-67264612D01*
X132582857Y-67264612D02*
X132582857Y-67333184D01*
X132582857Y-67333184D02*
X132548571Y-67436041D01*
X132548571Y-67436041D02*
X132137143Y-67847469D01*
X132137143Y-67847469D02*
X132582857Y-67847469D01*
D13*
X104643333Y-74954819D02*
X104310000Y-74478628D01*
X104071905Y-74954819D02*
X104071905Y-73954819D01*
X104071905Y-73954819D02*
X104452857Y-73954819D01*
X104452857Y-73954819D02*
X104548095Y-74002438D01*
X104548095Y-74002438D02*
X104595714Y-74050057D01*
X104595714Y-74050057D02*
X104643333Y-74145295D01*
X104643333Y-74145295D02*
X104643333Y-74288152D01*
X104643333Y-74288152D02*
X104595714Y-74383390D01*
X104595714Y-74383390D02*
X104548095Y-74431009D01*
X104548095Y-74431009D02*
X104452857Y-74478628D01*
X104452857Y-74478628D02*
X104071905Y-74478628D01*
X105595714Y-74954819D02*
X105024286Y-74954819D01*
X105310000Y-74954819D02*
X105310000Y-73954819D01*
X105310000Y-73954819D02*
X105214762Y-74097676D01*
X105214762Y-74097676D02*
X105119524Y-74192914D01*
X105119524Y-74192914D02*
X105024286Y-74240533D01*
D12*
X103918572Y-76627469D02*
X103507143Y-76627469D01*
X103712858Y-76627469D02*
X103712858Y-75907469D01*
X103712858Y-75907469D02*
X103644286Y-76010326D01*
X103644286Y-76010326D02*
X103575715Y-76078898D01*
X103575715Y-76078898D02*
X103507143Y-76113184D01*
X104775714Y-76627469D02*
X104775714Y-75907469D01*
X104775714Y-75907469D02*
X105015714Y-76421755D01*
X105015714Y-76421755D02*
X105255714Y-75907469D01*
X105255714Y-75907469D02*
X105255714Y-76627469D01*
X105564285Y-76627469D02*
X105735714Y-76627469D01*
X105735714Y-76627469D02*
X105735714Y-76490326D01*
X105735714Y-76490326D02*
X105667143Y-76456041D01*
X105667143Y-76456041D02*
X105598571Y-76387469D01*
X105598571Y-76387469D02*
X105564285Y-76284612D01*
X105564285Y-76284612D02*
X105564285Y-76113184D01*
X105564285Y-76113184D02*
X105598571Y-76010326D01*
X105598571Y-76010326D02*
X105667143Y-75941755D01*
X105667143Y-75941755D02*
X105770000Y-75907469D01*
X105770000Y-75907469D02*
X105907143Y-75907469D01*
X105907143Y-75907469D02*
X106010000Y-75941755D01*
X106010000Y-75941755D02*
X106078571Y-76010326D01*
X106078571Y-76010326D02*
X106112857Y-76113184D01*
X106112857Y-76113184D02*
X106112857Y-76284612D01*
X106112857Y-76284612D02*
X106078571Y-76387469D01*
X106078571Y-76387469D02*
X106010000Y-76456041D01*
X106010000Y-76456041D02*
X105941428Y-76490326D01*
X105941428Y-76490326D02*
X105941428Y-76627469D01*
X105941428Y-76627469D02*
X106112857Y-76627469D01*
D13*
X113954819Y-79356666D02*
X113478628Y-79689999D01*
X113954819Y-79928094D02*
X112954819Y-79928094D01*
X112954819Y-79928094D02*
X112954819Y-79547142D01*
X112954819Y-79547142D02*
X113002438Y-79451904D01*
X113002438Y-79451904D02*
X113050057Y-79404285D01*
X113050057Y-79404285D02*
X113145295Y-79356666D01*
X113145295Y-79356666D02*
X113288152Y-79356666D01*
X113288152Y-79356666D02*
X113383390Y-79404285D01*
X113383390Y-79404285D02*
X113431009Y-79451904D01*
X113431009Y-79451904D02*
X113478628Y-79547142D01*
X113478628Y-79547142D02*
X113478628Y-79928094D01*
X113050057Y-78975713D02*
X113002438Y-78928094D01*
X113002438Y-78928094D02*
X112954819Y-78832856D01*
X112954819Y-78832856D02*
X112954819Y-78594761D01*
X112954819Y-78594761D02*
X113002438Y-78499523D01*
X113002438Y-78499523D02*
X113050057Y-78451904D01*
X113050057Y-78451904D02*
X113145295Y-78404285D01*
X113145295Y-78404285D02*
X113240533Y-78404285D01*
X113240533Y-78404285D02*
X113383390Y-78451904D01*
X113383390Y-78451904D02*
X113954819Y-79023332D01*
X113954819Y-79023332D02*
X113954819Y-78404285D01*
D12*
X111107469Y-80818570D02*
X111107469Y-80372856D01*
X111107469Y-80372856D02*
X111381755Y-80612856D01*
X111381755Y-80612856D02*
X111381755Y-80509999D01*
X111381755Y-80509999D02*
X111416041Y-80441428D01*
X111416041Y-80441428D02*
X111450326Y-80407142D01*
X111450326Y-80407142D02*
X111518898Y-80372856D01*
X111518898Y-80372856D02*
X111690326Y-80372856D01*
X111690326Y-80372856D02*
X111758898Y-80407142D01*
X111758898Y-80407142D02*
X111793184Y-80441428D01*
X111793184Y-80441428D02*
X111827469Y-80509999D01*
X111827469Y-80509999D02*
X111827469Y-80715713D01*
X111827469Y-80715713D02*
X111793184Y-80784285D01*
X111793184Y-80784285D02*
X111758898Y-80818570D01*
X111107469Y-80132856D02*
X111107469Y-79687142D01*
X111107469Y-79687142D02*
X111381755Y-79927142D01*
X111381755Y-79927142D02*
X111381755Y-79824285D01*
X111381755Y-79824285D02*
X111416041Y-79755714D01*
X111416041Y-79755714D02*
X111450326Y-79721428D01*
X111450326Y-79721428D02*
X111518898Y-79687142D01*
X111518898Y-79687142D02*
X111690326Y-79687142D01*
X111690326Y-79687142D02*
X111758898Y-79721428D01*
X111758898Y-79721428D02*
X111793184Y-79755714D01*
X111793184Y-79755714D02*
X111827469Y-79824285D01*
X111827469Y-79824285D02*
X111827469Y-80029999D01*
X111827469Y-80029999D02*
X111793184Y-80098571D01*
X111793184Y-80098571D02*
X111758898Y-80132856D01*
X111827469Y-78830000D02*
X111107469Y-78830000D01*
X111827469Y-78418571D02*
X111416041Y-78727143D01*
X111107469Y-78418571D02*
X111518898Y-78830000D01*
X111827469Y-78144286D02*
X111827469Y-77972857D01*
X111827469Y-77972857D02*
X111690326Y-77972857D01*
X111690326Y-77972857D02*
X111656041Y-78041429D01*
X111656041Y-78041429D02*
X111587469Y-78110000D01*
X111587469Y-78110000D02*
X111484612Y-78144286D01*
X111484612Y-78144286D02*
X111313184Y-78144286D01*
X111313184Y-78144286D02*
X111210326Y-78110000D01*
X111210326Y-78110000D02*
X111141755Y-78041429D01*
X111141755Y-78041429D02*
X111107469Y-77938571D01*
X111107469Y-77938571D02*
X111107469Y-77801429D01*
X111107469Y-77801429D02*
X111141755Y-77698571D01*
X111141755Y-77698571D02*
X111210326Y-77630000D01*
X111210326Y-77630000D02*
X111313184Y-77595714D01*
X111313184Y-77595714D02*
X111484612Y-77595714D01*
X111484612Y-77595714D02*
X111587469Y-77630000D01*
X111587469Y-77630000D02*
X111656041Y-77698571D01*
X111656041Y-77698571D02*
X111690326Y-77767143D01*
X111690326Y-77767143D02*
X111827469Y-77767143D01*
X111827469Y-77767143D02*
X111827469Y-77595714D01*
D13*
X126374819Y-76356666D02*
X125898628Y-76689999D01*
X126374819Y-76928094D02*
X125374819Y-76928094D01*
X125374819Y-76928094D02*
X125374819Y-76547142D01*
X125374819Y-76547142D02*
X125422438Y-76451904D01*
X125422438Y-76451904D02*
X125470057Y-76404285D01*
X125470057Y-76404285D02*
X125565295Y-76356666D01*
X125565295Y-76356666D02*
X125708152Y-76356666D01*
X125708152Y-76356666D02*
X125803390Y-76404285D01*
X125803390Y-76404285D02*
X125851009Y-76451904D01*
X125851009Y-76451904D02*
X125898628Y-76547142D01*
X125898628Y-76547142D02*
X125898628Y-76928094D01*
X125708152Y-75499523D02*
X126374819Y-75499523D01*
X125327200Y-75737618D02*
X126041485Y-75975713D01*
X126041485Y-75975713D02*
X126041485Y-75356666D01*
D12*
X124327469Y-77355713D02*
X124327469Y-77767142D01*
X124327469Y-77561427D02*
X123607469Y-77561427D01*
X123607469Y-77561427D02*
X123710326Y-77629999D01*
X123710326Y-77629999D02*
X123778898Y-77698570D01*
X123778898Y-77698570D02*
X123813184Y-77767142D01*
X123607469Y-76909999D02*
X123607469Y-76841428D01*
X123607469Y-76841428D02*
X123641755Y-76772856D01*
X123641755Y-76772856D02*
X123676041Y-76738571D01*
X123676041Y-76738571D02*
X123744612Y-76704285D01*
X123744612Y-76704285D02*
X123881755Y-76669999D01*
X123881755Y-76669999D02*
X124053184Y-76669999D01*
X124053184Y-76669999D02*
X124190326Y-76704285D01*
X124190326Y-76704285D02*
X124258898Y-76738571D01*
X124258898Y-76738571D02*
X124293184Y-76772856D01*
X124293184Y-76772856D02*
X124327469Y-76841428D01*
X124327469Y-76841428D02*
X124327469Y-76909999D01*
X124327469Y-76909999D02*
X124293184Y-76978571D01*
X124293184Y-76978571D02*
X124258898Y-77012856D01*
X124258898Y-77012856D02*
X124190326Y-77047142D01*
X124190326Y-77047142D02*
X124053184Y-77081428D01*
X124053184Y-77081428D02*
X123881755Y-77081428D01*
X123881755Y-77081428D02*
X123744612Y-77047142D01*
X123744612Y-77047142D02*
X123676041Y-77012856D01*
X123676041Y-77012856D02*
X123641755Y-76978571D01*
X123641755Y-76978571D02*
X123607469Y-76909999D01*
X123607469Y-76224285D02*
X123607469Y-76155714D01*
X123607469Y-76155714D02*
X123641755Y-76087142D01*
X123641755Y-76087142D02*
X123676041Y-76052857D01*
X123676041Y-76052857D02*
X123744612Y-76018571D01*
X123744612Y-76018571D02*
X123881755Y-75984285D01*
X123881755Y-75984285D02*
X124053184Y-75984285D01*
X124053184Y-75984285D02*
X124190326Y-76018571D01*
X124190326Y-76018571D02*
X124258898Y-76052857D01*
X124258898Y-76052857D02*
X124293184Y-76087142D01*
X124293184Y-76087142D02*
X124327469Y-76155714D01*
X124327469Y-76155714D02*
X124327469Y-76224285D01*
X124327469Y-76224285D02*
X124293184Y-76292857D01*
X124293184Y-76292857D02*
X124258898Y-76327142D01*
X124258898Y-76327142D02*
X124190326Y-76361428D01*
X124190326Y-76361428D02*
X124053184Y-76395714D01*
X124053184Y-76395714D02*
X123881755Y-76395714D01*
X123881755Y-76395714D02*
X123744612Y-76361428D01*
X123744612Y-76361428D02*
X123676041Y-76327142D01*
X123676041Y-76327142D02*
X123641755Y-76292857D01*
X123641755Y-76292857D02*
X123607469Y-76224285D01*
X124327469Y-75161429D02*
X124327469Y-74990000D01*
X124327469Y-74990000D02*
X124190326Y-74990000D01*
X124190326Y-74990000D02*
X124156041Y-75058572D01*
X124156041Y-75058572D02*
X124087469Y-75127143D01*
X124087469Y-75127143D02*
X123984612Y-75161429D01*
X123984612Y-75161429D02*
X123813184Y-75161429D01*
X123813184Y-75161429D02*
X123710326Y-75127143D01*
X123710326Y-75127143D02*
X123641755Y-75058572D01*
X123641755Y-75058572D02*
X123607469Y-74955714D01*
X123607469Y-74955714D02*
X123607469Y-74818572D01*
X123607469Y-74818572D02*
X123641755Y-74715714D01*
X123641755Y-74715714D02*
X123710326Y-74647143D01*
X123710326Y-74647143D02*
X123813184Y-74612857D01*
X123813184Y-74612857D02*
X123984612Y-74612857D01*
X123984612Y-74612857D02*
X124087469Y-74647143D01*
X124087469Y-74647143D02*
X124156041Y-74715714D01*
X124156041Y-74715714D02*
X124190326Y-74784286D01*
X124190326Y-74784286D02*
X124327469Y-74784286D01*
X124327469Y-74784286D02*
X124327469Y-74612857D01*
D13*
X116428571Y-82783757D02*
X116333333Y-82736138D01*
X116333333Y-82736138D02*
X116238095Y-82640900D01*
X116238095Y-82640900D02*
X116095238Y-82498042D01*
X116095238Y-82498042D02*
X116000000Y-82450423D01*
X116000000Y-82450423D02*
X115904762Y-82450423D01*
X115952381Y-82688519D02*
X115857143Y-82640900D01*
X115857143Y-82640900D02*
X115761905Y-82545661D01*
X115761905Y-82545661D02*
X115714286Y-82355185D01*
X115714286Y-82355185D02*
X115714286Y-82021852D01*
X115714286Y-82021852D02*
X115761905Y-81831376D01*
X115761905Y-81831376D02*
X115857143Y-81736138D01*
X115857143Y-81736138D02*
X115952381Y-81688519D01*
X115952381Y-81688519D02*
X116142857Y-81688519D01*
X116142857Y-81688519D02*
X116238095Y-81736138D01*
X116238095Y-81736138D02*
X116333333Y-81831376D01*
X116333333Y-81831376D02*
X116380952Y-82021852D01*
X116380952Y-82021852D02*
X116380952Y-82355185D01*
X116380952Y-82355185D02*
X116333333Y-82545661D01*
X116333333Y-82545661D02*
X116238095Y-82640900D01*
X116238095Y-82640900D02*
X116142857Y-82688519D01*
X116142857Y-82688519D02*
X115952381Y-82688519D01*
X117333333Y-82688519D02*
X116761905Y-82688519D01*
X117047619Y-82688519D02*
X117047619Y-81688519D01*
X117047619Y-81688519D02*
X116952381Y-81831376D01*
X116952381Y-81831376D02*
X116857143Y-81926614D01*
X116857143Y-81926614D02*
X116761905Y-81974233D01*
X118857143Y-82164709D02*
X119000000Y-82212328D01*
X119000000Y-82212328D02*
X119047619Y-82259947D01*
X119047619Y-82259947D02*
X119095238Y-82355185D01*
X119095238Y-82355185D02*
X119095238Y-82498042D01*
X119095238Y-82498042D02*
X119047619Y-82593280D01*
X119047619Y-82593280D02*
X119000000Y-82640900D01*
X119000000Y-82640900D02*
X118904762Y-82688519D01*
X118904762Y-82688519D02*
X118523810Y-82688519D01*
X118523810Y-82688519D02*
X118523810Y-81688519D01*
X118523810Y-81688519D02*
X118857143Y-81688519D01*
X118857143Y-81688519D02*
X118952381Y-81736138D01*
X118952381Y-81736138D02*
X119000000Y-81783757D01*
X119000000Y-81783757D02*
X119047619Y-81878995D01*
X119047619Y-81878995D02*
X119047619Y-81974233D01*
X119047619Y-81974233D02*
X119000000Y-82069471D01*
X119000000Y-82069471D02*
X118952381Y-82117090D01*
X118952381Y-82117090D02*
X118857143Y-82164709D01*
X118857143Y-82164709D02*
X118523810Y-82164709D01*
X119523810Y-82688519D02*
X119523810Y-82021852D01*
X119523810Y-81688519D02*
X119476191Y-81736138D01*
X119476191Y-81736138D02*
X119523810Y-81783757D01*
X119523810Y-81783757D02*
X119571429Y-81736138D01*
X119571429Y-81736138D02*
X119523810Y-81688519D01*
X119523810Y-81688519D02*
X119523810Y-81783757D01*
X120428571Y-82688519D02*
X120428571Y-82164709D01*
X120428571Y-82164709D02*
X120380952Y-82069471D01*
X120380952Y-82069471D02*
X120285714Y-82021852D01*
X120285714Y-82021852D02*
X120095238Y-82021852D01*
X120095238Y-82021852D02*
X120000000Y-82069471D01*
X120428571Y-82640900D02*
X120333333Y-82688519D01*
X120333333Y-82688519D02*
X120095238Y-82688519D01*
X120095238Y-82688519D02*
X120000000Y-82640900D01*
X120000000Y-82640900D02*
X119952381Y-82545661D01*
X119952381Y-82545661D02*
X119952381Y-82450423D01*
X119952381Y-82450423D02*
X120000000Y-82355185D01*
X120000000Y-82355185D02*
X120095238Y-82307566D01*
X120095238Y-82307566D02*
X120333333Y-82307566D01*
X120333333Y-82307566D02*
X120428571Y-82259947D01*
X120857143Y-82640900D02*
X120952381Y-82688519D01*
X120952381Y-82688519D02*
X121142857Y-82688519D01*
X121142857Y-82688519D02*
X121238095Y-82640900D01*
X121238095Y-82640900D02*
X121285714Y-82545661D01*
X121285714Y-82545661D02*
X121285714Y-82498042D01*
X121285714Y-82498042D02*
X121238095Y-82402804D01*
X121238095Y-82402804D02*
X121142857Y-82355185D01*
X121142857Y-82355185D02*
X121000000Y-82355185D01*
X121000000Y-82355185D02*
X120904762Y-82307566D01*
X120904762Y-82307566D02*
X120857143Y-82212328D01*
X120857143Y-82212328D02*
X120857143Y-82164709D01*
X120857143Y-82164709D02*
X120904762Y-82069471D01*
X120904762Y-82069471D02*
X121000000Y-82021852D01*
X121000000Y-82021852D02*
X121142857Y-82021852D01*
X121142857Y-82021852D02*
X121238095Y-82069471D01*
X115793571Y-88050007D02*
X115698333Y-88002388D01*
X115698333Y-88002388D02*
X115603095Y-87907150D01*
X115603095Y-87907150D02*
X115460238Y-87764292D01*
X115460238Y-87764292D02*
X115365000Y-87716673D01*
X115365000Y-87716673D02*
X115269762Y-87716673D01*
X115317381Y-87954769D02*
X115222143Y-87907150D01*
X115222143Y-87907150D02*
X115126905Y-87811911D01*
X115126905Y-87811911D02*
X115079286Y-87621435D01*
X115079286Y-87621435D02*
X115079286Y-87288102D01*
X115079286Y-87288102D02*
X115126905Y-87097626D01*
X115126905Y-87097626D02*
X115222143Y-87002388D01*
X115222143Y-87002388D02*
X115317381Y-86954769D01*
X115317381Y-86954769D02*
X115507857Y-86954769D01*
X115507857Y-86954769D02*
X115603095Y-87002388D01*
X115603095Y-87002388D02*
X115698333Y-87097626D01*
X115698333Y-87097626D02*
X115745952Y-87288102D01*
X115745952Y-87288102D02*
X115745952Y-87621435D01*
X115745952Y-87621435D02*
X115698333Y-87811911D01*
X115698333Y-87811911D02*
X115603095Y-87907150D01*
X115603095Y-87907150D02*
X115507857Y-87954769D01*
X115507857Y-87954769D02*
X115317381Y-87954769D01*
X116698333Y-87954769D02*
X116126905Y-87954769D01*
X116412619Y-87954769D02*
X116412619Y-86954769D01*
X116412619Y-86954769D02*
X116317381Y-87097626D01*
X116317381Y-87097626D02*
X116222143Y-87192864D01*
X116222143Y-87192864D02*
X116126905Y-87240483D01*
X118222143Y-87430959D02*
X118365000Y-87478578D01*
X118365000Y-87478578D02*
X118412619Y-87526197D01*
X118412619Y-87526197D02*
X118460238Y-87621435D01*
X118460238Y-87621435D02*
X118460238Y-87764292D01*
X118460238Y-87764292D02*
X118412619Y-87859530D01*
X118412619Y-87859530D02*
X118365000Y-87907150D01*
X118365000Y-87907150D02*
X118269762Y-87954769D01*
X118269762Y-87954769D02*
X117888810Y-87954769D01*
X117888810Y-87954769D02*
X117888810Y-86954769D01*
X117888810Y-86954769D02*
X118222143Y-86954769D01*
X118222143Y-86954769D02*
X118317381Y-87002388D01*
X118317381Y-87002388D02*
X118365000Y-87050007D01*
X118365000Y-87050007D02*
X118412619Y-87145245D01*
X118412619Y-87145245D02*
X118412619Y-87240483D01*
X118412619Y-87240483D02*
X118365000Y-87335721D01*
X118365000Y-87335721D02*
X118317381Y-87383340D01*
X118317381Y-87383340D02*
X118222143Y-87430959D01*
X118222143Y-87430959D02*
X117888810Y-87430959D01*
X118888810Y-87954769D02*
X118888810Y-87288102D01*
X118888810Y-86954769D02*
X118841191Y-87002388D01*
X118841191Y-87002388D02*
X118888810Y-87050007D01*
X118888810Y-87050007D02*
X118936429Y-87002388D01*
X118936429Y-87002388D02*
X118888810Y-86954769D01*
X118888810Y-86954769D02*
X118888810Y-87050007D01*
X119793571Y-87954769D02*
X119793571Y-87430959D01*
X119793571Y-87430959D02*
X119745952Y-87335721D01*
X119745952Y-87335721D02*
X119650714Y-87288102D01*
X119650714Y-87288102D02*
X119460238Y-87288102D01*
X119460238Y-87288102D02*
X119365000Y-87335721D01*
X119793571Y-87907150D02*
X119698333Y-87954769D01*
X119698333Y-87954769D02*
X119460238Y-87954769D01*
X119460238Y-87954769D02*
X119365000Y-87907150D01*
X119365000Y-87907150D02*
X119317381Y-87811911D01*
X119317381Y-87811911D02*
X119317381Y-87716673D01*
X119317381Y-87716673D02*
X119365000Y-87621435D01*
X119365000Y-87621435D02*
X119460238Y-87573816D01*
X119460238Y-87573816D02*
X119698333Y-87573816D01*
X119698333Y-87573816D02*
X119793571Y-87526197D01*
X120222143Y-87907150D02*
X120317381Y-87954769D01*
X120317381Y-87954769D02*
X120507857Y-87954769D01*
X120507857Y-87954769D02*
X120603095Y-87907150D01*
X120603095Y-87907150D02*
X120650714Y-87811911D01*
X120650714Y-87811911D02*
X120650714Y-87764292D01*
X120650714Y-87764292D02*
X120603095Y-87669054D01*
X120603095Y-87669054D02*
X120507857Y-87621435D01*
X120507857Y-87621435D02*
X120365000Y-87621435D01*
X120365000Y-87621435D02*
X120269762Y-87573816D01*
X120269762Y-87573816D02*
X120222143Y-87478578D01*
X120222143Y-87478578D02*
X120222143Y-87430959D01*
X120222143Y-87430959D02*
X120269762Y-87335721D01*
X120269762Y-87335721D02*
X120365000Y-87288102D01*
X120365000Y-87288102D02*
X120507857Y-87288102D01*
X120507857Y-87288102D02*
X120603095Y-87335721D01*
X113859580Y-70666666D02*
X113907200Y-70714285D01*
X113907200Y-70714285D02*
X113954819Y-70857142D01*
X113954819Y-70857142D02*
X113954819Y-70952380D01*
X113954819Y-70952380D02*
X113907200Y-71095237D01*
X113907200Y-71095237D02*
X113811961Y-71190475D01*
X113811961Y-71190475D02*
X113716723Y-71238094D01*
X113716723Y-71238094D02*
X113526247Y-71285713D01*
X113526247Y-71285713D02*
X113383390Y-71285713D01*
X113383390Y-71285713D02*
X113192914Y-71238094D01*
X113192914Y-71238094D02*
X113097676Y-71190475D01*
X113097676Y-71190475D02*
X113002438Y-71095237D01*
X113002438Y-71095237D02*
X112954819Y-70952380D01*
X112954819Y-70952380D02*
X112954819Y-70857142D01*
X112954819Y-70857142D02*
X113002438Y-70714285D01*
X113002438Y-70714285D02*
X113050057Y-70666666D01*
X112954819Y-70333332D02*
X112954819Y-69714285D01*
X112954819Y-69714285D02*
X113335771Y-70047618D01*
X113335771Y-70047618D02*
X113335771Y-69904761D01*
X113335771Y-69904761D02*
X113383390Y-69809523D01*
X113383390Y-69809523D02*
X113431009Y-69761904D01*
X113431009Y-69761904D02*
X113526247Y-69714285D01*
X113526247Y-69714285D02*
X113764342Y-69714285D01*
X113764342Y-69714285D02*
X113859580Y-69761904D01*
X113859580Y-69761904D02*
X113907200Y-69809523D01*
X113907200Y-69809523D02*
X113954819Y-69904761D01*
X113954819Y-69904761D02*
X113954819Y-70190475D01*
X113954819Y-70190475D02*
X113907200Y-70285713D01*
X113907200Y-70285713D02*
X113859580Y-70333332D01*
D12*
X111347469Y-71511428D02*
X111827469Y-71511428D01*
X111073184Y-71682856D02*
X111587469Y-71854285D01*
X111587469Y-71854285D02*
X111587469Y-71408570D01*
X111758898Y-71134285D02*
X111793184Y-71099999D01*
X111793184Y-71099999D02*
X111827469Y-71134285D01*
X111827469Y-71134285D02*
X111793184Y-71168571D01*
X111793184Y-71168571D02*
X111758898Y-71134285D01*
X111758898Y-71134285D02*
X111827469Y-71134285D01*
X111107469Y-70859999D02*
X111107469Y-70379999D01*
X111107469Y-70379999D02*
X111827469Y-70688571D01*
X111347469Y-70105714D02*
X111827469Y-70105714D01*
X111416041Y-70105714D02*
X111381755Y-70071428D01*
X111381755Y-70071428D02*
X111347469Y-70002857D01*
X111347469Y-70002857D02*
X111347469Y-69900000D01*
X111347469Y-69900000D02*
X111381755Y-69831428D01*
X111381755Y-69831428D02*
X111450326Y-69797143D01*
X111450326Y-69797143D02*
X111827469Y-69797143D01*
X111450326Y-69214285D02*
X111450326Y-69454285D01*
X111827469Y-69454285D02*
X111107469Y-69454285D01*
X111107469Y-69454285D02*
X111107469Y-69111428D01*
D13*
X134834819Y-77318094D02*
X133834819Y-77318094D01*
X133834819Y-77318094D02*
X133834819Y-77079999D01*
X133834819Y-77079999D02*
X133882438Y-76937142D01*
X133882438Y-76937142D02*
X133977676Y-76841904D01*
X133977676Y-76841904D02*
X134072914Y-76794285D01*
X134072914Y-76794285D02*
X134263390Y-76746666D01*
X134263390Y-76746666D02*
X134406247Y-76746666D01*
X134406247Y-76746666D02*
X134596723Y-76794285D01*
X134596723Y-76794285D02*
X134691961Y-76841904D01*
X134691961Y-76841904D02*
X134787200Y-76937142D01*
X134787200Y-76937142D02*
X134834819Y-77079999D01*
X134834819Y-77079999D02*
X134834819Y-77318094D01*
X133930057Y-76365713D02*
X133882438Y-76318094D01*
X133882438Y-76318094D02*
X133834819Y-76222856D01*
X133834819Y-76222856D02*
X133834819Y-75984761D01*
X133834819Y-75984761D02*
X133882438Y-75889523D01*
X133882438Y-75889523D02*
X133930057Y-75841904D01*
X133930057Y-75841904D02*
X134025295Y-75794285D01*
X134025295Y-75794285D02*
X134120533Y-75794285D01*
X134120533Y-75794285D02*
X134263390Y-75841904D01*
X134263390Y-75841904D02*
X134834819Y-76413332D01*
X134834819Y-76413332D02*
X134834819Y-75794285D01*
X135204819Y-81921904D02*
X134204819Y-81921904D01*
X135204819Y-81350476D02*
X134633390Y-81779047D01*
X134204819Y-81350476D02*
X134776247Y-81921904D01*
X127928571Y-82783757D02*
X127833333Y-82736138D01*
X127833333Y-82736138D02*
X127738095Y-82640900D01*
X127738095Y-82640900D02*
X127595238Y-82498042D01*
X127595238Y-82498042D02*
X127500000Y-82450423D01*
X127500000Y-82450423D02*
X127404762Y-82450423D01*
X127452381Y-82688519D02*
X127357143Y-82640900D01*
X127357143Y-82640900D02*
X127261905Y-82545661D01*
X127261905Y-82545661D02*
X127214286Y-82355185D01*
X127214286Y-82355185D02*
X127214286Y-82021852D01*
X127214286Y-82021852D02*
X127261905Y-81831376D01*
X127261905Y-81831376D02*
X127357143Y-81736138D01*
X127357143Y-81736138D02*
X127452381Y-81688519D01*
X127452381Y-81688519D02*
X127642857Y-81688519D01*
X127642857Y-81688519D02*
X127738095Y-81736138D01*
X127738095Y-81736138D02*
X127833333Y-81831376D01*
X127833333Y-81831376D02*
X127880952Y-82021852D01*
X127880952Y-82021852D02*
X127880952Y-82355185D01*
X127880952Y-82355185D02*
X127833333Y-82545661D01*
X127833333Y-82545661D02*
X127738095Y-82640900D01*
X127738095Y-82640900D02*
X127642857Y-82688519D01*
X127642857Y-82688519D02*
X127452381Y-82688519D01*
X128261905Y-81783757D02*
X128309524Y-81736138D01*
X128309524Y-81736138D02*
X128404762Y-81688519D01*
X128404762Y-81688519D02*
X128642857Y-81688519D01*
X128642857Y-81688519D02*
X128738095Y-81736138D01*
X128738095Y-81736138D02*
X128785714Y-81783757D01*
X128785714Y-81783757D02*
X128833333Y-81878995D01*
X128833333Y-81878995D02*
X128833333Y-81974233D01*
X128833333Y-81974233D02*
X128785714Y-82117090D01*
X128785714Y-82117090D02*
X128214286Y-82688519D01*
X128214286Y-82688519D02*
X128833333Y-82688519D01*
X130357143Y-82164709D02*
X130500000Y-82212328D01*
X130500000Y-82212328D02*
X130547619Y-82259947D01*
X130547619Y-82259947D02*
X130595238Y-82355185D01*
X130595238Y-82355185D02*
X130595238Y-82498042D01*
X130595238Y-82498042D02*
X130547619Y-82593280D01*
X130547619Y-82593280D02*
X130500000Y-82640900D01*
X130500000Y-82640900D02*
X130404762Y-82688519D01*
X130404762Y-82688519D02*
X130023810Y-82688519D01*
X130023810Y-82688519D02*
X130023810Y-81688519D01*
X130023810Y-81688519D02*
X130357143Y-81688519D01*
X130357143Y-81688519D02*
X130452381Y-81736138D01*
X130452381Y-81736138D02*
X130500000Y-81783757D01*
X130500000Y-81783757D02*
X130547619Y-81878995D01*
X130547619Y-81878995D02*
X130547619Y-81974233D01*
X130547619Y-81974233D02*
X130500000Y-82069471D01*
X130500000Y-82069471D02*
X130452381Y-82117090D01*
X130452381Y-82117090D02*
X130357143Y-82164709D01*
X130357143Y-82164709D02*
X130023810Y-82164709D01*
X131023810Y-82688519D02*
X131023810Y-82021852D01*
X131023810Y-81688519D02*
X130976191Y-81736138D01*
X130976191Y-81736138D02*
X131023810Y-81783757D01*
X131023810Y-81783757D02*
X131071429Y-81736138D01*
X131071429Y-81736138D02*
X131023810Y-81688519D01*
X131023810Y-81688519D02*
X131023810Y-81783757D01*
X131928571Y-82688519D02*
X131928571Y-82164709D01*
X131928571Y-82164709D02*
X131880952Y-82069471D01*
X131880952Y-82069471D02*
X131785714Y-82021852D01*
X131785714Y-82021852D02*
X131595238Y-82021852D01*
X131595238Y-82021852D02*
X131500000Y-82069471D01*
X131928571Y-82640900D02*
X131833333Y-82688519D01*
X131833333Y-82688519D02*
X131595238Y-82688519D01*
X131595238Y-82688519D02*
X131500000Y-82640900D01*
X131500000Y-82640900D02*
X131452381Y-82545661D01*
X131452381Y-82545661D02*
X131452381Y-82450423D01*
X131452381Y-82450423D02*
X131500000Y-82355185D01*
X131500000Y-82355185D02*
X131595238Y-82307566D01*
X131595238Y-82307566D02*
X131833333Y-82307566D01*
X131833333Y-82307566D02*
X131928571Y-82259947D01*
X132357143Y-82640900D02*
X132452381Y-82688519D01*
X132452381Y-82688519D02*
X132642857Y-82688519D01*
X132642857Y-82688519D02*
X132738095Y-82640900D01*
X132738095Y-82640900D02*
X132785714Y-82545661D01*
X132785714Y-82545661D02*
X132785714Y-82498042D01*
X132785714Y-82498042D02*
X132738095Y-82402804D01*
X132738095Y-82402804D02*
X132642857Y-82355185D01*
X132642857Y-82355185D02*
X132500000Y-82355185D01*
X132500000Y-82355185D02*
X132404762Y-82307566D01*
X132404762Y-82307566D02*
X132357143Y-82212328D01*
X132357143Y-82212328D02*
X132357143Y-82164709D01*
X132357143Y-82164709D02*
X132404762Y-82069471D01*
X132404762Y-82069471D02*
X132500000Y-82021852D01*
X132500000Y-82021852D02*
X132642857Y-82021852D01*
X132642857Y-82021852D02*
X132738095Y-82069471D01*
X127293571Y-87850632D02*
X127198333Y-87803013D01*
X127198333Y-87803013D02*
X127103095Y-87707775D01*
X127103095Y-87707775D02*
X126960238Y-87564917D01*
X126960238Y-87564917D02*
X126865000Y-87517298D01*
X126865000Y-87517298D02*
X126769762Y-87517298D01*
X126817381Y-87755394D02*
X126722143Y-87707775D01*
X126722143Y-87707775D02*
X126626905Y-87612536D01*
X126626905Y-87612536D02*
X126579286Y-87422060D01*
X126579286Y-87422060D02*
X126579286Y-87088727D01*
X126579286Y-87088727D02*
X126626905Y-86898251D01*
X126626905Y-86898251D02*
X126722143Y-86803013D01*
X126722143Y-86803013D02*
X126817381Y-86755394D01*
X126817381Y-86755394D02*
X127007857Y-86755394D01*
X127007857Y-86755394D02*
X127103095Y-86803013D01*
X127103095Y-86803013D02*
X127198333Y-86898251D01*
X127198333Y-86898251D02*
X127245952Y-87088727D01*
X127245952Y-87088727D02*
X127245952Y-87422060D01*
X127245952Y-87422060D02*
X127198333Y-87612536D01*
X127198333Y-87612536D02*
X127103095Y-87707775D01*
X127103095Y-87707775D02*
X127007857Y-87755394D01*
X127007857Y-87755394D02*
X126817381Y-87755394D01*
X127626905Y-86850632D02*
X127674524Y-86803013D01*
X127674524Y-86803013D02*
X127769762Y-86755394D01*
X127769762Y-86755394D02*
X128007857Y-86755394D01*
X128007857Y-86755394D02*
X128103095Y-86803013D01*
X128103095Y-86803013D02*
X128150714Y-86850632D01*
X128150714Y-86850632D02*
X128198333Y-86945870D01*
X128198333Y-86945870D02*
X128198333Y-87041108D01*
X128198333Y-87041108D02*
X128150714Y-87183965D01*
X128150714Y-87183965D02*
X127579286Y-87755394D01*
X127579286Y-87755394D02*
X128198333Y-87755394D01*
X129722143Y-87231584D02*
X129865000Y-87279203D01*
X129865000Y-87279203D02*
X129912619Y-87326822D01*
X129912619Y-87326822D02*
X129960238Y-87422060D01*
X129960238Y-87422060D02*
X129960238Y-87564917D01*
X129960238Y-87564917D02*
X129912619Y-87660155D01*
X129912619Y-87660155D02*
X129865000Y-87707775D01*
X129865000Y-87707775D02*
X129769762Y-87755394D01*
X129769762Y-87755394D02*
X129388810Y-87755394D01*
X129388810Y-87755394D02*
X129388810Y-86755394D01*
X129388810Y-86755394D02*
X129722143Y-86755394D01*
X129722143Y-86755394D02*
X129817381Y-86803013D01*
X129817381Y-86803013D02*
X129865000Y-86850632D01*
X129865000Y-86850632D02*
X129912619Y-86945870D01*
X129912619Y-86945870D02*
X129912619Y-87041108D01*
X129912619Y-87041108D02*
X129865000Y-87136346D01*
X129865000Y-87136346D02*
X129817381Y-87183965D01*
X129817381Y-87183965D02*
X129722143Y-87231584D01*
X129722143Y-87231584D02*
X129388810Y-87231584D01*
X130388810Y-87755394D02*
X130388810Y-87088727D01*
X130388810Y-86755394D02*
X130341191Y-86803013D01*
X130341191Y-86803013D02*
X130388810Y-86850632D01*
X130388810Y-86850632D02*
X130436429Y-86803013D01*
X130436429Y-86803013D02*
X130388810Y-86755394D01*
X130388810Y-86755394D02*
X130388810Y-86850632D01*
X131293571Y-87755394D02*
X131293571Y-87231584D01*
X131293571Y-87231584D02*
X131245952Y-87136346D01*
X131245952Y-87136346D02*
X131150714Y-87088727D01*
X131150714Y-87088727D02*
X130960238Y-87088727D01*
X130960238Y-87088727D02*
X130865000Y-87136346D01*
X131293571Y-87707775D02*
X131198333Y-87755394D01*
X131198333Y-87755394D02*
X130960238Y-87755394D01*
X130960238Y-87755394D02*
X130865000Y-87707775D01*
X130865000Y-87707775D02*
X130817381Y-87612536D01*
X130817381Y-87612536D02*
X130817381Y-87517298D01*
X130817381Y-87517298D02*
X130865000Y-87422060D01*
X130865000Y-87422060D02*
X130960238Y-87374441D01*
X130960238Y-87374441D02*
X131198333Y-87374441D01*
X131198333Y-87374441D02*
X131293571Y-87326822D01*
X131722143Y-87707775D02*
X131817381Y-87755394D01*
X131817381Y-87755394D02*
X132007857Y-87755394D01*
X132007857Y-87755394D02*
X132103095Y-87707775D01*
X132103095Y-87707775D02*
X132150714Y-87612536D01*
X132150714Y-87612536D02*
X132150714Y-87564917D01*
X132150714Y-87564917D02*
X132103095Y-87469679D01*
X132103095Y-87469679D02*
X132007857Y-87422060D01*
X132007857Y-87422060D02*
X131865000Y-87422060D01*
X131865000Y-87422060D02*
X131769762Y-87374441D01*
X131769762Y-87374441D02*
X131722143Y-87279203D01*
X131722143Y-87279203D02*
X131722143Y-87231584D01*
X131722143Y-87231584D02*
X131769762Y-87136346D01*
X131769762Y-87136346D02*
X131865000Y-87088727D01*
X131865000Y-87088727D02*
X132007857Y-87088727D01*
X132007857Y-87088727D02*
X132103095Y-87136346D01*
D12*
X116160428Y-67916041D02*
X116091857Y-67881755D01*
X116091857Y-67881755D02*
X116023285Y-67813184D01*
X116023285Y-67813184D02*
X115920428Y-67710326D01*
X115920428Y-67710326D02*
X115851857Y-67676041D01*
X115851857Y-67676041D02*
X115783285Y-67676041D01*
X115817571Y-67847469D02*
X115749000Y-67813184D01*
X115749000Y-67813184D02*
X115680428Y-67744612D01*
X115680428Y-67744612D02*
X115646142Y-67607469D01*
X115646142Y-67607469D02*
X115646142Y-67367469D01*
X115646142Y-67367469D02*
X115680428Y-67230326D01*
X115680428Y-67230326D02*
X115749000Y-67161755D01*
X115749000Y-67161755D02*
X115817571Y-67127469D01*
X115817571Y-67127469D02*
X115954714Y-67127469D01*
X115954714Y-67127469D02*
X116023285Y-67161755D01*
X116023285Y-67161755D02*
X116091857Y-67230326D01*
X116091857Y-67230326D02*
X116126142Y-67367469D01*
X116126142Y-67367469D02*
X116126142Y-67607469D01*
X116126142Y-67607469D02*
X116091857Y-67744612D01*
X116091857Y-67744612D02*
X116023285Y-67813184D01*
X116023285Y-67813184D02*
X115954714Y-67847469D01*
X115954714Y-67847469D02*
X115817571Y-67847469D01*
X116811857Y-67847469D02*
X116400428Y-67847469D01*
X116606143Y-67847469D02*
X116606143Y-67127469D01*
X116606143Y-67127469D02*
X116537571Y-67230326D01*
X116537571Y-67230326D02*
X116469000Y-67298898D01*
X116469000Y-67298898D02*
X116400428Y-67333184D01*
D13*
X143424819Y-77318094D02*
X142424819Y-77318094D01*
X142424819Y-77318094D02*
X142424819Y-77079999D01*
X142424819Y-77079999D02*
X142472438Y-76937142D01*
X142472438Y-76937142D02*
X142567676Y-76841904D01*
X142567676Y-76841904D02*
X142662914Y-76794285D01*
X142662914Y-76794285D02*
X142853390Y-76746666D01*
X142853390Y-76746666D02*
X142996247Y-76746666D01*
X142996247Y-76746666D02*
X143186723Y-76794285D01*
X143186723Y-76794285D02*
X143281961Y-76841904D01*
X143281961Y-76841904D02*
X143377200Y-76937142D01*
X143377200Y-76937142D02*
X143424819Y-77079999D01*
X143424819Y-77079999D02*
X143424819Y-77318094D01*
X142424819Y-76413332D02*
X142424819Y-75794285D01*
X142424819Y-75794285D02*
X142805771Y-76127618D01*
X142805771Y-76127618D02*
X142805771Y-75984761D01*
X142805771Y-75984761D02*
X142853390Y-75889523D01*
X142853390Y-75889523D02*
X142901009Y-75841904D01*
X142901009Y-75841904D02*
X142996247Y-75794285D01*
X142996247Y-75794285D02*
X143234342Y-75794285D01*
X143234342Y-75794285D02*
X143329580Y-75841904D01*
X143329580Y-75841904D02*
X143377200Y-75889523D01*
X143377200Y-75889523D02*
X143424819Y-75984761D01*
X143424819Y-75984761D02*
X143424819Y-76270475D01*
X143424819Y-76270475D02*
X143377200Y-76365713D01*
X143377200Y-76365713D02*
X143329580Y-76413332D01*
X143054819Y-71761904D02*
X142054819Y-71761904D01*
X143054819Y-71190476D02*
X142483390Y-71619047D01*
X142054819Y-71190476D02*
X142626247Y-71761904D01*
D14*
X135625000Y-63980000D02*
X145375000Y-63980000D01*
X135625000Y-69030000D02*
X135625000Y-63980000D01*
X145375000Y-63980000D02*
X145375000Y-69030000D01*
X145375000Y-69030000D02*
X135625000Y-69030000D01*
X120494500Y-65630000D02*
X127734500Y-65630000D01*
X120494500Y-68370000D02*
X120494500Y-65630000D01*
X127734500Y-65630000D02*
X127734500Y-68370000D01*
X127734500Y-68370000D02*
X120494500Y-68370000D01*
X78280000Y-66780000D02*
X85520000Y-66780000D01*
X78280000Y-68700000D02*
X78280000Y-66780000D01*
X78280000Y-85220000D02*
X78280000Y-69300000D01*
X79900000Y-66780000D02*
X79900000Y-85220000D01*
X85520000Y-66780000D02*
X85520000Y-85220000D01*
X85520000Y-85220000D02*
X78280000Y-85220000D01*
X78280000Y-69000000D02*
X77670000Y-69440000D01*
X77670000Y-68560000D01*
X78280000Y-69000000D01*
G36*
X78280000Y-69000000D02*
G01*
X77670000Y-69440000D01*
X77670000Y-68560000D01*
X78280000Y-69000000D01*
G37*
X146165000Y-63980000D02*
X155915000Y-63980000D01*
X146165000Y-69030000D02*
X146165000Y-63980000D01*
X155915000Y-63980000D02*
X155915000Y-69030000D01*
X155915000Y-69030000D02*
X146165000Y-69030000D01*
X145500000Y-72290000D02*
X145500000Y-74210000D01*
X145500000Y-80370000D02*
X145500000Y-78450000D01*
X146620000Y-74810000D02*
X144380000Y-74810000D01*
X146620000Y-74930000D02*
X144380000Y-74930000D01*
X146620000Y-75050000D02*
X144380000Y-75050000D01*
X144380000Y-74210000D02*
X146620000Y-74210000D01*
X146620000Y-78450000D01*
X144380000Y-78450000D01*
X144380000Y-74210000D01*
X127330000Y-76280000D02*
X132670000Y-76280000D01*
X127330000Y-76974000D02*
X127330000Y-76280000D01*
X127330000Y-79720000D02*
X127330000Y-79026000D01*
X132670000Y-76280000D02*
X132670000Y-76974000D01*
X132670000Y-79026000D02*
X132670000Y-79720000D01*
X132670000Y-79720000D02*
X127330000Y-79720000D01*
X108540000Y-84000000D02*
G75*
G02*
X102000000Y-84000000I-3270000J0D01*
G01*
X102000000Y-84000000D02*
G75*
G02*
X108540000Y-84000000I3270000J0D01*
G01*
X115080000Y-71130000D02*
X122320000Y-71130000D01*
X115080000Y-73870000D02*
X115080000Y-71130000D01*
X122320000Y-71130000D02*
X122320000Y-73870000D01*
X122320000Y-73870000D02*
X115080000Y-73870000D01*
X101420000Y-69130000D02*
X108660000Y-69130000D01*
X101420000Y-71870000D02*
X101420000Y-69130000D01*
X108660000Y-69130000D02*
X108660000Y-71870000D01*
X108660000Y-71870000D02*
X101420000Y-71870000D01*
X115830000Y-76280000D02*
X121170000Y-76280000D01*
X115830000Y-76974000D02*
X115830000Y-76280000D01*
X115830000Y-79720000D02*
X115830000Y-79026000D01*
X121170000Y-76280000D02*
X121170000Y-76974000D01*
X121170000Y-79026000D02*
X121170000Y-79720000D01*
X121170000Y-79720000D02*
X115830000Y-79720000D01*
X130200000Y-69370000D02*
X133800000Y-69370000D01*
X130188547Y-69362156D02*
G75*
G02*
X131180000Y-65070000I1811453J1842156D01*
G01*
X132780000Y-65070000D02*
G75*
G02*
X133808445Y-69347684I-780000J-2450000D01*
G01*
X101940000Y-76300000D02*
X102890000Y-76300000D01*
X107680000Y-76300000D02*
X106730000Y-76300000D01*
X102890000Y-75380000D02*
X106730000Y-75380000D01*
X106730000Y-77220000D01*
X102890000Y-77220000D01*
X102890000Y-75380000D01*
X111500000Y-76320000D02*
X111500000Y-77270000D01*
X111500000Y-82060000D02*
X111500000Y-81110000D01*
X110580000Y-77270000D02*
X112420000Y-77270000D01*
X112420000Y-81110000D01*
X110580000Y-81110000D01*
X110580000Y-77270000D01*
X124000000Y-73320000D02*
X124000000Y-74270000D01*
X124000000Y-79060000D02*
X124000000Y-78110000D01*
X123080000Y-74270000D02*
X124920000Y-74270000D01*
X124920000Y-78110000D01*
X123080000Y-78110000D01*
X123080000Y-74270000D01*
X148980000Y-70280000D02*
X156220000Y-70280000D01*
X148980000Y-81720000D02*
X148980000Y-70280000D01*
X154600000Y-81720000D02*
X154600000Y-70280000D01*
X156220000Y-70280000D02*
X156220000Y-79200000D01*
X156220000Y-79800000D02*
X156220000Y-81720000D01*
X156220000Y-81720000D02*
X148980000Y-81720000D01*
X156220000Y-79500000D02*
X156830000Y-79060000D01*
X156830000Y-79940000D01*
X156220000Y-79500000D01*
G36*
X156830000Y-79940000D02*
G01*
X156220000Y-79500000D01*
X156830000Y-79060000D01*
X156830000Y-79940000D01*
G37*
X113625000Y-83373700D02*
X123375000Y-83373700D01*
X113625000Y-88423700D02*
X113625000Y-83373700D01*
X123375000Y-83373700D02*
X123375000Y-88423700D01*
X123375000Y-88423700D02*
X113625000Y-88423700D01*
X110130000Y-67880000D02*
X110467000Y-67880000D01*
X110130000Y-73120000D02*
X110130000Y-67880000D01*
X110467000Y-73120000D02*
X110130000Y-73120000D01*
X112533000Y-67880000D02*
X112870000Y-67880000D01*
X112870000Y-67880000D02*
X112870000Y-73120000D01*
X112870000Y-73120000D02*
X112533000Y-73120000D01*
X135380000Y-78280000D02*
X138320000Y-78280000D01*
X135380000Y-78400000D02*
X138320000Y-78400000D01*
X135380000Y-78520000D02*
X138320000Y-78520000D01*
X136850000Y-72840000D02*
X136850000Y-73860000D01*
X136850000Y-80320000D02*
X136850000Y-79300000D01*
X135380000Y-73860000D02*
X138320000Y-73860000D01*
X138320000Y-79300000D01*
X135380000Y-79300000D01*
X135380000Y-73860000D01*
X136090000Y-83740000D02*
X136090000Y-84050000D01*
X136090000Y-83740000D02*
X144910000Y-83740000D01*
X136090000Y-88260000D02*
X136090000Y-87950000D01*
X142000000Y-88960000D02*
X143000000Y-88960000D01*
X142500000Y-88460000D02*
X142000000Y-88960000D01*
X143000000Y-88960000D02*
X142500000Y-88460000D01*
X144910000Y-83740000D02*
X144910000Y-84050000D01*
X144910000Y-87950000D02*
X144910000Y-88260000D01*
X144910000Y-88260000D02*
X136090000Y-88260000D01*
D10*
X89550000Y-72750000D02*
X96450000Y-72750000D01*
X96450000Y-82250000D01*
X89550000Y-82250000D01*
X89550000Y-72750000D01*
D14*
X125125000Y-83373700D02*
X134875000Y-83373700D01*
X125125000Y-88423700D02*
X125125000Y-83373700D01*
X134875000Y-83373700D02*
X134875000Y-88423700D01*
X134875000Y-88423700D02*
X125125000Y-88423700D01*
X114429000Y-69370000D02*
X118029000Y-69370000D01*
X114417547Y-69362156D02*
G75*
G02*
X115409000Y-65070000I1811453J1842156D01*
G01*
X117009000Y-65070000D02*
G75*
G02*
X118037445Y-69347684I-780000J-2450000D01*
G01*
X140500000Y-72840000D02*
X140500000Y-73860000D01*
X140500000Y-80320000D02*
X140500000Y-79300000D01*
X141970000Y-74640000D02*
X139030000Y-74640000D01*
X141970000Y-74760000D02*
X139030000Y-74760000D01*
X141970000Y-74880000D02*
X139030000Y-74880000D01*
X139030000Y-73860000D02*
X141970000Y-73860000D01*
X141970000Y-79300000D01*
X139030000Y-79300000D01*
X139030000Y-73860000D01*
%LPC*%
D15*
X143040000Y-66500000D03*
X140500000Y-66500000D03*
X137960000Y-66500000D03*
D16*
X126614500Y-67000000D03*
X121614500Y-67000000D03*
D17*
X82000000Y-83000000D03*
X82000000Y-79500000D03*
X82000000Y-76000000D03*
X82000000Y-72500000D03*
D18*
X82000000Y-69000000D03*
D19*
X154000000Y-85500000D03*
D15*
X153580000Y-66500000D03*
X151040000Y-66500000D03*
X148500000Y-66500000D03*
D20*
X151000000Y-83000000D03*
D21*
X145500000Y-71250000D03*
D16*
X145500000Y-81410000D03*
D22*
X87750000Y-86400000D03*
D16*
X132500000Y-78000000D03*
X127500000Y-78000000D03*
X106520000Y-84000000D03*
X104020000Y-84000000D03*
X121200000Y-72500000D03*
X116200000Y-72500000D03*
X107540000Y-70500000D03*
X102540000Y-70500000D03*
X121000000Y-78000000D03*
X116000000Y-78000000D03*
D23*
X130730000Y-67920000D03*
D24*
X132000000Y-65850000D03*
X133270000Y-67920000D03*
D25*
X101000000Y-76300000D03*
X108620000Y-76300000D03*
D26*
X88000000Y-65500000D03*
X93000000Y-65500000D03*
X98000000Y-65500000D03*
D19*
X151000000Y-85500000D03*
D25*
X111500000Y-83000000D03*
X111500000Y-75380000D03*
X124000000Y-72380000D03*
X124000000Y-80000000D03*
D20*
X154000000Y-83000000D03*
D27*
X152500000Y-79500000D03*
D17*
X152500000Y-76000000D03*
X152500000Y-72500000D03*
D15*
X121040000Y-85893700D03*
X118500000Y-85893700D03*
X115960000Y-85893700D03*
D16*
X111500000Y-73000000D03*
X111500000Y-68000000D03*
D28*
X136850000Y-81660000D03*
D29*
X136850000Y-71500000D03*
D30*
X144600000Y-86000000D03*
X136400000Y-86000000D03*
D31*
X142500000Y-86000000D03*
D32*
X140500000Y-86000000D03*
X138500000Y-86000000D03*
D33*
X90500000Y-73500000D03*
X90500000Y-77500000D03*
X90500000Y-81500000D03*
X95500000Y-73500000D03*
X95500000Y-77500000D03*
X95500000Y-81500000D03*
D22*
X93000000Y-86400000D03*
D15*
X132540000Y-85893700D03*
X130000000Y-85893700D03*
X127460000Y-85893700D03*
D23*
X114959000Y-67920000D03*
D24*
X116229000Y-65850000D03*
X117499000Y-67920000D03*
D34*
X140500000Y-71500000D03*
D29*
X140500000Y-81660000D03*
%LPD*%
M02*
