G04 #@! TF.GenerationSoftware,KiCad,Pcbnew,10.0.5-71-g2cb2c974e9*
G04 #@! TF.CreationDate,2026-09-16T22:04:22-04:00*
G04 #@! TF.ProjectId,Fury-Taur,46757279-2d54-4617-9572-2e6b69636164,rev?*
G04 #@! TF.SameCoordinates,Original*
G04 #@! TF.FileFunction,Soldermask,Top*
G04 #@! TF.FilePolarity,Negative*
%FSLAX46Y46*%
G04 Gerber Fmt 4.6, Leading zero omitted, Abs format (unit mm)*
G04 Created by KiCad (PCBNEW 10.0.5-71-g2cb2c974e9) date 2026-09-16 22:04:22*
%MOMM*%
%LPD*%
G01*
G04 APERTURE LIST*
G04 Aperture macros list*
%AMRoundRect*
0 Rectangle with rounded corners*
0 $1 Rounding radius*
0 $2 $3 $4 $5 $6 $7 $8 $9 X,Y pos of 4 corners*
0 Add a 4 corners polygon primitive as box body*
4,1,4,$2,$3,$4,$5,$6,$7,$8,$9,$2,$3,0*
0 Add four circle primitives for the rounded corners*
1,1,$1+$1,$2,$3*
1,1,$1+$1,$4,$5*
1,1,$1+$1,$6,$7*
1,1,$1+$1,$8,$9*
0 Add four rect primitives between the rounded corners*
20,1,$1+$1,$2,$3,$4,$5,0*
20,1,$1+$1,$4,$5,$6,$7,0*
20,1,$1+$1,$6,$7,$8,$9,0*
20,1,$1+$1,$8,$9,$2,$3,0*%
G04 Aperture macros list end*
%ADD10C,1.440000*%
%ADD11C,1.600000*%
%ADD12C,2.400000*%
%ADD13RoundRect,0.250001X-0.949999X0.949999X-0.949999X-0.949999X0.949999X-0.949999X0.949999X0.949999X0*%
%ADD14RoundRect,0.250000X-0.600000X-0.600000X0.600000X-0.600000X0.600000X0.600000X-0.600000X0.600000X0*%
%ADD15C,1.648000*%
%ADD16RoundRect,0.249999X-0.850001X-0.850001X0.850001X-0.850001X0.850001X0.850001X-0.850001X0.850001X0*%
%ADD17C,2.200000*%
%ADD18R,1.000000X1.000000*%
%ADD19RoundRect,0.250000X0.550000X0.550000X-0.550000X0.550000X-0.550000X-0.550000X0.550000X-0.550000X0*%
%ADD20R,1.100000X1.800000*%
%ADD21RoundRect,0.275000X-0.275000X-0.625000X0.275000X-0.625000X0.275000X0.625000X-0.275000X0.625000X0*%
%ADD22C,1.400000*%
%ADD23C,1.450000*%
%ADD24O,1.200000X3.200000*%
%ADD25O,3.000000X1.200000*%
%ADD26RoundRect,0.250001X0.949999X-0.949999X0.949999X0.949999X-0.949999X0.949999X-0.949999X-0.949999X0*%
%ADD27RoundRect,0.249999X0.850001X-0.850001X0.850001X0.850001X-0.850001X0.850001X-0.850001X-0.850001X0*%
%ADD28O,2.200000X3.500000*%
%ADD29R,1.500000X2.500000*%
%ADD30O,1.500000X2.500000*%
%ADD31RoundRect,0.249999X-0.850001X0.850001X-0.850001X-0.850001X0.850001X-0.850001X0.850001X0.850001X0*%
G04 APERTURE END LIST*
D10*
X134880000Y-66000000D03*
X132340000Y-66000000D03*
X129800000Y-66000000D03*
D11*
X103580000Y-78000000D03*
X108580000Y-78000000D03*
D12*
X82000000Y-83000000D03*
X82000000Y-79500000D03*
X82000000Y-76000000D03*
X82000000Y-72500000D03*
D13*
X82000000Y-69000000D03*
D14*
X151000000Y-85500000D03*
D10*
X145680000Y-66000000D03*
X143140000Y-66000000D03*
X140600000Y-66000000D03*
D15*
X148000000Y-83000000D03*
D16*
X126500000Y-72380000D03*
D17*
X136660000Y-72380000D03*
D11*
X132500000Y-78000000D03*
X127500000Y-78000000D03*
D18*
X151500000Y-65301700D03*
D19*
X107080000Y-84000000D03*
D11*
X105080000Y-84000000D03*
X121200000Y-72500000D03*
X116200000Y-72500000D03*
X108580000Y-70500000D03*
X103580000Y-70500000D03*
D18*
X151500000Y-67301700D03*
D11*
X121000000Y-78000000D03*
X116000000Y-78000000D03*
D20*
X122500000Y-67900000D03*
D21*
X123770000Y-65830000D03*
X125040000Y-67900000D03*
D18*
X149500000Y-65301700D03*
D22*
X102380000Y-73558600D03*
X110000000Y-73558600D03*
D14*
X148000000Y-85500000D03*
D22*
X112500000Y-81120000D03*
X112500000Y-73500000D03*
X124000000Y-72380000D03*
X124000000Y-80000000D03*
D23*
X88000000Y-65500000D03*
X93000000Y-65500000D03*
X98000000Y-65500000D03*
D24*
X90500000Y-73500000D03*
X90500000Y-77500000D03*
X90500000Y-81500000D03*
X95500000Y-73500000D03*
X95500000Y-77500000D03*
X95500000Y-81500000D03*
D25*
X87750000Y-86400000D03*
X93000000Y-86400000D03*
D15*
X151000000Y-83000000D03*
D26*
X149500000Y-79500000D03*
D12*
X149500000Y-76000000D03*
X149500000Y-72500000D03*
D10*
X121040000Y-85893700D03*
X118500000Y-85893700D03*
X115960000Y-85893700D03*
D27*
X139850000Y-81580000D03*
D17*
X139850000Y-71420000D03*
D28*
X144600000Y-86000000D03*
X136400000Y-86000000D03*
D29*
X142500000Y-86000000D03*
D30*
X140500000Y-86000000D03*
X138500000Y-86000000D03*
D10*
X132540000Y-85893700D03*
X130000000Y-85893700D03*
X127460000Y-85893700D03*
D20*
X114959000Y-67900000D03*
D21*
X116229000Y-65830000D03*
X117499000Y-67900000D03*
D18*
X149500000Y-67301700D03*
D31*
X143500000Y-71420000D03*
D17*
X143500000Y-81580000D03*
M02*
