G04 #@! TF.GenerationSoftware,KiCad,Pcbnew,10.0.5-71-g2cb2c974e9*
G04 #@! TF.CreationDate,2026-08-27T22:08:04-04:00*
G04 #@! TF.ProjectId,Fury-Taur,46757279-2d54-4617-9572-2e6b69636164,rev?*
G04 #@! TF.SameCoordinates,Original*
G04 #@! TF.FileFunction,Soldermask,Bot*
G04 #@! TF.FilePolarity,Negative*
%FSLAX46Y46*%
G04 Gerber Fmt 4.6, Leading zero omitted, Abs format (unit mm)*
G04 Created by KiCad (PCBNEW 10.0.5-71-g2cb2c974e9) date 2026-08-27 22:08:04*
%MOMM*%
%LPD*%
G01*
G04 APERTURE LIST*
G04 Aperture macros list*
%AMRoundRect*
0 Rectangle with rounded corners*
0 $1 Rounding radius*
0 $2 $3 $4 $5 $6 $7 $8 $9 X,Y pos of 4 corners*
0 Add a 4 corners polygon primitive as box body*
4,1,4,$2,$3,$4,$5,$6,$7,$8,$9,$2,$3,0*
0 Add four circle primitives for the rounded corners*
1,1,$1+$1,$2,$3*
1,1,$1+$1,$4,$5*
1,1,$1+$1,$6,$7*
1,1,$1+$1,$8,$9*
0 Add four rect primitives between the rounded corners*
20,1,$1+$1,$2,$3,$4,$5,0*
20,1,$1+$1,$4,$5,$6,$7,0*
20,1,$1+$1,$6,$7,$8,$9,0*
20,1,$1+$1,$8,$9,$2,$3,0*%
G04 Aperture macros list end*
%ADD10C,1.440000*%
%ADD11C,1.600000*%
%ADD12C,2.400000*%
%ADD13RoundRect,0.250001X-0.949999X0.949999X-0.949999X-0.949999X0.949999X-0.949999X0.949999X0.949999X0*%
%ADD14RoundRect,0.250000X-0.600000X-0.600000X0.600000X-0.600000X0.600000X0.600000X-0.600000X0.600000X0*%
%ADD15C,1.648000*%
%ADD16RoundRect,0.250000X-0.550000X0.550000X-0.550000X-0.550000X0.550000X-0.550000X0.550000X0.550000X0*%
%ADD17O,3.000000X1.200000*%
%ADD18R,1.100000X1.800000*%
%ADD19RoundRect,0.275000X-0.275000X-0.625000X0.275000X-0.625000X0.275000X0.625000X-0.275000X0.625000X0*%
%ADD20C,1.400000*%
%ADD21C,1.450000*%
%ADD22RoundRect,0.250001X0.949999X-0.949999X0.949999X0.949999X-0.949999X0.949999X-0.949999X-0.949999X0*%
%ADD23RoundRect,0.249999X0.850001X-0.850001X0.850001X0.850001X-0.850001X0.850001X-0.850001X-0.850001X0*%
%ADD24C,2.200000*%
%ADD25O,2.200000X3.500000*%
%ADD26R,1.500000X2.500000*%
%ADD27O,1.500000X2.500000*%
%ADD28O,1.200000X3.200000*%
%ADD29RoundRect,0.249999X-0.850001X0.850001X-0.850001X-0.850001X0.850001X-0.850001X0.850001X0.850001X0*%
G04 APERTURE END LIST*
D10*
X143040000Y-66500000D03*
X140500000Y-66500000D03*
X137960000Y-66500000D03*
D11*
X126614500Y-67000000D03*
X121614500Y-67000000D03*
D12*
X82000000Y-83000000D03*
X82000000Y-79500000D03*
X82000000Y-76000000D03*
X82000000Y-72500000D03*
D13*
X82000000Y-69000000D03*
D14*
X154000000Y-85500000D03*
D10*
X153580000Y-66500000D03*
X151040000Y-66500000D03*
X148500000Y-66500000D03*
D15*
X151000000Y-83000000D03*
D16*
X145500000Y-71250000D03*
D11*
X145500000Y-81410000D03*
D17*
X87750000Y-86400000D03*
D11*
X132500000Y-78000000D03*
X127500000Y-78000000D03*
X106520000Y-84000000D03*
X104020000Y-84000000D03*
X121200000Y-72500000D03*
X116200000Y-72500000D03*
X107540000Y-70500000D03*
X102540000Y-70500000D03*
X121000000Y-78000000D03*
X116000000Y-78000000D03*
D18*
X130730000Y-67920000D03*
D19*
X132000000Y-65850000D03*
X133270000Y-67920000D03*
D20*
X101000000Y-76300000D03*
X108620000Y-76300000D03*
D21*
X88000000Y-65500000D03*
X93000000Y-65500000D03*
X98000000Y-65500000D03*
D14*
X151000000Y-85500000D03*
D20*
X111500000Y-83000000D03*
X111500000Y-75380000D03*
X124000000Y-72380000D03*
X124000000Y-80000000D03*
D15*
X154000000Y-83000000D03*
D22*
X152500000Y-79500000D03*
D12*
X152500000Y-76000000D03*
X152500000Y-72500000D03*
D10*
X121040000Y-85893700D03*
X118500000Y-85893700D03*
X115960000Y-85893700D03*
D11*
X111500000Y-73000000D03*
X111500000Y-68000000D03*
D23*
X136850000Y-81660000D03*
D24*
X136850000Y-71500000D03*
D25*
X144600000Y-86000000D03*
X136400000Y-86000000D03*
D26*
X142500000Y-86000000D03*
D27*
X140500000Y-86000000D03*
X138500000Y-86000000D03*
D28*
X90500000Y-73500000D03*
X90500000Y-77500000D03*
X90500000Y-81500000D03*
X95500000Y-73500000D03*
X95500000Y-77500000D03*
X95500000Y-81500000D03*
D17*
X93000000Y-86400000D03*
D10*
X132540000Y-85893700D03*
X130000000Y-85893700D03*
X127460000Y-85893700D03*
D18*
X114959000Y-67920000D03*
D19*
X116229000Y-65850000D03*
X117499000Y-67920000D03*
D29*
X140500000Y-71500000D03*
D24*
X140500000Y-81660000D03*
M02*
