G04 #@! TF.GenerationSoftware,KiCad,Pcbnew,10.0.5-71-g2cb2c974e9*
G04 #@! TF.CreationDate,2026-09-09T17:27:37-04:00*
G04 #@! TF.ProjectId,Fury-Taur,46757279-2d54-4617-9572-2e6b69636164,rev?*
G04 #@! TF.SameCoordinates,Original*
G04 #@! TF.FileFunction,Legend,Top*
G04 #@! TF.FilePolarity,Positive*
%FSLAX46Y46*%
G04 Gerber Fmt 4.6, Leading zero omitted, Abs format (unit mm)*
G04 Created by KiCad (PCBNEW 10.0.5-71-g2cb2c974e9) date 2026-09-09 17:27:37*
%MOMM*%
%LPD*%
G01*
G04 APERTURE LIST*
G04 Aperture macros list*
%AMRoundRect*
0 Rectangle with rounded corners*
0 $1 Rounding radius*
0 $2 $3 $4 $5 $6 $7 $8 $9 X,Y pos of 4 corners*
0 Add a 4 corners polygon primitive as box body*
4,1,4,$2,$3,$4,$5,$6,$7,$8,$9,$2,$3,0*
0 Add four circle primitives for the rounded corners*
1,1,$1+$1,$2,$3*
1,1,$1+$1,$4,$5*
1,1,$1+$1,$6,$7*
1,1,$1+$1,$8,$9*
0 Add four rect primitives between the rounded corners*
20,1,$1+$1,$2,$3,$4,$5,0*
20,1,$1+$1,$4,$5,$6,$7,0*
20,1,$1+$1,$6,$7,$8,$9,0*
20,1,$1+$1,$8,$9,$2,$3,0*%
G04 Aperture macros list end*
%ADD10C,0.100000*%
%ADD11C,0.090000*%
%ADD12C,0.108000*%
%ADD13C,0.150000*%
%ADD14C,0.300000*%
%ADD15C,0.120000*%
%ADD16C,1.440000*%
%ADD17C,2.400000*%
%ADD18RoundRect,0.250001X-0.949999X0.949999X-0.949999X-0.949999X0.949999X-0.949999X0.949999X0.949999X0*%
%ADD19RoundRect,0.250000X-0.600000X-0.600000X0.600000X-0.600000X0.600000X0.600000X-0.600000X0.600000X0*%
%ADD20C,1.648000*%
%ADD21RoundRect,0.250000X-0.550000X-0.550000X0.550000X-0.550000X0.550000X0.550000X-0.550000X0.550000X0*%
%ADD22C,1.600000*%
%ADD23O,3.000000X1.200000*%
%ADD24R,1.000000X1.000000*%
%ADD25R,1.100000X1.800000*%
%ADD26RoundRect,0.275000X-0.275000X-0.625000X0.275000X-0.625000X0.275000X0.625000X-0.275000X0.625000X0*%
%ADD27C,1.400000*%
%ADD28C,1.450000*%
%ADD29RoundRect,0.250001X0.949999X-0.949999X0.949999X0.949999X-0.949999X0.949999X-0.949999X-0.949999X0*%
%ADD30RoundRect,0.249999X0.850001X-0.850001X0.850001X0.850001X-0.850001X0.850001X-0.850001X-0.850001X0*%
%ADD31C,2.200000*%
%ADD32O,2.200000X3.500000*%
%ADD33R,1.500000X2.500000*%
%ADD34O,1.500000X2.500000*%
%ADD35O,1.200000X3.200000*%
%ADD36RoundRect,0.249999X-0.850001X0.850001X-0.850001X-0.850001X0.850001X-0.850001X0.850001X0.850001X0*%
G04 APERTURE END LIST*
D10*
X86500000Y-70000000D02*
X99500000Y-70000000D01*
X99500000Y-85000000D01*
X86500000Y-85000000D01*
X86500000Y-70000000D01*
D11*
X150951428Y-68642691D02*
X150882857Y-68608405D01*
X150882857Y-68608405D02*
X150779999Y-68608405D01*
X150779999Y-68608405D02*
X150677142Y-68642691D01*
X150677142Y-68642691D02*
X150608571Y-68711262D01*
X150608571Y-68711262D02*
X150574285Y-68779834D01*
X150574285Y-68779834D02*
X150539999Y-68916977D01*
X150539999Y-68916977D02*
X150539999Y-69019834D01*
X150539999Y-69019834D02*
X150574285Y-69156977D01*
X150574285Y-69156977D02*
X150608571Y-69225548D01*
X150608571Y-69225548D02*
X150677142Y-69294120D01*
X150677142Y-69294120D02*
X150779999Y-69328405D01*
X150779999Y-69328405D02*
X150848571Y-69328405D01*
X150848571Y-69328405D02*
X150951428Y-69294120D01*
X150951428Y-69294120D02*
X150985714Y-69259834D01*
X150985714Y-69259834D02*
X150985714Y-69019834D01*
X150985714Y-69019834D02*
X150848571Y-69019834D01*
X151294285Y-69328405D02*
X151294285Y-68608405D01*
X151294285Y-68608405D02*
X151705714Y-69328405D01*
X151705714Y-69328405D02*
X151705714Y-68608405D01*
X152048571Y-69328405D02*
X152048571Y-68608405D01*
X152048571Y-68608405D02*
X152220000Y-68608405D01*
X152220000Y-68608405D02*
X152322857Y-68642691D01*
X152322857Y-68642691D02*
X152391428Y-68711262D01*
X152391428Y-68711262D02*
X152425714Y-68779834D01*
X152425714Y-68779834D02*
X152460000Y-68916977D01*
X152460000Y-68916977D02*
X152460000Y-69019834D01*
X152460000Y-69019834D02*
X152425714Y-69156977D01*
X152425714Y-69156977D02*
X152391428Y-69225548D01*
X152391428Y-69225548D02*
X152322857Y-69294120D01*
X152322857Y-69294120D02*
X152220000Y-69328405D01*
X152220000Y-69328405D02*
X152048571Y-69328405D01*
D10*
X149431428Y-63896457D02*
X149362857Y-63862171D01*
X149362857Y-63862171D02*
X149294285Y-63793600D01*
X149294285Y-63793600D02*
X149191428Y-63690742D01*
X149191428Y-63690742D02*
X149122857Y-63656457D01*
X149122857Y-63656457D02*
X149054285Y-63656457D01*
X149088571Y-63827885D02*
X149020000Y-63793600D01*
X149020000Y-63793600D02*
X148951428Y-63725028D01*
X148951428Y-63725028D02*
X148917142Y-63587885D01*
X148917142Y-63587885D02*
X148917142Y-63347885D01*
X148917142Y-63347885D02*
X148951428Y-63210742D01*
X148951428Y-63210742D02*
X149020000Y-63142171D01*
X149020000Y-63142171D02*
X149088571Y-63107885D01*
X149088571Y-63107885D02*
X149225714Y-63107885D01*
X149225714Y-63107885D02*
X149294285Y-63142171D01*
X149294285Y-63142171D02*
X149362857Y-63210742D01*
X149362857Y-63210742D02*
X149397142Y-63347885D01*
X149397142Y-63347885D02*
X149397142Y-63587885D01*
X149397142Y-63587885D02*
X149362857Y-63725028D01*
X149362857Y-63725028D02*
X149294285Y-63793600D01*
X149294285Y-63793600D02*
X149225714Y-63827885D01*
X149225714Y-63827885D02*
X149088571Y-63827885D01*
X150082857Y-63827885D02*
X149671428Y-63827885D01*
X149877143Y-63827885D02*
X149877143Y-63107885D01*
X149877143Y-63107885D02*
X149808571Y-63210742D01*
X149808571Y-63210742D02*
X149740000Y-63279314D01*
X149740000Y-63279314D02*
X149671428Y-63313600D01*
X149054286Y-69327885D02*
X149191429Y-69327885D01*
X149191429Y-69327885D02*
X149260000Y-69293600D01*
X149260000Y-69293600D02*
X149294286Y-69259314D01*
X149294286Y-69259314D02*
X149362857Y-69156457D01*
X149362857Y-69156457D02*
X149397143Y-69019314D01*
X149397143Y-69019314D02*
X149397143Y-68745028D01*
X149397143Y-68745028D02*
X149362857Y-68676457D01*
X149362857Y-68676457D02*
X149328572Y-68642171D01*
X149328572Y-68642171D02*
X149260000Y-68607885D01*
X149260000Y-68607885D02*
X149122857Y-68607885D01*
X149122857Y-68607885D02*
X149054286Y-68642171D01*
X149054286Y-68642171D02*
X149020000Y-68676457D01*
X149020000Y-68676457D02*
X148985714Y-68745028D01*
X148985714Y-68745028D02*
X148985714Y-68916457D01*
X148985714Y-68916457D02*
X149020000Y-68985028D01*
X149020000Y-68985028D02*
X149054286Y-69019314D01*
X149054286Y-69019314D02*
X149122857Y-69053600D01*
X149122857Y-69053600D02*
X149260000Y-69053600D01*
X149260000Y-69053600D02*
X149328572Y-69019314D01*
X149328572Y-69019314D02*
X149362857Y-68985028D01*
X149362857Y-68985028D02*
X149397143Y-68916457D01*
X149602857Y-68607885D02*
X149842857Y-69327885D01*
X149842857Y-69327885D02*
X150082857Y-68607885D01*
X151431428Y-63896457D02*
X151362857Y-63862171D01*
X151362857Y-63862171D02*
X151294285Y-63793600D01*
X151294285Y-63793600D02*
X151191428Y-63690742D01*
X151191428Y-63690742D02*
X151122857Y-63656457D01*
X151122857Y-63656457D02*
X151054285Y-63656457D01*
X151088571Y-63827885D02*
X151020000Y-63793600D01*
X151020000Y-63793600D02*
X150951428Y-63725028D01*
X150951428Y-63725028D02*
X150917142Y-63587885D01*
X150917142Y-63587885D02*
X150917142Y-63347885D01*
X150917142Y-63347885D02*
X150951428Y-63210742D01*
X150951428Y-63210742D02*
X151020000Y-63142171D01*
X151020000Y-63142171D02*
X151088571Y-63107885D01*
X151088571Y-63107885D02*
X151225714Y-63107885D01*
X151225714Y-63107885D02*
X151294285Y-63142171D01*
X151294285Y-63142171D02*
X151362857Y-63210742D01*
X151362857Y-63210742D02*
X151397142Y-63347885D01*
X151397142Y-63347885D02*
X151397142Y-63587885D01*
X151397142Y-63587885D02*
X151362857Y-63725028D01*
X151362857Y-63725028D02*
X151294285Y-63793600D01*
X151294285Y-63793600D02*
X151225714Y-63827885D01*
X151225714Y-63827885D02*
X151088571Y-63827885D01*
X151671428Y-63176457D02*
X151705714Y-63142171D01*
X151705714Y-63142171D02*
X151774286Y-63107885D01*
X151774286Y-63107885D02*
X151945714Y-63107885D01*
X151945714Y-63107885D02*
X152014286Y-63142171D01*
X152014286Y-63142171D02*
X152048571Y-63176457D01*
X152048571Y-63176457D02*
X152082857Y-63245028D01*
X152082857Y-63245028D02*
X152082857Y-63313600D01*
X152082857Y-63313600D02*
X152048571Y-63416457D01*
X152048571Y-63416457D02*
X151637143Y-63827885D01*
X151637143Y-63827885D02*
X152082857Y-63827885D01*
D12*
X104354286Y-80577469D02*
X103942857Y-80577469D01*
X104148572Y-80577469D02*
X104148572Y-79857469D01*
X104148572Y-79857469D02*
X104080000Y-79960326D01*
X104080000Y-79960326D02*
X104011429Y-80028898D01*
X104011429Y-80028898D02*
X103942857Y-80063184D01*
X104800000Y-79857469D02*
X104868571Y-79857469D01*
X104868571Y-79857469D02*
X104937143Y-79891755D01*
X104937143Y-79891755D02*
X104971429Y-79926041D01*
X104971429Y-79926041D02*
X105005714Y-79994612D01*
X105005714Y-79994612D02*
X105040000Y-80131755D01*
X105040000Y-80131755D02*
X105040000Y-80303184D01*
X105040000Y-80303184D02*
X105005714Y-80440326D01*
X105005714Y-80440326D02*
X104971429Y-80508898D01*
X104971429Y-80508898D02*
X104937143Y-80543184D01*
X104937143Y-80543184D02*
X104868571Y-80577469D01*
X104868571Y-80577469D02*
X104800000Y-80577469D01*
X104800000Y-80577469D02*
X104731429Y-80543184D01*
X104731429Y-80543184D02*
X104697143Y-80508898D01*
X104697143Y-80508898D02*
X104662857Y-80440326D01*
X104662857Y-80440326D02*
X104628571Y-80303184D01*
X104628571Y-80303184D02*
X104628571Y-80131755D01*
X104628571Y-80131755D02*
X104662857Y-79994612D01*
X104662857Y-79994612D02*
X104697143Y-79926041D01*
X104697143Y-79926041D02*
X104731429Y-79891755D01*
X104731429Y-79891755D02*
X104800000Y-79857469D01*
X105485714Y-79857469D02*
X105554285Y-79857469D01*
X105554285Y-79857469D02*
X105622857Y-79891755D01*
X105622857Y-79891755D02*
X105657143Y-79926041D01*
X105657143Y-79926041D02*
X105691428Y-79994612D01*
X105691428Y-79994612D02*
X105725714Y-80131755D01*
X105725714Y-80131755D02*
X105725714Y-80303184D01*
X105725714Y-80303184D02*
X105691428Y-80440326D01*
X105691428Y-80440326D02*
X105657143Y-80508898D01*
X105657143Y-80508898D02*
X105622857Y-80543184D01*
X105622857Y-80543184D02*
X105554285Y-80577469D01*
X105554285Y-80577469D02*
X105485714Y-80577469D01*
X105485714Y-80577469D02*
X105417143Y-80543184D01*
X105417143Y-80543184D02*
X105382857Y-80508898D01*
X105382857Y-80508898D02*
X105348571Y-80440326D01*
X105348571Y-80440326D02*
X105314285Y-80303184D01*
X105314285Y-80303184D02*
X105314285Y-80131755D01*
X105314285Y-80131755D02*
X105348571Y-79994612D01*
X105348571Y-79994612D02*
X105382857Y-79926041D01*
X105382857Y-79926041D02*
X105417143Y-79891755D01*
X105417143Y-79891755D02*
X105485714Y-79857469D01*
X106034285Y-80097469D02*
X106034285Y-80817469D01*
X106377142Y-80474612D02*
X106411428Y-80543184D01*
X106411428Y-80543184D02*
X106479999Y-80577469D01*
X106034285Y-80474612D02*
X106068571Y-80543184D01*
X106068571Y-80543184D02*
X106137142Y-80577469D01*
X106137142Y-80577469D02*
X106274285Y-80577469D01*
X106274285Y-80577469D02*
X106342857Y-80543184D01*
X106342857Y-80543184D02*
X106377142Y-80474612D01*
X106377142Y-80474612D02*
X106377142Y-80097469D01*
X107028571Y-80200326D02*
X106788571Y-80200326D01*
X106788571Y-80577469D02*
X106788571Y-79857469D01*
X106788571Y-79857469D02*
X107131428Y-79857469D01*
X116160428Y-67896041D02*
X116091857Y-67861755D01*
X116091857Y-67861755D02*
X116023285Y-67793184D01*
X116023285Y-67793184D02*
X115920428Y-67690326D01*
X115920428Y-67690326D02*
X115851857Y-67656041D01*
X115851857Y-67656041D02*
X115783285Y-67656041D01*
X115817571Y-67827469D02*
X115749000Y-67793184D01*
X115749000Y-67793184D02*
X115680428Y-67724612D01*
X115680428Y-67724612D02*
X115646142Y-67587469D01*
X115646142Y-67587469D02*
X115646142Y-67347469D01*
X115646142Y-67347469D02*
X115680428Y-67210326D01*
X115680428Y-67210326D02*
X115749000Y-67141755D01*
X115749000Y-67141755D02*
X115817571Y-67107469D01*
X115817571Y-67107469D02*
X115954714Y-67107469D01*
X115954714Y-67107469D02*
X116023285Y-67141755D01*
X116023285Y-67141755D02*
X116091857Y-67210326D01*
X116091857Y-67210326D02*
X116126142Y-67347469D01*
X116126142Y-67347469D02*
X116126142Y-67587469D01*
X116126142Y-67587469D02*
X116091857Y-67724612D01*
X116091857Y-67724612D02*
X116023285Y-67793184D01*
X116023285Y-67793184D02*
X115954714Y-67827469D01*
X115954714Y-67827469D02*
X115817571Y-67827469D01*
X116811857Y-67827469D02*
X116400428Y-67827469D01*
X116606143Y-67827469D02*
X116606143Y-67107469D01*
X116606143Y-67107469D02*
X116537571Y-67210326D01*
X116537571Y-67210326D02*
X116469000Y-67278898D01*
X116469000Y-67278898D02*
X116400428Y-67313184D01*
X117762857Y-77847469D02*
X117762857Y-78327469D01*
X117591428Y-77573184D02*
X117419999Y-78087469D01*
X117419999Y-78087469D02*
X117865714Y-78087469D01*
X118071428Y-77607469D02*
X118551428Y-77607469D01*
X118551428Y-77607469D02*
X118242856Y-78327469D01*
X118825713Y-77847469D02*
X118825713Y-78567469D01*
X118825713Y-77881755D02*
X118894285Y-77847469D01*
X118894285Y-77847469D02*
X119031427Y-77847469D01*
X119031427Y-77847469D02*
X119099999Y-77881755D01*
X119099999Y-77881755D02*
X119134285Y-77916041D01*
X119134285Y-77916041D02*
X119168570Y-77984612D01*
X119168570Y-77984612D02*
X119168570Y-78190326D01*
X119168570Y-78190326D02*
X119134285Y-78258898D01*
X119134285Y-78258898D02*
X119099999Y-78293184D01*
X119099999Y-78293184D02*
X119031427Y-78327469D01*
X119031427Y-78327469D02*
X118894285Y-78327469D01*
X118894285Y-78327469D02*
X118825713Y-78293184D01*
X119374285Y-77847469D02*
X119648571Y-77847469D01*
X119477142Y-78327469D02*
X119477142Y-77710326D01*
X119477142Y-77710326D02*
X119511428Y-77641755D01*
X119511428Y-77641755D02*
X119579999Y-77607469D01*
X119579999Y-77607469D02*
X119648571Y-77607469D01*
X123701428Y-67896041D02*
X123632857Y-67861755D01*
X123632857Y-67861755D02*
X123564285Y-67793184D01*
X123564285Y-67793184D02*
X123461428Y-67690326D01*
X123461428Y-67690326D02*
X123392857Y-67656041D01*
X123392857Y-67656041D02*
X123324285Y-67656041D01*
X123358571Y-67827469D02*
X123290000Y-67793184D01*
X123290000Y-67793184D02*
X123221428Y-67724612D01*
X123221428Y-67724612D02*
X123187142Y-67587469D01*
X123187142Y-67587469D02*
X123187142Y-67347469D01*
X123187142Y-67347469D02*
X123221428Y-67210326D01*
X123221428Y-67210326D02*
X123290000Y-67141755D01*
X123290000Y-67141755D02*
X123358571Y-67107469D01*
X123358571Y-67107469D02*
X123495714Y-67107469D01*
X123495714Y-67107469D02*
X123564285Y-67141755D01*
X123564285Y-67141755D02*
X123632857Y-67210326D01*
X123632857Y-67210326D02*
X123667142Y-67347469D01*
X123667142Y-67347469D02*
X123667142Y-67587469D01*
X123667142Y-67587469D02*
X123632857Y-67724612D01*
X123632857Y-67724612D02*
X123564285Y-67793184D01*
X123564285Y-67793184D02*
X123495714Y-67827469D01*
X123495714Y-67827469D02*
X123358571Y-67827469D01*
X123941428Y-67176041D02*
X123975714Y-67141755D01*
X123975714Y-67141755D02*
X124044286Y-67107469D01*
X124044286Y-67107469D02*
X124215714Y-67107469D01*
X124215714Y-67107469D02*
X124284286Y-67141755D01*
X124284286Y-67141755D02*
X124318571Y-67176041D01*
X124318571Y-67176041D02*
X124352857Y-67244612D01*
X124352857Y-67244612D02*
X124352857Y-67313184D01*
X124352857Y-67313184D02*
X124318571Y-67416041D01*
X124318571Y-67416041D02*
X123907143Y-67827469D01*
X123907143Y-67827469D02*
X124352857Y-67827469D01*
X129262857Y-77847469D02*
X129262857Y-78327469D01*
X129091428Y-77573184D02*
X128919999Y-78087469D01*
X128919999Y-78087469D02*
X129365714Y-78087469D01*
X129571428Y-77607469D02*
X130051428Y-77607469D01*
X130051428Y-77607469D02*
X129742856Y-78327469D01*
X130325713Y-77847469D02*
X130325713Y-78567469D01*
X130325713Y-77881755D02*
X130394285Y-77847469D01*
X130394285Y-77847469D02*
X130531427Y-77847469D01*
X130531427Y-77847469D02*
X130599999Y-77881755D01*
X130599999Y-77881755D02*
X130634285Y-77916041D01*
X130634285Y-77916041D02*
X130668570Y-77984612D01*
X130668570Y-77984612D02*
X130668570Y-78190326D01*
X130668570Y-78190326D02*
X130634285Y-78258898D01*
X130634285Y-78258898D02*
X130599999Y-78293184D01*
X130599999Y-78293184D02*
X130531427Y-78327469D01*
X130531427Y-78327469D02*
X130394285Y-78327469D01*
X130394285Y-78327469D02*
X130325713Y-78293184D01*
X130874285Y-77847469D02*
X131148571Y-77847469D01*
X130977142Y-78327469D02*
X130977142Y-77710326D01*
X130977142Y-77710326D02*
X131011428Y-77641755D01*
X131011428Y-77641755D02*
X131079999Y-77607469D01*
X131079999Y-77607469D02*
X131148571Y-77607469D01*
D10*
X108843884Y-84076466D02*
X109605789Y-84076466D01*
X109224836Y-84457419D02*
X109224836Y-83695514D01*
D13*
X104643333Y-74954819D02*
X104310000Y-74478628D01*
X104071905Y-74954819D02*
X104071905Y-73954819D01*
X104071905Y-73954819D02*
X104452857Y-73954819D01*
X104452857Y-73954819D02*
X104548095Y-74002438D01*
X104548095Y-74002438D02*
X104595714Y-74050057D01*
X104595714Y-74050057D02*
X104643333Y-74145295D01*
X104643333Y-74145295D02*
X104643333Y-74288152D01*
X104643333Y-74288152D02*
X104595714Y-74383390D01*
X104595714Y-74383390D02*
X104548095Y-74431009D01*
X104548095Y-74431009D02*
X104452857Y-74478628D01*
X104452857Y-74478628D02*
X104071905Y-74478628D01*
X105595714Y-74954819D02*
X105024286Y-74954819D01*
X105310000Y-74954819D02*
X105310000Y-73954819D01*
X105310000Y-73954819D02*
X105214762Y-74097676D01*
X105214762Y-74097676D02*
X105119524Y-74192914D01*
X105119524Y-74192914D02*
X105024286Y-74240533D01*
X104833333Y-68859580D02*
X104785714Y-68907200D01*
X104785714Y-68907200D02*
X104642857Y-68954819D01*
X104642857Y-68954819D02*
X104547619Y-68954819D01*
X104547619Y-68954819D02*
X104404762Y-68907200D01*
X104404762Y-68907200D02*
X104309524Y-68811961D01*
X104309524Y-68811961D02*
X104261905Y-68716723D01*
X104261905Y-68716723D02*
X104214286Y-68526247D01*
X104214286Y-68526247D02*
X104214286Y-68383390D01*
X104214286Y-68383390D02*
X104261905Y-68192914D01*
X104261905Y-68192914D02*
X104309524Y-68097676D01*
X104309524Y-68097676D02*
X104404762Y-68002438D01*
X104404762Y-68002438D02*
X104547619Y-67954819D01*
X104547619Y-67954819D02*
X104642857Y-67954819D01*
X104642857Y-67954819D02*
X104785714Y-68002438D01*
X104785714Y-68002438D02*
X104833333Y-68050057D01*
X105785714Y-68954819D02*
X105214286Y-68954819D01*
X105500000Y-68954819D02*
X105500000Y-67954819D01*
X105500000Y-67954819D02*
X105404762Y-68097676D01*
X105404762Y-68097676D02*
X105309524Y-68192914D01*
X105309524Y-68192914D02*
X105214286Y-68240533D01*
X105353333Y-88109580D02*
X105305714Y-88157200D01*
X105305714Y-88157200D02*
X105162857Y-88204819D01*
X105162857Y-88204819D02*
X105067619Y-88204819D01*
X105067619Y-88204819D02*
X104924762Y-88157200D01*
X104924762Y-88157200D02*
X104829524Y-88061961D01*
X104829524Y-88061961D02*
X104781905Y-87966723D01*
X104781905Y-87966723D02*
X104734286Y-87776247D01*
X104734286Y-87776247D02*
X104734286Y-87633390D01*
X104734286Y-87633390D02*
X104781905Y-87442914D01*
X104781905Y-87442914D02*
X104829524Y-87347676D01*
X104829524Y-87347676D02*
X104924762Y-87252438D01*
X104924762Y-87252438D02*
X105067619Y-87204819D01*
X105067619Y-87204819D02*
X105162857Y-87204819D01*
X105162857Y-87204819D02*
X105305714Y-87252438D01*
X105305714Y-87252438D02*
X105353333Y-87300057D01*
X106258095Y-87204819D02*
X105781905Y-87204819D01*
X105781905Y-87204819D02*
X105734286Y-87681009D01*
X105734286Y-87681009D02*
X105781905Y-87633390D01*
X105781905Y-87633390D02*
X105877143Y-87585771D01*
X105877143Y-87585771D02*
X106115238Y-87585771D01*
X106115238Y-87585771D02*
X106210476Y-87633390D01*
X106210476Y-87633390D02*
X106258095Y-87681009D01*
X106258095Y-87681009D02*
X106305714Y-87776247D01*
X106305714Y-87776247D02*
X106305714Y-88014342D01*
X106305714Y-88014342D02*
X106258095Y-88109580D01*
X106258095Y-88109580D02*
X106210476Y-88157200D01*
X106210476Y-88157200D02*
X106115238Y-88204819D01*
X106115238Y-88204819D02*
X105877143Y-88204819D01*
X105877143Y-88204819D02*
X105781905Y-88157200D01*
X105781905Y-88157200D02*
X105734286Y-88109580D01*
X114943285Y-69744819D02*
X114943285Y-70459104D01*
X114943285Y-70459104D02*
X114895666Y-70601961D01*
X114895666Y-70601961D02*
X114800428Y-70697200D01*
X114800428Y-70697200D02*
X114657571Y-70744819D01*
X114657571Y-70744819D02*
X114562333Y-70744819D01*
X115371857Y-69840057D02*
X115419476Y-69792438D01*
X115419476Y-69792438D02*
X115514714Y-69744819D01*
X115514714Y-69744819D02*
X115752809Y-69744819D01*
X115752809Y-69744819D02*
X115848047Y-69792438D01*
X115848047Y-69792438D02*
X115895666Y-69840057D01*
X115895666Y-69840057D02*
X115943285Y-69935295D01*
X115943285Y-69935295D02*
X115943285Y-70030533D01*
X115943285Y-70030533D02*
X115895666Y-70173390D01*
X115895666Y-70173390D02*
X115324238Y-70744819D01*
X115324238Y-70744819D02*
X115943285Y-70744819D01*
X116562333Y-69744819D02*
X116657571Y-69744819D01*
X116657571Y-69744819D02*
X116752809Y-69792438D01*
X116752809Y-69792438D02*
X116800428Y-69840057D01*
X116800428Y-69840057D02*
X116848047Y-69935295D01*
X116848047Y-69935295D02*
X116895666Y-70125771D01*
X116895666Y-70125771D02*
X116895666Y-70363866D01*
X116895666Y-70363866D02*
X116848047Y-70554342D01*
X116848047Y-70554342D02*
X116800428Y-70649580D01*
X116800428Y-70649580D02*
X116752809Y-70697200D01*
X116752809Y-70697200D02*
X116657571Y-70744819D01*
X116657571Y-70744819D02*
X116562333Y-70744819D01*
X116562333Y-70744819D02*
X116467095Y-70697200D01*
X116467095Y-70697200D02*
X116419476Y-70649580D01*
X116419476Y-70649580D02*
X116371857Y-70554342D01*
X116371857Y-70554342D02*
X116324238Y-70363866D01*
X116324238Y-70363866D02*
X116324238Y-70125771D01*
X116324238Y-70125771D02*
X116371857Y-69935295D01*
X116371857Y-69935295D02*
X116419476Y-69840057D01*
X116419476Y-69840057D02*
X116467095Y-69792438D01*
X116467095Y-69792438D02*
X116562333Y-69744819D01*
X117848047Y-70744819D02*
X117276619Y-70744819D01*
X117562333Y-70744819D02*
X117562333Y-69744819D01*
X117562333Y-69744819D02*
X117467095Y-69887676D01*
X117467095Y-69887676D02*
X117371857Y-69982914D01*
X117371857Y-69982914D02*
X117276619Y-70030533D01*
X118333333Y-80859580D02*
X118285714Y-80907200D01*
X118285714Y-80907200D02*
X118142857Y-80954819D01*
X118142857Y-80954819D02*
X118047619Y-80954819D01*
X118047619Y-80954819D02*
X117904762Y-80907200D01*
X117904762Y-80907200D02*
X117809524Y-80811961D01*
X117809524Y-80811961D02*
X117761905Y-80716723D01*
X117761905Y-80716723D02*
X117714286Y-80526247D01*
X117714286Y-80526247D02*
X117714286Y-80383390D01*
X117714286Y-80383390D02*
X117761905Y-80192914D01*
X117761905Y-80192914D02*
X117809524Y-80097676D01*
X117809524Y-80097676D02*
X117904762Y-80002438D01*
X117904762Y-80002438D02*
X118047619Y-79954819D01*
X118047619Y-79954819D02*
X118142857Y-79954819D01*
X118142857Y-79954819D02*
X118285714Y-80002438D01*
X118285714Y-80002438D02*
X118333333Y-80050057D01*
X118714286Y-80050057D02*
X118761905Y-80002438D01*
X118761905Y-80002438D02*
X118857143Y-79954819D01*
X118857143Y-79954819D02*
X119095238Y-79954819D01*
X119095238Y-79954819D02*
X119190476Y-80002438D01*
X119190476Y-80002438D02*
X119238095Y-80050057D01*
X119238095Y-80050057D02*
X119285714Y-80145295D01*
X119285714Y-80145295D02*
X119285714Y-80240533D01*
X119285714Y-80240533D02*
X119238095Y-80383390D01*
X119238095Y-80383390D02*
X118666667Y-80954819D01*
X118666667Y-80954819D02*
X119285714Y-80954819D01*
X116428571Y-82783757D02*
X116333333Y-82736138D01*
X116333333Y-82736138D02*
X116238095Y-82640900D01*
X116238095Y-82640900D02*
X116095238Y-82498042D01*
X116095238Y-82498042D02*
X116000000Y-82450423D01*
X116000000Y-82450423D02*
X115904762Y-82450423D01*
X115952381Y-82688519D02*
X115857143Y-82640900D01*
X115857143Y-82640900D02*
X115761905Y-82545661D01*
X115761905Y-82545661D02*
X115714286Y-82355185D01*
X115714286Y-82355185D02*
X115714286Y-82021852D01*
X115714286Y-82021852D02*
X115761905Y-81831376D01*
X115761905Y-81831376D02*
X115857143Y-81736138D01*
X115857143Y-81736138D02*
X115952381Y-81688519D01*
X115952381Y-81688519D02*
X116142857Y-81688519D01*
X116142857Y-81688519D02*
X116238095Y-81736138D01*
X116238095Y-81736138D02*
X116333333Y-81831376D01*
X116333333Y-81831376D02*
X116380952Y-82021852D01*
X116380952Y-82021852D02*
X116380952Y-82355185D01*
X116380952Y-82355185D02*
X116333333Y-82545661D01*
X116333333Y-82545661D02*
X116238095Y-82640900D01*
X116238095Y-82640900D02*
X116142857Y-82688519D01*
X116142857Y-82688519D02*
X115952381Y-82688519D01*
X117333333Y-82688519D02*
X116761905Y-82688519D01*
X117047619Y-82688519D02*
X117047619Y-81688519D01*
X117047619Y-81688519D02*
X116952381Y-81831376D01*
X116952381Y-81831376D02*
X116857143Y-81926614D01*
X116857143Y-81926614D02*
X116761905Y-81974233D01*
X118857143Y-82164709D02*
X119000000Y-82212328D01*
X119000000Y-82212328D02*
X119047619Y-82259947D01*
X119047619Y-82259947D02*
X119095238Y-82355185D01*
X119095238Y-82355185D02*
X119095238Y-82498042D01*
X119095238Y-82498042D02*
X119047619Y-82593280D01*
X119047619Y-82593280D02*
X119000000Y-82640900D01*
X119000000Y-82640900D02*
X118904762Y-82688519D01*
X118904762Y-82688519D02*
X118523810Y-82688519D01*
X118523810Y-82688519D02*
X118523810Y-81688519D01*
X118523810Y-81688519D02*
X118857143Y-81688519D01*
X118857143Y-81688519D02*
X118952381Y-81736138D01*
X118952381Y-81736138D02*
X119000000Y-81783757D01*
X119000000Y-81783757D02*
X119047619Y-81878995D01*
X119047619Y-81878995D02*
X119047619Y-81974233D01*
X119047619Y-81974233D02*
X119000000Y-82069471D01*
X119000000Y-82069471D02*
X118952381Y-82117090D01*
X118952381Y-82117090D02*
X118857143Y-82164709D01*
X118857143Y-82164709D02*
X118523810Y-82164709D01*
X119523810Y-82688519D02*
X119523810Y-82021852D01*
X119523810Y-81688519D02*
X119476191Y-81736138D01*
X119476191Y-81736138D02*
X119523810Y-81783757D01*
X119523810Y-81783757D02*
X119571429Y-81736138D01*
X119571429Y-81736138D02*
X119523810Y-81688519D01*
X119523810Y-81688519D02*
X119523810Y-81783757D01*
X120428571Y-82688519D02*
X120428571Y-82164709D01*
X120428571Y-82164709D02*
X120380952Y-82069471D01*
X120380952Y-82069471D02*
X120285714Y-82021852D01*
X120285714Y-82021852D02*
X120095238Y-82021852D01*
X120095238Y-82021852D02*
X120000000Y-82069471D01*
X120428571Y-82640900D02*
X120333333Y-82688519D01*
X120333333Y-82688519D02*
X120095238Y-82688519D01*
X120095238Y-82688519D02*
X120000000Y-82640900D01*
X120000000Y-82640900D02*
X119952381Y-82545661D01*
X119952381Y-82545661D02*
X119952381Y-82450423D01*
X119952381Y-82450423D02*
X120000000Y-82355185D01*
X120000000Y-82355185D02*
X120095238Y-82307566D01*
X120095238Y-82307566D02*
X120333333Y-82307566D01*
X120333333Y-82307566D02*
X120428571Y-82259947D01*
X120857143Y-82640900D02*
X120952381Y-82688519D01*
X120952381Y-82688519D02*
X121142857Y-82688519D01*
X121142857Y-82688519D02*
X121238095Y-82640900D01*
X121238095Y-82640900D02*
X121285714Y-82545661D01*
X121285714Y-82545661D02*
X121285714Y-82498042D01*
X121285714Y-82498042D02*
X121238095Y-82402804D01*
X121238095Y-82402804D02*
X121142857Y-82355185D01*
X121142857Y-82355185D02*
X121000000Y-82355185D01*
X121000000Y-82355185D02*
X120904762Y-82307566D01*
X120904762Y-82307566D02*
X120857143Y-82212328D01*
X120857143Y-82212328D02*
X120857143Y-82164709D01*
X120857143Y-82164709D02*
X120904762Y-82069471D01*
X120904762Y-82069471D02*
X121000000Y-82021852D01*
X121000000Y-82021852D02*
X121142857Y-82021852D01*
X121142857Y-82021852D02*
X121238095Y-82069471D01*
X118533333Y-75359580D02*
X118485714Y-75407200D01*
X118485714Y-75407200D02*
X118342857Y-75454819D01*
X118342857Y-75454819D02*
X118247619Y-75454819D01*
X118247619Y-75454819D02*
X118104762Y-75407200D01*
X118104762Y-75407200D02*
X118009524Y-75311961D01*
X118009524Y-75311961D02*
X117961905Y-75216723D01*
X117961905Y-75216723D02*
X117914286Y-75026247D01*
X117914286Y-75026247D02*
X117914286Y-74883390D01*
X117914286Y-74883390D02*
X117961905Y-74692914D01*
X117961905Y-74692914D02*
X118009524Y-74597676D01*
X118009524Y-74597676D02*
X118104762Y-74502438D01*
X118104762Y-74502438D02*
X118247619Y-74454819D01*
X118247619Y-74454819D02*
X118342857Y-74454819D01*
X118342857Y-74454819D02*
X118485714Y-74502438D01*
X118485714Y-74502438D02*
X118533333Y-74550057D01*
X119390476Y-74454819D02*
X119200000Y-74454819D01*
X119200000Y-74454819D02*
X119104762Y-74502438D01*
X119104762Y-74502438D02*
X119057143Y-74550057D01*
X119057143Y-74550057D02*
X118961905Y-74692914D01*
X118961905Y-74692914D02*
X118914286Y-74883390D01*
X118914286Y-74883390D02*
X118914286Y-75264342D01*
X118914286Y-75264342D02*
X118961905Y-75359580D01*
X118961905Y-75359580D02*
X119009524Y-75407200D01*
X119009524Y-75407200D02*
X119104762Y-75454819D01*
X119104762Y-75454819D02*
X119295238Y-75454819D01*
X119295238Y-75454819D02*
X119390476Y-75407200D01*
X119390476Y-75407200D02*
X119438095Y-75359580D01*
X119438095Y-75359580D02*
X119485714Y-75264342D01*
X119485714Y-75264342D02*
X119485714Y-75026247D01*
X119485714Y-75026247D02*
X119438095Y-74931009D01*
X119438095Y-74931009D02*
X119390476Y-74883390D01*
X119390476Y-74883390D02*
X119295238Y-74835771D01*
X119295238Y-74835771D02*
X119104762Y-74835771D01*
X119104762Y-74835771D02*
X119009524Y-74883390D01*
X119009524Y-74883390D02*
X118961905Y-74931009D01*
X118961905Y-74931009D02*
X118914286Y-75026247D01*
X122484285Y-69744819D02*
X122484285Y-70459104D01*
X122484285Y-70459104D02*
X122436666Y-70601961D01*
X122436666Y-70601961D02*
X122341428Y-70697200D01*
X122341428Y-70697200D02*
X122198571Y-70744819D01*
X122198571Y-70744819D02*
X122103333Y-70744819D01*
X122912857Y-69840057D02*
X122960476Y-69792438D01*
X122960476Y-69792438D02*
X123055714Y-69744819D01*
X123055714Y-69744819D02*
X123293809Y-69744819D01*
X123293809Y-69744819D02*
X123389047Y-69792438D01*
X123389047Y-69792438D02*
X123436666Y-69840057D01*
X123436666Y-69840057D02*
X123484285Y-69935295D01*
X123484285Y-69935295D02*
X123484285Y-70030533D01*
X123484285Y-70030533D02*
X123436666Y-70173390D01*
X123436666Y-70173390D02*
X122865238Y-70744819D01*
X122865238Y-70744819D02*
X123484285Y-70744819D01*
X124103333Y-69744819D02*
X124198571Y-69744819D01*
X124198571Y-69744819D02*
X124293809Y-69792438D01*
X124293809Y-69792438D02*
X124341428Y-69840057D01*
X124341428Y-69840057D02*
X124389047Y-69935295D01*
X124389047Y-69935295D02*
X124436666Y-70125771D01*
X124436666Y-70125771D02*
X124436666Y-70363866D01*
X124436666Y-70363866D02*
X124389047Y-70554342D01*
X124389047Y-70554342D02*
X124341428Y-70649580D01*
X124341428Y-70649580D02*
X124293809Y-70697200D01*
X124293809Y-70697200D02*
X124198571Y-70744819D01*
X124198571Y-70744819D02*
X124103333Y-70744819D01*
X124103333Y-70744819D02*
X124008095Y-70697200D01*
X124008095Y-70697200D02*
X123960476Y-70649580D01*
X123960476Y-70649580D02*
X123912857Y-70554342D01*
X123912857Y-70554342D02*
X123865238Y-70363866D01*
X123865238Y-70363866D02*
X123865238Y-70125771D01*
X123865238Y-70125771D02*
X123912857Y-69935295D01*
X123912857Y-69935295D02*
X123960476Y-69840057D01*
X123960476Y-69840057D02*
X124008095Y-69792438D01*
X124008095Y-69792438D02*
X124103333Y-69744819D01*
X125389047Y-70744819D02*
X124817619Y-70744819D01*
X125103333Y-70744819D02*
X125103333Y-69744819D01*
X125103333Y-69744819D02*
X125008095Y-69887676D01*
X125008095Y-69887676D02*
X124912857Y-69982914D01*
X124912857Y-69982914D02*
X124817619Y-70030533D01*
X129833333Y-80859580D02*
X129785714Y-80907200D01*
X129785714Y-80907200D02*
X129642857Y-80954819D01*
X129642857Y-80954819D02*
X129547619Y-80954819D01*
X129547619Y-80954819D02*
X129404762Y-80907200D01*
X129404762Y-80907200D02*
X129309524Y-80811961D01*
X129309524Y-80811961D02*
X129261905Y-80716723D01*
X129261905Y-80716723D02*
X129214286Y-80526247D01*
X129214286Y-80526247D02*
X129214286Y-80383390D01*
X129214286Y-80383390D02*
X129261905Y-80192914D01*
X129261905Y-80192914D02*
X129309524Y-80097676D01*
X129309524Y-80097676D02*
X129404762Y-80002438D01*
X129404762Y-80002438D02*
X129547619Y-79954819D01*
X129547619Y-79954819D02*
X129642857Y-79954819D01*
X129642857Y-79954819D02*
X129785714Y-80002438D01*
X129785714Y-80002438D02*
X129833333Y-80050057D01*
X130166667Y-79954819D02*
X130833333Y-79954819D01*
X130833333Y-79954819D02*
X130404762Y-80954819D01*
X127928571Y-82783757D02*
X127833333Y-82736138D01*
X127833333Y-82736138D02*
X127738095Y-82640900D01*
X127738095Y-82640900D02*
X127595238Y-82498042D01*
X127595238Y-82498042D02*
X127500000Y-82450423D01*
X127500000Y-82450423D02*
X127404762Y-82450423D01*
X127452381Y-82688519D02*
X127357143Y-82640900D01*
X127357143Y-82640900D02*
X127261905Y-82545661D01*
X127261905Y-82545661D02*
X127214286Y-82355185D01*
X127214286Y-82355185D02*
X127214286Y-82021852D01*
X127214286Y-82021852D02*
X127261905Y-81831376D01*
X127261905Y-81831376D02*
X127357143Y-81736138D01*
X127357143Y-81736138D02*
X127452381Y-81688519D01*
X127452381Y-81688519D02*
X127642857Y-81688519D01*
X127642857Y-81688519D02*
X127738095Y-81736138D01*
X127738095Y-81736138D02*
X127833333Y-81831376D01*
X127833333Y-81831376D02*
X127880952Y-82021852D01*
X127880952Y-82021852D02*
X127880952Y-82355185D01*
X127880952Y-82355185D02*
X127833333Y-82545661D01*
X127833333Y-82545661D02*
X127738095Y-82640900D01*
X127738095Y-82640900D02*
X127642857Y-82688519D01*
X127642857Y-82688519D02*
X127452381Y-82688519D01*
X128261905Y-81783757D02*
X128309524Y-81736138D01*
X128309524Y-81736138D02*
X128404762Y-81688519D01*
X128404762Y-81688519D02*
X128642857Y-81688519D01*
X128642857Y-81688519D02*
X128738095Y-81736138D01*
X128738095Y-81736138D02*
X128785714Y-81783757D01*
X128785714Y-81783757D02*
X128833333Y-81878995D01*
X128833333Y-81878995D02*
X128833333Y-81974233D01*
X128833333Y-81974233D02*
X128785714Y-82117090D01*
X128785714Y-82117090D02*
X128214286Y-82688519D01*
X128214286Y-82688519D02*
X128833333Y-82688519D01*
X130357143Y-82164709D02*
X130500000Y-82212328D01*
X130500000Y-82212328D02*
X130547619Y-82259947D01*
X130547619Y-82259947D02*
X130595238Y-82355185D01*
X130595238Y-82355185D02*
X130595238Y-82498042D01*
X130595238Y-82498042D02*
X130547619Y-82593280D01*
X130547619Y-82593280D02*
X130500000Y-82640900D01*
X130500000Y-82640900D02*
X130404762Y-82688519D01*
X130404762Y-82688519D02*
X130023810Y-82688519D01*
X130023810Y-82688519D02*
X130023810Y-81688519D01*
X130023810Y-81688519D02*
X130357143Y-81688519D01*
X130357143Y-81688519D02*
X130452381Y-81736138D01*
X130452381Y-81736138D02*
X130500000Y-81783757D01*
X130500000Y-81783757D02*
X130547619Y-81878995D01*
X130547619Y-81878995D02*
X130547619Y-81974233D01*
X130547619Y-81974233D02*
X130500000Y-82069471D01*
X130500000Y-82069471D02*
X130452381Y-82117090D01*
X130452381Y-82117090D02*
X130357143Y-82164709D01*
X130357143Y-82164709D02*
X130023810Y-82164709D01*
X131023810Y-82688519D02*
X131023810Y-82021852D01*
X131023810Y-81688519D02*
X130976191Y-81736138D01*
X130976191Y-81736138D02*
X131023810Y-81783757D01*
X131023810Y-81783757D02*
X131071429Y-81736138D01*
X131071429Y-81736138D02*
X131023810Y-81688519D01*
X131023810Y-81688519D02*
X131023810Y-81783757D01*
X131928571Y-82688519D02*
X131928571Y-82164709D01*
X131928571Y-82164709D02*
X131880952Y-82069471D01*
X131880952Y-82069471D02*
X131785714Y-82021852D01*
X131785714Y-82021852D02*
X131595238Y-82021852D01*
X131595238Y-82021852D02*
X131500000Y-82069471D01*
X131928571Y-82640900D02*
X131833333Y-82688519D01*
X131833333Y-82688519D02*
X131595238Y-82688519D01*
X131595238Y-82688519D02*
X131500000Y-82640900D01*
X131500000Y-82640900D02*
X131452381Y-82545661D01*
X131452381Y-82545661D02*
X131452381Y-82450423D01*
X131452381Y-82450423D02*
X131500000Y-82355185D01*
X131500000Y-82355185D02*
X131595238Y-82307566D01*
X131595238Y-82307566D02*
X131833333Y-82307566D01*
X131833333Y-82307566D02*
X131928571Y-82259947D01*
X132357143Y-82640900D02*
X132452381Y-82688519D01*
X132452381Y-82688519D02*
X132642857Y-82688519D01*
X132642857Y-82688519D02*
X132738095Y-82640900D01*
X132738095Y-82640900D02*
X132785714Y-82545661D01*
X132785714Y-82545661D02*
X132785714Y-82498042D01*
X132785714Y-82498042D02*
X132738095Y-82402804D01*
X132738095Y-82402804D02*
X132642857Y-82355185D01*
X132642857Y-82355185D02*
X132500000Y-82355185D01*
X132500000Y-82355185D02*
X132404762Y-82307566D01*
X132404762Y-82307566D02*
X132357143Y-82212328D01*
X132357143Y-82212328D02*
X132357143Y-82164709D01*
X132357143Y-82164709D02*
X132404762Y-82069471D01*
X132404762Y-82069471D02*
X132500000Y-82021852D01*
X132500000Y-82021852D02*
X132642857Y-82021852D01*
X132642857Y-82021852D02*
X132738095Y-82069471D01*
X130961905Y-74954819D02*
X130961905Y-73954819D01*
X130961905Y-73954819D02*
X131200000Y-73954819D01*
X131200000Y-73954819D02*
X131342857Y-74002438D01*
X131342857Y-74002438D02*
X131438095Y-74097676D01*
X131438095Y-74097676D02*
X131485714Y-74192914D01*
X131485714Y-74192914D02*
X131533333Y-74383390D01*
X131533333Y-74383390D02*
X131533333Y-74526247D01*
X131533333Y-74526247D02*
X131485714Y-74716723D01*
X131485714Y-74716723D02*
X131438095Y-74811961D01*
X131438095Y-74811961D02*
X131342857Y-74907200D01*
X131342857Y-74907200D02*
X131200000Y-74954819D01*
X131200000Y-74954819D02*
X130961905Y-74954819D01*
X132485714Y-74954819D02*
X131914286Y-74954819D01*
X132200000Y-74954819D02*
X132200000Y-73954819D01*
X132200000Y-73954819D02*
X132104762Y-74097676D01*
X132104762Y-74097676D02*
X132009524Y-74192914D01*
X132009524Y-74192914D02*
X131914286Y-74240533D01*
X131459047Y-69172438D02*
X131363809Y-69124819D01*
X131363809Y-69124819D02*
X131220952Y-69124819D01*
X131220952Y-69124819D02*
X131078095Y-69172438D01*
X131078095Y-69172438D02*
X130982857Y-69267676D01*
X130982857Y-69267676D02*
X130935238Y-69362914D01*
X130935238Y-69362914D02*
X130887619Y-69553390D01*
X130887619Y-69553390D02*
X130887619Y-69696247D01*
X130887619Y-69696247D02*
X130935238Y-69886723D01*
X130935238Y-69886723D02*
X130982857Y-69981961D01*
X130982857Y-69981961D02*
X131078095Y-70077200D01*
X131078095Y-70077200D02*
X131220952Y-70124819D01*
X131220952Y-70124819D02*
X131316190Y-70124819D01*
X131316190Y-70124819D02*
X131459047Y-70077200D01*
X131459047Y-70077200D02*
X131506666Y-70029580D01*
X131506666Y-70029580D02*
X131506666Y-69696247D01*
X131506666Y-69696247D02*
X131316190Y-69696247D01*
X132363809Y-70124819D02*
X132363809Y-69601009D01*
X132363809Y-69601009D02*
X132316190Y-69505771D01*
X132316190Y-69505771D02*
X132220952Y-69458152D01*
X132220952Y-69458152D02*
X132030476Y-69458152D01*
X132030476Y-69458152D02*
X131935238Y-69505771D01*
X132363809Y-70077200D02*
X132268571Y-70124819D01*
X132268571Y-70124819D02*
X132030476Y-70124819D01*
X132030476Y-70124819D02*
X131935238Y-70077200D01*
X131935238Y-70077200D02*
X131887619Y-69981961D01*
X131887619Y-69981961D02*
X131887619Y-69886723D01*
X131887619Y-69886723D02*
X131935238Y-69791485D01*
X131935238Y-69791485D02*
X132030476Y-69743866D01*
X132030476Y-69743866D02*
X132268571Y-69743866D01*
X132268571Y-69743866D02*
X132363809Y-69696247D01*
X132840000Y-70124819D02*
X132840000Y-69458152D01*
X132840000Y-69124819D02*
X132792381Y-69172438D01*
X132792381Y-69172438D02*
X132840000Y-69220057D01*
X132840000Y-69220057D02*
X132887619Y-69172438D01*
X132887619Y-69172438D02*
X132840000Y-69124819D01*
X132840000Y-69124819D02*
X132840000Y-69220057D01*
X133316190Y-69458152D02*
X133316190Y-70124819D01*
X133316190Y-69553390D02*
X133363809Y-69505771D01*
X133363809Y-69505771D02*
X133459047Y-69458152D01*
X133459047Y-69458152D02*
X133601904Y-69458152D01*
X133601904Y-69458152D02*
X133697142Y-69505771D01*
X133697142Y-69505771D02*
X133744761Y-69601009D01*
X133744761Y-69601009D02*
X133744761Y-70124819D01*
X141949523Y-70124819D02*
X141473333Y-70124819D01*
X141473333Y-70124819D02*
X141473333Y-69124819D01*
X142663809Y-70077200D02*
X142568571Y-70124819D01*
X142568571Y-70124819D02*
X142378095Y-70124819D01*
X142378095Y-70124819D02*
X142282857Y-70077200D01*
X142282857Y-70077200D02*
X142235238Y-69981961D01*
X142235238Y-69981961D02*
X142235238Y-69601009D01*
X142235238Y-69601009D02*
X142282857Y-69505771D01*
X142282857Y-69505771D02*
X142378095Y-69458152D01*
X142378095Y-69458152D02*
X142568571Y-69458152D01*
X142568571Y-69458152D02*
X142663809Y-69505771D01*
X142663809Y-69505771D02*
X142711428Y-69601009D01*
X142711428Y-69601009D02*
X142711428Y-69696247D01*
X142711428Y-69696247D02*
X142235238Y-69791485D01*
X143044762Y-69458152D02*
X143282857Y-70124819D01*
X143282857Y-70124819D02*
X143520952Y-69458152D01*
X144282857Y-70077200D02*
X144187619Y-70124819D01*
X144187619Y-70124819D02*
X143997143Y-70124819D01*
X143997143Y-70124819D02*
X143901905Y-70077200D01*
X143901905Y-70077200D02*
X143854286Y-69981961D01*
X143854286Y-69981961D02*
X143854286Y-69601009D01*
X143854286Y-69601009D02*
X143901905Y-69505771D01*
X143901905Y-69505771D02*
X143997143Y-69458152D01*
X143997143Y-69458152D02*
X144187619Y-69458152D01*
X144187619Y-69458152D02*
X144282857Y-69505771D01*
X144282857Y-69505771D02*
X144330476Y-69601009D01*
X144330476Y-69601009D02*
X144330476Y-69696247D01*
X144330476Y-69696247D02*
X143854286Y-69791485D01*
X144901905Y-70124819D02*
X144806667Y-70077200D01*
X144806667Y-70077200D02*
X144759048Y-69981961D01*
X144759048Y-69981961D02*
X144759048Y-69124819D01*
X113954819Y-79356666D02*
X113478628Y-79689999D01*
X113954819Y-79928094D02*
X112954819Y-79928094D01*
X112954819Y-79928094D02*
X112954819Y-79547142D01*
X112954819Y-79547142D02*
X113002438Y-79451904D01*
X113002438Y-79451904D02*
X113050057Y-79404285D01*
X113050057Y-79404285D02*
X113145295Y-79356666D01*
X113145295Y-79356666D02*
X113288152Y-79356666D01*
X113288152Y-79356666D02*
X113383390Y-79404285D01*
X113383390Y-79404285D02*
X113431009Y-79451904D01*
X113431009Y-79451904D02*
X113478628Y-79547142D01*
X113478628Y-79547142D02*
X113478628Y-79928094D01*
X113050057Y-78975713D02*
X113002438Y-78928094D01*
X113002438Y-78928094D02*
X112954819Y-78832856D01*
X112954819Y-78832856D02*
X112954819Y-78594761D01*
X112954819Y-78594761D02*
X113002438Y-78499523D01*
X113002438Y-78499523D02*
X113050057Y-78451904D01*
X113050057Y-78451904D02*
X113145295Y-78404285D01*
X113145295Y-78404285D02*
X113240533Y-78404285D01*
X113240533Y-78404285D02*
X113383390Y-78451904D01*
X113383390Y-78451904D02*
X113954819Y-79023332D01*
X113954819Y-79023332D02*
X113954819Y-78404285D01*
X126374819Y-76356666D02*
X125898628Y-76689999D01*
X126374819Y-76928094D02*
X125374819Y-76928094D01*
X125374819Y-76928094D02*
X125374819Y-76547142D01*
X125374819Y-76547142D02*
X125422438Y-76451904D01*
X125422438Y-76451904D02*
X125470057Y-76404285D01*
X125470057Y-76404285D02*
X125565295Y-76356666D01*
X125565295Y-76356666D02*
X125708152Y-76356666D01*
X125708152Y-76356666D02*
X125803390Y-76404285D01*
X125803390Y-76404285D02*
X125851009Y-76451904D01*
X125851009Y-76451904D02*
X125898628Y-76547142D01*
X125898628Y-76547142D02*
X125898628Y-76928094D01*
X125708152Y-75499523D02*
X126374819Y-75499523D01*
X125327200Y-75737618D02*
X126041485Y-75975713D01*
X126041485Y-75975713D02*
X126041485Y-75356666D01*
X137834819Y-77238094D02*
X136834819Y-77238094D01*
X136834819Y-77238094D02*
X136834819Y-76999999D01*
X136834819Y-76999999D02*
X136882438Y-76857142D01*
X136882438Y-76857142D02*
X136977676Y-76761904D01*
X136977676Y-76761904D02*
X137072914Y-76714285D01*
X137072914Y-76714285D02*
X137263390Y-76666666D01*
X137263390Y-76666666D02*
X137406247Y-76666666D01*
X137406247Y-76666666D02*
X137596723Y-76714285D01*
X137596723Y-76714285D02*
X137691961Y-76761904D01*
X137691961Y-76761904D02*
X137787200Y-76857142D01*
X137787200Y-76857142D02*
X137834819Y-76999999D01*
X137834819Y-76999999D02*
X137834819Y-77238094D01*
X136930057Y-76285713D02*
X136882438Y-76238094D01*
X136882438Y-76238094D02*
X136834819Y-76142856D01*
X136834819Y-76142856D02*
X136834819Y-75904761D01*
X136834819Y-75904761D02*
X136882438Y-75809523D01*
X136882438Y-75809523D02*
X136930057Y-75761904D01*
X136930057Y-75761904D02*
X137025295Y-75714285D01*
X137025295Y-75714285D02*
X137120533Y-75714285D01*
X137120533Y-75714285D02*
X137263390Y-75761904D01*
X137263390Y-75761904D02*
X137834819Y-76333332D01*
X137834819Y-76333332D02*
X137834819Y-75714285D01*
X146424819Y-77238094D02*
X145424819Y-77238094D01*
X145424819Y-77238094D02*
X145424819Y-76999999D01*
X145424819Y-76999999D02*
X145472438Y-76857142D01*
X145472438Y-76857142D02*
X145567676Y-76761904D01*
X145567676Y-76761904D02*
X145662914Y-76714285D01*
X145662914Y-76714285D02*
X145853390Y-76666666D01*
X145853390Y-76666666D02*
X145996247Y-76666666D01*
X145996247Y-76666666D02*
X146186723Y-76714285D01*
X146186723Y-76714285D02*
X146281961Y-76761904D01*
X146281961Y-76761904D02*
X146377200Y-76857142D01*
X146377200Y-76857142D02*
X146424819Y-76999999D01*
X146424819Y-76999999D02*
X146424819Y-77238094D01*
X145424819Y-76333332D02*
X145424819Y-75714285D01*
X145424819Y-75714285D02*
X145805771Y-76047618D01*
X145805771Y-76047618D02*
X145805771Y-75904761D01*
X145805771Y-75904761D02*
X145853390Y-75809523D01*
X145853390Y-75809523D02*
X145901009Y-75761904D01*
X145901009Y-75761904D02*
X145996247Y-75714285D01*
X145996247Y-75714285D02*
X146234342Y-75714285D01*
X146234342Y-75714285D02*
X146329580Y-75761904D01*
X146329580Y-75761904D02*
X146377200Y-75809523D01*
X146377200Y-75809523D02*
X146424819Y-75904761D01*
X146424819Y-75904761D02*
X146424819Y-76190475D01*
X146424819Y-76190475D02*
X146377200Y-76285713D01*
X146377200Y-76285713D02*
X146329580Y-76333332D01*
D10*
G36*
X146822749Y-87509553D02*
G01*
X146822749Y-87400132D01*
X147096301Y-87400132D01*
X147096301Y-87110949D01*
X147213538Y-87110949D01*
X147213538Y-87400132D01*
X147490998Y-87400132D01*
X147490998Y-87509553D01*
X147213538Y-87509553D01*
X147213538Y-87798736D01*
X147096301Y-87798736D01*
X147096301Y-87509553D01*
X146822749Y-87509553D01*
G37*
G36*
X148018378Y-86858501D02*
G01*
X148076471Y-86874083D01*
X148126742Y-86899105D01*
X148170450Y-86933705D01*
X148208339Y-86978813D01*
X148243821Y-87042597D01*
X148271007Y-87121401D01*
X148288741Y-87218240D01*
X148295167Y-87336629D01*
X148288540Y-87463186D01*
X148270300Y-87566261D01*
X148242444Y-87649692D01*
X148206263Y-87716793D01*
X148167170Y-87764897D01*
X148122694Y-87801466D01*
X148072191Y-87827680D01*
X148014488Y-87843880D01*
X147947976Y-87849539D01*
X147882472Y-87845038D01*
X147824084Y-87832076D01*
X147770561Y-87810299D01*
X147726082Y-87781151D01*
X147688910Y-87744076D01*
X147659586Y-87699452D01*
X147639524Y-87648754D01*
X147628812Y-87589726D01*
X147760520Y-87589726D01*
X147772738Y-87637920D01*
X147792629Y-87675579D01*
X147819932Y-87704764D01*
X147854067Y-87726071D01*
X147894803Y-87739330D01*
X147943824Y-87744026D01*
X147995277Y-87738034D01*
X148038511Y-87720870D01*
X148075403Y-87692527D01*
X148106917Y-87651397D01*
X148129425Y-87604903D01*
X148146758Y-87547774D01*
X148158079Y-87477986D01*
X148162177Y-87393232D01*
X148162177Y-87338522D01*
X148127550Y-87386744D01*
X148087684Y-87423063D01*
X148042049Y-87448937D01*
X147989498Y-87464893D01*
X147928376Y-87470474D01*
X147861825Y-87464906D01*
X147803079Y-87448859D01*
X147749915Y-87422440D01*
X147705077Y-87387370D01*
X147668742Y-87343672D01*
X147641390Y-87290956D01*
X147624807Y-87231995D01*
X147618981Y-87163155D01*
X147747941Y-87163155D01*
X147751515Y-87205195D01*
X147761924Y-87243206D01*
X147778895Y-87277856D01*
X147801125Y-87307198D01*
X147828514Y-87331321D01*
X147860598Y-87349635D01*
X147896315Y-87361024D01*
X147936924Y-87364961D01*
X147979087Y-87361056D01*
X148017341Y-87349635D01*
X148052214Y-87331387D01*
X148081699Y-87307869D01*
X148105890Y-87279023D01*
X148124381Y-87244610D01*
X148135880Y-87206719D01*
X148139768Y-87165964D01*
X148135804Y-87121494D01*
X148124381Y-87082433D01*
X148106058Y-87047056D01*
X148082432Y-87017037D01*
X148053502Y-86992394D01*
X148019417Y-86973867D01*
X147981924Y-86962429D01*
X147941076Y-86958541D01*
X147900323Y-86962444D01*
X147863407Y-86973867D01*
X147830013Y-86992245D01*
X147801797Y-87016366D01*
X147779084Y-87045827D01*
X147761924Y-87081090D01*
X147751528Y-87119853D01*
X147747941Y-87163155D01*
X147618981Y-87163155D01*
X147625607Y-87096947D01*
X147644871Y-87038164D01*
X147675587Y-86985277D01*
X147715579Y-86940345D01*
X147763881Y-86903900D01*
X147820604Y-86876109D01*
X147882602Y-86858914D01*
X147950785Y-86853028D01*
X148018378Y-86858501D01*
G37*
G36*
X148363189Y-86813949D02*
G01*
X148515780Y-86813949D01*
X148736942Y-87468948D01*
X148769182Y-87573239D01*
X148801361Y-87678874D01*
X148809787Y-87678874D01*
X148819557Y-87650908D01*
X148830792Y-87614455D01*
X148847584Y-87555715D01*
X148875550Y-87468948D01*
X149103794Y-86813949D01*
X149242341Y-86813949D01*
X148872802Y-87830000D01*
X148721554Y-87830000D01*
X148363189Y-86813949D01*
G37*
D14*
G36*
X103721082Y-64394913D02*
G01*
X104676477Y-64226452D01*
X104707013Y-64399635D01*
X103959439Y-64531452D01*
X104047996Y-65033684D01*
X104746502Y-64910518D01*
X104777039Y-65083702D01*
X104078533Y-65206867D01*
X104194573Y-65864963D01*
X103986753Y-65901607D01*
X103721082Y-64394913D01*
G37*
G36*
X105849606Y-65438931D02*
G01*
X105823200Y-65482997D01*
X105789432Y-65523852D01*
X105750707Y-65559685D01*
X105710665Y-65588242D01*
X105625577Y-65628914D01*
X105542709Y-65651059D01*
X105448415Y-65660656D01*
X105373480Y-65654858D01*
X105313779Y-65636554D01*
X105258735Y-65605849D01*
X105210870Y-65566786D01*
X105169501Y-65518768D01*
X105138346Y-65464748D01*
X105115426Y-65395121D01*
X105084557Y-65244317D01*
X104974529Y-64620316D01*
X105168458Y-64586121D01*
X105275242Y-65191721D01*
X105302831Y-65312319D01*
X105323732Y-65367847D01*
X105351338Y-65413883D01*
X105387339Y-65451482D01*
X105431949Y-65478629D01*
X105484658Y-65491486D01*
X105556410Y-65487189D01*
X105620311Y-65469593D01*
X105672077Y-65442490D01*
X105713826Y-65406110D01*
X105746797Y-65359591D01*
X105773365Y-65287627D01*
X105782880Y-65191010D01*
X105770173Y-65061763D01*
X105670690Y-64497564D01*
X105866964Y-64462956D01*
X106056293Y-65536692D01*
X105872556Y-65569089D01*
X105849606Y-65438931D01*
G37*
G36*
X106360266Y-64375973D02*
G01*
X106387224Y-64528862D01*
X106419313Y-64464872D01*
X106456000Y-64415366D01*
X106497164Y-64378062D01*
X106570455Y-64336698D01*
X106655528Y-64312006D01*
X106716483Y-64304330D01*
X106780601Y-64302415D01*
X106811647Y-64478485D01*
X106740285Y-64479907D01*
X106679841Y-64486287D01*
X106600004Y-64508666D01*
X106544617Y-64540636D01*
X106502667Y-64584740D01*
X106474483Y-64639217D01*
X106459296Y-64701776D01*
X106454758Y-64778946D01*
X106459829Y-64860919D01*
X106473223Y-64955932D01*
X106559967Y-65447880D01*
X106363693Y-65482489D01*
X106174364Y-64408753D01*
X106360266Y-64375973D01*
G37*
G36*
X106838111Y-64294693D02*
G01*
X107055221Y-64256410D01*
X107336212Y-64757634D01*
X107425351Y-64930342D01*
X107509311Y-65101639D01*
X107515354Y-65100573D01*
X107538525Y-64909177D01*
X107564523Y-64717469D01*
X107659108Y-64149929D01*
X107857727Y-64114907D01*
X107647414Y-65252972D01*
X107629337Y-65355211D01*
X107608284Y-65442997D01*
X107579968Y-65524350D01*
X107544526Y-65591978D01*
X107499330Y-65650321D01*
X107445713Y-65696174D01*
X107382590Y-65729501D01*
X107303915Y-65751217D01*
X107244744Y-65761650D01*
X107175340Y-65764681D01*
X107146091Y-65598804D01*
X107199530Y-65599814D01*
X107242311Y-65595416D01*
X107292080Y-65581629D01*
X107329823Y-65561106D01*
X107361186Y-65533279D01*
X107386332Y-65499710D01*
X107405490Y-65461227D01*
X107420073Y-65415731D01*
X107436789Y-65313269D01*
X106838111Y-64294693D01*
G37*
G36*
X108022613Y-64493562D02*
G01*
X108576800Y-64395844D01*
X108607337Y-64569028D01*
X108053150Y-64666746D01*
X108022613Y-64493562D01*
G37*
G36*
X108864854Y-63666495D02*
G01*
X108368395Y-63754034D01*
X108337858Y-63580851D01*
X109538595Y-63369129D01*
X109569132Y-63542312D01*
X109072674Y-63629851D01*
X109307808Y-64963362D01*
X109099988Y-65000006D01*
X108864854Y-63666495D01*
G37*
G36*
X110163239Y-63698277D02*
G01*
X110226324Y-63711768D01*
X110285970Y-63736753D01*
X110334740Y-63768203D01*
X110374176Y-63806045D01*
X110420746Y-63874355D01*
X110452919Y-63954080D01*
X110491723Y-64119295D01*
X110543095Y-64410640D01*
X110578424Y-64580932D01*
X110600391Y-64657284D01*
X110628033Y-64730943D01*
X110444206Y-64763356D01*
X110423548Y-64705802D01*
X110404740Y-64627089D01*
X110367807Y-64687294D01*
X110324049Y-64737006D01*
X110273126Y-64777340D01*
X110184049Y-64822314D01*
X110073705Y-64852123D01*
X109982681Y-64861524D01*
X109905205Y-64856638D01*
X109838772Y-64839326D01*
X109781291Y-64810400D01*
X109730427Y-64769504D01*
X109690832Y-64720529D01*
X109661617Y-64662406D01*
X109642858Y-64593371D01*
X109637596Y-64511653D01*
X109837741Y-64511653D01*
X109839800Y-64562551D01*
X109854947Y-64610092D01*
X109881402Y-64648397D01*
X109920250Y-64679129D01*
X109966373Y-64698408D01*
X110021871Y-64706112D01*
X110089569Y-64700519D01*
X110145768Y-64686896D01*
X110197911Y-64666721D01*
X110244521Y-64637735D01*
X110282919Y-64598161D01*
X110311119Y-64548540D01*
X110330034Y-64482434D01*
X110335224Y-64407667D01*
X110324503Y-64307074D01*
X110314547Y-64250609D01*
X110171075Y-64289299D01*
X110084950Y-64313837D01*
X110004318Y-64345209D01*
X109931261Y-64385406D01*
X109875648Y-64431977D01*
X109849762Y-64468985D01*
X109837741Y-64511653D01*
X109637596Y-64511653D01*
X109637427Y-64509033D01*
X109651421Y-64440451D01*
X109681993Y-64379205D01*
X109725807Y-64326425D01*
X109780401Y-64281870D01*
X109846965Y-64242935D01*
X109994361Y-64182720D01*
X110148313Y-64137531D01*
X110287700Y-64098352D01*
X110281608Y-64063805D01*
X110261114Y-63987759D01*
X110231882Y-63931513D01*
X110194847Y-63890864D01*
X110148069Y-63864161D01*
X110087386Y-63852224D01*
X110007665Y-63857836D01*
X109937519Y-63876964D01*
X109882882Y-63905461D01*
X109840820Y-63942779D01*
X109811989Y-63989453D01*
X109798843Y-64046287D01*
X109802929Y-64117146D01*
X109606654Y-64151754D01*
X109600402Y-64067299D01*
X109611908Y-63992721D01*
X109639803Y-63923903D01*
X109682455Y-63862725D01*
X109737975Y-63810346D01*
X109808013Y-63765159D01*
X109887527Y-63731228D01*
X109981200Y-63707744D01*
X110082946Y-63695940D01*
X110163239Y-63698277D01*
G37*
G36*
X111576198Y-64429179D02*
G01*
X111549792Y-64473244D01*
X111516024Y-64514099D01*
X111477299Y-64549932D01*
X111437257Y-64578489D01*
X111352169Y-64619162D01*
X111269301Y-64641307D01*
X111175007Y-64650904D01*
X111100071Y-64645105D01*
X111040371Y-64626801D01*
X110985326Y-64596096D01*
X110937462Y-64557033D01*
X110896093Y-64509015D01*
X110864938Y-64454995D01*
X110842018Y-64385368D01*
X110811149Y-64234564D01*
X110701121Y-63610563D01*
X110895050Y-63576369D01*
X111001834Y-64181969D01*
X111029423Y-64302566D01*
X111050324Y-64358094D01*
X111077930Y-64404130D01*
X111113931Y-64441730D01*
X111158541Y-64468876D01*
X111211250Y-64481733D01*
X111283002Y-64477436D01*
X111346903Y-64459840D01*
X111398669Y-64432738D01*
X111440418Y-64396358D01*
X111473389Y-64349839D01*
X111499957Y-64277874D01*
X111509472Y-64181257D01*
X111496765Y-64052010D01*
X111397282Y-63487812D01*
X111593556Y-63453203D01*
X111782885Y-64526939D01*
X111599148Y-64559337D01*
X111576198Y-64429179D01*
G37*
G36*
X112086857Y-63366221D02*
G01*
X112113816Y-63519109D01*
X112145905Y-63455120D01*
X112182592Y-63405613D01*
X112223756Y-63368309D01*
X112297047Y-63326945D01*
X112382120Y-63302254D01*
X112443075Y-63294577D01*
X112507193Y-63292662D01*
X112538239Y-63468732D01*
X112466876Y-63470155D01*
X112406433Y-63476534D01*
X112326596Y-63498914D01*
X112271209Y-63530883D01*
X112229259Y-63574987D01*
X112201074Y-63629464D01*
X112185888Y-63692024D01*
X112181349Y-63769193D01*
X112186421Y-63851167D01*
X112199815Y-63946179D01*
X112286559Y-64438128D01*
X112090285Y-64472736D01*
X111900956Y-63399000D01*
X112086857Y-63366221D01*
G37*
D12*
X130814286Y-67827469D02*
X130402857Y-67827469D01*
X130608572Y-67827469D02*
X130608572Y-67107469D01*
X130608572Y-67107469D02*
X130540000Y-67210326D01*
X130540000Y-67210326D02*
X130471429Y-67278898D01*
X130471429Y-67278898D02*
X130402857Y-67313184D01*
X131260000Y-67107469D02*
X131328571Y-67107469D01*
X131328571Y-67107469D02*
X131397143Y-67141755D01*
X131397143Y-67141755D02*
X131431429Y-67176041D01*
X131431429Y-67176041D02*
X131465714Y-67244612D01*
X131465714Y-67244612D02*
X131500000Y-67381755D01*
X131500000Y-67381755D02*
X131500000Y-67553184D01*
X131500000Y-67553184D02*
X131465714Y-67690326D01*
X131465714Y-67690326D02*
X131431429Y-67758898D01*
X131431429Y-67758898D02*
X131397143Y-67793184D01*
X131397143Y-67793184D02*
X131328571Y-67827469D01*
X131328571Y-67827469D02*
X131260000Y-67827469D01*
X131260000Y-67827469D02*
X131191429Y-67793184D01*
X131191429Y-67793184D02*
X131157143Y-67758898D01*
X131157143Y-67758898D02*
X131122857Y-67690326D01*
X131122857Y-67690326D02*
X131088571Y-67553184D01*
X131088571Y-67553184D02*
X131088571Y-67381755D01*
X131088571Y-67381755D02*
X131122857Y-67244612D01*
X131122857Y-67244612D02*
X131157143Y-67176041D01*
X131157143Y-67176041D02*
X131191429Y-67141755D01*
X131191429Y-67141755D02*
X131260000Y-67107469D01*
X131945714Y-67107469D02*
X132014285Y-67107469D01*
X132014285Y-67107469D02*
X132082857Y-67141755D01*
X132082857Y-67141755D02*
X132117143Y-67176041D01*
X132117143Y-67176041D02*
X132151428Y-67244612D01*
X132151428Y-67244612D02*
X132185714Y-67381755D01*
X132185714Y-67381755D02*
X132185714Y-67553184D01*
X132185714Y-67553184D02*
X132151428Y-67690326D01*
X132151428Y-67690326D02*
X132117143Y-67758898D01*
X132117143Y-67758898D02*
X132082857Y-67793184D01*
X132082857Y-67793184D02*
X132014285Y-67827469D01*
X132014285Y-67827469D02*
X131945714Y-67827469D01*
X131945714Y-67827469D02*
X131877143Y-67793184D01*
X131877143Y-67793184D02*
X131842857Y-67758898D01*
X131842857Y-67758898D02*
X131808571Y-67690326D01*
X131808571Y-67690326D02*
X131774285Y-67553184D01*
X131774285Y-67553184D02*
X131774285Y-67381755D01*
X131774285Y-67381755D02*
X131808571Y-67244612D01*
X131808571Y-67244612D02*
X131842857Y-67176041D01*
X131842857Y-67176041D02*
X131877143Y-67141755D01*
X131877143Y-67141755D02*
X131945714Y-67107469D01*
X133042856Y-67827469D02*
X133042856Y-67107469D01*
X133454285Y-67827469D02*
X133145713Y-67416041D01*
X133454285Y-67107469D02*
X133042856Y-67518898D01*
X133728570Y-67827469D02*
X133899999Y-67827469D01*
X133899999Y-67827469D02*
X133899999Y-67690326D01*
X133899999Y-67690326D02*
X133831428Y-67656041D01*
X133831428Y-67656041D02*
X133762856Y-67587469D01*
X133762856Y-67587469D02*
X133728570Y-67484612D01*
X133728570Y-67484612D02*
X133728570Y-67313184D01*
X133728570Y-67313184D02*
X133762856Y-67210326D01*
X133762856Y-67210326D02*
X133831428Y-67141755D01*
X133831428Y-67141755D02*
X133934285Y-67107469D01*
X133934285Y-67107469D02*
X134071428Y-67107469D01*
X134071428Y-67107469D02*
X134174285Y-67141755D01*
X134174285Y-67141755D02*
X134242856Y-67210326D01*
X134242856Y-67210326D02*
X134277142Y-67313184D01*
X134277142Y-67313184D02*
X134277142Y-67484612D01*
X134277142Y-67484612D02*
X134242856Y-67587469D01*
X134242856Y-67587469D02*
X134174285Y-67656041D01*
X134174285Y-67656041D02*
X134105713Y-67690326D01*
X134105713Y-67690326D02*
X134105713Y-67827469D01*
X134105713Y-67827469D02*
X134277142Y-67827469D01*
X141614286Y-67827469D02*
X141202857Y-67827469D01*
X141408572Y-67827469D02*
X141408572Y-67107469D01*
X141408572Y-67107469D02*
X141340000Y-67210326D01*
X141340000Y-67210326D02*
X141271429Y-67278898D01*
X141271429Y-67278898D02*
X141202857Y-67313184D01*
X142060000Y-67107469D02*
X142128571Y-67107469D01*
X142128571Y-67107469D02*
X142197143Y-67141755D01*
X142197143Y-67141755D02*
X142231429Y-67176041D01*
X142231429Y-67176041D02*
X142265714Y-67244612D01*
X142265714Y-67244612D02*
X142300000Y-67381755D01*
X142300000Y-67381755D02*
X142300000Y-67553184D01*
X142300000Y-67553184D02*
X142265714Y-67690326D01*
X142265714Y-67690326D02*
X142231429Y-67758898D01*
X142231429Y-67758898D02*
X142197143Y-67793184D01*
X142197143Y-67793184D02*
X142128571Y-67827469D01*
X142128571Y-67827469D02*
X142060000Y-67827469D01*
X142060000Y-67827469D02*
X141991429Y-67793184D01*
X141991429Y-67793184D02*
X141957143Y-67758898D01*
X141957143Y-67758898D02*
X141922857Y-67690326D01*
X141922857Y-67690326D02*
X141888571Y-67553184D01*
X141888571Y-67553184D02*
X141888571Y-67381755D01*
X141888571Y-67381755D02*
X141922857Y-67244612D01*
X141922857Y-67244612D02*
X141957143Y-67176041D01*
X141957143Y-67176041D02*
X141991429Y-67141755D01*
X141991429Y-67141755D02*
X142060000Y-67107469D01*
X142745714Y-67107469D02*
X142814285Y-67107469D01*
X142814285Y-67107469D02*
X142882857Y-67141755D01*
X142882857Y-67141755D02*
X142917143Y-67176041D01*
X142917143Y-67176041D02*
X142951428Y-67244612D01*
X142951428Y-67244612D02*
X142985714Y-67381755D01*
X142985714Y-67381755D02*
X142985714Y-67553184D01*
X142985714Y-67553184D02*
X142951428Y-67690326D01*
X142951428Y-67690326D02*
X142917143Y-67758898D01*
X142917143Y-67758898D02*
X142882857Y-67793184D01*
X142882857Y-67793184D02*
X142814285Y-67827469D01*
X142814285Y-67827469D02*
X142745714Y-67827469D01*
X142745714Y-67827469D02*
X142677143Y-67793184D01*
X142677143Y-67793184D02*
X142642857Y-67758898D01*
X142642857Y-67758898D02*
X142608571Y-67690326D01*
X142608571Y-67690326D02*
X142574285Y-67553184D01*
X142574285Y-67553184D02*
X142574285Y-67381755D01*
X142574285Y-67381755D02*
X142608571Y-67244612D01*
X142608571Y-67244612D02*
X142642857Y-67176041D01*
X142642857Y-67176041D02*
X142677143Y-67141755D01*
X142677143Y-67141755D02*
X142745714Y-67107469D01*
X143842856Y-67827469D02*
X143842856Y-67107469D01*
X144254285Y-67827469D02*
X143945713Y-67416041D01*
X144254285Y-67107469D02*
X143842856Y-67518898D01*
X144528570Y-67827469D02*
X144699999Y-67827469D01*
X144699999Y-67827469D02*
X144699999Y-67690326D01*
X144699999Y-67690326D02*
X144631428Y-67656041D01*
X144631428Y-67656041D02*
X144562856Y-67587469D01*
X144562856Y-67587469D02*
X144528570Y-67484612D01*
X144528570Y-67484612D02*
X144528570Y-67313184D01*
X144528570Y-67313184D02*
X144562856Y-67210326D01*
X144562856Y-67210326D02*
X144631428Y-67141755D01*
X144631428Y-67141755D02*
X144734285Y-67107469D01*
X144734285Y-67107469D02*
X144871428Y-67107469D01*
X144871428Y-67107469D02*
X144974285Y-67141755D01*
X144974285Y-67141755D02*
X145042856Y-67210326D01*
X145042856Y-67210326D02*
X145077142Y-67313184D01*
X145077142Y-67313184D02*
X145077142Y-67484612D01*
X145077142Y-67484612D02*
X145042856Y-67587469D01*
X145042856Y-67587469D02*
X144974285Y-67656041D01*
X144974285Y-67656041D02*
X144905713Y-67690326D01*
X144905713Y-67690326D02*
X144905713Y-67827469D01*
X144905713Y-67827469D02*
X145077142Y-67827469D01*
D13*
X126238095Y-71034819D02*
X126238095Y-70034819D01*
X126809523Y-71034819D02*
X126380952Y-70463390D01*
X126809523Y-70034819D02*
X126238095Y-70606247D01*
D12*
X117928571Y-72827469D02*
X117517142Y-72827469D01*
X117722857Y-72827469D02*
X117722857Y-72107469D01*
X117722857Y-72107469D02*
X117654285Y-72210326D01*
X117654285Y-72210326D02*
X117585714Y-72278898D01*
X117585714Y-72278898D02*
X117517142Y-72313184D01*
X118374285Y-72107469D02*
X118442856Y-72107469D01*
X118442856Y-72107469D02*
X118511428Y-72141755D01*
X118511428Y-72141755D02*
X118545714Y-72176041D01*
X118545714Y-72176041D02*
X118579999Y-72244612D01*
X118579999Y-72244612D02*
X118614285Y-72381755D01*
X118614285Y-72381755D02*
X118614285Y-72553184D01*
X118614285Y-72553184D02*
X118579999Y-72690326D01*
X118579999Y-72690326D02*
X118545714Y-72758898D01*
X118545714Y-72758898D02*
X118511428Y-72793184D01*
X118511428Y-72793184D02*
X118442856Y-72827469D01*
X118442856Y-72827469D02*
X118374285Y-72827469D01*
X118374285Y-72827469D02*
X118305714Y-72793184D01*
X118305714Y-72793184D02*
X118271428Y-72758898D01*
X118271428Y-72758898D02*
X118237142Y-72690326D01*
X118237142Y-72690326D02*
X118202856Y-72553184D01*
X118202856Y-72553184D02*
X118202856Y-72381755D01*
X118202856Y-72381755D02*
X118237142Y-72244612D01*
X118237142Y-72244612D02*
X118271428Y-72176041D01*
X118271428Y-72176041D02*
X118305714Y-72141755D01*
X118305714Y-72141755D02*
X118374285Y-72107469D01*
X118922856Y-72347469D02*
X118922856Y-72827469D01*
X118922856Y-72416041D02*
X118957142Y-72381755D01*
X118957142Y-72381755D02*
X119025713Y-72347469D01*
X119025713Y-72347469D02*
X119128570Y-72347469D01*
X119128570Y-72347469D02*
X119197142Y-72381755D01*
X119197142Y-72381755D02*
X119231428Y-72450326D01*
X119231428Y-72450326D02*
X119231428Y-72827469D01*
X119814285Y-72450326D02*
X119574285Y-72450326D01*
X119574285Y-72827469D02*
X119574285Y-72107469D01*
X119574285Y-72107469D02*
X119917142Y-72107469D01*
X104268571Y-70827469D02*
X103857142Y-70827469D01*
X104062857Y-70827469D02*
X104062857Y-70107469D01*
X104062857Y-70107469D02*
X103994285Y-70210326D01*
X103994285Y-70210326D02*
X103925714Y-70278898D01*
X103925714Y-70278898D02*
X103857142Y-70313184D01*
X104714285Y-70107469D02*
X104782856Y-70107469D01*
X104782856Y-70107469D02*
X104851428Y-70141755D01*
X104851428Y-70141755D02*
X104885714Y-70176041D01*
X104885714Y-70176041D02*
X104919999Y-70244612D01*
X104919999Y-70244612D02*
X104954285Y-70381755D01*
X104954285Y-70381755D02*
X104954285Y-70553184D01*
X104954285Y-70553184D02*
X104919999Y-70690326D01*
X104919999Y-70690326D02*
X104885714Y-70758898D01*
X104885714Y-70758898D02*
X104851428Y-70793184D01*
X104851428Y-70793184D02*
X104782856Y-70827469D01*
X104782856Y-70827469D02*
X104714285Y-70827469D01*
X104714285Y-70827469D02*
X104645714Y-70793184D01*
X104645714Y-70793184D02*
X104611428Y-70758898D01*
X104611428Y-70758898D02*
X104577142Y-70690326D01*
X104577142Y-70690326D02*
X104542856Y-70553184D01*
X104542856Y-70553184D02*
X104542856Y-70381755D01*
X104542856Y-70381755D02*
X104577142Y-70244612D01*
X104577142Y-70244612D02*
X104611428Y-70176041D01*
X104611428Y-70176041D02*
X104645714Y-70141755D01*
X104645714Y-70141755D02*
X104714285Y-70107469D01*
X105262856Y-70347469D02*
X105262856Y-70827469D01*
X105262856Y-70416041D02*
X105297142Y-70381755D01*
X105297142Y-70381755D02*
X105365713Y-70347469D01*
X105365713Y-70347469D02*
X105468570Y-70347469D01*
X105468570Y-70347469D02*
X105537142Y-70381755D01*
X105537142Y-70381755D02*
X105571428Y-70450326D01*
X105571428Y-70450326D02*
X105571428Y-70827469D01*
X106154285Y-70450326D02*
X105914285Y-70450326D01*
X105914285Y-70827469D02*
X105914285Y-70107469D01*
X105914285Y-70107469D02*
X106257142Y-70107469D01*
X103918572Y-76627469D02*
X103507143Y-76627469D01*
X103712858Y-76627469D02*
X103712858Y-75907469D01*
X103712858Y-75907469D02*
X103644286Y-76010326D01*
X103644286Y-76010326D02*
X103575715Y-76078898D01*
X103575715Y-76078898D02*
X103507143Y-76113184D01*
X104775714Y-76627469D02*
X104775714Y-75907469D01*
X104775714Y-75907469D02*
X105015714Y-76421755D01*
X105015714Y-76421755D02*
X105255714Y-75907469D01*
X105255714Y-75907469D02*
X105255714Y-76627469D01*
X105564285Y-76627469D02*
X105735714Y-76627469D01*
X105735714Y-76627469D02*
X105735714Y-76490326D01*
X105735714Y-76490326D02*
X105667143Y-76456041D01*
X105667143Y-76456041D02*
X105598571Y-76387469D01*
X105598571Y-76387469D02*
X105564285Y-76284612D01*
X105564285Y-76284612D02*
X105564285Y-76113184D01*
X105564285Y-76113184D02*
X105598571Y-76010326D01*
X105598571Y-76010326D02*
X105667143Y-75941755D01*
X105667143Y-75941755D02*
X105770000Y-75907469D01*
X105770000Y-75907469D02*
X105907143Y-75907469D01*
X105907143Y-75907469D02*
X106010000Y-75941755D01*
X106010000Y-75941755D02*
X106078571Y-76010326D01*
X106078571Y-76010326D02*
X106112857Y-76113184D01*
X106112857Y-76113184D02*
X106112857Y-76284612D01*
X106112857Y-76284612D02*
X106078571Y-76387469D01*
X106078571Y-76387469D02*
X106010000Y-76456041D01*
X106010000Y-76456041D02*
X105941428Y-76490326D01*
X105941428Y-76490326D02*
X105941428Y-76627469D01*
X105941428Y-76627469D02*
X106112857Y-76627469D01*
X111107469Y-80818570D02*
X111107469Y-80372856D01*
X111107469Y-80372856D02*
X111381755Y-80612856D01*
X111381755Y-80612856D02*
X111381755Y-80509999D01*
X111381755Y-80509999D02*
X111416041Y-80441428D01*
X111416041Y-80441428D02*
X111450326Y-80407142D01*
X111450326Y-80407142D02*
X111518898Y-80372856D01*
X111518898Y-80372856D02*
X111690326Y-80372856D01*
X111690326Y-80372856D02*
X111758898Y-80407142D01*
X111758898Y-80407142D02*
X111793184Y-80441428D01*
X111793184Y-80441428D02*
X111827469Y-80509999D01*
X111827469Y-80509999D02*
X111827469Y-80715713D01*
X111827469Y-80715713D02*
X111793184Y-80784285D01*
X111793184Y-80784285D02*
X111758898Y-80818570D01*
X111107469Y-80132856D02*
X111107469Y-79687142D01*
X111107469Y-79687142D02*
X111381755Y-79927142D01*
X111381755Y-79927142D02*
X111381755Y-79824285D01*
X111381755Y-79824285D02*
X111416041Y-79755714D01*
X111416041Y-79755714D02*
X111450326Y-79721428D01*
X111450326Y-79721428D02*
X111518898Y-79687142D01*
X111518898Y-79687142D02*
X111690326Y-79687142D01*
X111690326Y-79687142D02*
X111758898Y-79721428D01*
X111758898Y-79721428D02*
X111793184Y-79755714D01*
X111793184Y-79755714D02*
X111827469Y-79824285D01*
X111827469Y-79824285D02*
X111827469Y-80029999D01*
X111827469Y-80029999D02*
X111793184Y-80098571D01*
X111793184Y-80098571D02*
X111758898Y-80132856D01*
X111827469Y-78830000D02*
X111107469Y-78830000D01*
X111827469Y-78418571D02*
X111416041Y-78727143D01*
X111107469Y-78418571D02*
X111518898Y-78830000D01*
X111827469Y-78144286D02*
X111827469Y-77972857D01*
X111827469Y-77972857D02*
X111690326Y-77972857D01*
X111690326Y-77972857D02*
X111656041Y-78041429D01*
X111656041Y-78041429D02*
X111587469Y-78110000D01*
X111587469Y-78110000D02*
X111484612Y-78144286D01*
X111484612Y-78144286D02*
X111313184Y-78144286D01*
X111313184Y-78144286D02*
X111210326Y-78110000D01*
X111210326Y-78110000D02*
X111141755Y-78041429D01*
X111141755Y-78041429D02*
X111107469Y-77938571D01*
X111107469Y-77938571D02*
X111107469Y-77801429D01*
X111107469Y-77801429D02*
X111141755Y-77698571D01*
X111141755Y-77698571D02*
X111210326Y-77630000D01*
X111210326Y-77630000D02*
X111313184Y-77595714D01*
X111313184Y-77595714D02*
X111484612Y-77595714D01*
X111484612Y-77595714D02*
X111587469Y-77630000D01*
X111587469Y-77630000D02*
X111656041Y-77698571D01*
X111656041Y-77698571D02*
X111690326Y-77767143D01*
X111690326Y-77767143D02*
X111827469Y-77767143D01*
X111827469Y-77767143D02*
X111827469Y-77595714D01*
X124327469Y-77355713D02*
X124327469Y-77767142D01*
X124327469Y-77561427D02*
X123607469Y-77561427D01*
X123607469Y-77561427D02*
X123710326Y-77629999D01*
X123710326Y-77629999D02*
X123778898Y-77698570D01*
X123778898Y-77698570D02*
X123813184Y-77767142D01*
X123607469Y-76909999D02*
X123607469Y-76841428D01*
X123607469Y-76841428D02*
X123641755Y-76772856D01*
X123641755Y-76772856D02*
X123676041Y-76738571D01*
X123676041Y-76738571D02*
X123744612Y-76704285D01*
X123744612Y-76704285D02*
X123881755Y-76669999D01*
X123881755Y-76669999D02*
X124053184Y-76669999D01*
X124053184Y-76669999D02*
X124190326Y-76704285D01*
X124190326Y-76704285D02*
X124258898Y-76738571D01*
X124258898Y-76738571D02*
X124293184Y-76772856D01*
X124293184Y-76772856D02*
X124327469Y-76841428D01*
X124327469Y-76841428D02*
X124327469Y-76909999D01*
X124327469Y-76909999D02*
X124293184Y-76978571D01*
X124293184Y-76978571D02*
X124258898Y-77012856D01*
X124258898Y-77012856D02*
X124190326Y-77047142D01*
X124190326Y-77047142D02*
X124053184Y-77081428D01*
X124053184Y-77081428D02*
X123881755Y-77081428D01*
X123881755Y-77081428D02*
X123744612Y-77047142D01*
X123744612Y-77047142D02*
X123676041Y-77012856D01*
X123676041Y-77012856D02*
X123641755Y-76978571D01*
X123641755Y-76978571D02*
X123607469Y-76909999D01*
X123607469Y-76224285D02*
X123607469Y-76155714D01*
X123607469Y-76155714D02*
X123641755Y-76087142D01*
X123641755Y-76087142D02*
X123676041Y-76052857D01*
X123676041Y-76052857D02*
X123744612Y-76018571D01*
X123744612Y-76018571D02*
X123881755Y-75984285D01*
X123881755Y-75984285D02*
X124053184Y-75984285D01*
X124053184Y-75984285D02*
X124190326Y-76018571D01*
X124190326Y-76018571D02*
X124258898Y-76052857D01*
X124258898Y-76052857D02*
X124293184Y-76087142D01*
X124293184Y-76087142D02*
X124327469Y-76155714D01*
X124327469Y-76155714D02*
X124327469Y-76224285D01*
X124327469Y-76224285D02*
X124293184Y-76292857D01*
X124293184Y-76292857D02*
X124258898Y-76327142D01*
X124258898Y-76327142D02*
X124190326Y-76361428D01*
X124190326Y-76361428D02*
X124053184Y-76395714D01*
X124053184Y-76395714D02*
X123881755Y-76395714D01*
X123881755Y-76395714D02*
X123744612Y-76361428D01*
X123744612Y-76361428D02*
X123676041Y-76327142D01*
X123676041Y-76327142D02*
X123641755Y-76292857D01*
X123641755Y-76292857D02*
X123607469Y-76224285D01*
X124327469Y-75161429D02*
X124327469Y-74990000D01*
X124327469Y-74990000D02*
X124190326Y-74990000D01*
X124190326Y-74990000D02*
X124156041Y-75058572D01*
X124156041Y-75058572D02*
X124087469Y-75127143D01*
X124087469Y-75127143D02*
X123984612Y-75161429D01*
X123984612Y-75161429D02*
X123813184Y-75161429D01*
X123813184Y-75161429D02*
X123710326Y-75127143D01*
X123710326Y-75127143D02*
X123641755Y-75058572D01*
X123641755Y-75058572D02*
X123607469Y-74955714D01*
X123607469Y-74955714D02*
X123607469Y-74818572D01*
X123607469Y-74818572D02*
X123641755Y-74715714D01*
X123641755Y-74715714D02*
X123710326Y-74647143D01*
X123710326Y-74647143D02*
X123813184Y-74612857D01*
X123813184Y-74612857D02*
X123984612Y-74612857D01*
X123984612Y-74612857D02*
X124087469Y-74647143D01*
X124087469Y-74647143D02*
X124156041Y-74715714D01*
X124156041Y-74715714D02*
X124190326Y-74784286D01*
X124190326Y-74784286D02*
X124327469Y-74784286D01*
X124327469Y-74784286D02*
X124327469Y-74612857D01*
D13*
X116428571Y-88050007D02*
X116333333Y-88002388D01*
X116333333Y-88002388D02*
X116238095Y-87907150D01*
X116238095Y-87907150D02*
X116095238Y-87764292D01*
X116095238Y-87764292D02*
X116000000Y-87716673D01*
X116000000Y-87716673D02*
X115904762Y-87716673D01*
X115952381Y-87954769D02*
X115857143Y-87907150D01*
X115857143Y-87907150D02*
X115761905Y-87811911D01*
X115761905Y-87811911D02*
X115714286Y-87621435D01*
X115714286Y-87621435D02*
X115714286Y-87288102D01*
X115714286Y-87288102D02*
X115761905Y-87097626D01*
X115761905Y-87097626D02*
X115857143Y-87002388D01*
X115857143Y-87002388D02*
X115952381Y-86954769D01*
X115952381Y-86954769D02*
X116142857Y-86954769D01*
X116142857Y-86954769D02*
X116238095Y-87002388D01*
X116238095Y-87002388D02*
X116333333Y-87097626D01*
X116333333Y-87097626D02*
X116380952Y-87288102D01*
X116380952Y-87288102D02*
X116380952Y-87621435D01*
X116380952Y-87621435D02*
X116333333Y-87811911D01*
X116333333Y-87811911D02*
X116238095Y-87907150D01*
X116238095Y-87907150D02*
X116142857Y-87954769D01*
X116142857Y-87954769D02*
X115952381Y-87954769D01*
X117333333Y-87954769D02*
X116761905Y-87954769D01*
X117047619Y-87954769D02*
X117047619Y-86954769D01*
X117047619Y-86954769D02*
X116952381Y-87097626D01*
X116952381Y-87097626D02*
X116857143Y-87192864D01*
X116857143Y-87192864D02*
X116761905Y-87240483D01*
X118857143Y-87430959D02*
X119000000Y-87478578D01*
X119000000Y-87478578D02*
X119047619Y-87526197D01*
X119047619Y-87526197D02*
X119095238Y-87621435D01*
X119095238Y-87621435D02*
X119095238Y-87764292D01*
X119095238Y-87764292D02*
X119047619Y-87859530D01*
X119047619Y-87859530D02*
X119000000Y-87907150D01*
X119000000Y-87907150D02*
X118904762Y-87954769D01*
X118904762Y-87954769D02*
X118523810Y-87954769D01*
X118523810Y-87954769D02*
X118523810Y-86954769D01*
X118523810Y-86954769D02*
X118857143Y-86954769D01*
X118857143Y-86954769D02*
X118952381Y-87002388D01*
X118952381Y-87002388D02*
X119000000Y-87050007D01*
X119000000Y-87050007D02*
X119047619Y-87145245D01*
X119047619Y-87145245D02*
X119047619Y-87240483D01*
X119047619Y-87240483D02*
X119000000Y-87335721D01*
X119000000Y-87335721D02*
X118952381Y-87383340D01*
X118952381Y-87383340D02*
X118857143Y-87430959D01*
X118857143Y-87430959D02*
X118523810Y-87430959D01*
X119523810Y-87954769D02*
X119523810Y-87288102D01*
X119523810Y-86954769D02*
X119476191Y-87002388D01*
X119476191Y-87002388D02*
X119523810Y-87050007D01*
X119523810Y-87050007D02*
X119571429Y-87002388D01*
X119571429Y-87002388D02*
X119523810Y-86954769D01*
X119523810Y-86954769D02*
X119523810Y-87050007D01*
X120428571Y-87954769D02*
X120428571Y-87430959D01*
X120428571Y-87430959D02*
X120380952Y-87335721D01*
X120380952Y-87335721D02*
X120285714Y-87288102D01*
X120285714Y-87288102D02*
X120095238Y-87288102D01*
X120095238Y-87288102D02*
X120000000Y-87335721D01*
X120428571Y-87907150D02*
X120333333Y-87954769D01*
X120333333Y-87954769D02*
X120095238Y-87954769D01*
X120095238Y-87954769D02*
X120000000Y-87907150D01*
X120000000Y-87907150D02*
X119952381Y-87811911D01*
X119952381Y-87811911D02*
X119952381Y-87716673D01*
X119952381Y-87716673D02*
X120000000Y-87621435D01*
X120000000Y-87621435D02*
X120095238Y-87573816D01*
X120095238Y-87573816D02*
X120333333Y-87573816D01*
X120333333Y-87573816D02*
X120428571Y-87526197D01*
X120857143Y-87907150D02*
X120952381Y-87954769D01*
X120952381Y-87954769D02*
X121142857Y-87954769D01*
X121142857Y-87954769D02*
X121238095Y-87907150D01*
X121238095Y-87907150D02*
X121285714Y-87811911D01*
X121285714Y-87811911D02*
X121285714Y-87764292D01*
X121285714Y-87764292D02*
X121238095Y-87669054D01*
X121238095Y-87669054D02*
X121142857Y-87621435D01*
X121142857Y-87621435D02*
X121000000Y-87621435D01*
X121000000Y-87621435D02*
X120904762Y-87573816D01*
X120904762Y-87573816D02*
X120857143Y-87478578D01*
X120857143Y-87478578D02*
X120857143Y-87430959D01*
X120857143Y-87430959D02*
X120904762Y-87335721D01*
X120904762Y-87335721D02*
X121000000Y-87288102D01*
X121000000Y-87288102D02*
X121142857Y-87288102D01*
X121142857Y-87288102D02*
X121238095Y-87335721D01*
X137488095Y-82034819D02*
X137488095Y-81034819D01*
X138059523Y-82034819D02*
X137630952Y-81463390D01*
X138059523Y-81034819D02*
X137488095Y-81606247D01*
X127928571Y-87850632D02*
X127833333Y-87803013D01*
X127833333Y-87803013D02*
X127738095Y-87707775D01*
X127738095Y-87707775D02*
X127595238Y-87564917D01*
X127595238Y-87564917D02*
X127500000Y-87517298D01*
X127500000Y-87517298D02*
X127404762Y-87517298D01*
X127452381Y-87755394D02*
X127357143Y-87707775D01*
X127357143Y-87707775D02*
X127261905Y-87612536D01*
X127261905Y-87612536D02*
X127214286Y-87422060D01*
X127214286Y-87422060D02*
X127214286Y-87088727D01*
X127214286Y-87088727D02*
X127261905Y-86898251D01*
X127261905Y-86898251D02*
X127357143Y-86803013D01*
X127357143Y-86803013D02*
X127452381Y-86755394D01*
X127452381Y-86755394D02*
X127642857Y-86755394D01*
X127642857Y-86755394D02*
X127738095Y-86803013D01*
X127738095Y-86803013D02*
X127833333Y-86898251D01*
X127833333Y-86898251D02*
X127880952Y-87088727D01*
X127880952Y-87088727D02*
X127880952Y-87422060D01*
X127880952Y-87422060D02*
X127833333Y-87612536D01*
X127833333Y-87612536D02*
X127738095Y-87707775D01*
X127738095Y-87707775D02*
X127642857Y-87755394D01*
X127642857Y-87755394D02*
X127452381Y-87755394D01*
X128261905Y-86850632D02*
X128309524Y-86803013D01*
X128309524Y-86803013D02*
X128404762Y-86755394D01*
X128404762Y-86755394D02*
X128642857Y-86755394D01*
X128642857Y-86755394D02*
X128738095Y-86803013D01*
X128738095Y-86803013D02*
X128785714Y-86850632D01*
X128785714Y-86850632D02*
X128833333Y-86945870D01*
X128833333Y-86945870D02*
X128833333Y-87041108D01*
X128833333Y-87041108D02*
X128785714Y-87183965D01*
X128785714Y-87183965D02*
X128214286Y-87755394D01*
X128214286Y-87755394D02*
X128833333Y-87755394D01*
X130357143Y-87231584D02*
X130500000Y-87279203D01*
X130500000Y-87279203D02*
X130547619Y-87326822D01*
X130547619Y-87326822D02*
X130595238Y-87422060D01*
X130595238Y-87422060D02*
X130595238Y-87564917D01*
X130595238Y-87564917D02*
X130547619Y-87660155D01*
X130547619Y-87660155D02*
X130500000Y-87707775D01*
X130500000Y-87707775D02*
X130404762Y-87755394D01*
X130404762Y-87755394D02*
X130023810Y-87755394D01*
X130023810Y-87755394D02*
X130023810Y-86755394D01*
X130023810Y-86755394D02*
X130357143Y-86755394D01*
X130357143Y-86755394D02*
X130452381Y-86803013D01*
X130452381Y-86803013D02*
X130500000Y-86850632D01*
X130500000Y-86850632D02*
X130547619Y-86945870D01*
X130547619Y-86945870D02*
X130547619Y-87041108D01*
X130547619Y-87041108D02*
X130500000Y-87136346D01*
X130500000Y-87136346D02*
X130452381Y-87183965D01*
X130452381Y-87183965D02*
X130357143Y-87231584D01*
X130357143Y-87231584D02*
X130023810Y-87231584D01*
X131023810Y-87755394D02*
X131023810Y-87088727D01*
X131023810Y-86755394D02*
X130976191Y-86803013D01*
X130976191Y-86803013D02*
X131023810Y-86850632D01*
X131023810Y-86850632D02*
X131071429Y-86803013D01*
X131071429Y-86803013D02*
X131023810Y-86755394D01*
X131023810Y-86755394D02*
X131023810Y-86850632D01*
X131928571Y-87755394D02*
X131928571Y-87231584D01*
X131928571Y-87231584D02*
X131880952Y-87136346D01*
X131880952Y-87136346D02*
X131785714Y-87088727D01*
X131785714Y-87088727D02*
X131595238Y-87088727D01*
X131595238Y-87088727D02*
X131500000Y-87136346D01*
X131928571Y-87707775D02*
X131833333Y-87755394D01*
X131833333Y-87755394D02*
X131595238Y-87755394D01*
X131595238Y-87755394D02*
X131500000Y-87707775D01*
X131500000Y-87707775D02*
X131452381Y-87612536D01*
X131452381Y-87612536D02*
X131452381Y-87517298D01*
X131452381Y-87517298D02*
X131500000Y-87422060D01*
X131500000Y-87422060D02*
X131595238Y-87374441D01*
X131595238Y-87374441D02*
X131833333Y-87374441D01*
X131833333Y-87374441D02*
X131928571Y-87326822D01*
X132357143Y-87707775D02*
X132452381Y-87755394D01*
X132452381Y-87755394D02*
X132642857Y-87755394D01*
X132642857Y-87755394D02*
X132738095Y-87707775D01*
X132738095Y-87707775D02*
X132785714Y-87612536D01*
X132785714Y-87612536D02*
X132785714Y-87564917D01*
X132785714Y-87564917D02*
X132738095Y-87469679D01*
X132738095Y-87469679D02*
X132642857Y-87422060D01*
X132642857Y-87422060D02*
X132500000Y-87422060D01*
X132500000Y-87422060D02*
X132404762Y-87374441D01*
X132404762Y-87374441D02*
X132357143Y-87279203D01*
X132357143Y-87279203D02*
X132357143Y-87231584D01*
X132357143Y-87231584D02*
X132404762Y-87136346D01*
X132404762Y-87136346D02*
X132500000Y-87088727D01*
X132500000Y-87088727D02*
X132642857Y-87088727D01*
X132642857Y-87088727D02*
X132738095Y-87136346D01*
X145338095Y-71874819D02*
X145338095Y-70874819D01*
X145909523Y-71874819D02*
X145480952Y-71303390D01*
X145909523Y-70874819D02*
X145338095Y-71446247D01*
D15*
X127465000Y-63480000D02*
X137215000Y-63480000D01*
X127465000Y-68530000D02*
X127465000Y-63480000D01*
X137215000Y-63480000D02*
X137215000Y-68530000D01*
X137215000Y-68530000D02*
X127465000Y-68530000D01*
X78280000Y-66780000D02*
X85520000Y-66780000D01*
X78280000Y-68700000D02*
X78280000Y-66780000D01*
X78280000Y-85220000D02*
X78280000Y-69300000D01*
X79900000Y-66780000D02*
X79900000Y-85220000D01*
X85520000Y-66780000D02*
X85520000Y-85220000D01*
X85520000Y-85220000D02*
X78280000Y-85220000D01*
X78280000Y-69000000D02*
X77670000Y-69440000D01*
X77670000Y-68560000D01*
X78280000Y-69000000D01*
G36*
X78280000Y-69000000D02*
G01*
X77670000Y-69440000D01*
X77670000Y-68560000D01*
X78280000Y-69000000D01*
G37*
X138265000Y-63480000D02*
X148015000Y-63480000D01*
X138265000Y-68530000D02*
X138265000Y-63480000D01*
X148015000Y-63480000D02*
X148015000Y-68530000D01*
X148015000Y-68530000D02*
X138265000Y-68530000D01*
X127540000Y-72380000D02*
X129460000Y-72380000D01*
X130060000Y-71260000D02*
X130060000Y-73500000D01*
X130180000Y-71260000D02*
X130180000Y-73500000D01*
X130300000Y-71260000D02*
X130300000Y-73500000D01*
X135620000Y-72380000D02*
X133700000Y-72380000D01*
X129460000Y-71260000D02*
X133700000Y-71260000D01*
X133700000Y-73500000D01*
X129460000Y-73500000D01*
X129460000Y-71260000D01*
X127530000Y-76630000D02*
X132470000Y-76630000D01*
X127530000Y-76960000D02*
X127530000Y-76630000D01*
X127530000Y-79370000D02*
X127530000Y-79040000D01*
X132470000Y-76630000D02*
X132470000Y-76960000D01*
X132470000Y-79040000D02*
X132470000Y-79370000D01*
X132470000Y-79370000D02*
X127530000Y-79370000D01*
X150800000Y-64601700D02*
X152200000Y-64601700D01*
X150800000Y-66001700D02*
X150800000Y-64601700D01*
X152200000Y-64601700D02*
X152200000Y-66001700D01*
X152200000Y-66001700D02*
X150800000Y-66001700D01*
X108140000Y-84000000D02*
G75*
G02*
X102900000Y-84000000I-2620000J0D01*
G01*
X102900000Y-84000000D02*
G75*
G02*
X108140000Y-84000000I2620000J0D01*
G01*
X115080000Y-71130000D02*
X122320000Y-71130000D01*
X115080000Y-73870000D02*
X115080000Y-71130000D01*
X122320000Y-71130000D02*
X122320000Y-73870000D01*
X122320000Y-73870000D02*
X115080000Y-73870000D01*
X101420000Y-69130000D02*
X108660000Y-69130000D01*
X101420000Y-71870000D02*
X101420000Y-69130000D01*
X108660000Y-69130000D02*
X108660000Y-71870000D01*
X108660000Y-71870000D02*
X101420000Y-71870000D01*
X150800000Y-66601700D02*
X152200000Y-66601700D01*
X150800000Y-68001700D02*
X150800000Y-66601700D01*
X152200000Y-66601700D02*
X152200000Y-68001700D01*
X152200000Y-68001700D02*
X150800000Y-68001700D01*
X116030000Y-76630000D02*
X120970000Y-76630000D01*
X116030000Y-76960000D02*
X116030000Y-76630000D01*
X116030000Y-79370000D02*
X116030000Y-79040000D01*
X120970000Y-76630000D02*
X120970000Y-76960000D01*
X120970000Y-79040000D02*
X120970000Y-79370000D01*
X120970000Y-79370000D02*
X116030000Y-79370000D01*
X121970000Y-69350000D02*
X125570000Y-69350000D01*
X121958547Y-69342156D02*
G75*
G02*
X122950000Y-65050000I1811453J1842156D01*
G01*
X124550000Y-65050000D02*
G75*
G02*
X125578445Y-69327684I-780000J-2450000D01*
G01*
X148800000Y-64601700D02*
X150200000Y-64601700D01*
X148800000Y-66001700D02*
X148800000Y-64601700D01*
X150200000Y-64601700D02*
X150200000Y-66001700D01*
X150200000Y-66001700D02*
X148800000Y-66001700D01*
X101940000Y-76300000D02*
X102890000Y-76300000D01*
X107680000Y-76300000D02*
X106730000Y-76300000D01*
X102890000Y-75380000D02*
X106730000Y-75380000D01*
X106730000Y-77220000D01*
X102890000Y-77220000D01*
X102890000Y-75380000D01*
X111500000Y-76320000D02*
X111500000Y-77270000D01*
X111500000Y-82060000D02*
X111500000Y-81110000D01*
X110580000Y-77270000D02*
X112420000Y-77270000D01*
X112420000Y-81110000D01*
X110580000Y-81110000D01*
X110580000Y-77270000D01*
X124000000Y-73320000D02*
X124000000Y-74270000D01*
X124000000Y-79060000D02*
X124000000Y-78110000D01*
X123080000Y-74270000D02*
X124920000Y-74270000D01*
X124920000Y-78110000D01*
X123080000Y-78110000D01*
X123080000Y-74270000D01*
X145980000Y-70280000D02*
X153220000Y-70280000D01*
X145980000Y-81720000D02*
X145980000Y-70280000D01*
X151600000Y-81720000D02*
X151600000Y-70280000D01*
X153220000Y-70280000D02*
X153220000Y-79200000D01*
X153220000Y-79800000D02*
X153220000Y-81720000D01*
X153220000Y-81720000D02*
X145980000Y-81720000D01*
X153220000Y-79500000D02*
X153830000Y-79060000D01*
X153830000Y-79940000D01*
X153220000Y-79500000D01*
G36*
X153830000Y-79940000D02*
G01*
X153220000Y-79500000D01*
X153830000Y-79060000D01*
X153830000Y-79940000D01*
G37*
X113625000Y-83373700D02*
X123375000Y-83373700D01*
X113625000Y-88423700D02*
X113625000Y-83373700D01*
X123375000Y-83373700D02*
X123375000Y-88423700D01*
X123375000Y-88423700D02*
X113625000Y-88423700D01*
X138380000Y-78200000D02*
X141320000Y-78200000D01*
X138380000Y-78320000D02*
X141320000Y-78320000D01*
X138380000Y-78440000D02*
X141320000Y-78440000D01*
X139850000Y-72760000D02*
X139850000Y-73780000D01*
X139850000Y-80240000D02*
X139850000Y-79220000D01*
X138380000Y-73780000D02*
X141320000Y-73780000D01*
X141320000Y-79220000D01*
X138380000Y-79220000D01*
X138380000Y-73780000D01*
X136090000Y-83740000D02*
X136090000Y-84050000D01*
X136090000Y-83740000D02*
X144910000Y-83740000D01*
X136090000Y-88260000D02*
X136090000Y-87950000D01*
X142000000Y-88960000D02*
X143000000Y-88960000D01*
X142500000Y-88460000D02*
X142000000Y-88960000D01*
X143000000Y-88960000D02*
X142500000Y-88460000D01*
X144910000Y-83740000D02*
X144910000Y-84050000D01*
X144910000Y-87950000D02*
X144910000Y-88260000D01*
X144910000Y-88260000D02*
X136090000Y-88260000D01*
D10*
X89550000Y-72750000D02*
X96450000Y-72750000D01*
X96450000Y-82250000D01*
X89550000Y-82250000D01*
X89550000Y-72750000D01*
D15*
X125125000Y-83373700D02*
X134875000Y-83373700D01*
X125125000Y-88423700D02*
X125125000Y-83373700D01*
X134875000Y-83373700D02*
X134875000Y-88423700D01*
X134875000Y-88423700D02*
X125125000Y-88423700D01*
X114429000Y-69350000D02*
X118029000Y-69350000D01*
X114417547Y-69342156D02*
G75*
G02*
X115409000Y-65050000I1811453J1842156D01*
G01*
X117009000Y-65050000D02*
G75*
G02*
X118037445Y-69327684I-780000J-2450000D01*
G01*
X148800000Y-66601700D02*
X150200000Y-66601700D01*
X148800000Y-68001700D02*
X148800000Y-66601700D01*
X150200000Y-66601700D02*
X150200000Y-68001700D01*
X150200000Y-68001700D02*
X148800000Y-68001700D01*
X143500000Y-72760000D02*
X143500000Y-73780000D01*
X143500000Y-80240000D02*
X143500000Y-79220000D01*
X144970000Y-74560000D02*
X142030000Y-74560000D01*
X144970000Y-74680000D02*
X142030000Y-74680000D01*
X144970000Y-74800000D02*
X142030000Y-74800000D01*
X142030000Y-73780000D02*
X144970000Y-73780000D01*
X144970000Y-79220000D01*
X142030000Y-79220000D01*
X142030000Y-73780000D01*
%LPC*%
D16*
X134880000Y-66000000D03*
X132340000Y-66000000D03*
X129800000Y-66000000D03*
D17*
X82000000Y-83000000D03*
X82000000Y-79500000D03*
X82000000Y-76000000D03*
X82000000Y-72500000D03*
D18*
X82000000Y-69000000D03*
D19*
X151000000Y-85500000D03*
D16*
X145680000Y-66000000D03*
X143140000Y-66000000D03*
X140600000Y-66000000D03*
D20*
X148000000Y-83000000D03*
D21*
X126500000Y-72380000D03*
D22*
X136660000Y-72380000D03*
D23*
X87750000Y-86400000D03*
D22*
X132500000Y-78000000D03*
X127500000Y-78000000D03*
D24*
X151500000Y-65301700D03*
D22*
X106520000Y-84000000D03*
X104520000Y-84000000D03*
X121200000Y-72500000D03*
X116200000Y-72500000D03*
X107540000Y-70500000D03*
X102540000Y-70500000D03*
D24*
X151500000Y-67301700D03*
D22*
X121000000Y-78000000D03*
X116000000Y-78000000D03*
D25*
X122500000Y-67900000D03*
D26*
X123770000Y-65830000D03*
X125040000Y-67900000D03*
D24*
X149500000Y-65301700D03*
D27*
X101000000Y-76300000D03*
X108620000Y-76300000D03*
D28*
X88000000Y-65500000D03*
X93000000Y-65500000D03*
X98000000Y-65500000D03*
D19*
X148000000Y-85500000D03*
D27*
X111500000Y-83000000D03*
X111500000Y-75380000D03*
X124000000Y-72380000D03*
X124000000Y-80000000D03*
D20*
X151000000Y-83000000D03*
D29*
X149500000Y-79500000D03*
D17*
X149500000Y-76000000D03*
X149500000Y-72500000D03*
D16*
X121040000Y-85893700D03*
X118500000Y-85893700D03*
X115960000Y-85893700D03*
D30*
X139850000Y-81580000D03*
D31*
X139850000Y-71420000D03*
D32*
X144600000Y-86000000D03*
X136400000Y-86000000D03*
D33*
X142500000Y-86000000D03*
D34*
X140500000Y-86000000D03*
X138500000Y-86000000D03*
D35*
X90500000Y-73500000D03*
X90500000Y-77500000D03*
X90500000Y-81500000D03*
X95500000Y-73500000D03*
X95500000Y-77500000D03*
X95500000Y-81500000D03*
D23*
X93000000Y-86400000D03*
D16*
X132540000Y-85893700D03*
X130000000Y-85893700D03*
X127460000Y-85893700D03*
D25*
X114959000Y-67900000D03*
D26*
X116229000Y-65830000D03*
X117499000Y-67900000D03*
D24*
X149500000Y-67301700D03*
D36*
X143500000Y-71420000D03*
D31*
X143500000Y-81580000D03*
%LPD*%
M02*
