G04 #@! TF.GenerationSoftware,KiCad,Pcbnew,10.0.5-71-g2cb2c974e9*
G04 #@! TF.CreationDate,2026-09-07T20:20:52-04:00*
G04 #@! TF.ProjectId,Fury-Taur,46757279-2d54-4617-9572-2e6b69636164,rev?*
G04 #@! TF.SameCoordinates,Original*
G04 #@! TF.FileFunction,Copper,L1,Top*
G04 #@! TF.FilePolarity,Positive*
%FSLAX46Y46*%
G04 Gerber Fmt 4.6, Leading zero omitted, Abs format (unit mm)*
G04 Created by KiCad (PCBNEW 10.0.5-71-g2cb2c974e9) date 2026-09-07 20:20:52*
%MOMM*%
%LPD*%
G01*
G04 APERTURE LIST*
G04 Aperture macros list*
%AMRoundRect*
0 Rectangle with rounded corners*
0 $1 Rounding radius*
0 $2 $3 $4 $5 $6 $7 $8 $9 X,Y pos of 4 corners*
0 Add a 4 corners polygon primitive as box body*
4,1,4,$2,$3,$4,$5,$6,$7,$8,$9,$2,$3,0*
0 Add four circle primitives for the rounded corners*
1,1,$1+$1,$2,$3*
1,1,$1+$1,$4,$5*
1,1,$1+$1,$6,$7*
1,1,$1+$1,$8,$9*
0 Add four rect primitives between the rounded corners*
20,1,$1+$1,$2,$3,$4,$5,0*
20,1,$1+$1,$4,$5,$6,$7,0*
20,1,$1+$1,$6,$7,$8,$9,0*
20,1,$1+$1,$8,$9,$2,$3,0*%
G04 Aperture macros list end*
G04 #@! TA.AperFunction,ComponentPad*
%ADD10C,1.440000*%
G04 #@! TD*
G04 #@! TA.AperFunction,ComponentPad*
%ADD11C,2.400000*%
G04 #@! TD*
G04 #@! TA.AperFunction,ComponentPad*
%ADD12RoundRect,0.250001X-0.949999X0.949999X-0.949999X-0.949999X0.949999X-0.949999X0.949999X0.949999X0*%
G04 #@! TD*
G04 #@! TA.AperFunction,ComponentPad*
%ADD13RoundRect,0.250000X-0.600000X-0.600000X0.600000X-0.600000X0.600000X0.600000X-0.600000X0.600000X0*%
G04 #@! TD*
G04 #@! TA.AperFunction,ComponentPad*
%ADD14RoundRect,0.250000X-0.550000X-0.550000X0.550000X-0.550000X0.550000X0.550000X-0.550000X0.550000X0*%
G04 #@! TD*
G04 #@! TA.AperFunction,ComponentPad*
%ADD15C,1.600000*%
G04 #@! TD*
G04 #@! TA.AperFunction,ComponentPad*
%ADD16O,3.000000X1.200000*%
G04 #@! TD*
G04 #@! TA.AperFunction,ComponentPad*
%ADD17R,1.100000X1.800000*%
G04 #@! TD*
G04 #@! TA.AperFunction,ComponentPad*
%ADD18RoundRect,0.275000X-0.275000X-0.625000X0.275000X-0.625000X0.275000X0.625000X-0.275000X0.625000X0*%
G04 #@! TD*
G04 #@! TA.AperFunction,ComponentPad*
%ADD19C,1.400000*%
G04 #@! TD*
G04 #@! TA.AperFunction,ComponentPad*
%ADD20C,1.450000*%
G04 #@! TD*
G04 #@! TA.AperFunction,ComponentPad*
%ADD21RoundRect,0.250001X0.949999X-0.949999X0.949999X0.949999X-0.949999X0.949999X-0.949999X-0.949999X0*%
G04 #@! TD*
G04 #@! TA.AperFunction,ComponentPad*
%ADD22RoundRect,0.249999X0.850001X-0.850001X0.850001X0.850001X-0.850001X0.850001X-0.850001X-0.850001X0*%
G04 #@! TD*
G04 #@! TA.AperFunction,ComponentPad*
%ADD23C,2.200000*%
G04 #@! TD*
G04 #@! TA.AperFunction,ComponentPad*
%ADD24O,2.200000X3.500000*%
G04 #@! TD*
G04 #@! TA.AperFunction,ComponentPad*
%ADD25R,1.500000X2.500000*%
G04 #@! TD*
G04 #@! TA.AperFunction,ComponentPad*
%ADD26O,1.500000X2.500000*%
G04 #@! TD*
G04 #@! TA.AperFunction,ComponentPad*
%ADD27O,1.200000X3.200000*%
G04 #@! TD*
G04 #@! TA.AperFunction,ComponentPad*
%ADD28RoundRect,0.249999X-0.850001X0.850001X-0.850001X-0.850001X0.850001X-0.850001X0.850001X0.850001X0*%
G04 #@! TD*
G04 #@! TA.AperFunction,ViaPad*
%ADD29C,0.600000*%
G04 #@! TD*
G04 #@! TA.AperFunction,Conductor*
%ADD30C,0.200000*%
G04 #@! TD*
G04 APERTURE END LIST*
D10*
X134880000Y-66000000D03*
X132340000Y-66000000D03*
X129800000Y-66000000D03*
D11*
X82000000Y-83000000D03*
X82000000Y-79500000D03*
X82000000Y-76000000D03*
X82000000Y-72500000D03*
D12*
X82000000Y-69000000D03*
D13*
X151000000Y-85500000D03*
D10*
X145680000Y-66000000D03*
X143140000Y-66000000D03*
X140600000Y-66000000D03*
D14*
X126500000Y-72380000D03*
D15*
X136660000Y-72380000D03*
D16*
X87750000Y-86400000D03*
D15*
X132500000Y-78000000D03*
X127500000Y-78000000D03*
X106520000Y-84000000D03*
X104520000Y-84000000D03*
X121200000Y-72500000D03*
X116200000Y-72500000D03*
X107540000Y-70500000D03*
X102540000Y-70500000D03*
X121000000Y-78000000D03*
X116000000Y-78000000D03*
D17*
X122500000Y-67900000D03*
D18*
X123770000Y-65830000D03*
X125040000Y-67900000D03*
D19*
X101000000Y-76300000D03*
X108620000Y-76300000D03*
D20*
X88000000Y-65500000D03*
X93000000Y-65500000D03*
X98000000Y-65500000D03*
D13*
X148000000Y-85500000D03*
D19*
X111500000Y-83000000D03*
X111500000Y-75380000D03*
X124000000Y-72380000D03*
X124000000Y-80000000D03*
D21*
X149500000Y-79500000D03*
D11*
X149500000Y-76000000D03*
X149500000Y-72500000D03*
D10*
X121040000Y-85893700D03*
X118500000Y-85893700D03*
X115960000Y-85893700D03*
D22*
X139850000Y-81580000D03*
D23*
X139850000Y-71420000D03*
D24*
X144600000Y-86000000D03*
X136400000Y-86000000D03*
D25*
X142500000Y-86000000D03*
D26*
X140500000Y-86000000D03*
X138500000Y-86000000D03*
D27*
X90500000Y-73500000D03*
X90500000Y-77500000D03*
X90500000Y-81500000D03*
X95500000Y-73500000D03*
X95500000Y-77500000D03*
X95500000Y-81500000D03*
D16*
X93000000Y-86400000D03*
D10*
X132540000Y-85893700D03*
X130000000Y-85893700D03*
X127460000Y-85893700D03*
D17*
X114959000Y-67920000D03*
D18*
X116229000Y-65850000D03*
X117499000Y-67920000D03*
D28*
X143500000Y-71420000D03*
D23*
X143500000Y-81580000D03*
D29*
X141733000Y-72895900D03*
D30*
X98000000Y-65500000D02*
X94500000Y-69000000D01*
X94500000Y-69000000D02*
X82000000Y-69000000D01*
X95500000Y-71598300D02*
X95873500Y-71598300D01*
X139120000Y-70019800D02*
X143140000Y-66000000D01*
X117114000Y-70019800D02*
X139120000Y-70019800D01*
X95873500Y-71598300D02*
X95932900Y-71657700D01*
X95500000Y-73500000D02*
X95500000Y-71598300D01*
X95932900Y-71657700D02*
X115476000Y-71657700D01*
X115476000Y-71657700D02*
X117114000Y-70019800D01*
X115960000Y-85893700D02*
X118500000Y-85893700D01*
X127460000Y-85893700D02*
X130000000Y-85893700D01*
X108414000Y-85893700D02*
X115960000Y-85893700D01*
X106520000Y-84000000D02*
X108414000Y-85893700D01*
X136660000Y-72380000D02*
X137176000Y-72895900D01*
X137176000Y-72895900D02*
X141733000Y-72895900D01*
X121320000Y-72380000D02*
X121200000Y-72500000D01*
X124000000Y-72380000D02*
X121320000Y-72380000D01*
X107540000Y-70500000D02*
X114519000Y-70500000D01*
X114519000Y-70500000D02*
X117499000Y-67520000D01*
X90500000Y-71598300D02*
X91598300Y-70500000D01*
X91598300Y-70500000D02*
X102540000Y-70500000D01*
X90500000Y-73500000D02*
X90500000Y-71598300D01*
X98628100Y-74371900D02*
X144372000Y-74371900D01*
X95500000Y-75598300D02*
X97401700Y-75598300D01*
X144372000Y-74371900D02*
X149500000Y-79500000D01*
X97401700Y-75598300D02*
X98628100Y-74371900D01*
X95500000Y-77500000D02*
X95500000Y-75598300D01*
X143500000Y-71420000D02*
X139850000Y-71420000D01*
X95500000Y-79598300D02*
X90500000Y-79598300D01*
X90500000Y-81500000D02*
X90500000Y-79598300D01*
X95500000Y-81500000D02*
X95500000Y-79598300D01*
G04 #@! TA.AperFunction,Conductor*
G36*
X121215393Y-71705622D02*
G01*
X122780190Y-72277192D01*
X122786785Y-72283250D01*
X122787876Y-72288182D01*
X122787876Y-72473205D01*
X122784449Y-72481478D01*
X122781974Y-72483367D01*
X121779695Y-73055217D01*
X121770811Y-73056341D01*
X121765024Y-73052681D01*
X121189787Y-72383387D01*
X121186962Y-72375535D01*
X121188860Y-72277192D01*
X121199683Y-71716385D01*
X121203269Y-71708182D01*
X121211607Y-71704915D01*
X121215393Y-71705622D01*
G37*
G04 #@! TD.AperFunction*
G04 #@! TA.AperFunction,Conductor*
G36*
X147743817Y-77597875D02*
G01*
X149704898Y-78296677D01*
X149711541Y-78302682D01*
X149712490Y-78309746D01*
X149502136Y-79492665D01*
X149497314Y-79500211D01*
X149492665Y-79502136D01*
X148309746Y-79712471D01*
X148301001Y-79710546D01*
X148296677Y-79704879D01*
X147597909Y-77743780D01*
X147598360Y-77734837D01*
X147600654Y-77731583D01*
X147731618Y-77600622D01*
X147739890Y-77597196D01*
X147743817Y-77597875D01*
G37*
G04 #@! TD.AperFunction*
G04 #@! TA.AperFunction,Conductor*
G36*
X115625932Y-85268574D02*
G01*
X115961449Y-85888128D01*
X115962376Y-85897035D01*
X115961449Y-85899272D01*
X115625932Y-86518825D01*
X115618979Y-86524468D01*
X115610516Y-86523769D01*
X115308630Y-86376562D01*
X114530039Y-85996904D01*
X114524105Y-85990198D01*
X114523467Y-85986388D01*
X114523467Y-85801011D01*
X114526894Y-85792738D01*
X114530037Y-85790496D01*
X115610518Y-85263629D01*
X115619454Y-85263084D01*
X115625932Y-85268574D01*
G37*
G04 #@! TD.AperFunction*
G04 #@! TA.AperFunction,Conductor*
G36*
X83197610Y-68006733D02*
G01*
X84196083Y-68896510D01*
X84199980Y-68904573D01*
X84199999Y-68905245D01*
X84199999Y-69094754D01*
X84196572Y-69103027D01*
X84196083Y-69103489D01*
X83197610Y-69993266D01*
X83189154Y-69996212D01*
X83182303Y-69993492D01*
X82009672Y-69008961D01*
X82005539Y-69001016D01*
X82008234Y-68992477D01*
X82009672Y-68991039D01*
X82112658Y-68904573D01*
X83182304Y-68006506D01*
X83190842Y-68003812D01*
X83197610Y-68006733D01*
G37*
G04 #@! TD.AperFunction*
G04 #@! TA.AperFunction,Conductor*
G36*
X107283632Y-83771918D02*
G01*
X107289152Y-83778477D01*
X107717128Y-85050966D01*
X107716517Y-85059900D01*
X107714312Y-85062968D01*
X107583158Y-85194144D01*
X107574885Y-85197572D01*
X107571156Y-85196962D01*
X106298479Y-84769151D01*
X106291729Y-84763267D01*
X106290993Y-84754725D01*
X106514763Y-84002637D01*
X106520406Y-83995687D01*
X106522630Y-83994765D01*
X107274725Y-83770993D01*
X107283632Y-83771918D01*
G37*
G04 #@! TD.AperFunction*
G04 #@! TA.AperFunction,Conductor*
G36*
X95602185Y-79601727D02*
G01*
X95603493Y-79603284D01*
X95972572Y-80129836D01*
X95974514Y-80138578D01*
X95974040Y-80140401D01*
X95511049Y-81469286D01*
X95505091Y-81475971D01*
X95496151Y-81476486D01*
X95489466Y-81470528D01*
X95488951Y-81469286D01*
X95025959Y-80140401D01*
X95026474Y-80131461D01*
X95027427Y-80129836D01*
X95396507Y-79603284D01*
X95404062Y-79598477D01*
X95406088Y-79598300D01*
X95593912Y-79598300D01*
X95602185Y-79601727D01*
G37*
G04 #@! TD.AperFunction*
G04 #@! TA.AperFunction,Conductor*
G36*
X129665932Y-85268574D02*
G01*
X130001449Y-85888128D01*
X130002376Y-85897035D01*
X130001449Y-85899272D01*
X129665932Y-86518825D01*
X129658979Y-86524468D01*
X129650516Y-86523769D01*
X129348630Y-86376562D01*
X128570039Y-85996904D01*
X128564105Y-85990198D01*
X128563467Y-85986388D01*
X128563467Y-85801011D01*
X128566894Y-85792738D01*
X128570037Y-85790496D01*
X129650518Y-85263629D01*
X129659454Y-85263084D01*
X129665932Y-85268574D01*
G37*
G04 #@! TD.AperFunction*
G04 #@! TA.AperFunction,Conductor*
G36*
X107927233Y-69799488D02*
G01*
X109129654Y-70396774D01*
X109135538Y-70403522D01*
X109136148Y-70407251D01*
X109136148Y-70592748D01*
X109132721Y-70601021D01*
X109129653Y-70603226D01*
X107927233Y-71200511D01*
X107918299Y-71201123D01*
X107911739Y-71195603D01*
X107591033Y-70603226D01*
X107538162Y-70505568D01*
X107537238Y-70496663D01*
X107538161Y-70494434D01*
X107911739Y-69804395D01*
X107918691Y-69798752D01*
X107927233Y-69799488D01*
G37*
G04 #@! TD.AperFunction*
G04 #@! TA.AperFunction,Conductor*
G36*
X90602185Y-79601727D02*
G01*
X90603493Y-79603284D01*
X90972572Y-80129836D01*
X90974514Y-80138578D01*
X90974040Y-80140401D01*
X90511049Y-81469286D01*
X90505091Y-81475971D01*
X90496151Y-81476486D01*
X90489466Y-81470528D01*
X90488951Y-81469286D01*
X90025959Y-80140401D01*
X90026474Y-80131461D01*
X90027427Y-80129836D01*
X90396507Y-79603284D01*
X90404062Y-79598477D01*
X90406088Y-79598300D01*
X90593912Y-79598300D01*
X90602185Y-79601727D01*
G37*
G04 #@! TD.AperFunction*
G04 #@! TA.AperFunction,Conductor*
G36*
X102168260Y-69804396D02*
G01*
X102541836Y-70494430D01*
X102542761Y-70503337D01*
X102541836Y-70505570D01*
X102168260Y-71195603D01*
X102161308Y-71201247D01*
X102152766Y-71200511D01*
X100950347Y-70603226D01*
X100944462Y-70596477D01*
X100943852Y-70592748D01*
X100943852Y-70407251D01*
X100947279Y-70398978D01*
X100950343Y-70396775D01*
X102152767Y-69799487D01*
X102161700Y-69798876D01*
X102168260Y-69804396D01*
G37*
G04 #@! TD.AperFunction*
G04 #@! TA.AperFunction,Conductor*
G36*
X97997103Y-65495017D02*
G01*
X98004055Y-65500661D01*
X98004982Y-65502897D01*
X98207258Y-66183030D01*
X98206331Y-66191936D01*
X98199848Y-66197429D01*
X97054785Y-66591170D01*
X97045847Y-66590620D01*
X97042707Y-66588379D01*
X96911620Y-66457292D01*
X96908193Y-66449019D01*
X96908829Y-66445214D01*
X97302571Y-65300149D01*
X97308501Y-65293442D01*
X97316967Y-65292741D01*
X97997103Y-65495017D01*
G37*
G04 #@! TD.AperFunction*
G04 #@! TA.AperFunction,Conductor*
G36*
X123675349Y-71772492D02*
G01*
X124001353Y-72374428D01*
X124002280Y-72383335D01*
X124001353Y-72385572D01*
X123675349Y-72987507D01*
X123668396Y-72993150D01*
X123659955Y-72992462D01*
X122609965Y-72483198D01*
X122604017Y-72476504D01*
X122603371Y-72472671D01*
X122603371Y-72287328D01*
X122606798Y-72279055D01*
X122609961Y-72276803D01*
X123659956Y-71767536D01*
X123668894Y-71767010D01*
X123675349Y-71772492D01*
G37*
G04 #@! TD.AperFunction*
G04 #@! TA.AperFunction,Conductor*
G36*
X143137086Y-65995035D02*
G01*
X143144038Y-66000678D01*
X143144965Y-66002915D01*
X143345809Y-66678250D01*
X143344882Y-66687157D01*
X143338404Y-66692647D01*
X142201815Y-67084088D01*
X142192877Y-67083542D01*
X142189732Y-67081299D01*
X142058654Y-66950214D01*
X142055227Y-66941941D01*
X142055865Y-66938131D01*
X142447352Y-65801593D01*
X142453285Y-65794889D01*
X142461746Y-65794190D01*
X143137086Y-65995035D01*
G37*
G04 #@! TD.AperFunction*
G04 #@! TA.AperFunction,Conductor*
G36*
X116960457Y-67295938D02*
G01*
X117064325Y-67338959D01*
X117489319Y-67514990D01*
X117495651Y-67521321D01*
X117495821Y-67529843D01*
X117050856Y-68738012D01*
X117044781Y-68744591D01*
X117035833Y-68744947D01*
X117034382Y-68744298D01*
X116632342Y-68530438D01*
X116629564Y-68528381D01*
X116494936Y-68393753D01*
X116491509Y-68385480D01*
X116492419Y-68380958D01*
X116945192Y-67302218D01*
X116951553Y-67295917D01*
X116960457Y-67295938D01*
G37*
G04 #@! TD.AperFunction*
G04 #@! TA.AperFunction,Conductor*
G36*
X142462968Y-70427303D02*
G01*
X143492158Y-71411544D01*
X143495769Y-71419739D01*
X143492528Y-71428086D01*
X143492158Y-71428456D01*
X142462968Y-72412696D01*
X142454621Y-72415937D01*
X142447290Y-72413142D01*
X141404109Y-71523503D01*
X141400038Y-71515528D01*
X141400001Y-71514601D01*
X141400001Y-71325398D01*
X141403428Y-71317125D01*
X141404099Y-71316504D01*
X142447290Y-70426856D01*
X142455809Y-70424096D01*
X142462968Y-70427303D01*
G37*
G04 #@! TD.AperFunction*
G04 #@! TA.AperFunction,Conductor*
G36*
X140434498Y-70487464D02*
G01*
X141940552Y-71316665D01*
X141946146Y-71323657D01*
X141946609Y-71326914D01*
X141946609Y-71513085D01*
X141943182Y-71521358D01*
X141940552Y-71523334D01*
X140434498Y-72352535D01*
X140425598Y-72353523D01*
X140418900Y-72348433D01*
X140300681Y-72156980D01*
X139849403Y-71426145D01*
X139847973Y-71417307D01*
X139849402Y-71413856D01*
X140418900Y-70491565D01*
X140426162Y-70486327D01*
X140434498Y-70487464D01*
G37*
G04 #@! TD.AperFunction*
G04 #@! TA.AperFunction,Conductor*
G36*
X95602185Y-75601727D02*
G01*
X95603493Y-75603284D01*
X95972572Y-76129836D01*
X95974514Y-76138578D01*
X95974040Y-76140401D01*
X95511049Y-77469286D01*
X95505091Y-77475971D01*
X95496151Y-77476486D01*
X95489466Y-77470528D01*
X95488951Y-77469286D01*
X95025959Y-76140401D01*
X95026474Y-76131461D01*
X95027427Y-76129836D01*
X95396507Y-75603284D01*
X95404062Y-75598477D01*
X95406088Y-75598300D01*
X95593912Y-75598300D01*
X95602185Y-75601727D01*
G37*
G04 #@! TD.AperFunction*
G04 #@! TA.AperFunction,Conductor*
G36*
X138061537Y-72793475D02*
G01*
X138068551Y-72799043D01*
X138070023Y-72804725D01*
X138070023Y-72985627D01*
X138066596Y-72993900D01*
X138059838Y-72997229D01*
X136667183Y-73179062D01*
X136658536Y-73176735D01*
X136655958Y-73173987D01*
X136537138Y-72997229D01*
X136477902Y-72909109D01*
X136476131Y-72900333D01*
X136481086Y-72892874D01*
X136484279Y-72891369D01*
X137422415Y-72612769D01*
X137428957Y-72612736D01*
X138061537Y-72793475D01*
G37*
G04 #@! TD.AperFunction*
G04 #@! TA.AperFunction,Conductor*
G36*
X127809481Y-85263629D02*
G01*
X128889961Y-85790495D01*
X128895895Y-85797201D01*
X128896533Y-85801011D01*
X128896533Y-85986388D01*
X128893106Y-85994661D01*
X128889961Y-85996904D01*
X127809483Y-86523769D01*
X127800545Y-86524315D01*
X127794067Y-86518825D01*
X127458549Y-85899270D01*
X127457623Y-85890365D01*
X127458550Y-85888128D01*
X127505728Y-85801011D01*
X127794068Y-85268572D01*
X127801020Y-85262931D01*
X127809481Y-85263629D01*
G37*
G04 #@! TD.AperFunction*
G04 #@! TA.AperFunction,Conductor*
G36*
X116309481Y-85263629D02*
G01*
X117389961Y-85790495D01*
X117395895Y-85797201D01*
X117396533Y-85801011D01*
X117396533Y-85986388D01*
X117393106Y-85994661D01*
X117389961Y-85996904D01*
X116309483Y-86523769D01*
X116300545Y-86524315D01*
X116294067Y-86518825D01*
X115958549Y-85899270D01*
X115957623Y-85890365D01*
X115958550Y-85888128D01*
X116005728Y-85801011D01*
X116294068Y-85268572D01*
X116301020Y-85262931D01*
X116309481Y-85263629D01*
G37*
G04 #@! TD.AperFunction*
G04 #@! TA.AperFunction,Conductor*
G36*
X123676080Y-66593062D02*
G01*
X123720630Y-66605000D01*
X123819368Y-66605000D01*
X123819370Y-66605000D01*
X123863907Y-66593066D01*
X123933754Y-66594727D01*
X123991618Y-66633889D01*
X124019123Y-66698117D01*
X124020000Y-66712840D01*
X124020000Y-67024543D01*
X124018248Y-67045314D01*
X124014794Y-67065643D01*
X124009589Y-67085821D01*
X124004159Y-67101340D01*
X124004157Y-67101346D01*
X124004156Y-67101349D01*
X123989500Y-67231434D01*
X123989500Y-68568564D01*
X124004154Y-68698629D01*
X124004157Y-68698652D01*
X124004158Y-68698656D01*
X124004159Y-68698658D01*
X124056376Y-68847883D01*
X124061878Y-68863606D01*
X124154853Y-69011576D01*
X124278424Y-69135147D01*
X124351115Y-69180821D01*
X124378023Y-69203661D01*
X124385517Y-69212134D01*
X124415186Y-69275392D01*
X124405946Y-69344648D01*
X124360791Y-69397873D01*
X124359259Y-69398881D01*
X124309757Y-69417881D01*
X124309707Y-69417889D01*
X124291056Y-69419300D01*
X123448275Y-69419300D01*
X123413340Y-69414277D01*
X123402486Y-69411090D01*
X123343708Y-69373316D01*
X123314683Y-69309760D01*
X123324620Y-69240617D01*
X123326036Y-69237516D01*
X123364541Y-69189739D01*
X123367963Y-69187178D01*
X123407546Y-69157546D01*
X123493796Y-69042331D01*
X123544091Y-68907483D01*
X123550500Y-68847873D01*
X123550499Y-66952128D01*
X123544091Y-66892517D01*
X123544091Y-66892516D01*
X123544091Y-66892514D01*
X123544089Y-66892510D01*
X123535279Y-66868890D01*
X123531698Y-66859290D01*
X123525848Y-66837967D01*
X123521970Y-66816471D01*
X123520000Y-66794456D01*
X123520000Y-66712840D01*
X123539685Y-66645801D01*
X123592489Y-66600046D01*
X123661647Y-66590102D01*
X123676080Y-66593062D01*
G37*
G04 #@! TD.AperFunction*
G04 #@! TA.AperFunction,Conductor*
G36*
X116135080Y-66613062D02*
G01*
X116179630Y-66625000D01*
X116278368Y-66625000D01*
X116278370Y-66625000D01*
X116322907Y-66613066D01*
X116392754Y-66614727D01*
X116450618Y-66653889D01*
X116478123Y-66718117D01*
X116479000Y-66732840D01*
X116479000Y-67044543D01*
X116477248Y-67065314D01*
X116473794Y-67085643D01*
X116471500Y-67090343D01*
X116468588Y-67105823D01*
X116463159Y-67121340D01*
X116463159Y-67121341D01*
X116463157Y-67121347D01*
X116461580Y-67135342D01*
X116452697Y-67169446D01*
X116247836Y-67657532D01*
X116203740Y-67711729D01*
X116137343Y-67733482D01*
X116069726Y-67715886D01*
X116022356Y-67664525D01*
X116009499Y-67609542D01*
X116009499Y-66972122D01*
X116009339Y-66970197D01*
X116009112Y-66968538D01*
X116007348Y-66952129D01*
X116003091Y-66912517D01*
X115995631Y-66892517D01*
X115995628Y-66892510D01*
X115990696Y-66879284D01*
X115984848Y-66857967D01*
X115980970Y-66836471D01*
X115979000Y-66814456D01*
X115979000Y-66732840D01*
X115998685Y-66665801D01*
X116051489Y-66620046D01*
X116120647Y-66610102D01*
X116135080Y-66613062D01*
G37*
G04 #@! TD.AperFunction*
G04 #@! TA.AperFunction,Conductor*
G36*
X152296492Y-63000693D02*
G01*
X152303470Y-63001086D01*
X152310335Y-63001664D01*
X152323878Y-63003190D01*
X152390354Y-63010679D01*
X152398016Y-63013281D01*
X152404063Y-63013009D01*
X152417556Y-63016089D01*
X152430898Y-63019933D01*
X152490352Y-63040737D01*
X152510481Y-63050430D01*
X152513734Y-63051757D01*
X152513736Y-63051759D01*
X152513738Y-63051759D01*
X152520435Y-63054493D01*
X152539540Y-63064301D01*
X152593712Y-63098339D01*
X152605043Y-63106379D01*
X152615878Y-63115020D01*
X152626235Y-63124277D01*
X152675715Y-63173757D01*
X152684980Y-63184124D01*
X152693616Y-63194953D01*
X152701663Y-63206294D01*
X152738896Y-63265549D01*
X152745627Y-63277729D01*
X152751632Y-63290201D01*
X152756949Y-63303039D01*
X152780060Y-63369085D01*
X152783911Y-63382450D01*
X152786992Y-63395950D01*
X152789320Y-63409657D01*
X152798035Y-63487011D01*
X152798036Y-63487011D01*
X152798329Y-63489609D01*
X152798915Y-63496547D01*
X152799305Y-63503485D01*
X152799500Y-63510444D01*
X152799500Y-87989554D01*
X152799304Y-87996517D01*
X152798913Y-88003469D01*
X152798329Y-88010389D01*
X152790106Y-88083374D01*
X152785131Y-88105168D01*
X152783383Y-88115787D01*
X152778072Y-88136596D01*
X152756949Y-88196960D01*
X152752711Y-88203844D01*
X152751632Y-88209797D01*
X152745627Y-88222269D01*
X152738896Y-88234449D01*
X152701663Y-88293704D01*
X152693616Y-88305045D01*
X152684980Y-88315874D01*
X152680788Y-88319550D01*
X152679377Y-88322420D01*
X152675715Y-88326241D01*
X152626241Y-88375715D01*
X152615874Y-88384980D01*
X152605045Y-88393616D01*
X152593704Y-88401663D01*
X152534449Y-88438896D01*
X152522269Y-88445627D01*
X152509797Y-88451632D01*
X152496959Y-88456949D01*
X152430913Y-88480060D01*
X152417557Y-88483909D01*
X152408348Y-88486011D01*
X152404053Y-88486991D01*
X152390341Y-88489321D01*
X152310389Y-88498329D01*
X152303470Y-88498913D01*
X152296519Y-88499304D01*
X152289555Y-88499500D01*
X79210445Y-88499500D01*
X79203482Y-88499304D01*
X79196530Y-88498913D01*
X79189610Y-88498329D01*
X79116619Y-88490105D01*
X79094847Y-88485135D01*
X79091362Y-88484561D01*
X79091361Y-88484561D01*
X79091359Y-88484561D01*
X79084214Y-88483385D01*
X79063407Y-88478073D01*
X79035463Y-88468295D01*
X79003038Y-88456949D01*
X78996153Y-88452711D01*
X78990201Y-88451632D01*
X78977729Y-88445627D01*
X78965549Y-88438896D01*
X78906294Y-88401663D01*
X78894953Y-88393616D01*
X78884124Y-88384980D01*
X78880448Y-88380789D01*
X78877580Y-88379379D01*
X78873757Y-88375715D01*
X78824283Y-88326241D01*
X78815018Y-88315874D01*
X78806382Y-88305045D01*
X78798335Y-88293704D01*
X78761099Y-88234444D01*
X78754376Y-88222280D01*
X78748371Y-88209810D01*
X78743052Y-88196970D01*
X78721278Y-88134743D01*
X78719932Y-88130895D01*
X78716085Y-88117539D01*
X78713010Y-88104068D01*
X78710680Y-88090355D01*
X78701669Y-88010372D01*
X78701084Y-88003434D01*
X78700695Y-87996498D01*
X78700500Y-87989554D01*
X78700500Y-86149998D01*
X85775883Y-86149998D01*
X85775884Y-86149999D01*
X85775885Y-86150000D01*
X86263631Y-86150000D01*
X86330670Y-86169685D01*
X86376425Y-86222489D01*
X86386369Y-86291647D01*
X86383406Y-86306092D01*
X86375000Y-86337463D01*
X86375000Y-86462536D01*
X86383406Y-86493908D01*
X86381743Y-86563758D01*
X86342579Y-86621620D01*
X86278351Y-86649123D01*
X86263631Y-86650000D01*
X85775885Y-86650000D01*
X85777084Y-86657582D01*
X85830592Y-86822259D01*
X85909197Y-86976527D01*
X86010961Y-87116596D01*
X86133402Y-87239037D01*
X86252266Y-87325395D01*
X86273475Y-87340804D01*
X86427742Y-87419408D01*
X86592415Y-87472914D01*
X86763429Y-87500000D01*
X87500000Y-87500000D01*
X87500000Y-86999000D01*
X87519685Y-86931961D01*
X87572489Y-86886206D01*
X87624000Y-86875000D01*
X87876000Y-86875000D01*
X87943039Y-86894685D01*
X87988794Y-86947489D01*
X88000000Y-86999000D01*
X88000000Y-87500000D01*
X88736570Y-87500000D01*
X88736571Y-87500000D01*
X88907584Y-87472914D01*
X89072257Y-87419408D01*
X89226524Y-87340804D01*
X89305170Y-87283664D01*
X89366596Y-87239037D01*
X89366598Y-87239034D01*
X89366602Y-87239032D01*
X89489032Y-87116602D01*
X89489034Y-87116598D01*
X89489037Y-87116596D01*
X89534179Y-87054462D01*
X89590804Y-86976524D01*
X89669408Y-86822255D01*
X89722914Y-86657584D01*
X89724115Y-86650000D01*
X89236369Y-86650000D01*
X89169330Y-86630315D01*
X89123575Y-86577511D01*
X89113631Y-86508353D01*
X89116594Y-86493908D01*
X89119460Y-86483211D01*
X89125000Y-86462535D01*
X89125000Y-86337465D01*
X89116594Y-86306092D01*
X89118257Y-86236242D01*
X89157421Y-86178380D01*
X89221649Y-86150877D01*
X89236369Y-86150000D01*
X89724115Y-86150000D01*
X89724115Y-86149998D01*
X91025883Y-86149998D01*
X91025884Y-86149999D01*
X91025885Y-86150000D01*
X91513631Y-86150000D01*
X91580670Y-86169685D01*
X91626425Y-86222489D01*
X91636369Y-86291647D01*
X91633406Y-86306092D01*
X91625000Y-86337463D01*
X91625000Y-86462536D01*
X91633406Y-86493908D01*
X91631743Y-86563758D01*
X91592579Y-86621620D01*
X91528351Y-86649123D01*
X91513631Y-86650000D01*
X91025885Y-86650000D01*
X91027084Y-86657582D01*
X91080592Y-86822259D01*
X91159197Y-86976527D01*
X91260961Y-87116596D01*
X91383402Y-87239037D01*
X91502266Y-87325395D01*
X91523475Y-87340804D01*
X91677742Y-87419408D01*
X91842415Y-87472914D01*
X92013429Y-87500000D01*
X92750000Y-87500000D01*
X92750000Y-86999000D01*
X92769685Y-86931961D01*
X92822489Y-86886206D01*
X92874000Y-86875000D01*
X93126000Y-86875000D01*
X93193039Y-86894685D01*
X93238794Y-86947489D01*
X93250000Y-86999000D01*
X93250000Y-87500000D01*
X93986570Y-87500000D01*
X93986571Y-87500000D01*
X94157584Y-87472914D01*
X94322257Y-87419408D01*
X94476524Y-87340804D01*
X94555170Y-87283664D01*
X94616596Y-87239037D01*
X94616598Y-87239034D01*
X94616602Y-87239032D01*
X94739032Y-87116602D01*
X94739034Y-87116598D01*
X94739037Y-87116596D01*
X94784179Y-87054462D01*
X94840804Y-86976524D01*
X94919408Y-86822255D01*
X94972914Y-86657584D01*
X94974115Y-86650000D01*
X94486369Y-86650000D01*
X94419330Y-86630315D01*
X94373575Y-86577511D01*
X94363631Y-86508353D01*
X94366594Y-86493908D01*
X94369460Y-86483211D01*
X94375000Y-86462535D01*
X94375000Y-86337465D01*
X94366594Y-86306092D01*
X94368257Y-86236242D01*
X94407421Y-86178380D01*
X94471649Y-86150877D01*
X94486369Y-86150000D01*
X94974115Y-86150000D01*
X94974115Y-86149998D01*
X94972914Y-86142416D01*
X94923312Y-85989759D01*
X94919408Y-85977744D01*
X94919406Y-85977741D01*
X94919406Y-85977739D01*
X94886824Y-85913794D01*
X94840804Y-85823475D01*
X94822033Y-85797639D01*
X94739037Y-85683402D01*
X94616596Y-85560961D01*
X94476527Y-85459197D01*
X94476526Y-85459196D01*
X94476524Y-85459195D01*
X94322257Y-85380591D01*
X94257393Y-85359515D01*
X94157584Y-85327084D01*
X93986575Y-85300000D01*
X93986571Y-85300000D01*
X93250000Y-85300000D01*
X93250000Y-85801000D01*
X93230315Y-85868039D01*
X93177511Y-85913794D01*
X93126000Y-85925000D01*
X92874000Y-85925000D01*
X92806961Y-85905315D01*
X92761206Y-85852511D01*
X92750000Y-85801000D01*
X92750000Y-85300000D01*
X92013429Y-85300000D01*
X92013425Y-85300000D01*
X91842416Y-85327084D01*
X91842410Y-85327086D01*
X91734090Y-85362282D01*
X91677742Y-85380591D01*
X91590207Y-85425193D01*
X91523471Y-85459197D01*
X91383402Y-85560961D01*
X91260961Y-85683402D01*
X91159197Y-85823471D01*
X91080592Y-85977739D01*
X91027084Y-86142417D01*
X91025883Y-86149998D01*
X89724115Y-86149998D01*
X89722914Y-86142416D01*
X89673312Y-85989759D01*
X89669408Y-85977744D01*
X89669406Y-85977741D01*
X89669406Y-85977739D01*
X89636824Y-85913794D01*
X89590804Y-85823475D01*
X89572033Y-85797639D01*
X89489037Y-85683402D01*
X89366596Y-85560961D01*
X89226527Y-85459197D01*
X89226526Y-85459196D01*
X89226524Y-85459195D01*
X89072257Y-85380591D01*
X89007393Y-85359515D01*
X88907584Y-85327084D01*
X88736575Y-85300000D01*
X88736571Y-85300000D01*
X88000000Y-85300000D01*
X88000000Y-85801000D01*
X87980315Y-85868039D01*
X87927511Y-85913794D01*
X87876000Y-85925000D01*
X87624000Y-85925000D01*
X87556961Y-85905315D01*
X87511206Y-85852511D01*
X87500000Y-85801000D01*
X87500000Y-85300000D01*
X86763429Y-85300000D01*
X86763425Y-85300000D01*
X86592416Y-85327084D01*
X86592410Y-85327086D01*
X86484090Y-85362282D01*
X86427742Y-85380591D01*
X86340207Y-85425193D01*
X86273471Y-85459197D01*
X86133402Y-85560961D01*
X86010961Y-85683402D01*
X85909197Y-85823471D01*
X85830592Y-85977739D01*
X85777084Y-86142417D01*
X85775883Y-86149998D01*
X78700500Y-86149998D01*
X78700500Y-65010444D01*
X78700695Y-65003499D01*
X78701085Y-64996547D01*
X78701666Y-64989649D01*
X78705107Y-64959110D01*
X78705443Y-64956129D01*
X78707923Y-64934108D01*
X78709893Y-64916615D01*
X78714860Y-64894861D01*
X78715435Y-64891365D01*
X78715437Y-64891362D01*
X78715436Y-64891358D01*
X78716614Y-64884213D01*
X78721925Y-64863407D01*
X78743055Y-64803022D01*
X78747292Y-64796138D01*
X78748372Y-64790186D01*
X78754376Y-64777716D01*
X78761086Y-64765574D01*
X78798353Y-64706265D01*
X78806374Y-64694961D01*
X78815016Y-64684124D01*
X78819201Y-64680454D01*
X78820612Y-64677587D01*
X78824251Y-64673789D01*
X78873774Y-64624266D01*
X78884114Y-64615024D01*
X78894961Y-64606374D01*
X78906265Y-64598353D01*
X78965574Y-64561086D01*
X78977716Y-64554376D01*
X78990198Y-64548366D01*
X79003014Y-64543058D01*
X79069098Y-64519933D01*
X79082447Y-64516087D01*
X79095955Y-64513004D01*
X79109631Y-64510681D01*
X79183758Y-64502330D01*
X79189644Y-64501666D01*
X79196549Y-64501085D01*
X79203503Y-64500695D01*
X79210446Y-64500500D01*
X86950883Y-64500500D01*
X86985814Y-64505522D01*
X86996802Y-64508748D01*
X87055581Y-64546520D01*
X87084608Y-64610075D01*
X87074841Y-64678852D01*
X87067548Y-64694967D01*
X87054896Y-64716726D01*
X86952290Y-64857952D01*
X86933484Y-64894861D01*
X86902265Y-64956131D01*
X86864744Y-65029768D01*
X86864736Y-65029792D01*
X86805164Y-65213138D01*
X86805164Y-65213142D01*
X86799327Y-65249999D01*
X86799327Y-65250000D01*
X87491277Y-65250000D01*
X87558316Y-65269685D01*
X87604071Y-65322489D01*
X87614015Y-65391647D01*
X87611052Y-65406088D01*
X87600000Y-65447339D01*
X87600000Y-65552661D01*
X87609248Y-65587177D01*
X87611052Y-65593907D01*
X87609389Y-65663757D01*
X87570226Y-65721619D01*
X87505998Y-65749123D01*
X87491277Y-65750000D01*
X86799327Y-65750000D01*
X86803637Y-65777213D01*
X86803638Y-65777221D01*
X86805164Y-65786861D01*
X86864736Y-65970206D01*
X86864744Y-65970230D01*
X86864745Y-65970233D01*
X86864746Y-65970234D01*
X86864747Y-65970237D01*
X86928856Y-66096055D01*
X86952290Y-66142046D01*
X86991717Y-66196313D01*
X87065616Y-66298027D01*
X87065620Y-66298032D01*
X87065625Y-66298038D01*
X87201960Y-66434373D01*
X87201964Y-66434376D01*
X87201967Y-66434379D01*
X87201972Y-66434383D01*
X87357956Y-66547711D01*
X87529762Y-66635252D01*
X87529765Y-66635253D01*
X87529767Y-66635253D01*
X87529768Y-66635254D01*
X87529776Y-66635257D01*
X87604529Y-66659545D01*
X87713142Y-66694835D01*
X87750000Y-66700673D01*
X87750000Y-66700672D01*
X87750000Y-66008722D01*
X87769685Y-65941683D01*
X87822489Y-65895928D01*
X87891647Y-65885984D01*
X87906082Y-65888945D01*
X87947339Y-65900000D01*
X88052659Y-65900000D01*
X88052661Y-65900000D01*
X88093907Y-65888948D01*
X88163755Y-65890609D01*
X88221618Y-65929771D01*
X88249123Y-65993999D01*
X88250000Y-66008722D01*
X88250000Y-66700671D01*
X88250000Y-66700672D01*
X88277215Y-66696361D01*
X88277221Y-66696361D01*
X88286855Y-66694835D01*
X88286858Y-66694835D01*
X88346498Y-66675457D01*
X88470223Y-66635257D01*
X88470227Y-66635255D01*
X88470234Y-66635253D01*
X88470237Y-66635252D01*
X88642043Y-66547711D01*
X88798027Y-66434383D01*
X88798032Y-66434379D01*
X88934379Y-66298032D01*
X88934383Y-66298027D01*
X89047711Y-66142043D01*
X89135252Y-65970237D01*
X89135253Y-65970234D01*
X89194835Y-65786858D01*
X89194835Y-65786855D01*
X89200673Y-65750000D01*
X88508723Y-65750000D01*
X88441684Y-65730315D01*
X88395929Y-65677511D01*
X88385985Y-65608353D01*
X88388948Y-65593907D01*
X88400000Y-65552661D01*
X88400000Y-65447339D01*
X88388948Y-65406092D01*
X88390611Y-65336243D01*
X88429774Y-65278381D01*
X88494002Y-65250877D01*
X88508723Y-65250000D01*
X89200673Y-65250000D01*
X89200673Y-65249999D01*
X89196362Y-65222782D01*
X89196361Y-65222778D01*
X89194834Y-65213137D01*
X89135262Y-65029792D01*
X89135254Y-65029768D01*
X89135253Y-65029767D01*
X89135253Y-65029765D01*
X89135252Y-65029762D01*
X89047711Y-64857956D01*
X89033102Y-64837848D01*
X88945210Y-64716873D01*
X88932383Y-64694722D01*
X88925033Y-64678330D01*
X88915570Y-64609107D01*
X88945035Y-64545754D01*
X89003664Y-64508507D01*
X89014377Y-64505402D01*
X89048896Y-64500500D01*
X91950225Y-64500500D01*
X91985154Y-64505521D01*
X91987289Y-64506147D01*
X91996154Y-64508751D01*
X92054933Y-64546522D01*
X92083961Y-64610076D01*
X92074209Y-64678820D01*
X92066883Y-64695021D01*
X92054217Y-64716814D01*
X92014524Y-64771447D01*
X92014523Y-64771446D01*
X91951863Y-64857691D01*
X91951859Y-64857697D01*
X91951857Y-64857699D01*
X91951855Y-64857704D01*
X91864287Y-65029565D01*
X91864286Y-65029567D01*
X91864286Y-65029568D01*
X91860280Y-65041896D01*
X91804674Y-65213032D01*
X91794324Y-65278381D01*
X91781347Y-65360318D01*
X91781306Y-65360577D01*
X91774500Y-65403547D01*
X91774500Y-65596447D01*
X91774499Y-65596447D01*
X91778515Y-65621798D01*
X91787721Y-65679921D01*
X91804657Y-65786858D01*
X91804675Y-65786968D01*
X91804682Y-65786998D01*
X91804830Y-65787446D01*
X91864286Y-65970433D01*
X91928277Y-66096020D01*
X91951859Y-66142302D01*
X92065241Y-66298359D01*
X92201641Y-66434759D01*
X92357698Y-66548141D01*
X92529571Y-66635715D01*
X92713028Y-66695324D01*
X92903551Y-66725500D01*
X92903552Y-66725500D01*
X93096448Y-66725500D01*
X93096449Y-66725500D01*
X93286972Y-66695324D01*
X93470429Y-66635715D01*
X93642302Y-66548141D01*
X93798359Y-66434759D01*
X93934759Y-66298359D01*
X94048141Y-66142302D01*
X94135715Y-65970429D01*
X94195324Y-65786972D01*
X94225500Y-65596449D01*
X94225500Y-65403551D01*
X94195324Y-65213028D01*
X94135715Y-65029571D01*
X94048141Y-64857698D01*
X93945895Y-64716968D01*
X93933040Y-64694754D01*
X93925657Y-64678261D01*
X93916233Y-64609030D01*
X93945734Y-64545694D01*
X94004349Y-64508490D01*
X94015055Y-64505390D01*
X94049536Y-64500500D01*
X96950225Y-64500500D01*
X96985154Y-64505521D01*
X96987289Y-64506147D01*
X96996154Y-64508751D01*
X97054933Y-64546522D01*
X97083961Y-64610076D01*
X97074209Y-64678820D01*
X97066883Y-64695021D01*
X97054217Y-64716814D01*
X97014524Y-64771447D01*
X97014523Y-64771446D01*
X96951863Y-64857691D01*
X96951859Y-64857697D01*
X96951857Y-64857699D01*
X96951855Y-64857704D01*
X96864285Y-65029567D01*
X96841887Y-65098500D01*
X96834289Y-65116774D01*
X96824543Y-65135772D01*
X96472021Y-66160961D01*
X96442441Y-66208320D01*
X94300191Y-68350573D01*
X94271940Y-68371722D01*
X94248852Y-68384330D01*
X94189422Y-68399500D01*
X84445398Y-68399500D01*
X84378359Y-68379815D01*
X84362901Y-68368075D01*
X83632706Y-67717371D01*
X83609665Y-67689893D01*
X83542723Y-67581364D01*
X83542721Y-67581362D01*
X83542713Y-67581348D01*
X83542710Y-67581344D01*
X83542707Y-67581341D01*
X83542705Y-67581338D01*
X83418660Y-67457293D01*
X83418657Y-67457291D01*
X83418655Y-67457289D01*
X83418651Y-67457286D01*
X83357146Y-67419349D01*
X83269343Y-67365190D01*
X83269337Y-67365187D01*
X83269335Y-67365186D01*
X83269332Y-67365185D01*
X83269330Y-67365184D01*
X83269328Y-67365183D01*
X83162834Y-67329895D01*
X83162833Y-67329895D01*
X83111265Y-67312807D01*
X83108439Y-67311639D01*
X83102796Y-67309999D01*
X83000024Y-67299500D01*
X83000015Y-67299500D01*
X83000008Y-67299500D01*
X80999992Y-67299500D01*
X80999984Y-67299500D01*
X80999974Y-67299500D01*
X80895495Y-67310174D01*
X80889915Y-67312415D01*
X80730667Y-67365184D01*
X80730655Y-67365190D01*
X80581354Y-67457282D01*
X80581341Y-67457291D01*
X80581338Y-67457293D01*
X80457293Y-67581338D01*
X80457291Y-67581341D01*
X80457282Y-67581354D01*
X80365190Y-67730655D01*
X80365184Y-67730667D01*
X80312415Y-67889915D01*
X80310174Y-67895495D01*
X80299500Y-67999974D01*
X80299500Y-70000024D01*
X80310174Y-70104502D01*
X80312415Y-70110083D01*
X80365184Y-70269331D01*
X80365190Y-70269343D01*
X80380820Y-70294682D01*
X80457286Y-70418651D01*
X80457289Y-70418655D01*
X80457291Y-70418657D01*
X80457293Y-70418660D01*
X80581338Y-70542705D01*
X80581341Y-70542707D01*
X80581344Y-70542710D01*
X80581348Y-70542713D01*
X80707135Y-70620300D01*
X80721615Y-70629232D01*
X80730662Y-70634812D01*
X80730664Y-70634813D01*
X80730666Y-70634814D01*
X80897203Y-70689999D01*
X80999992Y-70700500D01*
X80999997Y-70700500D01*
X81259535Y-70700500D01*
X81294462Y-70705521D01*
X81303094Y-70708055D01*
X81361875Y-70745825D01*
X81390904Y-70809379D01*
X81380965Y-70878538D01*
X81340698Y-70927609D01*
X81336545Y-70930604D01*
X81311466Y-70944590D01*
X81246288Y-70971586D01*
X81246279Y-70971591D01*
X81246256Y-70971603D01*
X81053237Y-71083044D01*
X81053212Y-71083061D01*
X81053210Y-71083062D01*
X80876395Y-71218736D01*
X80876379Y-71218749D01*
X80876369Y-71218758D01*
X80876361Y-71218765D01*
X80718765Y-71376361D01*
X80718758Y-71376369D01*
X80718749Y-71376379D01*
X80718736Y-71376395D01*
X80583062Y-71553210D01*
X80583061Y-71553212D01*
X80583044Y-71553237D01*
X80471595Y-71746272D01*
X80386297Y-71952199D01*
X80386288Y-71952222D01*
X80338229Y-72131590D01*
X80338228Y-72131592D01*
X80328601Y-72167516D01*
X80328593Y-72167550D01*
X80328592Y-72167556D01*
X80299503Y-72388516D01*
X80299500Y-72388541D01*
X80299500Y-72611457D01*
X80299503Y-72611482D01*
X80328593Y-72832447D01*
X80328597Y-72832467D01*
X80386288Y-73047776D01*
X80386290Y-73047780D01*
X80386293Y-73047790D01*
X80471512Y-73253527D01*
X80471595Y-73253726D01*
X80581212Y-73443589D01*
X80582233Y-73445486D01*
X80583067Y-73446873D01*
X80584571Y-73448754D01*
X80713540Y-73616832D01*
X80718751Y-73623622D01*
X80718757Y-73623629D01*
X80876370Y-73781242D01*
X80876377Y-73781248D01*
X80916875Y-73812323D01*
X81053226Y-73916948D01*
X81246274Y-74028405D01*
X81246277Y-74028406D01*
X81246282Y-74028409D01*
X81376139Y-74082197D01*
X81376140Y-74082197D01*
X81451074Y-74113236D01*
X81451086Y-74113241D01*
X81451085Y-74113241D01*
X81452209Y-74113706D01*
X81452219Y-74113710D01*
X81495670Y-74125352D01*
X81496633Y-74125610D01*
X81529071Y-74139500D01*
X81538729Y-74145386D01*
X81585731Y-74197083D01*
X81597322Y-74265984D01*
X81569871Y-74330155D01*
X81569481Y-74330628D01*
X81525302Y-74364546D01*
X81523256Y-74365480D01*
X81503858Y-74372452D01*
X81467986Y-74382064D01*
X81459820Y-74383139D01*
X81455494Y-74384932D01*
X81455486Y-74384934D01*
X81455487Y-74384935D01*
X81246272Y-74471594D01*
X81053237Y-74583044D01*
X81053212Y-74583061D01*
X81053210Y-74583062D01*
X80876395Y-74718736D01*
X80876379Y-74718749D01*
X80876369Y-74718758D01*
X80876361Y-74718765D01*
X80718765Y-74876361D01*
X80718758Y-74876369D01*
X80718749Y-74876379D01*
X80718736Y-74876395D01*
X80583062Y-75053210D01*
X80583061Y-75053212D01*
X80583044Y-75053237D01*
X80471595Y-75246272D01*
X80386297Y-75452199D01*
X80386288Y-75452222D01*
X80334457Y-75645667D01*
X80334456Y-75645669D01*
X80328601Y-75667517D01*
X80328593Y-75667550D01*
X80328592Y-75667556D01*
X80299503Y-75888516D01*
X80299500Y-75888541D01*
X80299500Y-76111457D01*
X80299503Y-76111482D01*
X80328593Y-76332447D01*
X80328597Y-76332467D01*
X80356096Y-76435095D01*
X80386289Y-76547779D01*
X80386291Y-76547786D01*
X80386293Y-76547790D01*
X80400098Y-76581118D01*
X80462397Y-76731521D01*
X80471593Y-76753722D01*
X80471600Y-76753736D01*
X80581212Y-76943589D01*
X80582233Y-76945486D01*
X80583067Y-76946873D01*
X80584571Y-76948754D01*
X80686869Y-77082073D01*
X80718751Y-77123622D01*
X80718757Y-77123629D01*
X80876370Y-77281242D01*
X80876377Y-77281248D01*
X80911089Y-77307883D01*
X81053226Y-77416948D01*
X81246274Y-77528405D01*
X81452219Y-77613710D01*
X81497603Y-77625870D01*
X81530044Y-77639762D01*
X81539704Y-77645650D01*
X81586701Y-77697352D01*
X81598286Y-77766255D01*
X81570780Y-77830482D01*
X81570754Y-77830514D01*
X81570364Y-77830986D01*
X81526296Y-77864791D01*
X81524247Y-77865727D01*
X81504819Y-77872712D01*
X81452392Y-77886760D01*
X81452385Y-77886762D01*
X81452379Y-77886764D01*
X81452372Y-77886767D01*
X81246496Y-77972045D01*
X81246493Y-77972046D01*
X81246471Y-77972058D01*
X81053508Y-78083463D01*
X80987595Y-78134040D01*
X80987595Y-78134043D01*
X81670645Y-78817092D01*
X81704130Y-78878415D01*
X81699146Y-78948106D01*
X81657274Y-79004040D01*
X81644967Y-79012159D01*
X81631592Y-79019881D01*
X81631589Y-79019883D01*
X81519883Y-79131589D01*
X81519881Y-79131592D01*
X81512159Y-79144967D01*
X81461590Y-79193181D01*
X81392983Y-79206402D01*
X81328119Y-79180433D01*
X81317092Y-79170645D01*
X80634043Y-78487595D01*
X80634040Y-78487595D01*
X80583463Y-78553508D01*
X80472058Y-78746471D01*
X80472047Y-78746490D01*
X80386764Y-78952379D01*
X80386761Y-78952387D01*
X80329091Y-79167616D01*
X80329088Y-79167632D01*
X80329083Y-79167654D01*
X80300000Y-79388574D01*
X80300000Y-79611424D01*
X80329083Y-79832344D01*
X80329086Y-79832357D01*
X80329091Y-79832382D01*
X80386761Y-80047611D01*
X80386763Y-80047618D01*
X80424064Y-80137669D01*
X80472047Y-80253508D01*
X80472052Y-80253517D01*
X80472054Y-80253520D01*
X80564353Y-80413390D01*
X80583466Y-80446494D01*
X80583478Y-80446511D01*
X80634039Y-80512402D01*
X80634040Y-80512403D01*
X80634043Y-80512403D01*
X81317094Y-79829351D01*
X81378415Y-79795868D01*
X81448106Y-79800852D01*
X81504040Y-79842723D01*
X81512157Y-79855031D01*
X81519881Y-79868408D01*
X81631592Y-79980119D01*
X81644964Y-79987839D01*
X81693179Y-80038407D01*
X81706401Y-80107014D01*
X81680433Y-80171879D01*
X81670644Y-80182907D01*
X80987595Y-80865954D01*
X80987595Y-80865957D01*
X81053505Y-80916532D01*
X81053507Y-80916533D01*
X81246485Y-81027949D01*
X81246497Y-81027954D01*
X81452381Y-81113236D01*
X81498565Y-81125611D01*
X81531005Y-81139502D01*
X81540664Y-81145389D01*
X81587664Y-81197088D01*
X81599251Y-81265990D01*
X81571748Y-81330219D01*
X81571701Y-81330276D01*
X81571310Y-81330749D01*
X81527260Y-81364533D01*
X81525211Y-81365469D01*
X81505780Y-81372455D01*
X81452396Y-81386758D01*
X81452383Y-81386762D01*
X81246490Y-81472047D01*
X81246471Y-81472058D01*
X81053508Y-81583463D01*
X80987595Y-81634040D01*
X80987595Y-81634043D01*
X81670645Y-82317092D01*
X81704130Y-82378415D01*
X81699146Y-82448106D01*
X81657274Y-82504040D01*
X81644967Y-82512159D01*
X81631592Y-82519881D01*
X81631589Y-82519883D01*
X81519883Y-82631589D01*
X81519881Y-82631592D01*
X81512159Y-82644967D01*
X81461590Y-82693181D01*
X81392983Y-82706402D01*
X81328119Y-82680433D01*
X81317092Y-82670645D01*
X80634043Y-81987595D01*
X80634040Y-81987595D01*
X80583463Y-82053508D01*
X80472058Y-82246471D01*
X80472047Y-82246490D01*
X80420557Y-82370796D01*
X80387607Y-82450345D01*
X80386764Y-82452379D01*
X80386761Y-82452387D01*
X80329091Y-82667616D01*
X80329086Y-82667641D01*
X80329083Y-82667654D01*
X80300000Y-82888574D01*
X80300000Y-83111424D01*
X80329083Y-83332344D01*
X80329086Y-83332357D01*
X80329091Y-83332382D01*
X80386761Y-83547611D01*
X80386763Y-83547618D01*
X80419752Y-83627259D01*
X80472047Y-83753508D01*
X80472050Y-83753513D01*
X80472054Y-83753520D01*
X80582197Y-83944297D01*
X80583466Y-83946494D01*
X80583478Y-83946511D01*
X80634039Y-84012402D01*
X80634040Y-84012403D01*
X80634043Y-84012403D01*
X81317094Y-83329351D01*
X81378415Y-83295868D01*
X81448106Y-83300852D01*
X81504040Y-83342723D01*
X81512157Y-83355031D01*
X81519881Y-83368408D01*
X81631592Y-83480119D01*
X81644964Y-83487839D01*
X81693179Y-83538407D01*
X81706401Y-83607014D01*
X81680433Y-83671879D01*
X81670644Y-83682907D01*
X80987595Y-84365954D01*
X80987595Y-84365957D01*
X81053505Y-84416532D01*
X81053507Y-84416533D01*
X81246485Y-84527949D01*
X81246497Y-84527954D01*
X81452381Y-84613236D01*
X81566618Y-84643845D01*
X81667616Y-84670907D01*
X81667620Y-84670907D01*
X81667632Y-84670911D01*
X81667645Y-84670914D01*
X81888575Y-84700000D01*
X82111418Y-84700000D01*
X82111425Y-84700000D01*
X82332354Y-84670914D01*
X82332367Y-84670911D01*
X82547618Y-84613236D01*
X82753502Y-84527954D01*
X82753514Y-84527949D01*
X82946498Y-84416530D01*
X83012403Y-84365957D01*
X83012404Y-84365956D01*
X83012403Y-84365955D01*
X83012404Y-84365955D01*
X82329354Y-83682907D01*
X82295869Y-83621584D01*
X82300853Y-83551893D01*
X82342724Y-83495959D01*
X82355022Y-83487846D01*
X82368408Y-83480119D01*
X82480119Y-83368408D01*
X82487839Y-83355035D01*
X82538405Y-83306821D01*
X82607012Y-83293597D01*
X82671877Y-83319565D01*
X82682907Y-83329355D01*
X83365956Y-84012404D01*
X83365957Y-84012403D01*
X83416530Y-83946497D01*
X83416534Y-83946492D01*
X83444718Y-83897676D01*
X103220000Y-83897676D01*
X103220000Y-84102322D01*
X103248188Y-84280290D01*
X103252009Y-84304417D01*
X103315244Y-84499031D01*
X103356840Y-84580667D01*
X103408144Y-84681357D01*
X103408147Y-84681360D01*
X103440517Y-84725914D01*
X103440521Y-84725919D01*
X103440523Y-84725921D01*
X103440524Y-84725922D01*
X103983503Y-84182942D01*
X104044824Y-84149459D01*
X104114515Y-84154443D01*
X104170449Y-84196314D01*
X104178567Y-84208622D01*
X104199920Y-84245606D01*
X104274394Y-84320080D01*
X104274395Y-84320081D01*
X104274397Y-84320082D01*
X104311373Y-84341430D01*
X104359588Y-84391996D01*
X104372812Y-84460603D01*
X104346844Y-84525468D01*
X104337054Y-84536498D01*
X103794075Y-85079473D01*
X103794076Y-85079473D01*
X103794076Y-85079474D01*
X103838650Y-85111859D01*
X103884628Y-85135286D01*
X104020963Y-85204753D01*
X104020965Y-85204753D01*
X104020968Y-85204755D01*
X104215582Y-85267990D01*
X104417683Y-85300000D01*
X104622316Y-85300000D01*
X104622317Y-85300000D01*
X104824417Y-85267990D01*
X105019031Y-85204755D01*
X105024572Y-85201932D01*
X105201347Y-85111860D01*
X105201346Y-85111860D01*
X105201349Y-85111859D01*
X105245921Y-85079474D01*
X104702945Y-84536498D01*
X104669460Y-84475175D01*
X104674444Y-84405483D01*
X104716316Y-84349550D01*
X104728618Y-84341434D01*
X104765606Y-84320080D01*
X104840080Y-84245606D01*
X104861430Y-84208625D01*
X104911995Y-84160411D01*
X104980602Y-84147187D01*
X105045467Y-84173154D01*
X105056498Y-84182945D01*
X105255436Y-84381883D01*
X105273482Y-84404773D01*
X105288396Y-84429110D01*
X105300599Y-84455580D01*
X105310255Y-84485296D01*
X105314717Y-84499029D01*
X105314778Y-84499215D01*
X105314781Y-84499224D01*
X105356277Y-84580661D01*
X105356277Y-84580663D01*
X105356278Y-84580663D01*
X105407537Y-84681265D01*
X105407715Y-84681614D01*
X105528026Y-84847211D01*
X105528027Y-84847212D01*
X105528028Y-84847213D01*
X105672786Y-84991971D01*
X105827748Y-85104555D01*
X105827749Y-85104557D01*
X105834626Y-85109552D01*
X105838390Y-85112287D01*
X105883528Y-85135286D01*
X105954607Y-85171503D01*
X106014327Y-85201932D01*
X106015930Y-85202870D01*
X106019629Y-85204662D01*
X106021637Y-85205660D01*
X106025403Y-85206722D01*
X106046255Y-85213497D01*
X106078697Y-85224038D01*
X106099460Y-85230784D01*
X106116963Y-85237992D01*
X106137412Y-85248304D01*
X107287579Y-85634932D01*
X107335742Y-85664781D01*
X107982246Y-86311182D01*
X108045285Y-86374221D01*
X108045294Y-86374229D01*
X108048627Y-86376809D01*
X108047528Y-86378228D01*
X108061876Y-86395475D01*
X108097818Y-86407456D01*
X108120600Y-86417703D01*
X108179960Y-86451974D01*
X108181627Y-86452955D01*
X108182259Y-86453333D01*
X108182263Y-86453334D01*
X108182267Y-86453337D01*
X108182279Y-86453342D01*
X108182720Y-86453451D01*
X108183168Y-86453562D01*
X108185460Y-86454151D01*
X108248714Y-86471096D01*
X108278148Y-86483211D01*
X108280736Y-86484690D01*
X108298391Y-86484406D01*
X108327198Y-86492124D01*
X108333387Y-86494225D01*
X108337505Y-86494309D01*
X108343693Y-86494559D01*
X108347255Y-86494205D01*
X108407966Y-86494201D01*
X108420129Y-86494200D01*
X114367914Y-86494200D01*
X114422262Y-86506745D01*
X115055109Y-86815335D01*
X115055113Y-86815338D01*
X115388960Y-86978130D01*
X115428656Y-86995423D01*
X115434130Y-86997225D01*
X115433843Y-86998096D01*
X115451788Y-87004552D01*
X115491493Y-87024783D01*
X115582845Y-87054464D01*
X115674199Y-87084147D01*
X115863945Y-87114200D01*
X115863946Y-87114200D01*
X116056054Y-87114200D01*
X116056055Y-87114200D01*
X116245801Y-87084147D01*
X116428509Y-87024782D01*
X116492476Y-86992187D01*
X116510822Y-86984624D01*
X116531039Y-86978129D01*
X117175653Y-86663799D01*
X117244536Y-86652110D01*
X117284346Y-86663799D01*
X117595110Y-86815335D01*
X117595114Y-86815338D01*
X117928960Y-86978130D01*
X117968656Y-86995423D01*
X117974130Y-86997225D01*
X117973843Y-86998096D01*
X117991788Y-87004552D01*
X118031493Y-87024783D01*
X118122845Y-87054464D01*
X118214199Y-87084147D01*
X118403945Y-87114200D01*
X118403946Y-87114200D01*
X118596054Y-87114200D01*
X118596055Y-87114200D01*
X118785801Y-87084147D01*
X118961919Y-87026923D01*
X118968506Y-87024783D01*
X118968506Y-87024782D01*
X118968509Y-87024782D01*
X119139681Y-86937565D01*
X119295102Y-86824645D01*
X119430945Y-86688802D01*
X119543865Y-86533381D01*
X119631082Y-86362209D01*
X119634791Y-86350794D01*
X119639123Y-86337463D01*
X119641998Y-86328612D01*
X119646560Y-86314571D01*
X119662124Y-86282912D01*
X119668515Y-86273566D01*
X119722598Y-86229338D01*
X119792012Y-86221370D01*
X119854707Y-86252188D01*
X119856987Y-86254281D01*
X119891085Y-86307329D01*
X119908913Y-86362201D01*
X119908914Y-86362204D01*
X119976170Y-86494199D01*
X119996133Y-86533379D01*
X120028197Y-86577511D01*
X120109055Y-86688802D01*
X120244898Y-86824645D01*
X120400319Y-86937565D01*
X120476780Y-86976524D01*
X120571493Y-87024783D01*
X120662845Y-87054464D01*
X120754199Y-87084147D01*
X120943945Y-87114200D01*
X120943946Y-87114200D01*
X121136054Y-87114200D01*
X121136055Y-87114200D01*
X121325801Y-87084147D01*
X121501919Y-87026923D01*
X121508506Y-87024783D01*
X121508506Y-87024782D01*
X121508509Y-87024782D01*
X121679681Y-86937565D01*
X121835102Y-86824645D01*
X121970945Y-86688802D01*
X122083865Y-86533381D01*
X122171082Y-86362209D01*
X122230447Y-86179501D01*
X122260500Y-85989755D01*
X122260500Y-85797645D01*
X122260499Y-85797639D01*
X126239500Y-85797639D01*
X126239500Y-85989759D01*
X126269553Y-86179505D01*
X126328913Y-86362200D01*
X126328915Y-86362206D01*
X126396170Y-86494199D01*
X126416133Y-86533379D01*
X126448197Y-86577511D01*
X126529055Y-86688802D01*
X126664898Y-86824645D01*
X126820319Y-86937565D01*
X126896780Y-86976524D01*
X126991493Y-87024783D01*
X127082845Y-87054464D01*
X127174199Y-87084147D01*
X127363945Y-87114200D01*
X127363946Y-87114200D01*
X127556054Y-87114200D01*
X127556055Y-87114200D01*
X127745801Y-87084147D01*
X127928509Y-87024782D01*
X127992476Y-86992187D01*
X128010822Y-86984624D01*
X128031039Y-86978129D01*
X128675653Y-86663799D01*
X128744536Y-86652110D01*
X128784346Y-86663799D01*
X129095110Y-86815335D01*
X129095114Y-86815338D01*
X129428960Y-86978130D01*
X129468656Y-86995423D01*
X129474130Y-86997225D01*
X129473843Y-86998096D01*
X129491788Y-87004552D01*
X129531493Y-87024783D01*
X129622845Y-87054464D01*
X129714199Y-87084147D01*
X129903945Y-87114200D01*
X129903946Y-87114200D01*
X130096054Y-87114200D01*
X130096055Y-87114200D01*
X130285801Y-87084147D01*
X130461919Y-87026923D01*
X130468506Y-87024783D01*
X130468506Y-87024782D01*
X130468509Y-87024782D01*
X130639681Y-86937565D01*
X130795102Y-86824645D01*
X130930945Y-86688802D01*
X131043865Y-86533381D01*
X131131082Y-86362209D01*
X131134791Y-86350794D01*
X131139123Y-86337463D01*
X131141998Y-86328612D01*
X131146560Y-86314571D01*
X131162124Y-86282912D01*
X131168515Y-86273566D01*
X131222598Y-86229338D01*
X131292012Y-86221370D01*
X131354707Y-86252188D01*
X131356987Y-86254281D01*
X131391085Y-86307329D01*
X131408913Y-86362201D01*
X131408914Y-86362204D01*
X131476170Y-86494199D01*
X131496133Y-86533379D01*
X131528197Y-86577511D01*
X131609055Y-86688802D01*
X131744898Y-86824645D01*
X131900319Y-86937565D01*
X131976780Y-86976524D01*
X132071493Y-87024783D01*
X132162845Y-87054464D01*
X132254199Y-87084147D01*
X132443945Y-87114200D01*
X132443946Y-87114200D01*
X132636054Y-87114200D01*
X132636055Y-87114200D01*
X132825801Y-87084147D01*
X133001919Y-87026923D01*
X133008506Y-87024783D01*
X133008506Y-87024782D01*
X133008509Y-87024782D01*
X133179681Y-86937565D01*
X133335102Y-86824645D01*
X133470945Y-86688802D01*
X133583865Y-86533381D01*
X133671082Y-86362209D01*
X133730447Y-86179501D01*
X133760500Y-85989755D01*
X133760500Y-85797645D01*
X133730447Y-85607899D01*
X133700424Y-85515497D01*
X133700424Y-85515496D01*
X133671085Y-85425198D01*
X133671078Y-85425182D01*
X133607549Y-85300500D01*
X133607548Y-85300500D01*
X133607547Y-85300498D01*
X133607546Y-85300497D01*
X133583865Y-85254019D01*
X133583864Y-85254017D01*
X133578132Y-85246128D01*
X133578128Y-85246123D01*
X133566905Y-85230676D01*
X133566904Y-85230675D01*
X133566902Y-85230672D01*
X133562081Y-85224037D01*
X134799500Y-85224037D01*
X134799500Y-86775961D01*
X134811306Y-86850500D01*
X134838910Y-87024786D01*
X134838910Y-87024789D01*
X134916759Y-87264381D01*
X134916762Y-87264388D01*
X134948998Y-87327652D01*
X134948998Y-87327654D01*
X134948999Y-87327654D01*
X135013286Y-87453825D01*
X135031132Y-87488848D01*
X135031135Y-87488853D01*
X135126181Y-87619673D01*
X135179201Y-87692649D01*
X135179205Y-87692654D01*
X135179210Y-87692660D01*
X135357338Y-87870788D01*
X135357342Y-87870791D01*
X135357345Y-87870794D01*
X135357350Y-87870798D01*
X135357367Y-87870810D01*
X135525603Y-87993040D01*
X135525604Y-87993041D01*
X135561150Y-88018867D01*
X135561152Y-88018868D01*
X135561155Y-88018870D01*
X135704184Y-88091747D01*
X135704183Y-88091747D01*
X135715019Y-88097268D01*
X135779173Y-88129956D01*
X135780760Y-88130886D01*
X135784478Y-88132687D01*
X135786475Y-88133680D01*
X135790243Y-88134743D01*
X135981727Y-88196960D01*
X136025215Y-88211090D01*
X136274038Y-88250500D01*
X136274039Y-88250500D01*
X136525961Y-88250500D01*
X136525962Y-88250500D01*
X136774785Y-88211090D01*
X137014379Y-88133241D01*
X137238845Y-88018870D01*
X137442656Y-87870793D01*
X137620793Y-87692656D01*
X137673817Y-87619672D01*
X137698413Y-87594363D01*
X137710793Y-87584816D01*
X137775899Y-87559465D01*
X137782471Y-87558901D01*
X137849374Y-87571960D01*
X137893345Y-87594363D01*
X137914705Y-87605246D01*
X137914707Y-87605248D01*
X137932265Y-87614194D01*
X138013527Y-87655599D01*
X138015118Y-87656531D01*
X138018818Y-87658323D01*
X138020831Y-87659324D01*
X138024597Y-87660386D01*
X138062082Y-87672565D01*
X138120315Y-87691486D01*
X138120316Y-87691487D01*
X138127423Y-87693796D01*
X138207173Y-87719709D01*
X138401578Y-87750500D01*
X138401583Y-87750500D01*
X138598421Y-87750500D01*
X138598422Y-87750500D01*
X138792826Y-87719709D01*
X138872574Y-87693797D01*
X138980025Y-87658884D01*
X139155405Y-87569524D01*
X139314646Y-87453828D01*
X139399717Y-87368756D01*
X139427964Y-87347611D01*
X139441688Y-87340117D01*
X139509946Y-87325266D01*
X139511756Y-87325395D01*
X139569953Y-87344761D01*
X139576471Y-87348950D01*
X139597106Y-87365580D01*
X139685354Y-87453828D01*
X139844595Y-87569524D01*
X139914708Y-87605248D01*
X139914709Y-87605249D01*
X139932265Y-87614194D01*
X140013527Y-87655599D01*
X140015118Y-87656531D01*
X140018818Y-87658323D01*
X140020831Y-87659324D01*
X140024597Y-87660386D01*
X140062082Y-87672565D01*
X140120315Y-87691486D01*
X140120316Y-87691487D01*
X140127423Y-87693796D01*
X140207173Y-87719709D01*
X140401578Y-87750500D01*
X140401583Y-87750500D01*
X140598421Y-87750500D01*
X140598422Y-87750500D01*
X140792826Y-87719709D01*
X140872574Y-87693797D01*
X140980025Y-87658884D01*
X141155405Y-87569524D01*
X141177194Y-87553692D01*
X141208399Y-87537225D01*
X141223121Y-87531972D01*
X141292859Y-87527977D01*
X141295087Y-87528495D01*
X141348896Y-87556151D01*
X141354095Y-87560722D01*
X141371480Y-87579529D01*
X141385792Y-87598646D01*
X141387977Y-87602187D01*
X141390340Y-87605015D01*
X141394033Y-87609684D01*
X141401333Y-87614193D01*
X141507664Y-87693793D01*
X141507671Y-87693797D01*
X141557155Y-87712253D01*
X141592513Y-87738721D01*
X141649444Y-87744835D01*
X141649443Y-87744839D01*
X141649458Y-87744836D01*
X141702127Y-87750500D01*
X143297872Y-87750499D01*
X143346831Y-87745236D01*
X143382101Y-87746496D01*
X143405625Y-87750740D01*
X143456132Y-87772191D01*
X143457402Y-87773106D01*
X143472539Y-87785988D01*
X143557345Y-87870794D01*
X143557350Y-87870798D01*
X143557367Y-87870810D01*
X143725603Y-87993040D01*
X143725604Y-87993041D01*
X143761150Y-88018867D01*
X143761152Y-88018868D01*
X143761155Y-88018870D01*
X143904184Y-88091747D01*
X143904183Y-88091747D01*
X143915019Y-88097268D01*
X143979173Y-88129956D01*
X143980760Y-88130886D01*
X143984478Y-88132687D01*
X143986475Y-88133680D01*
X143990243Y-88134743D01*
X144181727Y-88196960D01*
X144225215Y-88211090D01*
X144474038Y-88250500D01*
X144474039Y-88250500D01*
X144725961Y-88250500D01*
X144725962Y-88250500D01*
X144974785Y-88211090D01*
X145214379Y-88133241D01*
X145438845Y-88018870D01*
X145642656Y-87870793D01*
X145820793Y-87692656D01*
X145968870Y-87488845D01*
X146083241Y-87264379D01*
X146161090Y-87024785D01*
X146200500Y-86775962D01*
X146200500Y-85224038D01*
X146197519Y-85205220D01*
X146182800Y-85112285D01*
X146161090Y-84975215D01*
X146161089Y-84975211D01*
X146161089Y-84975210D01*
X146131825Y-84885145D01*
X146120397Y-84849973D01*
X146649500Y-84849973D01*
X146649500Y-84849996D01*
X146649501Y-86150000D01*
X146649501Y-86150026D01*
X146652513Y-86179505D01*
X146660000Y-86252796D01*
X146660001Y-86252799D01*
X146700246Y-86374248D01*
X146700245Y-86374248D01*
X146715184Y-86419328D01*
X146715186Y-86419334D01*
X146807288Y-86568656D01*
X146931344Y-86692712D01*
X147080666Y-86784814D01*
X147247203Y-86839999D01*
X147349991Y-86850500D01*
X148650008Y-86850499D01*
X148752797Y-86839999D01*
X148919334Y-86784814D01*
X149068656Y-86692712D01*
X149192712Y-86568656D01*
X149284814Y-86419334D01*
X149339999Y-86252797D01*
X149350500Y-86150009D01*
X149350499Y-84849992D01*
X149350497Y-84849973D01*
X149649500Y-84849973D01*
X149649500Y-84849996D01*
X149649501Y-86150000D01*
X149649501Y-86150026D01*
X149652513Y-86179505D01*
X149660000Y-86252796D01*
X149660001Y-86252799D01*
X149700246Y-86374248D01*
X149700245Y-86374248D01*
X149715184Y-86419328D01*
X149715186Y-86419334D01*
X149807288Y-86568656D01*
X149931344Y-86692712D01*
X150080666Y-86784814D01*
X150247203Y-86839999D01*
X150349991Y-86850500D01*
X151650008Y-86850499D01*
X151752797Y-86839999D01*
X151919334Y-86784814D01*
X152068656Y-86692712D01*
X152192712Y-86568656D01*
X152284814Y-86419334D01*
X152339999Y-86252797D01*
X152350500Y-86150009D01*
X152350499Y-84849992D01*
X152350482Y-84849830D01*
X152339999Y-84747203D01*
X152339998Y-84747200D01*
X152332946Y-84725919D01*
X152284814Y-84580666D01*
X152192712Y-84431344D01*
X152068656Y-84307288D01*
X151919334Y-84215186D01*
X151761265Y-84162807D01*
X151758439Y-84161639D01*
X151752796Y-84159999D01*
X151650025Y-84149500D01*
X151650016Y-84149500D01*
X151349857Y-84149500D01*
X151314921Y-84144477D01*
X151306288Y-84141942D01*
X151247510Y-84104167D01*
X151218486Y-84040610D01*
X151228430Y-83971452D01*
X151268698Y-83922386D01*
X151272858Y-83919387D01*
X151297927Y-83905408D01*
X151450224Y-83842325D01*
X151450224Y-83842324D01*
X151450231Y-83842322D01*
X151605908Y-83738302D01*
X151738302Y-83605908D01*
X151842322Y-83450231D01*
X151913973Y-83277251D01*
X151950500Y-83093616D01*
X151950500Y-82906384D01*
X151913973Y-82722749D01*
X151842322Y-82549769D01*
X151842321Y-82549768D01*
X151842318Y-82549762D01*
X151842318Y-82549761D01*
X151738300Y-82394089D01*
X151738299Y-82394088D01*
X151738294Y-82394082D01*
X151605916Y-82261704D01*
X151605910Y-82261699D01*
X151605909Y-82261698D01*
X151450231Y-82157677D01*
X151450232Y-82157677D01*
X151450222Y-82157672D01*
X151277252Y-82086027D01*
X151277225Y-82086021D01*
X151093622Y-82049500D01*
X151093620Y-82049500D01*
X151093616Y-82049500D01*
X150906384Y-82049500D01*
X150906379Y-82049500D01*
X150906377Y-82049500D01*
X150722773Y-82086021D01*
X150722746Y-82086027D01*
X150549776Y-82157672D01*
X150549766Y-82157677D01*
X150394089Y-82261698D01*
X150394088Y-82261699D01*
X150394082Y-82261704D01*
X150261704Y-82394082D01*
X150261699Y-82394088D01*
X150261698Y-82394089D01*
X150157677Y-82549766D01*
X150157672Y-82549776D01*
X150086027Y-82722746D01*
X150086021Y-82722773D01*
X150049500Y-82906376D01*
X150049500Y-82906379D01*
X150049500Y-83093620D01*
X150049500Y-83093622D01*
X150049499Y-83093622D01*
X150086021Y-83277225D01*
X150086027Y-83277252D01*
X150157672Y-83450222D01*
X150157677Y-83450232D01*
X150261698Y-83605909D01*
X150261699Y-83605910D01*
X150261704Y-83605916D01*
X150394082Y-83738294D01*
X150394088Y-83738299D01*
X150394092Y-83738302D01*
X150549762Y-83842318D01*
X150549775Y-83842325D01*
X150549779Y-83842327D01*
X150557696Y-83845606D01*
X150608765Y-83866759D01*
X150608766Y-83866760D01*
X150698952Y-83904116D01*
X150729298Y-83922119D01*
X150736303Y-83927763D01*
X150776156Y-83985152D01*
X150778656Y-84054977D01*
X150743009Y-84115069D01*
X150687039Y-84144993D01*
X150682053Y-84146172D01*
X150653519Y-84149500D01*
X150349998Y-84149500D01*
X150349981Y-84149501D01*
X150335959Y-84150933D01*
X150247198Y-84160000D01*
X150247193Y-84160001D01*
X150247032Y-84160056D01*
X150080667Y-84215185D01*
X150080665Y-84215186D01*
X150080663Y-84215187D01*
X150013410Y-84256669D01*
X149931340Y-84307290D01*
X149807290Y-84431340D01*
X149800947Y-84441624D01*
X149715189Y-84580661D01*
X149715185Y-84580667D01*
X149715180Y-84580680D01*
X149690475Y-84655236D01*
X149687349Y-84664670D01*
X149684523Y-84673200D01*
X149670299Y-84716123D01*
X149661852Y-84729068D01*
X149660364Y-84743635D01*
X149659542Y-84749879D01*
X149659359Y-84753473D01*
X149649500Y-84849973D01*
X149350497Y-84849973D01*
X149339999Y-84747203D01*
X149284814Y-84580666D01*
X149192712Y-84431344D01*
X149068656Y-84307288D01*
X148919334Y-84215186D01*
X148761265Y-84162807D01*
X148758439Y-84161639D01*
X148752796Y-84159999D01*
X148650025Y-84149500D01*
X148650016Y-84149500D01*
X148349857Y-84149500D01*
X148314921Y-84144477D01*
X148306288Y-84141942D01*
X148247510Y-84104167D01*
X148218486Y-84040610D01*
X148228430Y-83971452D01*
X148268698Y-83922386D01*
X148272858Y-83919387D01*
X148297927Y-83905408D01*
X148450224Y-83842325D01*
X148450224Y-83842324D01*
X148450231Y-83842322D01*
X148605908Y-83738302D01*
X148738302Y-83605908D01*
X148842322Y-83450231D01*
X148913973Y-83277251D01*
X148950500Y-83093616D01*
X148950500Y-82906384D01*
X148913973Y-82722749D01*
X148842322Y-82549769D01*
X148842321Y-82549768D01*
X148842318Y-82549762D01*
X148842318Y-82549761D01*
X148738300Y-82394089D01*
X148738299Y-82394088D01*
X148738294Y-82394082D01*
X148605916Y-82261704D01*
X148605910Y-82261699D01*
X148605909Y-82261698D01*
X148450231Y-82157677D01*
X148450232Y-82157677D01*
X148450222Y-82157672D01*
X148277252Y-82086027D01*
X148277225Y-82086021D01*
X148093622Y-82049500D01*
X148093620Y-82049500D01*
X148093616Y-82049500D01*
X147906384Y-82049500D01*
X147906379Y-82049500D01*
X147906377Y-82049500D01*
X147722773Y-82086021D01*
X147722746Y-82086027D01*
X147549776Y-82157672D01*
X147549766Y-82157677D01*
X147394089Y-82261698D01*
X147394088Y-82261699D01*
X147394082Y-82261704D01*
X147261704Y-82394082D01*
X147261699Y-82394088D01*
X147261698Y-82394089D01*
X147157677Y-82549766D01*
X147157672Y-82549776D01*
X147086027Y-82722746D01*
X147086021Y-82722773D01*
X147049500Y-82906376D01*
X147049500Y-82906379D01*
X147049500Y-83093620D01*
X147049500Y-83093622D01*
X147049499Y-83093622D01*
X147086021Y-83277225D01*
X147086027Y-83277252D01*
X147157672Y-83450222D01*
X147157677Y-83450232D01*
X147261698Y-83605909D01*
X147261699Y-83605910D01*
X147261704Y-83605916D01*
X147394082Y-83738294D01*
X147394088Y-83738299D01*
X147394092Y-83738302D01*
X147549762Y-83842318D01*
X147549775Y-83842325D01*
X147549779Y-83842327D01*
X147557696Y-83845606D01*
X147608765Y-83866759D01*
X147608766Y-83866760D01*
X147698952Y-83904116D01*
X147729298Y-83922119D01*
X147736303Y-83927763D01*
X147776156Y-83985152D01*
X147778656Y-84054977D01*
X147743009Y-84115069D01*
X147687039Y-84144993D01*
X147682053Y-84146172D01*
X147653519Y-84149500D01*
X147349998Y-84149500D01*
X147349981Y-84149501D01*
X147335959Y-84150933D01*
X147247198Y-84160000D01*
X147247193Y-84160001D01*
X147247032Y-84160056D01*
X147080667Y-84215185D01*
X147080665Y-84215186D01*
X147080663Y-84215187D01*
X147013410Y-84256669D01*
X146931340Y-84307290D01*
X146807290Y-84431340D01*
X146800947Y-84441624D01*
X146715189Y-84580661D01*
X146715185Y-84580667D01*
X146715180Y-84580680D01*
X146690475Y-84655236D01*
X146687349Y-84664670D01*
X146684523Y-84673200D01*
X146670299Y-84716123D01*
X146661852Y-84729068D01*
X146660364Y-84743635D01*
X146659542Y-84749879D01*
X146659359Y-84753473D01*
X146649500Y-84849973D01*
X146120397Y-84849973D01*
X146087874Y-84749879D01*
X146084742Y-84740241D01*
X146083680Y-84736476D01*
X146082683Y-84734469D01*
X146080891Y-84730770D01*
X146079953Y-84729167D01*
X146050270Y-84670912D01*
X146020883Y-84613236D01*
X145968870Y-84511155D01*
X145918353Y-84441624D01*
X145820798Y-84307350D01*
X145820794Y-84307345D01*
X145820791Y-84307342D01*
X145820788Y-84307338D01*
X145642660Y-84129210D01*
X145642655Y-84129206D01*
X145642654Y-84129205D01*
X145642649Y-84129201D01*
X145446743Y-83986868D01*
X145446402Y-83986577D01*
X145438838Y-83981124D01*
X145438474Y-83980941D01*
X145310406Y-83915687D01*
X145214383Y-83866760D01*
X145102648Y-83830455D01*
X144974787Y-83788910D01*
X144931631Y-83782075D01*
X144931618Y-83782073D01*
X144725962Y-83749500D01*
X144725961Y-83749500D01*
X144474039Y-83749500D01*
X144474038Y-83749500D01*
X144448657Y-83753520D01*
X144443139Y-83754394D01*
X144225212Y-83788910D01*
X144225209Y-83788910D01*
X143985622Y-83866758D01*
X143985616Y-83866760D01*
X143924941Y-83897676D01*
X143761154Y-83981130D01*
X143761151Y-83981131D01*
X143761151Y-83981132D01*
X143753256Y-83986868D01*
X143557343Y-84129205D01*
X143478091Y-84208456D01*
X143449834Y-84229608D01*
X143428854Y-84241063D01*
X143376070Y-84256051D01*
X143374522Y-84256134D01*
X143354630Y-84255602D01*
X143344037Y-84254463D01*
X143297873Y-84249500D01*
X143297869Y-84249500D01*
X141702123Y-84249500D01*
X141700192Y-84249659D01*
X141698545Y-84249885D01*
X141642516Y-84255908D01*
X141507666Y-84306204D01*
X141507665Y-84306205D01*
X141392457Y-84392450D01*
X141392455Y-84392451D01*
X141374447Y-84416507D01*
X141349492Y-84441461D01*
X141336979Y-84450828D01*
X141271531Y-84475243D01*
X141269256Y-84475406D01*
X141209681Y-84464879D01*
X141203362Y-84462047D01*
X141181192Y-84449211D01*
X141170750Y-84441625D01*
X141155405Y-84430476D01*
X140980029Y-84341117D01*
X140792826Y-84280290D01*
X140792820Y-84280289D01*
X140598427Y-84249500D01*
X140598422Y-84249500D01*
X140598417Y-84249500D01*
X140401583Y-84249500D01*
X140401578Y-84249500D01*
X140401573Y-84249500D01*
X140207178Y-84280289D01*
X140207176Y-84280289D01*
X140207173Y-84280290D01*
X140019970Y-84341117D01*
X139971225Y-84365954D01*
X139844594Y-84430475D01*
X139779692Y-84477631D01*
X139779691Y-84477631D01*
X139697225Y-84537546D01*
X139689843Y-84541680D01*
X139600285Y-84631239D01*
X139572027Y-84652392D01*
X139558309Y-84659882D01*
X139490051Y-84674733D01*
X139488245Y-84674604D01*
X139430044Y-84655236D01*
X139423529Y-84651049D01*
X139402893Y-84634419D01*
X139314648Y-84546174D01*
X139314646Y-84546172D01*
X139220308Y-84477631D01*
X139155409Y-84430478D01*
X139155406Y-84430477D01*
X139155407Y-84430477D01*
X139155405Y-84430476D01*
X139128040Y-84416533D01*
X139128037Y-84416531D01*
X139060036Y-84381883D01*
X138980029Y-84341117D01*
X138792826Y-84280290D01*
X138792820Y-84280289D01*
X138598427Y-84249500D01*
X138598422Y-84249500D01*
X138598417Y-84249500D01*
X138401583Y-84249500D01*
X138401578Y-84249500D01*
X138401573Y-84249500D01*
X138207178Y-84280289D01*
X138207176Y-84280289D01*
X138207173Y-84280290D01*
X138019967Y-84341118D01*
X138019965Y-84341118D01*
X138019965Y-84341119D01*
X137856796Y-84424257D01*
X137823386Y-84435642D01*
X137808022Y-84438527D01*
X137738502Y-84431553D01*
X137732397Y-84429075D01*
X137678715Y-84387065D01*
X137620811Y-84307367D01*
X137620798Y-84307349D01*
X137534511Y-84221062D01*
X137442662Y-84129212D01*
X137442660Y-84129210D01*
X137442655Y-84129206D01*
X137442654Y-84129205D01*
X137442649Y-84129201D01*
X137246743Y-83986868D01*
X137246402Y-83986577D01*
X137238838Y-83981124D01*
X137238474Y-83980941D01*
X137110406Y-83915687D01*
X137014383Y-83866760D01*
X136902648Y-83830455D01*
X136774787Y-83788910D01*
X136731631Y-83782075D01*
X136731618Y-83782073D01*
X136525962Y-83749500D01*
X136525961Y-83749500D01*
X136274039Y-83749500D01*
X136274038Y-83749500D01*
X136248657Y-83753520D01*
X136243139Y-83754394D01*
X136025212Y-83788910D01*
X136025209Y-83788910D01*
X135785622Y-83866758D01*
X135785616Y-83866760D01*
X135629098Y-83946511D01*
X135561147Y-83981134D01*
X135357367Y-84129188D01*
X135357338Y-84129210D01*
X135179210Y-84307338D01*
X135179188Y-84307367D01*
X135031134Y-84511147D01*
X135031132Y-84511151D01*
X134916760Y-84735616D01*
X134916759Y-84735618D01*
X134916759Y-84735619D01*
X134838910Y-84975209D01*
X134838910Y-84975212D01*
X134799500Y-85224037D01*
X133562081Y-85224037D01*
X133470945Y-85098598D01*
X133335102Y-84962755D01*
X133179681Y-84849835D01*
X133179680Y-84849834D01*
X133179678Y-84849833D01*
X133174535Y-84847212D01*
X133174535Y-84847213D01*
X133008505Y-84762615D01*
X133008500Y-84762613D01*
X132825804Y-84703253D01*
X132825805Y-84703253D01*
X132689153Y-84681610D01*
X132662130Y-84677330D01*
X132636055Y-84673200D01*
X132636054Y-84673200D01*
X132443946Y-84673200D01*
X132443945Y-84673200D01*
X132417870Y-84677330D01*
X132390847Y-84681610D01*
X132254193Y-84703253D01*
X132071498Y-84762613D01*
X132071482Y-84762620D01*
X131900325Y-84849830D01*
X131900319Y-84849833D01*
X131864466Y-84875882D01*
X131851708Y-84885153D01*
X131756769Y-84954130D01*
X131749388Y-84958263D01*
X131604563Y-85103088D01*
X131600430Y-85110469D01*
X131560560Y-85165345D01*
X131496131Y-85254022D01*
X131408920Y-85425182D01*
X131408914Y-85425195D01*
X131393440Y-85472823D01*
X131377868Y-85504495D01*
X131371483Y-85513833D01*
X131317395Y-85558062D01*
X131247981Y-85566027D01*
X131185283Y-85535202D01*
X131182984Y-85533091D01*
X131148913Y-85480069D01*
X131131083Y-85425193D01*
X131067548Y-85300500D01*
X131043865Y-85254019D01*
X130930945Y-85098598D01*
X130795102Y-84962755D01*
X130639681Y-84849835D01*
X130639680Y-84849834D01*
X130639678Y-84849833D01*
X130634535Y-84847212D01*
X130634535Y-84847213D01*
X130468505Y-84762615D01*
X130468500Y-84762613D01*
X130285804Y-84703253D01*
X130285805Y-84703253D01*
X130149153Y-84681610D01*
X130122130Y-84677330D01*
X130096055Y-84673200D01*
X130096054Y-84673200D01*
X129903946Y-84673200D01*
X129903945Y-84673200D01*
X129877870Y-84677330D01*
X129850847Y-84681610D01*
X129714193Y-84703253D01*
X129531498Y-84762613D01*
X129531486Y-84762618D01*
X129467533Y-84795204D01*
X129449177Y-84802773D01*
X129428961Y-84809269D01*
X129428954Y-84809272D01*
X128784347Y-85123596D01*
X128715462Y-85135286D01*
X128675651Y-85123596D01*
X128031048Y-84809273D01*
X127991286Y-84791953D01*
X127985825Y-84790156D01*
X127986096Y-84789331D01*
X127968178Y-84782830D01*
X127928506Y-84762615D01*
X127928500Y-84762613D01*
X127745804Y-84703253D01*
X127745805Y-84703253D01*
X127609153Y-84681610D01*
X127582130Y-84677330D01*
X127556055Y-84673200D01*
X127556054Y-84673200D01*
X127363946Y-84673200D01*
X127363945Y-84673200D01*
X127337870Y-84677330D01*
X127310847Y-84681610D01*
X127174193Y-84703253D01*
X126991498Y-84762613D01*
X126991482Y-84762620D01*
X126820325Y-84849830D01*
X126820319Y-84849833D01*
X126784466Y-84875882D01*
X126771708Y-84885153D01*
X126676769Y-84954130D01*
X126669388Y-84958263D01*
X126524563Y-85103088D01*
X126520430Y-85110469D01*
X126480560Y-85165345D01*
X126416131Y-85254022D01*
X126328920Y-85425182D01*
X126328913Y-85425198D01*
X126269553Y-85607893D01*
X126239500Y-85797639D01*
X122260499Y-85797639D01*
X122230447Y-85607899D01*
X122200424Y-85515497D01*
X122200424Y-85515496D01*
X122171085Y-85425198D01*
X122171078Y-85425182D01*
X122107550Y-85300502D01*
X122107547Y-85300499D01*
X122083865Y-85254019D01*
X121970945Y-85098598D01*
X121835102Y-84962755D01*
X121679681Y-84849835D01*
X121679680Y-84849834D01*
X121679678Y-84849833D01*
X121674535Y-84847212D01*
X121674535Y-84847213D01*
X121508505Y-84762615D01*
X121508500Y-84762613D01*
X121325804Y-84703253D01*
X121325805Y-84703253D01*
X121189153Y-84681610D01*
X121162130Y-84677330D01*
X121136055Y-84673200D01*
X121136054Y-84673200D01*
X120943946Y-84673200D01*
X120943945Y-84673200D01*
X120917870Y-84677330D01*
X120890847Y-84681610D01*
X120754193Y-84703253D01*
X120571498Y-84762613D01*
X120571482Y-84762620D01*
X120400325Y-84849830D01*
X120400319Y-84849833D01*
X120364466Y-84875882D01*
X120351708Y-84885153D01*
X120256769Y-84954130D01*
X120249388Y-84958263D01*
X120104563Y-85103088D01*
X120100430Y-85110469D01*
X120060560Y-85165345D01*
X119996131Y-85254022D01*
X119908920Y-85425182D01*
X119908914Y-85425195D01*
X119893440Y-85472823D01*
X119877868Y-85504495D01*
X119871483Y-85513833D01*
X119817395Y-85558062D01*
X119747981Y-85566027D01*
X119685283Y-85535202D01*
X119682984Y-85533091D01*
X119648913Y-85480069D01*
X119631083Y-85425193D01*
X119567548Y-85300500D01*
X119543865Y-85254019D01*
X119430945Y-85098598D01*
X119295102Y-84962755D01*
X119139681Y-84849835D01*
X119139680Y-84849834D01*
X119139678Y-84849833D01*
X119134535Y-84847212D01*
X119134535Y-84847213D01*
X118968505Y-84762615D01*
X118968500Y-84762613D01*
X118785804Y-84703253D01*
X118785805Y-84703253D01*
X118649153Y-84681610D01*
X118622130Y-84677330D01*
X118596055Y-84673200D01*
X118596054Y-84673200D01*
X118403946Y-84673200D01*
X118403945Y-84673200D01*
X118377870Y-84677330D01*
X118350847Y-84681610D01*
X118214193Y-84703253D01*
X118031498Y-84762613D01*
X118031486Y-84762618D01*
X117967533Y-84795204D01*
X117949177Y-84802773D01*
X117928961Y-84809269D01*
X117928954Y-84809272D01*
X117284347Y-85123596D01*
X117215462Y-85135286D01*
X117175651Y-85123596D01*
X116531048Y-84809273D01*
X116491286Y-84791953D01*
X116485825Y-84790156D01*
X116486096Y-84789331D01*
X116468178Y-84782830D01*
X116428506Y-84762615D01*
X116428500Y-84762613D01*
X116245804Y-84703253D01*
X116245805Y-84703253D01*
X116109153Y-84681610D01*
X116082130Y-84677330D01*
X116056055Y-84673200D01*
X116056054Y-84673200D01*
X115863946Y-84673200D01*
X115863945Y-84673200D01*
X115837870Y-84677330D01*
X115810847Y-84681610D01*
X115674193Y-84703253D01*
X115491498Y-84762613D01*
X115491486Y-84762618D01*
X115427533Y-84795204D01*
X115409177Y-84802773D01*
X115388961Y-84809269D01*
X115388954Y-84809272D01*
X114422260Y-85280655D01*
X114367912Y-85293200D01*
X108731893Y-85293200D01*
X108696955Y-85288176D01*
X108671711Y-85280763D01*
X108618978Y-85249478D01*
X108609812Y-85240314D01*
X108216650Y-84847213D01*
X108184909Y-84815477D01*
X108155053Y-84767320D01*
X107768279Y-83617332D01*
X107763861Y-83605916D01*
X107751950Y-83575134D01*
X107749349Y-83569924D01*
X107750034Y-83569581D01*
X107741900Y-83552120D01*
X107726717Y-83505389D01*
X107725658Y-83501634D01*
X107724658Y-83499620D01*
X107722868Y-83495926D01*
X107721934Y-83494329D01*
X107657772Y-83368408D01*
X107650203Y-83353553D01*
X107632287Y-83318390D01*
X107600092Y-83274077D01*
X107511971Y-83152786D01*
X107367217Y-83008032D01*
X107357490Y-83000965D01*
X107357479Y-83000957D01*
X107357451Y-83000936D01*
X107226102Y-82905507D01*
X110299500Y-82905507D01*
X110299500Y-83094491D01*
X110328447Y-83277252D01*
X110329059Y-83281118D01*
X110387454Y-83460836D01*
X110387455Y-83460837D01*
X110387456Y-83460842D01*
X110455568Y-83594515D01*
X110469360Y-83621584D01*
X110472240Y-83627235D01*
X110472245Y-83627259D01*
X110472251Y-83627257D01*
X110472252Y-83627259D01*
X110473240Y-83629199D01*
X110584310Y-83782073D01*
X110717927Y-83915690D01*
X110870801Y-84026760D01*
X110921635Y-84052661D01*
X111032720Y-84109262D01*
X111034312Y-84110194D01*
X111038025Y-84111993D01*
X111040022Y-84112986D01*
X111043790Y-84114049D01*
X111080169Y-84125869D01*
X111135495Y-84143845D01*
X111135496Y-84143846D01*
X111152901Y-84149501D01*
X111218881Y-84170940D01*
X111405514Y-84200500D01*
X111405519Y-84200500D01*
X111594485Y-84200500D01*
X111594486Y-84200500D01*
X111781118Y-84170940D01*
X111960832Y-84112547D01*
X112129199Y-84026760D01*
X112282073Y-83915690D01*
X112415690Y-83782073D01*
X112526760Y-83629199D01*
X112612547Y-83460832D01*
X112670940Y-83281118D01*
X112678784Y-83231591D01*
X112700500Y-83094486D01*
X112700500Y-82905513D01*
X112670940Y-82718881D01*
X112626691Y-82582698D01*
X112614041Y-82543768D01*
X112612985Y-82540022D01*
X112611990Y-82538020D01*
X112610192Y-82534308D01*
X112609258Y-82532712D01*
X112567290Y-82450347D01*
X112567289Y-82450345D01*
X112551106Y-82418583D01*
X112526760Y-82370801D01*
X112526758Y-82370798D01*
X112526757Y-82370796D01*
X112487737Y-82317091D01*
X112415690Y-82217927D01*
X112282073Y-82084310D01*
X112129199Y-81973240D01*
X111971093Y-81892681D01*
X111964108Y-81889121D01*
X111960839Y-81887455D01*
X111781118Y-81829059D01*
X111781112Y-81829058D01*
X111594491Y-81799500D01*
X111594486Y-81799500D01*
X111594481Y-81799500D01*
X111405519Y-81799500D01*
X111405514Y-81799500D01*
X111405509Y-81799500D01*
X111218886Y-81829058D01*
X111218884Y-81829058D01*
X111218881Y-81829059D01*
X111039163Y-81887454D01*
X111017616Y-81898433D01*
X110870800Y-81973239D01*
X110806290Y-82020110D01*
X110729798Y-82075685D01*
X110722417Y-82079818D01*
X110579817Y-82222418D01*
X110575685Y-82229797D01*
X110552507Y-82261699D01*
X110552507Y-82261700D01*
X110473239Y-82370800D01*
X110433850Y-82448106D01*
X110387454Y-82539163D01*
X110329059Y-82718881D01*
X110329059Y-82718883D01*
X110329058Y-82718886D01*
X110299500Y-82905507D01*
X107226102Y-82905507D01*
X107201612Y-82887714D01*
X107201611Y-82887713D01*
X107201609Y-82887712D01*
X107019223Y-82794781D01*
X106824534Y-82731522D01*
X106824532Y-82731521D01*
X106824530Y-82731521D01*
X106824529Y-82731520D01*
X106649995Y-82703878D01*
X106633409Y-82701251D01*
X106622354Y-82699500D01*
X106622352Y-82699500D01*
X106417648Y-82699500D01*
X106417647Y-82699500D01*
X106393327Y-82703351D01*
X106393326Y-82703350D01*
X106215468Y-82731521D01*
X106020777Y-82794780D01*
X106020764Y-82794786D01*
X105838397Y-82887708D01*
X105838385Y-82887715D01*
X105672787Y-83008027D01*
X105672784Y-83008029D01*
X105528030Y-83152783D01*
X105508257Y-83179999D01*
X105437600Y-83277252D01*
X105407713Y-83318388D01*
X105361246Y-83409585D01*
X105361245Y-83409584D01*
X105314782Y-83500774D01*
X105314782Y-83500775D01*
X105314781Y-83500777D01*
X105314780Y-83500781D01*
X105314779Y-83500783D01*
X105314778Y-83500786D01*
X105313277Y-83505406D01*
X105300600Y-83544418D01*
X105288398Y-83570884D01*
X105273485Y-83595220D01*
X105255438Y-83618112D01*
X105056497Y-83817053D01*
X104995174Y-83850538D01*
X104925482Y-83845554D01*
X104869549Y-83803682D01*
X104861430Y-83791374D01*
X104840080Y-83754394D01*
X104765606Y-83679920D01*
X104728625Y-83658569D01*
X104680410Y-83608003D01*
X104667186Y-83539396D01*
X104693154Y-83474531D01*
X104702936Y-83463509D01*
X105245922Y-82920524D01*
X105245921Y-82920523D01*
X105245920Y-82920522D01*
X105245919Y-82920521D01*
X105245914Y-82920517D01*
X105201360Y-82888147D01*
X105201357Y-82888144D01*
X105136198Y-82854944D01*
X105019031Y-82795244D01*
X104824417Y-82732009D01*
X104824411Y-82732008D01*
X104622322Y-82700000D01*
X104622317Y-82700000D01*
X104417683Y-82700000D01*
X104417678Y-82700000D01*
X104215587Y-82732008D01*
X104215585Y-82732008D01*
X104215582Y-82732009D01*
X104123616Y-82761891D01*
X104020963Y-82795245D01*
X103838640Y-82888145D01*
X103794077Y-82920522D01*
X103794077Y-82920523D01*
X103794077Y-82920524D01*
X104105145Y-83231592D01*
X104337055Y-83463501D01*
X104370540Y-83524824D01*
X104365556Y-83594515D01*
X104323685Y-83650449D01*
X104311374Y-83658569D01*
X104274397Y-83679917D01*
X104274392Y-83679921D01*
X104199921Y-83754392D01*
X104199915Y-83754400D01*
X104178568Y-83791374D01*
X104128001Y-83839589D01*
X104059393Y-83852811D01*
X103994529Y-83826843D01*
X103983501Y-83817054D01*
X103440524Y-83274077D01*
X103440523Y-83274077D01*
X103440522Y-83274077D01*
X103408145Y-83318640D01*
X103315245Y-83500963D01*
X103284848Y-83594515D01*
X103252009Y-83695582D01*
X103252008Y-83695585D01*
X103252008Y-83695587D01*
X103220000Y-83897676D01*
X83444718Y-83897676D01*
X83483319Y-83830817D01*
X83483319Y-83830816D01*
X83527949Y-83753513D01*
X83527954Y-83753502D01*
X83613236Y-83547618D01*
X83670911Y-83332367D01*
X83670914Y-83332354D01*
X83700000Y-83111424D01*
X83700000Y-82888575D01*
X83670914Y-82667645D01*
X83670911Y-82667632D01*
X83664836Y-82644961D01*
X83648154Y-82582700D01*
X83613236Y-82452381D01*
X83527954Y-82246497D01*
X83527949Y-82246485D01*
X83431724Y-82079818D01*
X83416532Y-82053505D01*
X83365957Y-81987595D01*
X83365956Y-81987595D01*
X83365955Y-81987595D01*
X83365954Y-81987595D01*
X82682906Y-82670643D01*
X82621583Y-82704128D01*
X82551891Y-82699144D01*
X82495958Y-82657272D01*
X82487838Y-82644961D01*
X82480122Y-82631598D01*
X82480119Y-82631592D01*
X82368408Y-82519881D01*
X82359677Y-82514840D01*
X82355032Y-82512158D01*
X82306817Y-82461590D01*
X82293596Y-82392983D01*
X82319565Y-82328118D01*
X82329343Y-82317101D01*
X83012403Y-81634043D01*
X83012403Y-81634040D01*
X82946504Y-81583473D01*
X82946491Y-81583464D01*
X82753520Y-81472054D01*
X82753508Y-81472047D01*
X82585583Y-81402489D01*
X82547618Y-81386763D01*
X82547616Y-81386762D01*
X82547615Y-81386762D01*
X82547613Y-81386761D01*
X82524594Y-81380594D01*
X82501431Y-81374388D01*
X82468986Y-81360493D01*
X82459326Y-81354605D01*
X82412330Y-81302902D01*
X82400748Y-81233999D01*
X82428254Y-81169774D01*
X82428690Y-81169247D01*
X82472745Y-81135462D01*
X82474807Y-81134520D01*
X82494207Y-81127547D01*
X82547618Y-81113236D01*
X82753502Y-81027954D01*
X82753514Y-81027949D01*
X82946498Y-80916530D01*
X83012403Y-80865957D01*
X83012404Y-80865956D01*
X83012403Y-80865955D01*
X83012404Y-80865955D01*
X82329354Y-80182907D01*
X82295869Y-80121584D01*
X82300853Y-80051893D01*
X82342724Y-79995959D01*
X82355022Y-79987846D01*
X82368408Y-79980119D01*
X82480119Y-79868408D01*
X82487839Y-79855035D01*
X82538405Y-79806821D01*
X82607012Y-79793597D01*
X82671877Y-79819565D01*
X82682907Y-79829355D01*
X83365955Y-80512403D01*
X83365956Y-80512404D01*
X83365957Y-80512403D01*
X83416530Y-80446498D01*
X83527949Y-80253514D01*
X83527954Y-80253502D01*
X83613236Y-80047618D01*
X83670911Y-79832367D01*
X83670914Y-79832354D01*
X83700000Y-79611424D01*
X83700000Y-79388575D01*
X83670914Y-79167645D01*
X83670911Y-79167632D01*
X83664836Y-79144961D01*
X83646274Y-79075685D01*
X83613236Y-78952381D01*
X83527954Y-78746497D01*
X83527949Y-78746485D01*
X83416533Y-78553507D01*
X83416532Y-78553505D01*
X83365957Y-78487595D01*
X83365956Y-78487595D01*
X83365955Y-78487595D01*
X83365954Y-78487595D01*
X82682906Y-79170643D01*
X82621583Y-79204128D01*
X82551891Y-79199144D01*
X82495958Y-79157272D01*
X82487838Y-79144961D01*
X82480122Y-79131598D01*
X82480119Y-79131592D01*
X82368408Y-79019881D01*
X82361586Y-79015942D01*
X82355032Y-79012158D01*
X82306817Y-78961590D01*
X82293596Y-78892983D01*
X82319565Y-78828118D01*
X82329343Y-78817101D01*
X83012403Y-78134043D01*
X83012403Y-78134040D01*
X82971110Y-78102354D01*
X82946511Y-78083478D01*
X82946494Y-78083466D01*
X82946487Y-78083462D01*
X82753520Y-77972054D01*
X82753516Y-77972052D01*
X82753505Y-77972046D01*
X82753502Y-77972045D01*
X82717888Y-77957293D01*
X82547620Y-77886764D01*
X82547618Y-77886763D01*
X82547617Y-77886763D01*
X82528214Y-77881564D01*
X82502395Y-77874646D01*
X82469955Y-77860754D01*
X82460292Y-77854864D01*
X82413297Y-77803164D01*
X82401712Y-77734261D01*
X82429197Y-77670060D01*
X82429590Y-77669583D01*
X82473692Y-77635728D01*
X82475749Y-77634788D01*
X82495169Y-77627806D01*
X82535870Y-77616901D01*
X82547771Y-77613713D01*
X82547773Y-77613711D01*
X82547781Y-77613710D01*
X82753726Y-77528405D01*
X82946774Y-77416948D01*
X83123624Y-77281247D01*
X83281247Y-77123624D01*
X83416948Y-76946774D01*
X83528405Y-76753726D01*
X83613710Y-76547781D01*
X83671404Y-76332463D01*
X83700500Y-76111457D01*
X83700500Y-75888543D01*
X83671404Y-75667537D01*
X83613710Y-75452219D01*
X83528405Y-75246274D01*
X83416948Y-75053226D01*
X83281247Y-74876376D01*
X83281242Y-74876370D01*
X83123629Y-74718757D01*
X83123622Y-74718751D01*
X83123612Y-74718743D01*
X83123603Y-74718736D01*
X82948754Y-74584571D01*
X82946873Y-74583067D01*
X82945486Y-74582233D01*
X82943589Y-74581212D01*
X82753726Y-74471595D01*
X82753724Y-74471594D01*
X82753722Y-74471593D01*
X82551833Y-74387968D01*
X82550016Y-74387138D01*
X82549536Y-74386956D01*
X82548015Y-74386352D01*
X82503362Y-74374388D01*
X82470917Y-74360494D01*
X82461262Y-74354609D01*
X82414264Y-74302909D01*
X82402677Y-74234007D01*
X82430179Y-74169782D01*
X82430655Y-74169205D01*
X82474641Y-74135477D01*
X82476698Y-74134538D01*
X82496134Y-74127548D01*
X82547781Y-74113710D01*
X82753726Y-74028405D01*
X82946774Y-73916948D01*
X83123624Y-73781247D01*
X83281247Y-73623624D01*
X83416948Y-73446774D01*
X83528405Y-73253726D01*
X83613710Y-73047781D01*
X83671404Y-72832463D01*
X83700500Y-72611457D01*
X83700500Y-72413383D01*
X89399500Y-72413383D01*
X89399500Y-74586615D01*
X89425070Y-74748056D01*
X89425445Y-74752820D01*
X89427614Y-74762010D01*
X89429467Y-74766532D01*
X89480128Y-74922449D01*
X89548772Y-75057169D01*
X89558768Y-75076788D01*
X89660586Y-75216928D01*
X89723102Y-75279444D01*
X89783072Y-75339414D01*
X89783571Y-75339823D01*
X89785094Y-75340884D01*
X89851598Y-75389203D01*
X89876909Y-75413801D01*
X89885384Y-75424792D01*
X89910732Y-75489902D01*
X89896859Y-75558373D01*
X89893599Y-75564552D01*
X89856814Y-75607007D01*
X89783069Y-75660587D01*
X89656094Y-75787562D01*
X89651961Y-75794943D01*
X89619833Y-75839163D01*
X89558768Y-75923210D01*
X89480129Y-76077549D01*
X89480128Y-76077551D01*
X89480128Y-76077552D01*
X89469109Y-76111466D01*
X89426596Y-76242305D01*
X89399500Y-76413383D01*
X89399500Y-78586615D01*
X89425070Y-78748056D01*
X89425445Y-78752820D01*
X89427614Y-78762010D01*
X89429467Y-78766532D01*
X89480128Y-78922449D01*
X89558206Y-79075685D01*
X89558768Y-79076788D01*
X89660586Y-79216928D01*
X89660588Y-79216930D01*
X89783075Y-79339417D01*
X89804418Y-79354923D01*
X89847084Y-79410253D01*
X89853063Y-79479866D01*
X89833073Y-79526414D01*
X89613495Y-79839679D01*
X89613488Y-79839690D01*
X89595160Y-79868230D01*
X89591383Y-79874111D01*
X89590421Y-79875750D01*
X89590363Y-79875876D01*
X89590295Y-79875989D01*
X89589075Y-79878314D01*
X89588961Y-79878254D01*
X89578337Y-79896275D01*
X89558774Y-79923201D01*
X89558769Y-79923209D01*
X89480129Y-80077549D01*
X89426596Y-80242305D01*
X89399500Y-80413383D01*
X89399500Y-82586615D01*
X89425236Y-82749114D01*
X89425237Y-82749114D01*
X89426597Y-82757699D01*
X89480128Y-82922449D01*
X89531013Y-83022316D01*
X89558768Y-83076788D01*
X89660586Y-83216928D01*
X89783072Y-83339414D01*
X89923212Y-83441232D01*
X90077555Y-83519873D01*
X90242299Y-83573402D01*
X90413389Y-83600500D01*
X90413390Y-83600500D01*
X90586610Y-83600500D01*
X90586611Y-83600500D01*
X90757701Y-83573402D01*
X90922445Y-83519873D01*
X91076788Y-83441232D01*
X91216928Y-83339414D01*
X91339414Y-83216928D01*
X91441232Y-83076788D01*
X91519873Y-82922445D01*
X91573402Y-82757701D01*
X91600500Y-82586611D01*
X91600500Y-80413389D01*
X91592011Y-80359797D01*
X91591508Y-80324519D01*
X91593288Y-80310743D01*
X91621405Y-80246784D01*
X91679633Y-80208179D01*
X91692075Y-80204332D01*
X91728700Y-80198800D01*
X94270473Y-80198800D01*
X94305405Y-80203821D01*
X94318724Y-80207732D01*
X94377502Y-80245506D01*
X94406527Y-80309060D01*
X94408379Y-80321939D01*
X94408116Y-80358985D01*
X94399500Y-80413388D01*
X94399500Y-82586615D01*
X94425236Y-82749114D01*
X94425237Y-82749114D01*
X94426597Y-82757699D01*
X94480128Y-82922449D01*
X94531013Y-83022316D01*
X94558768Y-83076788D01*
X94660586Y-83216928D01*
X94783072Y-83339414D01*
X94923212Y-83441232D01*
X95077555Y-83519873D01*
X95242299Y-83573402D01*
X95413389Y-83600500D01*
X95413390Y-83600500D01*
X95586610Y-83600500D01*
X95586611Y-83600500D01*
X95757701Y-83573402D01*
X95922445Y-83519873D01*
X96076788Y-83441232D01*
X96216928Y-83339414D01*
X96339414Y-83216928D01*
X96441232Y-83076788D01*
X96519873Y-82922445D01*
X96573402Y-82757701D01*
X96600500Y-82586611D01*
X96600500Y-80413389D01*
X96573402Y-80242299D01*
X96519873Y-80077555D01*
X96441232Y-79923212D01*
X96441231Y-79923211D01*
X96428368Y-79905507D01*
X122799500Y-79905507D01*
X122799500Y-80094491D01*
X122824688Y-80253520D01*
X122829059Y-80281118D01*
X122887454Y-80460836D01*
X122968843Y-80620569D01*
X122973240Y-80629199D01*
X123084310Y-80782073D01*
X123217927Y-80915690D01*
X123286918Y-80965815D01*
X123370796Y-81026757D01*
X123370800Y-81026759D01*
X123370801Y-81026760D01*
X123402105Y-81042710D01*
X123402106Y-81042711D01*
X123445278Y-81064708D01*
X123532720Y-81109262D01*
X123534307Y-81110192D01*
X123538025Y-81111993D01*
X123540023Y-81112986D01*
X123543789Y-81114049D01*
X123592184Y-81129773D01*
X123623319Y-81139889D01*
X123623320Y-81139890D01*
X123646157Y-81147310D01*
X123718881Y-81170940D01*
X123905514Y-81200500D01*
X123905519Y-81200500D01*
X124094485Y-81200500D01*
X124094486Y-81200500D01*
X124281118Y-81170940D01*
X124287812Y-81168765D01*
X124294504Y-81166591D01*
X124294504Y-81166590D01*
X124294506Y-81166590D01*
X124460832Y-81112547D01*
X124629199Y-81026760D01*
X124782073Y-80915690D01*
X124915690Y-80782073D01*
X124989846Y-80680007D01*
X138250000Y-80680007D01*
X138250000Y-80680010D01*
X138250000Y-80680013D01*
X138250000Y-81330000D01*
X139185986Y-81330000D01*
X139253025Y-81349685D01*
X139298780Y-81402489D01*
X139308724Y-81471647D01*
X139305763Y-81486080D01*
X139300000Y-81507591D01*
X139300000Y-81652409D01*
X139305760Y-81673908D01*
X139304098Y-81743755D01*
X139264936Y-81801618D01*
X139200708Y-81829123D01*
X139185986Y-81830000D01*
X138250001Y-81830000D01*
X138250001Y-82479993D01*
X138259852Y-82576410D01*
X138260023Y-82579782D01*
X138260494Y-82582700D01*
X138315638Y-82749114D01*
X138315640Y-82749119D01*
X138315645Y-82749130D01*
X138327537Y-82768409D01*
X138407669Y-82898324D01*
X138407676Y-82898334D01*
X138407680Y-82898340D01*
X138407683Y-82898344D01*
X138407685Y-82898346D01*
X138407687Y-82898349D01*
X138531649Y-83022311D01*
X138531652Y-83022313D01*
X138531655Y-83022316D01*
X138531659Y-83022319D01*
X138531667Y-83022324D01*
X138531674Y-83022329D01*
X138597257Y-83062781D01*
X138680869Y-83114354D01*
X138680880Y-83114359D01*
X138847302Y-83169505D01*
X138950019Y-83179999D01*
X139599999Y-83179999D01*
X139600000Y-83179998D01*
X139600000Y-82244014D01*
X139619685Y-82176975D01*
X139672489Y-82131220D01*
X139741647Y-82121276D01*
X139756080Y-82124236D01*
X139777591Y-82130000D01*
X139922406Y-82130000D01*
X139922409Y-82130000D01*
X139943908Y-82124239D01*
X140013755Y-82125902D01*
X140071618Y-82165064D01*
X140099123Y-82229292D01*
X140100000Y-82244014D01*
X140100000Y-83179999D01*
X140749960Y-83179999D01*
X140749972Y-83179999D01*
X140749986Y-83179998D01*
X140846412Y-83170147D01*
X140849781Y-83169975D01*
X140852690Y-83169505D01*
X140852696Y-83169505D01*
X140852698Y-83169505D01*
X141019119Y-83114359D01*
X141019130Y-83114354D01*
X141168340Y-83022319D01*
X141168344Y-83022316D01*
X141292317Y-82898343D01*
X141298339Y-82888581D01*
X141377931Y-82759544D01*
X141377931Y-82759543D01*
X141384352Y-82749133D01*
X141384359Y-82749119D01*
X141439505Y-82582697D01*
X141449999Y-82479986D01*
X141450000Y-82479973D01*
X141450000Y-81830000D01*
X140514014Y-81830000D01*
X140446975Y-81810315D01*
X140401220Y-81757511D01*
X140391276Y-81688353D01*
X140394236Y-81673919D01*
X140400000Y-81652409D01*
X140400000Y-81507591D01*
X140394239Y-81486091D01*
X140395001Y-81454071D01*
X141900000Y-81454071D01*
X141900000Y-81705927D01*
X141939397Y-81954670D01*
X142017217Y-82194181D01*
X142017218Y-82194184D01*
X142107212Y-82370804D01*
X142131557Y-82418583D01*
X142182066Y-82488102D01*
X142191606Y-82514840D01*
X142205748Y-82520698D01*
X142853695Y-81872749D01*
X142915016Y-81839266D01*
X142984707Y-81844250D01*
X143040641Y-81886121D01*
X143048762Y-81898433D01*
X143059887Y-81917704D01*
X143059890Y-81917708D01*
X143162292Y-82020110D01*
X143162293Y-82020111D01*
X143162295Y-82020112D01*
X143181563Y-82031236D01*
X143229780Y-82081802D01*
X143243004Y-82150409D01*
X143217037Y-82215274D01*
X143207246Y-82226305D01*
X142559299Y-82874249D01*
X142559300Y-82874249D01*
X142559300Y-82874250D01*
X142661416Y-82948442D01*
X142764440Y-83000936D01*
X142885814Y-83062780D01*
X142885817Y-83062781D01*
X142980720Y-83093616D01*
X143125330Y-83140602D01*
X143374072Y-83180000D01*
X143625927Y-83180000D01*
X143625928Y-83180000D01*
X143874669Y-83140602D01*
X144114184Y-83062780D01*
X144338575Y-82948446D01*
X144338581Y-82948442D01*
X144408102Y-82897932D01*
X144434840Y-82888391D01*
X144440698Y-82874249D01*
X143792753Y-82226305D01*
X143759268Y-82164982D01*
X143764252Y-82095291D01*
X143806123Y-82039357D01*
X143818433Y-82031238D01*
X143837708Y-82020110D01*
X143940110Y-81917708D01*
X143951235Y-81898437D01*
X144001800Y-81850220D01*
X144070407Y-81836995D01*
X144135272Y-81862961D01*
X144146305Y-81872753D01*
X144794249Y-82520698D01*
X144794249Y-82520697D01*
X144794250Y-82520698D01*
X144794250Y-82520697D01*
X144807718Y-82515118D01*
X144813935Y-82493948D01*
X144817932Y-82488102D01*
X144823838Y-82479973D01*
X144868442Y-82418581D01*
X144868446Y-82418575D01*
X144982780Y-82194184D01*
X145060602Y-81954669D01*
X145100000Y-81705928D01*
X145100000Y-81454071D01*
X145060602Y-81205330D01*
X145006469Y-81038723D01*
X144982781Y-80965817D01*
X144982780Y-80965814D01*
X144868442Y-80741416D01*
X144817932Y-80671896D01*
X144808391Y-80645157D01*
X144794249Y-80639299D01*
X144146305Y-81287245D01*
X144084982Y-81320730D01*
X144015291Y-81315746D01*
X143959357Y-81273875D01*
X143951237Y-81261564D01*
X143940112Y-81242295D01*
X143940111Y-81242293D01*
X143940110Y-81242292D01*
X143837708Y-81139890D01*
X143837707Y-81139889D01*
X143826091Y-81133183D01*
X143818432Y-81128761D01*
X143770217Y-81078195D01*
X143756993Y-81009588D01*
X143782961Y-80944723D01*
X143792751Y-80933693D01*
X143944370Y-80782075D01*
X144440698Y-80285748D01*
X144338583Y-80211557D01*
X144282355Y-80182907D01*
X144114184Y-80097218D01*
X144114181Y-80097217D01*
X143874670Y-80019397D01*
X143692184Y-79990494D01*
X143625928Y-79980000D01*
X143625927Y-79980000D01*
X143374073Y-79980000D01*
X143374072Y-79980000D01*
X143307822Y-79990493D01*
X143125328Y-80019397D01*
X142885817Y-80097217D01*
X142885804Y-80097223D01*
X142661418Y-80211555D01*
X142559300Y-80285747D01*
X142559300Y-80285748D01*
X143207246Y-80933694D01*
X143240731Y-80995017D01*
X143235747Y-81064708D01*
X143193876Y-81120642D01*
X143181566Y-81128762D01*
X143162293Y-81139889D01*
X143162292Y-81139890D01*
X143059891Y-81242290D01*
X143059889Y-81242293D01*
X143048762Y-81261566D01*
X142998194Y-81309781D01*
X142929587Y-81323003D01*
X142864722Y-81297035D01*
X142853694Y-81287246D01*
X142205749Y-80639300D01*
X142205748Y-80639300D01*
X142205747Y-80639301D01*
X142182066Y-80671896D01*
X142131555Y-80741418D01*
X142017223Y-80965804D01*
X142017217Y-80965817D01*
X141939397Y-81205328D01*
X141900000Y-81454071D01*
X140395001Y-81454071D01*
X140395902Y-81416245D01*
X140435064Y-81358382D01*
X140499292Y-81330877D01*
X140514014Y-81330000D01*
X141449999Y-81330000D01*
X141449999Y-80680032D01*
X141449999Y-80680028D01*
X141449998Y-80680013D01*
X141440147Y-80583587D01*
X141439975Y-80580217D01*
X141439505Y-80577302D01*
X141439505Y-80577301D01*
X141384359Y-80410880D01*
X141384357Y-80410875D01*
X141380239Y-80404199D01*
X141380228Y-80404179D01*
X141292329Y-80261674D01*
X141292324Y-80261667D01*
X141292319Y-80261659D01*
X141292316Y-80261655D01*
X141292313Y-80261652D01*
X141292311Y-80261649D01*
X141168349Y-80137687D01*
X141168346Y-80137685D01*
X141168344Y-80137683D01*
X141168340Y-80137680D01*
X141168334Y-80137676D01*
X141168324Y-80137669D01*
X141022330Y-80047619D01*
X141019130Y-80045645D01*
X141019128Y-80045644D01*
X141019114Y-80045637D01*
X140852695Y-79990493D01*
X140749991Y-79980000D01*
X140749986Y-79980000D01*
X140100000Y-79980000D01*
X140100000Y-80915985D01*
X140080315Y-80983024D01*
X140027511Y-81028779D01*
X139958353Y-81038723D01*
X139943909Y-81035761D01*
X139937695Y-81034096D01*
X139922409Y-81030000D01*
X139922407Y-81030000D01*
X139777593Y-81030000D01*
X139777591Y-81030000D01*
X139756091Y-81035761D01*
X139686241Y-81034096D01*
X139628379Y-80994932D01*
X139600877Y-80930703D01*
X139600000Y-80915985D01*
X139600000Y-79980000D01*
X138950028Y-79980000D01*
X138950012Y-79980001D01*
X138950002Y-79980001D01*
X138950002Y-79980002D01*
X138853586Y-79989852D01*
X138850217Y-79990023D01*
X138847298Y-79990494D01*
X138680882Y-80045639D01*
X138680870Y-80045644D01*
X138680867Y-80045646D01*
X138531674Y-80137669D01*
X138531652Y-80137685D01*
X138531649Y-80137687D01*
X138407687Y-80261649D01*
X138407685Y-80261652D01*
X138407669Y-80261674D01*
X138315646Y-80410867D01*
X138315644Y-80410870D01*
X138315637Y-80410884D01*
X138260493Y-80577303D01*
X138250000Y-80680007D01*
X124989846Y-80680007D01*
X125026760Y-80629199D01*
X125112547Y-80460832D01*
X125170940Y-80281118D01*
X125181957Y-80211559D01*
X125200500Y-80094486D01*
X125200500Y-79905513D01*
X125170940Y-79718881D01*
X125136579Y-79613131D01*
X125114046Y-79543782D01*
X125112986Y-79540023D01*
X125111990Y-79538019D01*
X125110195Y-79534314D01*
X125109262Y-79532720D01*
X125026759Y-79370800D01*
X124915690Y-79217927D01*
X124782073Y-79084310D01*
X124629199Y-78973240D01*
X124588261Y-78952381D01*
X124460836Y-78887454D01*
X124281118Y-78829059D01*
X124275177Y-78828118D01*
X124094491Y-78799500D01*
X124094486Y-78799500D01*
X124094481Y-78799500D01*
X123905519Y-78799500D01*
X123905514Y-78799500D01*
X123905509Y-78799500D01*
X123718886Y-78829058D01*
X123718884Y-78829058D01*
X123718881Y-78829059D01*
X123539163Y-78887454D01*
X123482334Y-78916410D01*
X123370800Y-78973239D01*
X123336997Y-78997800D01*
X123229798Y-79075685D01*
X123222417Y-79079818D01*
X123079818Y-79222417D01*
X123075688Y-79229793D01*
X123068908Y-79239126D01*
X123047633Y-79268409D01*
X123035951Y-79284488D01*
X122973240Y-79370799D01*
X122937034Y-79441858D01*
X122887454Y-79539163D01*
X122829059Y-79718881D01*
X122829058Y-79718884D01*
X122829058Y-79718886D01*
X122799500Y-79905507D01*
X96428368Y-79905507D01*
X96403711Y-79871569D01*
X96401596Y-79868230D01*
X96401203Y-79866859D01*
X96395719Y-79857882D01*
X96386512Y-79839691D01*
X96166924Y-79526413D01*
X96144565Y-79460220D01*
X96161542Y-79392444D01*
X96195581Y-79354923D01*
X96216928Y-79339414D01*
X96339414Y-79216928D01*
X96441232Y-79076788D01*
X96519873Y-78922445D01*
X96573402Y-78757701D01*
X96600500Y-78586611D01*
X96600500Y-78102354D01*
X114699499Y-78102354D01*
X114731521Y-78304530D01*
X114794780Y-78499221D01*
X114794786Y-78499234D01*
X114887708Y-78681601D01*
X114887712Y-78681608D01*
X114887715Y-78681613D01*
X114999505Y-78835482D01*
X115008027Y-78847211D01*
X115008029Y-78847214D01*
X115152787Y-78991972D01*
X115191203Y-79019882D01*
X115279885Y-79084312D01*
X115318390Y-79112287D01*
X115427011Y-79167632D01*
X115494330Y-79201933D01*
X115495930Y-79202870D01*
X115499650Y-79204672D01*
X115501634Y-79205658D01*
X115505388Y-79206716D01*
X115605137Y-79239127D01*
X115695465Y-79268477D01*
X115796557Y-79284488D01*
X115897648Y-79300500D01*
X115897649Y-79300500D01*
X116102351Y-79300500D01*
X116102352Y-79300500D01*
X116304534Y-79268477D01*
X116499219Y-79205220D01*
X116681610Y-79112287D01*
X116777000Y-79042982D01*
X116808796Y-79019882D01*
X116830601Y-79004040D01*
X116847213Y-78991971D01*
X116847213Y-78991970D01*
X116847273Y-78991927D01*
X116848036Y-78991148D01*
X116991152Y-78848032D01*
X116991927Y-78847272D01*
X116991986Y-78847192D01*
X117013856Y-78817091D01*
X117050588Y-78766532D01*
X117098870Y-78700077D01*
X117098874Y-78700071D01*
X117112287Y-78681610D01*
X117205220Y-78499219D01*
X117268477Y-78304534D01*
X117300500Y-78102354D01*
X119699499Y-78102354D01*
X119731521Y-78304530D01*
X119794780Y-78499221D01*
X119794786Y-78499234D01*
X119887708Y-78681601D01*
X119887712Y-78681608D01*
X119887715Y-78681613D01*
X119999505Y-78835482D01*
X120008027Y-78847211D01*
X120008029Y-78847214D01*
X120152787Y-78991972D01*
X120191203Y-79019882D01*
X120279885Y-79084312D01*
X120318390Y-79112287D01*
X120427011Y-79167632D01*
X120494330Y-79201933D01*
X120495930Y-79202870D01*
X120499650Y-79204672D01*
X120501634Y-79205658D01*
X120505388Y-79206716D01*
X120605137Y-79239127D01*
X120695465Y-79268477D01*
X120796557Y-79284488D01*
X120897648Y-79300500D01*
X120897649Y-79300500D01*
X121102351Y-79300500D01*
X121102352Y-79300500D01*
X121304534Y-79268477D01*
X121499219Y-79205220D01*
X121681610Y-79112287D01*
X121777000Y-79042982D01*
X121808796Y-79019882D01*
X121830601Y-79004040D01*
X121847213Y-78991971D01*
X121847213Y-78991970D01*
X121847273Y-78991927D01*
X121848036Y-78991148D01*
X121991152Y-78848032D01*
X121991927Y-78847272D01*
X121991986Y-78847192D01*
X122013856Y-78817091D01*
X122050588Y-78766532D01*
X122098870Y-78700077D01*
X122098874Y-78700071D01*
X122112287Y-78681610D01*
X122205220Y-78499219D01*
X122268477Y-78304534D01*
X122300500Y-78102354D01*
X126199499Y-78102354D01*
X126231521Y-78304530D01*
X126294780Y-78499221D01*
X126294786Y-78499234D01*
X126387708Y-78681601D01*
X126387712Y-78681608D01*
X126387715Y-78681613D01*
X126499505Y-78835482D01*
X126508027Y-78847211D01*
X126508029Y-78847214D01*
X126652787Y-78991972D01*
X126691203Y-79019882D01*
X126779885Y-79084312D01*
X126818390Y-79112287D01*
X126927011Y-79167632D01*
X126994330Y-79201933D01*
X126995930Y-79202870D01*
X126999650Y-79204672D01*
X127001634Y-79205658D01*
X127005388Y-79206716D01*
X127105137Y-79239127D01*
X127195465Y-79268477D01*
X127296557Y-79284488D01*
X127397648Y-79300500D01*
X127397649Y-79300500D01*
X127602351Y-79300500D01*
X127602352Y-79300500D01*
X127804534Y-79268477D01*
X127999219Y-79205220D01*
X128181610Y-79112287D01*
X128277000Y-79042982D01*
X128308796Y-79019882D01*
X128330601Y-79004040D01*
X128347213Y-78991971D01*
X128347213Y-78991970D01*
X128347273Y-78991927D01*
X128348036Y-78991148D01*
X128491152Y-78848032D01*
X128491927Y-78847272D01*
X128491986Y-78847192D01*
X128513856Y-78817091D01*
X128550588Y-78766532D01*
X128598870Y-78700077D01*
X128598874Y-78700071D01*
X128612287Y-78681610D01*
X128705220Y-78499219D01*
X128768477Y-78304534D01*
X128800500Y-78102354D01*
X131199499Y-78102354D01*
X131231521Y-78304530D01*
X131294780Y-78499221D01*
X131294786Y-78499234D01*
X131387708Y-78681601D01*
X131387712Y-78681608D01*
X131387715Y-78681613D01*
X131499505Y-78835482D01*
X131508027Y-78847211D01*
X131508029Y-78847214D01*
X131652787Y-78991972D01*
X131691203Y-79019882D01*
X131779885Y-79084312D01*
X131818390Y-79112287D01*
X131927011Y-79167632D01*
X131994330Y-79201933D01*
X131995930Y-79202870D01*
X131999650Y-79204672D01*
X132001634Y-79205658D01*
X132005388Y-79206716D01*
X132105137Y-79239127D01*
X132195465Y-79268477D01*
X132296557Y-79284488D01*
X132397648Y-79300500D01*
X132397649Y-79300500D01*
X132602351Y-79300500D01*
X132602352Y-79300500D01*
X132804534Y-79268477D01*
X132999219Y-79205220D01*
X133181610Y-79112287D01*
X133277000Y-79042982D01*
X133308796Y-79019882D01*
X133330601Y-79004040D01*
X133347213Y-78991971D01*
X133347213Y-78991970D01*
X133347273Y-78991927D01*
X133348036Y-78991148D01*
X133491152Y-78848032D01*
X133491927Y-78847272D01*
X133491986Y-78847192D01*
X133513856Y-78817091D01*
X133550588Y-78766532D01*
X133598870Y-78700077D01*
X133598874Y-78700071D01*
X133612287Y-78681610D01*
X133705220Y-78499219D01*
X133768477Y-78304534D01*
X133800500Y-78102352D01*
X133800500Y-77897648D01*
X133768477Y-77695466D01*
X133768476Y-77695462D01*
X133768476Y-77695461D01*
X133706723Y-77505406D01*
X133705660Y-77501639D01*
X133704659Y-77499623D01*
X133702868Y-77495925D01*
X133701933Y-77494329D01*
X133660027Y-77412085D01*
X133612287Y-77318390D01*
X133585298Y-77281242D01*
X133537673Y-77215690D01*
X133491972Y-77152787D01*
X133347211Y-77008026D01*
X133189507Y-76893450D01*
X133189168Y-76893161D01*
X133181603Y-76887707D01*
X133181188Y-76887498D01*
X133124654Y-76858691D01*
X133124653Y-76858691D01*
X132999223Y-76794781D01*
X132804534Y-76731522D01*
X132804532Y-76731521D01*
X132804530Y-76731521D01*
X132804529Y-76731520D01*
X132629995Y-76703878D01*
X132613409Y-76701251D01*
X132602354Y-76699500D01*
X132602352Y-76699500D01*
X132397648Y-76699500D01*
X132397647Y-76699500D01*
X132373327Y-76703351D01*
X132373326Y-76703350D01*
X132195468Y-76731521D01*
X132000777Y-76794780D01*
X132000764Y-76794786D01*
X131818397Y-76887708D01*
X131818385Y-76887715D01*
X131652787Y-77008027D01*
X131652784Y-77008029D01*
X131508029Y-77152784D01*
X131508027Y-77152787D01*
X131387715Y-77318385D01*
X131387708Y-77318397D01*
X131294786Y-77500764D01*
X131294780Y-77500777D01*
X131231521Y-77695468D01*
X131199500Y-77897642D01*
X131199500Y-78102352D01*
X131199499Y-78102354D01*
X128800500Y-78102354D01*
X128800500Y-78102352D01*
X128800500Y-77897648D01*
X128768477Y-77695466D01*
X128768476Y-77695462D01*
X128768476Y-77695461D01*
X128706723Y-77505406D01*
X128705660Y-77501639D01*
X128704659Y-77499623D01*
X128702868Y-77495925D01*
X128701933Y-77494329D01*
X128660027Y-77412085D01*
X128612287Y-77318390D01*
X128585298Y-77281242D01*
X128537673Y-77215690D01*
X128491972Y-77152787D01*
X128347211Y-77008026D01*
X128189507Y-76893450D01*
X128189168Y-76893161D01*
X128181603Y-76887707D01*
X128181188Y-76887498D01*
X128124654Y-76858691D01*
X128124653Y-76858691D01*
X127999223Y-76794781D01*
X127804534Y-76731522D01*
X127804532Y-76731521D01*
X127804530Y-76731521D01*
X127804529Y-76731520D01*
X127629995Y-76703878D01*
X127613409Y-76701251D01*
X127602354Y-76699500D01*
X127602352Y-76699500D01*
X127397648Y-76699500D01*
X127397647Y-76699500D01*
X127373327Y-76703351D01*
X127373326Y-76703350D01*
X127195468Y-76731521D01*
X127000777Y-76794780D01*
X127000764Y-76794786D01*
X126818397Y-76887708D01*
X126818385Y-76887715D01*
X126652787Y-77008027D01*
X126652784Y-77008029D01*
X126508029Y-77152784D01*
X126508027Y-77152787D01*
X126387715Y-77318385D01*
X126387708Y-77318397D01*
X126294786Y-77500764D01*
X126294780Y-77500777D01*
X126231521Y-77695468D01*
X126199500Y-77897642D01*
X126199500Y-78102352D01*
X126199499Y-78102354D01*
X122300500Y-78102354D01*
X122300500Y-78102352D01*
X122300500Y-77897648D01*
X122268477Y-77695466D01*
X122268476Y-77695462D01*
X122268476Y-77695461D01*
X122206723Y-77505406D01*
X122205660Y-77501639D01*
X122204659Y-77499623D01*
X122202868Y-77495925D01*
X122201933Y-77494329D01*
X122160027Y-77412085D01*
X122112287Y-77318390D01*
X122085298Y-77281242D01*
X122037673Y-77215690D01*
X121991972Y-77152787D01*
X121847211Y-77008026D01*
X121689507Y-76893450D01*
X121689168Y-76893161D01*
X121681603Y-76887707D01*
X121681188Y-76887498D01*
X121624654Y-76858691D01*
X121624653Y-76858691D01*
X121499223Y-76794781D01*
X121304534Y-76731522D01*
X121304532Y-76731521D01*
X121304530Y-76731521D01*
X121304529Y-76731520D01*
X121129995Y-76703878D01*
X121113409Y-76701251D01*
X121102354Y-76699500D01*
X121102352Y-76699500D01*
X120897648Y-76699500D01*
X120897647Y-76699500D01*
X120873327Y-76703351D01*
X120873326Y-76703350D01*
X120695468Y-76731521D01*
X120500777Y-76794780D01*
X120500764Y-76794786D01*
X120318397Y-76887708D01*
X120318385Y-76887715D01*
X120152787Y-77008027D01*
X120152784Y-77008029D01*
X120008029Y-77152784D01*
X120008027Y-77152787D01*
X119887715Y-77318385D01*
X119887708Y-77318397D01*
X119794786Y-77500764D01*
X119794780Y-77500777D01*
X119731521Y-77695468D01*
X119699500Y-77897642D01*
X119699500Y-78102352D01*
X119699499Y-78102354D01*
X117300500Y-78102354D01*
X117300500Y-78102352D01*
X117300500Y-77897648D01*
X117268477Y-77695466D01*
X117268476Y-77695462D01*
X117268476Y-77695461D01*
X117206723Y-77505406D01*
X117205660Y-77501639D01*
X117204659Y-77499623D01*
X117202868Y-77495925D01*
X117201933Y-77494329D01*
X117160027Y-77412085D01*
X117112287Y-77318390D01*
X117085298Y-77281242D01*
X117037673Y-77215690D01*
X116991972Y-77152787D01*
X116847211Y-77008026D01*
X116689507Y-76893450D01*
X116689168Y-76893161D01*
X116681603Y-76887707D01*
X116681188Y-76887498D01*
X116624654Y-76858691D01*
X116624653Y-76858691D01*
X116499223Y-76794781D01*
X116304534Y-76731522D01*
X116304532Y-76731521D01*
X116304530Y-76731521D01*
X116304529Y-76731520D01*
X116129995Y-76703878D01*
X116113409Y-76701251D01*
X116102354Y-76699500D01*
X116102352Y-76699500D01*
X115897648Y-76699500D01*
X115897647Y-76699500D01*
X115873327Y-76703351D01*
X115873326Y-76703350D01*
X115695468Y-76731521D01*
X115500777Y-76794780D01*
X115500764Y-76794786D01*
X115318397Y-76887708D01*
X115318385Y-76887715D01*
X115152787Y-77008027D01*
X115152784Y-77008029D01*
X115008029Y-77152784D01*
X115008027Y-77152787D01*
X114887715Y-77318385D01*
X114887708Y-77318397D01*
X114794786Y-77500764D01*
X114794780Y-77500777D01*
X114731521Y-77695468D01*
X114699500Y-77897642D01*
X114699500Y-78102352D01*
X114699499Y-78102354D01*
X96600500Y-78102354D01*
X96600500Y-76413389D01*
X96592011Y-76359797D01*
X96591508Y-76324519D01*
X96593288Y-76310743D01*
X96621405Y-76246784D01*
X96679633Y-76208179D01*
X96692075Y-76204332D01*
X96728700Y-76198800D01*
X97313080Y-76198800D01*
X97313143Y-76198801D01*
X97315047Y-76198801D01*
X97322643Y-76198801D01*
X97480754Y-76198801D01*
X97480757Y-76198801D01*
X97633485Y-76157877D01*
X97683604Y-76128939D01*
X97770416Y-76078820D01*
X97882220Y-75967016D01*
X97882220Y-75967014D01*
X97892428Y-75956807D01*
X97892428Y-75956805D01*
X97892933Y-75956301D01*
X97892943Y-75956292D01*
X97902626Y-75946610D01*
X97902637Y-75946595D01*
X98827912Y-75021323D01*
X98856162Y-75000175D01*
X98879254Y-74987567D01*
X98938679Y-74972400D01*
X100426905Y-74972400D01*
X100461841Y-74977423D01*
X100472095Y-74980434D01*
X100530873Y-75018210D01*
X100559897Y-75081766D01*
X100549953Y-75150924D01*
X100513563Y-75197076D01*
X100510453Y-75199509D01*
X100490344Y-75212329D01*
X100370799Y-75273240D01*
X100283579Y-75336610D01*
X100283578Y-75336610D01*
X100229794Y-75375686D01*
X100222419Y-75379816D01*
X100079817Y-75522418D01*
X100075683Y-75529801D01*
X100064647Y-75544990D01*
X99975603Y-75667547D01*
X99973240Y-75670800D01*
X99973238Y-75670802D01*
X99973236Y-75670807D01*
X99947304Y-75721701D01*
X99887454Y-75839163D01*
X99829059Y-76018881D01*
X99829058Y-76018884D01*
X99829058Y-76018886D01*
X99799500Y-76205507D01*
X99799500Y-76394491D01*
X99828893Y-76580068D01*
X99829059Y-76581118D01*
X99887454Y-76760836D01*
X99947172Y-76878038D01*
X99973240Y-76929199D01*
X100084310Y-77082073D01*
X100217927Y-77215690D01*
X100304229Y-77278393D01*
X100370796Y-77326757D01*
X100370797Y-77326757D01*
X100370801Y-77326760D01*
X100450347Y-77367290D01*
X100532722Y-77409263D01*
X100534320Y-77410199D01*
X100538037Y-77411999D01*
X100540021Y-77412985D01*
X100543775Y-77414043D01*
X100635497Y-77443846D01*
X100718881Y-77470940D01*
X100905514Y-77500500D01*
X100905519Y-77500500D01*
X101094485Y-77500500D01*
X101094486Y-77500500D01*
X101281118Y-77470940D01*
X101282623Y-77470451D01*
X101460832Y-77412547D01*
X101629199Y-77326760D01*
X101782073Y-77215690D01*
X101915690Y-77082073D01*
X102026760Y-76929199D01*
X102112547Y-76760832D01*
X102170940Y-76581118D01*
X102184730Y-76494049D01*
X102184968Y-76492548D01*
X102192287Y-76446341D01*
X102200500Y-76394486D01*
X102200500Y-76205513D01*
X102170940Y-76018881D01*
X102120540Y-75863770D01*
X102114047Y-75843784D01*
X102112987Y-75840027D01*
X102111995Y-75838030D01*
X102110192Y-75834309D01*
X102109258Y-75832712D01*
X102067290Y-75750347D01*
X102067289Y-75750345D01*
X102065880Y-75747580D01*
X102026760Y-75670801D01*
X102026758Y-75670798D01*
X102026757Y-75670796D01*
X101983164Y-75610797D01*
X101915690Y-75517927D01*
X101782073Y-75384310D01*
X101629199Y-75273240D01*
X101576281Y-75246277D01*
X101514854Y-75214978D01*
X101486010Y-75194645D01*
X101478239Y-75187306D01*
X101443017Y-75126967D01*
X101446007Y-75057161D01*
X101486262Y-75000054D01*
X101539636Y-74975451D01*
X101543511Y-74974695D01*
X101567255Y-74972400D01*
X108048007Y-74972400D01*
X108082943Y-74977423D01*
X108093197Y-74980434D01*
X108151975Y-75018210D01*
X108180999Y-75081766D01*
X108171055Y-75150924D01*
X108134665Y-75197076D01*
X108131555Y-75199509D01*
X108111446Y-75212329D01*
X107991057Y-75273670D01*
X107990771Y-75273846D01*
X107990640Y-75273882D01*
X107986719Y-75275881D01*
X107986321Y-75275100D01*
X107970917Y-75279444D01*
X107965668Y-75292116D01*
X108473657Y-75800104D01*
X108507142Y-75861427D01*
X108502158Y-75931118D01*
X108460287Y-75987052D01*
X108447976Y-75995172D01*
X108405098Y-76019927D01*
X108405093Y-76019931D01*
X108339931Y-76085093D01*
X108339927Y-76085098D01*
X108315172Y-76127976D01*
X108264605Y-76176192D01*
X108195998Y-76189414D01*
X108131133Y-76163446D01*
X108120104Y-76153657D01*
X107612116Y-75645668D01*
X107599444Y-75650917D01*
X107595100Y-75666321D01*
X107595881Y-75666719D01*
X107593882Y-75670640D01*
X107593846Y-75670771D01*
X107593670Y-75671057D01*
X107507913Y-75839361D01*
X107507912Y-75839364D01*
X107449548Y-76018995D01*
X107426886Y-76162074D01*
X107420000Y-76205552D01*
X107420000Y-76394447D01*
X107428219Y-76446341D01*
X107449548Y-76581003D01*
X107507912Y-76760634D01*
X107507913Y-76760636D01*
X107572663Y-76887713D01*
X107593666Y-76928933D01*
X107612116Y-76954328D01*
X108120106Y-76446339D01*
X108181426Y-76412856D01*
X108251118Y-76417840D01*
X108307051Y-76459712D01*
X108315171Y-76472022D01*
X108339927Y-76514901D01*
X108339929Y-76514904D01*
X108339930Y-76514905D01*
X108405095Y-76580070D01*
X108447976Y-76604827D01*
X108496191Y-76655393D01*
X108509415Y-76724000D01*
X108483447Y-76788865D01*
X108473657Y-76799895D01*
X107965669Y-77307881D01*
X107965669Y-77307882D01*
X107965673Y-77307886D01*
X107980141Y-77318397D01*
X107991059Y-77326329D01*
X108159362Y-77412085D01*
X108159367Y-77412086D01*
X108159368Y-77412087D01*
X108174307Y-77416941D01*
X108338997Y-77470451D01*
X108525553Y-77500000D01*
X108714446Y-77500000D01*
X108714447Y-77500000D01*
X108901002Y-77470451D01*
X109080637Y-77412085D01*
X109248937Y-77326331D01*
X109274328Y-77307883D01*
X109274328Y-77307882D01*
X109048519Y-77082073D01*
X108766342Y-76799895D01*
X108732857Y-76738572D01*
X108737841Y-76668880D01*
X108779713Y-76612947D01*
X108792017Y-76604830D01*
X108834905Y-76580070D01*
X108900070Y-76514905D01*
X108924828Y-76472021D01*
X108975391Y-76423808D01*
X109043997Y-76410583D01*
X109108863Y-76436549D01*
X109119895Y-76446341D01*
X109627882Y-76954328D01*
X109627883Y-76954328D01*
X109646331Y-76928937D01*
X109732085Y-76760637D01*
X109790451Y-76581002D01*
X109820000Y-76394447D01*
X109820000Y-76205552D01*
X109790451Y-76018997D01*
X109732085Y-75839362D01*
X109646329Y-75671059D01*
X109646138Y-75670796D01*
X109627886Y-75645673D01*
X109627882Y-75645669D01*
X109627881Y-75645669D01*
X109119895Y-76153656D01*
X109058572Y-76187141D01*
X108988881Y-76182157D01*
X108932947Y-76140286D01*
X108924827Y-76127975D01*
X108900072Y-76085098D01*
X108900068Y-76085093D01*
X108834906Y-76019931D01*
X108834898Y-76019925D01*
X108792024Y-75995172D01*
X108743808Y-75944606D01*
X108730584Y-75875999D01*
X108756552Y-75811134D01*
X108766342Y-75800104D01*
X108816101Y-75750345D01*
X109274328Y-75292116D01*
X109265239Y-75285513D01*
X109248933Y-75273666D01*
X109248926Y-75273662D01*
X109133753Y-75214977D01*
X109104916Y-75194650D01*
X109097146Y-75187313D01*
X109061918Y-75126975D01*
X109064903Y-75057169D01*
X109105155Y-75000059D01*
X109158535Y-74975451D01*
X109162410Y-74974695D01*
X109186154Y-74972400D01*
X110186078Y-74972400D01*
X110221010Y-74977421D01*
X110234329Y-74981332D01*
X110293107Y-75019106D01*
X110322133Y-75082661D01*
X110322133Y-75082667D01*
X110323985Y-75095551D01*
X110323720Y-75132592D01*
X110299500Y-75285513D01*
X110299500Y-75474491D01*
X110317228Y-75586421D01*
X110329059Y-75661118D01*
X110387454Y-75840836D01*
X110387455Y-75840837D01*
X110387456Y-75840841D01*
X110411757Y-75888533D01*
X110455230Y-75973852D01*
X110461956Y-75987052D01*
X110473241Y-76009200D01*
X110473242Y-76009203D01*
X110481037Y-76019931D01*
X110584310Y-76162073D01*
X110717927Y-76295690D01*
X110870801Y-76406760D01*
X110926412Y-76435095D01*
X111032720Y-76489262D01*
X111034312Y-76490194D01*
X111038025Y-76491993D01*
X111040022Y-76492986D01*
X111043790Y-76494049D01*
X111080169Y-76505869D01*
X111135495Y-76523845D01*
X111135496Y-76523846D01*
X111156343Y-76530619D01*
X111218881Y-76550940D01*
X111405514Y-76580500D01*
X111405519Y-76580500D01*
X111594485Y-76580500D01*
X111594486Y-76580500D01*
X111781118Y-76550940D01*
X111790838Y-76547781D01*
X111790843Y-76547781D01*
X111790843Y-76547780D01*
X111790846Y-76547779D01*
X111960832Y-76492547D01*
X112129199Y-76406760D01*
X112282073Y-76295690D01*
X112415690Y-76162073D01*
X112526760Y-76009199D01*
X112612547Y-75840832D01*
X112670940Y-75661118D01*
X112684422Y-75575995D01*
X112686235Y-75564552D01*
X112700500Y-75474485D01*
X112700500Y-75285514D01*
X112698624Y-75273669D01*
X112676407Y-75133406D01*
X112675904Y-75098116D01*
X112677683Y-75084351D01*
X112705798Y-75020388D01*
X112764027Y-74981779D01*
X112776466Y-74977933D01*
X112813095Y-74972400D01*
X144054068Y-74972400D01*
X144089000Y-74977421D01*
X144114244Y-74984834D01*
X144166990Y-75016130D01*
X145730900Y-76580070D01*
X147108092Y-77957289D01*
X147133802Y-77983000D01*
X147162927Y-78029059D01*
X147765037Y-79718884D01*
X147792307Y-79795416D01*
X147799500Y-79837036D01*
X147799500Y-80500024D01*
X147809999Y-80602796D01*
X147811639Y-80608438D01*
X147812805Y-80611261D01*
X147815890Y-80620569D01*
X147818749Y-80629197D01*
X147865186Y-80769335D01*
X147865187Y-80769336D01*
X147865190Y-80769343D01*
X147924782Y-80865954D01*
X147957286Y-80918651D01*
X147957289Y-80918655D01*
X147957291Y-80918657D01*
X147957293Y-80918660D01*
X148081338Y-81042705D01*
X148081341Y-81042707D01*
X148081344Y-81042710D01*
X148081348Y-81042713D01*
X148138873Y-81078195D01*
X148220853Y-81128762D01*
X148230662Y-81134812D01*
X148230664Y-81134813D01*
X148230666Y-81134814D01*
X148397203Y-81189999D01*
X148499992Y-81200500D01*
X148499997Y-81200500D01*
X150500003Y-81200500D01*
X150500008Y-81200500D01*
X150602797Y-81189999D01*
X150769334Y-81134814D01*
X150918655Y-81042711D01*
X151042711Y-80918655D01*
X151134814Y-80769334D01*
X151189999Y-80602797D01*
X151200500Y-80500008D01*
X151200500Y-78499992D01*
X151189999Y-78397203D01*
X151134814Y-78230666D01*
X151134812Y-78230663D01*
X151134811Y-78230660D01*
X151055668Y-78102352D01*
X151055667Y-78102351D01*
X151042713Y-78081348D01*
X151042710Y-78081344D01*
X151042707Y-78081341D01*
X151042706Y-78081339D01*
X150918660Y-77957293D01*
X150918655Y-77957289D01*
X150918651Y-77957286D01*
X150821964Y-77897648D01*
X150769343Y-77865190D01*
X150769337Y-77865187D01*
X150769335Y-77865186D01*
X150769332Y-77865185D01*
X150769330Y-77865184D01*
X150769328Y-77865183D01*
X150674220Y-77833668D01*
X150674219Y-77833668D01*
X150611265Y-77812807D01*
X150608439Y-77811639D01*
X150602796Y-77809999D01*
X150500024Y-77799500D01*
X150500015Y-77799500D01*
X150500008Y-77799500D01*
X150240465Y-77799500D01*
X150205529Y-77794477D01*
X150196896Y-77791942D01*
X150138118Y-77754167D01*
X150109094Y-77690610D01*
X150119038Y-77621452D01*
X150159305Y-77572387D01*
X150163469Y-77569385D01*
X150188528Y-77555411D01*
X150253402Y-77528539D01*
X150254250Y-77528193D01*
X150259623Y-77526020D01*
X150265916Y-77521367D01*
X150301579Y-77500777D01*
X150446774Y-77416948D01*
X150623624Y-77281247D01*
X150781247Y-77123624D01*
X150916948Y-76946774D01*
X151028405Y-76753726D01*
X151113710Y-76547781D01*
X151171404Y-76332463D01*
X151200500Y-76111457D01*
X151200500Y-75888543D01*
X151171404Y-75667537D01*
X151113710Y-75452219D01*
X151028405Y-75246274D01*
X150916948Y-75053226D01*
X150781247Y-74876376D01*
X150781242Y-74876370D01*
X150623629Y-74718757D01*
X150623622Y-74718751D01*
X150623612Y-74718743D01*
X150623603Y-74718736D01*
X150448754Y-74584571D01*
X150446873Y-74583067D01*
X150445486Y-74582233D01*
X150443589Y-74581212D01*
X150253726Y-74471594D01*
X150138449Y-74423845D01*
X150122931Y-74411340D01*
X150048614Y-74386568D01*
X150047860Y-74386310D01*
X150002394Y-74374127D01*
X149969960Y-74360239D01*
X149960305Y-74354355D01*
X149913303Y-74302659D01*
X149901711Y-74233757D01*
X149929145Y-74169606D01*
X149929536Y-74169131D01*
X149973701Y-74135208D01*
X149975155Y-74134544D01*
X149975752Y-74134270D01*
X149995174Y-74127287D01*
X150047617Y-74113236D01*
X150253502Y-74027954D01*
X150253514Y-74027949D01*
X150446498Y-73916530D01*
X150512403Y-73865957D01*
X150512404Y-73865956D01*
X150512403Y-73865955D01*
X150512404Y-73865955D01*
X149829354Y-73182907D01*
X149795869Y-73121584D01*
X149800853Y-73051893D01*
X149842724Y-72995959D01*
X149855022Y-72987846D01*
X149868408Y-72980119D01*
X149980119Y-72868408D01*
X149987839Y-72855035D01*
X150038402Y-72806821D01*
X150107009Y-72793596D01*
X150171875Y-72819562D01*
X150182907Y-72829354D01*
X150865955Y-73512404D01*
X150865955Y-73512403D01*
X150865956Y-73512404D01*
X150865957Y-73512403D01*
X150916530Y-73446498D01*
X151027949Y-73253514D01*
X151027954Y-73253502D01*
X151113236Y-73047618D01*
X151170911Y-72832367D01*
X151170914Y-72832354D01*
X151200000Y-72611424D01*
X151200000Y-72388575D01*
X151170914Y-72167645D01*
X151170911Y-72167632D01*
X151170888Y-72167547D01*
X151146774Y-72077549D01*
X151113236Y-71952381D01*
X151027954Y-71746497D01*
X151027949Y-71746485D01*
X150916533Y-71553507D01*
X150916532Y-71553505D01*
X150865957Y-71487595D01*
X150865956Y-71487595D01*
X150865955Y-71487595D01*
X150865954Y-71487595D01*
X150182906Y-72170643D01*
X150121583Y-72204128D01*
X150051891Y-72199144D01*
X149995958Y-72157272D01*
X149987838Y-72144961D01*
X149984581Y-72139320D01*
X149980119Y-72131592D01*
X149868408Y-72019881D01*
X149861586Y-72015942D01*
X149855032Y-72012158D01*
X149806817Y-71961590D01*
X149793596Y-71892983D01*
X149819565Y-71828118D01*
X149829343Y-71817101D01*
X150512403Y-71134043D01*
X150512403Y-71134040D01*
X150512402Y-71134039D01*
X150446511Y-71083478D01*
X150446494Y-71083466D01*
X150446487Y-71083462D01*
X150253520Y-70972054D01*
X150253508Y-70972047D01*
X150146866Y-70927874D01*
X150047618Y-70886763D01*
X150037508Y-70884054D01*
X149832382Y-70829091D01*
X149832367Y-70829088D01*
X149832354Y-70829085D01*
X149832350Y-70829084D01*
X149832344Y-70829083D01*
X149611426Y-70800000D01*
X149611425Y-70800000D01*
X149388575Y-70800000D01*
X149388574Y-70800000D01*
X149167654Y-70829083D01*
X149167641Y-70829086D01*
X149167616Y-70829091D01*
X148952387Y-70886761D01*
X148952383Y-70886762D01*
X148952381Y-70886763D01*
X148919403Y-70900423D01*
X148746490Y-70972047D01*
X148746471Y-70972058D01*
X148553508Y-71083463D01*
X148487595Y-71134040D01*
X148487595Y-71134043D01*
X149170645Y-71817092D01*
X149204130Y-71878415D01*
X149199146Y-71948106D01*
X149157274Y-72004040D01*
X149144967Y-72012159D01*
X149131592Y-72019881D01*
X149131589Y-72019883D01*
X149019883Y-72131589D01*
X149019883Y-72131590D01*
X149019881Y-72131592D01*
X149012162Y-72144961D01*
X149012159Y-72144967D01*
X148961590Y-72193181D01*
X148892983Y-72206402D01*
X148828119Y-72180433D01*
X148817092Y-72170645D01*
X148134043Y-71487595D01*
X148134040Y-71487595D01*
X148083463Y-71553508D01*
X147972058Y-71746471D01*
X147972047Y-71746490D01*
X147914506Y-71885404D01*
X147886763Y-71952381D01*
X147870746Y-72012158D01*
X147829091Y-72167616D01*
X147829086Y-72167641D01*
X147829083Y-72167654D01*
X147800000Y-72388574D01*
X147800000Y-72611424D01*
X147829083Y-72832344D01*
X147829086Y-72832357D01*
X147829091Y-72832382D01*
X147886761Y-73047611D01*
X147886763Y-73047618D01*
X147918672Y-73124652D01*
X147972047Y-73253508D01*
X147972052Y-73253517D01*
X147972054Y-73253520D01*
X148060195Y-73406188D01*
X148083466Y-73446494D01*
X148083478Y-73446511D01*
X148134039Y-73512402D01*
X148134040Y-73512403D01*
X148134043Y-73512403D01*
X148817094Y-72829351D01*
X148878415Y-72795868D01*
X148948106Y-72800852D01*
X149004040Y-72842723D01*
X149012157Y-72855031D01*
X149019881Y-72868408D01*
X149131592Y-72980119D01*
X149144964Y-72987839D01*
X149193179Y-73038407D01*
X149206401Y-73107014D01*
X149180433Y-73171879D01*
X149170644Y-73182907D01*
X148487595Y-73865954D01*
X148487595Y-73865957D01*
X148553505Y-73916532D01*
X148554224Y-73916947D01*
X148746485Y-74027949D01*
X148746497Y-74027954D01*
X148952383Y-74113236D01*
X148997603Y-74125352D01*
X149030041Y-74139244D01*
X149039705Y-74145134D01*
X149086701Y-74196835D01*
X149098286Y-74265738D01*
X149070780Y-74329965D01*
X149070754Y-74329997D01*
X149070364Y-74330469D01*
X149026271Y-74364285D01*
X149024223Y-74365220D01*
X149004823Y-74372194D01*
X149001238Y-74373154D01*
X148967986Y-74382064D01*
X148959820Y-74383139D01*
X148955494Y-74384932D01*
X148955486Y-74384934D01*
X148955487Y-74384935D01*
X148746272Y-74471594D01*
X148553237Y-74583044D01*
X148553212Y-74583061D01*
X148553210Y-74583062D01*
X148376395Y-74718736D01*
X148376379Y-74718749D01*
X148376369Y-74718758D01*
X148376361Y-74718765D01*
X148218765Y-74876361D01*
X148218758Y-74876369D01*
X148218749Y-74876379D01*
X148218736Y-74876395D01*
X148083062Y-75053210D01*
X148083061Y-75053212D01*
X148083044Y-75053237D01*
X147971595Y-75246272D01*
X147886297Y-75452199D01*
X147886288Y-75452222D01*
X147834457Y-75645667D01*
X147834456Y-75645669D01*
X147828601Y-75667517D01*
X147828593Y-75667550D01*
X147828592Y-75667556D01*
X147799503Y-75888516D01*
X147799500Y-75888541D01*
X147799500Y-76111457D01*
X147799503Y-76111482D01*
X147828593Y-76332447D01*
X147828597Y-76332467D01*
X147856096Y-76435095D01*
X147886289Y-76547779D01*
X147886291Y-76547786D01*
X147886293Y-76547790D01*
X147962397Y-76731522D01*
X147971595Y-76753726D01*
X147971597Y-76753729D01*
X147995252Y-76794703D01*
X148008365Y-76827453D01*
X148009805Y-76833389D01*
X148006488Y-76903178D01*
X147965966Y-76960096D01*
X147901104Y-76986071D01*
X147832497Y-76972856D01*
X147828306Y-76970696D01*
X147797431Y-76948154D01*
X147778476Y-76929199D01*
X146509883Y-75660581D01*
X146141424Y-75292115D01*
X144862707Y-74013372D01*
X144862695Y-74013359D01*
X144859583Y-74010247D01*
X144766284Y-73916948D01*
X144740717Y-73891380D01*
X144644076Y-73835585D01*
X144603790Y-73812326D01*
X144603788Y-73812325D01*
X144603784Y-73812323D01*
X144603781Y-73812321D01*
X144565001Y-73801930D01*
X144550107Y-73793331D01*
X144549230Y-73793331D01*
X144517136Y-73789105D01*
X144483155Y-73779999D01*
X144468259Y-73771399D01*
X144451063Y-73771399D01*
X144285353Y-73771399D01*
X144283449Y-73771399D01*
X144283386Y-73771400D01*
X142290188Y-73771400D01*
X142255253Y-73766377D01*
X142244399Y-73763190D01*
X142185621Y-73725416D01*
X142156596Y-73661860D01*
X142166528Y-73592728D01*
X142167501Y-73590597D01*
X142211415Y-73538986D01*
X142225659Y-73529469D01*
X142243289Y-73517689D01*
X142354789Y-73406189D01*
X142442394Y-73275079D01*
X142502737Y-73129397D01*
X142502739Y-73129385D01*
X142503418Y-73127150D01*
X142512201Y-73105671D01*
X142520055Y-73090657D01*
X142568568Y-73040381D01*
X142574963Y-73036739D01*
X142636313Y-73020500D01*
X144400005Y-73020500D01*
X144400010Y-73020500D01*
X144502798Y-73009999D01*
X144669335Y-72954814D01*
X144818656Y-72862712D01*
X144942712Y-72738656D01*
X145034814Y-72589335D01*
X145089999Y-72422798D01*
X145100500Y-72320010D01*
X145100500Y-70519990D01*
X145089999Y-70417202D01*
X145034814Y-70250665D01*
X144942712Y-70101344D01*
X144818656Y-69977288D01*
X144713323Y-69912318D01*
X144669337Y-69885187D01*
X144669332Y-69885185D01*
X144511266Y-69832807D01*
X144508440Y-69831639D01*
X144502797Y-69829999D01*
X144400026Y-69819500D01*
X144400017Y-69819500D01*
X144400010Y-69819500D01*
X142599990Y-69819500D01*
X142599982Y-69819500D01*
X142599974Y-69819500D01*
X142495496Y-69830174D01*
X142489913Y-69832416D01*
X142449008Y-69845971D01*
X142449007Y-69845971D01*
X142330684Y-69885178D01*
X142330666Y-69885185D01*
X142330664Y-69885186D01*
X142330662Y-69885187D01*
X142286676Y-69912318D01*
X142181342Y-69977288D01*
X142103210Y-70055419D01*
X142095992Y-70062085D01*
X141617434Y-70470206D01*
X141553652Y-70498730D01*
X141484574Y-70488242D01*
X141477172Y-70484484D01*
X141160449Y-70310103D01*
X140678309Y-70044646D01*
X140641029Y-70026073D01*
X140629859Y-70021074D01*
X140618748Y-70015413D01*
X140618745Y-70015412D01*
X140589997Y-70000764D01*
X140464383Y-69936760D01*
X140389162Y-69912319D01*
X140389159Y-69912318D01*
X140362764Y-69903741D01*
X140331092Y-69888168D01*
X140319637Y-69880335D01*
X140275410Y-69826246D01*
X140267444Y-69756846D01*
X140268013Y-69753556D01*
X140289384Y-69702493D01*
X140290532Y-69700888D01*
X140303663Y-69685409D01*
X140357150Y-69631925D01*
X142438800Y-67550376D01*
X142486097Y-67520820D01*
X143503010Y-67170596D01*
X143543341Y-67154741D01*
X143543344Y-67154738D01*
X143543349Y-67154737D01*
X143548489Y-67152143D01*
X143548901Y-67152960D01*
X143566147Y-67144845D01*
X143608509Y-67131082D01*
X143779681Y-67043865D01*
X143935102Y-66930945D01*
X144070945Y-66795102D01*
X144183865Y-66639681D01*
X144271082Y-66468509D01*
X144273764Y-66460255D01*
X144282167Y-66434395D01*
X144286560Y-66420874D01*
X144302124Y-66389212D01*
X144308515Y-66379866D01*
X144362598Y-66335638D01*
X144432012Y-66327670D01*
X144494707Y-66358488D01*
X144496987Y-66360581D01*
X144531085Y-66413629D01*
X144548913Y-66468501D01*
X144548919Y-66468514D01*
X144611777Y-66591878D01*
X144611778Y-66591878D01*
X144636135Y-66639681D01*
X144749055Y-66795102D01*
X144884898Y-66930945D01*
X145040319Y-67043865D01*
X145142551Y-67095955D01*
X145192371Y-67121340D01*
X145211495Y-67131084D01*
X145224601Y-67135342D01*
X145302845Y-67160764D01*
X145394199Y-67190447D01*
X145583945Y-67220500D01*
X145583946Y-67220500D01*
X145776054Y-67220500D01*
X145776055Y-67220500D01*
X145965801Y-67190447D01*
X146148509Y-67131082D01*
X146319681Y-67043865D01*
X146475102Y-66930945D01*
X146610945Y-66795102D01*
X146723865Y-66639681D01*
X146811082Y-66468509D01*
X146870447Y-66285801D01*
X146900500Y-66096055D01*
X146900500Y-65903945D01*
X146870447Y-65714199D01*
X146832188Y-65596448D01*
X146831560Y-65594515D01*
X146811085Y-65531498D01*
X146811083Y-65531492D01*
X146745893Y-65403551D01*
X146745893Y-65403550D01*
X146723866Y-65360320D01*
X146702819Y-65331352D01*
X146610945Y-65204898D01*
X146475102Y-65069055D01*
X146320277Y-64956568D01*
X146319676Y-64956131D01*
X146276451Y-64934107D01*
X146148516Y-64868920D01*
X146148500Y-64868913D01*
X145965804Y-64809553D01*
X145965805Y-64809553D01*
X145799889Y-64783275D01*
X145776055Y-64779500D01*
X145776054Y-64779500D01*
X145583946Y-64779500D01*
X145583945Y-64779500D01*
X145560111Y-64783275D01*
X145394193Y-64809553D01*
X145211498Y-64868913D01*
X145211482Y-64868920D01*
X145040328Y-64956129D01*
X145040321Y-64956132D01*
X144979944Y-65000000D01*
X144896766Y-65060431D01*
X144889387Y-65064564D01*
X144744562Y-65209389D01*
X144740430Y-65216768D01*
X144713094Y-65254393D01*
X144637746Y-65358100D01*
X144636135Y-65360318D01*
X144636134Y-65360320D01*
X144636125Y-65360335D01*
X144548920Y-65531482D01*
X144548914Y-65531495D01*
X144533440Y-65579123D01*
X144517868Y-65610795D01*
X144511483Y-65620133D01*
X144457395Y-65664362D01*
X144387981Y-65672327D01*
X144325283Y-65641502D01*
X144322984Y-65639391D01*
X144288913Y-65586369D01*
X144271083Y-65531493D01*
X144205893Y-65403551D01*
X144205893Y-65403550D01*
X144183866Y-65360320D01*
X144162819Y-65331352D01*
X144070945Y-65204898D01*
X143935102Y-65069055D01*
X143780277Y-64956568D01*
X143779676Y-64956131D01*
X143736451Y-64934107D01*
X143608516Y-64868920D01*
X143608500Y-64868913D01*
X143425804Y-64809553D01*
X143425805Y-64809553D01*
X143259889Y-64783275D01*
X143236055Y-64779500D01*
X143236054Y-64779500D01*
X143043946Y-64779500D01*
X143043945Y-64779500D01*
X143020111Y-64783275D01*
X142854193Y-64809553D01*
X142671498Y-64868913D01*
X142671482Y-64868920D01*
X142500328Y-64956129D01*
X142500321Y-64956132D01*
X142439944Y-65000000D01*
X142356766Y-65060431D01*
X142349387Y-65064564D01*
X142204562Y-65209389D01*
X142200430Y-65216768D01*
X142173094Y-65254393D01*
X142173094Y-65254394D01*
X142096135Y-65360317D01*
X142008917Y-65531490D01*
X141993175Y-65579938D01*
X141977602Y-65611610D01*
X141971218Y-65620946D01*
X141917129Y-65665173D01*
X141847714Y-65673137D01*
X141785017Y-65642309D01*
X141782718Y-65640200D01*
X141748649Y-65587178D01*
X141730616Y-65531680D01*
X141643434Y-65360577D01*
X141643245Y-65360317D01*
X141622204Y-65331355D01*
X141622200Y-65331351D01*
X141622199Y-65331351D01*
X141136498Y-65817054D01*
X141075175Y-65850539D01*
X141005484Y-65845555D01*
X140949550Y-65803684D01*
X140941430Y-65791373D01*
X140920082Y-65754397D01*
X140920078Y-65754392D01*
X140845607Y-65679921D01*
X140845606Y-65679920D01*
X140808625Y-65658569D01*
X140760410Y-65608003D01*
X140747186Y-65539396D01*
X140773154Y-65474531D01*
X140782933Y-65463512D01*
X141268646Y-64977798D01*
X141249183Y-64963658D01*
X141239415Y-64956561D01*
X141239413Y-64956560D01*
X141195347Y-64934107D01*
X141068321Y-64869383D01*
X140885684Y-64810040D01*
X140885682Y-64810039D01*
X140885680Y-64810039D01*
X140696020Y-64780000D01*
X140696015Y-64780000D01*
X140503985Y-64780000D01*
X140503980Y-64780000D01*
X140314318Y-64810039D01*
X140314315Y-64810040D01*
X140131678Y-64869383D01*
X140066228Y-64902732D01*
X139960569Y-64956568D01*
X139956422Y-64959110D01*
X139955265Y-64957223D01*
X139937207Y-64963658D01*
X139931350Y-64977798D01*
X140417055Y-65463501D01*
X140450540Y-65524824D01*
X140445556Y-65594515D01*
X140403685Y-65650449D01*
X140391374Y-65658569D01*
X140354397Y-65679917D01*
X140354392Y-65679921D01*
X140279921Y-65754392D01*
X140279915Y-65754400D01*
X140258568Y-65791374D01*
X140208001Y-65839589D01*
X140139393Y-65852811D01*
X140074529Y-65826843D01*
X140063501Y-65817054D01*
X139577798Y-65331350D01*
X139564329Y-65336930D01*
X139558682Y-65356160D01*
X139559110Y-65356422D01*
X139558141Y-65358002D01*
X139558113Y-65358100D01*
X139557810Y-65358542D01*
X139556568Y-65360569D01*
X139512356Y-65447339D01*
X139469383Y-65531678D01*
X139469382Y-65531680D01*
X139469382Y-65531681D01*
X139410039Y-65714318D01*
X139380000Y-65903978D01*
X139380000Y-66096020D01*
X139410039Y-66285680D01*
X139410040Y-66285684D01*
X139469383Y-66468321D01*
X139541625Y-66610102D01*
X139556560Y-66639413D01*
X139556561Y-66639415D01*
X139571186Y-66659546D01*
X139577798Y-66668646D01*
X140063503Y-66182940D01*
X140124823Y-66149458D01*
X140194514Y-66154442D01*
X140250448Y-66196313D01*
X140258568Y-66208624D01*
X140279917Y-66245602D01*
X140279919Y-66245604D01*
X140279920Y-66245606D01*
X140354394Y-66320080D01*
X140354395Y-66320081D01*
X140354397Y-66320082D01*
X140391373Y-66341430D01*
X140439588Y-66391996D01*
X140452812Y-66460603D01*
X140426844Y-66525468D01*
X140417054Y-66536498D01*
X139931351Y-67022199D01*
X139931351Y-67022200D01*
X139931355Y-67022204D01*
X139960576Y-67043434D01*
X140131671Y-67130613D01*
X140131675Y-67130614D01*
X140131678Y-67130616D01*
X140314315Y-67189959D01*
X140503985Y-67220000D01*
X140696013Y-67220000D01*
X140696015Y-67220000D01*
X140746637Y-67211981D01*
X140781917Y-67211477D01*
X140793135Y-67212926D01*
X140857100Y-67241036D01*
X140895714Y-67299266D01*
X140896716Y-67369129D01*
X140896715Y-67369133D01*
X140895885Y-67372117D01*
X140864099Y-67426571D01*
X139383117Y-68907482D01*
X138920975Y-69369601D01*
X138920921Y-69369656D01*
X138920144Y-69370432D01*
X138891946Y-69391526D01*
X138877132Y-69399615D01*
X138868875Y-69404124D01*
X138868860Y-69404132D01*
X138809433Y-69419300D01*
X125797592Y-69419300D01*
X125762657Y-69414277D01*
X125751803Y-69411090D01*
X125693025Y-69373316D01*
X125664000Y-69309760D01*
X125673933Y-69240626D01*
X125674697Y-69238953D01*
X125707496Y-69195708D01*
X125707541Y-69195670D01*
X125721572Y-69185416D01*
X125721574Y-69185415D01*
X125801576Y-69135147D01*
X125925147Y-69011576D01*
X126018122Y-68863606D01*
X126075841Y-68698657D01*
X126090500Y-68568552D01*
X126090500Y-67231448D01*
X126075841Y-67101343D01*
X126018122Y-66936394D01*
X125925147Y-66788424D01*
X125801576Y-66664853D01*
X125761095Y-66639417D01*
X125665433Y-66579309D01*
X125658825Y-66574039D01*
X125638951Y-66565807D01*
X125633717Y-66564918D01*
X125488658Y-66514159D01*
X125488656Y-66514158D01*
X125488652Y-66514157D01*
X125488629Y-66514154D01*
X125358564Y-66499500D01*
X125358558Y-66499500D01*
X125358552Y-66499500D01*
X124961830Y-66499500D01*
X124926889Y-66494475D01*
X124911890Y-66490070D01*
X124853144Y-66452327D01*
X124851957Y-66450958D01*
X124824477Y-66396083D01*
X124822832Y-66388521D01*
X124820000Y-66362168D01*
X124820000Y-66080000D01*
X124188002Y-66080000D01*
X124184037Y-66078835D01*
X124180005Y-66079742D01*
X124150789Y-66069072D01*
X124120963Y-66060315D01*
X124117148Y-66056788D01*
X124114374Y-66055775D01*
X124106386Y-66046837D01*
X124089247Y-66030990D01*
X124084520Y-66024766D01*
X124070075Y-65999745D01*
X124000255Y-65929925D01*
X124000254Y-65929924D01*
X124000251Y-65929922D01*
X123955314Y-65903978D01*
X128580000Y-65903978D01*
X128580000Y-66096020D01*
X128610039Y-66285680D01*
X128610040Y-66285684D01*
X128669383Y-66468321D01*
X128741625Y-66610102D01*
X128756560Y-66639413D01*
X128756561Y-66639415D01*
X128771186Y-66659546D01*
X128777798Y-66668646D01*
X129263503Y-66182940D01*
X129324823Y-66149458D01*
X129394514Y-66154442D01*
X129450448Y-66196313D01*
X129458568Y-66208624D01*
X129479917Y-66245602D01*
X129479919Y-66245604D01*
X129479920Y-66245606D01*
X129554394Y-66320080D01*
X129554395Y-66320081D01*
X129554397Y-66320082D01*
X129591373Y-66341430D01*
X129639588Y-66391996D01*
X129652812Y-66460603D01*
X129626844Y-66525468D01*
X129617054Y-66536498D01*
X129131351Y-67022199D01*
X129131351Y-67022200D01*
X129131355Y-67022204D01*
X129160576Y-67043434D01*
X129331671Y-67130613D01*
X129331675Y-67130614D01*
X129331678Y-67130616D01*
X129514315Y-67189959D01*
X129703985Y-67220000D01*
X129896014Y-67220000D01*
X129896015Y-67220000D01*
X130085684Y-67189959D01*
X130268321Y-67130616D01*
X130439419Y-67043436D01*
X130468646Y-67022201D01*
X130468646Y-67022200D01*
X130234869Y-66788423D01*
X129982945Y-66536498D01*
X129949460Y-66475175D01*
X129954444Y-66405483D01*
X129996316Y-66349550D01*
X130008618Y-66341434D01*
X130045606Y-66320080D01*
X130120080Y-66245606D01*
X130141430Y-66208625D01*
X130191994Y-66160411D01*
X130260601Y-66147186D01*
X130325466Y-66173153D01*
X130336497Y-66182943D01*
X130822200Y-66668646D01*
X130822201Y-66668646D01*
X130843436Y-66639419D01*
X130930616Y-66468319D01*
X130946296Y-66420061D01*
X130961867Y-66388393D01*
X130968252Y-66379055D01*
X131022340Y-66334826D01*
X131091754Y-66326861D01*
X131154451Y-66357685D01*
X131156751Y-66359796D01*
X131190823Y-66412821D01*
X131209219Y-66469438D01*
X131211126Y-66472843D01*
X131278464Y-66605000D01*
X131296135Y-66639681D01*
X131409055Y-66795102D01*
X131544898Y-66930945D01*
X131700319Y-67043865D01*
X131802551Y-67095955D01*
X131852371Y-67121340D01*
X131871495Y-67131084D01*
X131884601Y-67135342D01*
X131962845Y-67160764D01*
X132054199Y-67190447D01*
X132243945Y-67220500D01*
X132243946Y-67220500D01*
X132436054Y-67220500D01*
X132436055Y-67220500D01*
X132625801Y-67190447D01*
X132808509Y-67131082D01*
X132979681Y-67043865D01*
X133135102Y-66930945D01*
X133270945Y-66795102D01*
X133383865Y-66639681D01*
X133471082Y-66468509D01*
X133473764Y-66460255D01*
X133482167Y-66434395D01*
X133486560Y-66420874D01*
X133502124Y-66389212D01*
X133508515Y-66379866D01*
X133562598Y-66335638D01*
X133632012Y-66327670D01*
X133694707Y-66358488D01*
X133696987Y-66360581D01*
X133731085Y-66413629D01*
X133748913Y-66468501D01*
X133748919Y-66468514D01*
X133811777Y-66591878D01*
X133811778Y-66591878D01*
X133836135Y-66639681D01*
X133949055Y-66795102D01*
X134084898Y-66930945D01*
X134240319Y-67043865D01*
X134342551Y-67095955D01*
X134392371Y-67121340D01*
X134411495Y-67131084D01*
X134424601Y-67135342D01*
X134502845Y-67160764D01*
X134594199Y-67190447D01*
X134783945Y-67220500D01*
X134783946Y-67220500D01*
X134976054Y-67220500D01*
X134976055Y-67220500D01*
X135165801Y-67190447D01*
X135348509Y-67131082D01*
X135519681Y-67043865D01*
X135675102Y-66930945D01*
X135810945Y-66795102D01*
X135923865Y-66639681D01*
X136011082Y-66468509D01*
X136070447Y-66285801D01*
X136100500Y-66096055D01*
X136100500Y-65903945D01*
X136070447Y-65714199D01*
X136032188Y-65596448D01*
X136031560Y-65594515D01*
X136011085Y-65531498D01*
X136011083Y-65531492D01*
X135945893Y-65403551D01*
X135945893Y-65403550D01*
X135923866Y-65360320D01*
X135902819Y-65331352D01*
X135810945Y-65204898D01*
X135675102Y-65069055D01*
X135520277Y-64956568D01*
X135519676Y-64956131D01*
X135476451Y-64934107D01*
X135348516Y-64868920D01*
X135348500Y-64868913D01*
X135165804Y-64809553D01*
X135165805Y-64809553D01*
X134999889Y-64783275D01*
X134976055Y-64779500D01*
X134976054Y-64779500D01*
X134783946Y-64779500D01*
X134783945Y-64779500D01*
X134760111Y-64783275D01*
X134594193Y-64809553D01*
X134411498Y-64868913D01*
X134411482Y-64868920D01*
X134240328Y-64956129D01*
X134240321Y-64956132D01*
X134179944Y-65000000D01*
X134096766Y-65060431D01*
X134089387Y-65064564D01*
X133944562Y-65209389D01*
X133940430Y-65216768D01*
X133913094Y-65254393D01*
X133837746Y-65358100D01*
X133836135Y-65360318D01*
X133836134Y-65360320D01*
X133836125Y-65360335D01*
X133748920Y-65531482D01*
X133748914Y-65531495D01*
X133733440Y-65579123D01*
X133717868Y-65610795D01*
X133711483Y-65620133D01*
X133657395Y-65664362D01*
X133587981Y-65672327D01*
X133525283Y-65641502D01*
X133522984Y-65639391D01*
X133488913Y-65586369D01*
X133471083Y-65531493D01*
X133405893Y-65403551D01*
X133405893Y-65403550D01*
X133383866Y-65360320D01*
X133362819Y-65331352D01*
X133270945Y-65204898D01*
X133135102Y-65069055D01*
X132980277Y-64956568D01*
X132979676Y-64956131D01*
X132936451Y-64934107D01*
X132808516Y-64868920D01*
X132808500Y-64868913D01*
X132625804Y-64809553D01*
X132625805Y-64809553D01*
X132459889Y-64783275D01*
X132436055Y-64779500D01*
X132436054Y-64779500D01*
X132243946Y-64779500D01*
X132243945Y-64779500D01*
X132220111Y-64783275D01*
X132054193Y-64809553D01*
X131871498Y-64868913D01*
X131871482Y-64868920D01*
X131700328Y-64956129D01*
X131700321Y-64956132D01*
X131639944Y-65000000D01*
X131556766Y-65060431D01*
X131549387Y-65064564D01*
X131404562Y-65209389D01*
X131400430Y-65216768D01*
X131373094Y-65254393D01*
X131373094Y-65254394D01*
X131296135Y-65360317D01*
X131208917Y-65531490D01*
X131193175Y-65579938D01*
X131177602Y-65611610D01*
X131171218Y-65620946D01*
X131117129Y-65665173D01*
X131047714Y-65673137D01*
X130985017Y-65642309D01*
X130982718Y-65640200D01*
X130948649Y-65587178D01*
X130930616Y-65531680D01*
X130843434Y-65360577D01*
X130843245Y-65360317D01*
X130822204Y-65331355D01*
X130822200Y-65331351D01*
X130822199Y-65331351D01*
X130336497Y-65817053D01*
X130275174Y-65850538D01*
X130205482Y-65845554D01*
X130149549Y-65803682D01*
X130141430Y-65791374D01*
X130120080Y-65754394D01*
X130045606Y-65679920D01*
X130008625Y-65658569D01*
X129960410Y-65608003D01*
X129947186Y-65539396D01*
X129973154Y-65474531D01*
X129982933Y-65463512D01*
X130468646Y-64977798D01*
X130449183Y-64963658D01*
X130439415Y-64956561D01*
X130439413Y-64956560D01*
X130395347Y-64934107D01*
X130268321Y-64869383D01*
X130085684Y-64810040D01*
X130085682Y-64810039D01*
X130085680Y-64810039D01*
X129896020Y-64780000D01*
X129896015Y-64780000D01*
X129703985Y-64780000D01*
X129703980Y-64780000D01*
X129514318Y-64810039D01*
X129514315Y-64810040D01*
X129331678Y-64869383D01*
X129266228Y-64902732D01*
X129160569Y-64956568D01*
X129156422Y-64959110D01*
X129155265Y-64957223D01*
X129137207Y-64963658D01*
X129131350Y-64977798D01*
X129617055Y-65463501D01*
X129650540Y-65524824D01*
X129645556Y-65594515D01*
X129603685Y-65650449D01*
X129591374Y-65658569D01*
X129554397Y-65679917D01*
X129554392Y-65679921D01*
X129479921Y-65754392D01*
X129479915Y-65754400D01*
X129458568Y-65791374D01*
X129408001Y-65839589D01*
X129339393Y-65852811D01*
X129274529Y-65826843D01*
X129263501Y-65817054D01*
X128777798Y-65331350D01*
X128764329Y-65336930D01*
X128758682Y-65356160D01*
X128759110Y-65356422D01*
X128758141Y-65358002D01*
X128758113Y-65358100D01*
X128757810Y-65358542D01*
X128756568Y-65360569D01*
X128712356Y-65447339D01*
X128669383Y-65531678D01*
X128669382Y-65531680D01*
X128669382Y-65531681D01*
X128610039Y-65714318D01*
X128580000Y-65903978D01*
X123955314Y-65903978D01*
X123914747Y-65880557D01*
X123914746Y-65880556D01*
X123885579Y-65872741D01*
X123819370Y-65855000D01*
X123819367Y-65855000D01*
X123720633Y-65855000D01*
X123720630Y-65855000D01*
X123663405Y-65870333D01*
X123625253Y-65880556D01*
X123625252Y-65880557D01*
X123539748Y-65929922D01*
X123539743Y-65929926D01*
X123469926Y-65999743D01*
X123469922Y-65999748D01*
X123459385Y-66018000D01*
X123408818Y-66066216D01*
X123351998Y-66080000D01*
X122720000Y-66080000D01*
X122720000Y-66357670D01*
X122714975Y-66392614D01*
X122710570Y-66407612D01*
X122672827Y-66466355D01*
X122671458Y-66467542D01*
X122616597Y-66495018D01*
X122609039Y-66496663D01*
X122582668Y-66499500D01*
X121902123Y-66499500D01*
X121900192Y-66499659D01*
X121898545Y-66499885D01*
X121842516Y-66505908D01*
X121724099Y-66550075D01*
X121707666Y-66556204D01*
X121707665Y-66556205D01*
X121592456Y-66642450D01*
X121592450Y-66642456D01*
X121506205Y-66757665D01*
X121506203Y-66757668D01*
X121455908Y-66892516D01*
X121449500Y-66952125D01*
X121449500Y-68847876D01*
X121449659Y-68849806D01*
X121449885Y-68851454D01*
X121455907Y-68907482D01*
X121483690Y-68981971D01*
X121506202Y-69042328D01*
X121506206Y-69042335D01*
X121585786Y-69148639D01*
X121587978Y-69152189D01*
X121590337Y-69155013D01*
X121594030Y-69159682D01*
X121601333Y-69164193D01*
X121628867Y-69184806D01*
X121629508Y-69185285D01*
X121654553Y-69210310D01*
X121661330Y-69219364D01*
X121685744Y-69284829D01*
X121670888Y-69353102D01*
X121621500Y-69402493D01*
X121618514Y-69404124D01*
X121559073Y-69419300D01*
X118288422Y-69419300D01*
X118253487Y-69414277D01*
X118242633Y-69411090D01*
X118183855Y-69373316D01*
X118154830Y-69309760D01*
X118164763Y-69240626D01*
X118165527Y-69238953D01*
X118198326Y-69195708D01*
X118198371Y-69195670D01*
X118212389Y-69185424D01*
X118260576Y-69155147D01*
X118384147Y-69031576D01*
X118477122Y-68883606D01*
X118534841Y-68718657D01*
X118549500Y-68588552D01*
X118549500Y-67251448D01*
X118535886Y-67130616D01*
X118534842Y-67121351D01*
X118534841Y-67121349D01*
X118534841Y-67121343D01*
X118523993Y-67090343D01*
X118477122Y-66956394D01*
X118422140Y-66868890D01*
X118384147Y-66808424D01*
X118260576Y-66684853D01*
X118193101Y-66642456D01*
X118124433Y-66599309D01*
X118117825Y-66594039D01*
X118097951Y-66585807D01*
X118092717Y-66584918D01*
X117947658Y-66534159D01*
X117947656Y-66534158D01*
X117947652Y-66534157D01*
X117947629Y-66534154D01*
X117817564Y-66519500D01*
X117817558Y-66519500D01*
X117817552Y-66519500D01*
X117420830Y-66519500D01*
X117385889Y-66514475D01*
X117370890Y-66510070D01*
X117312144Y-66472327D01*
X117310957Y-66470958D01*
X117283477Y-66416083D01*
X117281832Y-66408521D01*
X117279000Y-66382168D01*
X117279000Y-66100000D01*
X116647002Y-66100000D01*
X116579963Y-66080315D01*
X116539615Y-66038000D01*
X116529077Y-66019748D01*
X116529073Y-66019743D01*
X116459256Y-65949926D01*
X116459251Y-65949922D01*
X116373747Y-65900557D01*
X116373746Y-65900556D01*
X116349901Y-65894167D01*
X116278370Y-65875000D01*
X116278367Y-65875000D01*
X116179633Y-65875000D01*
X116179630Y-65875000D01*
X116127576Y-65888948D01*
X116084253Y-65900556D01*
X116084252Y-65900557D01*
X115998748Y-65949922D01*
X115998743Y-65949926D01*
X115928926Y-66019743D01*
X115928922Y-66019748D01*
X115918385Y-66038000D01*
X115867818Y-66086216D01*
X115810998Y-66100000D01*
X115179000Y-66100000D01*
X115179000Y-66377670D01*
X115173975Y-66412614D01*
X115169570Y-66427612D01*
X115131827Y-66486355D01*
X115130458Y-66487542D01*
X115075597Y-66515018D01*
X115068039Y-66516663D01*
X115041668Y-66519500D01*
X114361123Y-66519500D01*
X114359192Y-66519659D01*
X114357545Y-66519885D01*
X114301516Y-66525908D01*
X114172471Y-66574039D01*
X114166666Y-66576204D01*
X114166665Y-66576205D01*
X114051456Y-66662450D01*
X114051450Y-66662456D01*
X113965205Y-66777665D01*
X113965203Y-66777668D01*
X113914907Y-66912517D01*
X113910191Y-66956397D01*
X113908501Y-66972116D01*
X113908500Y-66972132D01*
X113908500Y-68867876D01*
X113908659Y-68869806D01*
X113908885Y-68871454D01*
X113914907Y-68927482D01*
X113942690Y-69001971D01*
X113965202Y-69062328D01*
X113965203Y-69062330D01*
X113965204Y-69062332D01*
X113965205Y-69062333D01*
X114051450Y-69177542D01*
X114051456Y-69177548D01*
X114064320Y-69187178D01*
X114166664Y-69263793D01*
X114166671Y-69263797D01*
X114211618Y-69280561D01*
X114301517Y-69314091D01*
X114361127Y-69320500D01*
X114532074Y-69320499D01*
X114566998Y-69325518D01*
X114577854Y-69328706D01*
X114636632Y-69366475D01*
X114665662Y-69430028D01*
X114655723Y-69499187D01*
X114655721Y-69499192D01*
X114652535Y-69506169D01*
X114627421Y-69542342D01*
X114592519Y-69577244D01*
X114552860Y-69616903D01*
X114319188Y-69850574D01*
X114290940Y-69871722D01*
X114275169Y-69880335D01*
X114267853Y-69884329D01*
X114208422Y-69899500D01*
X109293951Y-69899500D01*
X109238787Y-69886554D01*
X108152115Y-69346765D01*
X108110760Y-69328480D01*
X108105242Y-69326636D01*
X108105478Y-69325928D01*
X108087358Y-69319307D01*
X108050545Y-69300550D01*
X108039223Y-69294781D01*
X107844534Y-69231522D01*
X107844532Y-69231521D01*
X107844530Y-69231521D01*
X107844529Y-69231520D01*
X107669995Y-69203878D01*
X107653409Y-69201251D01*
X107642354Y-69199500D01*
X107642352Y-69199500D01*
X107437648Y-69199500D01*
X107437647Y-69199500D01*
X107413327Y-69203351D01*
X107413326Y-69203350D01*
X107235468Y-69231521D01*
X107040777Y-69294780D01*
X107040764Y-69294786D01*
X106858397Y-69387708D01*
X106858385Y-69387715D01*
X106692787Y-69508027D01*
X106692784Y-69508029D01*
X106548029Y-69652784D01*
X106548027Y-69652787D01*
X106427715Y-69818385D01*
X106427708Y-69818397D01*
X106334786Y-70000764D01*
X106334780Y-70000777D01*
X106271521Y-70195468D01*
X106239500Y-70397642D01*
X106239500Y-70602356D01*
X106271521Y-70804529D01*
X106271523Y-70804539D01*
X106295369Y-70877924D01*
X106301388Y-70912700D01*
X106301784Y-70926579D01*
X106284021Y-70994152D01*
X106232564Y-71041385D01*
X106231249Y-71042032D01*
X106226291Y-71044469D01*
X106171565Y-71057200D01*
X103914882Y-71057200D01*
X103879943Y-71052176D01*
X103866625Y-71048265D01*
X103807848Y-71010489D01*
X103778826Y-70946932D01*
X103778825Y-70946931D01*
X103777831Y-70940013D01*
X103782638Y-70884056D01*
X103808477Y-70804534D01*
X103840500Y-70602352D01*
X103840500Y-70397648D01*
X103808477Y-70195466D01*
X103808476Y-70195462D01*
X103808476Y-70195461D01*
X103746722Y-70005403D01*
X103745659Y-70001637D01*
X103744662Y-69999629D01*
X103742870Y-69995930D01*
X103741932Y-69994327D01*
X103711503Y-69934607D01*
X103687841Y-69888168D01*
X103652287Y-69818390D01*
X103634884Y-69794437D01*
X103607573Y-69756846D01*
X103531972Y-69652787D01*
X103387211Y-69508026D01*
X103229507Y-69393450D01*
X103229168Y-69393161D01*
X103221603Y-69387707D01*
X103221239Y-69387524D01*
X103164278Y-69358501D01*
X103164278Y-69358500D01*
X103164276Y-69358500D01*
X103039228Y-69294783D01*
X103039221Y-69294780D01*
X102934316Y-69260694D01*
X102844534Y-69231522D01*
X102844532Y-69231521D01*
X102844530Y-69231521D01*
X102844529Y-69231520D01*
X102669995Y-69203878D01*
X102653409Y-69201251D01*
X102642354Y-69199500D01*
X102642352Y-69199500D01*
X102437648Y-69199500D01*
X102437647Y-69199500D01*
X102413327Y-69203351D01*
X102413326Y-69203350D01*
X102235468Y-69231521D01*
X102040770Y-69294783D01*
X101967102Y-69332318D01*
X101949613Y-69339605D01*
X101927887Y-69346763D01*
X100841212Y-69886554D01*
X100786048Y-69899500D01*
X91686921Y-69899500D01*
X91686858Y-69899499D01*
X91684954Y-69899499D01*
X91677358Y-69899499D01*
X91519243Y-69899499D01*
X91442878Y-69919960D01*
X91442879Y-69919961D01*
X91366517Y-69940422D01*
X91366515Y-69940422D01*
X91366514Y-69940423D01*
X91366512Y-69940423D01*
X91366443Y-69940453D01*
X91365634Y-69940930D01*
X91229598Y-70019470D01*
X91229580Y-70019482D01*
X90305266Y-70943795D01*
X90291900Y-70955378D01*
X90270876Y-70971117D01*
X90270862Y-70971129D01*
X90073486Y-71168505D01*
X90073479Y-71168513D01*
X90045031Y-71203184D01*
X90036856Y-71212205D01*
X90019482Y-71229580D01*
X90019478Y-71229585D01*
X90011864Y-71242773D01*
X90008804Y-71247696D01*
X90008035Y-71248979D01*
X90005923Y-71252930D01*
X90003974Y-71256438D01*
X89997624Y-71267440D01*
X89997616Y-71267454D01*
X89979973Y-71298013D01*
X89979972Y-71298014D01*
X89951820Y-71346775D01*
X89948782Y-71352036D01*
X89943409Y-71361344D01*
X89943406Y-71361350D01*
X89943400Y-71361360D01*
X89940419Y-71366521D01*
X89938794Y-71370445D01*
X89925777Y-71394156D01*
X89613493Y-71839681D01*
X89591378Y-71874118D01*
X89590426Y-71875742D01*
X89590367Y-71875869D01*
X89590296Y-71875988D01*
X89589076Y-71878312D01*
X89588962Y-71878252D01*
X89578341Y-71896269D01*
X89558771Y-71923205D01*
X89480129Y-72077549D01*
X89426596Y-72242305D01*
X89399500Y-72413383D01*
X83700500Y-72413383D01*
X83700500Y-72388543D01*
X83671404Y-72167537D01*
X83613710Y-71952219D01*
X83528405Y-71746274D01*
X83416948Y-71553226D01*
X83348721Y-71464310D01*
X83317751Y-71423949D01*
X83281254Y-71376384D01*
X83281250Y-71376380D01*
X83281248Y-71376377D01*
X83281242Y-71376370D01*
X83123629Y-71218757D01*
X83123622Y-71218751D01*
X83123612Y-71218743D01*
X83123603Y-71218736D01*
X82948754Y-71084571D01*
X82946873Y-71083067D01*
X82945486Y-71082233D01*
X82943589Y-71081212D01*
X82753767Y-70971618D01*
X82753715Y-70971589D01*
X82737136Y-70964722D01*
X82691651Y-70945882D01*
X82661301Y-70927874D01*
X82654296Y-70922229D01*
X82614448Y-70864837D01*
X82611954Y-70795012D01*
X82647606Y-70734923D01*
X82703596Y-70704999D01*
X82708583Y-70703821D01*
X82737089Y-70700500D01*
X83000003Y-70700500D01*
X83000008Y-70700500D01*
X83102797Y-70689999D01*
X83269334Y-70634814D01*
X83418655Y-70542711D01*
X83542711Y-70418655D01*
X83609667Y-70310101D01*
X83632704Y-70282627D01*
X84362899Y-69631924D01*
X84426045Y-69602019D01*
X84445396Y-69600500D01*
X94411380Y-69600500D01*
X94411443Y-69600501D01*
X94413347Y-69600501D01*
X94420943Y-69600501D01*
X94579054Y-69600501D01*
X94579057Y-69600501D01*
X94731785Y-69559577D01*
X94781904Y-69530639D01*
X94868716Y-69480520D01*
X94980520Y-69368716D01*
X94980520Y-69368715D01*
X94997960Y-69351275D01*
X94997961Y-69351272D01*
X97291676Y-67057555D01*
X97339032Y-67027978D01*
X98364223Y-66675457D01*
X98404734Y-66659546D01*
X98404736Y-66659545D01*
X98409879Y-66656951D01*
X98410288Y-66657763D01*
X98427535Y-66649651D01*
X98470429Y-66635715D01*
X98642302Y-66548141D01*
X98798359Y-66434759D01*
X98934759Y-66298359D01*
X99048141Y-66142302D01*
X99135715Y-65970429D01*
X99195324Y-65786972D01*
X99225500Y-65596449D01*
X99225500Y-65403551D01*
X99195324Y-65213028D01*
X99185068Y-65181462D01*
X115179000Y-65181462D01*
X115179000Y-65181469D01*
X115179000Y-65600000D01*
X115979000Y-65600000D01*
X116479000Y-65600000D01*
X117279000Y-65600000D01*
X117279000Y-65181475D01*
X117277919Y-65171884D01*
X117277921Y-65171884D01*
X117277918Y-65171873D01*
X117276745Y-65161462D01*
X122720000Y-65161462D01*
X122720000Y-65161469D01*
X122720000Y-65580000D01*
X123520000Y-65580000D01*
X124020000Y-65580000D01*
X124820000Y-65580000D01*
X124820000Y-65158882D01*
X124819167Y-65154090D01*
X124807605Y-65051462D01*
X124806194Y-65038940D01*
X124805351Y-65031463D01*
X124805351Y-65031462D01*
X124805351Y-65031461D01*
X124747669Y-64866613D01*
X124654753Y-64718737D01*
X124531262Y-64595246D01*
X124383386Y-64502330D01*
X124383385Y-64502329D01*
X124383384Y-64502329D01*
X124218536Y-64444647D01*
X124088536Y-64430000D01*
X124088530Y-64430000D01*
X124020000Y-64430000D01*
X124020000Y-65580000D01*
X123520000Y-65580000D01*
X123520000Y-64430000D01*
X123451462Y-64430000D01*
X123321462Y-64444647D01*
X123156614Y-64502329D01*
X123008736Y-64595246D01*
X122885246Y-64718736D01*
X122792329Y-64866614D01*
X122734647Y-65031462D01*
X122720000Y-65161462D01*
X117276745Y-65161462D01*
X117276454Y-65158882D01*
X117264351Y-65051460D01*
X117206669Y-64886613D01*
X117113753Y-64738737D01*
X116990262Y-64615246D01*
X116842386Y-64522330D01*
X116842385Y-64522329D01*
X116842384Y-64522329D01*
X116677536Y-64464647D01*
X116547536Y-64450000D01*
X116547530Y-64450000D01*
X116479000Y-64450000D01*
X116479000Y-65600000D01*
X115979000Y-65600000D01*
X115979000Y-64450000D01*
X115910462Y-64450000D01*
X115780462Y-64464647D01*
X115615614Y-64522329D01*
X115467736Y-64615246D01*
X115344246Y-64738736D01*
X115251329Y-64886614D01*
X115193647Y-65051462D01*
X115179000Y-65181462D01*
X99185068Y-65181462D01*
X99135715Y-65029571D01*
X99048141Y-64857698D01*
X98945895Y-64716968D01*
X98933040Y-64694754D01*
X98925657Y-64678261D01*
X98916233Y-64609030D01*
X98945734Y-64545694D01*
X99004349Y-64508490D01*
X99015055Y-64505390D01*
X99049536Y-64500500D01*
X101819375Y-64500500D01*
X101875502Y-64500507D01*
X101875509Y-64500507D01*
X101911753Y-64500511D01*
X101921376Y-64502055D01*
X101922442Y-64501895D01*
X101940915Y-64500514D01*
X101955617Y-64500516D01*
X101964082Y-64495894D01*
X101971959Y-64494445D01*
X102153638Y-64467110D01*
X102368206Y-64401045D01*
X102570556Y-64303791D01*
X102756183Y-64177512D01*
X102920955Y-64025019D01*
X102920961Y-64025012D01*
X102930253Y-64013393D01*
X102995159Y-63932244D01*
X102995169Y-63932227D01*
X103032231Y-63885902D01*
X103032231Y-63885901D01*
X103045407Y-63869432D01*
X103045407Y-63869431D01*
X103045423Y-63869412D01*
X103045428Y-63869405D01*
X103047484Y-63866834D01*
X103047489Y-63866826D01*
X103561730Y-63224028D01*
X103584105Y-63196058D01*
X103588554Y-63190806D01*
X103593189Y-63185636D01*
X103597945Y-63180619D01*
X103654861Y-63123856D01*
X103665198Y-63114642D01*
X103676027Y-63106026D01*
X103687334Y-63098021D01*
X103746564Y-63060884D01*
X103758680Y-63054202D01*
X103771170Y-63048199D01*
X103783942Y-63042919D01*
X103849952Y-63019865D01*
X103863260Y-63016037D01*
X103876742Y-63012965D01*
X103890417Y-63010645D01*
X103970275Y-63001663D01*
X103977200Y-63001081D01*
X103984119Y-63000694D01*
X103991044Y-63000500D01*
X152289554Y-63000500D01*
X152296492Y-63000693D01*
G37*
G04 #@! TD.AperFunction*
G04 #@! TA.AperFunction,Conductor*
G36*
X95602185Y-71601727D02*
G01*
X95603493Y-71603284D01*
X95972572Y-72129836D01*
X95974514Y-72138578D01*
X95974040Y-72140401D01*
X95511049Y-73469286D01*
X95505091Y-73475971D01*
X95496151Y-73476486D01*
X95489466Y-73470528D01*
X95488951Y-73469286D01*
X95025959Y-72140401D01*
X95026474Y-72131461D01*
X95027427Y-72129836D01*
X95396507Y-71603284D01*
X95404062Y-71598477D01*
X95406088Y-71598300D01*
X95593912Y-71598300D01*
X95602185Y-71601727D01*
G37*
G04 #@! TD.AperFunction*
G04 #@! TA.AperFunction,Conductor*
G36*
X90644862Y-71328562D02*
G01*
X90768577Y-71452277D01*
X90772004Y-71460550D01*
X90768577Y-71468823D01*
X90767426Y-71469832D01*
X90599999Y-71598299D01*
X90972572Y-72129836D01*
X90974514Y-72138578D01*
X90974040Y-72140401D01*
X90511049Y-73469286D01*
X90505091Y-73475971D01*
X90496151Y-73476486D01*
X90489466Y-73470528D01*
X90488951Y-73469286D01*
X90025959Y-72140401D01*
X90026474Y-72131461D01*
X90027427Y-72129836D01*
X90400000Y-71598300D01*
X90428399Y-71529737D01*
X90430931Y-71525946D01*
X90628316Y-71328562D01*
X90636589Y-71325135D01*
X90644862Y-71328562D01*
G37*
G04 #@! TD.AperFunction*
G04 #@! TA.AperFunction,Conductor*
G36*
X118165932Y-85268574D02*
G01*
X118501449Y-85888128D01*
X118502376Y-85897035D01*
X118501449Y-85899272D01*
X118165932Y-86518825D01*
X118158979Y-86524468D01*
X118150516Y-86523769D01*
X117848630Y-86376562D01*
X117070039Y-85996904D01*
X117064105Y-85990198D01*
X117063467Y-85986388D01*
X117063467Y-85801011D01*
X117066894Y-85792738D01*
X117070037Y-85790496D01*
X118150518Y-85263629D01*
X118159454Y-85263084D01*
X118165932Y-85268574D01*
G37*
G04 #@! TD.AperFunction*
M02*
