G04 #@! TF.GenerationSoftware,KiCad,Pcbnew,10.0.5-71-g2cb2c974e9*
G04 #@! TF.CreationDate,2026-08-27T22:08:04-04:00*
G04 #@! TF.ProjectId,Fury-Taur,46757279-2d54-4617-9572-2e6b69636164,rev?*
G04 #@! TF.SameCoordinates,Original*
G04 #@! TF.FileFunction,Copper,L2,Bot*
G04 #@! TF.FilePolarity,Positive*
%FSLAX46Y46*%
G04 Gerber Fmt 4.6, Leading zero omitted, Abs format (unit mm)*
G04 Created by KiCad (PCBNEW 10.0.5-71-g2cb2c974e9) date 2026-08-27 22:08:04*
%MOMM*%
%LPD*%
G01*
G04 APERTURE LIST*
G04 Aperture macros list*
%AMRoundRect*
0 Rectangle with rounded corners*
0 $1 Rounding radius*
0 $2 $3 $4 $5 $6 $7 $8 $9 X,Y pos of 4 corners*
0 Add a 4 corners polygon primitive as box body*
4,1,4,$2,$3,$4,$5,$6,$7,$8,$9,$2,$3,0*
0 Add four circle primitives for the rounded corners*
1,1,$1+$1,$2,$3*
1,1,$1+$1,$4,$5*
1,1,$1+$1,$6,$7*
1,1,$1+$1,$8,$9*
0 Add four rect primitives between the rounded corners*
20,1,$1+$1,$2,$3,$4,$5,0*
20,1,$1+$1,$4,$5,$6,$7,0*
20,1,$1+$1,$6,$7,$8,$9,0*
20,1,$1+$1,$8,$9,$2,$3,0*%
G04 Aperture macros list end*
G04 #@! TA.AperFunction,ComponentPad*
%ADD10C,1.440000*%
G04 #@! TD*
G04 #@! TA.AperFunction,ComponentPad*
%ADD11C,1.600000*%
G04 #@! TD*
G04 #@! TA.AperFunction,ComponentPad*
%ADD12C,2.400000*%
G04 #@! TD*
G04 #@! TA.AperFunction,ComponentPad*
%ADD13RoundRect,0.250001X-0.949999X0.949999X-0.949999X-0.949999X0.949999X-0.949999X0.949999X0.949999X0*%
G04 #@! TD*
G04 #@! TA.AperFunction,ComponentPad*
%ADD14RoundRect,0.250000X-0.600000X-0.600000X0.600000X-0.600000X0.600000X0.600000X-0.600000X0.600000X0*%
G04 #@! TD*
G04 #@! TA.AperFunction,ComponentPad*
%ADD15RoundRect,0.250000X-0.550000X0.550000X-0.550000X-0.550000X0.550000X-0.550000X0.550000X0.550000X0*%
G04 #@! TD*
G04 #@! TA.AperFunction,ComponentPad*
%ADD16O,3.000000X1.200000*%
G04 #@! TD*
G04 #@! TA.AperFunction,ComponentPad*
%ADD17R,1.100000X1.800000*%
G04 #@! TD*
G04 #@! TA.AperFunction,ComponentPad*
%ADD18RoundRect,0.275000X-0.275000X-0.625000X0.275000X-0.625000X0.275000X0.625000X-0.275000X0.625000X0*%
G04 #@! TD*
G04 #@! TA.AperFunction,ComponentPad*
%ADD19C,1.400000*%
G04 #@! TD*
G04 #@! TA.AperFunction,ComponentPad*
%ADD20C,1.450000*%
G04 #@! TD*
G04 #@! TA.AperFunction,ComponentPad*
%ADD21RoundRect,0.250001X0.949999X-0.949999X0.949999X0.949999X-0.949999X0.949999X-0.949999X-0.949999X0*%
G04 #@! TD*
G04 #@! TA.AperFunction,ComponentPad*
%ADD22RoundRect,0.249999X0.850001X-0.850001X0.850001X0.850001X-0.850001X0.850001X-0.850001X-0.850001X0*%
G04 #@! TD*
G04 #@! TA.AperFunction,ComponentPad*
%ADD23C,2.200000*%
G04 #@! TD*
G04 #@! TA.AperFunction,ComponentPad*
%ADD24O,2.200000X3.500000*%
G04 #@! TD*
G04 #@! TA.AperFunction,ComponentPad*
%ADD25R,1.500000X2.500000*%
G04 #@! TD*
G04 #@! TA.AperFunction,ComponentPad*
%ADD26O,1.500000X2.500000*%
G04 #@! TD*
G04 #@! TA.AperFunction,ComponentPad*
%ADD27O,1.200000X3.200000*%
G04 #@! TD*
G04 #@! TA.AperFunction,ComponentPad*
%ADD28RoundRect,0.249999X-0.850001X0.850001X-0.850001X-0.850001X0.850001X-0.850001X0.850001X0.850001X0*%
G04 #@! TD*
G04 #@! TA.AperFunction,Conductor*
%ADD29C,0.200000*%
G04 #@! TD*
G04 APERTURE END LIST*
D10*
X143040000Y-66500000D03*
X140500000Y-66500000D03*
X137960000Y-66500000D03*
D11*
X126614500Y-67000000D03*
X121614500Y-67000000D03*
D12*
X82000000Y-83000000D03*
X82000000Y-79500000D03*
X82000000Y-76000000D03*
X82000000Y-72500000D03*
D13*
X82000000Y-69000000D03*
D14*
X154000000Y-85500000D03*
D10*
X153580000Y-66500000D03*
X151040000Y-66500000D03*
X148500000Y-66500000D03*
D15*
X145500000Y-71250000D03*
D11*
X145500000Y-81410000D03*
D16*
X87750000Y-86400000D03*
D11*
X132500000Y-78000000D03*
X127500000Y-78000000D03*
X106520000Y-84000000D03*
X104020000Y-84000000D03*
X121200000Y-72500000D03*
X116200000Y-72500000D03*
X107540000Y-70500000D03*
X102540000Y-70500000D03*
X121000000Y-78000000D03*
X116000000Y-78000000D03*
D17*
X130730000Y-67920000D03*
D18*
X132000000Y-65850000D03*
X133270000Y-67920000D03*
D19*
X101000000Y-76300000D03*
X108620000Y-76300000D03*
D20*
X88000000Y-65500000D03*
X93000000Y-65500000D03*
X98000000Y-65500000D03*
D14*
X151000000Y-85500000D03*
D19*
X111500000Y-83000000D03*
X111500000Y-75380000D03*
X124000000Y-72380000D03*
X124000000Y-80000000D03*
D21*
X152500000Y-79500000D03*
D12*
X152500000Y-76000000D03*
X152500000Y-72500000D03*
D10*
X121040000Y-85893700D03*
X118500000Y-85893700D03*
X115960000Y-85893700D03*
D11*
X111500000Y-73000000D03*
X111500000Y-68000000D03*
D22*
X136850000Y-81660000D03*
D23*
X136850000Y-71500000D03*
D24*
X144600000Y-86000000D03*
X136400000Y-86000000D03*
D25*
X142500000Y-86000000D03*
D26*
X140500000Y-86000000D03*
X138500000Y-86000000D03*
D27*
X90500000Y-73500000D03*
X90500000Y-77500000D03*
X90500000Y-81500000D03*
X95500000Y-73500000D03*
X95500000Y-77500000D03*
X95500000Y-81500000D03*
D16*
X93000000Y-86400000D03*
D10*
X132540000Y-85893700D03*
X130000000Y-85893700D03*
X127460000Y-85893700D03*
D17*
X114959000Y-67920000D03*
D18*
X116229000Y-65850000D03*
X117499000Y-67920000D03*
D28*
X140500000Y-71500000D03*
D23*
X140500000Y-81660000D03*
D29*
X115681000Y-64629400D02*
X141169000Y-64629400D01*
X141169000Y-64629400D02*
X143040000Y-66500000D01*
X111500000Y-75380000D02*
X113722000Y-73157700D01*
X113722000Y-73157700D02*
X113722000Y-66588400D01*
X113722000Y-66588400D02*
X115681000Y-64629400D01*
X133331000Y-67580800D02*
X139419000Y-67580800D01*
X133270000Y-67520000D02*
X133331000Y-67580800D01*
X139419000Y-67580800D02*
X140500000Y-66500000D01*
X144289000Y-70038900D02*
X145500000Y-71250000D01*
X128927000Y-86966500D02*
X122113000Y-86966500D01*
X121000000Y-85853700D02*
X121040000Y-85893700D01*
X130000000Y-85893700D02*
X128927000Y-86966500D01*
X117471000Y-86922600D02*
X118500000Y-85893700D01*
X134896000Y-70038900D02*
X144289000Y-70038900D01*
X121000000Y-78000000D02*
X121000000Y-85853700D01*
X127065000Y-67000000D02*
X126614000Y-67000000D01*
X132500000Y-78000000D02*
X132500000Y-72434800D01*
X109443000Y-86922600D02*
X117471000Y-86922600D01*
X122113000Y-86966500D02*
X121040000Y-85893700D01*
X132540000Y-85893700D02*
X132500000Y-85853700D01*
X132500000Y-85853700D02*
X132500000Y-78000000D01*
X132500000Y-72434800D02*
X134896000Y-70038900D01*
X106520000Y-84000000D02*
X109443000Y-86922600D01*
X132500000Y-72434800D02*
X127065000Y-67000000D01*
X82000000Y-76000000D02*
X82000000Y-72500000D01*
X94500000Y-69000000D02*
X98000000Y-65500000D01*
X82000000Y-69000000D02*
X94500000Y-69000000D01*
X140500000Y-83846700D02*
X140500000Y-86000000D01*
X153580000Y-66500000D02*
X144400000Y-75680200D01*
X144400000Y-79946900D02*
X140500000Y-83846700D01*
X144400000Y-75680200D02*
X144400000Y-79946900D01*
X149590000Y-85500000D02*
X151000000Y-85500000D01*
X145500000Y-81410000D02*
X149590000Y-85500000D01*
X126874000Y-77374300D02*
X127500000Y-78000000D01*
X127500000Y-78000000D02*
X127500000Y-85853700D01*
X125479800Y-66576100D02*
X125479800Y-73611500D01*
X126874000Y-75005700D02*
X118706000Y-75005700D01*
X126874000Y-75005700D02*
X126874000Y-77374300D01*
X129867900Y-65856200D02*
X126199700Y-65856200D01*
X125479800Y-73611500D02*
X126874000Y-75005700D01*
X130730000Y-66718300D02*
X129867900Y-65856200D01*
X126199700Y-65856200D02*
X125479800Y-66576100D01*
X118706000Y-75005700D02*
X116200000Y-72500000D01*
X130730000Y-67520000D02*
X130730000Y-66718300D01*
X127500000Y-85853700D02*
X127460000Y-85893700D01*
X101740000Y-76300000D02*
X107540000Y-70500000D01*
X101000000Y-76300000D02*
X101740000Y-76300000D01*
X93500000Y-70500000D02*
X90500000Y-73500000D01*
X102540000Y-70500000D02*
X93500000Y-70500000D01*
X114959000Y-76959000D02*
X116000000Y-78000000D01*
X114959000Y-67520000D02*
X114959000Y-76959000D01*
X115960000Y-78040000D02*
X115960000Y-85893700D01*
X116000000Y-78000000D02*
X115960000Y-78040000D01*
X110437000Y-74062700D02*
X110437000Y-81937300D01*
X111500000Y-73000000D02*
X110437000Y-74062700D01*
X110437000Y-81937300D02*
X111500000Y-83000000D01*
X155308000Y-78807900D02*
X155308000Y-84192100D01*
X152500000Y-76000000D02*
X155308000Y-78807900D01*
X155308000Y-84192100D02*
X154000000Y-85500000D01*
X138500000Y-86000000D02*
X138500000Y-73150000D01*
X138500000Y-73150000D02*
X136850000Y-71500000D01*
G04 #@! TA.AperFunction,Conductor*
G36*
X112418797Y-74324590D02*
G01*
X112421965Y-74326843D01*
X112553031Y-74457892D01*
X112556458Y-74466165D01*
X112555812Y-74469999D01*
X112173523Y-75572628D01*
X112167576Y-75579322D01*
X112159134Y-75580010D01*
X111502982Y-75384896D01*
X111496030Y-75379254D01*
X111495105Y-75377024D01*
X111299989Y-74720863D01*
X111300916Y-74711957D01*
X111307367Y-74706476D01*
X112409860Y-74324063D01*
X112418797Y-74324590D01*
G37*
G04 #@! TD.AperFunction*
G04 #@! TA.AperFunction,Conductor*
G36*
X107283632Y-83771918D02*
G01*
X107289152Y-83778477D01*
X107717117Y-85050979D01*
X107716506Y-85059913D01*
X107714301Y-85062982D01*
X107583145Y-85194156D01*
X107574872Y-85197583D01*
X107571143Y-85196973D01*
X106298479Y-84769151D01*
X106291729Y-84763267D01*
X106290993Y-84754725D01*
X106514763Y-84002637D01*
X106520406Y-83995687D01*
X106522630Y-83994765D01*
X107274725Y-83770993D01*
X107283632Y-83771918D01*
G37*
G04 #@! TD.AperFunction*
G04 #@! TA.AperFunction,Conductor*
G36*
X132505565Y-77998161D02*
G01*
X133047444Y-78291527D01*
X133195603Y-78371739D01*
X133201247Y-78378691D01*
X133200511Y-78387233D01*
X132603226Y-79589653D01*
X132596477Y-79595538D01*
X132592748Y-79596148D01*
X132407252Y-79596148D01*
X132398979Y-79592721D01*
X132396774Y-79589653D01*
X131799488Y-78387233D01*
X131798876Y-78378299D01*
X131804395Y-78371739D01*
X132494431Y-77998162D01*
X132503337Y-77997238D01*
X132505565Y-77998161D01*
G37*
G04 #@! TD.AperFunction*
G04 #@! TA.AperFunction,Conductor*
G36*
X129997085Y-85888734D02*
G01*
X130004037Y-85894377D01*
X130004964Y-85896614D01*
X130205808Y-86571949D01*
X130204881Y-86580856D01*
X130198402Y-86586347D01*
X129061740Y-86977723D01*
X129052802Y-86977176D01*
X129049657Y-86974932D01*
X128918588Y-86843840D01*
X128915162Y-86835567D01*
X128915799Y-86831761D01*
X129307351Y-85695293D01*
X129313286Y-85688588D01*
X129321746Y-85687890D01*
X129997085Y-85888734D01*
G37*
G04 #@! TD.AperFunction*
G04 #@! TA.AperFunction,Conductor*
G36*
X130633410Y-66480288D02*
G01*
X130799065Y-66645943D01*
X130801601Y-66649739D01*
X130829999Y-66718299D01*
X130830000Y-66718300D01*
X131268187Y-67012080D01*
X131273151Y-67019533D01*
X131271390Y-67028313D01*
X131269953Y-67030064D01*
X130738281Y-67562703D01*
X130730011Y-67566137D01*
X130721734Y-67562718D01*
X130721719Y-67562703D01*
X130190046Y-67030064D01*
X130186627Y-67021787D01*
X130190061Y-67013517D01*
X130191807Y-67012083D01*
X130630000Y-66718300D01*
X130531357Y-66647589D01*
X130494920Y-66621469D01*
X130490193Y-66613864D01*
X130492228Y-66605143D01*
X130493458Y-66603693D01*
X130616864Y-66480288D01*
X130625137Y-66476861D01*
X130633410Y-66480288D01*
G37*
G04 #@! TD.AperFunction*
G04 #@! TA.AperFunction,Conductor*
G36*
X97997103Y-65495017D02*
G01*
X98004055Y-65500661D01*
X98004982Y-65502897D01*
X98207258Y-66183030D01*
X98206331Y-66191936D01*
X98199848Y-66197429D01*
X97054785Y-66591170D01*
X97045847Y-66590620D01*
X97042707Y-66588379D01*
X96911620Y-66457292D01*
X96908193Y-66449019D01*
X96908829Y-66445214D01*
X97302571Y-65300149D01*
X97308501Y-65293442D01*
X97316967Y-65292741D01*
X97997103Y-65495017D01*
G37*
G04 #@! TD.AperFunction*
G04 #@! TA.AperFunction,Conductor*
G36*
X137917615Y-71247202D02*
G01*
X137922705Y-71253900D01*
X138401312Y-72905174D01*
X138400324Y-72914074D01*
X138398348Y-72916704D01*
X138266704Y-73048348D01*
X138258431Y-73051775D01*
X138255174Y-73051312D01*
X136603900Y-72572705D01*
X136596908Y-72567111D01*
X136595771Y-72558776D01*
X136845232Y-71503924D01*
X136850471Y-71496663D01*
X136853922Y-71495233D01*
X137908776Y-71245771D01*
X137917615Y-71247202D01*
G37*
G04 #@! TD.AperFunction*
G04 #@! TA.AperFunction,Conductor*
G36*
X115965651Y-77998043D02*
G01*
X116694982Y-78371709D01*
X116700782Y-78378531D01*
X116700060Y-78387457D01*
X116699987Y-78387597D01*
X116063296Y-79589923D01*
X116056396Y-79595631D01*
X116052956Y-79596148D01*
X115867469Y-79596148D01*
X115859196Y-79592721D01*
X115856856Y-79589372D01*
X115298976Y-78386846D01*
X115298603Y-78377902D01*
X115303764Y-78371778D01*
X115954494Y-77998307D01*
X115963373Y-77997162D01*
X115965651Y-77998043D01*
G37*
G04 #@! TD.AperFunction*
G04 #@! TA.AperFunction,Conductor*
G36*
X86985814Y-64505522D02*
G01*
X86996802Y-64508748D01*
X87055581Y-64546520D01*
X87084608Y-64610075D01*
X87074841Y-64678852D01*
X87067548Y-64694967D01*
X87054896Y-64716726D01*
X86952290Y-64857952D01*
X86933490Y-64894849D01*
X86878133Y-65003492D01*
X86864744Y-65029768D01*
X86864736Y-65029792D01*
X86805164Y-65213138D01*
X86805164Y-65213142D01*
X86799732Y-65247440D01*
X86799327Y-65250000D01*
X87491277Y-65250000D01*
X87558316Y-65269685D01*
X87604071Y-65322489D01*
X87614015Y-65391647D01*
X87611052Y-65406088D01*
X87600000Y-65447339D01*
X87600000Y-65552661D01*
X87604393Y-65569057D01*
X87611052Y-65593907D01*
X87609389Y-65663757D01*
X87570226Y-65721619D01*
X87505998Y-65749123D01*
X87491277Y-65750000D01*
X86799327Y-65750000D01*
X86803637Y-65777213D01*
X86803638Y-65777221D01*
X86805164Y-65786861D01*
X86864736Y-65970206D01*
X86864744Y-65970230D01*
X86864745Y-65970233D01*
X86864746Y-65970234D01*
X86864747Y-65970237D01*
X86952288Y-66142043D01*
X86952290Y-66142046D01*
X87008697Y-66219684D01*
X87065616Y-66298027D01*
X87065620Y-66298032D01*
X87065625Y-66298038D01*
X87201960Y-66434373D01*
X87201964Y-66434376D01*
X87201967Y-66434379D01*
X87201972Y-66434383D01*
X87357956Y-66547711D01*
X87529762Y-66635252D01*
X87529765Y-66635253D01*
X87529767Y-66635253D01*
X87529768Y-66635254D01*
X87529792Y-66635262D01*
X87566491Y-66647186D01*
X87713142Y-66694835D01*
X87750000Y-66700673D01*
X87750000Y-66700672D01*
X87750000Y-66008722D01*
X87769685Y-65941683D01*
X87822489Y-65895928D01*
X87891647Y-65885984D01*
X87906082Y-65888945D01*
X87947339Y-65900000D01*
X88052659Y-65900000D01*
X88052661Y-65900000D01*
X88093907Y-65888948D01*
X88163755Y-65890609D01*
X88221618Y-65929771D01*
X88249123Y-65993999D01*
X88250000Y-66008722D01*
X88250000Y-66700671D01*
X88250000Y-66700672D01*
X88277215Y-66696361D01*
X88277221Y-66696361D01*
X88286855Y-66694835D01*
X88286858Y-66694835D01*
X88470234Y-66635253D01*
X88470237Y-66635252D01*
X88642043Y-66547711D01*
X88798027Y-66434383D01*
X88798032Y-66434379D01*
X88934379Y-66298032D01*
X88934383Y-66298027D01*
X89047711Y-66142043D01*
X89135252Y-65970237D01*
X89135253Y-65970234D01*
X89194835Y-65786858D01*
X89194835Y-65786855D01*
X89200673Y-65750000D01*
X88508723Y-65750000D01*
X88441684Y-65730315D01*
X88395929Y-65677511D01*
X88385985Y-65608353D01*
X88388948Y-65593907D01*
X88395606Y-65569058D01*
X88400000Y-65552661D01*
X88400000Y-65447339D01*
X88388948Y-65406092D01*
X88390611Y-65336243D01*
X88429774Y-65278381D01*
X88494002Y-65250877D01*
X88508723Y-65250000D01*
X89200673Y-65250000D01*
X89200673Y-65249999D01*
X89196362Y-65222782D01*
X89196361Y-65222778D01*
X89194834Y-65213137D01*
X89135262Y-65029792D01*
X89135254Y-65029768D01*
X89135253Y-65029767D01*
X89135253Y-65029765D01*
X89135252Y-65029762D01*
X89047711Y-64857956D01*
X88989425Y-64777731D01*
X88945210Y-64716873D01*
X88932383Y-64694722D01*
X88925033Y-64678330D01*
X88915570Y-64609107D01*
X88945035Y-64545754D01*
X89003664Y-64508507D01*
X89014377Y-64505402D01*
X89048896Y-64500500D01*
X91950225Y-64500500D01*
X91985154Y-64505521D01*
X91987289Y-64506147D01*
X91996154Y-64508751D01*
X92054933Y-64546522D01*
X92083961Y-64610076D01*
X92074209Y-64678820D01*
X92066883Y-64695021D01*
X92054217Y-64716814D01*
X92014524Y-64771447D01*
X92014523Y-64771446D01*
X91951863Y-64857691D01*
X91951859Y-64857697D01*
X91951857Y-64857699D01*
X91951855Y-64857704D01*
X91864287Y-65029563D01*
X91804674Y-65213029D01*
X91782364Y-65353899D01*
X91782364Y-65353900D01*
X91774500Y-65403551D01*
X91774500Y-65596450D01*
X91776836Y-65611205D01*
X91804675Y-65786970D01*
X91804680Y-65786994D01*
X91804830Y-65787446D01*
X91864286Y-65970433D01*
X91941411Y-66121797D01*
X91951859Y-66142302D01*
X92065241Y-66298359D01*
X92201641Y-66434759D01*
X92357698Y-66548141D01*
X92529571Y-66635715D01*
X92713028Y-66695324D01*
X92903551Y-66725500D01*
X92903552Y-66725500D01*
X93096448Y-66725500D01*
X93096449Y-66725500D01*
X93286972Y-66695324D01*
X93470429Y-66635715D01*
X93642302Y-66548141D01*
X93798359Y-66434759D01*
X93934759Y-66298359D01*
X94048141Y-66142302D01*
X94135715Y-65970429D01*
X94195324Y-65786972D01*
X94225500Y-65596449D01*
X94225500Y-65403551D01*
X94195324Y-65213028D01*
X94135715Y-65029571D01*
X94048141Y-64857698D01*
X93945895Y-64716968D01*
X93933040Y-64694754D01*
X93925657Y-64678261D01*
X93916233Y-64609030D01*
X93945734Y-64545694D01*
X94004349Y-64508490D01*
X94015055Y-64505390D01*
X94049536Y-64500500D01*
X96950225Y-64500500D01*
X96985154Y-64505521D01*
X96987289Y-64506147D01*
X96996154Y-64508751D01*
X97054933Y-64546522D01*
X97083961Y-64610076D01*
X97074209Y-64678820D01*
X97066883Y-64695021D01*
X97054217Y-64716814D01*
X97014524Y-64771447D01*
X97014523Y-64771446D01*
X96951863Y-64857691D01*
X96951859Y-64857697D01*
X96951857Y-64857699D01*
X96951855Y-64857704D01*
X96864285Y-65029567D01*
X96841887Y-65098500D01*
X96834289Y-65116774D01*
X96824543Y-65135772D01*
X96472021Y-66160961D01*
X96442441Y-66208320D01*
X94300191Y-68350573D01*
X94271940Y-68371722D01*
X94248852Y-68384330D01*
X94189422Y-68399500D01*
X84445398Y-68399500D01*
X84378359Y-68379815D01*
X84362901Y-68368075D01*
X84250589Y-68267990D01*
X83860001Y-67919922D01*
X83632706Y-67717371D01*
X83609665Y-67689893D01*
X83542723Y-67581364D01*
X83542721Y-67581362D01*
X83542713Y-67581348D01*
X83542710Y-67581344D01*
X83542707Y-67581341D01*
X83542705Y-67581338D01*
X83418660Y-67457293D01*
X83418657Y-67457291D01*
X83418655Y-67457289D01*
X83418651Y-67457286D01*
X83372076Y-67428558D01*
X83269343Y-67365190D01*
X83269337Y-67365187D01*
X83269335Y-67365186D01*
X83269332Y-67365185D01*
X83269330Y-67365184D01*
X83269327Y-67365182D01*
X83128102Y-67318386D01*
X83128101Y-67318386D01*
X83111260Y-67312805D01*
X83108436Y-67311638D01*
X83102796Y-67309999D01*
X83000024Y-67299500D01*
X83000015Y-67299500D01*
X83000008Y-67299500D01*
X80999992Y-67299500D01*
X80999984Y-67299500D01*
X80999974Y-67299500D01*
X80895495Y-67310174D01*
X80889915Y-67312415D01*
X80730667Y-67365184D01*
X80730655Y-67365190D01*
X80581354Y-67457282D01*
X80581341Y-67457291D01*
X80581338Y-67457293D01*
X80457293Y-67581338D01*
X80457291Y-67581341D01*
X80457282Y-67581354D01*
X80365190Y-67730655D01*
X80365184Y-67730667D01*
X80312415Y-67889915D01*
X80310174Y-67895495D01*
X80299500Y-67999974D01*
X80299500Y-70000024D01*
X80310174Y-70104502D01*
X80312415Y-70110083D01*
X80365184Y-70269331D01*
X80365190Y-70269343D01*
X80380820Y-70294682D01*
X80457286Y-70418651D01*
X80457288Y-70418654D01*
X80457289Y-70418655D01*
X80457293Y-70418660D01*
X80581338Y-70542705D01*
X80581341Y-70542707D01*
X80581344Y-70542710D01*
X80581348Y-70542713D01*
X80730662Y-70634812D01*
X80730664Y-70634813D01*
X80730666Y-70634814D01*
X80897203Y-70689999D01*
X80999992Y-70700500D01*
X80999997Y-70700500D01*
X81259535Y-70700500D01*
X81294462Y-70705521D01*
X81303094Y-70708055D01*
X81361875Y-70745825D01*
X81390904Y-70809379D01*
X81380965Y-70878538D01*
X81340698Y-70927609D01*
X81336545Y-70930604D01*
X81311466Y-70944590D01*
X81246288Y-70971586D01*
X81246279Y-70971591D01*
X81246256Y-70971603D01*
X81053237Y-71083044D01*
X81053212Y-71083061D01*
X81053210Y-71083062D01*
X80876395Y-71218736D01*
X80876379Y-71218749D01*
X80876375Y-71218753D01*
X80876361Y-71218765D01*
X80718765Y-71376361D01*
X80718758Y-71376369D01*
X80718749Y-71376379D01*
X80718736Y-71376395D01*
X80583062Y-71553210D01*
X80583061Y-71553212D01*
X80583044Y-71553237D01*
X80471595Y-71746272D01*
X80386297Y-71952199D01*
X80386288Y-71952222D01*
X80341513Y-72119331D01*
X80332549Y-72152786D01*
X80328597Y-72167534D01*
X80328594Y-72167544D01*
X80328593Y-72167550D01*
X80328592Y-72167556D01*
X80299503Y-72388516D01*
X80299500Y-72388541D01*
X80299500Y-72611457D01*
X80299503Y-72611482D01*
X80328593Y-72832447D01*
X80328597Y-72832467D01*
X80386288Y-73047776D01*
X80386290Y-73047780D01*
X80386293Y-73047790D01*
X80393261Y-73064612D01*
X80471594Y-73253726D01*
X80564646Y-73414894D01*
X80568469Y-73422045D01*
X80569342Y-73423815D01*
X81016316Y-74187354D01*
X81033197Y-74255154D01*
X81016316Y-74312644D01*
X80569333Y-75076196D01*
X80564769Y-75084751D01*
X80562760Y-75088370D01*
X80471592Y-75246278D01*
X80387860Y-75448426D01*
X80386293Y-75452209D01*
X80386290Y-75452219D01*
X80335554Y-75641574D01*
X80334457Y-75645667D01*
X80334456Y-75645669D01*
X80328601Y-75667517D01*
X80328593Y-75667550D01*
X80328592Y-75667556D01*
X80299503Y-75888516D01*
X80299500Y-75888541D01*
X80299500Y-76111457D01*
X80299503Y-76111482D01*
X80328593Y-76332447D01*
X80328597Y-76332467D01*
X80371490Y-76492546D01*
X80386288Y-76547776D01*
X80386290Y-76547780D01*
X80386293Y-76547790D01*
X80426796Y-76645573D01*
X80462397Y-76731521D01*
X80471593Y-76753722D01*
X80471600Y-76753736D01*
X80581212Y-76943589D01*
X80582233Y-76945486D01*
X80583067Y-76946873D01*
X80584571Y-76948754D01*
X80686869Y-77082073D01*
X80718751Y-77123622D01*
X80718757Y-77123629D01*
X80876370Y-77281242D01*
X80876377Y-77281248D01*
X80911089Y-77307883D01*
X81053226Y-77416948D01*
X81246274Y-77528405D01*
X81246277Y-77528406D01*
X81246282Y-77528409D01*
X81310858Y-77555157D01*
X81310859Y-77555157D01*
X81440568Y-77608885D01*
X81440569Y-77608885D01*
X81447138Y-77611605D01*
X81452219Y-77613710D01*
X81452220Y-77613710D01*
X81452222Y-77613711D01*
X81459923Y-77615774D01*
X81497603Y-77625870D01*
X81530046Y-77639763D01*
X81539709Y-77645653D01*
X81586704Y-77697357D01*
X81598285Y-77766260D01*
X81570776Y-77830487D01*
X81570754Y-77830514D01*
X81570364Y-77830986D01*
X81526296Y-77864791D01*
X81524247Y-77865727D01*
X81504819Y-77872712D01*
X81452392Y-77886760D01*
X81452385Y-77886762D01*
X81452379Y-77886764D01*
X81452372Y-77886767D01*
X81246496Y-77972045D01*
X81246493Y-77972046D01*
X81246471Y-77972058D01*
X81053508Y-78083463D01*
X80987595Y-78134040D01*
X80987595Y-78134043D01*
X81670645Y-78817092D01*
X81704130Y-78878415D01*
X81699146Y-78948106D01*
X81657274Y-79004040D01*
X81644967Y-79012159D01*
X81631592Y-79019881D01*
X81631589Y-79019883D01*
X81519883Y-79131589D01*
X81519881Y-79131592D01*
X81512159Y-79144967D01*
X81461590Y-79193181D01*
X81392983Y-79206402D01*
X81328119Y-79180433D01*
X81317092Y-79170645D01*
X80634043Y-78487595D01*
X80634040Y-78487595D01*
X80583463Y-78553508D01*
X80472058Y-78746471D01*
X80472054Y-78746479D01*
X80472045Y-78746497D01*
X80399162Y-78922449D01*
X80386764Y-78952379D01*
X80386761Y-78952387D01*
X80329091Y-79167616D01*
X80329086Y-79167641D01*
X80329083Y-79167654D01*
X80300000Y-79388574D01*
X80300000Y-79611424D01*
X80329083Y-79832344D01*
X80329086Y-79832357D01*
X80329091Y-79832382D01*
X80372921Y-79995959D01*
X80386763Y-80047618D01*
X80425660Y-80141521D01*
X80472047Y-80253508D01*
X80472052Y-80253517D01*
X80472054Y-80253520D01*
X80564349Y-80413383D01*
X80583466Y-80446494D01*
X80583478Y-80446511D01*
X80634039Y-80512402D01*
X80634040Y-80512403D01*
X80634043Y-80512403D01*
X81317094Y-79829351D01*
X81378415Y-79795868D01*
X81448106Y-79800852D01*
X81504040Y-79842723D01*
X81512157Y-79855031D01*
X81519881Y-79868408D01*
X81631592Y-79980119D01*
X81644964Y-79987839D01*
X81693179Y-80038407D01*
X81706401Y-80107014D01*
X81680433Y-80171879D01*
X81670644Y-80182907D01*
X80987595Y-80865954D01*
X80987595Y-80865957D01*
X81053505Y-80916532D01*
X81053507Y-80916533D01*
X81246485Y-81027949D01*
X81246497Y-81027954D01*
X81452381Y-81113236D01*
X81498565Y-81125611D01*
X81531005Y-81139502D01*
X81540664Y-81145389D01*
X81587664Y-81197088D01*
X81599251Y-81265990D01*
X81571748Y-81330219D01*
X81571701Y-81330276D01*
X81571310Y-81330749D01*
X81527260Y-81364533D01*
X81525211Y-81365469D01*
X81505780Y-81372455D01*
X81452396Y-81386758D01*
X81452383Y-81386762D01*
X81246490Y-81472047D01*
X81246471Y-81472058D01*
X81053508Y-81583463D01*
X80987595Y-81634040D01*
X80987595Y-81634043D01*
X81670645Y-82317092D01*
X81704130Y-82378415D01*
X81699146Y-82448106D01*
X81657274Y-82504040D01*
X81644968Y-82512157D01*
X81631595Y-82519879D01*
X81631592Y-82519881D01*
X81631589Y-82519883D01*
X81519883Y-82631589D01*
X81519881Y-82631592D01*
X81512159Y-82644967D01*
X81461590Y-82693181D01*
X81392983Y-82706402D01*
X81328119Y-82680433D01*
X81317092Y-82670645D01*
X80634043Y-81987595D01*
X80634040Y-81987595D01*
X80583463Y-82053508D01*
X80472058Y-82246471D01*
X80472047Y-82246490D01*
X80420557Y-82370796D01*
X80387607Y-82450345D01*
X80386764Y-82452379D01*
X80386761Y-82452387D01*
X80329091Y-82667616D01*
X80329086Y-82667641D01*
X80329083Y-82667654D01*
X80300000Y-82888574D01*
X80300000Y-83111424D01*
X80329083Y-83332344D01*
X80329086Y-83332357D01*
X80329091Y-83332382D01*
X80384295Y-83538407D01*
X80386763Y-83547618D01*
X80419752Y-83627259D01*
X80472047Y-83753508D01*
X80472050Y-83753513D01*
X80472054Y-83753520D01*
X80583463Y-83946490D01*
X80583466Y-83946494D01*
X80583478Y-83946511D01*
X80634039Y-84012402D01*
X80634040Y-84012403D01*
X80634043Y-84012403D01*
X81317094Y-83329351D01*
X81378415Y-83295868D01*
X81448106Y-83300852D01*
X81504040Y-83342723D01*
X81512157Y-83355031D01*
X81519881Y-83368408D01*
X81631592Y-83480119D01*
X81644964Y-83487839D01*
X81693179Y-83538407D01*
X81706401Y-83607014D01*
X81680433Y-83671879D01*
X81670644Y-83682907D01*
X80987595Y-84365954D01*
X80987595Y-84365957D01*
X81053505Y-84416532D01*
X81053507Y-84416533D01*
X81246485Y-84527949D01*
X81246497Y-84527954D01*
X81452381Y-84613236D01*
X81598557Y-84652403D01*
X81667616Y-84670907D01*
X81667620Y-84670907D01*
X81667632Y-84670911D01*
X81667645Y-84670914D01*
X81888575Y-84700000D01*
X82111418Y-84700000D01*
X82111425Y-84700000D01*
X82332354Y-84670914D01*
X82332367Y-84670911D01*
X82547618Y-84613236D01*
X82753502Y-84527954D01*
X82753514Y-84527949D01*
X82946498Y-84416530D01*
X83012403Y-84365957D01*
X83012404Y-84365956D01*
X83012403Y-84365955D01*
X83012404Y-84365955D01*
X82329354Y-83682907D01*
X82295869Y-83621584D01*
X82300853Y-83551893D01*
X82342724Y-83495959D01*
X82355022Y-83487846D01*
X82368408Y-83480119D01*
X82480119Y-83368408D01*
X82487839Y-83355035D01*
X82538405Y-83306821D01*
X82607012Y-83293597D01*
X82671877Y-83319565D01*
X82682907Y-83329355D01*
X83365956Y-84012404D01*
X83365957Y-84012403D01*
X83415792Y-83947458D01*
X83416427Y-83946648D01*
X83416535Y-83946491D01*
X83483319Y-83830817D01*
X83483319Y-83830816D01*
X83485613Y-83826843D01*
X83491480Y-83816681D01*
X83491480Y-83816679D01*
X83527949Y-83753513D01*
X83527954Y-83753502D01*
X83613236Y-83547618D01*
X83670911Y-83332367D01*
X83670914Y-83332354D01*
X83700000Y-83111424D01*
X83700000Y-82888575D01*
X83670914Y-82667645D01*
X83670911Y-82667632D01*
X83669588Y-82662696D01*
X83639330Y-82549768D01*
X83613236Y-82452381D01*
X83527954Y-82246497D01*
X83527949Y-82246485D01*
X83416533Y-82053507D01*
X83416532Y-82053505D01*
X83365957Y-81987595D01*
X83365956Y-81987595D01*
X83365955Y-81987595D01*
X83365954Y-81987595D01*
X82682906Y-82670643D01*
X82621583Y-82704128D01*
X82551891Y-82699144D01*
X82495958Y-82657272D01*
X82487838Y-82644961D01*
X82480122Y-82631598D01*
X82480119Y-82631592D01*
X82368408Y-82519881D01*
X82359183Y-82514555D01*
X82355032Y-82512158D01*
X82306817Y-82461590D01*
X82293596Y-82392983D01*
X82319565Y-82328118D01*
X82329343Y-82317101D01*
X83012403Y-81634043D01*
X83012403Y-81634040D01*
X83012402Y-81634039D01*
X82946511Y-81583478D01*
X82946494Y-81583466D01*
X82946487Y-81583462D01*
X82753520Y-81472054D01*
X82753508Y-81472047D01*
X82581339Y-81400731D01*
X82547618Y-81386763D01*
X82547616Y-81386762D01*
X82547615Y-81386762D01*
X82547613Y-81386761D01*
X82524594Y-81380594D01*
X82501431Y-81374388D01*
X82468986Y-81360493D01*
X82459326Y-81354605D01*
X82412330Y-81302902D01*
X82400748Y-81233999D01*
X82428254Y-81169774D01*
X82428690Y-81169247D01*
X82472745Y-81135462D01*
X82474807Y-81134520D01*
X82494207Y-81127547D01*
X82547618Y-81113236D01*
X82753502Y-81027954D01*
X82753514Y-81027949D01*
X82946498Y-80916530D01*
X83012403Y-80865957D01*
X83012404Y-80865956D01*
X83012403Y-80865955D01*
X83012404Y-80865955D01*
X82329354Y-80182907D01*
X82295869Y-80121584D01*
X82300853Y-80051893D01*
X82342724Y-79995959D01*
X82355022Y-79987846D01*
X82368408Y-79980119D01*
X82480119Y-79868408D01*
X82487839Y-79855035D01*
X82538405Y-79806821D01*
X82607012Y-79793597D01*
X82671877Y-79819565D01*
X82682907Y-79829355D01*
X83365955Y-80512403D01*
X83365956Y-80512404D01*
X83365957Y-80512403D01*
X83416530Y-80446498D01*
X83527949Y-80253514D01*
X83527954Y-80253502D01*
X83613236Y-80047618D01*
X83670911Y-79832367D01*
X83670914Y-79832354D01*
X83700000Y-79611424D01*
X83700000Y-79388575D01*
X83670914Y-79167645D01*
X83670911Y-79167632D01*
X83664836Y-79144961D01*
X83641818Y-79059054D01*
X83613236Y-78952381D01*
X83527954Y-78746497D01*
X83527949Y-78746485D01*
X83423304Y-78565235D01*
X83416532Y-78553505D01*
X83365957Y-78487595D01*
X83365956Y-78487595D01*
X83365955Y-78487595D01*
X83365954Y-78487595D01*
X82682906Y-79170643D01*
X82621583Y-79204128D01*
X82551891Y-79199144D01*
X82495958Y-79157272D01*
X82487838Y-79144961D01*
X82480122Y-79131598D01*
X82480119Y-79131592D01*
X82368408Y-79019881D01*
X82361586Y-79015942D01*
X82355032Y-79012158D01*
X82306817Y-78961590D01*
X82293596Y-78892983D01*
X82319565Y-78828118D01*
X82329343Y-78817101D01*
X83012403Y-78134043D01*
X83012403Y-78134040D01*
X83012402Y-78134039D01*
X82946511Y-78083478D01*
X82946494Y-78083466D01*
X82946487Y-78083462D01*
X82753520Y-77972054D01*
X82753516Y-77972052D01*
X82753505Y-77972046D01*
X82753502Y-77972045D01*
X82717883Y-77957291D01*
X82547620Y-77886764D01*
X82547618Y-77886763D01*
X82547617Y-77886763D01*
X82528214Y-77881564D01*
X82502395Y-77874646D01*
X82469955Y-77860754D01*
X82460292Y-77854864D01*
X82413297Y-77803164D01*
X82401712Y-77734261D01*
X82429197Y-77670060D01*
X82429590Y-77669583D01*
X82473692Y-77635728D01*
X82475749Y-77634788D01*
X82495169Y-77627806D01*
X82535870Y-77616901D01*
X82547771Y-77613713D01*
X82547773Y-77613711D01*
X82547781Y-77613710D01*
X82753726Y-77528405D01*
X82946774Y-77416948D01*
X83123624Y-77281247D01*
X83281247Y-77123624D01*
X83281249Y-77123622D01*
X83281251Y-77123620D01*
X83367094Y-77011745D01*
X83416948Y-76946774D01*
X83528405Y-76753726D01*
X83613710Y-76547781D01*
X83671404Y-76332463D01*
X83700500Y-76111457D01*
X83700500Y-75888543D01*
X83671404Y-75667537D01*
X83613710Y-75452219D01*
X83612131Y-75448407D01*
X83590630Y-75396499D01*
X83572681Y-75353167D01*
X83566985Y-75339414D01*
X83555417Y-75311487D01*
X83528409Y-75246282D01*
X83528404Y-75246273D01*
X83435339Y-75085080D01*
X83431525Y-75077944D01*
X83430654Y-75076177D01*
X82983681Y-74312643D01*
X82966800Y-74244843D01*
X82983681Y-74187354D01*
X83430660Y-73423808D01*
X83435222Y-73415255D01*
X83437190Y-73411711D01*
X83528405Y-73253726D01*
X83613710Y-73047781D01*
X83671404Y-72832463D01*
X83700500Y-72611457D01*
X83700500Y-72413389D01*
X89399500Y-72413389D01*
X89399500Y-72417749D01*
X89399500Y-74586610D01*
X89421822Y-74727550D01*
X89426598Y-74757701D01*
X89480127Y-74922445D01*
X89558768Y-75076788D01*
X89660586Y-75216928D01*
X89723102Y-75279444D01*
X89783073Y-75339415D01*
X89800251Y-75351895D01*
X89800255Y-75351900D01*
X89800256Y-75351899D01*
X89851600Y-75389204D01*
X89876911Y-75413804D01*
X89885385Y-75424794D01*
X89910732Y-75489904D01*
X89896859Y-75558373D01*
X89893599Y-75564552D01*
X89856814Y-75607007D01*
X89783069Y-75660587D01*
X89656094Y-75787562D01*
X89651961Y-75794943D01*
X89619833Y-75839163D01*
X89558768Y-75923210D01*
X89480129Y-76077549D01*
X89480128Y-76077551D01*
X89480128Y-76077552D01*
X89469109Y-76111466D01*
X89426596Y-76242305D01*
X89399500Y-76413383D01*
X89399500Y-78586614D01*
X89424819Y-78746471D01*
X89424821Y-78746485D01*
X89426598Y-78757701D01*
X89480127Y-78922445D01*
X89558768Y-79076788D01*
X89660586Y-79216928D01*
X89732597Y-79288939D01*
X89783072Y-79339414D01*
X89783571Y-79339823D01*
X89785094Y-79340884D01*
X89851598Y-79389203D01*
X89876909Y-79413801D01*
X89885384Y-79424792D01*
X89910732Y-79489902D01*
X89896859Y-79558373D01*
X89893599Y-79564552D01*
X89856814Y-79607007D01*
X89783069Y-79660587D01*
X89656093Y-79787563D01*
X89651961Y-79794942D01*
X89624771Y-79832366D01*
X89558772Y-79923205D01*
X89558768Y-79923211D01*
X89558766Y-79923213D01*
X89558764Y-79923218D01*
X89480129Y-80077549D01*
X89480128Y-80077551D01*
X89480128Y-80077552D01*
X89464501Y-80125646D01*
X89426596Y-80242305D01*
X89399500Y-80413383D01*
X89399500Y-80413389D01*
X89399500Y-82586611D01*
X89404031Y-82615218D01*
X89422528Y-82732009D01*
X89422528Y-82732011D01*
X89426596Y-82757693D01*
X89426597Y-82757697D01*
X89426598Y-82757701D01*
X89480127Y-82922445D01*
X89480128Y-82922447D01*
X89480129Y-82922449D01*
X89508607Y-82978340D01*
X89558768Y-83076788D01*
X89660586Y-83216928D01*
X89783072Y-83339414D01*
X89923212Y-83441232D01*
X90077555Y-83519873D01*
X90242299Y-83573402D01*
X90413389Y-83600500D01*
X90413390Y-83600500D01*
X90586610Y-83600500D01*
X90586611Y-83600500D01*
X90757701Y-83573402D01*
X90922445Y-83519873D01*
X91076788Y-83441232D01*
X91216928Y-83339414D01*
X91339414Y-83216928D01*
X91441232Y-83076788D01*
X91519873Y-82922445D01*
X91573402Y-82757701D01*
X91600500Y-82586611D01*
X91600500Y-80413389D01*
X91573402Y-80242299D01*
X91519873Y-80077555D01*
X91441232Y-79923212D01*
X91339414Y-79783072D01*
X91216928Y-79660586D01*
X91148397Y-79610795D01*
X91123091Y-79586202D01*
X91122731Y-79585735D01*
X91114615Y-79575210D01*
X91089265Y-79510103D01*
X91103138Y-79441626D01*
X91106404Y-79435437D01*
X91143185Y-79392990D01*
X91216365Y-79339823D01*
X91216924Y-79339417D01*
X91216924Y-79339416D01*
X91216928Y-79339414D01*
X91339414Y-79216928D01*
X91441232Y-79076788D01*
X91519873Y-78922445D01*
X91573402Y-78757701D01*
X91600500Y-78586611D01*
X91600500Y-76413389D01*
X91573402Y-76242299D01*
X91519873Y-76077555D01*
X91441232Y-75923212D01*
X91339414Y-75783072D01*
X91216928Y-75660586D01*
X91148397Y-75610795D01*
X91123091Y-75586202D01*
X91121068Y-75583579D01*
X91114615Y-75575210D01*
X91089265Y-75510103D01*
X91103138Y-75441626D01*
X91106404Y-75435437D01*
X91143185Y-75392990D01*
X91216928Y-75339414D01*
X91339414Y-75216928D01*
X91441232Y-75076788D01*
X91519873Y-74922445D01*
X91573402Y-74757701D01*
X91600500Y-74586611D01*
X91600500Y-73885199D01*
X91609840Y-73837986D01*
X91646769Y-73748301D01*
X92019413Y-72843307D01*
X92046387Y-72802846D01*
X92435851Y-72413384D01*
X94399500Y-72413384D01*
X94399500Y-74586610D01*
X94421822Y-74727550D01*
X94426598Y-74757701D01*
X94480127Y-74922445D01*
X94558768Y-75076788D01*
X94660586Y-75216928D01*
X94723102Y-75279444D01*
X94783073Y-75339415D01*
X94800251Y-75351895D01*
X94800255Y-75351900D01*
X94800256Y-75351899D01*
X94851600Y-75389204D01*
X94876911Y-75413804D01*
X94885385Y-75424794D01*
X94910732Y-75489904D01*
X94896859Y-75558373D01*
X94893599Y-75564552D01*
X94856814Y-75607007D01*
X94783069Y-75660587D01*
X94656094Y-75787562D01*
X94651961Y-75794943D01*
X94619833Y-75839163D01*
X94558768Y-75923210D01*
X94480129Y-76077549D01*
X94480128Y-76077551D01*
X94480128Y-76077552D01*
X94469109Y-76111466D01*
X94426596Y-76242305D01*
X94399500Y-76413383D01*
X94399500Y-78586614D01*
X94424819Y-78746471D01*
X94424821Y-78746485D01*
X94426598Y-78757701D01*
X94480127Y-78922445D01*
X94558768Y-79076788D01*
X94660586Y-79216928D01*
X94732597Y-79288939D01*
X94783072Y-79339414D01*
X94783571Y-79339823D01*
X94785094Y-79340884D01*
X94851598Y-79389203D01*
X94876909Y-79413801D01*
X94885384Y-79424792D01*
X94910732Y-79489902D01*
X94896859Y-79558373D01*
X94893599Y-79564552D01*
X94856814Y-79607007D01*
X94783069Y-79660587D01*
X94656093Y-79787563D01*
X94651961Y-79794942D01*
X94624771Y-79832366D01*
X94558772Y-79923205D01*
X94558768Y-79923211D01*
X94558766Y-79923213D01*
X94558764Y-79923218D01*
X94480129Y-80077549D01*
X94480128Y-80077551D01*
X94480128Y-80077552D01*
X94464501Y-80125646D01*
X94426596Y-80242305D01*
X94399500Y-80413383D01*
X94399500Y-80413389D01*
X94399500Y-82586611D01*
X94404031Y-82615218D01*
X94422528Y-82732009D01*
X94422528Y-82732011D01*
X94426596Y-82757693D01*
X94426597Y-82757697D01*
X94426598Y-82757701D01*
X94480127Y-82922445D01*
X94480128Y-82922447D01*
X94480129Y-82922449D01*
X94508607Y-82978340D01*
X94558768Y-83076788D01*
X94660586Y-83216928D01*
X94783072Y-83339414D01*
X94923212Y-83441232D01*
X95077555Y-83519873D01*
X95242299Y-83573402D01*
X95413389Y-83600500D01*
X95413390Y-83600500D01*
X95586610Y-83600500D01*
X95586611Y-83600500D01*
X95757701Y-83573402D01*
X95922445Y-83519873D01*
X96076788Y-83441232D01*
X96216928Y-83339414D01*
X96339414Y-83216928D01*
X96441232Y-83076788D01*
X96519873Y-82922445D01*
X96573402Y-82757701D01*
X96600500Y-82586611D01*
X96600500Y-80413389D01*
X96573402Y-80242299D01*
X96519873Y-80077555D01*
X96441232Y-79923212D01*
X96339414Y-79783072D01*
X96216928Y-79660586D01*
X96148397Y-79610795D01*
X96123091Y-79586202D01*
X96122731Y-79585735D01*
X96114615Y-79575210D01*
X96089265Y-79510103D01*
X96103138Y-79441626D01*
X96106404Y-79435437D01*
X96143185Y-79392990D01*
X96216365Y-79339823D01*
X96216924Y-79339417D01*
X96216924Y-79339416D01*
X96216928Y-79339414D01*
X96339414Y-79216928D01*
X96441232Y-79076788D01*
X96519873Y-78922445D01*
X96573402Y-78757701D01*
X96600500Y-78586611D01*
X96600500Y-76413389D01*
X96573402Y-76242299D01*
X96561447Y-76205507D01*
X99799500Y-76205507D01*
X99799500Y-76394491D01*
X99827849Y-76573477D01*
X99829059Y-76581118D01*
X99887454Y-76760836D01*
X99931044Y-76846385D01*
X99973240Y-76929199D01*
X100084310Y-77082073D01*
X100217927Y-77215690D01*
X100272181Y-77255108D01*
X100370796Y-77326757D01*
X100370797Y-77326757D01*
X100370801Y-77326760D01*
X100450347Y-77367290D01*
X100532722Y-77409263D01*
X100534320Y-77410198D01*
X100538055Y-77412008D01*
X100540022Y-77412985D01*
X100543777Y-77414044D01*
X100622182Y-77439520D01*
X100718881Y-77470940D01*
X100905514Y-77500500D01*
X100905519Y-77500500D01*
X101094485Y-77500500D01*
X101094486Y-77500500D01*
X101281118Y-77470940D01*
X101335026Y-77453424D01*
X101460832Y-77412547D01*
X101629199Y-77326760D01*
X101782073Y-77215690D01*
X101915690Y-77082073D01*
X102026760Y-76929199D01*
X102045948Y-76891538D01*
X102056430Y-76874516D01*
X102068869Y-76857556D01*
X102102686Y-76794145D01*
X102124415Y-76764818D01*
X102126084Y-76763149D01*
X102135083Y-76754993D01*
X102169798Y-76726507D01*
X102624186Y-76272119D01*
X102660340Y-76231871D01*
X102660347Y-76231858D01*
X102663003Y-76228245D01*
X102675247Y-76213985D01*
X106724387Y-72164845D01*
X106772543Y-72134995D01*
X107922627Y-71748291D01*
X107964833Y-71731963D01*
X107964837Y-71731960D01*
X107970045Y-71729362D01*
X107970383Y-71730040D01*
X107987858Y-71721907D01*
X108039219Y-71705220D01*
X108221610Y-71612287D01*
X108295268Y-71558772D01*
X108339823Y-71526402D01*
X108357958Y-71513225D01*
X108387213Y-71491971D01*
X108387215Y-71491968D01*
X108387219Y-71491966D01*
X108387221Y-71491963D01*
X108387275Y-71491924D01*
X108388032Y-71491152D01*
X108531148Y-71348036D01*
X108531926Y-71347274D01*
X108531969Y-71347213D01*
X108531971Y-71347213D01*
X108589923Y-71267448D01*
X108625297Y-71218759D01*
X108625302Y-71218751D01*
X108652287Y-71181610D01*
X108745220Y-70999219D01*
X108808477Y-70804534D01*
X108840500Y-70602352D01*
X108840500Y-70397648D01*
X108808477Y-70195466D01*
X108808476Y-70195462D01*
X108808476Y-70195461D01*
X108746723Y-70005406D01*
X108745660Y-70001639D01*
X108744652Y-69999610D01*
X108742866Y-69995923D01*
X108741933Y-69994329D01*
X108700584Y-69913178D01*
X108687018Y-69886554D01*
X108652287Y-69818390D01*
X108644556Y-69807749D01*
X108531971Y-69652786D01*
X108387213Y-69508028D01*
X108387212Y-69508027D01*
X108387211Y-69508026D01*
X108229507Y-69393450D01*
X108229168Y-69393161D01*
X108221603Y-69387707D01*
X108221239Y-69387524D01*
X108156230Y-69354400D01*
X108156230Y-69354399D01*
X108156228Y-69354399D01*
X108039229Y-69294783D01*
X108039221Y-69294780D01*
X107895623Y-69248122D01*
X107844534Y-69231522D01*
X107844532Y-69231521D01*
X107844530Y-69231521D01*
X107844529Y-69231520D01*
X107669995Y-69203878D01*
X107653409Y-69201251D01*
X107642354Y-69199500D01*
X107642352Y-69199500D01*
X107437648Y-69199500D01*
X107437647Y-69199500D01*
X107413327Y-69203351D01*
X107413326Y-69203350D01*
X107235468Y-69231521D01*
X107040777Y-69294780D01*
X107040764Y-69294786D01*
X106858397Y-69387708D01*
X106858385Y-69387715D01*
X106692787Y-69508027D01*
X106692784Y-69508029D01*
X106548029Y-69652784D01*
X106548027Y-69652787D01*
X106427715Y-69818385D01*
X106427708Y-69818397D01*
X106334783Y-70000770D01*
X106334779Y-70000779D01*
X106309224Y-70079427D01*
X106302010Y-70096946D01*
X106291709Y-70117368D01*
X106291706Y-70117376D01*
X106218985Y-70333655D01*
X105905004Y-71267448D01*
X105875151Y-71315609D01*
X101883687Y-75307074D01*
X101855431Y-75328226D01*
X101841710Y-75335718D01*
X101773441Y-75350569D01*
X101766868Y-75350099D01*
X101702827Y-75326733D01*
X101629202Y-75273242D01*
X101629201Y-75273241D01*
X101629199Y-75273240D01*
X101460836Y-75187454D01*
X101281118Y-75129059D01*
X101281112Y-75129058D01*
X101094491Y-75099500D01*
X101094486Y-75099500D01*
X101094481Y-75099500D01*
X100905519Y-75099500D01*
X100905514Y-75099500D01*
X100905509Y-75099500D01*
X100718886Y-75129058D01*
X100718884Y-75129058D01*
X100718881Y-75129059D01*
X100539163Y-75187454D01*
X100481318Y-75216928D01*
X100370807Y-75273236D01*
X100370794Y-75273244D01*
X100306878Y-75319681D01*
X100306879Y-75319682D01*
X100229798Y-75375685D01*
X100222417Y-75379818D01*
X100079816Y-75522419D01*
X100075686Y-75529794D01*
X100036610Y-75583578D01*
X100036610Y-75583579D01*
X99973240Y-75670799D01*
X99969220Y-75678689D01*
X99887454Y-75839163D01*
X99829059Y-76018881D01*
X99829058Y-76018884D01*
X99829058Y-76018886D01*
X99799500Y-76205507D01*
X96561447Y-76205507D01*
X96519873Y-76077555D01*
X96441232Y-75923212D01*
X96339414Y-75783072D01*
X96216928Y-75660586D01*
X96148397Y-75610795D01*
X96123091Y-75586202D01*
X96121068Y-75583579D01*
X96114615Y-75575210D01*
X96089265Y-75510103D01*
X96103138Y-75441626D01*
X96106404Y-75435437D01*
X96143185Y-75392990D01*
X96216928Y-75339414D01*
X96339414Y-75216928D01*
X96441232Y-75076788D01*
X96519873Y-74922445D01*
X96573402Y-74757701D01*
X96600500Y-74586611D01*
X96600500Y-72413389D01*
X96598522Y-72400903D01*
X96588839Y-72339765D01*
X96573402Y-72242299D01*
X96519873Y-72077555D01*
X96441232Y-71923212D01*
X96339414Y-71783072D01*
X96216928Y-71660586D01*
X96076788Y-71558768D01*
X96076780Y-71558764D01*
X95922449Y-71480128D01*
X95766532Y-71429467D01*
X95762010Y-71427614D01*
X95752820Y-71425444D01*
X95748057Y-71425070D01*
X95617416Y-71404379D01*
X95617413Y-71404377D01*
X95617413Y-71404378D01*
X95596568Y-71401077D01*
X95586613Y-71399500D01*
X95586611Y-71399500D01*
X95413389Y-71399500D01*
X95413387Y-71399500D01*
X95403432Y-71401077D01*
X95382584Y-71404379D01*
X95382583Y-71404379D01*
X95242306Y-71426595D01*
X95242305Y-71426596D01*
X95077549Y-71480129D01*
X94923218Y-71558764D01*
X94923205Y-71558772D01*
X94869316Y-71597925D01*
X94794942Y-71651961D01*
X94787563Y-71656093D01*
X94656092Y-71787564D01*
X94651961Y-71794941D01*
X94561709Y-71919163D01*
X94558768Y-71923211D01*
X94558766Y-71923213D01*
X94558764Y-71923218D01*
X94480129Y-72077547D01*
X94426596Y-72242301D01*
X94411306Y-72338847D01*
X94411306Y-72338849D01*
X94399500Y-72413384D01*
X92435851Y-72413384D01*
X92528399Y-72320836D01*
X92681591Y-72167645D01*
X93699812Y-71149423D01*
X93728062Y-71128275D01*
X93751154Y-71115667D01*
X93810579Y-71100500D01*
X100786050Y-71100500D01*
X100841214Y-71113446D01*
X101927882Y-71653233D01*
X101969239Y-71671519D01*
X101969245Y-71671520D01*
X101974753Y-71673361D01*
X101974512Y-71674079D01*
X101992638Y-71680690D01*
X102034332Y-71701935D01*
X102035925Y-71702867D01*
X102039638Y-71704666D01*
X102041636Y-71705659D01*
X102045402Y-71706722D01*
X102092132Y-71721905D01*
X102141758Y-71738029D01*
X102141759Y-71738030D01*
X102167126Y-71746272D01*
X102235465Y-71768477D01*
X102327595Y-71783069D01*
X102437648Y-71800500D01*
X102437649Y-71800500D01*
X102642351Y-71800500D01*
X102642352Y-71800500D01*
X102844534Y-71768477D01*
X103039219Y-71705220D01*
X103221610Y-71612287D01*
X103295268Y-71558772D01*
X103339823Y-71526402D01*
X103357958Y-71513225D01*
X103387213Y-71491971D01*
X103387215Y-71491968D01*
X103387219Y-71491966D01*
X103387221Y-71491963D01*
X103387275Y-71491924D01*
X103388032Y-71491152D01*
X103531148Y-71348036D01*
X103531926Y-71347274D01*
X103531969Y-71347213D01*
X103531971Y-71347213D01*
X103589923Y-71267448D01*
X103625297Y-71218759D01*
X103625302Y-71218751D01*
X103652287Y-71181610D01*
X103745220Y-70999219D01*
X103808477Y-70804534D01*
X103840500Y-70602352D01*
X103840500Y-70397648D01*
X103808477Y-70195466D01*
X103808476Y-70195462D01*
X103808476Y-70195461D01*
X103746723Y-70005406D01*
X103745660Y-70001639D01*
X103744652Y-69999610D01*
X103742866Y-69995923D01*
X103741933Y-69994329D01*
X103700584Y-69913178D01*
X103687018Y-69886554D01*
X103652287Y-69818390D01*
X103644556Y-69807749D01*
X103531971Y-69652786D01*
X103387213Y-69508028D01*
X103387212Y-69508027D01*
X103387211Y-69508026D01*
X103229507Y-69393450D01*
X103229168Y-69393161D01*
X103221603Y-69387707D01*
X103221239Y-69387524D01*
X103156230Y-69354400D01*
X103156230Y-69354399D01*
X103156228Y-69354399D01*
X103039229Y-69294783D01*
X103039221Y-69294780D01*
X102895623Y-69248122D01*
X102844534Y-69231522D01*
X102844532Y-69231521D01*
X102844530Y-69231521D01*
X102844529Y-69231520D01*
X102669995Y-69203878D01*
X102653409Y-69201251D01*
X102642354Y-69199500D01*
X102642352Y-69199500D01*
X102437648Y-69199500D01*
X102437647Y-69199500D01*
X102413327Y-69203351D01*
X102413326Y-69203350D01*
X102235468Y-69231521D01*
X102235465Y-69231522D01*
X102072461Y-69284486D01*
X102040770Y-69294783D01*
X101967102Y-69332318D01*
X101949613Y-69339605D01*
X101927887Y-69346763D01*
X100841212Y-69886554D01*
X100786048Y-69899500D01*
X93588621Y-69899500D01*
X93588558Y-69899499D01*
X93586654Y-69899499D01*
X93579058Y-69899499D01*
X93420943Y-69899499D01*
X93344578Y-69919960D01*
X93344579Y-69919961D01*
X93268217Y-69940422D01*
X93268215Y-69940422D01*
X93268214Y-69940423D01*
X93268212Y-69940423D01*
X93268143Y-69940453D01*
X93267334Y-69940930D01*
X93131298Y-70019470D01*
X93131280Y-70019482D01*
X91453840Y-71696921D01*
X91425584Y-71718073D01*
X91411863Y-71725565D01*
X91343603Y-71740417D01*
X91341797Y-71740288D01*
X91283596Y-71720920D01*
X91277081Y-71716733D01*
X91256445Y-71700103D01*
X91216930Y-71660588D01*
X91216928Y-71660586D01*
X91076788Y-71558768D01*
X91076780Y-71558764D01*
X90922449Y-71480128D01*
X90766532Y-71429467D01*
X90762010Y-71427614D01*
X90752820Y-71425444D01*
X90748057Y-71425070D01*
X90617416Y-71404379D01*
X90617413Y-71404377D01*
X90617413Y-71404378D01*
X90596568Y-71401077D01*
X90586613Y-71399500D01*
X90586611Y-71399500D01*
X90413389Y-71399500D01*
X90413387Y-71399500D01*
X90403432Y-71401077D01*
X90382584Y-71404379D01*
X90382583Y-71404379D01*
X90242306Y-71426595D01*
X90242305Y-71426596D01*
X90077549Y-71480129D01*
X89923218Y-71558764D01*
X89923205Y-71558772D01*
X89869316Y-71597925D01*
X89794942Y-71651961D01*
X89787563Y-71656093D01*
X89656092Y-71787564D01*
X89651961Y-71794941D01*
X89561709Y-71919163D01*
X89558768Y-71923211D01*
X89558766Y-71923213D01*
X89558764Y-71923218D01*
X89480129Y-72077547D01*
X89426596Y-72242301D01*
X89411405Y-72338217D01*
X89411388Y-72338324D01*
X89411306Y-72338848D01*
X89399500Y-72413389D01*
X83700500Y-72413389D01*
X83700500Y-72388543D01*
X83671404Y-72167537D01*
X83613710Y-71952219D01*
X83601697Y-71923218D01*
X83574970Y-71858692D01*
X83528405Y-71746274D01*
X83416948Y-71553226D01*
X83360858Y-71480128D01*
X83320563Y-71427614D01*
X83281262Y-71376395D01*
X83281258Y-71376390D01*
X83281248Y-71376377D01*
X83281242Y-71376370D01*
X83123629Y-71218757D01*
X83123622Y-71218751D01*
X83123612Y-71218743D01*
X83123603Y-71218736D01*
X82948754Y-71084571D01*
X82946873Y-71083067D01*
X82945486Y-71082233D01*
X82943589Y-71081212D01*
X82753767Y-70971618D01*
X82753715Y-70971589D01*
X82743165Y-70967219D01*
X82691651Y-70945882D01*
X82661301Y-70927874D01*
X82654296Y-70922229D01*
X82614448Y-70864837D01*
X82611954Y-70795012D01*
X82647606Y-70734923D01*
X82703596Y-70704999D01*
X82708583Y-70703821D01*
X82737089Y-70700500D01*
X83000003Y-70700500D01*
X83000008Y-70700500D01*
X83102797Y-70689999D01*
X83269334Y-70634814D01*
X83418655Y-70542711D01*
X83542711Y-70418655D01*
X83609667Y-70310101D01*
X83632704Y-70282627D01*
X84362899Y-69631924D01*
X84426045Y-69602019D01*
X84445396Y-69600500D01*
X94411380Y-69600500D01*
X94411443Y-69600501D01*
X94413347Y-69600501D01*
X94420943Y-69600501D01*
X94579054Y-69600501D01*
X94579057Y-69600501D01*
X94731785Y-69559577D01*
X94781904Y-69530639D01*
X94868716Y-69480520D01*
X94980520Y-69368716D01*
X94980520Y-69368715D01*
X94997960Y-69351275D01*
X94997961Y-69351272D01*
X96451590Y-67897642D01*
X110199500Y-67897642D01*
X110199500Y-68102356D01*
X110230804Y-68300000D01*
X110231522Y-68304534D01*
X110255983Y-68379815D01*
X110294780Y-68499221D01*
X110294786Y-68499234D01*
X110387708Y-68681601D01*
X110387713Y-68681610D01*
X110387715Y-68681613D01*
X110508028Y-68847213D01*
X110652786Y-68991971D01*
X110749635Y-69062334D01*
X110749636Y-69062336D01*
X110778810Y-69083531D01*
X110818390Y-69112287D01*
X110883715Y-69145572D01*
X110934607Y-69171503D01*
X110994327Y-69201932D01*
X110995930Y-69202870D01*
X110999629Y-69204662D01*
X111001637Y-69205660D01*
X111005403Y-69206722D01*
X111045488Y-69219746D01*
X111105135Y-69239126D01*
X111105136Y-69239127D01*
X111132820Y-69248122D01*
X111195465Y-69268477D01*
X111296557Y-69284488D01*
X111397648Y-69300500D01*
X111397649Y-69300500D01*
X111602351Y-69300500D01*
X111602352Y-69300500D01*
X111804534Y-69268477D01*
X111999219Y-69205220D01*
X112181610Y-69112287D01*
X112292700Y-69031576D01*
X112347213Y-68991971D01*
X112347215Y-68991968D01*
X112347219Y-68991966D01*
X112347224Y-68991961D01*
X112347276Y-68991923D01*
X112348042Y-68991143D01*
X112491152Y-68848032D01*
X112491926Y-68847273D01*
X112491969Y-68847213D01*
X112491971Y-68847213D01*
X112585371Y-68718657D01*
X112612287Y-68681610D01*
X112705220Y-68499219D01*
X112768477Y-68304534D01*
X112800500Y-68102352D01*
X112800500Y-67897648D01*
X112800500Y-67897642D01*
X112773559Y-67727549D01*
X112771184Y-67712558D01*
X112768477Y-67695465D01*
X112731397Y-67581345D01*
X112716825Y-67536498D01*
X112706722Y-67505403D01*
X112705659Y-67501633D01*
X112704663Y-67499630D01*
X112702869Y-67495927D01*
X112701934Y-67494329D01*
X112639980Y-67372741D01*
X112636131Y-67365187D01*
X112612287Y-67318390D01*
X112595368Y-67295103D01*
X112491971Y-67152786D01*
X112347213Y-67008028D01*
X112347212Y-67008027D01*
X112347211Y-67008026D01*
X112189507Y-66893450D01*
X112189168Y-66893161D01*
X112181603Y-66887707D01*
X112181239Y-66887524D01*
X112160645Y-66877031D01*
X112100221Y-66846243D01*
X112100221Y-66846242D01*
X112100219Y-66846242D01*
X111999228Y-66794783D01*
X111999221Y-66794780D01*
X111875237Y-66754495D01*
X111804534Y-66731522D01*
X111804532Y-66731521D01*
X111804530Y-66731521D01*
X111804529Y-66731520D01*
X111629995Y-66703878D01*
X111613409Y-66701251D01*
X111602354Y-66699500D01*
X111602352Y-66699500D01*
X111397648Y-66699500D01*
X111397647Y-66699500D01*
X111373327Y-66703351D01*
X111373326Y-66703350D01*
X111195468Y-66731521D01*
X111000777Y-66794780D01*
X111000764Y-66794786D01*
X110818397Y-66887708D01*
X110818385Y-66887715D01*
X110652787Y-67008027D01*
X110652784Y-67008029D01*
X110508029Y-67152784D01*
X110508027Y-67152787D01*
X110387715Y-67318385D01*
X110387708Y-67318397D01*
X110294786Y-67500764D01*
X110294780Y-67500777D01*
X110231521Y-67695468D01*
X110199500Y-67897642D01*
X96451590Y-67897642D01*
X97291676Y-67057555D01*
X97339032Y-67027978D01*
X98364223Y-66675457D01*
X98404734Y-66659546D01*
X98404736Y-66659545D01*
X98409879Y-66656951D01*
X98410288Y-66657763D01*
X98427535Y-66649651D01*
X98470429Y-66635715D01*
X98642302Y-66548141D01*
X98798359Y-66434759D01*
X98934759Y-66298359D01*
X99048141Y-66142302D01*
X99135715Y-65970429D01*
X99195324Y-65786972D01*
X99225500Y-65596449D01*
X99225500Y-65403551D01*
X99195324Y-65213028D01*
X99135715Y-65029571D01*
X99048141Y-64857698D01*
X98945895Y-64716968D01*
X98933040Y-64694754D01*
X98925657Y-64678261D01*
X98916233Y-64609030D01*
X98945734Y-64545694D01*
X99004349Y-64508490D01*
X99015055Y-64505390D01*
X99049536Y-64500500D01*
X114643473Y-64500500D01*
X114678400Y-64505521D01*
X114689253Y-64508707D01*
X114748034Y-64546477D01*
X114777063Y-64610031D01*
X114767124Y-64679190D01*
X114767120Y-64679199D01*
X114763935Y-64686173D01*
X114738822Y-64722341D01*
X114026061Y-65435103D01*
X113353286Y-66107877D01*
X113241480Y-66219682D01*
X113241478Y-66219684D01*
X113221764Y-66253830D01*
X113221764Y-66253832D01*
X113213496Y-66268154D01*
X113213430Y-66268269D01*
X113213427Y-66268273D01*
X113162424Y-66356611D01*
X113162423Y-66356615D01*
X113121499Y-66509343D01*
X113121499Y-66509345D01*
X113121499Y-66679800D01*
X113121500Y-66679851D01*
X113121500Y-72839800D01*
X113116476Y-72874739D01*
X113109063Y-72899982D01*
X113077774Y-72952718D01*
X113024791Y-73005709D01*
X112996542Y-73026858D01*
X112986613Y-73032281D01*
X112918343Y-73047138D01*
X112852877Y-73022726D01*
X112811002Y-72966796D01*
X112810999Y-72966788D01*
X112808319Y-72959603D01*
X112800500Y-72916268D01*
X112800500Y-72897648D01*
X112768477Y-72695465D01*
X112724706Y-72560753D01*
X112706714Y-72505381D01*
X112705658Y-72501633D01*
X112704677Y-72499659D01*
X112702871Y-72495931D01*
X112701930Y-72494323D01*
X112660691Y-72413389D01*
X112660690Y-72413388D01*
X112654329Y-72400903D01*
X112612287Y-72318390D01*
X112579701Y-72273539D01*
X112491971Y-72152786D01*
X112347213Y-72008028D01*
X112341724Y-72004040D01*
X112189507Y-71893450D01*
X112189168Y-71893161D01*
X112181603Y-71887707D01*
X112181188Y-71887498D01*
X112124654Y-71858691D01*
X112124653Y-71858691D01*
X111999223Y-71794781D01*
X111804534Y-71731522D01*
X111804532Y-71731521D01*
X111804530Y-71731521D01*
X111804529Y-71731520D01*
X111629995Y-71703878D01*
X111613409Y-71701251D01*
X111602354Y-71699500D01*
X111602352Y-71699500D01*
X111397648Y-71699500D01*
X111397647Y-71699500D01*
X111373327Y-71703351D01*
X111373326Y-71703350D01*
X111195468Y-71731521D01*
X111000777Y-71794780D01*
X111000764Y-71794786D01*
X110818397Y-71887708D01*
X110818385Y-71887715D01*
X110652787Y-72008027D01*
X110652784Y-72008029D01*
X110508031Y-72152783D01*
X110508027Y-72152787D01*
X110387715Y-72318385D01*
X110387708Y-72318397D01*
X110294783Y-72500770D01*
X110294779Y-72500779D01*
X110269883Y-72577399D01*
X110266629Y-72586253D01*
X110246335Y-72635584D01*
X109901303Y-73782921D01*
X109889937Y-73809222D01*
X109877435Y-73830870D01*
X109877435Y-73830871D01*
X109877423Y-73830916D01*
X109867296Y-73868712D01*
X109867295Y-73868717D01*
X109859494Y-73897828D01*
X109856474Y-73907499D01*
X109854606Y-73912719D01*
X109853940Y-73914915D01*
X109853938Y-73914922D01*
X109841875Y-73963075D01*
X109841784Y-73963483D01*
X109840576Y-73968389D01*
X109836500Y-73983593D01*
X109836500Y-73989412D01*
X109835158Y-74007599D01*
X109834162Y-74014317D01*
X109834160Y-74014331D01*
X109834159Y-74014342D01*
X109833937Y-74016584D01*
X109833376Y-74028005D01*
X109831500Y-74066179D01*
X109831500Y-74066192D01*
X109831500Y-74141724D01*
X109835904Y-74186475D01*
X109836500Y-74198619D01*
X109836500Y-75533343D01*
X109831475Y-75568284D01*
X109828288Y-75579136D01*
X109790511Y-75637912D01*
X109726954Y-75666934D01*
X109657802Y-75656990D01*
X109634079Y-75646156D01*
X109634080Y-75646156D01*
X109627881Y-75645668D01*
X109119895Y-76153656D01*
X109058572Y-76187141D01*
X108988881Y-76182157D01*
X108932947Y-76140286D01*
X108924827Y-76127975D01*
X108900072Y-76085098D01*
X108900068Y-76085093D01*
X108834906Y-76019931D01*
X108834898Y-76019925D01*
X108792024Y-75995172D01*
X108743808Y-75944606D01*
X108730584Y-75875999D01*
X108756552Y-75811134D01*
X108766342Y-75800104D01*
X108849286Y-75717160D01*
X109274328Y-75292116D01*
X109248933Y-75273666D01*
X109242635Y-75270457D01*
X109080636Y-75187913D01*
X109080634Y-75187912D01*
X108901003Y-75129548D01*
X108807724Y-75114774D01*
X108714447Y-75100000D01*
X108714446Y-75100000D01*
X108525554Y-75100000D01*
X108525553Y-75100000D01*
X108463367Y-75109849D01*
X108338995Y-75129548D01*
X108159364Y-75187912D01*
X108159361Y-75187913D01*
X107991057Y-75273670D01*
X107990771Y-75273846D01*
X107990640Y-75273882D01*
X107986719Y-75275881D01*
X107986321Y-75275100D01*
X107970917Y-75279444D01*
X107965668Y-75292116D01*
X108473657Y-75800104D01*
X108507142Y-75861427D01*
X108502158Y-75931118D01*
X108460287Y-75987052D01*
X108447976Y-75995172D01*
X108405098Y-76019927D01*
X108405093Y-76019931D01*
X108339931Y-76085093D01*
X108339927Y-76085098D01*
X108315172Y-76127976D01*
X108264605Y-76176192D01*
X108195998Y-76189414D01*
X108131133Y-76163446D01*
X108120104Y-76153657D01*
X107612116Y-75645668D01*
X107599444Y-75650917D01*
X107595100Y-75666321D01*
X107595881Y-75666719D01*
X107593882Y-75670640D01*
X107593846Y-75670771D01*
X107593670Y-75671057D01*
X107507913Y-75839361D01*
X107507912Y-75839364D01*
X107449548Y-76018995D01*
X107426886Y-76162074D01*
X107420000Y-76205552D01*
X107420000Y-76394447D01*
X107428219Y-76446341D01*
X107449548Y-76581003D01*
X107507912Y-76760634D01*
X107507913Y-76760636D01*
X107572663Y-76887713D01*
X107593666Y-76928933D01*
X107612116Y-76954328D01*
X108120106Y-76446339D01*
X108181426Y-76412856D01*
X108251118Y-76417840D01*
X108307051Y-76459712D01*
X108315171Y-76472022D01*
X108339927Y-76514901D01*
X108339929Y-76514904D01*
X108339930Y-76514905D01*
X108405095Y-76580070D01*
X108447976Y-76604827D01*
X108496191Y-76655393D01*
X108509415Y-76724000D01*
X108483447Y-76788865D01*
X108473657Y-76799895D01*
X107965669Y-77307881D01*
X107965669Y-77307882D01*
X107965673Y-77307886D01*
X107980141Y-77318397D01*
X107991059Y-77326329D01*
X108159362Y-77412085D01*
X108338997Y-77470451D01*
X108525553Y-77500000D01*
X108714446Y-77500000D01*
X108714447Y-77500000D01*
X108901002Y-77470451D01*
X109080637Y-77412085D01*
X109248937Y-77326331D01*
X109274328Y-77307883D01*
X109274328Y-77307882D01*
X109023128Y-77056682D01*
X108766342Y-76799895D01*
X108732857Y-76738572D01*
X108737841Y-76668880D01*
X108779713Y-76612947D01*
X108792017Y-76604830D01*
X108834905Y-76580070D01*
X108900070Y-76514905D01*
X108924827Y-76472023D01*
X108975392Y-76423809D01*
X109043998Y-76410584D01*
X109108864Y-76436551D01*
X109119895Y-76446342D01*
X109627880Y-76954327D01*
X109627881Y-76954327D01*
X109627882Y-76954328D01*
X109641606Y-76953248D01*
X109641608Y-76953246D01*
X109658453Y-76946758D01*
X109659241Y-76948805D01*
X109700360Y-76932795D01*
X109768838Y-76946668D01*
X109818934Y-76995341D01*
X109820459Y-76998040D01*
X109836500Y-77059039D01*
X109836500Y-81847947D01*
X109836487Y-81848753D01*
X109836487Y-81850346D01*
X109836487Y-81850350D01*
X109836496Y-81910000D01*
X109836500Y-81940822D01*
X109836500Y-82016397D01*
X109836501Y-82016409D01*
X109836517Y-82016464D01*
X109854048Y-82081857D01*
X109857661Y-82101622D01*
X109859016Y-82115168D01*
X109866054Y-82126656D01*
X109872509Y-82150747D01*
X109874365Y-82157676D01*
X109877427Y-82169102D01*
X109877445Y-82169145D01*
X109892485Y-82195187D01*
X109896800Y-82212965D01*
X109909378Y-82228058D01*
X109921505Y-82245438D01*
X109922188Y-82246621D01*
X109928302Y-82257211D01*
X109928306Y-82257217D01*
X109928305Y-82257217D01*
X109928307Y-82257219D01*
X109956480Y-82306016D01*
X109956482Y-82306018D01*
X109956502Y-82306044D01*
X109956529Y-82306080D01*
X109978184Y-82327729D01*
X110007662Y-82374776D01*
X110348895Y-83358303D01*
X110348902Y-83358322D01*
X110352887Y-83368407D01*
X110364626Y-83398119D01*
X110367115Y-83403032D01*
X110374424Y-83420738D01*
X110384005Y-83450222D01*
X110387454Y-83460836D01*
X110437528Y-83559111D01*
X110437527Y-83559111D01*
X110473236Y-83629194D01*
X110473240Y-83629199D01*
X110584310Y-83782073D01*
X110717927Y-83915690D01*
X110870801Y-84026760D01*
X110921635Y-84052661D01*
X111032720Y-84109262D01*
X111034312Y-84110194D01*
X111038025Y-84111993D01*
X111040022Y-84112986D01*
X111043790Y-84114049D01*
X111080169Y-84125869D01*
X111135495Y-84143845D01*
X111135496Y-84143846D01*
X111152901Y-84149501D01*
X111218881Y-84170940D01*
X111405514Y-84200500D01*
X111405519Y-84200500D01*
X111594485Y-84200500D01*
X111594486Y-84200500D01*
X111781118Y-84170940D01*
X111960832Y-84112547D01*
X112129199Y-84026760D01*
X112282073Y-83915690D01*
X112415690Y-83782073D01*
X112526760Y-83629199D01*
X112612547Y-83460832D01*
X112670940Y-83281118D01*
X112671553Y-83277252D01*
X112675947Y-83249506D01*
X112675947Y-83249505D01*
X112675947Y-83249504D01*
X112700500Y-83094486D01*
X112700500Y-82905513D01*
X112670940Y-82718881D01*
X112637257Y-82615218D01*
X112614041Y-82543768D01*
X112612985Y-82540020D01*
X112611999Y-82538037D01*
X112610199Y-82534320D01*
X112609263Y-82532722D01*
X112567290Y-82450347D01*
X112526760Y-82370801D01*
X112526758Y-82370798D01*
X112526757Y-82370796D01*
X112482071Y-82309292D01*
X112415690Y-82217927D01*
X112282073Y-82084310D01*
X112129199Y-81973240D01*
X112115227Y-81966121D01*
X111960833Y-81887452D01*
X111895182Y-81866120D01*
X111876634Y-81858380D01*
X111858187Y-81848859D01*
X111858170Y-81848852D01*
X111239432Y-81634384D01*
X111212639Y-81625097D01*
X111120888Y-81593293D01*
X111063993Y-81552738D01*
X111038056Y-81487860D01*
X111037500Y-81476132D01*
X111037500Y-76680506D01*
X111042522Y-76645573D01*
X111044111Y-76640161D01*
X111046433Y-76632254D01*
X111084206Y-76573477D01*
X111147758Y-76544452D01*
X111154686Y-76543456D01*
X111210640Y-76548263D01*
X111214977Y-76549672D01*
X111217612Y-76550626D01*
X111218414Y-76550866D01*
X111305139Y-76564602D01*
X111305278Y-76564623D01*
X111305322Y-76564630D01*
X111405514Y-76580500D01*
X111405519Y-76580500D01*
X111594485Y-76580500D01*
X111594486Y-76580500D01*
X111781118Y-76550940D01*
X111814975Y-76539939D01*
X111960832Y-76492547D01*
X112129199Y-76406760D01*
X112282073Y-76295690D01*
X112415690Y-76162073D01*
X112526760Y-76009199D01*
X112612547Y-75840832D01*
X112633867Y-75775212D01*
X112641607Y-75756668D01*
X112651132Y-75738218D01*
X112992206Y-74754460D01*
X113021674Y-74707409D01*
X114128793Y-73600142D01*
X114134203Y-73594732D01*
X114162457Y-73573577D01*
X114172391Y-73568153D01*
X114240661Y-73553300D01*
X114306126Y-73577714D01*
X114347999Y-73633646D01*
X114348001Y-73633650D01*
X114350682Y-73640838D01*
X114358500Y-73684172D01*
X114358500Y-76803102D01*
X114357238Y-76820747D01*
X114353500Y-76846744D01*
X114353500Y-76956664D01*
X114353501Y-76956694D01*
X114356369Y-76985796D01*
X114351449Y-77011745D01*
X114362441Y-77052769D01*
X114363701Y-77058172D01*
X114364112Y-77059812D01*
X114365379Y-77063988D01*
X114366488Y-77067873D01*
X114370294Y-77082075D01*
X114370295Y-77082080D01*
X114381425Y-77123620D01*
X114381430Y-77123637D01*
X114399423Y-77190784D01*
X114399424Y-77190787D01*
X114399425Y-77190788D01*
X114404959Y-77200373D01*
X114404962Y-77200379D01*
X114410200Y-77209451D01*
X114421974Y-77237150D01*
X114745408Y-78360720D01*
X114745685Y-78361678D01*
X114745714Y-78361778D01*
X114758218Y-78397205D01*
X114764896Y-78416126D01*
X114767534Y-78421741D01*
X114767290Y-78421855D01*
X114775537Y-78440000D01*
X114794780Y-78499223D01*
X114827471Y-78563381D01*
X114835752Y-78584029D01*
X114840419Y-78599578D01*
X114840419Y-78599579D01*
X115105349Y-79170643D01*
X115326245Y-79646791D01*
X115347985Y-79693651D01*
X115359500Y-79745835D01*
X115359500Y-84301609D01*
X115346955Y-84355957D01*
X114875570Y-85322659D01*
X114858257Y-85362404D01*
X114856456Y-85367878D01*
X114855716Y-85367634D01*
X114849132Y-85385513D01*
X114828918Y-85425185D01*
X114828913Y-85425198D01*
X114769553Y-85607893D01*
X114739500Y-85797639D01*
X114739500Y-85989759D01*
X114766636Y-86161092D01*
X114767141Y-86196376D01*
X114765363Y-86210140D01*
X114737252Y-86274105D01*
X114679022Y-86312718D01*
X114679016Y-86312720D01*
X114666578Y-86316566D01*
X114629947Y-86322100D01*
X109760898Y-86322100D01*
X109725962Y-86317077D01*
X109700720Y-86309665D01*
X109667963Y-86290230D01*
X109662130Y-86288518D01*
X109653902Y-86281888D01*
X109647982Y-86278376D01*
X109641499Y-86271894D01*
X109641494Y-86271890D01*
X108184902Y-84815497D01*
X108155046Y-84767338D01*
X108153459Y-84762620D01*
X107950788Y-84160000D01*
X107768282Y-83617340D01*
X107751948Y-83575130D01*
X107749349Y-83569924D01*
X107750034Y-83569581D01*
X107741898Y-83552113D01*
X107731423Y-83519871D01*
X107726720Y-83505396D01*
X107725659Y-83501637D01*
X107724677Y-83499659D01*
X107722874Y-83495937D01*
X107721936Y-83494335D01*
X107674300Y-83400846D01*
X107632287Y-83318390D01*
X107600092Y-83274077D01*
X107511971Y-83152786D01*
X107367213Y-83008028D01*
X107367212Y-83008027D01*
X107367211Y-83008026D01*
X107209507Y-82893450D01*
X107209168Y-82893161D01*
X107201603Y-82887707D01*
X107201188Y-82887498D01*
X107144654Y-82858691D01*
X107144653Y-82858691D01*
X107019223Y-82794781D01*
X106824534Y-82731522D01*
X106824532Y-82731521D01*
X106824530Y-82731521D01*
X106824529Y-82731520D01*
X106649995Y-82703878D01*
X106633409Y-82701251D01*
X106622354Y-82699500D01*
X106622352Y-82699500D01*
X106417648Y-82699500D01*
X106417647Y-82699500D01*
X106393327Y-82703351D01*
X106393326Y-82703350D01*
X106215468Y-82731521D01*
X106020777Y-82794780D01*
X106020764Y-82794786D01*
X105838397Y-82887708D01*
X105838385Y-82887715D01*
X105672787Y-83008027D01*
X105672784Y-83008029D01*
X105528030Y-83152783D01*
X105528028Y-83152786D01*
X105416117Y-83306821D01*
X105407710Y-83318392D01*
X105388296Y-83356494D01*
X105367957Y-83385344D01*
X105359067Y-83394756D01*
X105298724Y-83429975D01*
X105228918Y-83426980D01*
X105175205Y-83390808D01*
X105169134Y-83383801D01*
X105152368Y-83358900D01*
X105131861Y-83318652D01*
X105131856Y-83318646D01*
X105131855Y-83318643D01*
X105123156Y-83306670D01*
X105113616Y-83279934D01*
X105099473Y-83274075D01*
X104556497Y-83817053D01*
X104495174Y-83850538D01*
X104425483Y-83845554D01*
X104369549Y-83803683D01*
X104361430Y-83791374D01*
X104340080Y-83754394D01*
X104265606Y-83679920D01*
X104228625Y-83658569D01*
X104180410Y-83608003D01*
X104167186Y-83539396D01*
X104193154Y-83474531D01*
X104202936Y-83463509D01*
X104745922Y-82920524D01*
X104745921Y-82920523D01*
X104745920Y-82920522D01*
X104745919Y-82920521D01*
X104745914Y-82920517D01*
X104701360Y-82888147D01*
X104701357Y-82888144D01*
X104585535Y-82829130D01*
X104519031Y-82795244D01*
X104324417Y-82732009D01*
X104324411Y-82732008D01*
X104122322Y-82700000D01*
X104122317Y-82700000D01*
X103917683Y-82700000D01*
X103917678Y-82700000D01*
X103715587Y-82732008D01*
X103715585Y-82732008D01*
X103715582Y-82732009D01*
X103636536Y-82757693D01*
X103520963Y-82795245D01*
X103338640Y-82888145D01*
X103294077Y-82920522D01*
X103294077Y-82920523D01*
X103294077Y-82920524D01*
X103633708Y-83260155D01*
X103837055Y-83463501D01*
X103870540Y-83524824D01*
X103865556Y-83594515D01*
X103823685Y-83650449D01*
X103811374Y-83658569D01*
X103774397Y-83679917D01*
X103774392Y-83679921D01*
X103699921Y-83754392D01*
X103699915Y-83754400D01*
X103678568Y-83791374D01*
X103628001Y-83839589D01*
X103559393Y-83852811D01*
X103494529Y-83826843D01*
X103483501Y-83817054D01*
X102940524Y-83274077D01*
X102940523Y-83274077D01*
X102940522Y-83274077D01*
X102908145Y-83318640D01*
X102815245Y-83500963D01*
X102798697Y-83551893D01*
X102752009Y-83695582D01*
X102752008Y-83695585D01*
X102752008Y-83695587D01*
X102720000Y-83897676D01*
X102720000Y-84102322D01*
X102748013Y-84279185D01*
X102752009Y-84304417D01*
X102815244Y-84499031D01*
X102869366Y-84605251D01*
X102908144Y-84681357D01*
X102908147Y-84681360D01*
X102940517Y-84725914D01*
X102940521Y-84725919D01*
X102940523Y-84725921D01*
X102940524Y-84725922D01*
X103483503Y-84182942D01*
X103544824Y-84149459D01*
X103614515Y-84154443D01*
X103670449Y-84196314D01*
X103678567Y-84208622D01*
X103699920Y-84245606D01*
X103774394Y-84320080D01*
X103774395Y-84320081D01*
X103774397Y-84320082D01*
X103811373Y-84341430D01*
X103859588Y-84391996D01*
X103872812Y-84460603D01*
X103846844Y-84525468D01*
X103837054Y-84536498D01*
X103294075Y-85079473D01*
X103294076Y-85079473D01*
X103294076Y-85079474D01*
X103338650Y-85111859D01*
X103424786Y-85155747D01*
X103520963Y-85204753D01*
X103520965Y-85204753D01*
X103520968Y-85204755D01*
X103715582Y-85267990D01*
X103917683Y-85300000D01*
X104122316Y-85300000D01*
X104122317Y-85300000D01*
X104324417Y-85267990D01*
X104519031Y-85204755D01*
X104524572Y-85201932D01*
X104701347Y-85111860D01*
X104701346Y-85111860D01*
X104701349Y-85111859D01*
X104745921Y-85079474D01*
X104202945Y-84536498D01*
X104169460Y-84475175D01*
X104174444Y-84405483D01*
X104216316Y-84349550D01*
X104228618Y-84341434D01*
X104265606Y-84320080D01*
X104340080Y-84245606D01*
X104361430Y-84208625D01*
X104411995Y-84160411D01*
X104480602Y-84147187D01*
X104545467Y-84173154D01*
X104556498Y-84182945D01*
X105099473Y-84725920D01*
X105099474Y-84725921D01*
X105131859Y-84681349D01*
X105151141Y-84643504D01*
X105171468Y-84614668D01*
X105180364Y-84605248D01*
X105240700Y-84570025D01*
X105310506Y-84573013D01*
X105364225Y-84609182D01*
X105370300Y-84616192D01*
X105387068Y-84641095D01*
X105407710Y-84681607D01*
X105407713Y-84681611D01*
X105528028Y-84847213D01*
X105672786Y-84991971D01*
X105827748Y-85104555D01*
X105827749Y-85104557D01*
X105834626Y-85109552D01*
X105838390Y-85112287D01*
X105942521Y-85165345D01*
X105954607Y-85171503D01*
X106014327Y-85201932D01*
X106015930Y-85202870D01*
X106019629Y-85204662D01*
X106021635Y-85205658D01*
X106025395Y-85206719D01*
X106078697Y-85224038D01*
X106095163Y-85229388D01*
X106099448Y-85230780D01*
X106116969Y-85237995D01*
X106137401Y-85248300D01*
X106137404Y-85248301D01*
X106137406Y-85248302D01*
X107287563Y-85634941D01*
X107335725Y-85664790D01*
X109006335Y-87335171D01*
X109074284Y-87403120D01*
X109074309Y-87403139D01*
X109074316Y-87403143D01*
X109074317Y-87403144D01*
X109102492Y-87419408D01*
X109134224Y-87437726D01*
X109134223Y-87437727D01*
X109134231Y-87437729D01*
X109135631Y-87438538D01*
X109211236Y-87482190D01*
X109211256Y-87482198D01*
X109211844Y-87482350D01*
X109276583Y-87499691D01*
X109287031Y-87504715D01*
X109288899Y-87506400D01*
X109303796Y-87507943D01*
X109303928Y-87507925D01*
X109304249Y-87507990D01*
X109309642Y-87508549D01*
X109314989Y-87509982D01*
X109318357Y-87510885D01*
X109318361Y-87510885D01*
X109318373Y-87510889D01*
X109356181Y-87521020D01*
X109363496Y-87523502D01*
X109370752Y-87523105D01*
X109450218Y-87523100D01*
X109450229Y-87523100D01*
X117459677Y-87523100D01*
X117550028Y-87523104D01*
X117550031Y-87523102D01*
X117550216Y-87523103D01*
X117550615Y-87523044D01*
X117553539Y-87522166D01*
X117606448Y-87507990D01*
X117626442Y-87502633D01*
X117626444Y-87502631D01*
X117695053Y-87484251D01*
X117697069Y-87483711D01*
X117700944Y-87482739D01*
X117702813Y-87482303D01*
X117702824Y-87482298D01*
X117704446Y-87481290D01*
X117707820Y-87479268D01*
X117771141Y-87442710D01*
X117792748Y-87432863D01*
X118862998Y-87064300D01*
X118903341Y-87048441D01*
X118903345Y-87048438D01*
X118908484Y-87045845D01*
X118908885Y-87046640D01*
X118926144Y-87038546D01*
X118968509Y-87024782D01*
X119139681Y-86937565D01*
X119295102Y-86824645D01*
X119430945Y-86688802D01*
X119543865Y-86533381D01*
X119631082Y-86362209D01*
X119631084Y-86362204D01*
X119646560Y-86314571D01*
X119662126Y-86282910D01*
X119668515Y-86273565D01*
X119722601Y-86229337D01*
X119792014Y-86221370D01*
X119854707Y-86252188D01*
X119856987Y-86254281D01*
X119891085Y-86307329D01*
X119908913Y-86362201D01*
X119908916Y-86362209D01*
X119938022Y-86419330D01*
X119938023Y-86419331D01*
X119996135Y-86533381D01*
X120109055Y-86688802D01*
X120244898Y-86824645D01*
X120400319Y-86937565D01*
X120476780Y-86976524D01*
X120571493Y-87024783D01*
X120639795Y-87046974D01*
X120658112Y-87054595D01*
X120677025Y-87064308D01*
X121693985Y-87414467D01*
X121741295Y-87444031D01*
X121744285Y-87447021D01*
X121744323Y-87447050D01*
X121744324Y-87447050D01*
X121744489Y-87447177D01*
X121744581Y-87447247D01*
X121745667Y-87447899D01*
X121747534Y-87448904D01*
X121767777Y-87460589D01*
X121784977Y-87478625D01*
X121798095Y-87482373D01*
X121826028Y-87494214D01*
X121840605Y-87502630D01*
X121845818Y-87505640D01*
X121881240Y-87526091D01*
X121881276Y-87526112D01*
X121881298Y-87526123D01*
X121881301Y-87526123D01*
X121881306Y-87526126D01*
X121881801Y-87526251D01*
X121883167Y-87526607D01*
X121950870Y-87544742D01*
X121974239Y-87553610D01*
X121982587Y-87557784D01*
X121997498Y-87557244D01*
X121998957Y-87557625D01*
X122010514Y-87560722D01*
X122026221Y-87564931D01*
X122032563Y-87567083D01*
X122037846Y-87567248D01*
X122041523Y-87567476D01*
X122046264Y-87567006D01*
X122118312Y-87567000D01*
X122118329Y-87567000D01*
X128921673Y-87567000D01*
X128921694Y-87567000D01*
X128999143Y-87567007D01*
X129006844Y-87567434D01*
X129013710Y-87567008D01*
X129019697Y-87567008D01*
X129021878Y-87565577D01*
X129043986Y-87556836D01*
X129082032Y-87546642D01*
X129082032Y-87546643D01*
X129082037Y-87546640D01*
X129157094Y-87526536D01*
X129158846Y-87526097D01*
X129158855Y-87526093D01*
X129160846Y-87524886D01*
X129231229Y-87484251D01*
X129294929Y-87447480D01*
X129295473Y-87447169D01*
X129295734Y-87447022D01*
X129295747Y-87447013D01*
X129296127Y-87446621D01*
X129297098Y-87445637D01*
X129298680Y-87444055D01*
X129346010Y-87414468D01*
X130362974Y-87064308D01*
X130403345Y-87048438D01*
X130408491Y-87045841D01*
X130408897Y-87046646D01*
X130426143Y-87038546D01*
X130468509Y-87024782D01*
X130639681Y-86937565D01*
X130795102Y-86824645D01*
X130930945Y-86688802D01*
X131043865Y-86533381D01*
X131131082Y-86362209D01*
X131131084Y-86362204D01*
X131146560Y-86314571D01*
X131162126Y-86282910D01*
X131168515Y-86273565D01*
X131222601Y-86229337D01*
X131292014Y-86221370D01*
X131354707Y-86252188D01*
X131356987Y-86254281D01*
X131391085Y-86307329D01*
X131408913Y-86362201D01*
X131408916Y-86362209D01*
X131438022Y-86419330D01*
X131438023Y-86419331D01*
X131496135Y-86533381D01*
X131609055Y-86688802D01*
X131744898Y-86824645D01*
X131900319Y-86937565D01*
X131976780Y-86976524D01*
X132071493Y-87024783D01*
X132162845Y-87054464D01*
X132254199Y-87084147D01*
X132443945Y-87114200D01*
X132443946Y-87114200D01*
X132636054Y-87114200D01*
X132636055Y-87114200D01*
X132825801Y-87084147D01*
X133001919Y-87026923D01*
X133008506Y-87024783D01*
X133008506Y-87024782D01*
X133008509Y-87024782D01*
X133179681Y-86937565D01*
X133335102Y-86824645D01*
X133470945Y-86688802D01*
X133583865Y-86533381D01*
X133671082Y-86362209D01*
X133730447Y-86179501D01*
X133760500Y-85989755D01*
X133760500Y-85797645D01*
X133730447Y-85607899D01*
X133700424Y-85515497D01*
X133700424Y-85515496D01*
X133671085Y-85425198D01*
X133671081Y-85425188D01*
X133632874Y-85350205D01*
X133626458Y-85335264D01*
X133617226Y-85309159D01*
X133612688Y-85300500D01*
X133114669Y-84350227D01*
X133100500Y-84292667D01*
X133100500Y-79753949D01*
X133113446Y-79698785D01*
X133653234Y-78612116D01*
X133671519Y-78570760D01*
X133671521Y-78570750D01*
X133673365Y-78565235D01*
X133674083Y-78565475D01*
X133680693Y-78547352D01*
X133705220Y-78499219D01*
X133768477Y-78304534D01*
X133800500Y-78102352D01*
X133800500Y-77897648D01*
X133768477Y-77695466D01*
X133768476Y-77695464D01*
X133768475Y-77695462D01*
X133765778Y-77687051D01*
X133765606Y-77686632D01*
X133764525Y-77683306D01*
X133739011Y-77604780D01*
X133706722Y-77505405D01*
X133705659Y-77501635D01*
X133704660Y-77499624D01*
X133702870Y-77495929D01*
X133701933Y-77494329D01*
X133667677Y-77427098D01*
X133660388Y-77409602D01*
X133660274Y-77409256D01*
X133653233Y-77387882D01*
X133147380Y-76369529D01*
X133113446Y-76301214D01*
X133100500Y-76246050D01*
X133100500Y-72752734D01*
X133105523Y-72717798D01*
X133112935Y-72692556D01*
X133144233Y-72639809D01*
X133148458Y-72635584D01*
X135095804Y-70688320D01*
X135124053Y-70667174D01*
X135147145Y-70654565D01*
X135206568Y-70639400D01*
X135272035Y-70639400D01*
X135306967Y-70644421D01*
X135320286Y-70648332D01*
X135379064Y-70686106D01*
X135408090Y-70749661D01*
X135408090Y-70749665D01*
X135408565Y-70752969D01*
X135404036Y-70808066D01*
X135403441Y-70809944D01*
X135395716Y-70828788D01*
X135366762Y-70885610D01*
X135366759Y-70885617D01*
X135288910Y-71125209D01*
X135288910Y-71125212D01*
X135266381Y-71267454D01*
X135266381Y-71267455D01*
X135249500Y-71374033D01*
X135249500Y-71374038D01*
X135249500Y-71625962D01*
X135261841Y-71703878D01*
X135274384Y-71783070D01*
X135274384Y-71783071D01*
X135288909Y-71874785D01*
X135352203Y-72069581D01*
X135366760Y-72114383D01*
X135481132Y-72338848D01*
X135481134Y-72338851D01*
X135551206Y-72435297D01*
X135629201Y-72542649D01*
X135629205Y-72542654D01*
X135629210Y-72542660D01*
X135807338Y-72720788D01*
X135807342Y-72720791D01*
X135807345Y-72720794D01*
X135807350Y-72720798D01*
X135960895Y-72832354D01*
X136011155Y-72868870D01*
X136120667Y-72924669D01*
X136229172Y-72979956D01*
X136230765Y-72980888D01*
X136234478Y-72982687D01*
X136236475Y-72983680D01*
X136240243Y-72984743D01*
X136284824Y-72999228D01*
X136448459Y-73052396D01*
X136461254Y-73057353D01*
X136463177Y-73058223D01*
X137802837Y-73446511D01*
X137810020Y-73448593D01*
X137868929Y-73486162D01*
X137898176Y-73549616D01*
X137899500Y-73567691D01*
X137899500Y-79920131D01*
X137894475Y-79955074D01*
X137890327Y-79969197D01*
X137852548Y-80027973D01*
X137791512Y-80056604D01*
X137778998Y-80058666D01*
X137752556Y-80059880D01*
X137752556Y-80060000D01*
X137751867Y-80060000D01*
X137751864Y-80060079D01*
X137750002Y-80060001D01*
X137749998Y-80060001D01*
X137749974Y-80060000D01*
X137749967Y-80060000D01*
X137100000Y-80060000D01*
X137100000Y-80995985D01*
X137080315Y-81063024D01*
X137027511Y-81108779D01*
X136958353Y-81118723D01*
X136943909Y-81115761D01*
X136937695Y-81114096D01*
X136922409Y-81110000D01*
X136922407Y-81110000D01*
X136777593Y-81110000D01*
X136777591Y-81110000D01*
X136756091Y-81115761D01*
X136686241Y-81114096D01*
X136628379Y-81074932D01*
X136600877Y-81010703D01*
X136600000Y-80995985D01*
X136600000Y-80060000D01*
X135950028Y-80060000D01*
X135950012Y-80060001D01*
X135950002Y-80060001D01*
X135950002Y-80060002D01*
X135853586Y-80069852D01*
X135850217Y-80070023D01*
X135847298Y-80070494D01*
X135680882Y-80125639D01*
X135680870Y-80125644D01*
X135680867Y-80125646D01*
X135531674Y-80217669D01*
X135531652Y-80217685D01*
X135531649Y-80217687D01*
X135407687Y-80341649D01*
X135407685Y-80341652D01*
X135407669Y-80341674D01*
X135315646Y-80490867D01*
X135315644Y-80490870D01*
X135315637Y-80490884D01*
X135260493Y-80657303D01*
X135250000Y-80760007D01*
X135250000Y-80760013D01*
X135250000Y-81410000D01*
X136185986Y-81410000D01*
X136253025Y-81429685D01*
X136298780Y-81482489D01*
X136308724Y-81551647D01*
X136305763Y-81566080D01*
X136300000Y-81587591D01*
X136300000Y-81732409D01*
X136305760Y-81753908D01*
X136304098Y-81823755D01*
X136264936Y-81881618D01*
X136200708Y-81909123D01*
X136185986Y-81910000D01*
X135250001Y-81910000D01*
X135250001Y-82559993D01*
X135259852Y-82656410D01*
X135260023Y-82659782D01*
X135260494Y-82662700D01*
X135315639Y-82829116D01*
X135315644Y-82829128D01*
X135315646Y-82829131D01*
X135407669Y-82978324D01*
X135407676Y-82978334D01*
X135407680Y-82978340D01*
X135407683Y-82978344D01*
X135407685Y-82978346D01*
X135407687Y-82978349D01*
X135531649Y-83102311D01*
X135531652Y-83102313D01*
X135531655Y-83102316D01*
X135531659Y-83102319D01*
X135531667Y-83102324D01*
X135531674Y-83102329D01*
X135597259Y-83142782D01*
X135680869Y-83194354D01*
X135680880Y-83194359D01*
X135847302Y-83249505D01*
X135950019Y-83259999D01*
X136599999Y-83259999D01*
X136600000Y-83259998D01*
X136600000Y-82324014D01*
X136619685Y-82256975D01*
X136672489Y-82211220D01*
X136741647Y-82201276D01*
X136756080Y-82204236D01*
X136777591Y-82210000D01*
X136922406Y-82210000D01*
X136922409Y-82210000D01*
X136943908Y-82204239D01*
X137013755Y-82205902D01*
X137071618Y-82245064D01*
X137099123Y-82309292D01*
X137100000Y-82324014D01*
X137100000Y-83259999D01*
X137749968Y-83259999D01*
X137749972Y-83259999D01*
X137749976Y-83259998D01*
X137750508Y-83259969D01*
X137750975Y-83259999D01*
X137753403Y-83259999D01*
X137753403Y-83260155D01*
X137780045Y-83261866D01*
X137791927Y-83264075D01*
X137794899Y-83264628D01*
X137857211Y-83296236D01*
X137891900Y-83354046D01*
X137895167Y-83366078D01*
X137899500Y-83398571D01*
X137899500Y-83847155D01*
X137886795Y-83901831D01*
X137741999Y-84196568D01*
X137694771Y-84248059D01*
X137627202Y-84265843D01*
X137560746Y-84244273D01*
X137543023Y-84229573D01*
X137442660Y-84129210D01*
X137442655Y-84129206D01*
X137442654Y-84129205D01*
X137442649Y-84129201D01*
X137246743Y-83986868D01*
X137246402Y-83986577D01*
X137238838Y-83981124D01*
X137238474Y-83980941D01*
X137166556Y-83944297D01*
X137137523Y-83929504D01*
X137014383Y-83866760D01*
X137014377Y-83866758D01*
X136774789Y-83788910D01*
X136774786Y-83788910D01*
X136731631Y-83782075D01*
X136731618Y-83782073D01*
X136525962Y-83749500D01*
X136525961Y-83749500D01*
X136274039Y-83749500D01*
X136274038Y-83749500D01*
X136159615Y-83767623D01*
X136159489Y-83767643D01*
X136025212Y-83788910D01*
X136025209Y-83788910D01*
X135785622Y-83866758D01*
X135785616Y-83866760D01*
X135629098Y-83946511D01*
X135561147Y-83981134D01*
X135357367Y-84129188D01*
X135357338Y-84129210D01*
X135179210Y-84307338D01*
X135179188Y-84307367D01*
X135031134Y-84511147D01*
X135031132Y-84511151D01*
X134916760Y-84735616D01*
X134916759Y-84735618D01*
X134916759Y-84735619D01*
X134838910Y-84975209D01*
X134838910Y-84975212D01*
X134799500Y-85224038D01*
X134799500Y-86775961D01*
X134811306Y-86850500D01*
X134838910Y-87024786D01*
X134838910Y-87024789D01*
X134916759Y-87264379D01*
X134916760Y-87264383D01*
X134963521Y-87356155D01*
X134979657Y-87387824D01*
X135029961Y-87486552D01*
X135031132Y-87488848D01*
X135031135Y-87488853D01*
X135126181Y-87619673D01*
X135179201Y-87692649D01*
X135179205Y-87692654D01*
X135179210Y-87692660D01*
X135357338Y-87870788D01*
X135357342Y-87870791D01*
X135357345Y-87870794D01*
X135357350Y-87870798D01*
X135357367Y-87870810D01*
X135525603Y-87993040D01*
X135525604Y-87993041D01*
X135561150Y-88018867D01*
X135561152Y-88018868D01*
X135561155Y-88018870D01*
X135704184Y-88091747D01*
X135704183Y-88091747D01*
X135715019Y-88097268D01*
X135779173Y-88129956D01*
X135780760Y-88130886D01*
X135784478Y-88132687D01*
X135786475Y-88133680D01*
X135790243Y-88134743D01*
X135981727Y-88196960D01*
X136025215Y-88211090D01*
X136274038Y-88250500D01*
X136274039Y-88250500D01*
X136525961Y-88250500D01*
X136525962Y-88250500D01*
X136774785Y-88211090D01*
X137014379Y-88133241D01*
X137238845Y-88018870D01*
X137442656Y-87870793D01*
X137620793Y-87692656D01*
X137673817Y-87619672D01*
X137698413Y-87594363D01*
X137710793Y-87584816D01*
X137775899Y-87559465D01*
X137782471Y-87558901D01*
X137849374Y-87571960D01*
X137893345Y-87594363D01*
X137914705Y-87605246D01*
X137914707Y-87605248D01*
X137932265Y-87614194D01*
X138013527Y-87655599D01*
X138015118Y-87656531D01*
X138018818Y-87658323D01*
X138020831Y-87659324D01*
X138024597Y-87660386D01*
X138062082Y-87672565D01*
X138120315Y-87691486D01*
X138120316Y-87691487D01*
X138127423Y-87693796D01*
X138207173Y-87719709D01*
X138401578Y-87750500D01*
X138401583Y-87750500D01*
X138598421Y-87750500D01*
X138598422Y-87750500D01*
X138792826Y-87719709D01*
X138872574Y-87693797D01*
X138980025Y-87658884D01*
X139155405Y-87569524D01*
X139314646Y-87453828D01*
X139399717Y-87368756D01*
X139427964Y-87347611D01*
X139441688Y-87340117D01*
X139509946Y-87325266D01*
X139511756Y-87325395D01*
X139569953Y-87344761D01*
X139576471Y-87348950D01*
X139597106Y-87365580D01*
X139685354Y-87453828D01*
X139844595Y-87569524D01*
X139914708Y-87605248D01*
X139914709Y-87605249D01*
X139932265Y-87614194D01*
X140013527Y-87655599D01*
X140015118Y-87656531D01*
X140018818Y-87658323D01*
X140020831Y-87659324D01*
X140024597Y-87660386D01*
X140062082Y-87672565D01*
X140120315Y-87691486D01*
X140120316Y-87691487D01*
X140127423Y-87693796D01*
X140207173Y-87719709D01*
X140401578Y-87750500D01*
X140401583Y-87750500D01*
X140598421Y-87750500D01*
X140598422Y-87750500D01*
X140792826Y-87719709D01*
X140872574Y-87693797D01*
X140980025Y-87658884D01*
X141155405Y-87569524D01*
X141177194Y-87553692D01*
X141208399Y-87537225D01*
X141223121Y-87531972D01*
X141292859Y-87527977D01*
X141295087Y-87528495D01*
X141348896Y-87556151D01*
X141354095Y-87560722D01*
X141371480Y-87579529D01*
X141385792Y-87598646D01*
X141387977Y-87602187D01*
X141390340Y-87605015D01*
X141394033Y-87609684D01*
X141401333Y-87614193D01*
X141507664Y-87693793D01*
X141507671Y-87693797D01*
X141557155Y-87712253D01*
X141592513Y-87738721D01*
X141649444Y-87744835D01*
X141649443Y-87744839D01*
X141649458Y-87744836D01*
X141702127Y-87750500D01*
X143297872Y-87750499D01*
X143346831Y-87745236D01*
X143382101Y-87746496D01*
X143405625Y-87750740D01*
X143456132Y-87772191D01*
X143457402Y-87773106D01*
X143472539Y-87785988D01*
X143557345Y-87870794D01*
X143557350Y-87870798D01*
X143557367Y-87870810D01*
X143725603Y-87993040D01*
X143725604Y-87993041D01*
X143761150Y-88018867D01*
X143761152Y-88018868D01*
X143761155Y-88018870D01*
X143904184Y-88091747D01*
X143904183Y-88091747D01*
X143915019Y-88097268D01*
X143979173Y-88129956D01*
X143980760Y-88130886D01*
X143984478Y-88132687D01*
X143986475Y-88133680D01*
X143990243Y-88134743D01*
X144181727Y-88196960D01*
X144225215Y-88211090D01*
X144474038Y-88250500D01*
X144474039Y-88250500D01*
X144725961Y-88250500D01*
X144725962Y-88250500D01*
X144974785Y-88211090D01*
X145214379Y-88133241D01*
X145438845Y-88018870D01*
X145642656Y-87870793D01*
X145820793Y-87692656D01*
X145968870Y-87488845D01*
X146083241Y-87264379D01*
X146161090Y-87024785D01*
X146200500Y-86775962D01*
X146200500Y-85224038D01*
X146161090Y-84975215D01*
X146161089Y-84975211D01*
X146161089Y-84975210D01*
X146084744Y-84740245D01*
X146083682Y-84736481D01*
X146082676Y-84734455D01*
X146080890Y-84730767D01*
X146079954Y-84729169D01*
X146078298Y-84725919D01*
X146028212Y-84627621D01*
X145968870Y-84511155D01*
X145920630Y-84444758D01*
X145820798Y-84307350D01*
X145820794Y-84307345D01*
X145820791Y-84307342D01*
X145820788Y-84307338D01*
X145642660Y-84129210D01*
X145642655Y-84129206D01*
X145642654Y-84129205D01*
X145642649Y-84129201D01*
X145446743Y-83986868D01*
X145446402Y-83986577D01*
X145438838Y-83981124D01*
X145438474Y-83980941D01*
X145366556Y-83944297D01*
X145337523Y-83929504D01*
X145214383Y-83866760D01*
X145214377Y-83866758D01*
X144974789Y-83788910D01*
X144974786Y-83788910D01*
X144931631Y-83782075D01*
X144931618Y-83782073D01*
X144725962Y-83749500D01*
X144725961Y-83749500D01*
X144474039Y-83749500D01*
X144474038Y-83749500D01*
X144359615Y-83767623D01*
X144359489Y-83767643D01*
X144225212Y-83788910D01*
X144225209Y-83788910D01*
X143985622Y-83866758D01*
X143985616Y-83866760D01*
X143912302Y-83904116D01*
X143761154Y-83981130D01*
X143761151Y-83981131D01*
X143761151Y-83981132D01*
X143753256Y-83986868D01*
X143557343Y-84129205D01*
X143478091Y-84208456D01*
X143449834Y-84229608D01*
X143428854Y-84241063D01*
X143376070Y-84256051D01*
X143374522Y-84256134D01*
X143354630Y-84255602D01*
X143344037Y-84254463D01*
X143297873Y-84249500D01*
X143297869Y-84249500D01*
X141702123Y-84249500D01*
X141700192Y-84249659D01*
X141698545Y-84249885D01*
X141645363Y-84255602D01*
X141642516Y-84255908D01*
X141507671Y-84306202D01*
X141507668Y-84306203D01*
X141507667Y-84306204D01*
X141507665Y-84306205D01*
X141507664Y-84306206D01*
X141506152Y-84307338D01*
X141484191Y-84323778D01*
X141418726Y-84348194D01*
X141350453Y-84333342D01*
X141301048Y-84283936D01*
X141298586Y-84279185D01*
X141284003Y-84249501D01*
X141237281Y-84154394D01*
X141211920Y-84102770D01*
X141200028Y-84033920D01*
X141227247Y-83969570D01*
X141235524Y-83960424D01*
X143975801Y-81220288D01*
X144004047Y-81199144D01*
X144013982Y-81193720D01*
X144082253Y-81178872D01*
X144147717Y-81203292D01*
X144189584Y-81259223D01*
X144191682Y-81264848D01*
X144199500Y-81308181D01*
X144199500Y-81512356D01*
X144231521Y-81714530D01*
X144294780Y-81909221D01*
X144294783Y-81909228D01*
X144349391Y-82016399D01*
X144349392Y-82016402D01*
X144384864Y-82086021D01*
X144387710Y-82091606D01*
X144387713Y-82091610D01*
X144387715Y-82091613D01*
X144508028Y-82257213D01*
X144652786Y-82401971D01*
X144804450Y-82512159D01*
X144807748Y-82514555D01*
X144807749Y-82514557D01*
X144814626Y-82519552D01*
X144818390Y-82522287D01*
X144872330Y-82549771D01*
X144934607Y-82581503D01*
X144994327Y-82611932D01*
X144995930Y-82612870D01*
X144999629Y-82614662D01*
X145001636Y-82615659D01*
X145005401Y-82616721D01*
X145065074Y-82636110D01*
X145079423Y-82640772D01*
X145096952Y-82647991D01*
X145117372Y-82658291D01*
X146267452Y-83044995D01*
X146315612Y-83074847D01*
X148937731Y-85696966D01*
X148949311Y-85710329D01*
X148965056Y-85731362D01*
X149082856Y-85849163D01*
X149082858Y-85849164D01*
X149089925Y-85856231D01*
X149160198Y-85926504D01*
X149160210Y-85926515D01*
X149194906Y-85954987D01*
X149203926Y-85963162D01*
X149221336Y-85980572D01*
X149221858Y-85980955D01*
X149224494Y-85982374D01*
X149234466Y-85988131D01*
X149239129Y-85991031D01*
X149240614Y-85991920D01*
X149240629Y-85991930D01*
X149244474Y-85993984D01*
X149248002Y-85995946D01*
X149275968Y-86012092D01*
X149304515Y-86034760D01*
X149845818Y-86613295D01*
X149850303Y-86618008D01*
X149851604Y-86619375D01*
X149851869Y-86619649D01*
X149897776Y-86661612D01*
X149900003Y-86663264D01*
X149913801Y-86675169D01*
X149931344Y-86692712D01*
X150080666Y-86784814D01*
X150247203Y-86839999D01*
X150349991Y-86850500D01*
X151650008Y-86850499D01*
X151752797Y-86839999D01*
X151919334Y-86784814D01*
X152068656Y-86692712D01*
X152192712Y-86568656D01*
X152284814Y-86419334D01*
X152339999Y-86252797D01*
X152350500Y-86150009D01*
X152350499Y-84849992D01*
X152344984Y-84796008D01*
X152341574Y-84762620D01*
X152340000Y-84747208D01*
X152339999Y-84747206D01*
X152339999Y-84747203D01*
X152339998Y-84747200D01*
X152318264Y-84681611D01*
X152284814Y-84580666D01*
X152192712Y-84431344D01*
X152068656Y-84307288D01*
X151919334Y-84215186D01*
X151761265Y-84162807D01*
X151758439Y-84161639D01*
X151752796Y-84159999D01*
X151650025Y-84149500D01*
X151650016Y-84149500D01*
X151349857Y-84149500D01*
X151314921Y-84144477D01*
X151306288Y-84141942D01*
X151247510Y-84104167D01*
X151218486Y-84040610D01*
X151228430Y-83971452D01*
X151268698Y-83922386D01*
X151272858Y-83919387D01*
X151297927Y-83905408D01*
X151306556Y-83901834D01*
X151345596Y-83885663D01*
X151450224Y-83842325D01*
X151450224Y-83842324D01*
X151450231Y-83842322D01*
X151605908Y-83738302D01*
X151738302Y-83605908D01*
X151842322Y-83450231D01*
X151913973Y-83277251D01*
X151950500Y-83093616D01*
X151950500Y-82906384D01*
X151913973Y-82722749D01*
X151842322Y-82549769D01*
X151842321Y-82549768D01*
X151842318Y-82549762D01*
X151842318Y-82549761D01*
X151738300Y-82394089D01*
X151738299Y-82394088D01*
X151738294Y-82394082D01*
X151605916Y-82261704D01*
X151605910Y-82261699D01*
X151605909Y-82261698D01*
X151450231Y-82157677D01*
X151450232Y-82157677D01*
X151450222Y-82157672D01*
X151277252Y-82086027D01*
X151277225Y-82086021D01*
X151093622Y-82049500D01*
X151093620Y-82049500D01*
X151093616Y-82049500D01*
X150906384Y-82049500D01*
X150906379Y-82049500D01*
X150906377Y-82049500D01*
X150722773Y-82086021D01*
X150722746Y-82086027D01*
X150549776Y-82157672D01*
X150549766Y-82157677D01*
X150394089Y-82261698D01*
X150394088Y-82261699D01*
X150394082Y-82261704D01*
X150261704Y-82394082D01*
X150261699Y-82394088D01*
X150261698Y-82394089D01*
X150157677Y-82549766D01*
X150157672Y-82549776D01*
X150086027Y-82722746D01*
X150086021Y-82722773D01*
X150049500Y-82906376D01*
X150049500Y-82906379D01*
X150049500Y-83093620D01*
X150049500Y-83093622D01*
X150049499Y-83093622D01*
X150086021Y-83277225D01*
X150086027Y-83277252D01*
X150157672Y-83450222D01*
X150157677Y-83450232D01*
X150261698Y-83605909D01*
X150261699Y-83605910D01*
X150261704Y-83605916D01*
X150394082Y-83738294D01*
X150394088Y-83738299D01*
X150394092Y-83738302D01*
X150549762Y-83842318D01*
X150549775Y-83842325D01*
X150549779Y-83842327D01*
X150568171Y-83849944D01*
X150608765Y-83866759D01*
X150608766Y-83866760D01*
X150698952Y-83904116D01*
X150729298Y-83922119D01*
X150736303Y-83927763D01*
X150776156Y-83985152D01*
X150778656Y-84054977D01*
X150743009Y-84115069D01*
X150687039Y-84144993D01*
X150682053Y-84146172D01*
X150653519Y-84149500D01*
X150349998Y-84149500D01*
X150349981Y-84149501D01*
X150335959Y-84150933D01*
X150247198Y-84160000D01*
X150247193Y-84160001D01*
X150247032Y-84160056D01*
X150080667Y-84215185D01*
X150080665Y-84215186D01*
X150080663Y-84215187D01*
X150013410Y-84256669D01*
X149931337Y-84307292D01*
X149881465Y-84357164D01*
X149871356Y-84366223D01*
X149845841Y-84386681D01*
X149682103Y-84561680D01*
X149621926Y-84597184D01*
X149552107Y-84594517D01*
X149503876Y-84564641D01*
X147164847Y-82225612D01*
X147134994Y-82177451D01*
X147133335Y-82172518D01*
X146748291Y-81027372D01*
X146741842Y-81010703D01*
X146731964Y-80985168D01*
X146729364Y-80979959D01*
X146730042Y-80979620D01*
X146721907Y-80962140D01*
X146707777Y-80918651D01*
X146705220Y-80910781D01*
X146705218Y-80910778D01*
X146705218Y-80910776D01*
X146659686Y-80821416D01*
X146612287Y-80728390D01*
X146600834Y-80712626D01*
X146569054Y-80668884D01*
X146491972Y-80562787D01*
X146347211Y-80418026D01*
X146189507Y-80303450D01*
X146189168Y-80303161D01*
X146181603Y-80297707D01*
X146181188Y-80297498D01*
X146124654Y-80268691D01*
X146124653Y-80268691D01*
X145999223Y-80204781D01*
X145804534Y-80141522D01*
X145804532Y-80141521D01*
X145804530Y-80141521D01*
X145804529Y-80141520D01*
X145629995Y-80113878D01*
X145613409Y-80111251D01*
X145602354Y-80109500D01*
X145602352Y-80109500D01*
X145397648Y-80109500D01*
X145370007Y-80113878D01*
X145343704Y-80118044D01*
X145196428Y-80141370D01*
X145195545Y-80141503D01*
X145195453Y-80141524D01*
X145179772Y-80146620D01*
X145144991Y-80152639D01*
X145131122Y-80153035D01*
X145063548Y-80135272D01*
X145016305Y-80083796D01*
X145016304Y-80083794D01*
X145013221Y-80077523D01*
X145000500Y-80022815D01*
X145000500Y-79937962D01*
X145000500Y-79923205D01*
X145000502Y-79867858D01*
X145000500Y-79867855D01*
X145000501Y-79856040D01*
X145000500Y-79856018D01*
X145000500Y-75998120D01*
X145005522Y-75963187D01*
X145009394Y-75950000D01*
X145012934Y-75937942D01*
X145044226Y-75885202D01*
X145146358Y-75783069D01*
X152878857Y-68050399D01*
X152926156Y-68020840D01*
X152986736Y-67999974D01*
X153943026Y-67670591D01*
X153983341Y-67654742D01*
X153983345Y-67654739D01*
X153988486Y-67652145D01*
X153988908Y-67652982D01*
X154006150Y-67644844D01*
X154048509Y-67631082D01*
X154219681Y-67543865D01*
X154375102Y-67430945D01*
X154510945Y-67295102D01*
X154623865Y-67139681D01*
X154711082Y-66968509D01*
X154712389Y-66964488D01*
X154717858Y-66947655D01*
X154770447Y-66785801D01*
X154800500Y-66596055D01*
X154800500Y-66403945D01*
X154770447Y-66214199D01*
X154735902Y-66107880D01*
X154735902Y-66107879D01*
X154711085Y-66031498D01*
X154711083Y-66031492D01*
X154654541Y-65920524D01*
X154647630Y-65906961D01*
X154623865Y-65860319D01*
X154510945Y-65704898D01*
X154375102Y-65569055D01*
X154219681Y-65456135D01*
X154116480Y-65403551D01*
X154048506Y-65368916D01*
X154048502Y-65368914D01*
X154048497Y-65368912D01*
X153865804Y-65309553D01*
X153865805Y-65309553D01*
X153722530Y-65286861D01*
X153676055Y-65279500D01*
X153676054Y-65279500D01*
X153483946Y-65279500D01*
X153483945Y-65279500D01*
X153437470Y-65286861D01*
X153294193Y-65309553D01*
X153111498Y-65368913D01*
X153111482Y-65368920D01*
X152940335Y-65456125D01*
X152940321Y-65456133D01*
X152940318Y-65456134D01*
X152940318Y-65456135D01*
X152887438Y-65494555D01*
X152887437Y-65494556D01*
X152887436Y-65494555D01*
X152796768Y-65560430D01*
X152789389Y-65564562D01*
X152644563Y-65709388D01*
X152640430Y-65716769D01*
X152600560Y-65771645D01*
X152536131Y-65860322D01*
X152448920Y-66031482D01*
X152448914Y-66031495D01*
X152433440Y-66079123D01*
X152417868Y-66110795D01*
X152411483Y-66120133D01*
X152357395Y-66164362D01*
X152287981Y-66172327D01*
X152225283Y-66141502D01*
X152222984Y-66139391D01*
X152188913Y-66086369D01*
X152171083Y-66031493D01*
X152114541Y-65920524D01*
X152083865Y-65860319D01*
X151970945Y-65704898D01*
X151835102Y-65569055D01*
X151679681Y-65456135D01*
X151576480Y-65403551D01*
X151508506Y-65368916D01*
X151508502Y-65368914D01*
X151508497Y-65368912D01*
X151325804Y-65309553D01*
X151325805Y-65309553D01*
X151182530Y-65286861D01*
X151136055Y-65279500D01*
X151136054Y-65279500D01*
X150943946Y-65279500D01*
X150943945Y-65279500D01*
X150897470Y-65286861D01*
X150754193Y-65309553D01*
X150571498Y-65368913D01*
X150571482Y-65368920D01*
X150400335Y-65456125D01*
X150400321Y-65456133D01*
X150400318Y-65456134D01*
X150400318Y-65456135D01*
X150347438Y-65494555D01*
X150347437Y-65494556D01*
X150347436Y-65494555D01*
X150256768Y-65560430D01*
X150249389Y-65564562D01*
X150104563Y-65709388D01*
X150100430Y-65716769D01*
X150060560Y-65771645D01*
X149996135Y-65860317D01*
X149908917Y-66031490D01*
X149893175Y-66079938D01*
X149877602Y-66111610D01*
X149871218Y-66120946D01*
X149817129Y-66165173D01*
X149747714Y-66173137D01*
X149685017Y-66142309D01*
X149682718Y-66140200D01*
X149648649Y-66087178D01*
X149630616Y-66031680D01*
X149543434Y-65860577D01*
X149541956Y-65858542D01*
X149522204Y-65831355D01*
X149522200Y-65831351D01*
X149522199Y-65831351D01*
X149036497Y-66317053D01*
X148975174Y-66350538D01*
X148905482Y-66345554D01*
X148849549Y-66303682D01*
X148841430Y-66291374D01*
X148820080Y-66254394D01*
X148745606Y-66179920D01*
X148708625Y-66158569D01*
X148660410Y-66108003D01*
X148647186Y-66039396D01*
X148673154Y-65974531D01*
X148682933Y-65963512D01*
X149168646Y-65477798D01*
X149149183Y-65463658D01*
X149139415Y-65456561D01*
X149139413Y-65456560D01*
X149121316Y-65447339D01*
X148968321Y-65369383D01*
X148785684Y-65310040D01*
X148785682Y-65310039D01*
X148785680Y-65310039D01*
X148596020Y-65280000D01*
X148596015Y-65280000D01*
X148403985Y-65280000D01*
X148403980Y-65280000D01*
X148214318Y-65310039D01*
X148033128Y-65368912D01*
X148031678Y-65369383D01*
X147959632Y-65406093D01*
X147860569Y-65456568D01*
X147856422Y-65459110D01*
X147855265Y-65457223D01*
X147837207Y-65463658D01*
X147831350Y-65477798D01*
X148317055Y-65963501D01*
X148350540Y-66024824D01*
X148345556Y-66094515D01*
X148303685Y-66150449D01*
X148291374Y-66158569D01*
X148254397Y-66179917D01*
X148254392Y-66179921D01*
X148179921Y-66254392D01*
X148179915Y-66254400D01*
X148158568Y-66291374D01*
X148108001Y-66339589D01*
X148039393Y-66352811D01*
X147974529Y-66326843D01*
X147963501Y-66317054D01*
X147477798Y-65831350D01*
X147464329Y-65836930D01*
X147458682Y-65856160D01*
X147459110Y-65856422D01*
X147458141Y-65858002D01*
X147458113Y-65858100D01*
X147457810Y-65858542D01*
X147456568Y-65860569D01*
X147421308Y-65929771D01*
X147369383Y-66031678D01*
X147369382Y-66031680D01*
X147369382Y-66031681D01*
X147310039Y-66214318D01*
X147280000Y-66403978D01*
X147280000Y-66596020D01*
X147310038Y-66785674D01*
X147310040Y-66785684D01*
X147369383Y-66968321D01*
X147437661Y-67102322D01*
X147456560Y-67139413D01*
X147456561Y-67139415D01*
X147467443Y-67154394D01*
X147477798Y-67168646D01*
X147963503Y-66682940D01*
X148024823Y-66649458D01*
X148094514Y-66654442D01*
X148150448Y-66696313D01*
X148158568Y-66708624D01*
X148179917Y-66745602D01*
X148179919Y-66745604D01*
X148179920Y-66745606D01*
X148254394Y-66820080D01*
X148254395Y-66820081D01*
X148254397Y-66820082D01*
X148291373Y-66841430D01*
X148339588Y-66891996D01*
X148352812Y-66960603D01*
X148326844Y-67025468D01*
X148317054Y-67036498D01*
X147831351Y-67522199D01*
X147831351Y-67522200D01*
X147831355Y-67522204D01*
X147860576Y-67543434D01*
X148031671Y-67630613D01*
X148031675Y-67630614D01*
X148031678Y-67630616D01*
X148214315Y-67689959D01*
X148403985Y-67720000D01*
X148596014Y-67720000D01*
X148596015Y-67720000D01*
X148785684Y-67689959D01*
X148968321Y-67630616D01*
X149139419Y-67543436D01*
X149168646Y-67522201D01*
X149168646Y-67522200D01*
X148941548Y-67295102D01*
X148682945Y-67036498D01*
X148649460Y-66975175D01*
X148654444Y-66905483D01*
X148696316Y-66849550D01*
X148708618Y-66841434D01*
X148745606Y-66820080D01*
X148820080Y-66745606D01*
X148841430Y-66708625D01*
X148891994Y-66660411D01*
X148960601Y-66647186D01*
X149025466Y-66673153D01*
X149036497Y-66682943D01*
X149522200Y-67168646D01*
X149522201Y-67168646D01*
X149543436Y-67139419D01*
X149630616Y-66968319D01*
X149646296Y-66920061D01*
X149661867Y-66888393D01*
X149668252Y-66879055D01*
X149722340Y-66834826D01*
X149791754Y-66826861D01*
X149854451Y-66857685D01*
X149856751Y-66859796D01*
X149890823Y-66912821D01*
X149909219Y-66969438D01*
X149911126Y-66972843D01*
X149978885Y-67105827D01*
X149996135Y-67139681D01*
X150109055Y-67295102D01*
X150244898Y-67430945D01*
X150400319Y-67543865D01*
X150570576Y-67630616D01*
X150571493Y-67631083D01*
X150662845Y-67660764D01*
X150754199Y-67690447D01*
X150943945Y-67720500D01*
X150943946Y-67720500D01*
X151136053Y-67720500D01*
X151136054Y-67720500D01*
X151136055Y-67720500D01*
X151186196Y-67712557D01*
X151221486Y-67712054D01*
X151232699Y-67713503D01*
X151296663Y-67741617D01*
X151335273Y-67799849D01*
X151336270Y-67869710D01*
X151336261Y-67869744D01*
X151336261Y-67869746D01*
X151335430Y-67872730D01*
X151303658Y-67927144D01*
X146891133Y-72339765D01*
X146862890Y-72360911D01*
X146860668Y-72362124D01*
X146857529Y-72363838D01*
X146789260Y-72378697D01*
X146723792Y-72354287D01*
X146681915Y-72298358D01*
X146676923Y-72228667D01*
X146676927Y-72228647D01*
X146677622Y-72225453D01*
X146693247Y-72186723D01*
X146734814Y-72119334D01*
X146789999Y-71952797D01*
X146800500Y-71850009D01*
X146800499Y-70649992D01*
X146799706Y-70642233D01*
X146789999Y-70547203D01*
X146789998Y-70547200D01*
X146747402Y-70418655D01*
X146734814Y-70380666D01*
X146642712Y-70231344D01*
X146518656Y-70107288D01*
X146425888Y-70050069D01*
X146425887Y-70050068D01*
X146425886Y-70050068D01*
X146369338Y-70015188D01*
X146369339Y-70015188D01*
X146369322Y-70015182D01*
X146369260Y-70015161D01*
X146367862Y-70014698D01*
X146211265Y-69962807D01*
X146208439Y-69961639D01*
X146202796Y-69959999D01*
X146100025Y-69949500D01*
X146100016Y-69949500D01*
X146100009Y-69949500D01*
X145947083Y-69949500D01*
X145908502Y-69943345D01*
X145052302Y-69663036D01*
X145052295Y-69663032D01*
X144571856Y-69505743D01*
X144548434Y-69495283D01*
X144520801Y-69479328D01*
X144520798Y-69479327D01*
X144520797Y-69479326D01*
X144520795Y-69479325D01*
X144520794Y-69479325D01*
X144489199Y-69470859D01*
X144445804Y-69459231D01*
X144445802Y-69459231D01*
X144437954Y-69457128D01*
X144437927Y-69457120D01*
X144397748Y-69446352D01*
X144393864Y-69445243D01*
X144391351Y-69444481D01*
X144389798Y-69444010D01*
X144389795Y-69444009D01*
X144389794Y-69444009D01*
X144388055Y-69443573D01*
X144382821Y-69442351D01*
X144368076Y-69438400D01*
X144368071Y-69438400D01*
X144368057Y-69438400D01*
X144343521Y-69438400D01*
X144331364Y-69437803D01*
X144322959Y-69436975D01*
X144286673Y-69433400D01*
X144286669Y-69433400D01*
X144185572Y-69433400D01*
X144131532Y-69436297D01*
X144127103Y-69436975D01*
X144108357Y-69438400D01*
X134922365Y-69438400D01*
X134816955Y-69438398D01*
X134816954Y-69438398D01*
X134816939Y-69438398D01*
X134816935Y-69438398D01*
X134816932Y-69438398D01*
X134816919Y-69438399D01*
X134816910Y-69438400D01*
X134816903Y-69438402D01*
X134816554Y-69438498D01*
X134815569Y-69438767D01*
X134794246Y-69444481D01*
X134794243Y-69444481D01*
X134794242Y-69444482D01*
X134768007Y-69451510D01*
X134768001Y-69451513D01*
X134665226Y-69479048D01*
X134664364Y-69479271D01*
X134664229Y-69479315D01*
X134664222Y-69479318D01*
X134662142Y-69480520D01*
X134614496Y-69508029D01*
X134614487Y-69508034D01*
X134545725Y-69547731D01*
X134540780Y-69550585D01*
X134528171Y-69557865D01*
X134527399Y-69558301D01*
X134527282Y-69558380D01*
X134527281Y-69558381D01*
X134527274Y-69558387D01*
X134462715Y-69622947D01*
X134462707Y-69622954D01*
X132600286Y-71485296D01*
X132572032Y-71506446D01*
X132558311Y-71513938D01*
X132490056Y-71528790D01*
X132488249Y-71528661D01*
X132430034Y-71509288D01*
X132423529Y-71505107D01*
X132402894Y-71488478D01*
X131183702Y-70269331D01*
X130459128Y-69544784D01*
X130437984Y-69516539D01*
X130432557Y-69506602D01*
X130417707Y-69438334D01*
X130442123Y-69372869D01*
X130498056Y-69330998D01*
X130505253Y-69328313D01*
X130548578Y-69320499D01*
X131327871Y-69320499D01*
X131327872Y-69320499D01*
X131387483Y-69314091D01*
X131522331Y-69263796D01*
X131637546Y-69177546D01*
X131723796Y-69062331D01*
X131774091Y-68927483D01*
X131780500Y-68867873D01*
X131780499Y-66972128D01*
X131774091Y-66912517D01*
X131770884Y-66903919D01*
X131768943Y-66898716D01*
X131761696Y-66879284D01*
X131755848Y-66857967D01*
X131751970Y-66836471D01*
X131750000Y-66814456D01*
X131750000Y-66732840D01*
X131769685Y-66665801D01*
X131822489Y-66620046D01*
X131891647Y-66610102D01*
X131906080Y-66613062D01*
X131950630Y-66625000D01*
X132049368Y-66625000D01*
X132049370Y-66625000D01*
X132093907Y-66613066D01*
X132163754Y-66614727D01*
X132221618Y-66653889D01*
X132249123Y-66718117D01*
X132250000Y-66732840D01*
X132250000Y-67044543D01*
X132248248Y-67065314D01*
X132244794Y-67085643D01*
X132239589Y-67105821D01*
X132234159Y-67121340D01*
X132234157Y-67121346D01*
X132234156Y-67121349D01*
X132219500Y-67251434D01*
X132219500Y-68588564D01*
X132234154Y-68718629D01*
X132234157Y-68718652D01*
X132234158Y-68718654D01*
X132234159Y-68718658D01*
X132286376Y-68867883D01*
X132291878Y-68883606D01*
X132384853Y-69031576D01*
X132508424Y-69155147D01*
X132656394Y-69248122D01*
X132724601Y-69271989D01*
X132813920Y-69303244D01*
X132817054Y-69304569D01*
X132818423Y-69304975D01*
X132821465Y-69305957D01*
X132824775Y-69306424D01*
X132828255Y-69306620D01*
X132832726Y-69307123D01*
X132862748Y-69310505D01*
X132862749Y-69310506D01*
X132878281Y-69312255D01*
X132948440Y-69320160D01*
X132950909Y-69320500D01*
X133588555Y-69320500D01*
X133598348Y-69320500D01*
X133605944Y-69318539D01*
X133718657Y-69305841D01*
X133883606Y-69248122D01*
X134031576Y-69155147D01*
X134155147Y-69031576D01*
X134248122Y-68883606D01*
X134305841Y-68718657D01*
X134320500Y-68588552D01*
X134320500Y-68433196D01*
X134340185Y-68366157D01*
X134365979Y-68337225D01*
X134410865Y-68300500D01*
X134522297Y-68209328D01*
X134586647Y-68182112D01*
X134600818Y-68181300D01*
X139413674Y-68181300D01*
X139487744Y-68181307D01*
X139492736Y-68181720D01*
X139493151Y-68181688D01*
X139502870Y-68181308D01*
X139515198Y-68181309D01*
X139530074Y-68172720D01*
X139544556Y-68168840D01*
X139571116Y-68161724D01*
X139571124Y-68161722D01*
X139649837Y-68140638D01*
X139650699Y-68140409D01*
X139650788Y-68140387D01*
X139650795Y-68140384D01*
X139651184Y-68140153D01*
X139652214Y-68139551D01*
X139725501Y-68097239D01*
X139725511Y-68097233D01*
X139756277Y-68079474D01*
X139786472Y-68062043D01*
X139787407Y-68061510D01*
X139787742Y-68061322D01*
X139787757Y-68061310D01*
X139788210Y-68060843D01*
X139789405Y-68059631D01*
X139798705Y-68050331D01*
X139846013Y-68020768D01*
X140862974Y-67670608D01*
X140903345Y-67654738D01*
X140908491Y-67652141D01*
X140908897Y-67652946D01*
X140926143Y-67644846D01*
X140968509Y-67631082D01*
X141139681Y-67543865D01*
X141295102Y-67430945D01*
X141430945Y-67295102D01*
X141543865Y-67139681D01*
X141631082Y-66968509D01*
X141633647Y-66960615D01*
X141646560Y-66920874D01*
X141662132Y-66889201D01*
X141668157Y-66880389D01*
X141722247Y-66836163D01*
X141791661Y-66828200D01*
X141854361Y-66859029D01*
X141881596Y-66898716D01*
X141882136Y-66898377D01*
X141882197Y-66898474D01*
X141882200Y-66898480D01*
X141882679Y-66898239D01*
X141887866Y-66908516D01*
X141887082Y-66908911D01*
X141895157Y-66926163D01*
X141908915Y-66968504D01*
X141908916Y-66968505D01*
X141908916Y-66968506D01*
X141924963Y-66999999D01*
X141924963Y-67000001D01*
X141924964Y-67000001D01*
X141996135Y-67139681D01*
X142109055Y-67295102D01*
X142244898Y-67430945D01*
X142400319Y-67543865D01*
X142570576Y-67630616D01*
X142571493Y-67631083D01*
X142662845Y-67660764D01*
X142754199Y-67690447D01*
X142943945Y-67720500D01*
X142943946Y-67720500D01*
X143136054Y-67720500D01*
X143136055Y-67720500D01*
X143325801Y-67690447D01*
X143508509Y-67631082D01*
X143679681Y-67543865D01*
X143835102Y-67430945D01*
X143970945Y-67295102D01*
X144083865Y-67139681D01*
X144171082Y-66968509D01*
X144172389Y-66964488D01*
X144177858Y-66947655D01*
X144230447Y-66785801D01*
X144260500Y-66596055D01*
X144260500Y-66403945D01*
X144230447Y-66214199D01*
X144195902Y-66107880D01*
X144195902Y-66107879D01*
X144171085Y-66031498D01*
X144171083Y-66031492D01*
X144114541Y-65920524D01*
X144107630Y-65906961D01*
X144083865Y-65860319D01*
X143970945Y-65704898D01*
X143835102Y-65569055D01*
X143679681Y-65456135D01*
X143576480Y-65403551D01*
X143508506Y-65368916D01*
X143440192Y-65346719D01*
X143421881Y-65339101D01*
X143402967Y-65329389D01*
X143402966Y-65329388D01*
X143402959Y-65329385D01*
X142641251Y-65067127D01*
X142532173Y-65029571D01*
X142385979Y-64979235D01*
X142338676Y-64949681D01*
X142113741Y-64724793D01*
X142092586Y-64696539D01*
X142092493Y-64696369D01*
X142087165Y-64686614D01*
X142072308Y-64618343D01*
X142096720Y-64552877D01*
X142152647Y-64511002D01*
X142159337Y-64508507D01*
X142159844Y-64508318D01*
X142203176Y-64500500D01*
X155489554Y-64500500D01*
X155496492Y-64500693D01*
X155503470Y-64501086D01*
X155510349Y-64501666D01*
X155523878Y-64503190D01*
X155583379Y-64509893D01*
X155605167Y-64514866D01*
X155615785Y-64516615D01*
X155636585Y-64521924D01*
X155696969Y-64543052D01*
X155703860Y-64547293D01*
X155709816Y-64548373D01*
X155722290Y-64554381D01*
X155734440Y-64561097D01*
X155793711Y-64598339D01*
X155805048Y-64606383D01*
X155815874Y-64615017D01*
X155819546Y-64619204D01*
X155822413Y-64620614D01*
X155826235Y-64624277D01*
X155875715Y-64673757D01*
X155884980Y-64684124D01*
X155893616Y-64694953D01*
X155901663Y-64706294D01*
X155938896Y-64765549D01*
X155945627Y-64777729D01*
X155951632Y-64790201D01*
X155956949Y-64803039D01*
X155980060Y-64869085D01*
X155983909Y-64882441D01*
X155986741Y-64894849D01*
X155986991Y-64895941D01*
X155989321Y-64909657D01*
X155998329Y-64989609D01*
X155998913Y-64996529D01*
X155999304Y-65003481D01*
X155999500Y-65010444D01*
X155999500Y-78332970D01*
X155994476Y-78367908D01*
X155991289Y-78378761D01*
X155953514Y-78437538D01*
X155889957Y-78466561D01*
X155820799Y-78456616D01*
X155813823Y-78453430D01*
X155777659Y-78428321D01*
X155746541Y-78397205D01*
X155746540Y-78397204D01*
X155671760Y-78322424D01*
X155671759Y-78322423D01*
X155670706Y-78321370D01*
X155670587Y-78321254D01*
X155222029Y-77872712D01*
X154604400Y-77255106D01*
X154572118Y-77198802D01*
X154164855Y-75641574D01*
X154162023Y-75632265D01*
X154160902Y-75628344D01*
X154113710Y-75452219D01*
X154112131Y-75448407D01*
X154090630Y-75396499D01*
X154072681Y-75353167D01*
X154066985Y-75339414D01*
X154055417Y-75311487D01*
X154028409Y-75246282D01*
X154028404Y-75246273D01*
X153916948Y-75053226D01*
X153781247Y-74876376D01*
X153781242Y-74876370D01*
X153623629Y-74718757D01*
X153623622Y-74718751D01*
X153623612Y-74718743D01*
X153623603Y-74718736D01*
X153448754Y-74584571D01*
X153446873Y-74583067D01*
X153445486Y-74582233D01*
X153443589Y-74581212D01*
X153255866Y-74472830D01*
X153255862Y-74472828D01*
X153253726Y-74471595D01*
X153253724Y-74471594D01*
X153253722Y-74471593D01*
X153047790Y-74386293D01*
X153047783Y-74386291D01*
X153047784Y-74386291D01*
X153047781Y-74386290D01*
X153042624Y-74384908D01*
X153042619Y-74384906D01*
X153002394Y-74374127D01*
X152969960Y-74360239D01*
X152960305Y-74354355D01*
X152913303Y-74302659D01*
X152901711Y-74233757D01*
X152929145Y-74169606D01*
X152929536Y-74169131D01*
X152973701Y-74135208D01*
X152974272Y-74134947D01*
X152975752Y-74134270D01*
X152995174Y-74127287D01*
X153047617Y-74113236D01*
X153253502Y-74027954D01*
X153253514Y-74027949D01*
X153446498Y-73916530D01*
X153512403Y-73865957D01*
X153512404Y-73865956D01*
X153512403Y-73865955D01*
X153512404Y-73865955D01*
X152829354Y-73182907D01*
X152795869Y-73121584D01*
X152800853Y-73051893D01*
X152842724Y-72995959D01*
X152855022Y-72987846D01*
X152868408Y-72980119D01*
X152980119Y-72868408D01*
X152987839Y-72855035D01*
X153038402Y-72806821D01*
X153107009Y-72793596D01*
X153171875Y-72819562D01*
X153182907Y-72829354D01*
X153865955Y-73512404D01*
X153865955Y-73512403D01*
X153865956Y-73512404D01*
X153865957Y-73512403D01*
X153916530Y-73446498D01*
X154027949Y-73253514D01*
X154027954Y-73253502D01*
X154113236Y-73047618D01*
X154170911Y-72832367D01*
X154170914Y-72832354D01*
X154200000Y-72611424D01*
X154200000Y-72388575D01*
X154170914Y-72167645D01*
X154170911Y-72167632D01*
X154170888Y-72167547D01*
X154133666Y-72028630D01*
X154113236Y-71952381D01*
X154027954Y-71746497D01*
X154027949Y-71746485D01*
X153919573Y-71558772D01*
X153916532Y-71553505D01*
X153865957Y-71487595D01*
X153865956Y-71487595D01*
X153865955Y-71487595D01*
X153865954Y-71487595D01*
X153182906Y-72170643D01*
X153121583Y-72204128D01*
X153051891Y-72199144D01*
X152995958Y-72157272D01*
X152987838Y-72144961D01*
X152980122Y-72131598D01*
X152980119Y-72131592D01*
X152868408Y-72019881D01*
X152861586Y-72015942D01*
X152855032Y-72012158D01*
X152806817Y-71961590D01*
X152793596Y-71892983D01*
X152819565Y-71828118D01*
X152829343Y-71817101D01*
X153512403Y-71134043D01*
X153512403Y-71134040D01*
X153500901Y-71125214D01*
X153446511Y-71083478D01*
X153446494Y-71083466D01*
X153446487Y-71083462D01*
X153253520Y-70972054D01*
X153253508Y-70972047D01*
X153146866Y-70927874D01*
X153047618Y-70886763D01*
X153043345Y-70885618D01*
X152832382Y-70829091D01*
X152832367Y-70829088D01*
X152832354Y-70829085D01*
X152832350Y-70829084D01*
X152832344Y-70829083D01*
X152611426Y-70800000D01*
X152611425Y-70800000D01*
X152388575Y-70800000D01*
X152388574Y-70800000D01*
X152167654Y-70829083D01*
X152167641Y-70829086D01*
X152167616Y-70829091D01*
X151952387Y-70886761D01*
X151952383Y-70886762D01*
X151952381Y-70886763D01*
X151919403Y-70900423D01*
X151746490Y-70972047D01*
X151746471Y-70972058D01*
X151553508Y-71083463D01*
X151487595Y-71134040D01*
X151487595Y-71134043D01*
X152170645Y-71817092D01*
X152204130Y-71878415D01*
X152199146Y-71948106D01*
X152157274Y-72004040D01*
X152144967Y-72012159D01*
X152131592Y-72019881D01*
X152131589Y-72019883D01*
X152019883Y-72131589D01*
X152019881Y-72131592D01*
X152012159Y-72144967D01*
X151961590Y-72193181D01*
X151892983Y-72206402D01*
X151828119Y-72180433D01*
X151817092Y-72170645D01*
X151134043Y-71487595D01*
X151134040Y-71487595D01*
X151083463Y-71553508D01*
X150972065Y-71746459D01*
X150972047Y-71746490D01*
X150900523Y-71919163D01*
X150886839Y-71952199D01*
X150886764Y-71952379D01*
X150886761Y-71952387D01*
X150829091Y-72167616D01*
X150829086Y-72167641D01*
X150829085Y-72167645D01*
X150800000Y-72388574D01*
X150800000Y-72611424D01*
X150829083Y-72832344D01*
X150829085Y-72832354D01*
X150829091Y-72832382D01*
X150886634Y-73047138D01*
X150886763Y-73047618D01*
X150922068Y-73132850D01*
X150972047Y-73253508D01*
X150972052Y-73253517D01*
X150972054Y-73253520D01*
X151082444Y-73444725D01*
X151083466Y-73446494D01*
X151083478Y-73446511D01*
X151134039Y-73512402D01*
X151134040Y-73512403D01*
X151134043Y-73512403D01*
X151817093Y-72829351D01*
X151878414Y-72795868D01*
X151948105Y-72800852D01*
X152004039Y-72842723D01*
X152012158Y-72855032D01*
X152013658Y-72857630D01*
X152019881Y-72868408D01*
X152131592Y-72980119D01*
X152144964Y-72987839D01*
X152193179Y-73038407D01*
X152206401Y-73107014D01*
X152180433Y-73171879D01*
X152170644Y-73182907D01*
X151487595Y-73865954D01*
X151487595Y-73865957D01*
X151553505Y-73916532D01*
X151554222Y-73916946D01*
X151746485Y-74027949D01*
X151746497Y-74027954D01*
X151952383Y-74113236D01*
X151997603Y-74125352D01*
X152030041Y-74139244D01*
X152039705Y-74145134D01*
X152086701Y-74196835D01*
X152098286Y-74265738D01*
X152070780Y-74329965D01*
X152070754Y-74329997D01*
X152070364Y-74330469D01*
X152026271Y-74364285D01*
X152024223Y-74365220D01*
X152004822Y-74372194D01*
X151967986Y-74382064D01*
X151959820Y-74383139D01*
X151955494Y-74384932D01*
X151955486Y-74384934D01*
X151955487Y-74384935D01*
X151746272Y-74471594D01*
X151553237Y-74583044D01*
X151553212Y-74583061D01*
X151553210Y-74583062D01*
X151376395Y-74718736D01*
X151376379Y-74718749D01*
X151376369Y-74718758D01*
X151376361Y-74718765D01*
X151218765Y-74876361D01*
X151218758Y-74876369D01*
X151218749Y-74876379D01*
X151218736Y-74876395D01*
X151083062Y-75053210D01*
X151083061Y-75053212D01*
X151083044Y-75053237D01*
X150971595Y-75246272D01*
X150887862Y-75448422D01*
X150886293Y-75452209D01*
X150886290Y-75452219D01*
X150835554Y-75641574D01*
X150834457Y-75645667D01*
X150834456Y-75645669D01*
X150828601Y-75667517D01*
X150828593Y-75667550D01*
X150828592Y-75667556D01*
X150799503Y-75888516D01*
X150799500Y-75888541D01*
X150799500Y-76111457D01*
X150799503Y-76111482D01*
X150828593Y-76332447D01*
X150828597Y-76332467D01*
X150871490Y-76492546D01*
X150886288Y-76547776D01*
X150886290Y-76547780D01*
X150886293Y-76547790D01*
X150926796Y-76645573D01*
X150962397Y-76731521D01*
X150971593Y-76753722D01*
X150971600Y-76753736D01*
X151081212Y-76943589D01*
X151082233Y-76945486D01*
X151083067Y-76946873D01*
X151084571Y-76948754D01*
X151186869Y-77082073D01*
X151218751Y-77123622D01*
X151218757Y-77123629D01*
X151376370Y-77281242D01*
X151376377Y-77281248D01*
X151411089Y-77307883D01*
X151553226Y-77416948D01*
X151698419Y-77500776D01*
X151745415Y-77527909D01*
X151746408Y-77528493D01*
X151748004Y-77529183D01*
X151748450Y-77529383D01*
X151750321Y-77530082D01*
X151808346Y-77554116D01*
X151838689Y-77572118D01*
X151845698Y-77577766D01*
X151885549Y-77635154D01*
X151888047Y-77704979D01*
X151852399Y-77765070D01*
X151796431Y-77794993D01*
X151791445Y-77796172D01*
X151762911Y-77799500D01*
X151499974Y-77799500D01*
X151395495Y-77810174D01*
X151389915Y-77812415D01*
X151230667Y-77865184D01*
X151230655Y-77865190D01*
X151081354Y-77957282D01*
X151081341Y-77957291D01*
X151081338Y-77957293D01*
X150957293Y-78081338D01*
X150957291Y-78081341D01*
X150957282Y-78081354D01*
X150865190Y-78230655D01*
X150865187Y-78230662D01*
X150865186Y-78230664D01*
X150816112Y-78378761D01*
X150810001Y-78397202D01*
X150810000Y-78397205D01*
X150799500Y-78499974D01*
X150799500Y-80500024D01*
X150810174Y-80604502D01*
X150812415Y-80610083D01*
X150865184Y-80769331D01*
X150865190Y-80769343D01*
X150897309Y-80821415D01*
X150957286Y-80918651D01*
X150957289Y-80918655D01*
X150957291Y-80918657D01*
X150957293Y-80918660D01*
X151081338Y-81042705D01*
X151081341Y-81042707D01*
X151081344Y-81042710D01*
X151081348Y-81042713D01*
X151230662Y-81134812D01*
X151230664Y-81134813D01*
X151230666Y-81134814D01*
X151397203Y-81189999D01*
X151499992Y-81200500D01*
X151499997Y-81200500D01*
X153500003Y-81200500D01*
X153500008Y-81200500D01*
X153602797Y-81189999D01*
X153769334Y-81134814D01*
X153918655Y-81042711D01*
X154042711Y-80918655D01*
X154134814Y-80769334D01*
X154189999Y-80602797D01*
X154200500Y-80500008D01*
X154200500Y-78866843D01*
X154205521Y-78831916D01*
X154208707Y-78821063D01*
X154246477Y-78762282D01*
X154310031Y-78733253D01*
X154379186Y-78743191D01*
X154386177Y-78746383D01*
X154422339Y-78771492D01*
X154624095Y-78973239D01*
X154624096Y-78973240D01*
X154658577Y-79007720D01*
X154679722Y-79035965D01*
X154692331Y-79059057D01*
X154707500Y-79118483D01*
X154707500Y-82079761D01*
X154702474Y-82114706D01*
X154698636Y-82127773D01*
X154660857Y-82186548D01*
X154597299Y-82215567D01*
X154535296Y-82208620D01*
X154527576Y-82205661D01*
X154503063Y-82192977D01*
X154450242Y-82157684D01*
X154450238Y-82157681D01*
X154450231Y-82157677D01*
X154450218Y-82157671D01*
X154277252Y-82086027D01*
X154277225Y-82086021D01*
X154093622Y-82049500D01*
X154093620Y-82049500D01*
X154093616Y-82049500D01*
X153906384Y-82049500D01*
X153906379Y-82049500D01*
X153906377Y-82049500D01*
X153722773Y-82086021D01*
X153722746Y-82086027D01*
X153549776Y-82157672D01*
X153549766Y-82157677D01*
X153394089Y-82261698D01*
X153394088Y-82261699D01*
X153394082Y-82261704D01*
X153261704Y-82394082D01*
X153261699Y-82394088D01*
X153261698Y-82394089D01*
X153157677Y-82549766D01*
X153157672Y-82549776D01*
X153086027Y-82722746D01*
X153086021Y-82722773D01*
X153049500Y-82906376D01*
X153049500Y-82906379D01*
X153049500Y-83093620D01*
X153049500Y-83093622D01*
X153049499Y-83093622D01*
X153086021Y-83277225D01*
X153086027Y-83277252D01*
X153157672Y-83450222D01*
X153157677Y-83450232D01*
X153261698Y-83605909D01*
X153261699Y-83605910D01*
X153261704Y-83605916D01*
X153394082Y-83738294D01*
X153394088Y-83738299D01*
X153394092Y-83738302D01*
X153549762Y-83842318D01*
X153549775Y-83842325D01*
X153549779Y-83842327D01*
X153568171Y-83849944D01*
X153608767Y-83866760D01*
X153654407Y-83885664D01*
X153708809Y-83929504D01*
X153730875Y-83995798D01*
X153713597Y-84063497D01*
X153662460Y-84111108D01*
X153646090Y-84117887D01*
X153570101Y-84143162D01*
X153530965Y-84149500D01*
X153349998Y-84149500D01*
X153349981Y-84149501D01*
X153335959Y-84150933D01*
X153247198Y-84160000D01*
X153247193Y-84160001D01*
X153247032Y-84160056D01*
X153080667Y-84215185D01*
X153080665Y-84215186D01*
X153080663Y-84215187D01*
X153013410Y-84256669D01*
X152931340Y-84307290D01*
X152807290Y-84431340D01*
X152765539Y-84499029D01*
X152725070Y-84564641D01*
X152715186Y-84580665D01*
X152715177Y-84580691D01*
X152695162Y-84641095D01*
X152692929Y-84647834D01*
X152681738Y-84681607D01*
X152670300Y-84716123D01*
X152661852Y-84729069D01*
X152660365Y-84743630D01*
X152659541Y-84749883D01*
X152659359Y-84753473D01*
X152649500Y-84849973D01*
X152649500Y-84849996D01*
X152649501Y-86150000D01*
X152649501Y-86150026D01*
X152654983Y-86203684D01*
X152660000Y-86252796D01*
X152660001Y-86252799D01*
X152696911Y-86364184D01*
X152696910Y-86364184D01*
X152715182Y-86419325D01*
X152715185Y-86419330D01*
X152715186Y-86419334D01*
X152807288Y-86568656D01*
X152931344Y-86692712D01*
X153080666Y-86784814D01*
X153247203Y-86839999D01*
X153349991Y-86850500D01*
X154650008Y-86850499D01*
X154752797Y-86839999D01*
X154919334Y-86784814D01*
X155068656Y-86692712D01*
X155192712Y-86568656D01*
X155284814Y-86419334D01*
X155339999Y-86252797D01*
X155350500Y-86150009D01*
X155350499Y-85969089D01*
X155356839Y-85929947D01*
X155357984Y-85926507D01*
X155757840Y-84724544D01*
X155797680Y-84667147D01*
X155862227Y-84640399D01*
X155930988Y-84652795D01*
X155982133Y-84700398D01*
X155999500Y-84763687D01*
X155999500Y-87989554D01*
X155999304Y-87996517D01*
X155998913Y-88003469D01*
X155998329Y-88010389D01*
X155990106Y-88083374D01*
X155985131Y-88105168D01*
X155983383Y-88115787D01*
X155978072Y-88136596D01*
X155956949Y-88196960D01*
X155952711Y-88203844D01*
X155951632Y-88209797D01*
X155945627Y-88222269D01*
X155938896Y-88234449D01*
X155901663Y-88293704D01*
X155893616Y-88305045D01*
X155884980Y-88315874D01*
X155880788Y-88319550D01*
X155879377Y-88322420D01*
X155875715Y-88326241D01*
X155826241Y-88375715D01*
X155815874Y-88384980D01*
X155805045Y-88393616D01*
X155793704Y-88401663D01*
X155734449Y-88438896D01*
X155722269Y-88445627D01*
X155709797Y-88451632D01*
X155696959Y-88456949D01*
X155630913Y-88480060D01*
X155617557Y-88483909D01*
X155608348Y-88486011D01*
X155604053Y-88486991D01*
X155590341Y-88489321D01*
X155510389Y-88498329D01*
X155503470Y-88498913D01*
X155496519Y-88499304D01*
X155489555Y-88499500D01*
X79510445Y-88499500D01*
X79503482Y-88499304D01*
X79496530Y-88498913D01*
X79489610Y-88498329D01*
X79416619Y-88490105D01*
X79394847Y-88485135D01*
X79391362Y-88484561D01*
X79391361Y-88484561D01*
X79391359Y-88484561D01*
X79384214Y-88483385D01*
X79363407Y-88478073D01*
X79335463Y-88468295D01*
X79303038Y-88456949D01*
X79296153Y-88452711D01*
X79290201Y-88451632D01*
X79277729Y-88445627D01*
X79265549Y-88438896D01*
X79206294Y-88401663D01*
X79194953Y-88393616D01*
X79184124Y-88384980D01*
X79180448Y-88380789D01*
X79177580Y-88379379D01*
X79173757Y-88375715D01*
X79124283Y-88326241D01*
X79115018Y-88315874D01*
X79106382Y-88305045D01*
X79098335Y-88293704D01*
X79061099Y-88234444D01*
X79054376Y-88222280D01*
X79048371Y-88209810D01*
X79043052Y-88196970D01*
X79021278Y-88134743D01*
X79019932Y-88130895D01*
X79016085Y-88117539D01*
X79013010Y-88104068D01*
X79010680Y-88090355D01*
X79001669Y-88010372D01*
X79001084Y-88003434D01*
X79000695Y-87996498D01*
X79000500Y-87989554D01*
X79000500Y-86149998D01*
X85775883Y-86149998D01*
X85775884Y-86149999D01*
X85775885Y-86150000D01*
X86263631Y-86150000D01*
X86330670Y-86169685D01*
X86376425Y-86222489D01*
X86386369Y-86291647D01*
X86383406Y-86306092D01*
X86375000Y-86337463D01*
X86375000Y-86462536D01*
X86383406Y-86493908D01*
X86381743Y-86563758D01*
X86342579Y-86621620D01*
X86278351Y-86649123D01*
X86263631Y-86650000D01*
X85775885Y-86650000D01*
X85777084Y-86657582D01*
X85830592Y-86822259D01*
X85909197Y-86976527D01*
X86010961Y-87116596D01*
X86133402Y-87239037D01*
X86252266Y-87325395D01*
X86273475Y-87340804D01*
X86427742Y-87419408D01*
X86592415Y-87472914D01*
X86763429Y-87500000D01*
X87500000Y-87500000D01*
X87500000Y-86999000D01*
X87519685Y-86931961D01*
X87572489Y-86886206D01*
X87624000Y-86875000D01*
X87876000Y-86875000D01*
X87943039Y-86894685D01*
X87988794Y-86947489D01*
X88000000Y-86999000D01*
X88000000Y-87500000D01*
X88736570Y-87500000D01*
X88736571Y-87500000D01*
X88907584Y-87472914D01*
X89072257Y-87419408D01*
X89226524Y-87340804D01*
X89305170Y-87283664D01*
X89366596Y-87239037D01*
X89366598Y-87239034D01*
X89366602Y-87239032D01*
X89489032Y-87116602D01*
X89489034Y-87116598D01*
X89489037Y-87116596D01*
X89537385Y-87050050D01*
X89590804Y-86976524D01*
X89669408Y-86822255D01*
X89722914Y-86657584D01*
X89724115Y-86650000D01*
X89236369Y-86650000D01*
X89169330Y-86630315D01*
X89123575Y-86577511D01*
X89113631Y-86508353D01*
X89116594Y-86493908D01*
X89118825Y-86485579D01*
X89125000Y-86462535D01*
X89125000Y-86337465D01*
X89116594Y-86306092D01*
X89118257Y-86236242D01*
X89157421Y-86178380D01*
X89221649Y-86150877D01*
X89236369Y-86150000D01*
X89724115Y-86150000D01*
X89724115Y-86149998D01*
X91025883Y-86149998D01*
X91025884Y-86149999D01*
X91025885Y-86150000D01*
X91513631Y-86150000D01*
X91580670Y-86169685D01*
X91626425Y-86222489D01*
X91636369Y-86291647D01*
X91633406Y-86306092D01*
X91625000Y-86337463D01*
X91625000Y-86462536D01*
X91633406Y-86493908D01*
X91631743Y-86563758D01*
X91592579Y-86621620D01*
X91528351Y-86649123D01*
X91513631Y-86650000D01*
X91025885Y-86650000D01*
X91027084Y-86657582D01*
X91080592Y-86822259D01*
X91159197Y-86976527D01*
X91260961Y-87116596D01*
X91383402Y-87239037D01*
X91502266Y-87325395D01*
X91523475Y-87340804D01*
X91677742Y-87419408D01*
X91842415Y-87472914D01*
X92013429Y-87500000D01*
X92750000Y-87500000D01*
X92750000Y-86999000D01*
X92769685Y-86931961D01*
X92822489Y-86886206D01*
X92874000Y-86875000D01*
X93126000Y-86875000D01*
X93193039Y-86894685D01*
X93238794Y-86947489D01*
X93250000Y-86999000D01*
X93250000Y-87500000D01*
X93986570Y-87500000D01*
X93986571Y-87500000D01*
X94157584Y-87472914D01*
X94322257Y-87419408D01*
X94476524Y-87340804D01*
X94555170Y-87283664D01*
X94616596Y-87239037D01*
X94616598Y-87239034D01*
X94616602Y-87239032D01*
X94739032Y-87116602D01*
X94739034Y-87116598D01*
X94739037Y-87116596D01*
X94787385Y-87050050D01*
X94840804Y-86976524D01*
X94919408Y-86822255D01*
X94972914Y-86657584D01*
X94974115Y-86650000D01*
X94486369Y-86650000D01*
X94419330Y-86630315D01*
X94373575Y-86577511D01*
X94363631Y-86508353D01*
X94366594Y-86493908D01*
X94368825Y-86485579D01*
X94375000Y-86462535D01*
X94375000Y-86337465D01*
X94366594Y-86306092D01*
X94368257Y-86236242D01*
X94407421Y-86178380D01*
X94471649Y-86150877D01*
X94486369Y-86150000D01*
X94974115Y-86150000D01*
X94974115Y-86149998D01*
X94972914Y-86142416D01*
X94933107Y-86019905D01*
X94919408Y-85977744D01*
X94919406Y-85977741D01*
X94919406Y-85977739D01*
X94886824Y-85913794D01*
X94840804Y-85823475D01*
X94822033Y-85797639D01*
X94739037Y-85683402D01*
X94616596Y-85560961D01*
X94476527Y-85459197D01*
X94476526Y-85459196D01*
X94476524Y-85459195D01*
X94322257Y-85380591D01*
X94235369Y-85352359D01*
X94157584Y-85327084D01*
X93986575Y-85300000D01*
X93986571Y-85300000D01*
X93250000Y-85300000D01*
X93250000Y-85801000D01*
X93230315Y-85868039D01*
X93177511Y-85913794D01*
X93126000Y-85925000D01*
X92874000Y-85925000D01*
X92806961Y-85905315D01*
X92761206Y-85852511D01*
X92750000Y-85801000D01*
X92750000Y-85300000D01*
X92013429Y-85300000D01*
X92013425Y-85300000D01*
X91842416Y-85327084D01*
X91842410Y-85327086D01*
X91764630Y-85352359D01*
X91677742Y-85380591D01*
X91590223Y-85425185D01*
X91523471Y-85459197D01*
X91383402Y-85560961D01*
X91260961Y-85683402D01*
X91159197Y-85823471D01*
X91080592Y-85977739D01*
X91027084Y-86142417D01*
X91025883Y-86149998D01*
X89724115Y-86149998D01*
X89722914Y-86142416D01*
X89683107Y-86019905D01*
X89669408Y-85977744D01*
X89669406Y-85977741D01*
X89669406Y-85977739D01*
X89636824Y-85913794D01*
X89590804Y-85823475D01*
X89572033Y-85797639D01*
X89489037Y-85683402D01*
X89366596Y-85560961D01*
X89226527Y-85459197D01*
X89226526Y-85459196D01*
X89226524Y-85459195D01*
X89072257Y-85380591D01*
X88985369Y-85352359D01*
X88907584Y-85327084D01*
X88736575Y-85300000D01*
X88736571Y-85300000D01*
X88000000Y-85300000D01*
X88000000Y-85801000D01*
X87980315Y-85868039D01*
X87927511Y-85913794D01*
X87876000Y-85925000D01*
X87624000Y-85925000D01*
X87556961Y-85905315D01*
X87511206Y-85852511D01*
X87500000Y-85801000D01*
X87500000Y-85300000D01*
X86763429Y-85300000D01*
X86763425Y-85300000D01*
X86592416Y-85327084D01*
X86592410Y-85327086D01*
X86514630Y-85352359D01*
X86427742Y-85380591D01*
X86340223Y-85425185D01*
X86273471Y-85459197D01*
X86133402Y-85560961D01*
X86010961Y-85683402D01*
X85909197Y-85823471D01*
X85830592Y-85977739D01*
X85777084Y-86142417D01*
X85775883Y-86149998D01*
X79000500Y-86149998D01*
X79000500Y-65010444D01*
X79000695Y-65003492D01*
X79001086Y-64996529D01*
X79001671Y-64989599D01*
X79002839Y-64979236D01*
X79009893Y-64916617D01*
X79014862Y-64894849D01*
X79015435Y-64891365D01*
X79015437Y-64891362D01*
X79015436Y-64891358D01*
X79016614Y-64884213D01*
X79021925Y-64863407D01*
X79043055Y-64803022D01*
X79047292Y-64796138D01*
X79048372Y-64790186D01*
X79054376Y-64777716D01*
X79061086Y-64765574D01*
X79098353Y-64706265D01*
X79106374Y-64694961D01*
X79115016Y-64684124D01*
X79119202Y-64680453D01*
X79120612Y-64677588D01*
X79124252Y-64673788D01*
X79173774Y-64624266D01*
X79184114Y-64615024D01*
X79194961Y-64606374D01*
X79206265Y-64598353D01*
X79265574Y-64561086D01*
X79277716Y-64554376D01*
X79290198Y-64548366D01*
X79303014Y-64543058D01*
X79369098Y-64519933D01*
X79382444Y-64516088D01*
X79395955Y-64513004D01*
X79409641Y-64510680D01*
X79462386Y-64504737D01*
X79478755Y-64502893D01*
X79478755Y-64502894D01*
X79478759Y-64502892D01*
X79489662Y-64501664D01*
X79496549Y-64501085D01*
X79503503Y-64500695D01*
X79510446Y-64500500D01*
X86950883Y-64500500D01*
X86985814Y-64505522D01*
G37*
G04 #@! TD.AperFunction*
G04 #@! TA.AperFunction,Conductor*
G36*
X139984707Y-81924250D02*
G01*
X140040641Y-81966121D01*
X140048759Y-81978429D01*
X140059890Y-81997708D01*
X140162292Y-82100110D01*
X140162293Y-82100111D01*
X140162295Y-82100112D01*
X140181563Y-82111236D01*
X140229780Y-82161802D01*
X140243004Y-82230409D01*
X140217037Y-82295274D01*
X140207246Y-82306305D01*
X139559299Y-82954249D01*
X139559300Y-82954249D01*
X139559300Y-82954250D01*
X139661416Y-83028442D01*
X139824276Y-83111424D01*
X139885819Y-83142782D01*
X140030294Y-83189724D01*
X140061963Y-83205293D01*
X140073421Y-83213127D01*
X140117652Y-83267214D01*
X140125620Y-83336628D01*
X140125618Y-83336640D01*
X140125049Y-83339927D01*
X140103709Y-83390933D01*
X140102562Y-83392536D01*
X140089401Y-83408060D01*
X140019483Y-83477978D01*
X140019481Y-83477981D01*
X140018682Y-83479228D01*
X140017619Y-83481206D01*
X139981187Y-83544308D01*
X139981183Y-83544315D01*
X139940443Y-83614872D01*
X139940426Y-83614904D01*
X139940425Y-83614907D01*
X139940423Y-83614912D01*
X139928659Y-83658820D01*
X139928655Y-83658830D01*
X139928656Y-83658831D01*
X139899501Y-83767623D01*
X139899500Y-83767641D01*
X139899500Y-83788914D01*
X139899498Y-83847162D01*
X139886793Y-83901834D01*
X139611294Y-84462624D01*
X139564066Y-84514115D01*
X139496498Y-84531899D01*
X139430041Y-84510329D01*
X139388704Y-84462624D01*
X139387711Y-84460603D01*
X139192626Y-84063497D01*
X139113205Y-83901831D01*
X139100500Y-83847155D01*
X139100500Y-82744386D01*
X139105523Y-82709452D01*
X139109799Y-82694889D01*
X139147573Y-82636110D01*
X139180968Y-82620207D01*
X139179998Y-82618344D01*
X139196912Y-82609534D01*
X139358340Y-82448106D01*
X139853695Y-81952749D01*
X139915016Y-81919266D01*
X139984707Y-81924250D01*
G37*
G04 #@! TD.AperFunction*
G04 #@! TA.AperFunction,Conductor*
G36*
X143836954Y-70659085D02*
G01*
X143882709Y-70711889D01*
X143887762Y-70724826D01*
X144143593Y-71506446D01*
X144193348Y-71658457D01*
X144199500Y-71697030D01*
X144199500Y-71850001D01*
X144199500Y-71850009D01*
X144199503Y-71850045D01*
X144208222Y-71935387D01*
X144210000Y-71952796D01*
X144210001Y-71952799D01*
X144265185Y-72119331D01*
X144265187Y-72119336D01*
X144270149Y-72127381D01*
X144357288Y-72268656D01*
X144481344Y-72392712D01*
X144630666Y-72484814D01*
X144797203Y-72539999D01*
X144899991Y-72550500D01*
X146100008Y-72550499D01*
X146202797Y-72539999D01*
X146369334Y-72484814D01*
X146434439Y-72444657D01*
X146466817Y-72430590D01*
X146472706Y-72428979D01*
X146542563Y-72430276D01*
X146600630Y-72469136D01*
X146628469Y-72533219D01*
X146617243Y-72602181D01*
X146617236Y-72602196D01*
X146615822Y-72605145D01*
X146591693Y-72639213D01*
X144031286Y-75199678D01*
X144031284Y-75199679D01*
X143919484Y-75311478D01*
X143919479Y-75311484D01*
X143919478Y-75311485D01*
X143840432Y-75448397D01*
X143840427Y-75448407D01*
X143840418Y-75448426D01*
X143840415Y-75448435D01*
X143819694Y-75525774D01*
X143819694Y-75525775D01*
X143799499Y-75601145D01*
X143799499Y-75601147D01*
X143799500Y-75699500D01*
X143799500Y-79628961D01*
X143794476Y-79663898D01*
X143787064Y-79689139D01*
X143755767Y-79741886D01*
X142253477Y-81244096D01*
X142225219Y-81265247D01*
X142213039Y-81271897D01*
X142144766Y-81286746D01*
X142079307Y-81262329D01*
X142076634Y-81260328D01*
X142040866Y-81218146D01*
X142039959Y-81216397D01*
X142032107Y-81197629D01*
X141982782Y-81045819D01*
X141957390Y-80995985D01*
X141868442Y-80821416D01*
X141817931Y-80751895D01*
X141808391Y-80725157D01*
X141794249Y-80719299D01*
X141146305Y-81367246D01*
X141084982Y-81400731D01*
X141015291Y-81395747D01*
X140959357Y-81353876D01*
X140951236Y-81341563D01*
X140940112Y-81322295D01*
X140940111Y-81322293D01*
X140940110Y-81322292D01*
X140837708Y-81219890D01*
X140837707Y-81219889D01*
X140818433Y-81208762D01*
X140770217Y-81158195D01*
X140756993Y-81089588D01*
X140782961Y-81024723D01*
X140792751Y-81013693D01*
X140887785Y-80918660D01*
X141440698Y-80365748D01*
X141338583Y-80291557D01*
X141338579Y-80291555D01*
X141114184Y-80177218D01*
X141114181Y-80177217D01*
X140874670Y-80099397D01*
X140689210Y-80070023D01*
X140625928Y-80060000D01*
X140625927Y-80060000D01*
X140374073Y-80060000D01*
X140374072Y-80060000D01*
X140307816Y-80070494D01*
X140125328Y-80099397D01*
X139885817Y-80177217D01*
X139885804Y-80177223D01*
X139661418Y-80291555D01*
X139559300Y-80365747D01*
X139559300Y-80365748D01*
X140207246Y-81013694D01*
X140240731Y-81075017D01*
X140235747Y-81144708D01*
X140193876Y-81200642D01*
X140181566Y-81208762D01*
X140162293Y-81219889D01*
X140162290Y-81219891D01*
X140059891Y-81322290D01*
X140059889Y-81322293D01*
X140048762Y-81341566D01*
X139998194Y-81389781D01*
X139929587Y-81403003D01*
X139864722Y-81377035D01*
X139853694Y-81367246D01*
X139199075Y-80712626D01*
X139199074Y-80712625D01*
X139180853Y-80704305D01*
X139181505Y-80702875D01*
X139130777Y-80667925D01*
X139128807Y-80665499D01*
X139111419Y-80636931D01*
X139111165Y-80636349D01*
X139102073Y-80604381D01*
X139101760Y-80602202D01*
X139100500Y-80584571D01*
X139100500Y-73132850D01*
X139105522Y-73097917D01*
X139107847Y-73089999D01*
X139109433Y-73084598D01*
X139147206Y-73025821D01*
X139210758Y-72996796D01*
X139211433Y-72996699D01*
X139271332Y-73002862D01*
X139277613Y-73005139D01*
X139300443Y-73016173D01*
X139330665Y-73034814D01*
X139497202Y-73089999D01*
X139599990Y-73100500D01*
X139599995Y-73100500D01*
X141400005Y-73100500D01*
X141400010Y-73100500D01*
X141502798Y-73089999D01*
X141669335Y-73034814D01*
X141818656Y-72942712D01*
X141942712Y-72818656D01*
X142034814Y-72669335D01*
X142089999Y-72502798D01*
X142100500Y-72400010D01*
X142100500Y-70781229D01*
X142105523Y-70746293D01*
X142105661Y-70745825D01*
X142109927Y-70731294D01*
X142147672Y-70672544D01*
X142149041Y-70671357D01*
X142203920Y-70643877D01*
X142211479Y-70642233D01*
X142237832Y-70639400D01*
X143769915Y-70639400D01*
X143836954Y-70659085D01*
G37*
G04 #@! TD.AperFunction*
G04 #@! TA.AperFunction,Conductor*
G36*
X125694499Y-65234921D02*
G01*
X125705352Y-65238107D01*
X125764133Y-65275877D01*
X125793162Y-65339431D01*
X125783223Y-65408590D01*
X125783222Y-65408592D01*
X125780037Y-65415567D01*
X125754921Y-65451742D01*
X124999283Y-66207378D01*
X124999283Y-66207379D01*
X124999281Y-66207381D01*
X124999281Y-66207382D01*
X124999279Y-66207385D01*
X124964195Y-66268154D01*
X124964194Y-66268156D01*
X124920223Y-66344314D01*
X124920223Y-66344315D01*
X124879299Y-66497043D01*
X124879299Y-66497045D01*
X124879299Y-66667500D01*
X124879300Y-66667551D01*
X124879300Y-71273755D01*
X124874275Y-71308699D01*
X124870626Y-71321123D01*
X124832847Y-71379898D01*
X124769289Y-71408918D01*
X124705020Y-71401077D01*
X124696433Y-71397592D01*
X124670179Y-71383013D01*
X124637093Y-71358975D01*
X124636753Y-71358685D01*
X124629266Y-71353288D01*
X124629202Y-71353242D01*
X124629201Y-71353241D01*
X124629199Y-71353240D01*
X124629198Y-71353239D01*
X124629189Y-71353233D01*
X124628777Y-71353025D01*
X124576620Y-71326450D01*
X124555344Y-71315609D01*
X124460841Y-71267456D01*
X124460838Y-71267455D01*
X124460836Y-71267454D01*
X124281118Y-71209059D01*
X124281112Y-71209058D01*
X124094491Y-71179500D01*
X124094486Y-71179500D01*
X124094481Y-71179500D01*
X123905519Y-71179500D01*
X123905514Y-71179500D01*
X123905509Y-71179500D01*
X123718886Y-71209058D01*
X123718884Y-71209058D01*
X123718881Y-71209059D01*
X123539163Y-71267454D01*
X123495034Y-71289939D01*
X123370800Y-71353239D01*
X123286728Y-71414323D01*
X123286727Y-71414323D01*
X123229797Y-71455685D01*
X123222418Y-71459817D01*
X123079818Y-71602417D01*
X123075685Y-71609798D01*
X123038785Y-71660586D01*
X123038784Y-71660585D01*
X122973244Y-71750794D01*
X122973236Y-71750807D01*
X122950831Y-71794779D01*
X122887454Y-71919163D01*
X122829059Y-72098881D01*
X122829058Y-72098884D01*
X122829058Y-72098886D01*
X122799500Y-72285507D01*
X122799500Y-72474491D01*
X122824862Y-72634617D01*
X122829059Y-72661118D01*
X122887454Y-72840836D01*
X122933212Y-72930640D01*
X122973240Y-73009199D01*
X123084310Y-73162073D01*
X123217927Y-73295690D01*
X123370801Y-73406760D01*
X123445202Y-73444669D01*
X123532719Y-73489262D01*
X123534312Y-73490194D01*
X123538025Y-73491993D01*
X123540022Y-73492986D01*
X123543790Y-73494049D01*
X123580169Y-73505869D01*
X123635495Y-73523845D01*
X123635496Y-73523846D01*
X123656343Y-73530619D01*
X123718881Y-73550940D01*
X123905514Y-73580500D01*
X123905519Y-73580500D01*
X124094485Y-73580500D01*
X124094486Y-73580500D01*
X124281118Y-73550940D01*
X124288221Y-73548632D01*
X124460832Y-73492547D01*
X124461963Y-73491971D01*
X124550651Y-73446782D01*
X124629199Y-73406760D01*
X124667992Y-73378574D01*
X124699199Y-73362106D01*
X124711399Y-73357753D01*
X124781152Y-73353762D01*
X124841992Y-73388117D01*
X124873433Y-73444725D01*
X124875662Y-73453723D01*
X124879300Y-73483539D01*
X124879300Y-73523090D01*
X124879299Y-73523164D01*
X124879299Y-73648460D01*
X124873400Y-73668546D01*
X124904048Y-73782921D01*
X124916908Y-73830916D01*
X124920224Y-73843289D01*
X124924703Y-73851047D01*
X124932778Y-73872470D01*
X124946205Y-73888287D01*
X124962512Y-73916532D01*
X124962751Y-73916945D01*
X124962751Y-73916946D01*
X124999275Y-73980208D01*
X124999281Y-73980217D01*
X124999285Y-73980222D01*
X125120114Y-74101051D01*
X125120159Y-74101094D01*
X125199976Y-74180911D01*
X125221125Y-74209161D01*
X125226546Y-74219088D01*
X125241400Y-74287361D01*
X125216986Y-74352826D01*
X125161054Y-74394699D01*
X125161050Y-74394701D01*
X125153862Y-74397382D01*
X125110528Y-74405200D01*
X119023902Y-74405200D01*
X118988964Y-74400176D01*
X118963720Y-74392763D01*
X118910982Y-74361473D01*
X118852161Y-74302659D01*
X117864892Y-73315507D01*
X117835039Y-73267352D01*
X117590425Y-72539999D01*
X117554206Y-72432303D01*
X117542549Y-72397642D01*
X119899500Y-72397642D01*
X119899500Y-72602356D01*
X119931254Y-72802843D01*
X119931522Y-72804534D01*
X119944122Y-72843311D01*
X119994780Y-72999221D01*
X119994783Y-72999228D01*
X120046385Y-73100499D01*
X120046386Y-73100501D01*
X120077757Y-73162071D01*
X120087715Y-73181613D01*
X120087715Y-73181614D01*
X120140100Y-73253716D01*
X120208028Y-73347213D01*
X120352786Y-73491971D01*
X120491949Y-73593077D01*
X120518390Y-73612287D01*
X120631262Y-73669798D01*
X120694330Y-73701933D01*
X120695933Y-73702872D01*
X120699659Y-73704677D01*
X120701634Y-73705658D01*
X120705388Y-73706716D01*
X120805137Y-73739127D01*
X120895465Y-73768477D01*
X120996557Y-73784488D01*
X121097648Y-73800500D01*
X121097649Y-73800500D01*
X121302351Y-73800500D01*
X121302352Y-73800500D01*
X121504534Y-73768477D01*
X121699219Y-73705220D01*
X121881610Y-73612287D01*
X121969224Y-73548632D01*
X121991511Y-73532440D01*
X122010842Y-73518394D01*
X122047213Y-73491971D01*
X122047214Y-73491969D01*
X122047273Y-73491926D01*
X122048032Y-73491152D01*
X122191153Y-73348031D01*
X122191928Y-73347271D01*
X122191981Y-73347199D01*
X122244730Y-73274593D01*
X122244732Y-73274591D01*
X122268172Y-73242327D01*
X122312287Y-73181610D01*
X122405220Y-72999219D01*
X122468477Y-72804534D01*
X122500500Y-72602352D01*
X122500500Y-72397648D01*
X122468477Y-72195466D01*
X122459437Y-72167645D01*
X122430164Y-72077552D01*
X122406721Y-72005402D01*
X122405659Y-72001636D01*
X122404662Y-71999629D01*
X122402870Y-71995930D01*
X122401932Y-71994327D01*
X122371503Y-71934607D01*
X122347610Y-71887715D01*
X122312287Y-71818390D01*
X122310322Y-71815686D01*
X122295134Y-71794780D01*
X122295133Y-71794779D01*
X122191972Y-71652787D01*
X122047211Y-71508026D01*
X121889507Y-71393450D01*
X121889168Y-71393161D01*
X121881603Y-71387707D01*
X121881239Y-71387524D01*
X121854761Y-71374033D01*
X121813953Y-71353240D01*
X121813953Y-71353239D01*
X121813951Y-71353239D01*
X121699228Y-71294783D01*
X121699221Y-71294780D01*
X121573279Y-71253859D01*
X121504534Y-71231522D01*
X121504532Y-71231521D01*
X121504530Y-71231521D01*
X121504529Y-71231520D01*
X121329995Y-71203878D01*
X121313409Y-71201251D01*
X121302354Y-71199500D01*
X121302352Y-71199500D01*
X121097648Y-71199500D01*
X121097647Y-71199500D01*
X121073327Y-71203351D01*
X121073326Y-71203350D01*
X120895468Y-71231521D01*
X120700777Y-71294780D01*
X120700764Y-71294786D01*
X120518397Y-71387708D01*
X120518385Y-71387715D01*
X120352787Y-71508027D01*
X120352784Y-71508029D01*
X120208029Y-71652784D01*
X120208027Y-71652787D01*
X120087715Y-71818385D01*
X120087708Y-71818397D01*
X119994786Y-72000764D01*
X119994780Y-72000777D01*
X119931521Y-72195468D01*
X119899500Y-72397642D01*
X117542549Y-72397642D01*
X117448287Y-72117355D01*
X117431947Y-72075127D01*
X117429348Y-72069922D01*
X117430030Y-72069581D01*
X117421897Y-72052113D01*
X117406717Y-72005390D01*
X117405659Y-72001637D01*
X117404657Y-71999620D01*
X117402867Y-71995924D01*
X117401932Y-71994327D01*
X117371503Y-71934607D01*
X117347610Y-71887715D01*
X117312287Y-71818390D01*
X117310322Y-71815686D01*
X117295134Y-71794780D01*
X117295133Y-71794779D01*
X117191972Y-71652787D01*
X117047211Y-71508026D01*
X116889507Y-71393450D01*
X116889168Y-71393161D01*
X116881603Y-71387707D01*
X116881239Y-71387524D01*
X116854761Y-71374033D01*
X116813953Y-71353240D01*
X116813953Y-71353239D01*
X116813951Y-71353239D01*
X116699228Y-71294783D01*
X116699221Y-71294780D01*
X116573279Y-71253859D01*
X116504534Y-71231522D01*
X116504532Y-71231521D01*
X116504530Y-71231521D01*
X116504529Y-71231520D01*
X116329995Y-71203878D01*
X116313409Y-71201251D01*
X116302354Y-71199500D01*
X116302352Y-71199500D01*
X116097648Y-71199500D01*
X116070007Y-71203878D01*
X116037296Y-71209059D01*
X115905105Y-71229996D01*
X115905097Y-71229996D01*
X115905098Y-71229997D01*
X115895459Y-71231523D01*
X115738772Y-71282435D01*
X115703992Y-71288453D01*
X115690121Y-71288849D01*
X115622547Y-71271086D01*
X115575304Y-71219609D01*
X115572216Y-71213328D01*
X115559500Y-71158630D01*
X115559500Y-69600818D01*
X115579185Y-69533779D01*
X115587529Y-69522297D01*
X115599199Y-69508034D01*
X115895765Y-69145564D01*
X115939197Y-69083520D01*
X115940984Y-69080510D01*
X115940985Y-69080506D01*
X115943023Y-69077076D01*
X115943260Y-69077216D01*
X115951192Y-69064472D01*
X115952796Y-69062331D01*
X115977197Y-68996903D01*
X115979503Y-68991163D01*
X115992361Y-68961345D01*
X115992361Y-68961337D01*
X115994620Y-68953220D01*
X115995025Y-68953332D01*
X115998276Y-68940388D01*
X116003091Y-68927483D01*
X116006464Y-68896108D01*
X116009499Y-68867885D01*
X116009499Y-68867882D01*
X116009500Y-68867873D01*
X116009499Y-68844092D01*
X116010638Y-68827325D01*
X116011802Y-68818788D01*
X116011803Y-68818784D01*
X116011738Y-68809829D01*
X116009728Y-68776831D01*
X116009499Y-68769292D01*
X116009499Y-66972129D01*
X116009498Y-66972123D01*
X116009497Y-66972115D01*
X116003091Y-66912517D01*
X115999884Y-66903919D01*
X115997943Y-66898716D01*
X115990696Y-66879284D01*
X115984848Y-66857967D01*
X115980970Y-66836471D01*
X115979000Y-66814456D01*
X115979000Y-66732840D01*
X115998685Y-66665801D01*
X116051489Y-66620046D01*
X116120647Y-66610102D01*
X116135080Y-66613062D01*
X116179630Y-66625000D01*
X116278368Y-66625000D01*
X116278370Y-66625000D01*
X116322907Y-66613066D01*
X116392754Y-66614727D01*
X116450618Y-66653889D01*
X116478123Y-66718117D01*
X116479000Y-66732840D01*
X116479000Y-67044543D01*
X116477248Y-67065314D01*
X116473794Y-67085643D01*
X116468589Y-67105821D01*
X116463159Y-67121340D01*
X116463157Y-67121346D01*
X116463156Y-67121349D01*
X116448500Y-67251434D01*
X116448500Y-68588564D01*
X116463154Y-68718629D01*
X116463157Y-68718652D01*
X116463158Y-68718654D01*
X116463159Y-68718658D01*
X116515376Y-68867883D01*
X116520878Y-68883606D01*
X116613853Y-69031576D01*
X116737424Y-69155147D01*
X116885394Y-69248122D01*
X116953601Y-69271989D01*
X117042920Y-69303244D01*
X117046054Y-69304569D01*
X117047423Y-69304975D01*
X117050465Y-69305957D01*
X117053775Y-69306424D01*
X117057255Y-69306620D01*
X117061726Y-69307123D01*
X117091748Y-69310505D01*
X117091749Y-69310506D01*
X117107281Y-69312255D01*
X117177440Y-69320160D01*
X117179909Y-69320500D01*
X117817555Y-69320500D01*
X117827348Y-69320500D01*
X117834944Y-69318539D01*
X117947657Y-69305841D01*
X118112606Y-69248122D01*
X118260576Y-69155147D01*
X118384147Y-69031576D01*
X118477122Y-68883606D01*
X118534841Y-68718657D01*
X118549500Y-68588552D01*
X118549500Y-67251448D01*
X118534841Y-67121343D01*
X118477122Y-66956394D01*
X118440227Y-66897676D01*
X120314500Y-66897676D01*
X120314500Y-67102322D01*
X120345034Y-67295102D01*
X120346509Y-67304417D01*
X120409744Y-67499031D01*
X120451687Y-67581348D01*
X120502644Y-67681357D01*
X120502647Y-67681360D01*
X120535017Y-67725914D01*
X120535021Y-67725919D01*
X120535023Y-67725921D01*
X120535024Y-67725922D01*
X121078003Y-67182942D01*
X121139324Y-67149459D01*
X121209015Y-67154443D01*
X121264949Y-67196314D01*
X121273067Y-67208622D01*
X121294420Y-67245606D01*
X121368894Y-67320080D01*
X121368895Y-67320081D01*
X121368897Y-67320082D01*
X121405873Y-67341430D01*
X121454088Y-67391996D01*
X121467312Y-67460603D01*
X121441344Y-67525468D01*
X121431554Y-67536498D01*
X120888575Y-68079473D01*
X120888576Y-68079473D01*
X120888576Y-68079474D01*
X120933150Y-68111859D01*
X120989139Y-68140387D01*
X121115463Y-68204753D01*
X121115465Y-68204753D01*
X121115468Y-68204755D01*
X121310082Y-68267990D01*
X121512183Y-68300000D01*
X121716816Y-68300000D01*
X121716817Y-68300000D01*
X121918917Y-68267990D01*
X122113531Y-68204755D01*
X122295849Y-68111859D01*
X122340421Y-68079474D01*
X121797445Y-67536498D01*
X121763960Y-67475175D01*
X121768944Y-67405483D01*
X121810816Y-67349550D01*
X121823118Y-67341434D01*
X121860106Y-67320080D01*
X121934580Y-67245606D01*
X121955930Y-67208625D01*
X122006495Y-67160411D01*
X122075102Y-67147187D01*
X122139967Y-67173154D01*
X122150998Y-67182945D01*
X122693973Y-67725920D01*
X122693974Y-67725921D01*
X122726359Y-67681349D01*
X122819255Y-67499031D01*
X122882490Y-67304417D01*
X122914500Y-67102317D01*
X122914500Y-66897682D01*
X122882490Y-66695582D01*
X122819255Y-66500968D01*
X122819253Y-66500965D01*
X122819253Y-66500963D01*
X122726359Y-66318650D01*
X122717656Y-66306672D01*
X122708115Y-66279933D01*
X122693973Y-66274075D01*
X122150997Y-66817053D01*
X122089674Y-66850538D01*
X122019983Y-66845554D01*
X121964049Y-66803683D01*
X121955930Y-66791374D01*
X121934580Y-66754394D01*
X121860106Y-66679920D01*
X121823125Y-66658569D01*
X121774910Y-66608003D01*
X121761686Y-66539396D01*
X121787654Y-66474531D01*
X121797436Y-66463509D01*
X122340422Y-65920524D01*
X122340421Y-65920523D01*
X122340420Y-65920522D01*
X122340419Y-65920521D01*
X122340414Y-65920517D01*
X122295860Y-65888147D01*
X122295857Y-65888144D01*
X122221134Y-65850071D01*
X122113531Y-65795244D01*
X121918917Y-65732009D01*
X121918911Y-65732008D01*
X121716822Y-65700000D01*
X121716817Y-65700000D01*
X121512183Y-65700000D01*
X121512178Y-65700000D01*
X121310087Y-65732008D01*
X121310085Y-65732008D01*
X121310082Y-65732009D01*
X121212775Y-65763626D01*
X121115463Y-65795245D01*
X120933140Y-65888145D01*
X120888577Y-65920522D01*
X120888577Y-65920523D01*
X120888577Y-65920524D01*
X121222453Y-66254400D01*
X121431555Y-66463501D01*
X121465040Y-66524824D01*
X121460056Y-66594515D01*
X121418185Y-66650449D01*
X121405874Y-66658569D01*
X121368897Y-66679917D01*
X121368892Y-66679921D01*
X121294421Y-66754392D01*
X121294415Y-66754400D01*
X121273068Y-66791374D01*
X121222501Y-66839589D01*
X121153893Y-66852811D01*
X121089029Y-66826843D01*
X121078001Y-66817054D01*
X120535024Y-66274077D01*
X120535023Y-66274077D01*
X120535022Y-66274077D01*
X120502645Y-66318640D01*
X120409745Y-66500963D01*
X120382418Y-66585067D01*
X120346509Y-66695582D01*
X120346508Y-66695585D01*
X120346508Y-66695587D01*
X120314500Y-66897676D01*
X118440227Y-66897676D01*
X118384147Y-66808424D01*
X118260576Y-66684853D01*
X118229212Y-66665146D01*
X118124433Y-66599309D01*
X118117825Y-66594039D01*
X118097951Y-66585807D01*
X118092717Y-66584918D01*
X117947658Y-66534159D01*
X117947656Y-66534158D01*
X117947652Y-66534157D01*
X117947629Y-66534154D01*
X117817564Y-66519500D01*
X117817558Y-66519500D01*
X117817552Y-66519500D01*
X117420830Y-66519500D01*
X117385889Y-66514475D01*
X117370890Y-66510070D01*
X117312144Y-66472327D01*
X117310957Y-66470958D01*
X117283477Y-66416083D01*
X117281832Y-66408521D01*
X117279000Y-66382168D01*
X117279000Y-66100000D01*
X116647002Y-66100000D01*
X116579963Y-66080315D01*
X116539615Y-66038000D01*
X116529077Y-66019748D01*
X116529073Y-66019743D01*
X116459256Y-65949926D01*
X116459251Y-65949922D01*
X116373747Y-65900557D01*
X116373746Y-65900556D01*
X116351160Y-65894504D01*
X116320904Y-65886397D01*
X116261245Y-65850032D01*
X116230717Y-65787185D01*
X116229000Y-65766623D01*
X116229000Y-65741829D01*
X116234023Y-65706893D01*
X116234610Y-65704896D01*
X116238427Y-65691894D01*
X116276172Y-65633144D01*
X116277541Y-65631957D01*
X116332420Y-65604477D01*
X116339979Y-65602833D01*
X116366332Y-65600000D01*
X117279000Y-65600000D01*
X117279000Y-65371729D01*
X117284023Y-65336793D01*
X117288427Y-65321795D01*
X117326172Y-65263044D01*
X117327541Y-65261857D01*
X117382420Y-65234377D01*
X117389979Y-65232733D01*
X117416332Y-65229900D01*
X125659572Y-65229900D01*
X125694499Y-65234921D01*
G37*
G04 #@! TD.AperFunction*
G04 #@! TA.AperFunction,Conductor*
G36*
X130843106Y-65234923D02*
G01*
X130858104Y-65239327D01*
X130916855Y-65277072D01*
X130918042Y-65278441D01*
X130945518Y-65333302D01*
X130947163Y-65340860D01*
X130950000Y-65367231D01*
X130950000Y-65600000D01*
X133050000Y-65600000D01*
X133050000Y-65371729D01*
X133055023Y-65336793D01*
X133059427Y-65321795D01*
X133097172Y-65263044D01*
X133098541Y-65261857D01*
X133153420Y-65234377D01*
X133160979Y-65232733D01*
X133187332Y-65229900D01*
X137233093Y-65229900D01*
X137268020Y-65234921D01*
X137278873Y-65238107D01*
X137337654Y-65275877D01*
X137366683Y-65339431D01*
X137356744Y-65408590D01*
X137356741Y-65408597D01*
X137355455Y-65411413D01*
X137315543Y-65460222D01*
X137291358Y-65477792D01*
X137291353Y-65477796D01*
X137291352Y-65477797D01*
X137291351Y-65477798D01*
X137600999Y-65787446D01*
X137777055Y-65963501D01*
X137810540Y-66024824D01*
X137805556Y-66094515D01*
X137763685Y-66150449D01*
X137751374Y-66158569D01*
X137714397Y-66179917D01*
X137714392Y-66179921D01*
X137639921Y-66254392D01*
X137639915Y-66254400D01*
X137618568Y-66291374D01*
X137568001Y-66339589D01*
X137499393Y-66352811D01*
X137434529Y-66326843D01*
X137423501Y-66317054D01*
X136937798Y-65831350D01*
X136924329Y-65836930D01*
X136918682Y-65856160D01*
X136919110Y-65856422D01*
X136918141Y-65858002D01*
X136918113Y-65858100D01*
X136917810Y-65858542D01*
X136916568Y-65860569D01*
X136881308Y-65929771D01*
X136829383Y-66031678D01*
X136829382Y-66031680D01*
X136829382Y-66031681D01*
X136770039Y-66214318D01*
X136740000Y-66403978D01*
X136740000Y-66596020D01*
X136770038Y-66785674D01*
X136770039Y-66785680D01*
X136770044Y-66785698D01*
X136775025Y-66801027D01*
X136781044Y-66835808D01*
X136781440Y-66849677D01*
X136763677Y-66917251D01*
X136712213Y-66964488D01*
X136705942Y-66967572D01*
X136651220Y-66980300D01*
X134555306Y-66980300D01*
X134490645Y-66962106D01*
X134253292Y-66817053D01*
X133923178Y-66615311D01*
X133904444Y-66604793D01*
X133899177Y-66601662D01*
X133895428Y-66599306D01*
X133888823Y-66594038D01*
X133868951Y-66585807D01*
X133863717Y-66584918D01*
X133718658Y-66534159D01*
X133718656Y-66534158D01*
X133718652Y-66534157D01*
X133718629Y-66534154D01*
X133588564Y-66519500D01*
X133588558Y-66519500D01*
X133588552Y-66519500D01*
X133191830Y-66519500D01*
X133156889Y-66514475D01*
X133141890Y-66510070D01*
X133083144Y-66472327D01*
X133081957Y-66470958D01*
X133054477Y-66416083D01*
X133052832Y-66408521D01*
X133050000Y-66382168D01*
X133050000Y-66100000D01*
X132418002Y-66100000D01*
X132350963Y-66080315D01*
X132310615Y-66038000D01*
X132300077Y-66019748D01*
X132300073Y-66019743D01*
X132230256Y-65949926D01*
X132230251Y-65949922D01*
X132144747Y-65900557D01*
X132144746Y-65900556D01*
X132120901Y-65894167D01*
X132049370Y-65875000D01*
X132049367Y-65875000D01*
X131950633Y-65875000D01*
X131950630Y-65875000D01*
X131898576Y-65888948D01*
X131855253Y-65900556D01*
X131855252Y-65900557D01*
X131769748Y-65949922D01*
X131769743Y-65949926D01*
X131699926Y-66019743D01*
X131699922Y-66019748D01*
X131689385Y-66038000D01*
X131638818Y-66086216D01*
X131581998Y-66100000D01*
X131030128Y-66100000D01*
X130995192Y-66094977D01*
X130969950Y-66087565D01*
X130917205Y-66056269D01*
X130359828Y-65498893D01*
X130359808Y-65498871D01*
X130315124Y-65454188D01*
X130293973Y-65425935D01*
X130288551Y-65416005D01*
X130273700Y-65347734D01*
X130298117Y-65282270D01*
X130354046Y-65240400D01*
X130357923Y-65238954D01*
X130361259Y-65237711D01*
X130404573Y-65229900D01*
X130808170Y-65229900D01*
X130843106Y-65234923D01*
G37*
G04 #@! TD.AperFunction*
G04 #@! TA.AperFunction,Conductor*
G36*
X139807169Y-65234921D02*
G01*
X139818022Y-65238107D01*
X139876803Y-65275877D01*
X139905832Y-65339431D01*
X139895897Y-65408581D01*
X139894609Y-65411401D01*
X139854694Y-65460221D01*
X139758880Y-65529833D01*
X139758880Y-65529834D01*
X139727465Y-65552659D01*
X139704893Y-65569058D01*
X139564563Y-65709388D01*
X139560430Y-65716769D01*
X139520560Y-65771645D01*
X139456135Y-65860317D01*
X139368917Y-66031490D01*
X139353175Y-66079938D01*
X139337602Y-66111610D01*
X139331218Y-66120946D01*
X139277129Y-66165173D01*
X139207714Y-66173137D01*
X139145017Y-66142309D01*
X139142718Y-66140200D01*
X139108649Y-66087178D01*
X139090616Y-66031680D01*
X139003434Y-65860577D01*
X139001956Y-65858542D01*
X138982204Y-65831355D01*
X138982200Y-65831351D01*
X138496497Y-66317053D01*
X138435174Y-66350538D01*
X138365482Y-66345554D01*
X138309549Y-66303682D01*
X138301430Y-66291374D01*
X138280080Y-66254394D01*
X138205606Y-66179920D01*
X138168625Y-66158569D01*
X138120410Y-66108003D01*
X138107186Y-66039396D01*
X138133154Y-65974531D01*
X138142933Y-65963512D01*
X138628646Y-65477798D01*
X138628638Y-65477792D01*
X138610616Y-65464698D01*
X138585311Y-65440108D01*
X138578403Y-65431151D01*
X138553049Y-65366044D01*
X138566919Y-65297565D01*
X138615608Y-65247456D01*
X138618335Y-65245917D01*
X138679291Y-65229900D01*
X139772242Y-65229900D01*
X139807169Y-65234921D01*
G37*
G04 #@! TD.AperFunction*
G04 #@! TA.AperFunction,Conductor*
G36*
X107537361Y-70494763D02*
G01*
X107544312Y-70500406D01*
X107545237Y-70502639D01*
X107769006Y-71254724D01*
X107768081Y-71263631D01*
X107761521Y-71269151D01*
X106488937Y-71697046D01*
X106480003Y-71696434D01*
X106476935Y-71694229D01*
X106345770Y-71563064D01*
X106342343Y-71554791D01*
X106342953Y-71551062D01*
X106698125Y-70494762D01*
X106770848Y-70278477D01*
X106776733Y-70271729D01*
X106785274Y-70270993D01*
X107537361Y-70494763D01*
G37*
G04 #@! TD.AperFunction*
G04 #@! TA.AperFunction,Conductor*
G36*
X116060962Y-84460594D02*
G01*
X116063205Y-84463739D01*
X116590069Y-85544216D01*
X116590615Y-85553154D01*
X116585125Y-85559632D01*
X115965572Y-85895149D01*
X115956665Y-85896076D01*
X115954428Y-85895149D01*
X115334874Y-85559632D01*
X115329231Y-85552679D01*
X115329929Y-85544219D01*
X115856795Y-84463738D01*
X115863501Y-84457805D01*
X115867311Y-84457167D01*
X116052689Y-84457167D01*
X116060962Y-84460594D01*
G37*
G04 #@! TD.AperFunction*
G04 #@! TA.AperFunction,Conductor*
G36*
X114963556Y-67538271D02*
G01*
X114969777Y-67544492D01*
X115506251Y-68813498D01*
X115506316Y-68822453D01*
X115504529Y-68825463D01*
X115062511Y-69365709D01*
X115054620Y-69369942D01*
X115053456Y-69370000D01*
X114864544Y-69370000D01*
X114856271Y-69366573D01*
X114855489Y-69365709D01*
X114413470Y-68825463D01*
X114410883Y-68816890D01*
X114411746Y-68813502D01*
X114948223Y-67544491D01*
X114954601Y-67538206D01*
X114963556Y-67538271D01*
G37*
G04 #@! TD.AperFunction*
G04 #@! TA.AperFunction,Conductor*
G36*
X82101565Y-73807126D02*
G01*
X82103389Y-73809488D01*
X82994412Y-75331568D01*
X82995634Y-75340439D01*
X82990784Y-75347228D01*
X82006469Y-76000406D01*
X81997681Y-76002125D01*
X81993531Y-76000406D01*
X81009215Y-75347228D01*
X81004216Y-75339798D01*
X81005586Y-75331569D01*
X81896611Y-73809487D01*
X81903748Y-73804080D01*
X81906708Y-73803699D01*
X82093292Y-73803699D01*
X82101565Y-73807126D01*
G37*
G04 #@! TD.AperFunction*
G04 #@! TA.AperFunction,Conductor*
G36*
X127505565Y-77998161D02*
G01*
X128047444Y-78291527D01*
X128195603Y-78371739D01*
X128201247Y-78378691D01*
X128200511Y-78387233D01*
X127603226Y-79589653D01*
X127596477Y-79595538D01*
X127592748Y-79596148D01*
X127407252Y-79596148D01*
X127398979Y-79592721D01*
X127396774Y-79589653D01*
X126799488Y-78387233D01*
X126798876Y-78378299D01*
X126804395Y-78371739D01*
X127494431Y-77998162D01*
X127503337Y-77997238D01*
X127505565Y-77998161D01*
G37*
G04 #@! TD.AperFunction*
G04 #@! TA.AperFunction,Conductor*
G36*
X150231501Y-84731500D02*
G01*
X150231775Y-84731765D01*
X150992711Y-85491722D01*
X150996143Y-85499992D01*
X150992721Y-85508268D01*
X150992711Y-85508278D01*
X150231775Y-86268234D01*
X150223499Y-86271656D01*
X150215229Y-86268224D01*
X150214964Y-86267950D01*
X149589999Y-85599999D01*
X149589998Y-85599998D01*
X149521439Y-85571601D01*
X149517643Y-85569065D01*
X149440300Y-85491722D01*
X149322500Y-85373921D01*
X149319074Y-85365650D01*
X149322500Y-85357378D01*
X149446199Y-85233679D01*
X149454471Y-85230253D01*
X149462744Y-85233680D01*
X149463763Y-85234844D01*
X149590000Y-85400000D01*
X150214965Y-84732048D01*
X150223118Y-84728349D01*
X150231501Y-84731500D01*
G37*
G04 #@! TD.AperFunction*
G04 #@! TA.AperFunction,Conductor*
G36*
X126970025Y-76666665D02*
G01*
X126973452Y-76674938D01*
X126973440Y-76675473D01*
X126944692Y-77303571D01*
X126944693Y-77303571D01*
X126944693Y-77303572D01*
X127257282Y-77236692D01*
X127266088Y-77238312D01*
X127270915Y-77244705D01*
X127496978Y-77982353D01*
X127496126Y-77991267D01*
X127489220Y-77996967D01*
X127482364Y-77996968D01*
X126744699Y-77770913D01*
X126737793Y-77765212D01*
X126736685Y-77757285D01*
X126803307Y-77445028D01*
X126774891Y-77376450D01*
X126774000Y-77371971D01*
X126774000Y-76674938D01*
X126777427Y-76666665D01*
X126785700Y-76663238D01*
X126961752Y-76663238D01*
X126970025Y-76666665D01*
G37*
G04 #@! TD.AperFunction*
G04 #@! TA.AperFunction,Conductor*
G36*
X102141870Y-75773277D02*
G01*
X102142293Y-75773680D01*
X102266744Y-75898131D01*
X102270171Y-75906404D01*
X102266744Y-75914677D01*
X101812356Y-76369065D01*
X101808560Y-76371601D01*
X101740000Y-76399999D01*
X101622840Y-76619674D01*
X101615923Y-76625361D01*
X101607031Y-76624503D01*
X101015101Y-76310335D01*
X101009400Y-76303429D01*
X101010251Y-76294515D01*
X101015101Y-76289665D01*
X101607031Y-75975496D01*
X101615945Y-75974645D01*
X101622839Y-75980324D01*
X101740000Y-76200000D01*
X102125344Y-75774102D01*
X102133436Y-75770268D01*
X102141870Y-75773277D01*
G37*
G04 #@! TD.AperFunction*
G04 #@! TA.AperFunction,Conductor*
G36*
X91002747Y-72166809D02*
G01*
X91451994Y-72404202D01*
X91454801Y-72406274D01*
X91589458Y-72540931D01*
X91592885Y-72549204D01*
X91592004Y-72553659D01*
X91104457Y-73737701D01*
X91098138Y-73744046D01*
X91089183Y-73744065D01*
X91089176Y-73744062D01*
X90509687Y-73504995D01*
X90503346Y-73498672D01*
X90503165Y-73490151D01*
X90986303Y-72173127D01*
X90992369Y-72166541D01*
X91001316Y-72166173D01*
X91002747Y-72166809D01*
G37*
G04 #@! TD.AperFunction*
G04 #@! TA.AperFunction,Conductor*
G36*
X102168260Y-69804396D02*
G01*
X102541836Y-70494430D01*
X102542761Y-70503337D01*
X102541836Y-70505570D01*
X102168260Y-71195603D01*
X102161308Y-71201247D01*
X102152766Y-71200511D01*
X100950347Y-70603226D01*
X100944462Y-70596477D01*
X100943852Y-70592748D01*
X100943852Y-70407251D01*
X100947279Y-70398978D01*
X100950343Y-70396775D01*
X102152767Y-69799487D01*
X102161700Y-69798876D01*
X102168260Y-69804396D01*
G37*
G04 #@! TD.AperFunction*
G04 #@! TA.AperFunction,Conductor*
G36*
X121727158Y-85688817D02*
G01*
X121732648Y-85695294D01*
X122124199Y-86831757D01*
X122123654Y-86840695D01*
X122121411Y-86843840D01*
X121990342Y-86974932D01*
X121982069Y-86978360D01*
X121978259Y-86977723D01*
X120841597Y-86586347D01*
X120834890Y-86580413D01*
X120834191Y-86571949D01*
X121035036Y-85896612D01*
X121040678Y-85889661D01*
X121042907Y-85888737D01*
X121718253Y-85687890D01*
X121727158Y-85688817D01*
G37*
G04 #@! TD.AperFunction*
G04 #@! TA.AperFunction,Conductor*
G36*
X153670954Y-75762687D02*
G01*
X153675804Y-75769476D01*
X154122058Y-77475789D01*
X154120836Y-77484660D01*
X154119012Y-77487022D01*
X153987079Y-77618959D01*
X153978806Y-77622386D01*
X153975846Y-77622005D01*
X152269517Y-77175810D01*
X152262380Y-77170402D01*
X152261009Y-77162174D01*
X152495139Y-76004285D01*
X152500138Y-75996856D01*
X152504283Y-75995138D01*
X153662166Y-75760968D01*
X153670954Y-75762687D01*
G37*
G04 #@! TD.AperFunction*
G04 #@! TA.AperFunction,Conductor*
G36*
X132601021Y-76407279D02*
G01*
X132603226Y-76410347D01*
X133200511Y-77612766D01*
X133201123Y-77621700D01*
X133195603Y-77628260D01*
X132505570Y-78001836D01*
X132496663Y-78002761D01*
X132494430Y-78001836D01*
X131804396Y-77628260D01*
X131798752Y-77621308D01*
X131799488Y-77612766D01*
X132396774Y-76410347D01*
X132403523Y-76404462D01*
X132407252Y-76403852D01*
X132592748Y-76403852D01*
X132601021Y-76407279D01*
G37*
G04 #@! TD.AperFunction*
G04 #@! TA.AperFunction,Conductor*
G36*
X133659580Y-67046642D02*
G01*
X134364401Y-67477378D01*
X134369673Y-67484616D01*
X134370000Y-67487361D01*
X134370000Y-67675255D01*
X134366573Y-67683528D01*
X134365709Y-67684310D01*
X133828188Y-68124100D01*
X133819615Y-68126687D01*
X133812513Y-68123326D01*
X133372698Y-67684310D01*
X133275981Y-67587768D01*
X133272548Y-67579500D01*
X133274690Y-67572741D01*
X133643923Y-67049875D01*
X133651493Y-67045095D01*
X133659580Y-67046642D01*
G37*
G04 #@! TD.AperFunction*
G04 #@! TA.AperFunction,Conductor*
G36*
X127186184Y-66444413D02*
G01*
X127186815Y-66445356D01*
X127923225Y-67670952D01*
X127987494Y-67777913D01*
X127988817Y-67786770D01*
X127985738Y-67792212D01*
X127855846Y-67922109D01*
X127847573Y-67925536D01*
X127843970Y-67924968D01*
X127835136Y-67922109D01*
X127413820Y-67785749D01*
X127059127Y-67670952D01*
X127052311Y-67665144D01*
X127051461Y-67662967D01*
X126791557Y-66732150D01*
X126792633Y-66723260D01*
X126795849Y-66719611D01*
X127169818Y-66441992D01*
X127178501Y-66439813D01*
X127186184Y-66444413D01*
G37*
G04 #@! TD.AperFunction*
G04 #@! TA.AperFunction,Conductor*
G36*
X83197610Y-68006733D02*
G01*
X84196083Y-68896510D01*
X84199980Y-68904573D01*
X84199999Y-68905245D01*
X84199999Y-69094754D01*
X84196572Y-69103027D01*
X84196083Y-69103489D01*
X83197610Y-69993266D01*
X83189154Y-69996212D01*
X83182303Y-69993492D01*
X82009672Y-69008961D01*
X82005539Y-69001016D01*
X82008234Y-68992477D01*
X82009672Y-68991039D01*
X82112658Y-68904573D01*
X83182304Y-68006506D01*
X83190842Y-68003812D01*
X83197610Y-68006733D01*
G37*
G04 #@! TD.AperFunction*
G04 #@! TA.AperFunction,Conductor*
G36*
X138594863Y-84004502D02*
G01*
X138597784Y-84005712D01*
X138603807Y-84011362D01*
X139157196Y-85137812D01*
X139158371Y-85142223D01*
X139158573Y-85145378D01*
X139156149Y-85153287D01*
X138510676Y-85987205D01*
X138507229Y-85990202D01*
X138505682Y-85991086D01*
X138496806Y-85992218D01*
X138496021Y-85992004D01*
X138489842Y-85987876D01*
X137844449Y-85154062D01*
X137842414Y-85149980D01*
X137841582Y-85146927D01*
X137842368Y-85138695D01*
X138395762Y-84012238D01*
X138398534Y-84008614D01*
X138400327Y-84007038D01*
X138400912Y-84006524D01*
X138408637Y-84003611D01*
X138590385Y-84003611D01*
X138594863Y-84004502D01*
G37*
G04 #@! TD.AperFunction*
G04 #@! TA.AperFunction,Conductor*
G36*
X121101195Y-84460594D02*
G01*
X121103285Y-84463436D01*
X121669488Y-85543810D01*
X121670293Y-85552728D01*
X121664556Y-85559604D01*
X121664436Y-85559666D01*
X121005663Y-85895281D01*
X120996736Y-85895983D01*
X120994497Y-85894986D01*
X120414179Y-85559589D01*
X120408731Y-85552482D01*
X120409369Y-85544647D01*
X120896892Y-84464055D01*
X120903418Y-84457924D01*
X120907557Y-84457167D01*
X121092922Y-84457167D01*
X121101195Y-84460594D01*
G37*
G04 #@! TD.AperFunction*
G04 #@! TA.AperFunction,Conductor*
G36*
X110589919Y-81944253D02*
G01*
X110991050Y-82083295D01*
X111692626Y-82326477D01*
X111699320Y-82332425D01*
X111700009Y-82340867D01*
X111504896Y-82997017D01*
X111499253Y-83003970D01*
X111497016Y-83004897D01*
X110840864Y-83200010D01*
X110831957Y-83199083D01*
X110826475Y-83192630D01*
X110443997Y-82090218D01*
X110444523Y-82081279D01*
X110446775Y-82078112D01*
X110577814Y-81947036D01*
X110586086Y-81943609D01*
X110589919Y-81944253D01*
G37*
G04 #@! TD.AperFunction*
G04 #@! TA.AperFunction,Conductor*
G36*
X110747848Y-72771758D02*
G01*
X111495130Y-72994099D01*
X111499164Y-72996227D01*
X111501847Y-72998405D01*
X111505687Y-73004151D01*
X111728236Y-73752136D01*
X111728659Y-73756682D01*
X111728474Y-73758462D01*
X111724221Y-73766328D01*
X111722847Y-73767446D01*
X111718829Y-73769576D01*
X110507701Y-74133419D01*
X110507701Y-74133421D01*
X110507748Y-74133516D01*
X110510609Y-74136756D01*
X110511243Y-74137846D01*
X110512440Y-74146721D01*
X110507016Y-74153840D01*
X110506463Y-74154162D01*
X110500576Y-74155751D01*
X110351027Y-74155751D01*
X110346550Y-74154860D01*
X110344901Y-74154177D01*
X110338572Y-74147846D01*
X110337889Y-74146196D01*
X110337000Y-74141723D01*
X110337000Y-74066179D01*
X110337225Y-74063896D01*
X110337666Y-74061679D01*
X110338332Y-74059484D01*
X110366299Y-73991979D01*
X110730417Y-72781169D01*
X110732558Y-72777140D01*
X110733694Y-72775750D01*
X110741561Y-72771514D01*
X110743321Y-72771334D01*
X110747848Y-72771758D01*
G37*
G04 #@! TD.AperFunction*
G04 #@! TA.AperFunction,Conductor*
G36*
X82006466Y-72499591D02*
G01*
X82990784Y-73152770D01*
X82995783Y-73160200D01*
X82994412Y-73168430D01*
X82103389Y-74690512D01*
X82096252Y-74695920D01*
X82093292Y-74696301D01*
X81906708Y-74696301D01*
X81898435Y-74692874D01*
X81896611Y-74690512D01*
X81005587Y-73168430D01*
X81004365Y-73159559D01*
X81009213Y-73152772D01*
X81993532Y-72499592D01*
X82002319Y-72497874D01*
X82006466Y-72499591D01*
G37*
G04 #@! TD.AperFunction*
G04 #@! TA.AperFunction,Conductor*
G36*
X127600716Y-84460594D02*
G01*
X127603108Y-84464055D01*
X128090630Y-85544647D01*
X128090908Y-85553598D01*
X128085820Y-85559589D01*
X127505502Y-85894986D01*
X127496624Y-85896159D01*
X127494336Y-85895281D01*
X126835563Y-85559666D01*
X126829747Y-85552857D01*
X126830449Y-85543930D01*
X126830511Y-85543810D01*
X127396715Y-84463436D01*
X127403591Y-84457699D01*
X127407078Y-84457167D01*
X127592443Y-84457167D01*
X127600716Y-84460594D01*
G37*
G04 #@! TD.AperFunction*
G04 #@! TA.AperFunction,Conductor*
G36*
X118497086Y-85888735D02*
G01*
X118504038Y-85894378D01*
X118504965Y-85896615D01*
X118705809Y-86571950D01*
X118704882Y-86580857D01*
X118698404Y-86586347D01*
X117561790Y-86977765D01*
X117552851Y-86977219D01*
X117549706Y-86974976D01*
X117418631Y-86843888D01*
X117415205Y-86835614D01*
X117415842Y-86831808D01*
X117807352Y-85695292D01*
X117813286Y-85688588D01*
X117821746Y-85687890D01*
X118497086Y-85888735D01*
G37*
G04 #@! TD.AperFunction*
G04 #@! TA.AperFunction,Conductor*
G36*
X140497086Y-66495036D02*
G01*
X140504038Y-66500679D01*
X140504965Y-66502916D01*
X140705808Y-67178249D01*
X140704881Y-67187156D01*
X140698402Y-67192647D01*
X139561740Y-67584024D01*
X139552802Y-67583477D01*
X139549657Y-67581233D01*
X139418589Y-67450141D01*
X139415163Y-67441868D01*
X139415800Y-67438062D01*
X139807351Y-66301593D01*
X139813286Y-66294888D01*
X139821746Y-66294190D01*
X140497086Y-66495036D01*
G37*
G04 #@! TD.AperFunction*
G04 #@! TA.AperFunction,Conductor*
G36*
X132601195Y-84460594D02*
G01*
X132603285Y-84463436D01*
X133169488Y-85543810D01*
X133170293Y-85552728D01*
X133164556Y-85559604D01*
X133164436Y-85559666D01*
X132505663Y-85895281D01*
X132496736Y-85895983D01*
X132494497Y-85894986D01*
X131914179Y-85559589D01*
X131908731Y-85552482D01*
X131909369Y-85544647D01*
X132396892Y-84464055D01*
X132403418Y-84457924D01*
X132407557Y-84457167D01*
X132592922Y-84457167D01*
X132601195Y-84460594D01*
G37*
G04 #@! TD.AperFunction*
G04 #@! TA.AperFunction,Conductor*
G36*
X155404573Y-84096728D02*
G01*
X155408000Y-84105001D01*
X155408000Y-84189772D01*
X155407109Y-84194250D01*
X155378705Y-84262819D01*
X154853963Y-85840187D01*
X154848100Y-85846956D01*
X154839168Y-85847596D01*
X154838394Y-85847308D01*
X154003785Y-85502563D01*
X153997447Y-85496237D01*
X153997438Y-85496215D01*
X153652732Y-84661605D01*
X153652741Y-84652651D01*
X153659080Y-84646325D01*
X153659854Y-84646037D01*
X155237292Y-84121387D01*
X155229009Y-84113445D01*
X155225410Y-84105247D01*
X155228662Y-84096904D01*
X155236861Y-84093304D01*
X155237107Y-84093301D01*
X155396300Y-84093301D01*
X155404573Y-84096728D01*
G37*
G04 #@! TD.AperFunction*
G04 #@! TA.AperFunction,Conductor*
G36*
X153577085Y-66495034D02*
G01*
X153584037Y-66500677D01*
X153584964Y-66502914D01*
X153785809Y-67178251D01*
X153784882Y-67187158D01*
X153778404Y-67192648D01*
X152641853Y-67584121D01*
X152632915Y-67583575D01*
X152629770Y-67581332D01*
X152498687Y-67450252D01*
X152495260Y-67441979D01*
X152495896Y-67438176D01*
X152887352Y-66301592D01*
X152893285Y-66294889D01*
X152901746Y-66294190D01*
X153577085Y-66495034D01*
G37*
G04 #@! TD.AperFunction*
G04 #@! TA.AperFunction,Conductor*
G36*
X115047483Y-76838475D02*
G01*
X115050910Y-76846748D01*
X115049461Y-76852387D01*
X115029711Y-76888288D01*
X115029711Y-76888289D01*
X116220884Y-77231182D01*
X116227886Y-77236763D01*
X116228890Y-77245662D01*
X116228861Y-77245762D01*
X116005237Y-77997360D01*
X115999593Y-78004312D01*
X115997360Y-78005237D01*
X115245762Y-78228861D01*
X115236855Y-78227936D01*
X115231211Y-78220984D01*
X115231182Y-78220884D01*
X114888289Y-77029711D01*
X114859891Y-76961151D01*
X114859000Y-76956674D01*
X114859000Y-76846748D01*
X114862427Y-76838475D01*
X114870700Y-76835048D01*
X115039210Y-76835048D01*
X115047483Y-76838475D01*
G37*
G04 #@! TD.AperFunction*
G04 #@! TA.AperFunction,Conductor*
G36*
X116963632Y-72271918D02*
G01*
X116969152Y-72278477D01*
X117397108Y-73550989D01*
X117396497Y-73559923D01*
X117394292Y-73562992D01*
X117263134Y-73694165D01*
X117254861Y-73697592D01*
X117251132Y-73696982D01*
X115978479Y-73269151D01*
X115971729Y-73263267D01*
X115970993Y-73254725D01*
X116194763Y-72502637D01*
X116200406Y-72495687D01*
X116202630Y-72494765D01*
X116954725Y-72270993D01*
X116963632Y-72271918D01*
G37*
G04 #@! TD.AperFunction*
G04 #@! TA.AperFunction,Conductor*
G36*
X121005565Y-77998161D02*
G01*
X121547444Y-78291527D01*
X121695603Y-78371739D01*
X121701247Y-78378691D01*
X121700511Y-78387233D01*
X121103226Y-79589653D01*
X121096477Y-79595538D01*
X121092748Y-79596148D01*
X120907252Y-79596148D01*
X120898979Y-79592721D01*
X120896774Y-79589653D01*
X120299488Y-78387233D01*
X120298876Y-78378299D01*
X120304395Y-78371739D01*
X120994431Y-77998162D01*
X121003337Y-77997238D01*
X121005565Y-77998161D01*
G37*
G04 #@! TD.AperFunction*
G04 #@! TA.AperFunction,Conductor*
G36*
X144291151Y-69939791D02*
G01*
X144359714Y-69968192D01*
X144359724Y-69968196D01*
X144881139Y-70138900D01*
X145819401Y-70446075D01*
X145826197Y-70451905D01*
X145826879Y-70460833D01*
X145826574Y-70461659D01*
X145502562Y-71246214D01*
X145496237Y-71252553D01*
X145496214Y-71252562D01*
X144711661Y-71576535D01*
X144702706Y-71576526D01*
X144696381Y-71570187D01*
X144696079Y-71569374D01*
X144218286Y-70109608D01*
X144218285Y-70109608D01*
X144192016Y-70126934D01*
X144183223Y-70128628D01*
X144175807Y-70123609D01*
X144173874Y-70117167D01*
X144173874Y-69950600D01*
X144177301Y-69942327D01*
X144185574Y-69938900D01*
X144286673Y-69938900D01*
X144291151Y-69939791D01*
G37*
G04 #@! TD.AperFunction*
G04 #@! TA.AperFunction,Conductor*
G36*
X142101724Y-65415989D02*
G01*
X142476686Y-65545090D01*
X143238402Y-65807352D01*
X143245109Y-65813286D01*
X143245808Y-65821750D01*
X143044964Y-66497085D01*
X143039321Y-66504038D01*
X143037084Y-66504965D01*
X142361747Y-66705809D01*
X142352840Y-66704882D01*
X142347351Y-66698406D01*
X141955787Y-65561955D01*
X141956332Y-65553019D01*
X141958572Y-65549877D01*
X142089642Y-65418779D01*
X142097914Y-65415352D01*
X142101724Y-65415989D01*
G37*
G04 #@! TD.AperFunction*
G04 #@! TA.AperFunction,Conductor*
G36*
X146263631Y-81181918D02*
G01*
X146269151Y-81188478D01*
X146697046Y-82461062D01*
X146696434Y-82469996D01*
X146694229Y-82473064D01*
X146563064Y-82604229D01*
X146554791Y-82607656D01*
X146551062Y-82607046D01*
X145278478Y-82179151D01*
X145271729Y-82173266D01*
X145270993Y-82164725D01*
X145494763Y-81412637D01*
X145500406Y-81405687D01*
X145502630Y-81404765D01*
X146254725Y-81180993D01*
X146263631Y-81181918D01*
G37*
G04 #@! TD.AperFunction*
G04 #@! TA.AperFunction,Conductor*
G36*
X140600985Y-84007038D02*
G01*
X140603213Y-84010152D01*
X141158223Y-85139902D01*
X141158795Y-85148839D01*
X141156974Y-85152222D01*
X140509252Y-85989046D01*
X140501478Y-85993491D01*
X140492839Y-85991137D01*
X140490748Y-85989046D01*
X139843025Y-85152222D01*
X139840671Y-85143583D01*
X139841774Y-85139906D01*
X140396787Y-84010152D01*
X140403510Y-84004238D01*
X140407288Y-84003611D01*
X140592712Y-84003611D01*
X140600985Y-84007038D01*
G37*
G04 #@! TD.AperFunction*
M02*
