G04 #@! TF.GenerationSoftware,KiCad,Pcbnew,10.0.5-71-g2cb2c974e9*
G04 #@! TF.CreationDate,2026-09-07T20:20:52-04:00*
G04 #@! TF.ProjectId,Fury-Taur,46757279-2d54-4617-9572-2e6b69636164,rev?*
G04 #@! TF.SameCoordinates,Original*
G04 #@! TF.FileFunction,Legend,Bot*
G04 #@! TF.FilePolarity,Positive*
%FSLAX46Y46*%
G04 Gerber Fmt 4.6, Leading zero omitted, Abs format (unit mm)*
G04 Created by KiCad (PCBNEW 10.0.5-71-g2cb2c974e9) date 2026-09-07 20:20:52*
%MOMM*%
%LPD*%
G01*
G04 APERTURE LIST*
G04 Aperture macros list*
%AMRoundRect*
0 Rectangle with rounded corners*
0 $1 Rounding radius*
0 $2 $3 $4 $5 $6 $7 $8 $9 X,Y pos of 4 corners*
0 Add a 4 corners polygon primitive as box body*
4,1,4,$2,$3,$4,$5,$6,$7,$8,$9,$2,$3,0*
0 Add four circle primitives for the rounded corners*
1,1,$1+$1,$2,$3*
1,1,$1+$1,$4,$5*
1,1,$1+$1,$6,$7*
1,1,$1+$1,$8,$9*
0 Add four rect primitives between the rounded corners*
20,1,$1+$1,$2,$3,$4,$5,0*
20,1,$1+$1,$4,$5,$6,$7,0*
20,1,$1+$1,$6,$7,$8,$9,0*
20,1,$1+$1,$8,$9,$2,$3,0*%
G04 Aperture macros list end*
%ADD10C,0.100000*%
%ADD11C,1.440000*%
%ADD12C,2.400000*%
%ADD13RoundRect,0.250001X-0.949999X0.949999X-0.949999X-0.949999X0.949999X-0.949999X0.949999X0.949999X0*%
%ADD14RoundRect,0.250000X-0.600000X-0.600000X0.600000X-0.600000X0.600000X0.600000X-0.600000X0.600000X0*%
%ADD15C,1.648000*%
%ADD16RoundRect,0.250000X-0.550000X-0.550000X0.550000X-0.550000X0.550000X0.550000X-0.550000X0.550000X0*%
%ADD17C,1.600000*%
%ADD18O,3.000000X1.200000*%
%ADD19R,1.100000X1.800000*%
%ADD20RoundRect,0.275000X-0.275000X-0.625000X0.275000X-0.625000X0.275000X0.625000X-0.275000X0.625000X0*%
%ADD21C,1.400000*%
%ADD22C,1.450000*%
%ADD23RoundRect,0.250001X0.949999X-0.949999X0.949999X0.949999X-0.949999X0.949999X-0.949999X-0.949999X0*%
%ADD24RoundRect,0.249999X0.850001X-0.850001X0.850001X0.850001X-0.850001X0.850001X-0.850001X-0.850001X0*%
%ADD25C,2.200000*%
%ADD26O,2.200000X3.500000*%
%ADD27R,1.500000X2.500000*%
%ADD28O,1.500000X2.500000*%
%ADD29O,1.200000X3.200000*%
%ADD30RoundRect,0.249999X-0.850001X0.850001X-0.850001X-0.850001X0.850001X-0.850001X0.850001X0.850001X0*%
G04 APERTURE END LIST*
D10*
X88375312Y-75457419D02*
X88137217Y-76457419D01*
X88137217Y-76457419D02*
X87946741Y-75743133D01*
X87946741Y-75743133D02*
X87756265Y-76457419D01*
X87756265Y-76457419D02*
X87518170Y-75457419D01*
X87137217Y-76457419D02*
X87137217Y-75457419D01*
X86708646Y-76457419D02*
X86708646Y-75933609D01*
X86708646Y-75933609D02*
X86756265Y-75838371D01*
X86756265Y-75838371D02*
X86851503Y-75790752D01*
X86851503Y-75790752D02*
X86994360Y-75790752D01*
X86994360Y-75790752D02*
X87089598Y-75838371D01*
X87089598Y-75838371D02*
X87137217Y-75885990D01*
X86232455Y-76457419D02*
X86232455Y-75790752D01*
X86232455Y-75457419D02*
X86280074Y-75505038D01*
X86280074Y-75505038D02*
X86232455Y-75552657D01*
X86232455Y-75552657D02*
X86184836Y-75505038D01*
X86184836Y-75505038D02*
X86232455Y-75457419D01*
X86232455Y-75457419D02*
X86232455Y-75552657D01*
X85899122Y-75790752D02*
X85518170Y-75790752D01*
X85756265Y-75457419D02*
X85756265Y-76314561D01*
X85756265Y-76314561D02*
X85708646Y-76409800D01*
X85708646Y-76409800D02*
X85613408Y-76457419D01*
X85613408Y-76457419D02*
X85518170Y-76457419D01*
X84803884Y-76409800D02*
X84899122Y-76457419D01*
X84899122Y-76457419D02*
X85089598Y-76457419D01*
X85089598Y-76457419D02*
X85184836Y-76409800D01*
X85184836Y-76409800D02*
X85232455Y-76314561D01*
X85232455Y-76314561D02*
X85232455Y-75933609D01*
X85232455Y-75933609D02*
X85184836Y-75838371D01*
X85184836Y-75838371D02*
X85089598Y-75790752D01*
X85089598Y-75790752D02*
X84899122Y-75790752D01*
X84899122Y-75790752D02*
X84803884Y-75838371D01*
X84803884Y-75838371D02*
X84756265Y-75933609D01*
X84756265Y-75933609D02*
X84756265Y-76028847D01*
X84756265Y-76028847D02*
X85232455Y-76124085D01*
G36*
X147800697Y-72580081D02*
G01*
X147796231Y-72639588D01*
X147783779Y-72688557D01*
X147764271Y-72728903D01*
X147737927Y-72762103D01*
X147704843Y-72788459D01*
X147664263Y-72808047D01*
X147614606Y-72820600D01*
X147553829Y-72825118D01*
X147482818Y-72819128D01*
X147427516Y-72802764D01*
X147384569Y-72777491D01*
X147350837Y-72742097D01*
X147330860Y-72700323D01*
X147323935Y-72650057D01*
X147329655Y-72605260D01*
X147345673Y-72570251D01*
X147370915Y-72540993D01*
X147404658Y-72516334D01*
X147443737Y-72496693D01*
X147489654Y-72479881D01*
X147587901Y-72451182D01*
X147707274Y-72414729D01*
X147763791Y-72391548D01*
X147813337Y-72362217D01*
X147855800Y-72325113D01*
X147889174Y-72279602D01*
X147904578Y-72245306D01*
X147914412Y-72204014D01*
X147917934Y-72154244D01*
X147911198Y-72094790D01*
X147891434Y-72041526D01*
X147859838Y-71994109D01*
X147817367Y-71953232D01*
X147766146Y-71920820D01*
X147703550Y-71895835D01*
X147635282Y-71880736D01*
X147558958Y-71875502D01*
X147475827Y-71881503D01*
X147406008Y-71898366D01*
X147347224Y-71924961D01*
X147297679Y-71960987D01*
X147256956Y-72006727D01*
X147227546Y-72060502D01*
X147209166Y-72123910D01*
X147202669Y-72199185D01*
X147335659Y-72199185D01*
X147340851Y-72145817D01*
X147355259Y-72103319D01*
X147378028Y-72066421D01*
X147406306Y-72036824D01*
X147439895Y-72013770D01*
X147478297Y-71997562D01*
X147519253Y-71988073D01*
X147560790Y-71984923D01*
X147599748Y-71987373D01*
X147638459Y-71994754D01*
X147675144Y-72007327D01*
X147706908Y-72024856D01*
X147734079Y-72047727D01*
X147755146Y-72075293D01*
X147768628Y-72107387D01*
X147773342Y-72146001D01*
X147767975Y-72189523D01*
X147753070Y-72223060D01*
X147729532Y-72251115D01*
X147698421Y-72274839D01*
X147662140Y-72293879D01*
X147618553Y-72310560D01*
X147522505Y-72339319D01*
X147400750Y-72377116D01*
X147341570Y-72401423D01*
X147290047Y-72431032D01*
X147245569Y-72468320D01*
X147210179Y-72514380D01*
X147193632Y-72549294D01*
X147183106Y-72591261D01*
X147179344Y-72641814D01*
X147186328Y-72705339D01*
X147206699Y-72761615D01*
X147239281Y-72811508D01*
X147283025Y-72854061D01*
X147335940Y-72887685D01*
X147400750Y-72913595D01*
X147471777Y-72929093D01*
X147553524Y-72934539D01*
X147644013Y-72928064D01*
X147719626Y-72909915D01*
X147782923Y-72881377D01*
X147835929Y-72842826D01*
X147879114Y-72793791D01*
X147910577Y-72735088D01*
X147930411Y-72664749D01*
X147937473Y-72580081D01*
X147800697Y-72580081D01*
G37*
G36*
X147014235Y-71898949D02*
G01*
X146885275Y-71898949D01*
X146885275Y-72915000D01*
X147014235Y-72915000D01*
X147014235Y-71898949D01*
G37*
G36*
X146430551Y-72175346D02*
G01*
X146478207Y-72184999D01*
X146521598Y-72200650D01*
X146580888Y-72235126D01*
X146630896Y-72281006D01*
X146670686Y-72336695D01*
X146700261Y-72402517D01*
X146717983Y-72474250D01*
X146724075Y-72553337D01*
X146717830Y-72642919D01*
X146700328Y-72717871D01*
X146672836Y-72780671D01*
X146635781Y-72833300D01*
X146588388Y-72876417D01*
X146531501Y-72907761D01*
X146463182Y-72927506D01*
X146380730Y-72934539D01*
X146299339Y-72927596D01*
X146228262Y-72907662D01*
X146165614Y-72875310D01*
X146124914Y-72842399D01*
X146092583Y-72802695D01*
X146068034Y-72755312D01*
X146051369Y-72698845D01*
X146187107Y-72698845D01*
X146204349Y-72742517D01*
X146227528Y-72775770D01*
X146256655Y-72800450D01*
X146291175Y-72817859D01*
X146330818Y-72828662D01*
X146376700Y-72832445D01*
X146420114Y-72828001D01*
X146458827Y-72815043D01*
X146493821Y-72794272D01*
X146524834Y-72766378D01*
X146550342Y-72732391D01*
X146570446Y-72691273D01*
X146582962Y-72645878D01*
X146587299Y-72594553D01*
X146049965Y-72594553D01*
X146055776Y-72492058D01*
X146056352Y-72489040D01*
X146187107Y-72489040D01*
X146585894Y-72489040D01*
X146570886Y-72417951D01*
X146548102Y-72365197D01*
X146518728Y-72326802D01*
X146480473Y-72297787D01*
X146435851Y-72280228D01*
X146382990Y-72274106D01*
X146332933Y-72280121D01*
X146289654Y-72297578D01*
X146251526Y-72326802D01*
X146222400Y-72365231D01*
X146200500Y-72417958D01*
X146187107Y-72489040D01*
X146056352Y-72489040D01*
X146071863Y-72407796D01*
X146096636Y-72338797D01*
X146129160Y-72282533D01*
X146163332Y-72243754D01*
X146204091Y-72213467D01*
X146252396Y-72191159D01*
X146309715Y-72177035D01*
X146377922Y-72172013D01*
X146430551Y-72175346D01*
G37*
G36*
X145646043Y-72175346D02*
G01*
X145693699Y-72184999D01*
X145737090Y-72200650D01*
X145796380Y-72235126D01*
X145846388Y-72281006D01*
X145886178Y-72336695D01*
X145915753Y-72402517D01*
X145933475Y-72474250D01*
X145939567Y-72553337D01*
X145933322Y-72642919D01*
X145915820Y-72717871D01*
X145888328Y-72780671D01*
X145851273Y-72833300D01*
X145803880Y-72876417D01*
X145746993Y-72907761D01*
X145678674Y-72927506D01*
X145596222Y-72934539D01*
X145514831Y-72927596D01*
X145443754Y-72907662D01*
X145381106Y-72875310D01*
X145340406Y-72842399D01*
X145308075Y-72802695D01*
X145283526Y-72755312D01*
X145266861Y-72698845D01*
X145402599Y-72698845D01*
X145419841Y-72742517D01*
X145443020Y-72775770D01*
X145472147Y-72800450D01*
X145506667Y-72817859D01*
X145546310Y-72828662D01*
X145592192Y-72832445D01*
X145635606Y-72828001D01*
X145674319Y-72815043D01*
X145709313Y-72794272D01*
X145740326Y-72766378D01*
X145765834Y-72732391D01*
X145785938Y-72691273D01*
X145798454Y-72645878D01*
X145802791Y-72594553D01*
X145265457Y-72594553D01*
X145271268Y-72492058D01*
X145271844Y-72489040D01*
X145402599Y-72489040D01*
X145801386Y-72489040D01*
X145786378Y-72417951D01*
X145763594Y-72365197D01*
X145734220Y-72326802D01*
X145695965Y-72297787D01*
X145651343Y-72280228D01*
X145598482Y-72274106D01*
X145548425Y-72280121D01*
X145505146Y-72297578D01*
X145467018Y-72326802D01*
X145437892Y-72365231D01*
X145415992Y-72417958D01*
X145402599Y-72489040D01*
X145271844Y-72489040D01*
X145287355Y-72407796D01*
X145312128Y-72338797D01*
X145344652Y-72282533D01*
X145378824Y-72243754D01*
X145419583Y-72213467D01*
X145467888Y-72191159D01*
X145525207Y-72177035D01*
X145593414Y-72172013D01*
X145646043Y-72175346D01*
G37*
G36*
X145204152Y-72193995D02*
G01*
X145062796Y-72193995D01*
X144935362Y-72554497D01*
X144895490Y-72678817D01*
X144861174Y-72803197D01*
X144852747Y-72803197D01*
X144818492Y-72678817D01*
X144778558Y-72554497D01*
X144651186Y-72193995D01*
X144519539Y-72193995D01*
X144786985Y-72915000D01*
X144936767Y-72915000D01*
X145204152Y-72193995D01*
G37*
G36*
X144165931Y-72175346D02*
G01*
X144213587Y-72184999D01*
X144256978Y-72200650D01*
X144316269Y-72235126D01*
X144366277Y-72281006D01*
X144406067Y-72336695D01*
X144435642Y-72402517D01*
X144453364Y-72474250D01*
X144459455Y-72553337D01*
X144453210Y-72642919D01*
X144435709Y-72717871D01*
X144408217Y-72780671D01*
X144371161Y-72833300D01*
X144323768Y-72876417D01*
X144266882Y-72907761D01*
X144198562Y-72927506D01*
X144116111Y-72934539D01*
X144034719Y-72927596D01*
X143963643Y-72907662D01*
X143900994Y-72875310D01*
X143860295Y-72842399D01*
X143827964Y-72802695D01*
X143803415Y-72755312D01*
X143786749Y-72698845D01*
X143922487Y-72698845D01*
X143939729Y-72742517D01*
X143962908Y-72775770D01*
X143992035Y-72800450D01*
X144026555Y-72817859D01*
X144066198Y-72828662D01*
X144112081Y-72832445D01*
X144155494Y-72828001D01*
X144194207Y-72815043D01*
X144229202Y-72794272D01*
X144260214Y-72766378D01*
X144285722Y-72732391D01*
X144305826Y-72691273D01*
X144318342Y-72645878D01*
X144322679Y-72594553D01*
X143785345Y-72594553D01*
X143791157Y-72492058D01*
X143791733Y-72489040D01*
X143922487Y-72489040D01*
X144321275Y-72489040D01*
X144306266Y-72417951D01*
X144283482Y-72365197D01*
X144254108Y-72326802D01*
X144215854Y-72297787D01*
X144171232Y-72280228D01*
X144118370Y-72274106D01*
X144068313Y-72280121D01*
X144025034Y-72297578D01*
X143986906Y-72326802D01*
X143957780Y-72365231D01*
X143935881Y-72417958D01*
X143922487Y-72489040D01*
X143791733Y-72489040D01*
X143807243Y-72407796D01*
X143832017Y-72338797D01*
X143864541Y-72282533D01*
X143898713Y-72243754D01*
X143939471Y-72213467D01*
X143987776Y-72191159D01*
X144045095Y-72177035D01*
X144113302Y-72172013D01*
X144165931Y-72175346D01*
G37*
G36*
X147871039Y-76415000D02*
G01*
X147734263Y-76415000D01*
X147734263Y-75996856D01*
X147621118Y-75996856D01*
X147531725Y-75996856D01*
X147492654Y-76000161D01*
X147459795Y-76009495D01*
X147430517Y-76025618D01*
X147404658Y-76049490D01*
X147383900Y-76080535D01*
X147365518Y-76125938D01*
X147274720Y-76415000D01*
X147127259Y-76415000D01*
X147233810Y-76089607D01*
X147254876Y-76039354D01*
X147269268Y-76015438D01*
X147287177Y-75993986D01*
X147308826Y-75975750D01*
X147336209Y-75960464D01*
X147367235Y-75950027D01*
X147404902Y-75944405D01*
X147404902Y-75940191D01*
X147356337Y-75925486D01*
X147313677Y-75904471D01*
X147275687Y-75877352D01*
X147244251Y-75846219D01*
X147218658Y-75810662D01*
X147199371Y-75771236D01*
X147187293Y-75729072D01*
X147184433Y-75697903D01*
X147323935Y-75697903D01*
X147327242Y-75739354D01*
X147336337Y-75772307D01*
X147350436Y-75798469D01*
X147380883Y-75831131D01*
X147419556Y-75854767D01*
X147463851Y-75870022D01*
X147514445Y-75878642D01*
X147618431Y-75883527D01*
X147734263Y-75883527D01*
X147734263Y-75512278D01*
X147618431Y-75512278D01*
X147544487Y-75512278D01*
X147507546Y-75514095D01*
X147474633Y-75519300D01*
X147433367Y-75531005D01*
X147397846Y-75548362D01*
X147367227Y-75571324D01*
X147344432Y-75600546D01*
X147329523Y-75641423D01*
X147323935Y-75697903D01*
X147184433Y-75697903D01*
X147183251Y-75685019D01*
X147189771Y-75613905D01*
X147207860Y-75556944D01*
X147236374Y-75511179D01*
X147274973Y-75472553D01*
X147320295Y-75442276D01*
X147373333Y-75420015D01*
X147419153Y-75408706D01*
X147469138Y-75402491D01*
X147570437Y-75399010D01*
X147871039Y-75399010D01*
X147871039Y-76415000D01*
G37*
G36*
X146858897Y-75692041D02*
G01*
X146858897Y-76415000D01*
X146987857Y-76415000D01*
X146987857Y-75692041D01*
X146858897Y-75692041D01*
G37*
G36*
X146987857Y-75398949D02*
G01*
X146858897Y-75398949D01*
X146858897Y-75539633D01*
X146987857Y-75539633D01*
X146987857Y-75398949D01*
G37*
G36*
X146527765Y-75784120D02*
G01*
X146501277Y-75754265D01*
X146474031Y-75730936D01*
X146444760Y-75712029D01*
X146415474Y-75698086D01*
X146356184Y-75681294D01*
X146298909Y-75676409D01*
X146237282Y-75680681D01*
X146188876Y-75692318D01*
X146151081Y-75710054D01*
X146118050Y-75735465D01*
X146091216Y-75766971D01*
X146070176Y-75805369D01*
X146057578Y-75843127D01*
X146049965Y-75885969D01*
X146045080Y-75981957D01*
X146045080Y-76415000D01*
X146174040Y-76415000D01*
X146174040Y-76006992D01*
X146178925Y-75924316D01*
X146186525Y-75885041D01*
X146199075Y-75850737D01*
X146218231Y-75821110D01*
X146245054Y-75798164D01*
X146279072Y-75783871D01*
X146327180Y-75778503D01*
X146371342Y-75782733D01*
X146408663Y-75794761D01*
X146440514Y-75814218D01*
X146467803Y-75841578D01*
X146493769Y-75886538D01*
X146511293Y-75949578D01*
X146517934Y-76036423D01*
X146517934Y-76415000D01*
X146646894Y-76415000D01*
X146646894Y-75692041D01*
X146527765Y-75692041D01*
X146527765Y-75784120D01*
G37*
G36*
X145632287Y-75679875D02*
G01*
X145674745Y-75689944D01*
X145713520Y-75706390D01*
X145765726Y-75741487D01*
X145808714Y-75786563D01*
X145842353Y-75840021D01*
X145867515Y-75902334D01*
X145882699Y-75968770D01*
X145887787Y-76037583D01*
X145882369Y-76112256D01*
X145866782Y-76178450D01*
X145841013Y-76238953D01*
X145807309Y-76289275D01*
X145764760Y-76330782D01*
X145714253Y-76361816D01*
X145657309Y-76381015D01*
X145592437Y-76387644D01*
X145519134Y-76381330D01*
X145462988Y-76364197D01*
X145430223Y-76345518D01*
X145397425Y-76318024D01*
X145364314Y-76280116D01*
X145364314Y-76351252D01*
X145367797Y-76419504D01*
X145377015Y-76470626D01*
X145393115Y-76515455D01*
X145413529Y-76548112D01*
X145440335Y-76573258D01*
X145473185Y-76590000D01*
X145510788Y-76599245D01*
X145556838Y-76602578D01*
X145607551Y-76598579D01*
X145647072Y-76587679D01*
X145677739Y-76570949D01*
X145701304Y-76546840D01*
X145715951Y-76514731D01*
X145721275Y-76471969D01*
X145856646Y-76471969D01*
X145846823Y-76528448D01*
X145828669Y-76574784D01*
X145802712Y-76612837D01*
X145768597Y-76643855D01*
X145728571Y-76667399D01*
X145681212Y-76685018D01*
X145625187Y-76696267D01*
X145558914Y-76700275D01*
X145497742Y-76696959D01*
X145447309Y-76687779D01*
X145405896Y-76673653D01*
X145367550Y-76653033D01*
X145335399Y-76627677D01*
X145308749Y-76597388D01*
X145278392Y-76543407D01*
X145257702Y-76475022D01*
X145246881Y-76399761D01*
X145242986Y-76309914D01*
X145242986Y-76025005D01*
X145362909Y-76025005D01*
X145369547Y-76105724D01*
X145387745Y-76169262D01*
X145415910Y-76219178D01*
X145445011Y-76250371D01*
X145478038Y-76272134D01*
X145515779Y-76285355D01*
X145559525Y-76289947D01*
X145603315Y-76285380D01*
X145640956Y-76272254D01*
X145673759Y-76250694D01*
X145702529Y-76219849D01*
X145730156Y-76170408D01*
X145748174Y-76106308D01*
X145754797Y-76023600D01*
X145748555Y-75950420D01*
X145731190Y-75891068D01*
X145703872Y-75842800D01*
X145675864Y-75812838D01*
X145643175Y-75791688D01*
X145604884Y-75778675D01*
X145559525Y-75774106D01*
X145517738Y-75778742D01*
X145480085Y-75792363D01*
X145446464Y-75814251D01*
X145417315Y-75844204D01*
X145394216Y-75880367D01*
X145376831Y-75924071D01*
X145366497Y-75971679D01*
X145362909Y-76025005D01*
X145242986Y-76025005D01*
X145242986Y-75691552D01*
X145361505Y-75691552D01*
X145361505Y-75790898D01*
X145389924Y-75750464D01*
X145425258Y-75719208D01*
X145468424Y-75696248D01*
X145521067Y-75681646D01*
X145585415Y-75676409D01*
X145632287Y-75679875D01*
G37*
G36*
X147648290Y-79012278D02*
G01*
X147984368Y-79012278D01*
X147984368Y-78898949D01*
X147175436Y-78898949D01*
X147175436Y-79012278D01*
X147511514Y-79012278D01*
X147511514Y-79915000D01*
X147648290Y-79915000D01*
X147648290Y-79012278D01*
G37*
G36*
X146924354Y-79192041D02*
G01*
X146924354Y-79915000D01*
X147053314Y-79915000D01*
X147053314Y-79192041D01*
X146924354Y-79192041D01*
G37*
G36*
X147053314Y-78898949D02*
G01*
X146924354Y-78898949D01*
X146924354Y-79039633D01*
X147053314Y-79039633D01*
X147053314Y-78898949D01*
G37*
G36*
X146410113Y-79183344D02*
G01*
X146455414Y-79193325D01*
X146494670Y-79209199D01*
X146530507Y-79231560D01*
X146561576Y-79259379D01*
X146588276Y-79293096D01*
X146588276Y-79192041D01*
X146712351Y-79192041D01*
X146712351Y-80196367D01*
X146583391Y-80196367D01*
X146583391Y-79834155D01*
X146558320Y-79865581D01*
X146528667Y-79890096D01*
X146493876Y-79908283D01*
X146435035Y-79924745D01*
X146363633Y-79930631D01*
X146298612Y-79924053D01*
X146240474Y-79904863D01*
X146188324Y-79873588D01*
X146143204Y-79830919D01*
X146107067Y-79778416D01*
X146078846Y-79712950D01*
X146061754Y-79640402D01*
X146055704Y-79555230D01*
X146188695Y-79555230D01*
X146195426Y-79640318D01*
X146213714Y-79706119D01*
X146241695Y-79756730D01*
X146270897Y-79788521D01*
X146303761Y-79810585D01*
X146341034Y-79823922D01*
X146383967Y-79828538D01*
X146428231Y-79823550D01*
X146466948Y-79809059D01*
X146500999Y-79785584D01*
X146530390Y-79753250D01*
X146553538Y-79714317D01*
X146571545Y-79666788D01*
X146582389Y-79614881D01*
X146586200Y-79555230D01*
X146582423Y-79496678D01*
X146571545Y-79444344D01*
X146553466Y-79396298D01*
X146530390Y-79357882D01*
X146501081Y-79326001D01*
X146466948Y-79302133D01*
X146428189Y-79287087D01*
X146383967Y-79281922D01*
X146341034Y-79286537D01*
X146303761Y-79299875D01*
X146270897Y-79321938D01*
X146241695Y-79353729D01*
X146213714Y-79404340D01*
X146195426Y-79470142D01*
X146188695Y-79555230D01*
X146055704Y-79555230D01*
X146060943Y-79474968D01*
X146075976Y-79403860D01*
X146101304Y-79338621D01*
X146134717Y-79285219D01*
X146177525Y-79241041D01*
X146229056Y-79207733D01*
X146267222Y-79192521D01*
X146309822Y-79183100D01*
X146357650Y-79179829D01*
X146410113Y-79183344D01*
G37*
G36*
X111757013Y-64830000D02*
G01*
X111757013Y-64789394D01*
X111752059Y-64721614D01*
X111737290Y-64656282D01*
X111713124Y-64595566D01*
X111682397Y-64546983D01*
X111648547Y-64510830D01*
X111602896Y-64469253D01*
X111548702Y-64427766D01*
X111467035Y-64374670D01*
X111367079Y-64308785D01*
X111328898Y-64277212D01*
X111300889Y-64248579D01*
X111278691Y-64218161D01*
X111264314Y-64188312D01*
X111255913Y-64156511D01*
X111253018Y-64121085D01*
X111258962Y-64071036D01*
X111275554Y-64031721D01*
X111302416Y-64000612D01*
X111337483Y-63977846D01*
X111380074Y-63963613D01*
X111432170Y-63958541D01*
X111490943Y-63965163D01*
X111537245Y-63983606D01*
X111573953Y-64013251D01*
X111600346Y-64052721D01*
X111617608Y-64105961D01*
X111624023Y-64177199D01*
X111757013Y-64177199D01*
X111750461Y-64103019D01*
X111731795Y-64039569D01*
X111701430Y-63983111D01*
X111662369Y-63937536D01*
X111614401Y-63901483D01*
X111557161Y-63874705D01*
X111493930Y-63858634D01*
X111421728Y-63853028D01*
X111355016Y-63858461D01*
X111296798Y-63874033D01*
X111244236Y-63899283D01*
X111201421Y-63931430D01*
X111166749Y-63971230D01*
X111141093Y-64018258D01*
X111125419Y-64070421D01*
X111120027Y-64128778D01*
X111123599Y-64175300D01*
X111134010Y-64217683D01*
X111151668Y-64257818D01*
X111178035Y-64298161D01*
X111211383Y-64336142D01*
X111256193Y-64376563D01*
X111307365Y-64415387D01*
X111372697Y-64459178D01*
X111445298Y-64506683D01*
X111492742Y-64541732D01*
X111526264Y-64568293D01*
X111552826Y-64594916D01*
X111589096Y-64647367D01*
X111601261Y-64677002D01*
X111608635Y-64716671D01*
X111116120Y-64716671D01*
X111116120Y-64830000D01*
X111757013Y-64830000D01*
G37*
G36*
X110714560Y-63858368D02*
G01*
X110770840Y-63873765D01*
X110821025Y-63898838D01*
X110866114Y-63933958D01*
X110906681Y-63980218D01*
X110937744Y-64030810D01*
X110963275Y-64091376D01*
X110982765Y-64163555D01*
X110995354Y-64249256D01*
X110999860Y-64350612D01*
X110995361Y-64451928D01*
X110982784Y-64537699D01*
X110963301Y-64610034D01*
X110937765Y-64670820D01*
X110906681Y-64721678D01*
X110866078Y-64768215D01*
X110820970Y-64803522D01*
X110770784Y-64828714D01*
X110714523Y-64844177D01*
X110650837Y-64849539D01*
X110597348Y-64845885D01*
X110549005Y-64835299D01*
X110505024Y-64818093D01*
X110464560Y-64793936D01*
X110427989Y-64762718D01*
X110394993Y-64723754D01*
X110367856Y-64680175D01*
X110344384Y-64628611D01*
X110324895Y-64567927D01*
X110306908Y-64470789D01*
X110300348Y-64350551D01*
X110437124Y-64350551D01*
X110441076Y-64447408D01*
X110451917Y-64526348D01*
X110468337Y-64590109D01*
X110489331Y-64641139D01*
X110520043Y-64687405D01*
X110556312Y-64718740D01*
X110598989Y-64737499D01*
X110650104Y-64744026D01*
X110701957Y-64737454D01*
X110744953Y-64718630D01*
X110781205Y-64687291D01*
X110811610Y-64641139D01*
X110832296Y-64590151D01*
X110848488Y-64526405D01*
X110859185Y-64447449D01*
X110863084Y-64350551D01*
X110859120Y-64251171D01*
X110848324Y-64171448D01*
X110832123Y-64108224D01*
X110811610Y-64058681D01*
X110781369Y-64013944D01*
X110745197Y-63983410D01*
X110702148Y-63964988D01*
X110650104Y-63958541D01*
X110598800Y-63964945D01*
X110556070Y-63983302D01*
X110519880Y-64013832D01*
X110489331Y-64058681D01*
X110468512Y-64108267D01*
X110452083Y-64171505D01*
X110441141Y-64251214D01*
X110437124Y-64350551D01*
X110300348Y-64350551D01*
X110304885Y-64249268D01*
X110317562Y-64163608D01*
X110337197Y-64091438D01*
X110362930Y-64030853D01*
X110394260Y-63980218D01*
X110435088Y-63933945D01*
X110480386Y-63898819D01*
X110530726Y-63873749D01*
X110587099Y-63858362D01*
X110650837Y-63853028D01*
X110714560Y-63858368D01*
G37*
G36*
X110197766Y-64830000D02*
G01*
X110197766Y-64789394D01*
X110192813Y-64721614D01*
X110178044Y-64656282D01*
X110153878Y-64595566D01*
X110123150Y-64546983D01*
X110089301Y-64510830D01*
X110043649Y-64469253D01*
X109989455Y-64427766D01*
X109907789Y-64374670D01*
X109807833Y-64308785D01*
X109769651Y-64277212D01*
X109741643Y-64248579D01*
X109719445Y-64218161D01*
X109705068Y-64188312D01*
X109696667Y-64156511D01*
X109693771Y-64121085D01*
X109699715Y-64071036D01*
X109716308Y-64031721D01*
X109743169Y-64000612D01*
X109778236Y-63977846D01*
X109820827Y-63963613D01*
X109872923Y-63958541D01*
X109931696Y-63965163D01*
X109977998Y-63983606D01*
X110014706Y-64013251D01*
X110041099Y-64052721D01*
X110058362Y-64105961D01*
X110064776Y-64177199D01*
X110197766Y-64177199D01*
X110191215Y-64103019D01*
X110172548Y-64039569D01*
X110142183Y-63983111D01*
X110103122Y-63937536D01*
X110055155Y-63901483D01*
X109997915Y-63874705D01*
X109934684Y-63858634D01*
X109862482Y-63853028D01*
X109795770Y-63858461D01*
X109737552Y-63874033D01*
X109684990Y-63899283D01*
X109642175Y-63931430D01*
X109607503Y-63971230D01*
X109581847Y-64018258D01*
X109566173Y-64070421D01*
X109560781Y-64128778D01*
X109564353Y-64175300D01*
X109574764Y-64217683D01*
X109592422Y-64257818D01*
X109618789Y-64298161D01*
X109652137Y-64336142D01*
X109696946Y-64376563D01*
X109748119Y-64415387D01*
X109813450Y-64459178D01*
X109886051Y-64506683D01*
X109933496Y-64541732D01*
X109967018Y-64568293D01*
X109993579Y-64594916D01*
X110029849Y-64647367D01*
X110042014Y-64677002D01*
X110049389Y-64716671D01*
X109556873Y-64716671D01*
X109556873Y-64830000D01*
X110197766Y-64830000D01*
G37*
G36*
X109133212Y-63857102D02*
G01*
X109184311Y-63868868D01*
X109230382Y-63887955D01*
X109272642Y-63914412D01*
X109310617Y-63947769D01*
X109344626Y-63988644D01*
X109372609Y-64034120D01*
X109396543Y-64087337D01*
X109416128Y-64149356D01*
X109434167Y-64247840D01*
X109440614Y-64364534D01*
X109434125Y-64482004D01*
X109416167Y-64578650D01*
X109388534Y-64657828D01*
X109352320Y-64722411D01*
X109313684Y-64768384D01*
X109269864Y-64803415D01*
X109220218Y-64828563D01*
X109163621Y-64844111D01*
X109098551Y-64849539D01*
X109028751Y-64843848D01*
X108965317Y-64827252D01*
X108907392Y-64799509D01*
X108858094Y-64761673D01*
X108817622Y-64714334D01*
X108786592Y-64657686D01*
X108767405Y-64594038D01*
X108761081Y-64523658D01*
X108893632Y-64523658D01*
X108897241Y-64571089D01*
X108907615Y-64612929D01*
X108924498Y-64651100D01*
X108946083Y-64682660D01*
X108973160Y-64708585D01*
X109005556Y-64727967D01*
X109041835Y-64739923D01*
X109082493Y-64744026D01*
X109124543Y-64739781D01*
X109162909Y-64727295D01*
X109197597Y-64707342D01*
X109227267Y-64681256D01*
X109251291Y-64649439D01*
X109269888Y-64610853D01*
X109281282Y-64568362D01*
X109285214Y-64520849D01*
X109281279Y-64476169D01*
X109269888Y-64436463D01*
X109251386Y-64400505D01*
X109227267Y-64370273D01*
X109197664Y-64345421D01*
X109162909Y-64326310D01*
X109124576Y-64314332D01*
X109082493Y-64310251D01*
X109026402Y-64317163D01*
X108981082Y-64336724D01*
X108944007Y-64368869D01*
X108916764Y-64410536D01*
X108899715Y-64461326D01*
X108893632Y-64523658D01*
X108761081Y-64523658D01*
X108760642Y-64518773D01*
X108767012Y-64447412D01*
X108785188Y-64386210D01*
X108814468Y-64331572D01*
X108851805Y-64287109D01*
X108897016Y-64251523D01*
X108948586Y-64225682D01*
X109004497Y-64210011D01*
X109063625Y-64204738D01*
X109126807Y-64210619D01*
X109181389Y-64227478D01*
X109229058Y-64254915D01*
X109270966Y-64293582D01*
X109307623Y-64345116D01*
X109307623Y-64310068D01*
X109303427Y-64232324D01*
X109291564Y-64165170D01*
X109271540Y-64103311D01*
X109246074Y-64053796D01*
X109212910Y-64012536D01*
X109174084Y-63983087D01*
X109129047Y-63964836D01*
X109076814Y-63958541D01*
X109028928Y-63963348D01*
X108990714Y-63976721D01*
X108960066Y-63997986D01*
X108936451Y-64026913D01*
X108919199Y-64065418D01*
X108909019Y-64116078D01*
X108770533Y-64116078D01*
X108782334Y-64054228D01*
X108802134Y-64002189D01*
X108829451Y-63958366D01*
X108864445Y-63921599D01*
X108906022Y-63892508D01*
X108954281Y-63871177D01*
X109010466Y-63857764D01*
X109076142Y-63853028D01*
X109133212Y-63857102D01*
G37*
G36*
X108298534Y-64830000D02*
G01*
X108005015Y-64830000D01*
X107908037Y-64824910D01*
X107831725Y-64811132D01*
X107761882Y-64786667D01*
X107698979Y-64751659D01*
X107639671Y-64702287D01*
X107589511Y-64643153D01*
X107548037Y-64573178D01*
X107518186Y-64497283D01*
X107499838Y-64413996D01*
X107493510Y-64321974D01*
X107638101Y-64321974D01*
X107641648Y-64388347D01*
X107651987Y-64449733D01*
X107668815Y-64506744D01*
X107692984Y-64560709D01*
X107721886Y-64604657D01*
X107755399Y-64639979D01*
X107804625Y-64673371D01*
X107867812Y-64697864D01*
X107938332Y-64711691D01*
X108023517Y-64716671D01*
X108161758Y-64716671D01*
X108161758Y-63927278D01*
X108023517Y-63927278D01*
X107937888Y-63932024D01*
X107864331Y-63945413D01*
X107798299Y-63969300D01*
X107749781Y-64001161D01*
X107716656Y-64036627D01*
X107688694Y-64081217D01*
X107666067Y-64136533D01*
X107645239Y-64225158D01*
X107638101Y-64321974D01*
X107493510Y-64321974D01*
X107499344Y-64229712D01*
X107516284Y-64145655D01*
X107543824Y-64068633D01*
X107582992Y-63997454D01*
X107631729Y-63937681D01*
X107690553Y-63888077D01*
X107754199Y-63853756D01*
X107827573Y-63830741D01*
X107907460Y-63818425D01*
X108005015Y-63813949D01*
X108298534Y-63813949D01*
X108298534Y-64830000D01*
G37*
G36*
X107189672Y-64107041D02*
G01*
X107189672Y-64830000D01*
X107318632Y-64830000D01*
X107318632Y-64107041D01*
X107189672Y-64107041D01*
G37*
G36*
X107318632Y-63813949D02*
G01*
X107189672Y-63813949D01*
X107189672Y-63954633D01*
X107318632Y-63954633D01*
X107318632Y-63813949D01*
G37*
G36*
X106899511Y-64598396D02*
G01*
X106893534Y-64647145D01*
X106876958Y-64684599D01*
X106850174Y-64713496D01*
X106815234Y-64733766D01*
X106769700Y-64746979D01*
X106710650Y-64751842D01*
X106661388Y-64748318D01*
X106623950Y-64738850D01*
X106595795Y-64724609D01*
X106573601Y-64703706D01*
X106560311Y-64677462D01*
X106555617Y-64644131D01*
X106559772Y-64612978D01*
X106571127Y-64590336D01*
X106588873Y-64572053D01*
X106612587Y-64556753D01*
X106639890Y-64545074D01*
X106672365Y-64535748D01*
X106742768Y-64521032D01*
X106838389Y-64501493D01*
X106884382Y-64487130D01*
X106924912Y-64467238D01*
X106959863Y-64439997D01*
X106988232Y-64403613D01*
X107006159Y-64358960D01*
X107012840Y-64297306D01*
X107007682Y-64252760D01*
X106992506Y-64212676D01*
X106968207Y-64177101D01*
X106935048Y-64146242D01*
X106895074Y-64121833D01*
X106846022Y-64102889D01*
X106792264Y-64091521D01*
X106729640Y-64087501D01*
X106660273Y-64091968D01*
X106603067Y-64104384D01*
X106555964Y-64123662D01*
X106517271Y-64149295D01*
X106485264Y-64182721D01*
X106462076Y-64223024D01*
X106447488Y-64271620D01*
X106442288Y-64330523D01*
X106571249Y-64330523D01*
X106576042Y-64286300D01*
X106589202Y-64252451D01*
X106610033Y-64226509D01*
X106639407Y-64207137D01*
X106679600Y-64194366D01*
X106733975Y-64189595D01*
X106778186Y-64193008D01*
X106813098Y-64202357D01*
X106840587Y-64216767D01*
X106862670Y-64237285D01*
X106875466Y-64261238D01*
X106879849Y-64289856D01*
X106875938Y-64318439D01*
X106865073Y-64339987D01*
X106848194Y-64357532D01*
X106826299Y-64371983D01*
X106800955Y-64383021D01*
X106769879Y-64392194D01*
X106700819Y-64406788D01*
X106602084Y-64428403D01*
X106553373Y-64443456D01*
X106511226Y-64463941D01*
X106474702Y-64491646D01*
X106444975Y-64527993D01*
X106431087Y-64556091D01*
X106422104Y-64591249D01*
X106418841Y-64635155D01*
X106424551Y-64681982D01*
X106441311Y-64723571D01*
X106467799Y-64760068D01*
X106503166Y-64791104D01*
X106545286Y-64815387D01*
X106596589Y-64834213D01*
X106652062Y-64845595D01*
X106713825Y-64849539D01*
X106790664Y-64844778D01*
X106853641Y-64831596D01*
X106905108Y-64811233D01*
X106947016Y-64784326D01*
X106982166Y-64748878D01*
X107007312Y-64707031D01*
X107022948Y-64657504D01*
X107028471Y-64598396D01*
X106899511Y-64598396D01*
G37*
G36*
X105663459Y-64586489D02*
G01*
X105682381Y-64660202D01*
X105709419Y-64718865D01*
X105743856Y-64765123D01*
X105785843Y-64800860D01*
X105836387Y-64827040D01*
X105897244Y-64843619D01*
X105970778Y-64849539D01*
X106025206Y-64846303D01*
X106073121Y-64837059D01*
X106115430Y-64822306D01*
X106173020Y-64789210D01*
X106220882Y-64744820D01*
X106258344Y-64690289D01*
X106285851Y-64624042D01*
X106301866Y-64551251D01*
X106307466Y-64468337D01*
X106301741Y-64389190D01*
X106285118Y-64317517D01*
X106257195Y-64251586D01*
X106219478Y-64196006D01*
X106171334Y-64150220D01*
X106112622Y-64115650D01*
X106069339Y-64100036D01*
X106021378Y-64090365D01*
X105967969Y-64087013D01*
X105902385Y-64091670D01*
X105846768Y-64104807D01*
X105799460Y-64125596D01*
X105759141Y-64153813D01*
X105725040Y-64189568D01*
X105697951Y-64232232D01*
X105677748Y-64282896D01*
X105664863Y-64343040D01*
X105799258Y-64343040D01*
X105814878Y-64284720D01*
X105839332Y-64242883D01*
X105872105Y-64213778D01*
X105914639Y-64195659D01*
X105970045Y-64189106D01*
X106018210Y-64194397D01*
X106058278Y-64209439D01*
X106092940Y-64233602D01*
X106121964Y-64266104D01*
X106144293Y-64305207D01*
X106161165Y-64353543D01*
X106170995Y-64406287D01*
X106174476Y-64467604D01*
X106167904Y-64550078D01*
X106149703Y-64616684D01*
X106121292Y-64670509D01*
X106091686Y-64704335D01*
X106057329Y-64727971D01*
X106017302Y-64742400D01*
X105970045Y-64747445D01*
X105923893Y-64742801D01*
X105885231Y-64729613D01*
X105852503Y-64708244D01*
X105826249Y-64679169D01*
X105805055Y-64639481D01*
X105789488Y-64586489D01*
X105663459Y-64586489D01*
G37*
G36*
X105290762Y-64094210D02*
G01*
X105358461Y-64114979D01*
X105418705Y-64148857D01*
X105468248Y-64193869D01*
X105507582Y-64248927D01*
X105537552Y-64314708D01*
X105555725Y-64386823D01*
X105562037Y-64468337D01*
X105555909Y-64549923D01*
X105538224Y-64622637D01*
X105508608Y-64688802D01*
X105468981Y-64743476D01*
X105419002Y-64787979D01*
X105359132Y-64821634D01*
X105292069Y-64842340D01*
X105215029Y-64849539D01*
X105136570Y-64842341D01*
X105068117Y-64821634D01*
X105007067Y-64787892D01*
X104956864Y-64743476D01*
X104917037Y-64688819D01*
X104886889Y-64622637D01*
X104868700Y-64549894D01*
X104862451Y-64468948D01*
X104995394Y-64468948D01*
X104999402Y-64530126D01*
X105010781Y-64583009D01*
X105029735Y-64631254D01*
X105054195Y-64670509D01*
X105085474Y-64702828D01*
X105123438Y-64727173D01*
X105166424Y-64742262D01*
X105215029Y-64747445D01*
X105262167Y-64742265D01*
X105303811Y-64727173D01*
X105340555Y-64702786D01*
X105371650Y-64669776D01*
X105395910Y-64629849D01*
X105414331Y-64580933D01*
X105425223Y-64527437D01*
X105429047Y-64466139D01*
X105425037Y-64404968D01*
X105413660Y-64352138D01*
X105394669Y-64303896D01*
X105370245Y-64264699D01*
X105339168Y-64232394D01*
X105302407Y-64208707D01*
X105260800Y-64194123D01*
X105213625Y-64189106D01*
X105165224Y-64194341D01*
X105123438Y-64209439D01*
X105086555Y-64233746D01*
X105054867Y-64266775D01*
X105029851Y-64306644D01*
X105010781Y-64354947D01*
X104999404Y-64407777D01*
X104995394Y-64468948D01*
X104862451Y-64468948D01*
X104862404Y-64468337D01*
X104868716Y-64386823D01*
X104886889Y-64314708D01*
X104916968Y-64248982D01*
X104956864Y-64193869D01*
X105007014Y-64148826D01*
X105067445Y-64114979D01*
X105135269Y-64094243D01*
X105213625Y-64087013D01*
X105290762Y-64094210D01*
G37*
G36*
X104617306Y-64527566D02*
G01*
X104610600Y-64593385D01*
X104592001Y-64645429D01*
X104562473Y-64686751D01*
X104522525Y-64717766D01*
X104472450Y-64737093D01*
X104409272Y-64744026D01*
X104366885Y-64740636D01*
X104328550Y-64730776D01*
X104293377Y-64714652D01*
X104263886Y-64693712D01*
X104239622Y-64667668D01*
X104221755Y-64637170D01*
X104210746Y-64603121D01*
X104206978Y-64565240D01*
X104213489Y-64514819D01*
X104231966Y-64474156D01*
X104262543Y-64440921D01*
X104301950Y-64417182D01*
X104352713Y-64401838D01*
X104417943Y-64396224D01*
X104462944Y-64396224D01*
X104462944Y-64286803D01*
X104432048Y-64286803D01*
X104364881Y-64281379D01*
X104313382Y-64266685D01*
X104274145Y-64244244D01*
X104243713Y-64212266D01*
X104225249Y-64172357D01*
X104218702Y-64122001D01*
X104224717Y-64074056D01*
X104241829Y-64034938D01*
X104270115Y-64002566D01*
X104306733Y-63978880D01*
X104352187Y-63963920D01*
X104408845Y-63958541D01*
X104468747Y-63964875D01*
X104516715Y-63982571D01*
X104555390Y-64010931D01*
X104584133Y-64049083D01*
X104602294Y-64098061D01*
X104608879Y-64161079D01*
X104742908Y-64161079D01*
X104733540Y-64088147D01*
X104713913Y-64027168D01*
X104684816Y-63976032D01*
X104646127Y-63933201D01*
X104599287Y-63899378D01*
X104543913Y-63874436D01*
X104478359Y-63858642D01*
X104400540Y-63853028D01*
X104330985Y-63857932D01*
X104270664Y-63871896D01*
X104215710Y-63895008D01*
X104170341Y-63925019D01*
X104132905Y-63962678D01*
X104105129Y-64006779D01*
X104087839Y-64056204D01*
X104081926Y-64111498D01*
X104085307Y-64149942D01*
X104095359Y-64186359D01*
X104111206Y-64220571D01*
X104131995Y-64251999D01*
X104157318Y-64279764D01*
X104186889Y-64302984D01*
X104220027Y-64321073D01*
X104256620Y-64333698D01*
X104256620Y-64340720D01*
X104197791Y-64360745D01*
X104152085Y-64388089D01*
X104117158Y-64422480D01*
X104091633Y-64464338D01*
X104075792Y-64513794D01*
X104070202Y-64572751D01*
X104076824Y-64632066D01*
X104096153Y-64684614D01*
X104126924Y-64731371D01*
X104168265Y-64771992D01*
X104218052Y-64804377D01*
X104278297Y-64829267D01*
X104343794Y-64844339D01*
X104416355Y-64849539D01*
X104492262Y-64843559D01*
X104557222Y-64826580D01*
X104615594Y-64798506D01*
X104663712Y-64761734D01*
X104702376Y-64715836D01*
X104730940Y-64660678D01*
X104748081Y-64598982D01*
X104754082Y-64527566D01*
X104617306Y-64527566D01*
G37*
G36*
X149177250Y-87509553D02*
G01*
X149177250Y-87400132D01*
X148903698Y-87400132D01*
X148903698Y-87110949D01*
X148786461Y-87110949D01*
X148786461Y-87400132D01*
X148509001Y-87400132D01*
X148509001Y-87509553D01*
X148786461Y-87509553D01*
X148786461Y-87798736D01*
X148903698Y-87798736D01*
X148903698Y-87509553D01*
X149177250Y-87509553D01*
G37*
G36*
X148117397Y-86858914D02*
G01*
X148179395Y-86876109D01*
X148236118Y-86903900D01*
X148284420Y-86940345D01*
X148324412Y-86985277D01*
X148355128Y-87038164D01*
X148374392Y-87096947D01*
X148381018Y-87163155D01*
X148375192Y-87231995D01*
X148358609Y-87290956D01*
X148331257Y-87343672D01*
X148294922Y-87387370D01*
X148250084Y-87422440D01*
X148196920Y-87448859D01*
X148138174Y-87464906D01*
X148071623Y-87470474D01*
X148010501Y-87464893D01*
X147957950Y-87448937D01*
X147912315Y-87423063D01*
X147872449Y-87386744D01*
X147837822Y-87338522D01*
X147837822Y-87393232D01*
X147841920Y-87477986D01*
X147853241Y-87547774D01*
X147870574Y-87604903D01*
X147893082Y-87651397D01*
X147924596Y-87692527D01*
X147961488Y-87720870D01*
X148004722Y-87738034D01*
X148056175Y-87744026D01*
X148105196Y-87739330D01*
X148145932Y-87726071D01*
X148180067Y-87704764D01*
X148207370Y-87675579D01*
X148227261Y-87637920D01*
X148239479Y-87589726D01*
X148371187Y-87589726D01*
X148360475Y-87648754D01*
X148340413Y-87699452D01*
X148311089Y-87744076D01*
X148273917Y-87781151D01*
X148229438Y-87810299D01*
X148175915Y-87832076D01*
X148117527Y-87845038D01*
X148052023Y-87849539D01*
X147985511Y-87843880D01*
X147927808Y-87827680D01*
X147877305Y-87801466D01*
X147832829Y-87764897D01*
X147793736Y-87716793D01*
X147757555Y-87649692D01*
X147729699Y-87566261D01*
X147711459Y-87463186D01*
X147704832Y-87336629D01*
X147711258Y-87218240D01*
X147720831Y-87165964D01*
X147860231Y-87165964D01*
X147864119Y-87206719D01*
X147875618Y-87244610D01*
X147894109Y-87279023D01*
X147918300Y-87307869D01*
X147947785Y-87331387D01*
X147982658Y-87349635D01*
X148020912Y-87361056D01*
X148063075Y-87364961D01*
X148103684Y-87361024D01*
X148139401Y-87349635D01*
X148171485Y-87331321D01*
X148198874Y-87307198D01*
X148221104Y-87277856D01*
X148238075Y-87243206D01*
X148248484Y-87205195D01*
X148252058Y-87163155D01*
X148248471Y-87119853D01*
X148238075Y-87081090D01*
X148220915Y-87045827D01*
X148198202Y-87016366D01*
X148169986Y-86992245D01*
X148136592Y-86973867D01*
X148099676Y-86962444D01*
X148058923Y-86958541D01*
X148018075Y-86962429D01*
X147980582Y-86973867D01*
X147946497Y-86992394D01*
X147917567Y-87017037D01*
X147893941Y-87047056D01*
X147875618Y-87082433D01*
X147864195Y-87121494D01*
X147860231Y-87165964D01*
X147720831Y-87165964D01*
X147728992Y-87121401D01*
X147756178Y-87042597D01*
X147791660Y-86978813D01*
X147829549Y-86933705D01*
X147873257Y-86899105D01*
X147923528Y-86874083D01*
X147981621Y-86858501D01*
X148049214Y-86853028D01*
X148117397Y-86858914D01*
G37*
G36*
X147636810Y-86813949D02*
G01*
X147484219Y-86813949D01*
X147263057Y-87468948D01*
X147230817Y-87573239D01*
X147198638Y-87678874D01*
X147190212Y-87678874D01*
X147180442Y-87650908D01*
X147169207Y-87614455D01*
X147152415Y-87555715D01*
X147124449Y-87468948D01*
X146896205Y-86813949D01*
X146757658Y-86813949D01*
X147127197Y-87830000D01*
X147278445Y-87830000D01*
X147636810Y-86813949D01*
G37*
G36*
X152025819Y-87376685D02*
G01*
X151654570Y-87376685D01*
X151654570Y-87490013D01*
X152025819Y-87490013D01*
X152025819Y-87376685D01*
G37*
G36*
X151276643Y-86858914D02*
G01*
X151338642Y-86876109D01*
X151395364Y-86903900D01*
X151443667Y-86940345D01*
X151483659Y-86985277D01*
X151514375Y-87038164D01*
X151533639Y-87096947D01*
X151540265Y-87163155D01*
X151534439Y-87231995D01*
X151517855Y-87290956D01*
X151490503Y-87343672D01*
X151454169Y-87387370D01*
X151409330Y-87422440D01*
X151356167Y-87448859D01*
X151297421Y-87464906D01*
X151230870Y-87470474D01*
X151169748Y-87464893D01*
X151117197Y-87448937D01*
X151071562Y-87423063D01*
X151031696Y-87386744D01*
X150997068Y-87338522D01*
X150997068Y-87393232D01*
X151001167Y-87477986D01*
X151012488Y-87547774D01*
X151029821Y-87604903D01*
X151052328Y-87651397D01*
X151083843Y-87692527D01*
X151120734Y-87720870D01*
X151163969Y-87738034D01*
X151215422Y-87744026D01*
X151264442Y-87739330D01*
X151305179Y-87726071D01*
X151339314Y-87704764D01*
X151366617Y-87675579D01*
X151386507Y-87637920D01*
X151398726Y-87589726D01*
X151530434Y-87589726D01*
X151519721Y-87648754D01*
X151499659Y-87699452D01*
X151470336Y-87744076D01*
X151433164Y-87781151D01*
X151388685Y-87810299D01*
X151335162Y-87832076D01*
X151276774Y-87845038D01*
X151211269Y-87849539D01*
X151144758Y-87843880D01*
X151087054Y-87827680D01*
X151036552Y-87801466D01*
X150992076Y-87764897D01*
X150952983Y-87716793D01*
X150916802Y-87649692D01*
X150888946Y-87566261D01*
X150870706Y-87463186D01*
X150864078Y-87336629D01*
X150870505Y-87218240D01*
X150880078Y-87165964D01*
X151019478Y-87165964D01*
X151023366Y-87206719D01*
X151034865Y-87244610D01*
X151053356Y-87279023D01*
X151077546Y-87307869D01*
X151107032Y-87331387D01*
X151141904Y-87349635D01*
X151180159Y-87361056D01*
X151222321Y-87364961D01*
X151262931Y-87361024D01*
X151298647Y-87349635D01*
X151330732Y-87331321D01*
X151358120Y-87307198D01*
X151380351Y-87277856D01*
X151397321Y-87243206D01*
X151407731Y-87205195D01*
X151411304Y-87163155D01*
X151407718Y-87119853D01*
X151397321Y-87081090D01*
X151380161Y-87045827D01*
X151357449Y-87016366D01*
X151329232Y-86992245D01*
X151295839Y-86973867D01*
X151258922Y-86962444D01*
X151218169Y-86958541D01*
X151177321Y-86962429D01*
X151139828Y-86973867D01*
X151105744Y-86992394D01*
X151076814Y-87017037D01*
X151053188Y-87047056D01*
X151034865Y-87082433D01*
X151023441Y-87121494D01*
X151019478Y-87165964D01*
X150880078Y-87165964D01*
X150888238Y-87121401D01*
X150915424Y-87042597D01*
X150950907Y-86978813D01*
X150988795Y-86933705D01*
X151032504Y-86899105D01*
X151082775Y-86874083D01*
X151140867Y-86858501D01*
X151208461Y-86853028D01*
X151276643Y-86858914D01*
G37*
G36*
X150796057Y-86813949D02*
G01*
X150643466Y-86813949D01*
X150422304Y-87468948D01*
X150390064Y-87573239D01*
X150357885Y-87678874D01*
X150349459Y-87678874D01*
X150339689Y-87650908D01*
X150328454Y-87614455D01*
X150311662Y-87555715D01*
X150283696Y-87468948D01*
X150055451Y-86813949D01*
X149916904Y-86813949D01*
X150286444Y-87830000D01*
X150437691Y-87830000D01*
X150796057Y-86813949D01*
G37*
G36*
X87864688Y-69415000D02*
G01*
X87575871Y-69415000D01*
X87501410Y-69412744D01*
X87425234Y-69405901D01*
X87351414Y-69391504D01*
X87286504Y-69367555D01*
X87247316Y-69345013D01*
X87213623Y-69316981D01*
X87184899Y-69283108D01*
X87163959Y-69244415D01*
X87150509Y-69196098D01*
X87145637Y-69135769D01*
X87145859Y-69133449D01*
X87286321Y-69133449D01*
X87292666Y-69188233D01*
X87309524Y-69226505D01*
X87336614Y-69256446D01*
X87372112Y-69278285D01*
X87413549Y-69292372D01*
X87463580Y-69300694D01*
X87574650Y-69305579D01*
X87727912Y-69305579D01*
X87727912Y-68957166D01*
X87592907Y-68957166D01*
X87515436Y-68959065D01*
X87454421Y-68964188D01*
X87399244Y-68974897D01*
X87358800Y-68990750D01*
X87326113Y-69014319D01*
X87303907Y-69044605D01*
X87291127Y-69081932D01*
X87286321Y-69133449D01*
X87145859Y-69133449D01*
X87152298Y-69066017D01*
X87170352Y-69013374D01*
X87198272Y-68973836D01*
X87236302Y-68942362D01*
X87285315Y-68916591D01*
X87347626Y-68897021D01*
X87347626Y-68894213D01*
X87293216Y-68873153D01*
X87250310Y-68843973D01*
X87217017Y-68806530D01*
X87192416Y-68762302D01*
X87177877Y-68716071D01*
X87174310Y-68680195D01*
X87309769Y-68680195D01*
X87313483Y-68721144D01*
X87323602Y-68752594D01*
X87339261Y-68776671D01*
X87372068Y-68805604D01*
X87412228Y-68825642D01*
X87456929Y-68837781D01*
X87506201Y-68843838D01*
X87600173Y-68846646D01*
X87727912Y-68846646D01*
X87727912Y-68512278D01*
X87584786Y-68512278D01*
X87477441Y-68516491D01*
X87429662Y-68524078D01*
X87390491Y-68537435D01*
X87357095Y-68558486D01*
X87331567Y-68587810D01*
X87315781Y-68625388D01*
X87309769Y-68680195D01*
X87174310Y-68680195D01*
X87172993Y-68666945D01*
X87177624Y-68604130D01*
X87190206Y-68555282D01*
X87209385Y-68517529D01*
X87236190Y-68484330D01*
X87267092Y-68457857D01*
X87302502Y-68437540D01*
X87361526Y-68416722D01*
X87428532Y-68405300D01*
X87565063Y-68398949D01*
X87864688Y-68398949D01*
X87864688Y-69415000D01*
G37*
G36*
X86962944Y-68398949D02*
G01*
X86833983Y-68398949D01*
X86833983Y-69415000D01*
X86962944Y-69415000D01*
X86962944Y-68398949D01*
G37*
G36*
X86413983Y-68677062D02*
G01*
X86469756Y-68690087D01*
X86520676Y-68711483D01*
X86562874Y-68739180D01*
X86597690Y-68774125D01*
X86623751Y-68815689D01*
X86639850Y-68862690D01*
X86645428Y-68916744D01*
X86516468Y-68916744D01*
X86510919Y-68870494D01*
X86495533Y-68834828D01*
X86470733Y-68807201D01*
X86438367Y-68787259D01*
X86398769Y-68774696D01*
X86350077Y-68770198D01*
X86296507Y-68775815D01*
X86257565Y-68790880D01*
X86229543Y-68814162D01*
X86209661Y-68845564D01*
X86196819Y-68886326D01*
X86192113Y-68939092D01*
X86192113Y-68964188D01*
X86289933Y-68974019D01*
X86396117Y-68985865D01*
X86499493Y-69008213D01*
X86547511Y-69025973D01*
X86588214Y-69048696D01*
X86622811Y-69078044D01*
X86649702Y-69114337D01*
X86666650Y-69157344D01*
X86672783Y-69212827D01*
X86668498Y-69259907D01*
X86656161Y-69301083D01*
X86636024Y-69337493D01*
X86607631Y-69369937D01*
X86573533Y-69395342D01*
X86532240Y-69414229D01*
X86482288Y-69426302D01*
X86421824Y-69430631D01*
X86346350Y-69423880D01*
X86283094Y-69404802D01*
X86245334Y-69384181D01*
X86209893Y-69355373D01*
X86176482Y-69317302D01*
X86173245Y-69376775D01*
X86166712Y-69415244D01*
X86046300Y-69415244D01*
X86055512Y-69365644D01*
X86061016Y-69313150D01*
X86064496Y-69197074D01*
X86064496Y-69103773D01*
X86192113Y-69103773D01*
X86196750Y-69171420D01*
X86208905Y-69220277D01*
X86229188Y-69261836D01*
X86253724Y-69291474D01*
X86283896Y-69313309D01*
X86318204Y-69327072D01*
X86355126Y-69334375D01*
X86393858Y-69336842D01*
X86439415Y-69332616D01*
X86475408Y-69320953D01*
X86503889Y-69302648D01*
X86526170Y-69277610D01*
X86539309Y-69248939D01*
X86543823Y-69215392D01*
X86539212Y-69181112D01*
X86526192Y-69154036D01*
X86504622Y-69132411D01*
X86462191Y-69107914D01*
X86409306Y-69089851D01*
X86352462Y-69078538D01*
X86292986Y-69072388D01*
X86192113Y-69063290D01*
X86192113Y-69103773D01*
X86064496Y-69103773D01*
X86064496Y-68999848D01*
X86070786Y-68887252D01*
X86082627Y-68831446D01*
X86105102Y-68781617D01*
X86126425Y-68752468D01*
X86154562Y-68726397D01*
X86190526Y-68703276D01*
X86230089Y-68687250D01*
X86282226Y-68676503D01*
X86350077Y-68672501D01*
X86413983Y-68677062D01*
G37*
G36*
X85264784Y-69171489D02*
G01*
X85283706Y-69245202D01*
X85310744Y-69303865D01*
X85345181Y-69350123D01*
X85387169Y-69385860D01*
X85437712Y-69412040D01*
X85498570Y-69428619D01*
X85572103Y-69434539D01*
X85626531Y-69431303D01*
X85674446Y-69422059D01*
X85716756Y-69407306D01*
X85774345Y-69374210D01*
X85822207Y-69329820D01*
X85859669Y-69275289D01*
X85887176Y-69209042D01*
X85903192Y-69136251D01*
X85908792Y-69053337D01*
X85903066Y-68974190D01*
X85886443Y-68902517D01*
X85858520Y-68836586D01*
X85820803Y-68781006D01*
X85772659Y-68735220D01*
X85713947Y-68700650D01*
X85670665Y-68685036D01*
X85622704Y-68675365D01*
X85569294Y-68672013D01*
X85503711Y-68676670D01*
X85448093Y-68689807D01*
X85400785Y-68710596D01*
X85360466Y-68738813D01*
X85326366Y-68774568D01*
X85299276Y-68817232D01*
X85279073Y-68867896D01*
X85266189Y-68928040D01*
X85400583Y-68928040D01*
X85416204Y-68869720D01*
X85440657Y-68827883D01*
X85473431Y-68798778D01*
X85515964Y-68780659D01*
X85571370Y-68774106D01*
X85619535Y-68779397D01*
X85659603Y-68794439D01*
X85694265Y-68818602D01*
X85723289Y-68851104D01*
X85745618Y-68890207D01*
X85762490Y-68938543D01*
X85772321Y-68991287D01*
X85775801Y-69052604D01*
X85769230Y-69135078D01*
X85751028Y-69201684D01*
X85722617Y-69255509D01*
X85693011Y-69289335D01*
X85658654Y-69312971D01*
X85618627Y-69327400D01*
X85571370Y-69332445D01*
X85525218Y-69327801D01*
X85486556Y-69314613D01*
X85453828Y-69293244D01*
X85427574Y-69264169D01*
X85406380Y-69224481D01*
X85390814Y-69171489D01*
X85264784Y-69171489D01*
G37*
G36*
X85112560Y-68398949D02*
G01*
X84983600Y-68398949D01*
X84983600Y-68989040D01*
X84690997Y-68692041D01*
X84538406Y-68692041D01*
X84857631Y-69008702D01*
X84506227Y-69415000D01*
X84668587Y-69415000D01*
X84983600Y-69036728D01*
X84983600Y-69415000D01*
X85112560Y-69415000D01*
X85112560Y-68398949D01*
G37*
G36*
X86872085Y-72915000D02*
G01*
X86735309Y-72915000D01*
X86735309Y-72496856D01*
X86622164Y-72496856D01*
X86532771Y-72496856D01*
X86493700Y-72500161D01*
X86460841Y-72509495D01*
X86431563Y-72525618D01*
X86405704Y-72549490D01*
X86384946Y-72580535D01*
X86366564Y-72625938D01*
X86275766Y-72915000D01*
X86128305Y-72915000D01*
X86234856Y-72589607D01*
X86255922Y-72539354D01*
X86270314Y-72515438D01*
X86288223Y-72493986D01*
X86309872Y-72475750D01*
X86337255Y-72460464D01*
X86368281Y-72450027D01*
X86405948Y-72444405D01*
X86405948Y-72440191D01*
X86357383Y-72425486D01*
X86314723Y-72404471D01*
X86276733Y-72377352D01*
X86245297Y-72346219D01*
X86219704Y-72310662D01*
X86200417Y-72271236D01*
X86188339Y-72229072D01*
X86185479Y-72197903D01*
X86324981Y-72197903D01*
X86328288Y-72239354D01*
X86337383Y-72272307D01*
X86351482Y-72298469D01*
X86381929Y-72331131D01*
X86420602Y-72354767D01*
X86464897Y-72370022D01*
X86515491Y-72378642D01*
X86619477Y-72383527D01*
X86735309Y-72383527D01*
X86735309Y-72012278D01*
X86619477Y-72012278D01*
X86545533Y-72012278D01*
X86508592Y-72014095D01*
X86475679Y-72019300D01*
X86434413Y-72031005D01*
X86398892Y-72048362D01*
X86368273Y-72071324D01*
X86345478Y-72100546D01*
X86330569Y-72141423D01*
X86324981Y-72197903D01*
X86185479Y-72197903D01*
X86184297Y-72185019D01*
X86190817Y-72113905D01*
X86208906Y-72056944D01*
X86237420Y-72011179D01*
X86276019Y-71972553D01*
X86321341Y-71942276D01*
X86374379Y-71920015D01*
X86420199Y-71908706D01*
X86470184Y-71902491D01*
X86571483Y-71899010D01*
X86872085Y-71899010D01*
X86872085Y-72915000D01*
G37*
G36*
X85754974Y-72175346D02*
G01*
X85802630Y-72184999D01*
X85846021Y-72200650D01*
X85905312Y-72235126D01*
X85955320Y-72281006D01*
X85995110Y-72336695D01*
X86024685Y-72402517D01*
X86042407Y-72474250D01*
X86048498Y-72553337D01*
X86042254Y-72642919D01*
X86024752Y-72717871D01*
X85997260Y-72780671D01*
X85960205Y-72833300D01*
X85912811Y-72876417D01*
X85855925Y-72907761D01*
X85787605Y-72927506D01*
X85705154Y-72934539D01*
X85623762Y-72927596D01*
X85552686Y-72907662D01*
X85490037Y-72875310D01*
X85449338Y-72842399D01*
X85417007Y-72802695D01*
X85392458Y-72755312D01*
X85375793Y-72698845D01*
X85511530Y-72698845D01*
X85528772Y-72742517D01*
X85551952Y-72775770D01*
X85581079Y-72800450D01*
X85615599Y-72817859D01*
X85655242Y-72828662D01*
X85701124Y-72832445D01*
X85744537Y-72828001D01*
X85783251Y-72815043D01*
X85818245Y-72794272D01*
X85849257Y-72766378D01*
X85874765Y-72732391D01*
X85894870Y-72691273D01*
X85907385Y-72645878D01*
X85911722Y-72594553D01*
X85374388Y-72594553D01*
X85380200Y-72492058D01*
X85380776Y-72489040D01*
X85511530Y-72489040D01*
X85910318Y-72489040D01*
X85895309Y-72417951D01*
X85872525Y-72365197D01*
X85843151Y-72326802D01*
X85804897Y-72297787D01*
X85760275Y-72280228D01*
X85707413Y-72274106D01*
X85657357Y-72280121D01*
X85614077Y-72297578D01*
X85575950Y-72326802D01*
X85546823Y-72365231D01*
X85524924Y-72417958D01*
X85511530Y-72489040D01*
X85380776Y-72489040D01*
X85396286Y-72407796D01*
X85421060Y-72338797D01*
X85453584Y-72282533D01*
X85487756Y-72243754D01*
X85528514Y-72213467D01*
X85576819Y-72191159D01*
X85634138Y-72177035D01*
X85702345Y-72172013D01*
X85754974Y-72175346D01*
G37*
G36*
X84736426Y-72279113D02*
G01*
X84763271Y-72245680D01*
X84793256Y-72220356D01*
X84826735Y-72202238D01*
X84883703Y-72185779D01*
X84954718Y-72179829D01*
X85022230Y-72187142D01*
X85082091Y-72208466D01*
X85135193Y-72242421D01*
X85180032Y-72287295D01*
X85215470Y-72341314D01*
X85242314Y-72405936D01*
X85258409Y-72476346D01*
X85263990Y-72555230D01*
X85257986Y-72646816D01*
X85241331Y-72721940D01*
X85215510Y-72783450D01*
X85181192Y-72833667D01*
X85136526Y-72875633D01*
X85084791Y-72905588D01*
X85024585Y-72924123D01*
X84953863Y-72930631D01*
X84894362Y-72925802D01*
X84843486Y-72912080D01*
X84799699Y-72890092D01*
X84761854Y-72859730D01*
X84729282Y-72820172D01*
X84729282Y-72915000D01*
X84607466Y-72915000D01*
X84607466Y-72555230D01*
X84733617Y-72555230D01*
X84740519Y-72638211D01*
X84759474Y-72703704D01*
X84788877Y-72755326D01*
X84819223Y-72787692D01*
X84853348Y-72810200D01*
X84892023Y-72823823D01*
X84936522Y-72828538D01*
X84979495Y-72823840D01*
X85016724Y-72810266D01*
X85049493Y-72787788D01*
X85078549Y-72755326D01*
X85106373Y-72703917D01*
X85124412Y-72638426D01*
X85131000Y-72555230D01*
X85124331Y-72470098D01*
X85106223Y-72404298D01*
X85078549Y-72353729D01*
X85049580Y-72321966D01*
X85016845Y-72299904D01*
X84979584Y-72286549D01*
X84936522Y-72281922D01*
X84891935Y-72286566D01*
X84853228Y-72299967D01*
X84819136Y-72322057D01*
X84788877Y-72353729D01*
X84766019Y-72390549D01*
X84748760Y-72435310D01*
X84737624Y-72489578D01*
X84733617Y-72555230D01*
X84607466Y-72555230D01*
X84607466Y-71898949D01*
X84736426Y-71898949D01*
X84736426Y-72279113D01*
G37*
G36*
X87913537Y-78988831D02*
G01*
X87960308Y-78992261D01*
X88003409Y-79002300D01*
X88043474Y-79018811D01*
X88097667Y-79054810D01*
X88144102Y-79103869D01*
X88180648Y-79163248D01*
X88209010Y-79236310D01*
X88226062Y-79316127D01*
X88232030Y-79407096D01*
X88226372Y-79499203D01*
X88210414Y-79577944D01*
X88183594Y-79649803D01*
X88148926Y-79708309D01*
X88104551Y-79756684D01*
X88052511Y-79791962D01*
X88013818Y-79808000D01*
X87971454Y-79817827D01*
X87924711Y-79821210D01*
X87863983Y-79815243D01*
X87810833Y-79798007D01*
X87763486Y-79770042D01*
X87723577Y-79732672D01*
X87691657Y-79686987D01*
X87666974Y-79631495D01*
X87651946Y-79570411D01*
X87646702Y-79500764D01*
X87895402Y-79500764D01*
X87895402Y-79387435D01*
X87512979Y-79387435D01*
X87512979Y-79913778D01*
X87634123Y-79913778D01*
X87634123Y-79871707D01*
X87634123Y-79826156D01*
X87629910Y-79783292D01*
X87636932Y-79780544D01*
X87672835Y-79824741D01*
X87714680Y-79861516D01*
X87763023Y-79891369D01*
X87815672Y-79912767D01*
X87874581Y-79926023D01*
X87940892Y-79930631D01*
X88015701Y-79925779D01*
X88080335Y-79912012D01*
X88136348Y-79890148D01*
X88188151Y-79859574D01*
X88233003Y-79822699D01*
X88271536Y-79779200D01*
X88303451Y-79730315D01*
X88329872Y-79675186D01*
X88350671Y-79613054D01*
X88369962Y-79515075D01*
X88376622Y-79407096D01*
X88373092Y-79334078D01*
X88362735Y-79265386D01*
X88345786Y-79200528D01*
X88321619Y-79138189D01*
X88291469Y-79082568D01*
X88255355Y-79032978D01*
X88212803Y-78988973D01*
X88164386Y-78951615D01*
X88109542Y-78920626D01*
X88050771Y-78898104D01*
X87985932Y-78884213D01*
X87913965Y-78879410D01*
X87829734Y-78885590D01*
X87757649Y-78903101D01*
X87692139Y-78931783D01*
X87637787Y-78968620D01*
X87592206Y-79014459D01*
X87556454Y-79068332D01*
X87530996Y-79128376D01*
X87515788Y-79194422D01*
X87657876Y-79194422D01*
X87676053Y-79132860D01*
X87704453Y-79083095D01*
X87743117Y-79043053D01*
X87790453Y-79013573D01*
X87846521Y-78995287D01*
X87913537Y-78988831D01*
G37*
G36*
X87169268Y-79192041D02*
G01*
X87169268Y-79300362D01*
X87138454Y-79258498D01*
X87107695Y-79228769D01*
X87076761Y-79209016D01*
X87024341Y-79190529D01*
X86966058Y-79184225D01*
X86884786Y-79192041D01*
X86884786Y-79307323D01*
X86929666Y-79300362D01*
X86970271Y-79297554D01*
X87025749Y-79303066D01*
X87066259Y-79317826D01*
X87099338Y-79342220D01*
X87124450Y-79375101D01*
X87141868Y-79414777D01*
X87153881Y-79465165D01*
X87160042Y-79519808D01*
X87162246Y-79583928D01*
X87162246Y-79915000D01*
X87291206Y-79915000D01*
X87291206Y-79192041D01*
X87169268Y-79192041D01*
G37*
G36*
X86530690Y-79175346D02*
G01*
X86578346Y-79184999D01*
X86621737Y-79200650D01*
X86681028Y-79235126D01*
X86731035Y-79281006D01*
X86770826Y-79336695D01*
X86800400Y-79402517D01*
X86818123Y-79474250D01*
X86824214Y-79553337D01*
X86817969Y-79642919D01*
X86800468Y-79717871D01*
X86772976Y-79780671D01*
X86735920Y-79833300D01*
X86688527Y-79876417D01*
X86631641Y-79907761D01*
X86563321Y-79927506D01*
X86480870Y-79934539D01*
X86399478Y-79927596D01*
X86328402Y-79907662D01*
X86265753Y-79875310D01*
X86225054Y-79842399D01*
X86192723Y-79802695D01*
X86168174Y-79755312D01*
X86151508Y-79698845D01*
X86287246Y-79698845D01*
X86304488Y-79742517D01*
X86327667Y-79775770D01*
X86356794Y-79800450D01*
X86391314Y-79817859D01*
X86430957Y-79828662D01*
X86476840Y-79832445D01*
X86520253Y-79828001D01*
X86558966Y-79815043D01*
X86593961Y-79794272D01*
X86624973Y-79766378D01*
X86650481Y-79732391D01*
X86670585Y-79691273D01*
X86683101Y-79645878D01*
X86687438Y-79594553D01*
X86150104Y-79594553D01*
X86155916Y-79492058D01*
X86156492Y-79489040D01*
X86287246Y-79489040D01*
X86686034Y-79489040D01*
X86671025Y-79417951D01*
X86648241Y-79365197D01*
X86618867Y-79326802D01*
X86580613Y-79297787D01*
X86535991Y-79280228D01*
X86483129Y-79274106D01*
X86433072Y-79280121D01*
X86389793Y-79297578D01*
X86351665Y-79326802D01*
X86322539Y-79365231D01*
X86300640Y-79417958D01*
X86287246Y-79489040D01*
X86156492Y-79489040D01*
X86172002Y-79407796D01*
X86196776Y-79338797D01*
X86229300Y-79282533D01*
X86263471Y-79243754D01*
X86304230Y-79213467D01*
X86352535Y-79191159D01*
X86409854Y-79177035D01*
X86478061Y-79172013D01*
X86530690Y-79175346D01*
G37*
G36*
X85746182Y-79175346D02*
G01*
X85793838Y-79184999D01*
X85837229Y-79200650D01*
X85896520Y-79235126D01*
X85946527Y-79281006D01*
X85986318Y-79336695D01*
X86015892Y-79402517D01*
X86033615Y-79474250D01*
X86039706Y-79553337D01*
X86033461Y-79642919D01*
X86015960Y-79717871D01*
X85988468Y-79780671D01*
X85951412Y-79833300D01*
X85904019Y-79876417D01*
X85847133Y-79907761D01*
X85778813Y-79927506D01*
X85696362Y-79934539D01*
X85614970Y-79927596D01*
X85543894Y-79907662D01*
X85481245Y-79875310D01*
X85440546Y-79842399D01*
X85408215Y-79802695D01*
X85383665Y-79755312D01*
X85367000Y-79698845D01*
X85502738Y-79698845D01*
X85519980Y-79742517D01*
X85543159Y-79775770D01*
X85572286Y-79800450D01*
X85606806Y-79817859D01*
X85646449Y-79828662D01*
X85692332Y-79832445D01*
X85735745Y-79828001D01*
X85774458Y-79815043D01*
X85809453Y-79794272D01*
X85840465Y-79766378D01*
X85865973Y-79732391D01*
X85886077Y-79691273D01*
X85898593Y-79645878D01*
X85902930Y-79594553D01*
X85365596Y-79594553D01*
X85371408Y-79492058D01*
X85371984Y-79489040D01*
X85502738Y-79489040D01*
X85901526Y-79489040D01*
X85886517Y-79417951D01*
X85863733Y-79365197D01*
X85834359Y-79326802D01*
X85796105Y-79297787D01*
X85751483Y-79280228D01*
X85698621Y-79274106D01*
X85648564Y-79280121D01*
X85605285Y-79297578D01*
X85567157Y-79326802D01*
X85538031Y-79365231D01*
X85516132Y-79417958D01*
X85502738Y-79489040D01*
X85371984Y-79489040D01*
X85387494Y-79407796D01*
X85412268Y-79338797D01*
X85444792Y-79282533D01*
X85478963Y-79243754D01*
X85519722Y-79213467D01*
X85568027Y-79191159D01*
X85625346Y-79177035D01*
X85693553Y-79172013D01*
X85746182Y-79175346D01*
G37*
G36*
X85085266Y-79284120D02*
G01*
X85058779Y-79254265D01*
X85031533Y-79230936D01*
X85002262Y-79212029D01*
X84972975Y-79198086D01*
X84913686Y-79181294D01*
X84856411Y-79176409D01*
X84794783Y-79180681D01*
X84746377Y-79192318D01*
X84708583Y-79210054D01*
X84675552Y-79235465D01*
X84648717Y-79266971D01*
X84627677Y-79305369D01*
X84615079Y-79343127D01*
X84607466Y-79385969D01*
X84602581Y-79481957D01*
X84602581Y-79915000D01*
X84731541Y-79915000D01*
X84731541Y-79506992D01*
X84736426Y-79424316D01*
X84744026Y-79385041D01*
X84756576Y-79350737D01*
X84775732Y-79321110D01*
X84802555Y-79298164D01*
X84836573Y-79283871D01*
X84884682Y-79278503D01*
X84928843Y-79282733D01*
X84966164Y-79294761D01*
X84998016Y-79314218D01*
X85025305Y-79341578D01*
X85051270Y-79386538D01*
X85068795Y-79449578D01*
X85075435Y-79536423D01*
X85075435Y-79915000D01*
X85204396Y-79915000D01*
X85204396Y-79192041D01*
X85085266Y-79192041D01*
X85085266Y-79284120D01*
G37*
G36*
X87362525Y-83415000D02*
G01*
X87073708Y-83415000D01*
X86999247Y-83412744D01*
X86923071Y-83405901D01*
X86849251Y-83391504D01*
X86784341Y-83367555D01*
X86745153Y-83345013D01*
X86711460Y-83316981D01*
X86682736Y-83283108D01*
X86661796Y-83244415D01*
X86648346Y-83196098D01*
X86643474Y-83135769D01*
X86643696Y-83133449D01*
X86784158Y-83133449D01*
X86790503Y-83188233D01*
X86807361Y-83226505D01*
X86834451Y-83256446D01*
X86869949Y-83278285D01*
X86911386Y-83292372D01*
X86961417Y-83300694D01*
X87072487Y-83305579D01*
X87225749Y-83305579D01*
X87225749Y-82957166D01*
X87090744Y-82957166D01*
X87013273Y-82959065D01*
X86952258Y-82964188D01*
X86897081Y-82974897D01*
X86856637Y-82990750D01*
X86823950Y-83014319D01*
X86801744Y-83044605D01*
X86788964Y-83081932D01*
X86784158Y-83133449D01*
X86643696Y-83133449D01*
X86650135Y-83066017D01*
X86668189Y-83013374D01*
X86696109Y-82973836D01*
X86734139Y-82942362D01*
X86783152Y-82916591D01*
X86845463Y-82897021D01*
X86845463Y-82894213D01*
X86791053Y-82873153D01*
X86748147Y-82843973D01*
X86714854Y-82806530D01*
X86690253Y-82762302D01*
X86675714Y-82716071D01*
X86672147Y-82680195D01*
X86807606Y-82680195D01*
X86811320Y-82721144D01*
X86821439Y-82752594D01*
X86837098Y-82776671D01*
X86869905Y-82805604D01*
X86910065Y-82825642D01*
X86954766Y-82837781D01*
X87004038Y-82843838D01*
X87098010Y-82846646D01*
X87225749Y-82846646D01*
X87225749Y-82512278D01*
X87082623Y-82512278D01*
X86975278Y-82516491D01*
X86927499Y-82524078D01*
X86888328Y-82537435D01*
X86854932Y-82558486D01*
X86829404Y-82587810D01*
X86813618Y-82625388D01*
X86807606Y-82680195D01*
X86672147Y-82680195D01*
X86670830Y-82666945D01*
X86675461Y-82604130D01*
X86688043Y-82555282D01*
X86707222Y-82517529D01*
X86734027Y-82484330D01*
X86764929Y-82457857D01*
X86800339Y-82437540D01*
X86859363Y-82416722D01*
X86926369Y-82405300D01*
X87062900Y-82398949D01*
X87362525Y-82398949D01*
X87362525Y-83415000D01*
G37*
G36*
X86252784Y-82677062D02*
G01*
X86308556Y-82690087D01*
X86359476Y-82711483D01*
X86401674Y-82739180D01*
X86436490Y-82774125D01*
X86462551Y-82815689D01*
X86478650Y-82862690D01*
X86484228Y-82916744D01*
X86355268Y-82916744D01*
X86349719Y-82870494D01*
X86334333Y-82834828D01*
X86309533Y-82807201D01*
X86277167Y-82787259D01*
X86237569Y-82774696D01*
X86188877Y-82770198D01*
X86135307Y-82775815D01*
X86096365Y-82790880D01*
X86068343Y-82814162D01*
X86048461Y-82845564D01*
X86035619Y-82886326D01*
X86030913Y-82939092D01*
X86030913Y-82964188D01*
X86128733Y-82974019D01*
X86234917Y-82985865D01*
X86338293Y-83008213D01*
X86386311Y-83025973D01*
X86427014Y-83048696D01*
X86461611Y-83078044D01*
X86488502Y-83114337D01*
X86505450Y-83157344D01*
X86511583Y-83212827D01*
X86507298Y-83259907D01*
X86494961Y-83301083D01*
X86474824Y-83337493D01*
X86446431Y-83369937D01*
X86412333Y-83395342D01*
X86371040Y-83414229D01*
X86321088Y-83426302D01*
X86260624Y-83430631D01*
X86185150Y-83423880D01*
X86121894Y-83404802D01*
X86084134Y-83384181D01*
X86048693Y-83355373D01*
X86015282Y-83317302D01*
X86012046Y-83376775D01*
X86005512Y-83415244D01*
X85885100Y-83415244D01*
X85894312Y-83365644D01*
X85899816Y-83313150D01*
X85903296Y-83197074D01*
X85903296Y-83103773D01*
X86030913Y-83103773D01*
X86035550Y-83171420D01*
X86047705Y-83220277D01*
X86067988Y-83261836D01*
X86092524Y-83291474D01*
X86122696Y-83313309D01*
X86157004Y-83327072D01*
X86193926Y-83334375D01*
X86232658Y-83336842D01*
X86278215Y-83332616D01*
X86314208Y-83320953D01*
X86342689Y-83302648D01*
X86364970Y-83277610D01*
X86378109Y-83248939D01*
X86382623Y-83215392D01*
X86378012Y-83181112D01*
X86364992Y-83154036D01*
X86343422Y-83132411D01*
X86300991Y-83107914D01*
X86248106Y-83089851D01*
X86191262Y-83078538D01*
X86131786Y-83072388D01*
X86030913Y-83063290D01*
X86030913Y-83103773D01*
X85903296Y-83103773D01*
X85903296Y-82999848D01*
X85909586Y-82887252D01*
X85921427Y-82831446D01*
X85943902Y-82781617D01*
X85965225Y-82752468D01*
X85993362Y-82726397D01*
X86029326Y-82703276D01*
X86068889Y-82687250D01*
X86121026Y-82676503D01*
X86188877Y-82672501D01*
X86252784Y-82677062D01*
G37*
G36*
X85574851Y-82692041D02*
G01*
X85574851Y-82800362D01*
X85544037Y-82758498D01*
X85513278Y-82728769D01*
X85482344Y-82709016D01*
X85429924Y-82690529D01*
X85371641Y-82684225D01*
X85290369Y-82692041D01*
X85290369Y-82807323D01*
X85335249Y-82800362D01*
X85375854Y-82797554D01*
X85431331Y-82803066D01*
X85471841Y-82817826D01*
X85504921Y-82842220D01*
X85530032Y-82875101D01*
X85547450Y-82914777D01*
X85559464Y-82965165D01*
X85565625Y-83019808D01*
X85567829Y-83083928D01*
X85567829Y-83415000D01*
X85696789Y-83415000D01*
X85696789Y-82692041D01*
X85574851Y-82692041D01*
G37*
G36*
X84936272Y-82675346D02*
G01*
X84983929Y-82684999D01*
X85027319Y-82700650D01*
X85086610Y-82735126D01*
X85136618Y-82781006D01*
X85176408Y-82836695D01*
X85205983Y-82902517D01*
X85223705Y-82974250D01*
X85229797Y-83053337D01*
X85223552Y-83142919D01*
X85206050Y-83217871D01*
X85178558Y-83280671D01*
X85141503Y-83333300D01*
X85094109Y-83376417D01*
X85037223Y-83407761D01*
X84968903Y-83427506D01*
X84886452Y-83434539D01*
X84805061Y-83427596D01*
X84733984Y-83407662D01*
X84671335Y-83375310D01*
X84630636Y-83342399D01*
X84598305Y-83302695D01*
X84573756Y-83255312D01*
X84557091Y-83198845D01*
X84692829Y-83198845D01*
X84710071Y-83242517D01*
X84733250Y-83275770D01*
X84762377Y-83300450D01*
X84796897Y-83317859D01*
X84836540Y-83328662D01*
X84882422Y-83332445D01*
X84925835Y-83328001D01*
X84964549Y-83315043D01*
X84999543Y-83294272D01*
X85030556Y-83266378D01*
X85056064Y-83232391D01*
X85076168Y-83191273D01*
X85088684Y-83145878D01*
X85093021Y-83094553D01*
X84555686Y-83094553D01*
X84561498Y-82992058D01*
X84562074Y-82989040D01*
X84692829Y-82989040D01*
X85091616Y-82989040D01*
X85076608Y-82917951D01*
X85053824Y-82865197D01*
X85024450Y-82826802D01*
X84986195Y-82797787D01*
X84941573Y-82780228D01*
X84888712Y-82774106D01*
X84838655Y-82780121D01*
X84795376Y-82797578D01*
X84757248Y-82826802D01*
X84728122Y-82865231D01*
X84706222Y-82917958D01*
X84692829Y-82989040D01*
X84562074Y-82989040D01*
X84577585Y-82907796D01*
X84602358Y-82838797D01*
X84634882Y-82782533D01*
X84669054Y-82743754D01*
X84709813Y-82713467D01*
X84758118Y-82691159D01*
X84815437Y-82677035D01*
X84883644Y-82672013D01*
X84936272Y-82675346D01*
G37*
%LPC*%
D11*
X134880000Y-66000000D03*
X132340000Y-66000000D03*
X129800000Y-66000000D03*
D12*
X82000000Y-83000000D03*
X82000000Y-79500000D03*
X82000000Y-76000000D03*
X82000000Y-72500000D03*
D13*
X82000000Y-69000000D03*
D14*
X151000000Y-85500000D03*
D11*
X145680000Y-66000000D03*
X143140000Y-66000000D03*
X140600000Y-66000000D03*
D15*
X148000000Y-83000000D03*
D16*
X126500000Y-72380000D03*
D17*
X136660000Y-72380000D03*
D18*
X87750000Y-86400000D03*
D17*
X132500000Y-78000000D03*
X127500000Y-78000000D03*
X106520000Y-84000000D03*
X104520000Y-84000000D03*
X121200000Y-72500000D03*
X116200000Y-72500000D03*
X107540000Y-70500000D03*
X102540000Y-70500000D03*
X121000000Y-78000000D03*
X116000000Y-78000000D03*
D19*
X122500000Y-67900000D03*
D20*
X123770000Y-65830000D03*
X125040000Y-67900000D03*
D21*
X101000000Y-76300000D03*
X108620000Y-76300000D03*
D22*
X88000000Y-65500000D03*
X93000000Y-65500000D03*
X98000000Y-65500000D03*
D14*
X148000000Y-85500000D03*
D21*
X111500000Y-83000000D03*
X111500000Y-75380000D03*
X124000000Y-72380000D03*
X124000000Y-80000000D03*
D15*
X151000000Y-83000000D03*
D23*
X149500000Y-79500000D03*
D12*
X149500000Y-76000000D03*
X149500000Y-72500000D03*
D11*
X121040000Y-85893700D03*
X118500000Y-85893700D03*
X115960000Y-85893700D03*
D24*
X139850000Y-81580000D03*
D25*
X139850000Y-71420000D03*
D26*
X144600000Y-86000000D03*
X136400000Y-86000000D03*
D27*
X142500000Y-86000000D03*
D28*
X140500000Y-86000000D03*
X138500000Y-86000000D03*
D29*
X90500000Y-73500000D03*
X90500000Y-77500000D03*
X90500000Y-81500000D03*
X95500000Y-73500000D03*
X95500000Y-77500000D03*
X95500000Y-81500000D03*
D18*
X93000000Y-86400000D03*
D11*
X132540000Y-85893700D03*
X130000000Y-85893700D03*
X127460000Y-85893700D03*
D19*
X114959000Y-67920000D03*
D20*
X116229000Y-65850000D03*
X117499000Y-67920000D03*
D30*
X143500000Y-71420000D03*
D25*
X143500000Y-81580000D03*
%LPD*%
M02*
