G04 #@! TF.GenerationSoftware,KiCad,Pcbnew,10.0.5-71-g2cb2c974e9*
G04 #@! TF.CreationDate,2026-08-27T22:08:04-04:00*
G04 #@! TF.ProjectId,Fury-Taur,46757279-2d54-4617-9572-2e6b69636164,rev?*
G04 #@! TF.SameCoordinates,Original*
G04 #@! TF.FileFunction,Legend,Bot*
G04 #@! TF.FilePolarity,Positive*
%FSLAX46Y46*%
G04 Gerber Fmt 4.6, Leading zero omitted, Abs format (unit mm)*
G04 Created by KiCad (PCBNEW 10.0.5-71-g2cb2c974e9) date 2026-08-27 22:08:04*
%MOMM*%
%LPD*%
G01*
G04 APERTURE LIST*
G04 Aperture macros list*
%AMRoundRect*
0 Rectangle with rounded corners*
0 $1 Rounding radius*
0 $2 $3 $4 $5 $6 $7 $8 $9 X,Y pos of 4 corners*
0 Add a 4 corners polygon primitive as box body*
4,1,4,$2,$3,$4,$5,$6,$7,$8,$9,$2,$3,0*
0 Add four circle primitives for the rounded corners*
1,1,$1+$1,$2,$3*
1,1,$1+$1,$4,$5*
1,1,$1+$1,$6,$7*
1,1,$1+$1,$8,$9*
0 Add four rect primitives between the rounded corners*
20,1,$1+$1,$2,$3,$4,$5,0*
20,1,$1+$1,$4,$5,$6,$7,0*
20,1,$1+$1,$6,$7,$8,$9,0*
20,1,$1+$1,$8,$9,$2,$3,0*%
G04 Aperture macros list end*
%ADD10C,0.100000*%
%ADD11C,1.440000*%
%ADD12C,1.600000*%
%ADD13C,2.400000*%
%ADD14RoundRect,0.250001X-0.949999X0.949999X-0.949999X-0.949999X0.949999X-0.949999X0.949999X0.949999X0*%
%ADD15RoundRect,0.250000X-0.600000X-0.600000X0.600000X-0.600000X0.600000X0.600000X-0.600000X0.600000X0*%
%ADD16C,1.648000*%
%ADD17RoundRect,0.250000X-0.550000X0.550000X-0.550000X-0.550000X0.550000X-0.550000X0.550000X0.550000X0*%
%ADD18O,3.000000X1.200000*%
%ADD19R,1.100000X1.800000*%
%ADD20RoundRect,0.275000X-0.275000X-0.625000X0.275000X-0.625000X0.275000X0.625000X-0.275000X0.625000X0*%
%ADD21C,1.400000*%
%ADD22C,1.450000*%
%ADD23RoundRect,0.250001X0.949999X-0.949999X0.949999X0.949999X-0.949999X0.949999X-0.949999X-0.949999X0*%
%ADD24RoundRect,0.249999X0.850001X-0.850001X0.850001X0.850001X-0.850001X0.850001X-0.850001X-0.850001X0*%
%ADD25C,2.200000*%
%ADD26O,2.200000X3.500000*%
%ADD27R,1.500000X2.500000*%
%ADD28O,1.500000X2.500000*%
%ADD29O,1.200000X3.200000*%
%ADD30RoundRect,0.249999X-0.850001X0.850001X-0.850001X-0.850001X0.850001X-0.850001X0.850001X0.850001X0*%
G04 APERTURE END LIST*
D10*
X88375312Y-75457419D02*
X88137217Y-76457419D01*
X88137217Y-76457419D02*
X87946741Y-75743133D01*
X87946741Y-75743133D02*
X87756265Y-76457419D01*
X87756265Y-76457419D02*
X87518170Y-75457419D01*
X87137217Y-76457419D02*
X87137217Y-75457419D01*
X86708646Y-76457419D02*
X86708646Y-75933609D01*
X86708646Y-75933609D02*
X86756265Y-75838371D01*
X86756265Y-75838371D02*
X86851503Y-75790752D01*
X86851503Y-75790752D02*
X86994360Y-75790752D01*
X86994360Y-75790752D02*
X87089598Y-75838371D01*
X87089598Y-75838371D02*
X87137217Y-75885990D01*
X86232455Y-76457419D02*
X86232455Y-75790752D01*
X86232455Y-75457419D02*
X86280074Y-75505038D01*
X86280074Y-75505038D02*
X86232455Y-75552657D01*
X86232455Y-75552657D02*
X86184836Y-75505038D01*
X86184836Y-75505038D02*
X86232455Y-75457419D01*
X86232455Y-75457419D02*
X86232455Y-75552657D01*
X85899122Y-75790752D02*
X85518170Y-75790752D01*
X85756265Y-75457419D02*
X85756265Y-76314561D01*
X85756265Y-76314561D02*
X85708646Y-76409800D01*
X85708646Y-76409800D02*
X85613408Y-76457419D01*
X85613408Y-76457419D02*
X85518170Y-76457419D01*
X84803884Y-76409800D02*
X84899122Y-76457419D01*
X84899122Y-76457419D02*
X85089598Y-76457419D01*
X85089598Y-76457419D02*
X85184836Y-76409800D01*
X85184836Y-76409800D02*
X85232455Y-76314561D01*
X85232455Y-76314561D02*
X85232455Y-75933609D01*
X85232455Y-75933609D02*
X85184836Y-75838371D01*
X85184836Y-75838371D02*
X85089598Y-75790752D01*
X85089598Y-75790752D02*
X84899122Y-75790752D01*
X84899122Y-75790752D02*
X84803884Y-75838371D01*
X84803884Y-75838371D02*
X84756265Y-75933609D01*
X84756265Y-75933609D02*
X84756265Y-76028847D01*
X84756265Y-76028847D02*
X85232455Y-76124085D01*
G36*
X150800697Y-72580081D02*
G01*
X150796231Y-72639588D01*
X150783779Y-72688557D01*
X150764271Y-72728903D01*
X150737927Y-72762103D01*
X150704843Y-72788459D01*
X150664263Y-72808047D01*
X150614606Y-72820600D01*
X150553829Y-72825118D01*
X150482818Y-72819128D01*
X150427516Y-72802764D01*
X150384569Y-72777491D01*
X150350837Y-72742097D01*
X150330860Y-72700323D01*
X150323935Y-72650057D01*
X150329655Y-72605260D01*
X150345673Y-72570251D01*
X150370915Y-72540993D01*
X150404658Y-72516334D01*
X150443737Y-72496693D01*
X150489654Y-72479881D01*
X150587901Y-72451182D01*
X150707274Y-72414729D01*
X150763791Y-72391548D01*
X150813337Y-72362217D01*
X150855800Y-72325113D01*
X150889174Y-72279602D01*
X150904578Y-72245306D01*
X150914412Y-72204014D01*
X150917934Y-72154244D01*
X150911198Y-72094790D01*
X150891434Y-72041526D01*
X150859838Y-71994109D01*
X150817367Y-71953232D01*
X150766146Y-71920820D01*
X150703550Y-71895835D01*
X150635282Y-71880736D01*
X150558958Y-71875502D01*
X150475827Y-71881503D01*
X150406008Y-71898366D01*
X150347224Y-71924961D01*
X150297679Y-71960987D01*
X150256956Y-72006727D01*
X150227546Y-72060502D01*
X150209166Y-72123910D01*
X150202669Y-72199185D01*
X150335659Y-72199185D01*
X150340851Y-72145817D01*
X150355259Y-72103319D01*
X150378028Y-72066421D01*
X150406306Y-72036824D01*
X150439895Y-72013770D01*
X150478297Y-71997562D01*
X150519253Y-71988073D01*
X150560790Y-71984923D01*
X150599748Y-71987373D01*
X150638459Y-71994754D01*
X150675144Y-72007327D01*
X150706908Y-72024856D01*
X150734079Y-72047727D01*
X150755146Y-72075293D01*
X150768628Y-72107387D01*
X150773342Y-72146001D01*
X150767975Y-72189523D01*
X150753070Y-72223060D01*
X150729532Y-72251115D01*
X150698421Y-72274839D01*
X150662140Y-72293879D01*
X150618553Y-72310560D01*
X150522505Y-72339319D01*
X150400750Y-72377116D01*
X150341570Y-72401423D01*
X150290047Y-72431032D01*
X150245569Y-72468320D01*
X150210179Y-72514380D01*
X150193632Y-72549294D01*
X150183106Y-72591261D01*
X150179344Y-72641814D01*
X150186328Y-72705339D01*
X150206699Y-72761615D01*
X150239281Y-72811508D01*
X150283025Y-72854061D01*
X150335940Y-72887685D01*
X150400750Y-72913595D01*
X150471777Y-72929093D01*
X150553524Y-72934539D01*
X150644013Y-72928064D01*
X150719626Y-72909915D01*
X150782923Y-72881377D01*
X150835929Y-72842826D01*
X150879114Y-72793791D01*
X150910577Y-72735088D01*
X150930411Y-72664749D01*
X150937473Y-72580081D01*
X150800697Y-72580081D01*
G37*
G36*
X150014235Y-71898949D02*
G01*
X149885275Y-71898949D01*
X149885275Y-72915000D01*
X150014235Y-72915000D01*
X150014235Y-71898949D01*
G37*
G36*
X149430551Y-72175346D02*
G01*
X149478207Y-72184999D01*
X149521598Y-72200650D01*
X149580888Y-72235126D01*
X149630896Y-72281006D01*
X149670686Y-72336695D01*
X149700261Y-72402517D01*
X149717983Y-72474250D01*
X149724075Y-72553337D01*
X149717830Y-72642919D01*
X149700328Y-72717871D01*
X149672836Y-72780671D01*
X149635781Y-72833300D01*
X149588388Y-72876417D01*
X149531501Y-72907761D01*
X149463182Y-72927506D01*
X149380730Y-72934539D01*
X149299339Y-72927596D01*
X149228262Y-72907662D01*
X149165614Y-72875310D01*
X149124914Y-72842399D01*
X149092583Y-72802695D01*
X149068034Y-72755312D01*
X149051369Y-72698845D01*
X149187107Y-72698845D01*
X149204349Y-72742517D01*
X149227528Y-72775770D01*
X149256655Y-72800450D01*
X149291175Y-72817859D01*
X149330818Y-72828662D01*
X149376700Y-72832445D01*
X149420114Y-72828001D01*
X149458827Y-72815043D01*
X149493821Y-72794272D01*
X149524834Y-72766378D01*
X149550342Y-72732391D01*
X149570446Y-72691273D01*
X149582962Y-72645878D01*
X149587299Y-72594553D01*
X149049965Y-72594553D01*
X149055776Y-72492058D01*
X149056352Y-72489040D01*
X149187107Y-72489040D01*
X149585894Y-72489040D01*
X149570886Y-72417951D01*
X149548102Y-72365197D01*
X149518728Y-72326802D01*
X149480473Y-72297787D01*
X149435851Y-72280228D01*
X149382990Y-72274106D01*
X149332933Y-72280121D01*
X149289654Y-72297578D01*
X149251526Y-72326802D01*
X149222400Y-72365231D01*
X149200500Y-72417958D01*
X149187107Y-72489040D01*
X149056352Y-72489040D01*
X149071863Y-72407796D01*
X149096636Y-72338797D01*
X149129160Y-72282533D01*
X149163332Y-72243754D01*
X149204091Y-72213467D01*
X149252396Y-72191159D01*
X149309715Y-72177035D01*
X149377922Y-72172013D01*
X149430551Y-72175346D01*
G37*
G36*
X148646043Y-72175346D02*
G01*
X148693699Y-72184999D01*
X148737090Y-72200650D01*
X148796380Y-72235126D01*
X148846388Y-72281006D01*
X148886178Y-72336695D01*
X148915753Y-72402517D01*
X148933475Y-72474250D01*
X148939567Y-72553337D01*
X148933322Y-72642919D01*
X148915820Y-72717871D01*
X148888328Y-72780671D01*
X148851273Y-72833300D01*
X148803880Y-72876417D01*
X148746993Y-72907761D01*
X148678674Y-72927506D01*
X148596222Y-72934539D01*
X148514831Y-72927596D01*
X148443754Y-72907662D01*
X148381106Y-72875310D01*
X148340406Y-72842399D01*
X148308075Y-72802695D01*
X148283526Y-72755312D01*
X148266861Y-72698845D01*
X148402599Y-72698845D01*
X148419841Y-72742517D01*
X148443020Y-72775770D01*
X148472147Y-72800450D01*
X148506667Y-72817859D01*
X148546310Y-72828662D01*
X148592192Y-72832445D01*
X148635606Y-72828001D01*
X148674319Y-72815043D01*
X148709313Y-72794272D01*
X148740326Y-72766378D01*
X148765834Y-72732391D01*
X148785938Y-72691273D01*
X148798454Y-72645878D01*
X148802791Y-72594553D01*
X148265457Y-72594553D01*
X148271268Y-72492058D01*
X148271844Y-72489040D01*
X148402599Y-72489040D01*
X148801386Y-72489040D01*
X148786378Y-72417951D01*
X148763594Y-72365197D01*
X148734220Y-72326802D01*
X148695965Y-72297787D01*
X148651343Y-72280228D01*
X148598482Y-72274106D01*
X148548425Y-72280121D01*
X148505146Y-72297578D01*
X148467018Y-72326802D01*
X148437892Y-72365231D01*
X148415992Y-72417958D01*
X148402599Y-72489040D01*
X148271844Y-72489040D01*
X148287355Y-72407796D01*
X148312128Y-72338797D01*
X148344652Y-72282533D01*
X148378824Y-72243754D01*
X148419583Y-72213467D01*
X148467888Y-72191159D01*
X148525207Y-72177035D01*
X148593414Y-72172013D01*
X148646043Y-72175346D01*
G37*
G36*
X148204152Y-72193995D02*
G01*
X148062796Y-72193995D01*
X147935362Y-72554497D01*
X147895490Y-72678817D01*
X147861174Y-72803197D01*
X147852747Y-72803197D01*
X147818492Y-72678817D01*
X147778558Y-72554497D01*
X147651186Y-72193995D01*
X147519539Y-72193995D01*
X147786985Y-72915000D01*
X147936767Y-72915000D01*
X148204152Y-72193995D01*
G37*
G36*
X147165931Y-72175346D02*
G01*
X147213587Y-72184999D01*
X147256978Y-72200650D01*
X147316269Y-72235126D01*
X147366277Y-72281006D01*
X147406067Y-72336695D01*
X147435642Y-72402517D01*
X147453364Y-72474250D01*
X147459455Y-72553337D01*
X147453210Y-72642919D01*
X147435709Y-72717871D01*
X147408217Y-72780671D01*
X147371161Y-72833300D01*
X147323768Y-72876417D01*
X147266882Y-72907761D01*
X147198562Y-72927506D01*
X147116111Y-72934539D01*
X147034719Y-72927596D01*
X146963643Y-72907662D01*
X146900994Y-72875310D01*
X146860295Y-72842399D01*
X146827964Y-72802695D01*
X146803415Y-72755312D01*
X146786749Y-72698845D01*
X146922487Y-72698845D01*
X146939729Y-72742517D01*
X146962908Y-72775770D01*
X146992035Y-72800450D01*
X147026555Y-72817859D01*
X147066198Y-72828662D01*
X147112081Y-72832445D01*
X147155494Y-72828001D01*
X147194207Y-72815043D01*
X147229202Y-72794272D01*
X147260214Y-72766378D01*
X147285722Y-72732391D01*
X147305826Y-72691273D01*
X147318342Y-72645878D01*
X147322679Y-72594553D01*
X146785345Y-72594553D01*
X146791157Y-72492058D01*
X146791733Y-72489040D01*
X146922487Y-72489040D01*
X147321275Y-72489040D01*
X147306266Y-72417951D01*
X147283482Y-72365197D01*
X147254108Y-72326802D01*
X147215854Y-72297787D01*
X147171232Y-72280228D01*
X147118370Y-72274106D01*
X147068313Y-72280121D01*
X147025034Y-72297578D01*
X146986906Y-72326802D01*
X146957780Y-72365231D01*
X146935881Y-72417958D01*
X146922487Y-72489040D01*
X146791733Y-72489040D01*
X146807243Y-72407796D01*
X146832017Y-72338797D01*
X146864541Y-72282533D01*
X146898713Y-72243754D01*
X146939471Y-72213467D01*
X146987776Y-72191159D01*
X147045095Y-72177035D01*
X147113302Y-72172013D01*
X147165931Y-72175346D01*
G37*
G36*
X150871039Y-76415000D02*
G01*
X150734263Y-76415000D01*
X150734263Y-75996856D01*
X150621118Y-75996856D01*
X150531725Y-75996856D01*
X150492654Y-76000161D01*
X150459795Y-76009495D01*
X150430517Y-76025618D01*
X150404658Y-76049490D01*
X150383900Y-76080535D01*
X150365518Y-76125938D01*
X150274720Y-76415000D01*
X150127259Y-76415000D01*
X150233810Y-76089607D01*
X150254876Y-76039354D01*
X150269268Y-76015438D01*
X150287177Y-75993986D01*
X150308826Y-75975750D01*
X150336209Y-75960464D01*
X150367235Y-75950027D01*
X150404902Y-75944405D01*
X150404902Y-75940191D01*
X150356337Y-75925486D01*
X150313677Y-75904471D01*
X150275687Y-75877352D01*
X150244251Y-75846219D01*
X150218658Y-75810662D01*
X150199371Y-75771236D01*
X150187293Y-75729072D01*
X150184433Y-75697903D01*
X150323935Y-75697903D01*
X150327242Y-75739354D01*
X150336337Y-75772307D01*
X150350436Y-75798469D01*
X150380883Y-75831131D01*
X150419556Y-75854767D01*
X150463851Y-75870022D01*
X150514445Y-75878642D01*
X150618431Y-75883527D01*
X150734263Y-75883527D01*
X150734263Y-75512278D01*
X150618431Y-75512278D01*
X150544487Y-75512278D01*
X150507546Y-75514095D01*
X150474633Y-75519300D01*
X150433367Y-75531005D01*
X150397846Y-75548362D01*
X150367227Y-75571324D01*
X150344432Y-75600546D01*
X150329523Y-75641423D01*
X150323935Y-75697903D01*
X150184433Y-75697903D01*
X150183251Y-75685019D01*
X150189771Y-75613905D01*
X150207860Y-75556944D01*
X150236374Y-75511179D01*
X150274973Y-75472553D01*
X150320295Y-75442276D01*
X150373333Y-75420015D01*
X150419153Y-75408706D01*
X150469138Y-75402491D01*
X150570437Y-75399010D01*
X150871039Y-75399010D01*
X150871039Y-76415000D01*
G37*
G36*
X149858897Y-75692041D02*
G01*
X149858897Y-76415000D01*
X149987857Y-76415000D01*
X149987857Y-75692041D01*
X149858897Y-75692041D01*
G37*
G36*
X149987857Y-75398949D02*
G01*
X149858897Y-75398949D01*
X149858897Y-75539633D01*
X149987857Y-75539633D01*
X149987857Y-75398949D01*
G37*
G36*
X149527765Y-75784120D02*
G01*
X149501277Y-75754265D01*
X149474031Y-75730936D01*
X149444760Y-75712029D01*
X149415474Y-75698086D01*
X149356184Y-75681294D01*
X149298909Y-75676409D01*
X149237282Y-75680681D01*
X149188876Y-75692318D01*
X149151081Y-75710054D01*
X149118050Y-75735465D01*
X149091216Y-75766971D01*
X149070176Y-75805369D01*
X149057578Y-75843127D01*
X149049965Y-75885969D01*
X149045080Y-75981957D01*
X149045080Y-76415000D01*
X149174040Y-76415000D01*
X149174040Y-76006992D01*
X149178925Y-75924316D01*
X149186525Y-75885041D01*
X149199075Y-75850737D01*
X149218231Y-75821110D01*
X149245054Y-75798164D01*
X149279072Y-75783871D01*
X149327180Y-75778503D01*
X149371342Y-75782733D01*
X149408663Y-75794761D01*
X149440514Y-75814218D01*
X149467803Y-75841578D01*
X149493769Y-75886538D01*
X149511293Y-75949578D01*
X149517934Y-76036423D01*
X149517934Y-76415000D01*
X149646894Y-76415000D01*
X149646894Y-75692041D01*
X149527765Y-75692041D01*
X149527765Y-75784120D01*
G37*
G36*
X148632287Y-75679875D02*
G01*
X148674745Y-75689944D01*
X148713520Y-75706390D01*
X148765726Y-75741487D01*
X148808714Y-75786563D01*
X148842353Y-75840021D01*
X148867515Y-75902334D01*
X148882699Y-75968770D01*
X148887787Y-76037583D01*
X148882369Y-76112256D01*
X148866782Y-76178450D01*
X148841013Y-76238953D01*
X148807309Y-76289275D01*
X148764760Y-76330782D01*
X148714253Y-76361816D01*
X148657309Y-76381015D01*
X148592437Y-76387644D01*
X148519134Y-76381330D01*
X148462988Y-76364197D01*
X148430223Y-76345518D01*
X148397425Y-76318024D01*
X148364314Y-76280116D01*
X148364314Y-76351252D01*
X148367797Y-76419504D01*
X148377015Y-76470626D01*
X148393115Y-76515455D01*
X148413529Y-76548112D01*
X148440335Y-76573258D01*
X148473185Y-76590000D01*
X148510788Y-76599245D01*
X148556838Y-76602578D01*
X148607551Y-76598579D01*
X148647072Y-76587679D01*
X148677739Y-76570949D01*
X148701304Y-76546840D01*
X148715951Y-76514731D01*
X148721275Y-76471969D01*
X148856646Y-76471969D01*
X148846823Y-76528448D01*
X148828669Y-76574784D01*
X148802712Y-76612837D01*
X148768597Y-76643855D01*
X148728571Y-76667399D01*
X148681212Y-76685018D01*
X148625187Y-76696267D01*
X148558914Y-76700275D01*
X148497742Y-76696959D01*
X148447309Y-76687779D01*
X148405896Y-76673653D01*
X148367550Y-76653033D01*
X148335399Y-76627677D01*
X148308749Y-76597388D01*
X148278392Y-76543407D01*
X148257702Y-76475022D01*
X148246881Y-76399761D01*
X148242986Y-76309914D01*
X148242986Y-76025005D01*
X148362909Y-76025005D01*
X148369547Y-76105724D01*
X148387745Y-76169262D01*
X148415910Y-76219178D01*
X148445011Y-76250371D01*
X148478038Y-76272134D01*
X148515779Y-76285355D01*
X148559525Y-76289947D01*
X148603315Y-76285380D01*
X148640956Y-76272254D01*
X148673759Y-76250694D01*
X148702529Y-76219849D01*
X148730156Y-76170408D01*
X148748174Y-76106308D01*
X148754797Y-76023600D01*
X148748555Y-75950420D01*
X148731190Y-75891068D01*
X148703872Y-75842800D01*
X148675864Y-75812838D01*
X148643175Y-75791688D01*
X148604884Y-75778675D01*
X148559525Y-75774106D01*
X148517738Y-75778742D01*
X148480085Y-75792363D01*
X148446464Y-75814251D01*
X148417315Y-75844204D01*
X148394216Y-75880367D01*
X148376831Y-75924071D01*
X148366497Y-75971679D01*
X148362909Y-76025005D01*
X148242986Y-76025005D01*
X148242986Y-75691552D01*
X148361505Y-75691552D01*
X148361505Y-75790898D01*
X148389924Y-75750464D01*
X148425258Y-75719208D01*
X148468424Y-75696248D01*
X148521067Y-75681646D01*
X148585415Y-75676409D01*
X148632287Y-75679875D01*
G37*
G36*
X150648290Y-79012278D02*
G01*
X150984368Y-79012278D01*
X150984368Y-78898949D01*
X150175436Y-78898949D01*
X150175436Y-79012278D01*
X150511514Y-79012278D01*
X150511514Y-79915000D01*
X150648290Y-79915000D01*
X150648290Y-79012278D01*
G37*
G36*
X149924354Y-79192041D02*
G01*
X149924354Y-79915000D01*
X150053314Y-79915000D01*
X150053314Y-79192041D01*
X149924354Y-79192041D01*
G37*
G36*
X150053314Y-78898949D02*
G01*
X149924354Y-78898949D01*
X149924354Y-79039633D01*
X150053314Y-79039633D01*
X150053314Y-78898949D01*
G37*
G36*
X149410113Y-79183344D02*
G01*
X149455414Y-79193325D01*
X149494670Y-79209199D01*
X149530507Y-79231560D01*
X149561576Y-79259379D01*
X149588276Y-79293096D01*
X149588276Y-79192041D01*
X149712351Y-79192041D01*
X149712351Y-80196367D01*
X149583391Y-80196367D01*
X149583391Y-79834155D01*
X149558320Y-79865581D01*
X149528667Y-79890096D01*
X149493876Y-79908283D01*
X149435035Y-79924745D01*
X149363633Y-79930631D01*
X149298612Y-79924053D01*
X149240474Y-79904863D01*
X149188324Y-79873588D01*
X149143204Y-79830919D01*
X149107067Y-79778416D01*
X149078846Y-79712950D01*
X149061754Y-79640402D01*
X149055704Y-79555230D01*
X149188695Y-79555230D01*
X149195426Y-79640318D01*
X149213714Y-79706119D01*
X149241695Y-79756730D01*
X149270897Y-79788521D01*
X149303761Y-79810585D01*
X149341034Y-79823922D01*
X149383967Y-79828538D01*
X149428231Y-79823550D01*
X149466948Y-79809059D01*
X149500999Y-79785584D01*
X149530390Y-79753250D01*
X149553538Y-79714317D01*
X149571545Y-79666788D01*
X149582389Y-79614881D01*
X149586200Y-79555230D01*
X149582423Y-79496678D01*
X149571545Y-79444344D01*
X149553466Y-79396298D01*
X149530390Y-79357882D01*
X149501081Y-79326001D01*
X149466948Y-79302133D01*
X149428189Y-79287087D01*
X149383967Y-79281922D01*
X149341034Y-79286537D01*
X149303761Y-79299875D01*
X149270897Y-79321938D01*
X149241695Y-79353729D01*
X149213714Y-79404340D01*
X149195426Y-79470142D01*
X149188695Y-79555230D01*
X149055704Y-79555230D01*
X149060943Y-79474968D01*
X149075976Y-79403860D01*
X149101304Y-79338621D01*
X149134717Y-79285219D01*
X149177525Y-79241041D01*
X149229056Y-79207733D01*
X149267222Y-79192521D01*
X149309822Y-79183100D01*
X149357650Y-79179829D01*
X149410113Y-79183344D01*
G37*
G36*
X108957013Y-66330000D02*
G01*
X108957013Y-66289394D01*
X108952059Y-66221614D01*
X108937290Y-66156282D01*
X108913124Y-66095566D01*
X108882397Y-66046983D01*
X108848547Y-66010830D01*
X108802896Y-65969253D01*
X108748702Y-65927766D01*
X108667035Y-65874670D01*
X108567079Y-65808785D01*
X108528898Y-65777212D01*
X108500889Y-65748579D01*
X108478691Y-65718161D01*
X108464314Y-65688312D01*
X108455913Y-65656511D01*
X108453018Y-65621085D01*
X108458962Y-65571036D01*
X108475554Y-65531721D01*
X108502416Y-65500612D01*
X108537483Y-65477846D01*
X108580074Y-65463613D01*
X108632170Y-65458541D01*
X108690943Y-65465163D01*
X108737245Y-65483606D01*
X108773953Y-65513251D01*
X108800346Y-65552721D01*
X108817608Y-65605961D01*
X108824023Y-65677199D01*
X108957013Y-65677199D01*
X108950461Y-65603019D01*
X108931795Y-65539569D01*
X108901430Y-65483111D01*
X108862369Y-65437536D01*
X108814401Y-65401483D01*
X108757161Y-65374705D01*
X108693930Y-65358634D01*
X108621728Y-65353028D01*
X108555016Y-65358461D01*
X108496798Y-65374033D01*
X108444236Y-65399283D01*
X108401421Y-65431430D01*
X108366749Y-65471230D01*
X108341093Y-65518258D01*
X108325419Y-65570421D01*
X108320027Y-65628778D01*
X108323599Y-65675300D01*
X108334010Y-65717683D01*
X108351668Y-65757818D01*
X108378035Y-65798161D01*
X108411383Y-65836142D01*
X108456193Y-65876563D01*
X108507365Y-65915387D01*
X108572697Y-65959178D01*
X108645298Y-66006683D01*
X108692742Y-66041732D01*
X108726264Y-66068293D01*
X108752826Y-66094916D01*
X108789096Y-66147367D01*
X108801261Y-66177002D01*
X108808635Y-66216671D01*
X108316120Y-66216671D01*
X108316120Y-66330000D01*
X108957013Y-66330000D01*
G37*
G36*
X107914560Y-65358368D02*
G01*
X107970840Y-65373765D01*
X108021025Y-65398838D01*
X108066114Y-65433958D01*
X108106681Y-65480218D01*
X108137744Y-65530810D01*
X108163275Y-65591376D01*
X108182765Y-65663555D01*
X108195354Y-65749256D01*
X108199860Y-65850612D01*
X108195361Y-65951928D01*
X108182784Y-66037699D01*
X108163301Y-66110034D01*
X108137765Y-66170820D01*
X108106681Y-66221678D01*
X108066078Y-66268215D01*
X108020970Y-66303522D01*
X107970784Y-66328714D01*
X107914523Y-66344177D01*
X107850837Y-66349539D01*
X107797348Y-66345885D01*
X107749005Y-66335299D01*
X107705024Y-66318093D01*
X107664560Y-66293936D01*
X107627989Y-66262718D01*
X107594993Y-66223754D01*
X107567856Y-66180175D01*
X107544384Y-66128611D01*
X107524895Y-66067927D01*
X107506908Y-65970789D01*
X107500348Y-65850551D01*
X107637124Y-65850551D01*
X107641076Y-65947408D01*
X107651917Y-66026348D01*
X107668337Y-66090109D01*
X107689331Y-66141139D01*
X107720043Y-66187405D01*
X107756312Y-66218740D01*
X107798989Y-66237499D01*
X107850104Y-66244026D01*
X107901957Y-66237454D01*
X107944953Y-66218630D01*
X107981205Y-66187291D01*
X108011610Y-66141139D01*
X108032296Y-66090151D01*
X108048488Y-66026405D01*
X108059185Y-65947449D01*
X108063084Y-65850551D01*
X108059120Y-65751171D01*
X108048324Y-65671448D01*
X108032123Y-65608224D01*
X108011610Y-65558681D01*
X107981369Y-65513944D01*
X107945197Y-65483410D01*
X107902148Y-65464988D01*
X107850104Y-65458541D01*
X107798800Y-65464945D01*
X107756070Y-65483302D01*
X107719880Y-65513832D01*
X107689331Y-65558681D01*
X107668512Y-65608267D01*
X107652083Y-65671505D01*
X107641141Y-65751214D01*
X107637124Y-65850551D01*
X107500348Y-65850551D01*
X107504885Y-65749268D01*
X107517562Y-65663608D01*
X107537197Y-65591438D01*
X107562930Y-65530853D01*
X107594260Y-65480218D01*
X107635088Y-65433945D01*
X107680386Y-65398819D01*
X107730726Y-65373749D01*
X107787099Y-65358362D01*
X107850837Y-65353028D01*
X107914560Y-65358368D01*
G37*
G36*
X107397766Y-66330000D02*
G01*
X107397766Y-66289394D01*
X107392813Y-66221614D01*
X107378044Y-66156282D01*
X107353878Y-66095566D01*
X107323150Y-66046983D01*
X107289301Y-66010830D01*
X107243649Y-65969253D01*
X107189455Y-65927766D01*
X107107789Y-65874670D01*
X107007833Y-65808785D01*
X106969651Y-65777212D01*
X106941643Y-65748579D01*
X106919445Y-65718161D01*
X106905068Y-65688312D01*
X106896667Y-65656511D01*
X106893771Y-65621085D01*
X106899715Y-65571036D01*
X106916308Y-65531721D01*
X106943169Y-65500612D01*
X106978236Y-65477846D01*
X107020827Y-65463613D01*
X107072923Y-65458541D01*
X107131696Y-65465163D01*
X107177998Y-65483606D01*
X107214706Y-65513251D01*
X107241099Y-65552721D01*
X107258362Y-65605961D01*
X107264776Y-65677199D01*
X107397766Y-65677199D01*
X107391215Y-65603019D01*
X107372548Y-65539569D01*
X107342183Y-65483111D01*
X107303122Y-65437536D01*
X107255155Y-65401483D01*
X107197915Y-65374705D01*
X107134684Y-65358634D01*
X107062482Y-65353028D01*
X106995770Y-65358461D01*
X106937552Y-65374033D01*
X106884990Y-65399283D01*
X106842175Y-65431430D01*
X106807503Y-65471230D01*
X106781847Y-65518258D01*
X106766173Y-65570421D01*
X106760781Y-65628778D01*
X106764353Y-65675300D01*
X106774764Y-65717683D01*
X106792422Y-65757818D01*
X106818789Y-65798161D01*
X106852137Y-65836142D01*
X106896946Y-65876563D01*
X106948119Y-65915387D01*
X107013450Y-65959178D01*
X107086051Y-66006683D01*
X107133496Y-66041732D01*
X107167018Y-66068293D01*
X107193579Y-66094916D01*
X107229849Y-66147367D01*
X107242014Y-66177002D01*
X107249389Y-66216671D01*
X106756873Y-66216671D01*
X106756873Y-66330000D01*
X107397766Y-66330000D01*
G37*
G36*
X106333212Y-65357102D02*
G01*
X106384311Y-65368868D01*
X106430382Y-65387955D01*
X106472642Y-65414412D01*
X106510617Y-65447769D01*
X106544626Y-65488644D01*
X106572609Y-65534120D01*
X106596543Y-65587337D01*
X106616128Y-65649356D01*
X106634167Y-65747840D01*
X106640614Y-65864534D01*
X106634125Y-65982004D01*
X106616167Y-66078650D01*
X106588534Y-66157828D01*
X106552320Y-66222411D01*
X106513684Y-66268384D01*
X106469864Y-66303415D01*
X106420218Y-66328563D01*
X106363621Y-66344111D01*
X106298551Y-66349539D01*
X106228751Y-66343848D01*
X106165317Y-66327252D01*
X106107392Y-66299509D01*
X106058094Y-66261673D01*
X106017622Y-66214334D01*
X105986592Y-66157686D01*
X105967405Y-66094038D01*
X105961081Y-66023658D01*
X106093632Y-66023658D01*
X106097241Y-66071089D01*
X106107615Y-66112929D01*
X106124498Y-66151100D01*
X106146083Y-66182660D01*
X106173160Y-66208585D01*
X106205556Y-66227967D01*
X106241835Y-66239923D01*
X106282493Y-66244026D01*
X106324543Y-66239781D01*
X106362909Y-66227295D01*
X106397597Y-66207342D01*
X106427267Y-66181256D01*
X106451291Y-66149439D01*
X106469888Y-66110853D01*
X106481282Y-66068362D01*
X106485214Y-66020849D01*
X106481279Y-65976169D01*
X106469888Y-65936463D01*
X106451386Y-65900505D01*
X106427267Y-65870273D01*
X106397664Y-65845421D01*
X106362909Y-65826310D01*
X106324576Y-65814332D01*
X106282493Y-65810251D01*
X106226402Y-65817163D01*
X106181082Y-65836724D01*
X106144007Y-65868869D01*
X106116764Y-65910536D01*
X106099715Y-65961326D01*
X106093632Y-66023658D01*
X105961081Y-66023658D01*
X105960642Y-66018773D01*
X105967012Y-65947412D01*
X105985188Y-65886210D01*
X106014468Y-65831572D01*
X106051805Y-65787109D01*
X106097016Y-65751523D01*
X106148586Y-65725682D01*
X106204497Y-65710011D01*
X106263625Y-65704738D01*
X106326807Y-65710619D01*
X106381389Y-65727478D01*
X106429058Y-65754915D01*
X106470966Y-65793582D01*
X106507623Y-65845116D01*
X106507623Y-65810068D01*
X106503427Y-65732324D01*
X106491564Y-65665170D01*
X106471540Y-65603311D01*
X106446074Y-65553796D01*
X106412910Y-65512536D01*
X106374084Y-65483087D01*
X106329047Y-65464836D01*
X106276814Y-65458541D01*
X106228928Y-65463348D01*
X106190714Y-65476721D01*
X106160066Y-65497986D01*
X106136451Y-65526913D01*
X106119199Y-65565418D01*
X106109019Y-65616078D01*
X105970533Y-65616078D01*
X105982334Y-65554228D01*
X106002134Y-65502189D01*
X106029451Y-65458366D01*
X106064445Y-65421599D01*
X106106022Y-65392508D01*
X106154281Y-65371177D01*
X106210466Y-65357764D01*
X106276142Y-65353028D01*
X106333212Y-65357102D01*
G37*
G36*
X105498534Y-66330000D02*
G01*
X105205015Y-66330000D01*
X105108037Y-66324910D01*
X105031725Y-66311132D01*
X104961882Y-66286667D01*
X104898979Y-66251659D01*
X104839671Y-66202287D01*
X104789511Y-66143153D01*
X104748037Y-66073178D01*
X104718186Y-65997283D01*
X104699838Y-65913996D01*
X104693510Y-65821974D01*
X104838101Y-65821974D01*
X104841648Y-65888347D01*
X104851987Y-65949733D01*
X104868815Y-66006744D01*
X104892984Y-66060709D01*
X104921886Y-66104657D01*
X104955399Y-66139979D01*
X105004625Y-66173371D01*
X105067812Y-66197864D01*
X105138332Y-66211691D01*
X105223517Y-66216671D01*
X105361758Y-66216671D01*
X105361758Y-65427278D01*
X105223517Y-65427278D01*
X105137888Y-65432024D01*
X105064331Y-65445413D01*
X104998299Y-65469300D01*
X104949781Y-65501161D01*
X104916656Y-65536627D01*
X104888694Y-65581217D01*
X104866067Y-65636533D01*
X104845239Y-65725158D01*
X104838101Y-65821974D01*
X104693510Y-65821974D01*
X104699344Y-65729712D01*
X104716284Y-65645655D01*
X104743824Y-65568633D01*
X104782992Y-65497454D01*
X104831729Y-65437681D01*
X104890553Y-65388077D01*
X104954199Y-65353756D01*
X105027573Y-65330741D01*
X105107460Y-65318425D01*
X105205015Y-65313949D01*
X105498534Y-65313949D01*
X105498534Y-66330000D01*
G37*
G36*
X104389672Y-65607041D02*
G01*
X104389672Y-66330000D01*
X104518632Y-66330000D01*
X104518632Y-65607041D01*
X104389672Y-65607041D01*
G37*
G36*
X104518632Y-65313949D02*
G01*
X104389672Y-65313949D01*
X104389672Y-65454633D01*
X104518632Y-65454633D01*
X104518632Y-65313949D01*
G37*
G36*
X104099511Y-66098396D02*
G01*
X104093534Y-66147145D01*
X104076958Y-66184599D01*
X104050174Y-66213496D01*
X104015234Y-66233766D01*
X103969700Y-66246979D01*
X103910650Y-66251842D01*
X103861388Y-66248318D01*
X103823950Y-66238850D01*
X103795795Y-66224609D01*
X103773601Y-66203706D01*
X103760311Y-66177462D01*
X103755617Y-66144131D01*
X103759772Y-66112978D01*
X103771127Y-66090336D01*
X103788873Y-66072053D01*
X103812587Y-66056753D01*
X103839890Y-66045074D01*
X103872365Y-66035748D01*
X103942768Y-66021032D01*
X104038389Y-66001493D01*
X104084382Y-65987130D01*
X104124912Y-65967238D01*
X104159863Y-65939997D01*
X104188232Y-65903613D01*
X104206159Y-65858960D01*
X104212840Y-65797306D01*
X104207682Y-65752760D01*
X104192506Y-65712676D01*
X104168207Y-65677101D01*
X104135048Y-65646242D01*
X104095074Y-65621833D01*
X104046022Y-65602889D01*
X103992264Y-65591521D01*
X103929640Y-65587501D01*
X103860273Y-65591968D01*
X103803067Y-65604384D01*
X103755964Y-65623662D01*
X103717271Y-65649295D01*
X103685264Y-65682721D01*
X103662076Y-65723024D01*
X103647488Y-65771620D01*
X103642288Y-65830523D01*
X103771249Y-65830523D01*
X103776042Y-65786300D01*
X103789202Y-65752451D01*
X103810033Y-65726509D01*
X103839407Y-65707137D01*
X103879600Y-65694366D01*
X103933975Y-65689595D01*
X103978186Y-65693008D01*
X104013098Y-65702357D01*
X104040587Y-65716767D01*
X104062670Y-65737285D01*
X104075466Y-65761238D01*
X104079849Y-65789856D01*
X104075938Y-65818439D01*
X104065073Y-65839987D01*
X104048194Y-65857532D01*
X104026299Y-65871983D01*
X104000955Y-65883021D01*
X103969879Y-65892194D01*
X103900819Y-65906788D01*
X103802084Y-65928403D01*
X103753373Y-65943456D01*
X103711226Y-65963941D01*
X103674702Y-65991646D01*
X103644975Y-66027993D01*
X103631087Y-66056091D01*
X103622104Y-66091249D01*
X103618841Y-66135155D01*
X103624551Y-66181982D01*
X103641311Y-66223571D01*
X103667799Y-66260068D01*
X103703166Y-66291104D01*
X103745286Y-66315387D01*
X103796589Y-66334213D01*
X103852062Y-66345595D01*
X103913825Y-66349539D01*
X103990664Y-66344778D01*
X104053641Y-66331596D01*
X104105108Y-66311233D01*
X104147016Y-66284326D01*
X104182166Y-66248878D01*
X104207312Y-66207031D01*
X104222948Y-66157504D01*
X104228471Y-66098396D01*
X104099511Y-66098396D01*
G37*
G36*
X102863459Y-66086489D02*
G01*
X102882381Y-66160202D01*
X102909419Y-66218865D01*
X102943856Y-66265123D01*
X102985843Y-66300860D01*
X103036387Y-66327040D01*
X103097244Y-66343619D01*
X103170778Y-66349539D01*
X103225206Y-66346303D01*
X103273121Y-66337059D01*
X103315430Y-66322306D01*
X103373020Y-66289210D01*
X103420882Y-66244820D01*
X103458344Y-66190289D01*
X103485851Y-66124042D01*
X103501866Y-66051251D01*
X103507466Y-65968337D01*
X103501741Y-65889190D01*
X103485118Y-65817517D01*
X103457195Y-65751586D01*
X103419478Y-65696006D01*
X103371334Y-65650220D01*
X103312622Y-65615650D01*
X103269339Y-65600036D01*
X103221378Y-65590365D01*
X103167969Y-65587013D01*
X103102385Y-65591670D01*
X103046768Y-65604807D01*
X102999460Y-65625596D01*
X102959141Y-65653813D01*
X102925040Y-65689568D01*
X102897951Y-65732232D01*
X102877748Y-65782896D01*
X102864863Y-65843040D01*
X102999258Y-65843040D01*
X103014878Y-65784720D01*
X103039332Y-65742883D01*
X103072105Y-65713778D01*
X103114639Y-65695659D01*
X103170045Y-65689106D01*
X103218210Y-65694397D01*
X103258278Y-65709439D01*
X103292940Y-65733602D01*
X103321964Y-65766104D01*
X103344293Y-65805207D01*
X103361165Y-65853543D01*
X103370995Y-65906287D01*
X103374476Y-65967604D01*
X103367904Y-66050078D01*
X103349703Y-66116684D01*
X103321292Y-66170509D01*
X103291686Y-66204335D01*
X103257329Y-66227971D01*
X103217302Y-66242400D01*
X103170045Y-66247445D01*
X103123893Y-66242801D01*
X103085231Y-66229613D01*
X103052503Y-66208244D01*
X103026249Y-66179169D01*
X103005055Y-66139481D01*
X102989488Y-66086489D01*
X102863459Y-66086489D01*
G37*
G36*
X102490762Y-65594210D02*
G01*
X102558461Y-65614979D01*
X102618705Y-65648857D01*
X102668248Y-65693869D01*
X102707582Y-65748927D01*
X102737552Y-65814708D01*
X102755725Y-65886823D01*
X102762037Y-65968337D01*
X102755909Y-66049923D01*
X102738224Y-66122637D01*
X102708608Y-66188802D01*
X102668981Y-66243476D01*
X102619002Y-66287979D01*
X102559132Y-66321634D01*
X102492069Y-66342340D01*
X102415029Y-66349539D01*
X102336570Y-66342341D01*
X102268117Y-66321634D01*
X102207067Y-66287892D01*
X102156864Y-66243476D01*
X102117037Y-66188819D01*
X102086889Y-66122637D01*
X102068700Y-66049894D01*
X102062451Y-65968948D01*
X102195394Y-65968948D01*
X102199402Y-66030126D01*
X102210781Y-66083009D01*
X102229735Y-66131254D01*
X102254195Y-66170509D01*
X102285474Y-66202828D01*
X102323438Y-66227173D01*
X102366424Y-66242262D01*
X102415029Y-66247445D01*
X102462167Y-66242265D01*
X102503811Y-66227173D01*
X102540555Y-66202786D01*
X102571650Y-66169776D01*
X102595910Y-66129849D01*
X102614331Y-66080933D01*
X102625223Y-66027437D01*
X102629047Y-65966139D01*
X102625037Y-65904968D01*
X102613660Y-65852138D01*
X102594669Y-65803896D01*
X102570245Y-65764699D01*
X102539168Y-65732394D01*
X102502407Y-65708707D01*
X102460800Y-65694123D01*
X102413625Y-65689106D01*
X102365224Y-65694341D01*
X102323438Y-65709439D01*
X102286555Y-65733746D01*
X102254867Y-65766775D01*
X102229851Y-65806644D01*
X102210781Y-65854947D01*
X102199404Y-65907777D01*
X102195394Y-65968948D01*
X102062451Y-65968948D01*
X102062404Y-65968337D01*
X102068716Y-65886823D01*
X102086889Y-65814708D01*
X102116968Y-65748982D01*
X102156864Y-65693869D01*
X102207014Y-65648826D01*
X102267445Y-65614979D01*
X102335269Y-65594243D01*
X102413625Y-65587013D01*
X102490762Y-65594210D01*
G37*
G36*
X101817306Y-66027566D02*
G01*
X101810600Y-66093385D01*
X101792001Y-66145429D01*
X101762473Y-66186751D01*
X101722525Y-66217766D01*
X101672450Y-66237093D01*
X101609272Y-66244026D01*
X101566885Y-66240636D01*
X101528550Y-66230776D01*
X101493377Y-66214652D01*
X101463886Y-66193712D01*
X101439622Y-66167668D01*
X101421755Y-66137170D01*
X101410746Y-66103121D01*
X101406978Y-66065240D01*
X101413489Y-66014819D01*
X101431966Y-65974156D01*
X101462543Y-65940921D01*
X101501950Y-65917182D01*
X101552713Y-65901838D01*
X101617943Y-65896224D01*
X101662944Y-65896224D01*
X101662944Y-65786803D01*
X101632048Y-65786803D01*
X101564881Y-65781379D01*
X101513382Y-65766685D01*
X101474145Y-65744244D01*
X101443713Y-65712266D01*
X101425249Y-65672357D01*
X101418702Y-65622001D01*
X101424717Y-65574056D01*
X101441829Y-65534938D01*
X101470115Y-65502566D01*
X101506733Y-65478880D01*
X101552187Y-65463920D01*
X101608845Y-65458541D01*
X101668747Y-65464875D01*
X101716715Y-65482571D01*
X101755390Y-65510931D01*
X101784133Y-65549083D01*
X101802294Y-65598061D01*
X101808879Y-65661079D01*
X101942908Y-65661079D01*
X101933540Y-65588147D01*
X101913913Y-65527168D01*
X101884816Y-65476032D01*
X101846127Y-65433201D01*
X101799287Y-65399378D01*
X101743913Y-65374436D01*
X101678359Y-65358642D01*
X101600540Y-65353028D01*
X101530985Y-65357932D01*
X101470664Y-65371896D01*
X101415710Y-65395008D01*
X101370341Y-65425019D01*
X101332905Y-65462678D01*
X101305129Y-65506779D01*
X101287839Y-65556204D01*
X101281926Y-65611498D01*
X101285307Y-65649942D01*
X101295359Y-65686359D01*
X101311206Y-65720571D01*
X101331995Y-65751999D01*
X101357318Y-65779764D01*
X101386889Y-65802984D01*
X101420027Y-65821073D01*
X101456620Y-65833698D01*
X101456620Y-65840720D01*
X101397791Y-65860745D01*
X101352085Y-65888089D01*
X101317158Y-65922480D01*
X101291633Y-65964338D01*
X101275792Y-66013794D01*
X101270202Y-66072751D01*
X101276824Y-66132066D01*
X101296153Y-66184614D01*
X101326924Y-66231371D01*
X101368265Y-66271992D01*
X101418052Y-66304377D01*
X101478297Y-66329267D01*
X101543794Y-66344339D01*
X101616355Y-66349539D01*
X101692262Y-66343559D01*
X101757222Y-66326580D01*
X101815594Y-66298506D01*
X101863712Y-66261734D01*
X101902376Y-66215836D01*
X101930940Y-66160678D01*
X101948081Y-66098982D01*
X101954082Y-66027566D01*
X101817306Y-66027566D01*
G37*
G36*
X152177250Y-87509553D02*
G01*
X152177250Y-87400132D01*
X151903698Y-87400132D01*
X151903698Y-87110949D01*
X151786461Y-87110949D01*
X151786461Y-87400132D01*
X151509001Y-87400132D01*
X151509001Y-87509553D01*
X151786461Y-87509553D01*
X151786461Y-87798736D01*
X151903698Y-87798736D01*
X151903698Y-87509553D01*
X152177250Y-87509553D01*
G37*
G36*
X151117397Y-86858914D02*
G01*
X151179395Y-86876109D01*
X151236118Y-86903900D01*
X151284420Y-86940345D01*
X151324412Y-86985277D01*
X151355128Y-87038164D01*
X151374392Y-87096947D01*
X151381018Y-87163155D01*
X151375192Y-87231995D01*
X151358609Y-87290956D01*
X151331257Y-87343672D01*
X151294922Y-87387370D01*
X151250084Y-87422440D01*
X151196920Y-87448859D01*
X151138174Y-87464906D01*
X151071623Y-87470474D01*
X151010501Y-87464893D01*
X150957950Y-87448937D01*
X150912315Y-87423063D01*
X150872449Y-87386744D01*
X150837822Y-87338522D01*
X150837822Y-87393232D01*
X150841920Y-87477986D01*
X150853241Y-87547774D01*
X150870574Y-87604903D01*
X150893082Y-87651397D01*
X150924596Y-87692527D01*
X150961488Y-87720870D01*
X151004722Y-87738034D01*
X151056175Y-87744026D01*
X151105196Y-87739330D01*
X151145932Y-87726071D01*
X151180067Y-87704764D01*
X151207370Y-87675579D01*
X151227261Y-87637920D01*
X151239479Y-87589726D01*
X151371187Y-87589726D01*
X151360475Y-87648754D01*
X151340413Y-87699452D01*
X151311089Y-87744076D01*
X151273917Y-87781151D01*
X151229438Y-87810299D01*
X151175915Y-87832076D01*
X151117527Y-87845038D01*
X151052023Y-87849539D01*
X150985511Y-87843880D01*
X150927808Y-87827680D01*
X150877305Y-87801466D01*
X150832829Y-87764897D01*
X150793736Y-87716793D01*
X150757555Y-87649692D01*
X150729699Y-87566261D01*
X150711459Y-87463186D01*
X150704832Y-87336629D01*
X150711258Y-87218240D01*
X150720831Y-87165964D01*
X150860231Y-87165964D01*
X150864119Y-87206719D01*
X150875618Y-87244610D01*
X150894109Y-87279023D01*
X150918300Y-87307869D01*
X150947785Y-87331387D01*
X150982658Y-87349635D01*
X151020912Y-87361056D01*
X151063075Y-87364961D01*
X151103684Y-87361024D01*
X151139401Y-87349635D01*
X151171485Y-87331321D01*
X151198874Y-87307198D01*
X151221104Y-87277856D01*
X151238075Y-87243206D01*
X151248484Y-87205195D01*
X151252058Y-87163155D01*
X151248471Y-87119853D01*
X151238075Y-87081090D01*
X151220915Y-87045827D01*
X151198202Y-87016366D01*
X151169986Y-86992245D01*
X151136592Y-86973867D01*
X151099676Y-86962444D01*
X151058923Y-86958541D01*
X151018075Y-86962429D01*
X150980582Y-86973867D01*
X150946497Y-86992394D01*
X150917567Y-87017037D01*
X150893941Y-87047056D01*
X150875618Y-87082433D01*
X150864195Y-87121494D01*
X150860231Y-87165964D01*
X150720831Y-87165964D01*
X150728992Y-87121401D01*
X150756178Y-87042597D01*
X150791660Y-86978813D01*
X150829549Y-86933705D01*
X150873257Y-86899105D01*
X150923528Y-86874083D01*
X150981621Y-86858501D01*
X151049214Y-86853028D01*
X151117397Y-86858914D01*
G37*
G36*
X150636810Y-86813949D02*
G01*
X150484219Y-86813949D01*
X150263057Y-87468948D01*
X150230817Y-87573239D01*
X150198638Y-87678874D01*
X150190212Y-87678874D01*
X150180442Y-87650908D01*
X150169207Y-87614455D01*
X150152415Y-87555715D01*
X150124449Y-87468948D01*
X149896205Y-86813949D01*
X149757658Y-86813949D01*
X150127197Y-87830000D01*
X150278445Y-87830000D01*
X150636810Y-86813949D01*
G37*
G36*
X155025819Y-87376685D02*
G01*
X154654570Y-87376685D01*
X154654570Y-87490013D01*
X155025819Y-87490013D01*
X155025819Y-87376685D01*
G37*
G36*
X154276643Y-86858914D02*
G01*
X154338642Y-86876109D01*
X154395364Y-86903900D01*
X154443667Y-86940345D01*
X154483659Y-86985277D01*
X154514375Y-87038164D01*
X154533639Y-87096947D01*
X154540265Y-87163155D01*
X154534439Y-87231995D01*
X154517855Y-87290956D01*
X154490503Y-87343672D01*
X154454169Y-87387370D01*
X154409330Y-87422440D01*
X154356167Y-87448859D01*
X154297421Y-87464906D01*
X154230870Y-87470474D01*
X154169748Y-87464893D01*
X154117197Y-87448937D01*
X154071562Y-87423063D01*
X154031696Y-87386744D01*
X153997068Y-87338522D01*
X153997068Y-87393232D01*
X154001167Y-87477986D01*
X154012488Y-87547774D01*
X154029821Y-87604903D01*
X154052328Y-87651397D01*
X154083843Y-87692527D01*
X154120734Y-87720870D01*
X154163969Y-87738034D01*
X154215422Y-87744026D01*
X154264442Y-87739330D01*
X154305179Y-87726071D01*
X154339314Y-87704764D01*
X154366617Y-87675579D01*
X154386507Y-87637920D01*
X154398726Y-87589726D01*
X154530434Y-87589726D01*
X154519721Y-87648754D01*
X154499659Y-87699452D01*
X154470336Y-87744076D01*
X154433164Y-87781151D01*
X154388685Y-87810299D01*
X154335162Y-87832076D01*
X154276774Y-87845038D01*
X154211269Y-87849539D01*
X154144758Y-87843880D01*
X154087054Y-87827680D01*
X154036552Y-87801466D01*
X153992076Y-87764897D01*
X153952983Y-87716793D01*
X153916802Y-87649692D01*
X153888946Y-87566261D01*
X153870706Y-87463186D01*
X153864078Y-87336629D01*
X153870505Y-87218240D01*
X153880078Y-87165964D01*
X154019478Y-87165964D01*
X154023366Y-87206719D01*
X154034865Y-87244610D01*
X154053356Y-87279023D01*
X154077546Y-87307869D01*
X154107032Y-87331387D01*
X154141904Y-87349635D01*
X154180159Y-87361056D01*
X154222321Y-87364961D01*
X154262931Y-87361024D01*
X154298647Y-87349635D01*
X154330732Y-87331321D01*
X154358120Y-87307198D01*
X154380351Y-87277856D01*
X154397321Y-87243206D01*
X154407731Y-87205195D01*
X154411304Y-87163155D01*
X154407718Y-87119853D01*
X154397321Y-87081090D01*
X154380161Y-87045827D01*
X154357449Y-87016366D01*
X154329232Y-86992245D01*
X154295839Y-86973867D01*
X154258922Y-86962444D01*
X154218169Y-86958541D01*
X154177321Y-86962429D01*
X154139828Y-86973867D01*
X154105744Y-86992394D01*
X154076814Y-87017037D01*
X154053188Y-87047056D01*
X154034865Y-87082433D01*
X154023441Y-87121494D01*
X154019478Y-87165964D01*
X153880078Y-87165964D01*
X153888238Y-87121401D01*
X153915424Y-87042597D01*
X153950907Y-86978813D01*
X153988795Y-86933705D01*
X154032504Y-86899105D01*
X154082775Y-86874083D01*
X154140867Y-86858501D01*
X154208461Y-86853028D01*
X154276643Y-86858914D01*
G37*
G36*
X153796057Y-86813949D02*
G01*
X153643466Y-86813949D01*
X153422304Y-87468948D01*
X153390064Y-87573239D01*
X153357885Y-87678874D01*
X153349459Y-87678874D01*
X153339689Y-87650908D01*
X153328454Y-87614455D01*
X153311662Y-87555715D01*
X153283696Y-87468948D01*
X153055451Y-86813949D01*
X152916904Y-86813949D01*
X153286444Y-87830000D01*
X153437691Y-87830000D01*
X153796057Y-86813949D01*
G37*
G36*
X87864688Y-69415000D02*
G01*
X87575871Y-69415000D01*
X87501410Y-69412744D01*
X87425234Y-69405901D01*
X87351414Y-69391504D01*
X87286504Y-69367555D01*
X87247316Y-69345013D01*
X87213623Y-69316981D01*
X87184899Y-69283108D01*
X87163959Y-69244415D01*
X87150509Y-69196098D01*
X87145637Y-69135769D01*
X87145859Y-69133449D01*
X87286321Y-69133449D01*
X87292666Y-69188233D01*
X87309524Y-69226505D01*
X87336614Y-69256446D01*
X87372112Y-69278285D01*
X87413549Y-69292372D01*
X87463580Y-69300694D01*
X87574650Y-69305579D01*
X87727912Y-69305579D01*
X87727912Y-68957166D01*
X87592907Y-68957166D01*
X87515436Y-68959065D01*
X87454421Y-68964188D01*
X87399244Y-68974897D01*
X87358800Y-68990750D01*
X87326113Y-69014319D01*
X87303907Y-69044605D01*
X87291127Y-69081932D01*
X87286321Y-69133449D01*
X87145859Y-69133449D01*
X87152298Y-69066017D01*
X87170352Y-69013374D01*
X87198272Y-68973836D01*
X87236302Y-68942362D01*
X87285315Y-68916591D01*
X87347626Y-68897021D01*
X87347626Y-68894213D01*
X87293216Y-68873153D01*
X87250310Y-68843973D01*
X87217017Y-68806530D01*
X87192416Y-68762302D01*
X87177877Y-68716071D01*
X87174310Y-68680195D01*
X87309769Y-68680195D01*
X87313483Y-68721144D01*
X87323602Y-68752594D01*
X87339261Y-68776671D01*
X87372068Y-68805604D01*
X87412228Y-68825642D01*
X87456929Y-68837781D01*
X87506201Y-68843838D01*
X87600173Y-68846646D01*
X87727912Y-68846646D01*
X87727912Y-68512278D01*
X87584786Y-68512278D01*
X87477441Y-68516491D01*
X87429662Y-68524078D01*
X87390491Y-68537435D01*
X87357095Y-68558486D01*
X87331567Y-68587810D01*
X87315781Y-68625388D01*
X87309769Y-68680195D01*
X87174310Y-68680195D01*
X87172993Y-68666945D01*
X87177624Y-68604130D01*
X87190206Y-68555282D01*
X87209385Y-68517529D01*
X87236190Y-68484330D01*
X87267092Y-68457857D01*
X87302502Y-68437540D01*
X87361526Y-68416722D01*
X87428532Y-68405300D01*
X87565063Y-68398949D01*
X87864688Y-68398949D01*
X87864688Y-69415000D01*
G37*
G36*
X86962944Y-68398949D02*
G01*
X86833983Y-68398949D01*
X86833983Y-69415000D01*
X86962944Y-69415000D01*
X86962944Y-68398949D01*
G37*
G36*
X86413983Y-68677062D02*
G01*
X86469756Y-68690087D01*
X86520676Y-68711483D01*
X86562874Y-68739180D01*
X86597690Y-68774125D01*
X86623751Y-68815689D01*
X86639850Y-68862690D01*
X86645428Y-68916744D01*
X86516468Y-68916744D01*
X86510919Y-68870494D01*
X86495533Y-68834828D01*
X86470733Y-68807201D01*
X86438367Y-68787259D01*
X86398769Y-68774696D01*
X86350077Y-68770198D01*
X86296507Y-68775815D01*
X86257565Y-68790880D01*
X86229543Y-68814162D01*
X86209661Y-68845564D01*
X86196819Y-68886326D01*
X86192113Y-68939092D01*
X86192113Y-68964188D01*
X86289933Y-68974019D01*
X86396117Y-68985865D01*
X86499493Y-69008213D01*
X86547511Y-69025973D01*
X86588214Y-69048696D01*
X86622811Y-69078044D01*
X86649702Y-69114337D01*
X86666650Y-69157344D01*
X86672783Y-69212827D01*
X86668498Y-69259907D01*
X86656161Y-69301083D01*
X86636024Y-69337493D01*
X86607631Y-69369937D01*
X86573533Y-69395342D01*
X86532240Y-69414229D01*
X86482288Y-69426302D01*
X86421824Y-69430631D01*
X86346350Y-69423880D01*
X86283094Y-69404802D01*
X86245334Y-69384181D01*
X86209893Y-69355373D01*
X86176482Y-69317302D01*
X86173245Y-69376775D01*
X86166712Y-69415244D01*
X86046300Y-69415244D01*
X86055512Y-69365644D01*
X86061016Y-69313150D01*
X86064496Y-69197074D01*
X86064496Y-69103773D01*
X86192113Y-69103773D01*
X86196750Y-69171420D01*
X86208905Y-69220277D01*
X86229188Y-69261836D01*
X86253724Y-69291474D01*
X86283896Y-69313309D01*
X86318204Y-69327072D01*
X86355126Y-69334375D01*
X86393858Y-69336842D01*
X86439415Y-69332616D01*
X86475408Y-69320953D01*
X86503889Y-69302648D01*
X86526170Y-69277610D01*
X86539309Y-69248939D01*
X86543823Y-69215392D01*
X86539212Y-69181112D01*
X86526192Y-69154036D01*
X86504622Y-69132411D01*
X86462191Y-69107914D01*
X86409306Y-69089851D01*
X86352462Y-69078538D01*
X86292986Y-69072388D01*
X86192113Y-69063290D01*
X86192113Y-69103773D01*
X86064496Y-69103773D01*
X86064496Y-68999848D01*
X86070786Y-68887252D01*
X86082627Y-68831446D01*
X86105102Y-68781617D01*
X86126425Y-68752468D01*
X86154562Y-68726397D01*
X86190526Y-68703276D01*
X86230089Y-68687250D01*
X86282226Y-68676503D01*
X86350077Y-68672501D01*
X86413983Y-68677062D01*
G37*
G36*
X85264784Y-69171489D02*
G01*
X85283706Y-69245202D01*
X85310744Y-69303865D01*
X85345181Y-69350123D01*
X85387169Y-69385860D01*
X85437712Y-69412040D01*
X85498570Y-69428619D01*
X85572103Y-69434539D01*
X85626531Y-69431303D01*
X85674446Y-69422059D01*
X85716756Y-69407306D01*
X85774345Y-69374210D01*
X85822207Y-69329820D01*
X85859669Y-69275289D01*
X85887176Y-69209042D01*
X85903192Y-69136251D01*
X85908792Y-69053337D01*
X85903066Y-68974190D01*
X85886443Y-68902517D01*
X85858520Y-68836586D01*
X85820803Y-68781006D01*
X85772659Y-68735220D01*
X85713947Y-68700650D01*
X85670665Y-68685036D01*
X85622704Y-68675365D01*
X85569294Y-68672013D01*
X85503711Y-68676670D01*
X85448093Y-68689807D01*
X85400785Y-68710596D01*
X85360466Y-68738813D01*
X85326366Y-68774568D01*
X85299276Y-68817232D01*
X85279073Y-68867896D01*
X85266189Y-68928040D01*
X85400583Y-68928040D01*
X85416204Y-68869720D01*
X85440657Y-68827883D01*
X85473431Y-68798778D01*
X85515964Y-68780659D01*
X85571370Y-68774106D01*
X85619535Y-68779397D01*
X85659603Y-68794439D01*
X85694265Y-68818602D01*
X85723289Y-68851104D01*
X85745618Y-68890207D01*
X85762490Y-68938543D01*
X85772321Y-68991287D01*
X85775801Y-69052604D01*
X85769230Y-69135078D01*
X85751028Y-69201684D01*
X85722617Y-69255509D01*
X85693011Y-69289335D01*
X85658654Y-69312971D01*
X85618627Y-69327400D01*
X85571370Y-69332445D01*
X85525218Y-69327801D01*
X85486556Y-69314613D01*
X85453828Y-69293244D01*
X85427574Y-69264169D01*
X85406380Y-69224481D01*
X85390814Y-69171489D01*
X85264784Y-69171489D01*
G37*
G36*
X85112560Y-68398949D02*
G01*
X84983600Y-68398949D01*
X84983600Y-68989040D01*
X84690997Y-68692041D01*
X84538406Y-68692041D01*
X84857631Y-69008702D01*
X84506227Y-69415000D01*
X84668587Y-69415000D01*
X84983600Y-69036728D01*
X84983600Y-69415000D01*
X85112560Y-69415000D01*
X85112560Y-68398949D01*
G37*
G36*
X86872085Y-72915000D02*
G01*
X86735309Y-72915000D01*
X86735309Y-72496856D01*
X86622164Y-72496856D01*
X86532771Y-72496856D01*
X86493700Y-72500161D01*
X86460841Y-72509495D01*
X86431563Y-72525618D01*
X86405704Y-72549490D01*
X86384946Y-72580535D01*
X86366564Y-72625938D01*
X86275766Y-72915000D01*
X86128305Y-72915000D01*
X86234856Y-72589607D01*
X86255922Y-72539354D01*
X86270314Y-72515438D01*
X86288223Y-72493986D01*
X86309872Y-72475750D01*
X86337255Y-72460464D01*
X86368281Y-72450027D01*
X86405948Y-72444405D01*
X86405948Y-72440191D01*
X86357383Y-72425486D01*
X86314723Y-72404471D01*
X86276733Y-72377352D01*
X86245297Y-72346219D01*
X86219704Y-72310662D01*
X86200417Y-72271236D01*
X86188339Y-72229072D01*
X86185479Y-72197903D01*
X86324981Y-72197903D01*
X86328288Y-72239354D01*
X86337383Y-72272307D01*
X86351482Y-72298469D01*
X86381929Y-72331131D01*
X86420602Y-72354767D01*
X86464897Y-72370022D01*
X86515491Y-72378642D01*
X86619477Y-72383527D01*
X86735309Y-72383527D01*
X86735309Y-72012278D01*
X86619477Y-72012278D01*
X86545533Y-72012278D01*
X86508592Y-72014095D01*
X86475679Y-72019300D01*
X86434413Y-72031005D01*
X86398892Y-72048362D01*
X86368273Y-72071324D01*
X86345478Y-72100546D01*
X86330569Y-72141423D01*
X86324981Y-72197903D01*
X86185479Y-72197903D01*
X86184297Y-72185019D01*
X86190817Y-72113905D01*
X86208906Y-72056944D01*
X86237420Y-72011179D01*
X86276019Y-71972553D01*
X86321341Y-71942276D01*
X86374379Y-71920015D01*
X86420199Y-71908706D01*
X86470184Y-71902491D01*
X86571483Y-71899010D01*
X86872085Y-71899010D01*
X86872085Y-72915000D01*
G37*
G36*
X85754974Y-72175346D02*
G01*
X85802630Y-72184999D01*
X85846021Y-72200650D01*
X85905312Y-72235126D01*
X85955320Y-72281006D01*
X85995110Y-72336695D01*
X86024685Y-72402517D01*
X86042407Y-72474250D01*
X86048498Y-72553337D01*
X86042254Y-72642919D01*
X86024752Y-72717871D01*
X85997260Y-72780671D01*
X85960205Y-72833300D01*
X85912811Y-72876417D01*
X85855925Y-72907761D01*
X85787605Y-72927506D01*
X85705154Y-72934539D01*
X85623762Y-72927596D01*
X85552686Y-72907662D01*
X85490037Y-72875310D01*
X85449338Y-72842399D01*
X85417007Y-72802695D01*
X85392458Y-72755312D01*
X85375793Y-72698845D01*
X85511530Y-72698845D01*
X85528772Y-72742517D01*
X85551952Y-72775770D01*
X85581079Y-72800450D01*
X85615599Y-72817859D01*
X85655242Y-72828662D01*
X85701124Y-72832445D01*
X85744537Y-72828001D01*
X85783251Y-72815043D01*
X85818245Y-72794272D01*
X85849257Y-72766378D01*
X85874765Y-72732391D01*
X85894870Y-72691273D01*
X85907385Y-72645878D01*
X85911722Y-72594553D01*
X85374388Y-72594553D01*
X85380200Y-72492058D01*
X85380776Y-72489040D01*
X85511530Y-72489040D01*
X85910318Y-72489040D01*
X85895309Y-72417951D01*
X85872525Y-72365197D01*
X85843151Y-72326802D01*
X85804897Y-72297787D01*
X85760275Y-72280228D01*
X85707413Y-72274106D01*
X85657357Y-72280121D01*
X85614077Y-72297578D01*
X85575950Y-72326802D01*
X85546823Y-72365231D01*
X85524924Y-72417958D01*
X85511530Y-72489040D01*
X85380776Y-72489040D01*
X85396286Y-72407796D01*
X85421060Y-72338797D01*
X85453584Y-72282533D01*
X85487756Y-72243754D01*
X85528514Y-72213467D01*
X85576819Y-72191159D01*
X85634138Y-72177035D01*
X85702345Y-72172013D01*
X85754974Y-72175346D01*
G37*
G36*
X84736426Y-72279113D02*
G01*
X84763271Y-72245680D01*
X84793256Y-72220356D01*
X84826735Y-72202238D01*
X84883703Y-72185779D01*
X84954718Y-72179829D01*
X85022230Y-72187142D01*
X85082091Y-72208466D01*
X85135193Y-72242421D01*
X85180032Y-72287295D01*
X85215470Y-72341314D01*
X85242314Y-72405936D01*
X85258409Y-72476346D01*
X85263990Y-72555230D01*
X85257986Y-72646816D01*
X85241331Y-72721940D01*
X85215510Y-72783450D01*
X85181192Y-72833667D01*
X85136526Y-72875633D01*
X85084791Y-72905588D01*
X85024585Y-72924123D01*
X84953863Y-72930631D01*
X84894362Y-72925802D01*
X84843486Y-72912080D01*
X84799699Y-72890092D01*
X84761854Y-72859730D01*
X84729282Y-72820172D01*
X84729282Y-72915000D01*
X84607466Y-72915000D01*
X84607466Y-72555230D01*
X84733617Y-72555230D01*
X84740519Y-72638211D01*
X84759474Y-72703704D01*
X84788877Y-72755326D01*
X84819223Y-72787692D01*
X84853348Y-72810200D01*
X84892023Y-72823823D01*
X84936522Y-72828538D01*
X84979495Y-72823840D01*
X85016724Y-72810266D01*
X85049493Y-72787788D01*
X85078549Y-72755326D01*
X85106373Y-72703917D01*
X85124412Y-72638426D01*
X85131000Y-72555230D01*
X85124331Y-72470098D01*
X85106223Y-72404298D01*
X85078549Y-72353729D01*
X85049580Y-72321966D01*
X85016845Y-72299904D01*
X84979584Y-72286549D01*
X84936522Y-72281922D01*
X84891935Y-72286566D01*
X84853228Y-72299967D01*
X84819136Y-72322057D01*
X84788877Y-72353729D01*
X84766019Y-72390549D01*
X84748760Y-72435310D01*
X84737624Y-72489578D01*
X84733617Y-72555230D01*
X84607466Y-72555230D01*
X84607466Y-71898949D01*
X84736426Y-71898949D01*
X84736426Y-72279113D01*
G37*
G36*
X87913537Y-78988831D02*
G01*
X87960308Y-78992261D01*
X88003409Y-79002300D01*
X88043474Y-79018811D01*
X88097667Y-79054810D01*
X88144102Y-79103869D01*
X88180648Y-79163248D01*
X88209010Y-79236310D01*
X88226062Y-79316127D01*
X88232030Y-79407096D01*
X88226372Y-79499203D01*
X88210414Y-79577944D01*
X88183594Y-79649803D01*
X88148926Y-79708309D01*
X88104551Y-79756684D01*
X88052511Y-79791962D01*
X88013818Y-79808000D01*
X87971454Y-79817827D01*
X87924711Y-79821210D01*
X87863983Y-79815243D01*
X87810833Y-79798007D01*
X87763486Y-79770042D01*
X87723577Y-79732672D01*
X87691657Y-79686987D01*
X87666974Y-79631495D01*
X87651946Y-79570411D01*
X87646702Y-79500764D01*
X87895402Y-79500764D01*
X87895402Y-79387435D01*
X87512979Y-79387435D01*
X87512979Y-79913778D01*
X87634123Y-79913778D01*
X87634123Y-79871707D01*
X87634123Y-79826156D01*
X87629910Y-79783292D01*
X87636932Y-79780544D01*
X87672835Y-79824741D01*
X87714680Y-79861516D01*
X87763023Y-79891369D01*
X87815672Y-79912767D01*
X87874581Y-79926023D01*
X87940892Y-79930631D01*
X88015701Y-79925779D01*
X88080335Y-79912012D01*
X88136348Y-79890148D01*
X88188151Y-79859574D01*
X88233003Y-79822699D01*
X88271536Y-79779200D01*
X88303451Y-79730315D01*
X88329872Y-79675186D01*
X88350671Y-79613054D01*
X88369962Y-79515075D01*
X88376622Y-79407096D01*
X88373092Y-79334078D01*
X88362735Y-79265386D01*
X88345786Y-79200528D01*
X88321619Y-79138189D01*
X88291469Y-79082568D01*
X88255355Y-79032978D01*
X88212803Y-78988973D01*
X88164386Y-78951615D01*
X88109542Y-78920626D01*
X88050771Y-78898104D01*
X87985932Y-78884213D01*
X87913965Y-78879410D01*
X87829734Y-78885590D01*
X87757649Y-78903101D01*
X87692139Y-78931783D01*
X87637787Y-78968620D01*
X87592206Y-79014459D01*
X87556454Y-79068332D01*
X87530996Y-79128376D01*
X87515788Y-79194422D01*
X87657876Y-79194422D01*
X87676053Y-79132860D01*
X87704453Y-79083095D01*
X87743117Y-79043053D01*
X87790453Y-79013573D01*
X87846521Y-78995287D01*
X87913537Y-78988831D01*
G37*
G36*
X87169268Y-79192041D02*
G01*
X87169268Y-79300362D01*
X87138454Y-79258498D01*
X87107695Y-79228769D01*
X87076761Y-79209016D01*
X87024341Y-79190529D01*
X86966058Y-79184225D01*
X86884786Y-79192041D01*
X86884786Y-79307323D01*
X86929666Y-79300362D01*
X86970271Y-79297554D01*
X87025749Y-79303066D01*
X87066259Y-79317826D01*
X87099338Y-79342220D01*
X87124450Y-79375101D01*
X87141868Y-79414777D01*
X87153881Y-79465165D01*
X87160042Y-79519808D01*
X87162246Y-79583928D01*
X87162246Y-79915000D01*
X87291206Y-79915000D01*
X87291206Y-79192041D01*
X87169268Y-79192041D01*
G37*
G36*
X86530690Y-79175346D02*
G01*
X86578346Y-79184999D01*
X86621737Y-79200650D01*
X86681028Y-79235126D01*
X86731035Y-79281006D01*
X86770826Y-79336695D01*
X86800400Y-79402517D01*
X86818123Y-79474250D01*
X86824214Y-79553337D01*
X86817969Y-79642919D01*
X86800468Y-79717871D01*
X86772976Y-79780671D01*
X86735920Y-79833300D01*
X86688527Y-79876417D01*
X86631641Y-79907761D01*
X86563321Y-79927506D01*
X86480870Y-79934539D01*
X86399478Y-79927596D01*
X86328402Y-79907662D01*
X86265753Y-79875310D01*
X86225054Y-79842399D01*
X86192723Y-79802695D01*
X86168174Y-79755312D01*
X86151508Y-79698845D01*
X86287246Y-79698845D01*
X86304488Y-79742517D01*
X86327667Y-79775770D01*
X86356794Y-79800450D01*
X86391314Y-79817859D01*
X86430957Y-79828662D01*
X86476840Y-79832445D01*
X86520253Y-79828001D01*
X86558966Y-79815043D01*
X86593961Y-79794272D01*
X86624973Y-79766378D01*
X86650481Y-79732391D01*
X86670585Y-79691273D01*
X86683101Y-79645878D01*
X86687438Y-79594553D01*
X86150104Y-79594553D01*
X86155916Y-79492058D01*
X86156492Y-79489040D01*
X86287246Y-79489040D01*
X86686034Y-79489040D01*
X86671025Y-79417951D01*
X86648241Y-79365197D01*
X86618867Y-79326802D01*
X86580613Y-79297787D01*
X86535991Y-79280228D01*
X86483129Y-79274106D01*
X86433072Y-79280121D01*
X86389793Y-79297578D01*
X86351665Y-79326802D01*
X86322539Y-79365231D01*
X86300640Y-79417958D01*
X86287246Y-79489040D01*
X86156492Y-79489040D01*
X86172002Y-79407796D01*
X86196776Y-79338797D01*
X86229300Y-79282533D01*
X86263471Y-79243754D01*
X86304230Y-79213467D01*
X86352535Y-79191159D01*
X86409854Y-79177035D01*
X86478061Y-79172013D01*
X86530690Y-79175346D01*
G37*
G36*
X85746182Y-79175346D02*
G01*
X85793838Y-79184999D01*
X85837229Y-79200650D01*
X85896520Y-79235126D01*
X85946527Y-79281006D01*
X85986318Y-79336695D01*
X86015892Y-79402517D01*
X86033615Y-79474250D01*
X86039706Y-79553337D01*
X86033461Y-79642919D01*
X86015960Y-79717871D01*
X85988468Y-79780671D01*
X85951412Y-79833300D01*
X85904019Y-79876417D01*
X85847133Y-79907761D01*
X85778813Y-79927506D01*
X85696362Y-79934539D01*
X85614970Y-79927596D01*
X85543894Y-79907662D01*
X85481245Y-79875310D01*
X85440546Y-79842399D01*
X85408215Y-79802695D01*
X85383665Y-79755312D01*
X85367000Y-79698845D01*
X85502738Y-79698845D01*
X85519980Y-79742517D01*
X85543159Y-79775770D01*
X85572286Y-79800450D01*
X85606806Y-79817859D01*
X85646449Y-79828662D01*
X85692332Y-79832445D01*
X85735745Y-79828001D01*
X85774458Y-79815043D01*
X85809453Y-79794272D01*
X85840465Y-79766378D01*
X85865973Y-79732391D01*
X85886077Y-79691273D01*
X85898593Y-79645878D01*
X85902930Y-79594553D01*
X85365596Y-79594553D01*
X85371408Y-79492058D01*
X85371984Y-79489040D01*
X85502738Y-79489040D01*
X85901526Y-79489040D01*
X85886517Y-79417951D01*
X85863733Y-79365197D01*
X85834359Y-79326802D01*
X85796105Y-79297787D01*
X85751483Y-79280228D01*
X85698621Y-79274106D01*
X85648564Y-79280121D01*
X85605285Y-79297578D01*
X85567157Y-79326802D01*
X85538031Y-79365231D01*
X85516132Y-79417958D01*
X85502738Y-79489040D01*
X85371984Y-79489040D01*
X85387494Y-79407796D01*
X85412268Y-79338797D01*
X85444792Y-79282533D01*
X85478963Y-79243754D01*
X85519722Y-79213467D01*
X85568027Y-79191159D01*
X85625346Y-79177035D01*
X85693553Y-79172013D01*
X85746182Y-79175346D01*
G37*
G36*
X85085266Y-79284120D02*
G01*
X85058779Y-79254265D01*
X85031533Y-79230936D01*
X85002262Y-79212029D01*
X84972975Y-79198086D01*
X84913686Y-79181294D01*
X84856411Y-79176409D01*
X84794783Y-79180681D01*
X84746377Y-79192318D01*
X84708583Y-79210054D01*
X84675552Y-79235465D01*
X84648717Y-79266971D01*
X84627677Y-79305369D01*
X84615079Y-79343127D01*
X84607466Y-79385969D01*
X84602581Y-79481957D01*
X84602581Y-79915000D01*
X84731541Y-79915000D01*
X84731541Y-79506992D01*
X84736426Y-79424316D01*
X84744026Y-79385041D01*
X84756576Y-79350737D01*
X84775732Y-79321110D01*
X84802555Y-79298164D01*
X84836573Y-79283871D01*
X84884682Y-79278503D01*
X84928843Y-79282733D01*
X84966164Y-79294761D01*
X84998016Y-79314218D01*
X85025305Y-79341578D01*
X85051270Y-79386538D01*
X85068795Y-79449578D01*
X85075435Y-79536423D01*
X85075435Y-79915000D01*
X85204396Y-79915000D01*
X85204396Y-79192041D01*
X85085266Y-79192041D01*
X85085266Y-79284120D01*
G37*
G36*
X87362525Y-83415000D02*
G01*
X87073708Y-83415000D01*
X86999247Y-83412744D01*
X86923071Y-83405901D01*
X86849251Y-83391504D01*
X86784341Y-83367555D01*
X86745153Y-83345013D01*
X86711460Y-83316981D01*
X86682736Y-83283108D01*
X86661796Y-83244415D01*
X86648346Y-83196098D01*
X86643474Y-83135769D01*
X86643696Y-83133449D01*
X86784158Y-83133449D01*
X86790503Y-83188233D01*
X86807361Y-83226505D01*
X86834451Y-83256446D01*
X86869949Y-83278285D01*
X86911386Y-83292372D01*
X86961417Y-83300694D01*
X87072487Y-83305579D01*
X87225749Y-83305579D01*
X87225749Y-82957166D01*
X87090744Y-82957166D01*
X87013273Y-82959065D01*
X86952258Y-82964188D01*
X86897081Y-82974897D01*
X86856637Y-82990750D01*
X86823950Y-83014319D01*
X86801744Y-83044605D01*
X86788964Y-83081932D01*
X86784158Y-83133449D01*
X86643696Y-83133449D01*
X86650135Y-83066017D01*
X86668189Y-83013374D01*
X86696109Y-82973836D01*
X86734139Y-82942362D01*
X86783152Y-82916591D01*
X86845463Y-82897021D01*
X86845463Y-82894213D01*
X86791053Y-82873153D01*
X86748147Y-82843973D01*
X86714854Y-82806530D01*
X86690253Y-82762302D01*
X86675714Y-82716071D01*
X86672147Y-82680195D01*
X86807606Y-82680195D01*
X86811320Y-82721144D01*
X86821439Y-82752594D01*
X86837098Y-82776671D01*
X86869905Y-82805604D01*
X86910065Y-82825642D01*
X86954766Y-82837781D01*
X87004038Y-82843838D01*
X87098010Y-82846646D01*
X87225749Y-82846646D01*
X87225749Y-82512278D01*
X87082623Y-82512278D01*
X86975278Y-82516491D01*
X86927499Y-82524078D01*
X86888328Y-82537435D01*
X86854932Y-82558486D01*
X86829404Y-82587810D01*
X86813618Y-82625388D01*
X86807606Y-82680195D01*
X86672147Y-82680195D01*
X86670830Y-82666945D01*
X86675461Y-82604130D01*
X86688043Y-82555282D01*
X86707222Y-82517529D01*
X86734027Y-82484330D01*
X86764929Y-82457857D01*
X86800339Y-82437540D01*
X86859363Y-82416722D01*
X86926369Y-82405300D01*
X87062900Y-82398949D01*
X87362525Y-82398949D01*
X87362525Y-83415000D01*
G37*
G36*
X86252784Y-82677062D02*
G01*
X86308556Y-82690087D01*
X86359476Y-82711483D01*
X86401674Y-82739180D01*
X86436490Y-82774125D01*
X86462551Y-82815689D01*
X86478650Y-82862690D01*
X86484228Y-82916744D01*
X86355268Y-82916744D01*
X86349719Y-82870494D01*
X86334333Y-82834828D01*
X86309533Y-82807201D01*
X86277167Y-82787259D01*
X86237569Y-82774696D01*
X86188877Y-82770198D01*
X86135307Y-82775815D01*
X86096365Y-82790880D01*
X86068343Y-82814162D01*
X86048461Y-82845564D01*
X86035619Y-82886326D01*
X86030913Y-82939092D01*
X86030913Y-82964188D01*
X86128733Y-82974019D01*
X86234917Y-82985865D01*
X86338293Y-83008213D01*
X86386311Y-83025973D01*
X86427014Y-83048696D01*
X86461611Y-83078044D01*
X86488502Y-83114337D01*
X86505450Y-83157344D01*
X86511583Y-83212827D01*
X86507298Y-83259907D01*
X86494961Y-83301083D01*
X86474824Y-83337493D01*
X86446431Y-83369937D01*
X86412333Y-83395342D01*
X86371040Y-83414229D01*
X86321088Y-83426302D01*
X86260624Y-83430631D01*
X86185150Y-83423880D01*
X86121894Y-83404802D01*
X86084134Y-83384181D01*
X86048693Y-83355373D01*
X86015282Y-83317302D01*
X86012046Y-83376775D01*
X86005512Y-83415244D01*
X85885100Y-83415244D01*
X85894312Y-83365644D01*
X85899816Y-83313150D01*
X85903296Y-83197074D01*
X85903296Y-83103773D01*
X86030913Y-83103773D01*
X86035550Y-83171420D01*
X86047705Y-83220277D01*
X86067988Y-83261836D01*
X86092524Y-83291474D01*
X86122696Y-83313309D01*
X86157004Y-83327072D01*
X86193926Y-83334375D01*
X86232658Y-83336842D01*
X86278215Y-83332616D01*
X86314208Y-83320953D01*
X86342689Y-83302648D01*
X86364970Y-83277610D01*
X86378109Y-83248939D01*
X86382623Y-83215392D01*
X86378012Y-83181112D01*
X86364992Y-83154036D01*
X86343422Y-83132411D01*
X86300991Y-83107914D01*
X86248106Y-83089851D01*
X86191262Y-83078538D01*
X86131786Y-83072388D01*
X86030913Y-83063290D01*
X86030913Y-83103773D01*
X85903296Y-83103773D01*
X85903296Y-82999848D01*
X85909586Y-82887252D01*
X85921427Y-82831446D01*
X85943902Y-82781617D01*
X85965225Y-82752468D01*
X85993362Y-82726397D01*
X86029326Y-82703276D01*
X86068889Y-82687250D01*
X86121026Y-82676503D01*
X86188877Y-82672501D01*
X86252784Y-82677062D01*
G37*
G36*
X85574851Y-82692041D02*
G01*
X85574851Y-82800362D01*
X85544037Y-82758498D01*
X85513278Y-82728769D01*
X85482344Y-82709016D01*
X85429924Y-82690529D01*
X85371641Y-82684225D01*
X85290369Y-82692041D01*
X85290369Y-82807323D01*
X85335249Y-82800362D01*
X85375854Y-82797554D01*
X85431331Y-82803066D01*
X85471841Y-82817826D01*
X85504921Y-82842220D01*
X85530032Y-82875101D01*
X85547450Y-82914777D01*
X85559464Y-82965165D01*
X85565625Y-83019808D01*
X85567829Y-83083928D01*
X85567829Y-83415000D01*
X85696789Y-83415000D01*
X85696789Y-82692041D01*
X85574851Y-82692041D01*
G37*
G36*
X84936272Y-82675346D02*
G01*
X84983929Y-82684999D01*
X85027319Y-82700650D01*
X85086610Y-82735126D01*
X85136618Y-82781006D01*
X85176408Y-82836695D01*
X85205983Y-82902517D01*
X85223705Y-82974250D01*
X85229797Y-83053337D01*
X85223552Y-83142919D01*
X85206050Y-83217871D01*
X85178558Y-83280671D01*
X85141503Y-83333300D01*
X85094109Y-83376417D01*
X85037223Y-83407761D01*
X84968903Y-83427506D01*
X84886452Y-83434539D01*
X84805061Y-83427596D01*
X84733984Y-83407662D01*
X84671335Y-83375310D01*
X84630636Y-83342399D01*
X84598305Y-83302695D01*
X84573756Y-83255312D01*
X84557091Y-83198845D01*
X84692829Y-83198845D01*
X84710071Y-83242517D01*
X84733250Y-83275770D01*
X84762377Y-83300450D01*
X84796897Y-83317859D01*
X84836540Y-83328662D01*
X84882422Y-83332445D01*
X84925835Y-83328001D01*
X84964549Y-83315043D01*
X84999543Y-83294272D01*
X85030556Y-83266378D01*
X85056064Y-83232391D01*
X85076168Y-83191273D01*
X85088684Y-83145878D01*
X85093021Y-83094553D01*
X84555686Y-83094553D01*
X84561498Y-82992058D01*
X84562074Y-82989040D01*
X84692829Y-82989040D01*
X85091616Y-82989040D01*
X85076608Y-82917951D01*
X85053824Y-82865197D01*
X85024450Y-82826802D01*
X84986195Y-82797787D01*
X84941573Y-82780228D01*
X84888712Y-82774106D01*
X84838655Y-82780121D01*
X84795376Y-82797578D01*
X84757248Y-82826802D01*
X84728122Y-82865231D01*
X84706222Y-82917958D01*
X84692829Y-82989040D01*
X84562074Y-82989040D01*
X84577585Y-82907796D01*
X84602358Y-82838797D01*
X84634882Y-82782533D01*
X84669054Y-82743754D01*
X84709813Y-82713467D01*
X84758118Y-82691159D01*
X84815437Y-82677035D01*
X84883644Y-82672013D01*
X84936272Y-82675346D01*
G37*
%LPC*%
D11*
X143040000Y-66500000D03*
X140500000Y-66500000D03*
X137960000Y-66500000D03*
D12*
X126614500Y-67000000D03*
X121614500Y-67000000D03*
D13*
X82000000Y-83000000D03*
X82000000Y-79500000D03*
X82000000Y-76000000D03*
X82000000Y-72500000D03*
D14*
X82000000Y-69000000D03*
D15*
X154000000Y-85500000D03*
D11*
X153580000Y-66500000D03*
X151040000Y-66500000D03*
X148500000Y-66500000D03*
D16*
X151000000Y-83000000D03*
D17*
X145500000Y-71250000D03*
D12*
X145500000Y-81410000D03*
D18*
X87750000Y-86400000D03*
D12*
X132500000Y-78000000D03*
X127500000Y-78000000D03*
X106520000Y-84000000D03*
X104020000Y-84000000D03*
X121200000Y-72500000D03*
X116200000Y-72500000D03*
X107540000Y-70500000D03*
X102540000Y-70500000D03*
X121000000Y-78000000D03*
X116000000Y-78000000D03*
D19*
X130730000Y-67920000D03*
D20*
X132000000Y-65850000D03*
X133270000Y-67920000D03*
D21*
X101000000Y-76300000D03*
X108620000Y-76300000D03*
D22*
X88000000Y-65500000D03*
X93000000Y-65500000D03*
X98000000Y-65500000D03*
D15*
X151000000Y-85500000D03*
D21*
X111500000Y-83000000D03*
X111500000Y-75380000D03*
X124000000Y-72380000D03*
X124000000Y-80000000D03*
D16*
X154000000Y-83000000D03*
D23*
X152500000Y-79500000D03*
D13*
X152500000Y-76000000D03*
X152500000Y-72500000D03*
D11*
X121040000Y-85893700D03*
X118500000Y-85893700D03*
X115960000Y-85893700D03*
D12*
X111500000Y-73000000D03*
X111500000Y-68000000D03*
D24*
X136850000Y-81660000D03*
D25*
X136850000Y-71500000D03*
D26*
X144600000Y-86000000D03*
X136400000Y-86000000D03*
D27*
X142500000Y-86000000D03*
D28*
X140500000Y-86000000D03*
X138500000Y-86000000D03*
D29*
X90500000Y-73500000D03*
X90500000Y-77500000D03*
X90500000Y-81500000D03*
X95500000Y-73500000D03*
X95500000Y-77500000D03*
X95500000Y-81500000D03*
D18*
X93000000Y-86400000D03*
D11*
X132540000Y-85893700D03*
X130000000Y-85893700D03*
X127460000Y-85893700D03*
D19*
X114959000Y-67920000D03*
D20*
X116229000Y-65850000D03*
X117499000Y-67920000D03*
D30*
X140500000Y-71500000D03*
D25*
X140500000Y-81660000D03*
%LPD*%
M02*
