G04 #@! TF.GenerationSoftware,KiCad,Pcbnew,10.0.5-71-g2cb2c974e9*
G04 #@! TF.CreationDate,2026-09-09T17:27:37-04:00*
G04 #@! TF.ProjectId,Fury-Taur,46757279-2d54-4617-9572-2e6b69636164,rev?*
G04 #@! TF.SameCoordinates,Original*
G04 #@! TF.FileFunction,Copper,L1,Top*
G04 #@! TF.FilePolarity,Positive*
%FSLAX46Y46*%
G04 Gerber Fmt 4.6, Leading zero omitted, Abs format (unit mm)*
G04 Created by KiCad (PCBNEW 10.0.5-71-g2cb2c974e9) date 2026-09-09 17:27:37*
%MOMM*%
%LPD*%
G01*
G04 APERTURE LIST*
G04 Aperture macros list*
%AMRoundRect*
0 Rectangle with rounded corners*
0 $1 Rounding radius*
0 $2 $3 $4 $5 $6 $7 $8 $9 X,Y pos of 4 corners*
0 Add a 4 corners polygon primitive as box body*
4,1,4,$2,$3,$4,$5,$6,$7,$8,$9,$2,$3,0*
0 Add four circle primitives for the rounded corners*
1,1,$1+$1,$2,$3*
1,1,$1+$1,$4,$5*
1,1,$1+$1,$6,$7*
1,1,$1+$1,$8,$9*
0 Add four rect primitives between the rounded corners*
20,1,$1+$1,$2,$3,$4,$5,0*
20,1,$1+$1,$4,$5,$6,$7,0*
20,1,$1+$1,$6,$7,$8,$9,0*
20,1,$1+$1,$8,$9,$2,$3,0*%
G04 Aperture macros list end*
G04 #@! TA.AperFunction,ComponentPad*
%ADD10C,1.440000*%
G04 #@! TD*
G04 #@! TA.AperFunction,ComponentPad*
%ADD11C,2.400000*%
G04 #@! TD*
G04 #@! TA.AperFunction,ComponentPad*
%ADD12RoundRect,0.250001X-0.949999X0.949999X-0.949999X-0.949999X0.949999X-0.949999X0.949999X0.949999X0*%
G04 #@! TD*
G04 #@! TA.AperFunction,ComponentPad*
%ADD13RoundRect,0.250000X-0.600000X-0.600000X0.600000X-0.600000X0.600000X0.600000X-0.600000X0.600000X0*%
G04 #@! TD*
G04 #@! TA.AperFunction,ComponentPad*
%ADD14RoundRect,0.250000X-0.550000X-0.550000X0.550000X-0.550000X0.550000X0.550000X-0.550000X0.550000X0*%
G04 #@! TD*
G04 #@! TA.AperFunction,ComponentPad*
%ADD15C,1.600000*%
G04 #@! TD*
G04 #@! TA.AperFunction,ComponentPad*
%ADD16O,3.000000X1.200000*%
G04 #@! TD*
G04 #@! TA.AperFunction,ComponentPad*
%ADD17R,1.000000X1.000000*%
G04 #@! TD*
G04 #@! TA.AperFunction,ComponentPad*
%ADD18R,1.100000X1.800000*%
G04 #@! TD*
G04 #@! TA.AperFunction,ComponentPad*
%ADD19RoundRect,0.275000X-0.275000X-0.625000X0.275000X-0.625000X0.275000X0.625000X-0.275000X0.625000X0*%
G04 #@! TD*
G04 #@! TA.AperFunction,ComponentPad*
%ADD20C,1.400000*%
G04 #@! TD*
G04 #@! TA.AperFunction,ComponentPad*
%ADD21C,1.450000*%
G04 #@! TD*
G04 #@! TA.AperFunction,ComponentPad*
%ADD22RoundRect,0.250001X0.949999X-0.949999X0.949999X0.949999X-0.949999X0.949999X-0.949999X-0.949999X0*%
G04 #@! TD*
G04 #@! TA.AperFunction,ComponentPad*
%ADD23RoundRect,0.249999X0.850001X-0.850001X0.850001X0.850001X-0.850001X0.850001X-0.850001X-0.850001X0*%
G04 #@! TD*
G04 #@! TA.AperFunction,ComponentPad*
%ADD24C,2.200000*%
G04 #@! TD*
G04 #@! TA.AperFunction,ComponentPad*
%ADD25O,2.200000X3.500000*%
G04 #@! TD*
G04 #@! TA.AperFunction,ComponentPad*
%ADD26R,1.500000X2.500000*%
G04 #@! TD*
G04 #@! TA.AperFunction,ComponentPad*
%ADD27O,1.500000X2.500000*%
G04 #@! TD*
G04 #@! TA.AperFunction,ComponentPad*
%ADD28O,1.200000X3.200000*%
G04 #@! TD*
G04 #@! TA.AperFunction,ComponentPad*
%ADD29RoundRect,0.249999X-0.850001X0.850001X-0.850001X-0.850001X0.850001X-0.850001X0.850001X0.850001X0*%
G04 #@! TD*
G04 #@! TA.AperFunction,Conductor*
%ADD30C,0.200000*%
G04 #@! TD*
G04 APERTURE END LIST*
D10*
X134880000Y-66000000D03*
X132340000Y-66000000D03*
X129800000Y-66000000D03*
D11*
X82000000Y-83000000D03*
X82000000Y-79500000D03*
X82000000Y-76000000D03*
X82000000Y-72500000D03*
D12*
X82000000Y-69000000D03*
D13*
X151000000Y-85500000D03*
D10*
X145680000Y-66000000D03*
X143140000Y-66000000D03*
X140600000Y-66000000D03*
D14*
X126500000Y-72380000D03*
D15*
X136660000Y-72380000D03*
D16*
X87750000Y-86400000D03*
D15*
X132500000Y-78000000D03*
X127500000Y-78000000D03*
D17*
X151500000Y-65301700D03*
D15*
X106520000Y-84000000D03*
X104520000Y-84000000D03*
X121200000Y-72500000D03*
X116200000Y-72500000D03*
X107540000Y-70500000D03*
X102540000Y-70500000D03*
D17*
X151500000Y-67301700D03*
D15*
X121000000Y-78000000D03*
X116000000Y-78000000D03*
D18*
X122500000Y-67900000D03*
D19*
X123770000Y-65830000D03*
X125040000Y-67900000D03*
D17*
X149500000Y-65301700D03*
D20*
X101000000Y-76300000D03*
X108620000Y-76300000D03*
D21*
X88000000Y-65500000D03*
X93000000Y-65500000D03*
X98000000Y-65500000D03*
D13*
X148000000Y-85500000D03*
D20*
X111500000Y-83000000D03*
X111500000Y-75380000D03*
X124000000Y-72380000D03*
X124000000Y-80000000D03*
D22*
X149500000Y-79500000D03*
D11*
X149500000Y-76000000D03*
X149500000Y-72500000D03*
D10*
X121040000Y-85893700D03*
X118500000Y-85893700D03*
X115960000Y-85893700D03*
D23*
X139850000Y-81580000D03*
D24*
X139850000Y-71420000D03*
D25*
X144600000Y-86000000D03*
X136400000Y-86000000D03*
D26*
X142500000Y-86000000D03*
D27*
X140500000Y-86000000D03*
X138500000Y-86000000D03*
D28*
X90500000Y-73500000D03*
X90500000Y-77500000D03*
X90500000Y-81500000D03*
X95500000Y-73500000D03*
X95500000Y-77500000D03*
X95500000Y-81500000D03*
D16*
X93000000Y-86400000D03*
D10*
X132540000Y-85893700D03*
X130000000Y-85893700D03*
X127460000Y-85893700D03*
D18*
X114959000Y-67900000D03*
D19*
X116229000Y-65830000D03*
X117499000Y-67900000D03*
D17*
X149500000Y-67301700D03*
D29*
X143500000Y-71420000D03*
D24*
X143500000Y-81580000D03*
D30*
X151500000Y-65301700D02*
X150698300Y-65301700D01*
X150698300Y-65602400D02*
X150698300Y-65301700D01*
X133375600Y-64964400D02*
X146562500Y-64964400D01*
X132340000Y-66000000D02*
X133375600Y-64964400D01*
X146562500Y-64964400D02*
X147701500Y-66103400D01*
X147701500Y-66103400D02*
X150197300Y-66103400D01*
X150197300Y-66103400D02*
X150698300Y-65602400D01*
X98000000Y-65500000D02*
X94500000Y-69000000D01*
X94500000Y-69000000D02*
X82000000Y-69000000D01*
X140500000Y-84448300D02*
X138948300Y-84448300D01*
X140500000Y-86000000D02*
X140500000Y-84448300D01*
X134500000Y-80000000D02*
X124000000Y-80000000D01*
X138948300Y-84448300D02*
X134500000Y-80000000D01*
X95500000Y-73500000D02*
X113633900Y-73500000D01*
X143140000Y-67180000D02*
X143140000Y-66000000D01*
X140300200Y-70019800D02*
X143140000Y-67180000D01*
X117114100Y-70019800D02*
X140300200Y-70019800D01*
X113633900Y-73500000D02*
X117114100Y-70019800D01*
X127460000Y-85893700D02*
X130000000Y-85893700D01*
X108413700Y-85893700D02*
X115960000Y-85893700D01*
X106520000Y-84000000D02*
X108413700Y-85893700D01*
X115960000Y-85893700D02*
X118500000Y-85893700D01*
X124000000Y-72380000D02*
X121320000Y-72380000D01*
X120461000Y-64558000D02*
X117499000Y-67520000D01*
X107540000Y-70500000D02*
X114519000Y-70500000D01*
X149500000Y-65301700D02*
X148698300Y-65301700D01*
X148698300Y-65301700D02*
X147954600Y-64558000D01*
X114519000Y-70500000D02*
X117499000Y-67520000D01*
X147954600Y-64558000D02*
X120461000Y-64558000D01*
X91598300Y-70500000D02*
X102540000Y-70500000D01*
X90500000Y-71598300D02*
X91598300Y-70500000D01*
X90500000Y-73500000D02*
X90500000Y-71598300D01*
X95500000Y-77500000D02*
X98628100Y-74371900D01*
X98628100Y-74371900D02*
X144371900Y-74371900D01*
X144371900Y-74371900D02*
X149500000Y-79500000D01*
X143500000Y-71420000D02*
X139850000Y-71420000D01*
X95500000Y-81500000D02*
X90500000Y-81500000D01*
G04 #@! TA.AperFunction,Conductor*
G36*
X102168260Y-69804396D02*
G01*
X102541836Y-70494430D01*
X102542761Y-70503337D01*
X102541836Y-70505570D01*
X102168260Y-71195603D01*
X102161308Y-71201247D01*
X102152766Y-71200511D01*
X100950347Y-70603226D01*
X100944462Y-70596477D01*
X100943852Y-70592748D01*
X100943852Y-70407251D01*
X100947279Y-70398978D01*
X100950343Y-70396775D01*
X102152767Y-69799487D01*
X102161700Y-69798876D01*
X102168260Y-69804396D01*
G37*
G04 #@! TD.AperFunction*
G04 #@! TA.AperFunction,Conductor*
G36*
X140434498Y-70487464D02*
G01*
X141940552Y-71316665D01*
X141946146Y-71323657D01*
X141946609Y-71326914D01*
X141946609Y-71513085D01*
X141943182Y-71521358D01*
X141940552Y-71523334D01*
X140434498Y-72352535D01*
X140425598Y-72353523D01*
X140418900Y-72348433D01*
X140300681Y-72156980D01*
X139849403Y-71426145D01*
X139847973Y-71417307D01*
X139849402Y-71413856D01*
X140418900Y-70491565D01*
X140426162Y-70486327D01*
X140434498Y-70487464D01*
G37*
G04 #@! TD.AperFunction*
G04 #@! TA.AperFunction,Conductor*
G36*
X133287097Y-64916434D02*
G01*
X133290242Y-64918677D01*
X133421322Y-65049757D01*
X133424749Y-65058030D01*
X133424111Y-65061840D01*
X133032648Y-66198404D01*
X133026714Y-66205110D01*
X133018251Y-66205809D01*
X132342915Y-66004964D01*
X132335962Y-65999321D01*
X132335037Y-65997089D01*
X132134190Y-65321746D01*
X132135117Y-65312841D01*
X132141592Y-65307352D01*
X133278159Y-64915888D01*
X133287097Y-64916434D01*
G37*
G04 #@! TD.AperFunction*
G04 #@! TA.AperFunction,Conductor*
G36*
X129665932Y-85268574D02*
G01*
X130001449Y-85888128D01*
X130002376Y-85897035D01*
X130001449Y-85899272D01*
X129665932Y-86518825D01*
X129658979Y-86524468D01*
X129650516Y-86523769D01*
X129348630Y-86376562D01*
X128570039Y-85996904D01*
X128564105Y-85990198D01*
X128563467Y-85986388D01*
X128563467Y-85801011D01*
X128566894Y-85792738D01*
X128570037Y-85790496D01*
X129650518Y-85263629D01*
X129659454Y-85263084D01*
X129665932Y-85268574D01*
G37*
G04 #@! TD.AperFunction*
G04 #@! TA.AperFunction,Conductor*
G36*
X107283631Y-83771918D02*
G01*
X107289151Y-83778478D01*
X107717046Y-85051062D01*
X107716434Y-85059996D01*
X107714229Y-85063064D01*
X107583064Y-85194229D01*
X107574791Y-85197656D01*
X107571062Y-85197046D01*
X106298478Y-84769151D01*
X106291729Y-84763266D01*
X106290993Y-84754725D01*
X106514763Y-84002637D01*
X106520406Y-83995687D01*
X106522630Y-83994765D01*
X107274725Y-83770993D01*
X107283631Y-83771918D01*
G37*
G04 #@! TD.AperFunction*
G04 #@! TA.AperFunction,Conductor*
G36*
X118165932Y-85268574D02*
G01*
X118501449Y-85888128D01*
X118502376Y-85897035D01*
X118501449Y-85899272D01*
X118165932Y-86518825D01*
X118158979Y-86524468D01*
X118150516Y-86523769D01*
X117848630Y-86376562D01*
X117070039Y-85996904D01*
X117064105Y-85990198D01*
X117063467Y-85986388D01*
X117063467Y-85801011D01*
X117066894Y-85792738D01*
X117070037Y-85790496D01*
X118150518Y-85263629D01*
X118159454Y-85263084D01*
X118165932Y-85268574D01*
G37*
G04 #@! TD.AperFunction*
G04 #@! TA.AperFunction,Conductor*
G36*
X83197610Y-68006733D02*
G01*
X84196083Y-68896510D01*
X84199980Y-68904573D01*
X84199999Y-68905245D01*
X84199999Y-69094754D01*
X84196572Y-69103027D01*
X84196083Y-69103489D01*
X83197610Y-69993266D01*
X83189154Y-69996212D01*
X83182303Y-69993492D01*
X82009672Y-69008961D01*
X82005539Y-69001016D01*
X82008234Y-68992477D01*
X82009672Y-68991039D01*
X82112658Y-68904573D01*
X83182304Y-68006506D01*
X83190842Y-68003812D01*
X83197610Y-68006733D01*
G37*
G04 #@! TD.AperFunction*
G04 #@! TA.AperFunction,Conductor*
G36*
X121215393Y-71705622D02*
G01*
X122780190Y-72277192D01*
X122786785Y-72283250D01*
X122787876Y-72288182D01*
X122787876Y-72473205D01*
X122784449Y-72481478D01*
X122781974Y-72483367D01*
X121779695Y-73055217D01*
X121770811Y-73056341D01*
X121765024Y-73052681D01*
X121189787Y-72383387D01*
X121186962Y-72375535D01*
X121188860Y-72277192D01*
X121199683Y-71716385D01*
X121203269Y-71708182D01*
X121211607Y-71704915D01*
X121215393Y-71705622D01*
G37*
G04 #@! TD.AperFunction*
G04 #@! TA.AperFunction,Conductor*
G36*
X117467540Y-67492965D02*
G01*
X117498984Y-67505141D01*
X117505461Y-67511324D01*
X117505742Y-67520086D01*
X117062682Y-68726433D01*
X117056613Y-68733017D01*
X117047665Y-68733382D01*
X117046560Y-68732910D01*
X116632555Y-68530476D01*
X116629421Y-68528238D01*
X116494935Y-68393752D01*
X116491508Y-68385479D01*
X116492417Y-68380957D01*
X116944599Y-67302676D01*
X116950958Y-67296374D01*
X116959611Y-67296292D01*
X117467540Y-67492965D01*
G37*
G04 #@! TD.AperFunction*
G04 #@! TA.AperFunction,Conductor*
G36*
X124340043Y-79387536D02*
G01*
X125390036Y-79896802D01*
X125395983Y-79903495D01*
X125396629Y-79907328D01*
X125396629Y-80092671D01*
X125393202Y-80100944D01*
X125390035Y-80103198D01*
X124340044Y-80612462D01*
X124331105Y-80612989D01*
X124324650Y-80607507D01*
X124049788Y-80100000D01*
X123998645Y-80005570D01*
X123997719Y-79996665D01*
X123998643Y-79994433D01*
X124324650Y-79392491D01*
X124331603Y-79386849D01*
X124340043Y-79387536D01*
G37*
G04 #@! TD.AperFunction*
G04 #@! TA.AperFunction,Conductor*
G36*
X143145568Y-65998548D02*
G01*
X143763943Y-66333427D01*
X143769586Y-66340380D01*
X143768659Y-66349287D01*
X143768242Y-66349997D01*
X143239999Y-67180001D01*
X143239997Y-67180005D01*
X143211601Y-67248560D01*
X143209065Y-67252356D01*
X143037588Y-67423833D01*
X143029315Y-67427260D01*
X143021042Y-67423833D01*
X142897573Y-67300364D01*
X142894146Y-67292091D01*
X142897573Y-67283818D01*
X142898962Y-67282631D01*
X143040000Y-67180000D01*
X142511756Y-66349995D01*
X142510206Y-66341177D01*
X142515346Y-66333844D01*
X142516037Y-66333438D01*
X143134429Y-65998549D01*
X143143335Y-65997623D01*
X143145568Y-65998548D01*
G37*
G04 #@! TD.AperFunction*
G04 #@! TA.AperFunction,Conductor*
G36*
X107927233Y-69799488D02*
G01*
X109129654Y-70396774D01*
X109135538Y-70403522D01*
X109136148Y-70407251D01*
X109136148Y-70592748D01*
X109132721Y-70601021D01*
X109129653Y-70603226D01*
X107927233Y-71200511D01*
X107918299Y-71201123D01*
X107911739Y-71195603D01*
X107591033Y-70603226D01*
X107538162Y-70505568D01*
X107537238Y-70496663D01*
X107538161Y-70494434D01*
X107911739Y-69804395D01*
X107918691Y-69798752D01*
X107927233Y-69799488D01*
G37*
G04 #@! TD.AperFunction*
G04 #@! TA.AperFunction,Conductor*
G36*
X116309481Y-85263629D02*
G01*
X117389961Y-85790495D01*
X117395895Y-85797201D01*
X117396533Y-85801011D01*
X117396533Y-85986388D01*
X117393106Y-85994661D01*
X117389961Y-85996904D01*
X116309483Y-86523769D01*
X116300545Y-86524315D01*
X116294067Y-86518825D01*
X115958549Y-85899270D01*
X115957623Y-85890365D01*
X115958550Y-85888128D01*
X116005728Y-85801011D01*
X116294068Y-85268572D01*
X116301020Y-85262931D01*
X116309481Y-85263629D01*
G37*
G04 #@! TD.AperFunction*
G04 #@! TA.AperFunction,Conductor*
G36*
X123675349Y-71772492D02*
G01*
X124001353Y-72374428D01*
X124002280Y-72383335D01*
X124001353Y-72385572D01*
X123675349Y-72987507D01*
X123668396Y-72993150D01*
X123659955Y-72992462D01*
X122609965Y-72483198D01*
X122604017Y-72476504D01*
X122603371Y-72472671D01*
X122603371Y-72287328D01*
X122606798Y-72279055D01*
X122609961Y-72276803D01*
X123659956Y-71767536D01*
X123668894Y-71767010D01*
X123675349Y-71772492D01*
G37*
G04 #@! TD.AperFunction*
G04 #@! TA.AperFunction,Conductor*
G36*
X151008292Y-64810133D02*
G01*
X151009512Y-64811193D01*
X151492702Y-65293419D01*
X151496137Y-65301688D01*
X151492718Y-65309965D01*
X151492702Y-65309981D01*
X151009512Y-65792206D01*
X151001235Y-65795625D01*
X150992966Y-65792190D01*
X150991912Y-65790977D01*
X150700659Y-65404827D01*
X150698300Y-65397782D01*
X150698300Y-65205617D01*
X150700659Y-65198572D01*
X150991908Y-64812427D01*
X150999624Y-64807887D01*
X151008292Y-64810133D01*
G37*
G04 #@! TD.AperFunction*
G04 #@! TA.AperFunction,Conductor*
G36*
X97997103Y-65495017D02*
G01*
X98004055Y-65500661D01*
X98004982Y-65502897D01*
X98207258Y-66183030D01*
X98206331Y-66191936D01*
X98199848Y-66197429D01*
X97054785Y-66591170D01*
X97045847Y-66590620D01*
X97042707Y-66588379D01*
X96911620Y-66457292D01*
X96908193Y-66449019D01*
X96908829Y-66445214D01*
X97302571Y-65300149D01*
X97308501Y-65293442D01*
X97316967Y-65292741D01*
X97997103Y-65495017D01*
G37*
G04 #@! TD.AperFunction*
G04 #@! TA.AperFunction,Conductor*
G36*
X94907554Y-80907542D02*
G01*
X95492706Y-81491720D01*
X95496140Y-81499990D01*
X95492720Y-81508266D01*
X95492706Y-81508280D01*
X94907554Y-82092457D01*
X94899278Y-82095877D01*
X94891798Y-82093165D01*
X94304210Y-81603508D01*
X94300048Y-81595579D01*
X94300000Y-81594520D01*
X94300000Y-81405479D01*
X94303427Y-81397206D01*
X94304201Y-81396498D01*
X94891799Y-80906833D01*
X94900347Y-80904170D01*
X94907554Y-80907542D01*
G37*
G04 #@! TD.AperFunction*
G04 #@! TA.AperFunction,Conductor*
G36*
X118270540Y-66611865D02*
G01*
X118274024Y-66614267D01*
X118404828Y-66745071D01*
X118408255Y-66753344D01*
X118407556Y-66757326D01*
X118053254Y-67736065D01*
X118047216Y-67742678D01*
X118038271Y-67743084D01*
X118037554Y-67742798D01*
X117512056Y-67512357D01*
X117506388Y-67507065D01*
X117247286Y-67011670D01*
X117246490Y-67002752D01*
X117252233Y-66995881D01*
X117253486Y-66995317D01*
X118261590Y-66611605D01*
X118270540Y-66611865D01*
G37*
G04 #@! TD.AperFunction*
G04 #@! TA.AperFunction,Conductor*
G36*
X149008292Y-64810133D02*
G01*
X149009512Y-64811193D01*
X149492702Y-65293419D01*
X149496137Y-65301688D01*
X149492718Y-65309965D01*
X149492702Y-65309981D01*
X149009512Y-65792206D01*
X149001235Y-65795625D01*
X148992966Y-65792190D01*
X148991912Y-65790977D01*
X148832371Y-65579454D01*
X148698300Y-65401699D01*
X148698299Y-65401698D01*
X148629739Y-65373301D01*
X148625943Y-65370765D01*
X148565143Y-65309965D01*
X148495642Y-65240463D01*
X148492216Y-65232192D01*
X148495642Y-65223920D01*
X148618405Y-65101157D01*
X148626677Y-65097731D01*
X148634950Y-65101158D01*
X148636591Y-65103219D01*
X148698299Y-65201699D01*
X148698300Y-65201700D01*
X148991908Y-64812427D01*
X148999624Y-64807887D01*
X149008292Y-64810133D01*
G37*
G04 #@! TD.AperFunction*
G04 #@! TA.AperFunction,Conductor*
G36*
X91108200Y-80906833D02*
G01*
X91695790Y-81396492D01*
X91699952Y-81404420D01*
X91700000Y-81405479D01*
X91700000Y-81594520D01*
X91696573Y-81602793D01*
X91695790Y-81603508D01*
X91108201Y-82093165D01*
X91099652Y-82095829D01*
X91092445Y-82092457D01*
X90848572Y-81848990D01*
X90507292Y-81508278D01*
X90503859Y-81500010D01*
X90507278Y-81491735D01*
X91092445Y-80907541D01*
X91100721Y-80904122D01*
X91108200Y-80906833D01*
G37*
G04 #@! TD.AperFunction*
G04 #@! TA.AperFunction,Conductor*
G36*
X147743796Y-77597890D02*
G01*
X149704888Y-78296677D01*
X149711531Y-78302682D01*
X149712480Y-78309746D01*
X149502136Y-79492665D01*
X149497314Y-79500211D01*
X149492665Y-79502136D01*
X148309746Y-79712480D01*
X148301001Y-79710555D01*
X148296677Y-79704888D01*
X147597890Y-77743796D01*
X147598341Y-77734853D01*
X147600635Y-77731599D01*
X147731597Y-77600637D01*
X147739869Y-77597211D01*
X147743796Y-77597890D01*
G37*
G04 #@! TD.AperFunction*
G04 #@! TA.AperFunction,Conductor*
G36*
X115625932Y-85268574D02*
G01*
X115961449Y-85888128D01*
X115962376Y-85897035D01*
X115961449Y-85899272D01*
X115625932Y-86518825D01*
X115618979Y-86524468D01*
X115610516Y-86523769D01*
X115308630Y-86376562D01*
X114530039Y-85996904D01*
X114524105Y-85990198D01*
X114523467Y-85986388D01*
X114523467Y-85801011D01*
X114526894Y-85792738D01*
X114530037Y-85790496D01*
X115610518Y-85263629D01*
X115619454Y-85263084D01*
X115625932Y-85268574D01*
G37*
G04 #@! TD.AperFunction*
G04 #@! TA.AperFunction,Conductor*
G36*
X90644862Y-71328562D02*
G01*
X90768577Y-71452277D01*
X90772004Y-71460550D01*
X90768577Y-71468823D01*
X90767426Y-71469832D01*
X90599999Y-71598299D01*
X90972572Y-72129836D01*
X90974514Y-72138578D01*
X90974040Y-72140401D01*
X90511049Y-73469286D01*
X90505091Y-73475971D01*
X90496151Y-73476486D01*
X90489466Y-73470528D01*
X90488951Y-73469286D01*
X90025959Y-72140401D01*
X90026474Y-72131461D01*
X90027427Y-72129836D01*
X90400000Y-71598300D01*
X90428399Y-71529737D01*
X90430931Y-71525946D01*
X90628316Y-71328562D01*
X90636589Y-71325135D01*
X90644862Y-71328562D01*
G37*
G04 #@! TD.AperFunction*
G04 #@! TA.AperFunction,Conductor*
G36*
X140602792Y-84451727D02*
G01*
X140603508Y-84452511D01*
X141074466Y-85017853D01*
X141077129Y-85026403D01*
X141075538Y-85031314D01*
X140510061Y-85984048D01*
X140502892Y-85989413D01*
X140494028Y-85988137D01*
X140489939Y-85984048D01*
X139924461Y-85031314D01*
X139923185Y-85022450D01*
X139925532Y-85017854D01*
X140396492Y-84452510D01*
X140404420Y-84448348D01*
X140405481Y-84448300D01*
X140594519Y-84448300D01*
X140602792Y-84451727D01*
G37*
G04 #@! TD.AperFunction*
G04 #@! TA.AperFunction,Conductor*
G36*
X122613106Y-65163523D02*
G01*
X122628104Y-65167927D01*
X122686855Y-65205672D01*
X122688042Y-65207041D01*
X122715518Y-65261902D01*
X122717163Y-65269460D01*
X122720000Y-65295831D01*
X122720000Y-65580000D01*
X124820000Y-65580000D01*
X124820000Y-65300329D01*
X124825023Y-65265393D01*
X124829286Y-65250877D01*
X124829427Y-65250394D01*
X124867172Y-65191644D01*
X124868541Y-65190457D01*
X124923420Y-65162977D01*
X124930979Y-65161333D01*
X124957332Y-65158500D01*
X128642189Y-65158500D01*
X128677121Y-65163522D01*
X128684699Y-65165746D01*
X128689546Y-65167170D01*
X128748325Y-65204943D01*
X128777351Y-65268498D01*
X128769511Y-65332782D01*
X128765337Y-65343066D01*
X128758707Y-65356193D01*
X128758779Y-65356230D01*
X128756565Y-65360574D01*
X128756565Y-65360575D01*
X128733372Y-65406093D01*
X128669382Y-65531680D01*
X128610039Y-65714318D01*
X128580000Y-65903978D01*
X128580000Y-66096020D01*
X128609352Y-66281340D01*
X128610040Y-66285684D01*
X128669383Y-66468321D01*
X128750958Y-66628419D01*
X128756560Y-66639413D01*
X128756561Y-66639415D01*
X128773678Y-66662976D01*
X128777798Y-66668646D01*
X129263502Y-66182941D01*
X129324823Y-66149458D01*
X129394514Y-66154442D01*
X129450448Y-66196313D01*
X129458568Y-66208624D01*
X129479917Y-66245602D01*
X129479919Y-66245604D01*
X129479920Y-66245606D01*
X129554394Y-66320080D01*
X129554395Y-66320081D01*
X129554397Y-66320082D01*
X129591373Y-66341430D01*
X129639588Y-66391996D01*
X129652812Y-66460603D01*
X129626844Y-66525468D01*
X129617054Y-66536498D01*
X129131351Y-67022199D01*
X129131351Y-67022200D01*
X129131355Y-67022204D01*
X129160576Y-67043434D01*
X129331671Y-67130613D01*
X129331675Y-67130614D01*
X129331678Y-67130616D01*
X129514315Y-67189959D01*
X129703985Y-67220000D01*
X129896014Y-67220000D01*
X129896015Y-67220000D01*
X130085684Y-67189959D01*
X130268321Y-67130616D01*
X130439419Y-67043436D01*
X130468646Y-67022201D01*
X130468646Y-67022200D01*
X130234869Y-66788423D01*
X129982945Y-66536498D01*
X129949460Y-66475175D01*
X129954444Y-66405483D01*
X129996316Y-66349550D01*
X130008618Y-66341434D01*
X130045606Y-66320080D01*
X130120080Y-66245606D01*
X130141430Y-66208625D01*
X130191994Y-66160411D01*
X130260601Y-66147186D01*
X130325466Y-66173153D01*
X130336497Y-66182943D01*
X130822200Y-66668646D01*
X130822201Y-66668646D01*
X130843436Y-66639419D01*
X130930616Y-66468319D01*
X130946296Y-66420061D01*
X130961867Y-66388393D01*
X130968252Y-66379055D01*
X131022340Y-66334826D01*
X131091754Y-66326861D01*
X131154451Y-66357685D01*
X131156751Y-66359796D01*
X131190823Y-66412821D01*
X131209219Y-66469438D01*
X131211126Y-66472843D01*
X131278604Y-66605275D01*
X131296135Y-66639681D01*
X131409055Y-66795102D01*
X131544898Y-66930945D01*
X131700319Y-67043865D01*
X131813119Y-67101340D01*
X131813135Y-67101348D01*
X131841080Y-67115587D01*
X131871493Y-67131083D01*
X131960757Y-67160086D01*
X132054199Y-67190447D01*
X132243945Y-67220500D01*
X132243946Y-67220500D01*
X132436054Y-67220500D01*
X132436055Y-67220500D01*
X132625801Y-67190447D01*
X132808509Y-67131082D01*
X132979681Y-67043865D01*
X133135102Y-66930945D01*
X133270945Y-66795102D01*
X133383865Y-66639681D01*
X133471082Y-66468509D01*
X133471144Y-66468319D01*
X133471322Y-66467774D01*
X133486560Y-66420874D01*
X133502124Y-66389212D01*
X133508515Y-66379866D01*
X133562598Y-66335638D01*
X133632012Y-66327670D01*
X133694707Y-66358488D01*
X133696987Y-66360581D01*
X133731085Y-66413629D01*
X133748913Y-66468501D01*
X133748914Y-66468504D01*
X133807722Y-66583919D01*
X133836133Y-66639679D01*
X133857179Y-66668646D01*
X133949055Y-66795102D01*
X134084898Y-66930945D01*
X134240319Y-67043865D01*
X134353119Y-67101340D01*
X134353135Y-67101348D01*
X134381080Y-67115587D01*
X134411493Y-67131083D01*
X134500757Y-67160086D01*
X134594199Y-67190447D01*
X134783945Y-67220500D01*
X134783946Y-67220500D01*
X134976054Y-67220500D01*
X134976055Y-67220500D01*
X135165801Y-67190447D01*
X135348509Y-67131082D01*
X135519681Y-67043865D01*
X135675102Y-66930945D01*
X135810945Y-66795102D01*
X135923865Y-66639681D01*
X136011082Y-66468509D01*
X136011334Y-66467735D01*
X136019520Y-66442539D01*
X136070447Y-66285801D01*
X136100500Y-66096055D01*
X136100500Y-65903945D01*
X136076117Y-65750000D01*
X136073258Y-65731953D01*
X136071890Y-65706317D01*
X136072908Y-65686131D01*
X136095941Y-65620172D01*
X136150976Y-65577134D01*
X136159745Y-65573652D01*
X136205504Y-65564900D01*
X139270789Y-65564900D01*
X139305721Y-65569921D01*
X139319040Y-65573832D01*
X139377818Y-65611606D01*
X139406844Y-65675161D01*
X139406845Y-65675169D01*
X139408400Y-65685988D01*
X139407448Y-65726952D01*
X139403747Y-65746275D01*
X139402993Y-65758807D01*
X139380000Y-65903983D01*
X139380000Y-66096020D01*
X139409352Y-66281340D01*
X139410040Y-66285684D01*
X139469383Y-66468321D01*
X139550958Y-66628419D01*
X139556560Y-66639413D01*
X139556561Y-66639415D01*
X139573678Y-66662976D01*
X139577798Y-66668646D01*
X140063502Y-66182941D01*
X140124823Y-66149458D01*
X140194514Y-66154442D01*
X140250448Y-66196313D01*
X140258568Y-66208624D01*
X140279917Y-66245602D01*
X140279919Y-66245604D01*
X140279920Y-66245606D01*
X140354394Y-66320080D01*
X140354395Y-66320081D01*
X140354397Y-66320082D01*
X140391373Y-66341430D01*
X140439588Y-66391996D01*
X140452812Y-66460603D01*
X140426844Y-66525468D01*
X140417054Y-66536498D01*
X139931351Y-67022199D01*
X139931351Y-67022200D01*
X139931355Y-67022204D01*
X139960576Y-67043434D01*
X140131671Y-67130613D01*
X140131675Y-67130614D01*
X140131678Y-67130616D01*
X140314315Y-67189959D01*
X140503985Y-67220000D01*
X140696014Y-67220000D01*
X140696015Y-67220000D01*
X140885684Y-67189959D01*
X141068321Y-67130616D01*
X141239419Y-67043436D01*
X141268646Y-67022201D01*
X141268646Y-67022200D01*
X141034869Y-66788423D01*
X140782945Y-66536498D01*
X140749460Y-66475175D01*
X140754444Y-66405483D01*
X140796316Y-66349550D01*
X140808618Y-66341434D01*
X140845606Y-66320080D01*
X140920080Y-66245606D01*
X140941430Y-66208625D01*
X140991994Y-66160411D01*
X141060601Y-66147186D01*
X141125466Y-66173153D01*
X141136497Y-66182943D01*
X141622200Y-66668646D01*
X141622201Y-66668646D01*
X141643436Y-66639419D01*
X141730616Y-66468319D01*
X141746296Y-66420061D01*
X141761867Y-66388393D01*
X141768252Y-66379055D01*
X141822340Y-66334826D01*
X141891754Y-66326861D01*
X141954451Y-66357685D01*
X141956751Y-66359796D01*
X141990823Y-66412821D01*
X142009217Y-66469434D01*
X142011125Y-66472841D01*
X142024790Y-66499659D01*
X142072144Y-66592597D01*
X142074676Y-66597872D01*
X142078018Y-66605275D01*
X142085300Y-66621409D01*
X142085301Y-66621411D01*
X142089761Y-66628419D01*
X142095632Y-66638696D01*
X142096126Y-66639665D01*
X142096130Y-66639673D01*
X142096135Y-66639681D01*
X142100296Y-66645408D01*
X142104580Y-66651702D01*
X142112949Y-66664853D01*
X142329042Y-67004390D01*
X142348430Y-67071516D01*
X142328449Y-67138468D01*
X142312112Y-67158649D01*
X140100391Y-69370373D01*
X140072140Y-69391522D01*
X140049052Y-69404130D01*
X139989622Y-69419300D01*
X125797592Y-69419300D01*
X125762657Y-69414277D01*
X125751803Y-69411090D01*
X125693025Y-69373316D01*
X125664000Y-69309760D01*
X125673933Y-69240626D01*
X125674697Y-69238953D01*
X125707496Y-69195708D01*
X125707541Y-69195670D01*
X125721572Y-69185416D01*
X125801576Y-69135147D01*
X125925147Y-69011576D01*
X126018122Y-68863606D01*
X126075841Y-68698657D01*
X126090500Y-68568552D01*
X126090500Y-67231448D01*
X126085719Y-67189015D01*
X126075842Y-67101348D01*
X126075840Y-67101341D01*
X126071788Y-67089760D01*
X126018122Y-66936394D01*
X125925147Y-66788424D01*
X125801576Y-66664853D01*
X125761095Y-66639417D01*
X125665433Y-66579309D01*
X125658825Y-66574039D01*
X125638951Y-66565807D01*
X125633717Y-66564918D01*
X125488658Y-66514159D01*
X125488656Y-66514158D01*
X125488652Y-66514157D01*
X125488629Y-66514154D01*
X125358564Y-66499500D01*
X125358558Y-66499500D01*
X125358552Y-66499500D01*
X124961830Y-66499500D01*
X124926889Y-66494475D01*
X124911890Y-66490070D01*
X124853144Y-66452327D01*
X124851957Y-66450958D01*
X124824477Y-66396083D01*
X124822832Y-66388521D01*
X124820000Y-66362168D01*
X124820000Y-66080000D01*
X124188002Y-66080000D01*
X124120963Y-66060315D01*
X124080615Y-66018000D01*
X124070077Y-65999748D01*
X124070073Y-65999743D01*
X124000256Y-65929926D01*
X124000251Y-65929922D01*
X123914747Y-65880557D01*
X123914746Y-65880556D01*
X123885579Y-65872741D01*
X123819370Y-65855000D01*
X123819367Y-65855000D01*
X123720633Y-65855000D01*
X123720630Y-65855000D01*
X123663405Y-65870333D01*
X123625253Y-65880556D01*
X123625252Y-65880557D01*
X123539748Y-65929922D01*
X123539743Y-65929926D01*
X123469926Y-65999743D01*
X123469922Y-65999748D01*
X123459385Y-66018000D01*
X123408818Y-66066216D01*
X123351998Y-66080000D01*
X122720000Y-66080000D01*
X122720000Y-66357670D01*
X122714975Y-66392614D01*
X122710570Y-66407612D01*
X122672827Y-66466355D01*
X122671458Y-66467542D01*
X122616597Y-66495018D01*
X122609039Y-66496663D01*
X122582668Y-66499500D01*
X121902123Y-66499500D01*
X121900192Y-66499659D01*
X121898545Y-66499885D01*
X121842516Y-66505908D01*
X121729287Y-66548140D01*
X121707666Y-66556204D01*
X121707665Y-66556205D01*
X121592456Y-66642450D01*
X121592450Y-66642456D01*
X121506205Y-66757665D01*
X121506203Y-66757668D01*
X121455908Y-66892516D01*
X121449500Y-66952125D01*
X121449500Y-68847876D01*
X121449659Y-68849806D01*
X121449885Y-68851454D01*
X121455907Y-68907482D01*
X121483690Y-68981971D01*
X121506202Y-69042328D01*
X121506206Y-69042335D01*
X121585786Y-69148639D01*
X121587973Y-69152181D01*
X121590333Y-69155006D01*
X121594033Y-69159683D01*
X121601333Y-69164193D01*
X121608974Y-69169913D01*
X121629592Y-69185348D01*
X121654544Y-69210300D01*
X121661323Y-69219355D01*
X121685743Y-69284818D01*
X121670893Y-69353092D01*
X121621500Y-69402493D01*
X121618514Y-69404124D01*
X121559073Y-69419300D01*
X118256592Y-69419300D01*
X118221657Y-69414277D01*
X118210803Y-69411090D01*
X118152025Y-69373316D01*
X118123000Y-69309760D01*
X118132933Y-69240626D01*
X118133697Y-69238953D01*
X118166496Y-69195708D01*
X118166541Y-69195670D01*
X118180572Y-69185416D01*
X118260576Y-69135147D01*
X118384147Y-69011576D01*
X118477122Y-68863606D01*
X118534841Y-68698657D01*
X118549500Y-68568552D01*
X118549500Y-67872060D01*
X118556904Y-67829853D01*
X118564599Y-67808596D01*
X118841716Y-67043075D01*
X118870628Y-66997606D01*
X120660812Y-65207423D01*
X120689062Y-65186275D01*
X120712154Y-65173667D01*
X120771579Y-65158500D01*
X122578170Y-65158500D01*
X122613106Y-65163523D01*
G37*
G04 #@! TD.AperFunction*
G04 #@! TA.AperFunction,Conductor*
G36*
X123676080Y-66593062D02*
G01*
X123720630Y-66605000D01*
X123819368Y-66605000D01*
X123819370Y-66605000D01*
X123863907Y-66593066D01*
X123933754Y-66594727D01*
X123991618Y-66633889D01*
X124019123Y-66698117D01*
X124020000Y-66712840D01*
X124020000Y-67024543D01*
X124018248Y-67045312D01*
X124016168Y-67057557D01*
X124014794Y-67065643D01*
X124009589Y-67085821D01*
X124007706Y-67091204D01*
X124004157Y-67101346D01*
X124004157Y-67101348D01*
X123989500Y-67231434D01*
X123989500Y-68568564D01*
X124004154Y-68698629D01*
X124004157Y-68698652D01*
X124004158Y-68698656D01*
X124004159Y-68698658D01*
X124056376Y-68847883D01*
X124061878Y-68863606D01*
X124154853Y-69011576D01*
X124278424Y-69135147D01*
X124351115Y-69180821D01*
X124378023Y-69203661D01*
X124385517Y-69212134D01*
X124415186Y-69275392D01*
X124405946Y-69344648D01*
X124360791Y-69397873D01*
X124359259Y-69398881D01*
X124309757Y-69417881D01*
X124309707Y-69417889D01*
X124291056Y-69419300D01*
X123448275Y-69419300D01*
X123413340Y-69414277D01*
X123402486Y-69411090D01*
X123343708Y-69373316D01*
X123314683Y-69309760D01*
X123324626Y-69240603D01*
X123326042Y-69237504D01*
X123364521Y-69189754D01*
X123384369Y-69174896D01*
X123407546Y-69157546D01*
X123493796Y-69042331D01*
X123544091Y-68907483D01*
X123550500Y-68847873D01*
X123550499Y-66952128D01*
X123544091Y-66892517D01*
X123542133Y-66887270D01*
X123542133Y-66887259D01*
X123542131Y-66887260D01*
X123531695Y-66859279D01*
X123525847Y-66837961D01*
X123521970Y-66816470D01*
X123520000Y-66794456D01*
X123520000Y-66712840D01*
X123539685Y-66645801D01*
X123592489Y-66600046D01*
X123661647Y-66590102D01*
X123676080Y-66593062D01*
G37*
G04 #@! TD.AperFunction*
G04 #@! TA.AperFunction,Conductor*
G36*
X116135080Y-66593062D02*
G01*
X116179630Y-66605000D01*
X116278368Y-66605000D01*
X116278370Y-66605000D01*
X116322907Y-66593066D01*
X116392754Y-66594727D01*
X116450618Y-66633889D01*
X116478123Y-66698117D01*
X116479000Y-66712840D01*
X116479000Y-67024543D01*
X116477248Y-67045312D01*
X116475168Y-67057557D01*
X116473794Y-67065643D01*
X116471500Y-67070343D01*
X116468588Y-67085823D01*
X116466706Y-67091204D01*
X116463157Y-67101347D01*
X116463156Y-67101348D01*
X116458637Y-67141459D01*
X116449769Y-67175528D01*
X116247851Y-67657026D01*
X116203772Y-67711237D01*
X116137382Y-67733011D01*
X116069759Y-67715436D01*
X116022373Y-67664090D01*
X116009499Y-67609072D01*
X116009499Y-66952122D01*
X116009339Y-66950197D01*
X116009112Y-66948538D01*
X116003091Y-66892518D01*
X116003091Y-66892517D01*
X116001133Y-66887270D01*
X116001133Y-66887259D01*
X116001131Y-66887260D01*
X115990695Y-66859279D01*
X115984847Y-66837961D01*
X115980970Y-66816470D01*
X115979000Y-66794456D01*
X115979000Y-66712840D01*
X115998685Y-66645801D01*
X116051489Y-66600046D01*
X116120647Y-66590102D01*
X116135080Y-66593062D01*
G37*
G04 #@! TD.AperFunction*
G04 #@! TA.AperFunction,Conductor*
G36*
X152296492Y-63000693D02*
G01*
X152303470Y-63001086D01*
X152310349Y-63001666D01*
X152323878Y-63003190D01*
X152383379Y-63009893D01*
X152405167Y-63014866D01*
X152415785Y-63016615D01*
X152436585Y-63021924D01*
X152496969Y-63043052D01*
X152503860Y-63047293D01*
X152509816Y-63048373D01*
X152522290Y-63054381D01*
X152534440Y-63061097D01*
X152593711Y-63098339D01*
X152605048Y-63106383D01*
X152615874Y-63115017D01*
X152619546Y-63119204D01*
X152622413Y-63120614D01*
X152626235Y-63124277D01*
X152675715Y-63173757D01*
X152684980Y-63184124D01*
X152693616Y-63194953D01*
X152701663Y-63206294D01*
X152738896Y-63265549D01*
X152745627Y-63277729D01*
X152751632Y-63290201D01*
X152756949Y-63303039D01*
X152780060Y-63369085D01*
X152783911Y-63382450D01*
X152786992Y-63395950D01*
X152789320Y-63409657D01*
X152798035Y-63487011D01*
X152798036Y-63487011D01*
X152798329Y-63489609D01*
X152798915Y-63496547D01*
X152799305Y-63503485D01*
X152799500Y-63510444D01*
X152799500Y-87989554D01*
X152799304Y-87996517D01*
X152798913Y-88003469D01*
X152798329Y-88010389D01*
X152790106Y-88083374D01*
X152785131Y-88105168D01*
X152783383Y-88115787D01*
X152778072Y-88136596D01*
X152756949Y-88196960D01*
X152752711Y-88203844D01*
X152751632Y-88209797D01*
X152745627Y-88222269D01*
X152738896Y-88234449D01*
X152701663Y-88293704D01*
X152693616Y-88305045D01*
X152684980Y-88315874D01*
X152680788Y-88319550D01*
X152679377Y-88322420D01*
X152675715Y-88326241D01*
X152626241Y-88375715D01*
X152615874Y-88384980D01*
X152605045Y-88393616D01*
X152593704Y-88401663D01*
X152534449Y-88438896D01*
X152522269Y-88445627D01*
X152509797Y-88451632D01*
X152496959Y-88456949D01*
X152430913Y-88480060D01*
X152417557Y-88483909D01*
X152408348Y-88486011D01*
X152404053Y-88486991D01*
X152390341Y-88489321D01*
X152310389Y-88498329D01*
X152303470Y-88498913D01*
X152296519Y-88499304D01*
X152289555Y-88499500D01*
X79210445Y-88499500D01*
X79203482Y-88499304D01*
X79196530Y-88498913D01*
X79189610Y-88498329D01*
X79116619Y-88490105D01*
X79094847Y-88485135D01*
X79091362Y-88484561D01*
X79091361Y-88484561D01*
X79091359Y-88484561D01*
X79084214Y-88483385D01*
X79063407Y-88478073D01*
X79035463Y-88468295D01*
X79003038Y-88456949D01*
X78996153Y-88452711D01*
X78990201Y-88451632D01*
X78977729Y-88445627D01*
X78965549Y-88438896D01*
X78906294Y-88401663D01*
X78894953Y-88393616D01*
X78884124Y-88384980D01*
X78880448Y-88380789D01*
X78877580Y-88379379D01*
X78873757Y-88375715D01*
X78824283Y-88326241D01*
X78815018Y-88315874D01*
X78806382Y-88305045D01*
X78798335Y-88293704D01*
X78761099Y-88234444D01*
X78754376Y-88222280D01*
X78748371Y-88209810D01*
X78743052Y-88196970D01*
X78721278Y-88134743D01*
X78719932Y-88130895D01*
X78716085Y-88117539D01*
X78713010Y-88104068D01*
X78710680Y-88090355D01*
X78701669Y-88010372D01*
X78701084Y-88003434D01*
X78700695Y-87996498D01*
X78700500Y-87989554D01*
X78700500Y-86149998D01*
X85775883Y-86149998D01*
X85775884Y-86149999D01*
X85775885Y-86150000D01*
X86263631Y-86150000D01*
X86330670Y-86169685D01*
X86376425Y-86222489D01*
X86386369Y-86291647D01*
X86383406Y-86306092D01*
X86375000Y-86337463D01*
X86375000Y-86462536D01*
X86383406Y-86493908D01*
X86381743Y-86563758D01*
X86342579Y-86621620D01*
X86278351Y-86649123D01*
X86263631Y-86650000D01*
X85775885Y-86650000D01*
X85777084Y-86657582D01*
X85830592Y-86822259D01*
X85909197Y-86976527D01*
X86010961Y-87116596D01*
X86133402Y-87239037D01*
X86252266Y-87325395D01*
X86273475Y-87340804D01*
X86427742Y-87419408D01*
X86592415Y-87472914D01*
X86763429Y-87500000D01*
X87500000Y-87500000D01*
X87500000Y-86999000D01*
X87519685Y-86931961D01*
X87572489Y-86886206D01*
X87624000Y-86875000D01*
X87876000Y-86875000D01*
X87943039Y-86894685D01*
X87988794Y-86947489D01*
X88000000Y-86999000D01*
X88000000Y-87500000D01*
X88736570Y-87500000D01*
X88736571Y-87500000D01*
X88907584Y-87472914D01*
X89072257Y-87419408D01*
X89226524Y-87340804D01*
X89305170Y-87283664D01*
X89366596Y-87239037D01*
X89366598Y-87239034D01*
X89366602Y-87239032D01*
X89489032Y-87116602D01*
X89489034Y-87116598D01*
X89489037Y-87116596D01*
X89534179Y-87054462D01*
X89590804Y-86976524D01*
X89669408Y-86822255D01*
X89722914Y-86657584D01*
X89724115Y-86650000D01*
X89236369Y-86650000D01*
X89169330Y-86630315D01*
X89123575Y-86577511D01*
X89113631Y-86508353D01*
X89116594Y-86493908D01*
X89118825Y-86485579D01*
X89125000Y-86462535D01*
X89125000Y-86337465D01*
X89118867Y-86314575D01*
X89116594Y-86306092D01*
X89118257Y-86236242D01*
X89157421Y-86178380D01*
X89221649Y-86150877D01*
X89236369Y-86150000D01*
X89724115Y-86150000D01*
X89724115Y-86149998D01*
X91025883Y-86149998D01*
X91025884Y-86149999D01*
X91025885Y-86150000D01*
X91513631Y-86150000D01*
X91580670Y-86169685D01*
X91626425Y-86222489D01*
X91636369Y-86291647D01*
X91633406Y-86306092D01*
X91625000Y-86337463D01*
X91625000Y-86462536D01*
X91633406Y-86493908D01*
X91631743Y-86563758D01*
X91592579Y-86621620D01*
X91528351Y-86649123D01*
X91513631Y-86650000D01*
X91025885Y-86650000D01*
X91027084Y-86657582D01*
X91080592Y-86822259D01*
X91159197Y-86976527D01*
X91260961Y-87116596D01*
X91383402Y-87239037D01*
X91502266Y-87325395D01*
X91523475Y-87340804D01*
X91677742Y-87419408D01*
X91842415Y-87472914D01*
X92013429Y-87500000D01*
X92750000Y-87500000D01*
X92750000Y-86999000D01*
X92769685Y-86931961D01*
X92822489Y-86886206D01*
X92874000Y-86875000D01*
X93126000Y-86875000D01*
X93193039Y-86894685D01*
X93238794Y-86947489D01*
X93250000Y-86999000D01*
X93250000Y-87500000D01*
X93986570Y-87500000D01*
X93986571Y-87500000D01*
X94157584Y-87472914D01*
X94322257Y-87419408D01*
X94476524Y-87340804D01*
X94555170Y-87283664D01*
X94616596Y-87239037D01*
X94616598Y-87239034D01*
X94616602Y-87239032D01*
X94739032Y-87116602D01*
X94739034Y-87116598D01*
X94739037Y-87116596D01*
X94784179Y-87054462D01*
X94840804Y-86976524D01*
X94919408Y-86822255D01*
X94972914Y-86657584D01*
X94974115Y-86650000D01*
X94486369Y-86650000D01*
X94419330Y-86630315D01*
X94373575Y-86577511D01*
X94363631Y-86508353D01*
X94366594Y-86493908D01*
X94368825Y-86485579D01*
X94375000Y-86462535D01*
X94375000Y-86337465D01*
X94368867Y-86314575D01*
X94366594Y-86306092D01*
X94368257Y-86236242D01*
X94407421Y-86178380D01*
X94471649Y-86150877D01*
X94486369Y-86150000D01*
X94974115Y-86150000D01*
X94974115Y-86149998D01*
X94972914Y-86142416D01*
X94923312Y-85989759D01*
X94919408Y-85977744D01*
X94919406Y-85977741D01*
X94919406Y-85977739D01*
X94886824Y-85913794D01*
X94840804Y-85823475D01*
X94822033Y-85797639D01*
X94739037Y-85683402D01*
X94616596Y-85560961D01*
X94476527Y-85459197D01*
X94476526Y-85459196D01*
X94476524Y-85459195D01*
X94322257Y-85380591D01*
X94257393Y-85359515D01*
X94157584Y-85327084D01*
X93986575Y-85300000D01*
X93986571Y-85300000D01*
X93250000Y-85300000D01*
X93250000Y-85801000D01*
X93230315Y-85868039D01*
X93177511Y-85913794D01*
X93126000Y-85925000D01*
X92874000Y-85925000D01*
X92806961Y-85905315D01*
X92761206Y-85852511D01*
X92750000Y-85801000D01*
X92750000Y-85300000D01*
X92013429Y-85300000D01*
X92013425Y-85300000D01*
X91842416Y-85327084D01*
X91842410Y-85327086D01*
X91734090Y-85362282D01*
X91677742Y-85380591D01*
X91590207Y-85425193D01*
X91523471Y-85459197D01*
X91383402Y-85560961D01*
X91260961Y-85683402D01*
X91159197Y-85823471D01*
X91080592Y-85977739D01*
X91027084Y-86142417D01*
X91025883Y-86149998D01*
X89724115Y-86149998D01*
X89722914Y-86142416D01*
X89673312Y-85989759D01*
X89669408Y-85977744D01*
X89669406Y-85977741D01*
X89669406Y-85977739D01*
X89636824Y-85913794D01*
X89590804Y-85823475D01*
X89572033Y-85797639D01*
X89489037Y-85683402D01*
X89366596Y-85560961D01*
X89226527Y-85459197D01*
X89226526Y-85459196D01*
X89226524Y-85459195D01*
X89072257Y-85380591D01*
X89007393Y-85359515D01*
X88907584Y-85327084D01*
X88736575Y-85300000D01*
X88736571Y-85300000D01*
X88000000Y-85300000D01*
X88000000Y-85801000D01*
X87980315Y-85868039D01*
X87927511Y-85913794D01*
X87876000Y-85925000D01*
X87624000Y-85925000D01*
X87556961Y-85905315D01*
X87511206Y-85852511D01*
X87500000Y-85801000D01*
X87500000Y-85300000D01*
X86763429Y-85300000D01*
X86763425Y-85300000D01*
X86592416Y-85327084D01*
X86592410Y-85327086D01*
X86484090Y-85362282D01*
X86427742Y-85380591D01*
X86340207Y-85425193D01*
X86273471Y-85459197D01*
X86133402Y-85560961D01*
X86010961Y-85683402D01*
X85909197Y-85823471D01*
X85830592Y-85977739D01*
X85777084Y-86142417D01*
X85775883Y-86149998D01*
X78700500Y-86149998D01*
X78700500Y-65010444D01*
X78700695Y-65003492D01*
X78701086Y-64996529D01*
X78701671Y-64989599D01*
X78709893Y-64916620D01*
X78714862Y-64894849D01*
X78715435Y-64891365D01*
X78715437Y-64891362D01*
X78715436Y-64891358D01*
X78716614Y-64884213D01*
X78721925Y-64863407D01*
X78743055Y-64803022D01*
X78747292Y-64796138D01*
X78748372Y-64790186D01*
X78754376Y-64777716D01*
X78761086Y-64765574D01*
X78798353Y-64706265D01*
X78806374Y-64694961D01*
X78815016Y-64684124D01*
X78819201Y-64680454D01*
X78820612Y-64677587D01*
X78824251Y-64673789D01*
X78873774Y-64624266D01*
X78884114Y-64615024D01*
X78894961Y-64606374D01*
X78906265Y-64598353D01*
X78965574Y-64561086D01*
X78977716Y-64554376D01*
X78990198Y-64548366D01*
X79003014Y-64543058D01*
X79069098Y-64519933D01*
X79082447Y-64516087D01*
X79095955Y-64513004D01*
X79109631Y-64510681D01*
X79183758Y-64502330D01*
X79189644Y-64501666D01*
X79196549Y-64501085D01*
X79203503Y-64500695D01*
X79210446Y-64500500D01*
X86950883Y-64500500D01*
X86985814Y-64505522D01*
X86996802Y-64508748D01*
X87055581Y-64546520D01*
X87084608Y-64610075D01*
X87074841Y-64678852D01*
X87067548Y-64694967D01*
X87054896Y-64716726D01*
X86952290Y-64857952D01*
X86933490Y-64894849D01*
X86878133Y-65003492D01*
X86864744Y-65029768D01*
X86864736Y-65029792D01*
X86805164Y-65213138D01*
X86805164Y-65213142D01*
X86802338Y-65230989D01*
X86799327Y-65250000D01*
X87491277Y-65250000D01*
X87558316Y-65269685D01*
X87604071Y-65322489D01*
X87614015Y-65391647D01*
X87611052Y-65406088D01*
X87600000Y-65447339D01*
X87600000Y-65552661D01*
X87609248Y-65587177D01*
X87611052Y-65593907D01*
X87609389Y-65663757D01*
X87570226Y-65721619D01*
X87505998Y-65749123D01*
X87491277Y-65750000D01*
X86799327Y-65750000D01*
X86803637Y-65777213D01*
X86803638Y-65777221D01*
X86805164Y-65786861D01*
X86864736Y-65970206D01*
X86864744Y-65970230D01*
X86864745Y-65970233D01*
X86864746Y-65970234D01*
X86864747Y-65970237D01*
X86928856Y-66096055D01*
X86952290Y-66142046D01*
X86991717Y-66196313D01*
X87065616Y-66298027D01*
X87065620Y-66298032D01*
X87065625Y-66298038D01*
X87201960Y-66434373D01*
X87201964Y-66434376D01*
X87201967Y-66434379D01*
X87201972Y-66434383D01*
X87357956Y-66547711D01*
X87529762Y-66635252D01*
X87529765Y-66635253D01*
X87529767Y-66635253D01*
X87529768Y-66635254D01*
X87529776Y-66635257D01*
X87604529Y-66659545D01*
X87713142Y-66694835D01*
X87750000Y-66700673D01*
X87750000Y-66700672D01*
X87750000Y-66008722D01*
X87769685Y-65941683D01*
X87822489Y-65895928D01*
X87891647Y-65885984D01*
X87906082Y-65888945D01*
X87947339Y-65900000D01*
X88052659Y-65900000D01*
X88052661Y-65900000D01*
X88093907Y-65888948D01*
X88163755Y-65890609D01*
X88221618Y-65929771D01*
X88249123Y-65993999D01*
X88250000Y-66008722D01*
X88250000Y-66700671D01*
X88250000Y-66700672D01*
X88277215Y-66696361D01*
X88277221Y-66696361D01*
X88286855Y-66694835D01*
X88286858Y-66694835D01*
X88346498Y-66675457D01*
X88470223Y-66635257D01*
X88470227Y-66635255D01*
X88470234Y-66635253D01*
X88470237Y-66635252D01*
X88642043Y-66547711D01*
X88798027Y-66434383D01*
X88798032Y-66434379D01*
X88934379Y-66298032D01*
X88934383Y-66298027D01*
X89047711Y-66142043D01*
X89135252Y-65970237D01*
X89135253Y-65970234D01*
X89194835Y-65786858D01*
X89194835Y-65786855D01*
X89200673Y-65750000D01*
X88508723Y-65750000D01*
X88441684Y-65730315D01*
X88395929Y-65677511D01*
X88385985Y-65608353D01*
X88388948Y-65593907D01*
X88400000Y-65552661D01*
X88400000Y-65447339D01*
X88388948Y-65406092D01*
X88390611Y-65336243D01*
X88429774Y-65278381D01*
X88494002Y-65250877D01*
X88508723Y-65250000D01*
X89200673Y-65250000D01*
X89200673Y-65249999D01*
X89196362Y-65222782D01*
X89196361Y-65222778D01*
X89194834Y-65213137D01*
X89135262Y-65029792D01*
X89135254Y-65029768D01*
X89135253Y-65029767D01*
X89135253Y-65029765D01*
X89135252Y-65029762D01*
X89047711Y-64857956D01*
X88984864Y-64771453D01*
X88945210Y-64716873D01*
X88932383Y-64694722D01*
X88925033Y-64678330D01*
X88915570Y-64609107D01*
X88945035Y-64545754D01*
X89003664Y-64508507D01*
X89014377Y-64505402D01*
X89048896Y-64500500D01*
X91950225Y-64500500D01*
X91985154Y-64505521D01*
X91987289Y-64506147D01*
X91996154Y-64508751D01*
X92054933Y-64546522D01*
X92083961Y-64610076D01*
X92074208Y-64678822D01*
X92066883Y-64695020D01*
X92054219Y-64716810D01*
X92027331Y-64753820D01*
X92027329Y-64753822D01*
X91996353Y-64796457D01*
X91951859Y-64857697D01*
X91951857Y-64857699D01*
X91951855Y-64857704D01*
X91864287Y-65029565D01*
X91804674Y-65213033D01*
X91804673Y-65213034D01*
X91784080Y-65343066D01*
X91782129Y-65355382D01*
X91782003Y-65356180D01*
X91774500Y-65403547D01*
X91774500Y-65596448D01*
X91778643Y-65622606D01*
X91782668Y-65648019D01*
X91804657Y-65786858D01*
X91804675Y-65786968D01*
X91804682Y-65786998D01*
X91804830Y-65787446D01*
X91864286Y-65970433D01*
X91928277Y-66096020D01*
X91951859Y-66142302D01*
X92065241Y-66298359D01*
X92201641Y-66434759D01*
X92357698Y-66548141D01*
X92529571Y-66635715D01*
X92713028Y-66695324D01*
X92903551Y-66725500D01*
X92903552Y-66725500D01*
X93096448Y-66725500D01*
X93096449Y-66725500D01*
X93286972Y-66695324D01*
X93470429Y-66635715D01*
X93642302Y-66548141D01*
X93798359Y-66434759D01*
X93934759Y-66298359D01*
X94048141Y-66142302D01*
X94135715Y-65970429D01*
X94195324Y-65786972D01*
X94225500Y-65596449D01*
X94225500Y-65403551D01*
X94195324Y-65213028D01*
X94135715Y-65029571D01*
X94048141Y-64857698D01*
X93945895Y-64716968D01*
X93933040Y-64694754D01*
X93925657Y-64678261D01*
X93916233Y-64609030D01*
X93945734Y-64545694D01*
X94004349Y-64508490D01*
X94015055Y-64505390D01*
X94049536Y-64500500D01*
X96950225Y-64500500D01*
X96985154Y-64505521D01*
X96987289Y-64506147D01*
X96996154Y-64508751D01*
X97054933Y-64546522D01*
X97083961Y-64610076D01*
X97074208Y-64678822D01*
X97066883Y-64695020D01*
X97054219Y-64716810D01*
X97027331Y-64753820D01*
X97027329Y-64753822D01*
X96996353Y-64796457D01*
X96951859Y-64857697D01*
X96951857Y-64857699D01*
X96951855Y-64857704D01*
X96864285Y-65029567D01*
X96841887Y-65098500D01*
X96834289Y-65116774D01*
X96824543Y-65135772D01*
X96472021Y-66160961D01*
X96442441Y-66208320D01*
X94300191Y-68350573D01*
X94271940Y-68371722D01*
X94248852Y-68384330D01*
X94189422Y-68399500D01*
X84445398Y-68399500D01*
X84378359Y-68379815D01*
X84362901Y-68368075D01*
X84288977Y-68302199D01*
X83632706Y-67717371D01*
X83609665Y-67689893D01*
X83542723Y-67581364D01*
X83542721Y-67581362D01*
X83542713Y-67581348D01*
X83542710Y-67581344D01*
X83542707Y-67581341D01*
X83542705Y-67581338D01*
X83418660Y-67457293D01*
X83418657Y-67457291D01*
X83418655Y-67457289D01*
X83418651Y-67457286D01*
X83344882Y-67411784D01*
X83269343Y-67365190D01*
X83269337Y-67365187D01*
X83269335Y-67365186D01*
X83269332Y-67365185D01*
X83269330Y-67365184D01*
X83269327Y-67365183D01*
X83129155Y-67318735D01*
X83129154Y-67318734D01*
X83129154Y-67318735D01*
X83111262Y-67312806D01*
X83108437Y-67311638D01*
X83102796Y-67309999D01*
X83000024Y-67299500D01*
X83000015Y-67299500D01*
X83000008Y-67299500D01*
X80999992Y-67299500D01*
X80999984Y-67299500D01*
X80999974Y-67299500D01*
X80895495Y-67310174D01*
X80889915Y-67312415D01*
X80730667Y-67365184D01*
X80730655Y-67365190D01*
X80581354Y-67457282D01*
X80581341Y-67457291D01*
X80581338Y-67457293D01*
X80457293Y-67581338D01*
X80457291Y-67581341D01*
X80457282Y-67581354D01*
X80365190Y-67730655D01*
X80365184Y-67730667D01*
X80312415Y-67889915D01*
X80310174Y-67895495D01*
X80299500Y-67999974D01*
X80299500Y-70000024D01*
X80310174Y-70104502D01*
X80312415Y-70110083D01*
X80365184Y-70269331D01*
X80365190Y-70269343D01*
X80380820Y-70294682D01*
X80457286Y-70418651D01*
X80457289Y-70418655D01*
X80457291Y-70418657D01*
X80457293Y-70418660D01*
X80581338Y-70542705D01*
X80581341Y-70542707D01*
X80581344Y-70542710D01*
X80581348Y-70542713D01*
X80707135Y-70620300D01*
X80721615Y-70629232D01*
X80730662Y-70634812D01*
X80730664Y-70634813D01*
X80730666Y-70634814D01*
X80897203Y-70689999D01*
X80999992Y-70700500D01*
X80999997Y-70700500D01*
X81259535Y-70700500D01*
X81294462Y-70705521D01*
X81303094Y-70708055D01*
X81361875Y-70745825D01*
X81390904Y-70809379D01*
X81380965Y-70878538D01*
X81340698Y-70927609D01*
X81336545Y-70930604D01*
X81311466Y-70944590D01*
X81246288Y-70971586D01*
X81246279Y-70971591D01*
X81246256Y-70971603D01*
X81053237Y-71083044D01*
X81053212Y-71083061D01*
X81053210Y-71083062D01*
X80876395Y-71218736D01*
X80876379Y-71218749D01*
X80876375Y-71218753D01*
X80876361Y-71218765D01*
X80718765Y-71376361D01*
X80718758Y-71376369D01*
X80718749Y-71376379D01*
X80718736Y-71376395D01*
X80583062Y-71553210D01*
X80583061Y-71553212D01*
X80583044Y-71553237D01*
X80471595Y-71746272D01*
X80386297Y-71952199D01*
X80386288Y-71952222D01*
X80338229Y-72131590D01*
X80338228Y-72131592D01*
X80328601Y-72167516D01*
X80328593Y-72167550D01*
X80328592Y-72167556D01*
X80299503Y-72388516D01*
X80299500Y-72388541D01*
X80299500Y-72611457D01*
X80299503Y-72611482D01*
X80328593Y-72832447D01*
X80328597Y-72832467D01*
X80386288Y-73047776D01*
X80386290Y-73047780D01*
X80386293Y-73047790D01*
X80471512Y-73253527D01*
X80471595Y-73253726D01*
X80581212Y-73443589D01*
X80582233Y-73445486D01*
X80583067Y-73446873D01*
X80584571Y-73448754D01*
X80713540Y-73616832D01*
X80718751Y-73623622D01*
X80718757Y-73623629D01*
X80876370Y-73781242D01*
X80876377Y-73781248D01*
X80954587Y-73841260D01*
X81053226Y-73916948D01*
X81246274Y-74028405D01*
X81246277Y-74028406D01*
X81246282Y-74028409D01*
X81376139Y-74082197D01*
X81376140Y-74082197D01*
X81432448Y-74105521D01*
X81451074Y-74113236D01*
X81451086Y-74113241D01*
X81451085Y-74113241D01*
X81452209Y-74113706D01*
X81452219Y-74113710D01*
X81495670Y-74125352D01*
X81496633Y-74125610D01*
X81529071Y-74139500D01*
X81538729Y-74145386D01*
X81585731Y-74197083D01*
X81597322Y-74265984D01*
X81569871Y-74330155D01*
X81569481Y-74330628D01*
X81525302Y-74364546D01*
X81523256Y-74365480D01*
X81503858Y-74372452D01*
X81467986Y-74382064D01*
X81459820Y-74383139D01*
X81455494Y-74384932D01*
X81455486Y-74384934D01*
X81455487Y-74384935D01*
X81246272Y-74471594D01*
X81053237Y-74583044D01*
X81053212Y-74583061D01*
X81053210Y-74583062D01*
X80876395Y-74718736D01*
X80876379Y-74718749D01*
X80876369Y-74718758D01*
X80876361Y-74718765D01*
X80718765Y-74876361D01*
X80718758Y-74876369D01*
X80718749Y-74876379D01*
X80718736Y-74876395D01*
X80583062Y-75053210D01*
X80583061Y-75053212D01*
X80583044Y-75053237D01*
X80471595Y-75246272D01*
X80386297Y-75452199D01*
X80386288Y-75452222D01*
X80334457Y-75645667D01*
X80334456Y-75645669D01*
X80328601Y-75667517D01*
X80328593Y-75667550D01*
X80328592Y-75667556D01*
X80299503Y-75888516D01*
X80299500Y-75888541D01*
X80299500Y-76111457D01*
X80299503Y-76111482D01*
X80328593Y-76332450D01*
X80328596Y-76332462D01*
X80348504Y-76406760D01*
X80386289Y-76547779D01*
X80386291Y-76547786D01*
X80386293Y-76547790D01*
X80400098Y-76581118D01*
X80462397Y-76731521D01*
X80471593Y-76753722D01*
X80471600Y-76753736D01*
X80581212Y-76943589D01*
X80582233Y-76945486D01*
X80583067Y-76946873D01*
X80584571Y-76948754D01*
X80686869Y-77082073D01*
X80718751Y-77123622D01*
X80718757Y-77123629D01*
X80876370Y-77281242D01*
X80876377Y-77281248D01*
X80911089Y-77307883D01*
X81053226Y-77416948D01*
X81246274Y-77528405D01*
X81452219Y-77613710D01*
X81497603Y-77625870D01*
X81530044Y-77639762D01*
X81539704Y-77645650D01*
X81586701Y-77697352D01*
X81598286Y-77766255D01*
X81570780Y-77830482D01*
X81570754Y-77830514D01*
X81570364Y-77830986D01*
X81526296Y-77864791D01*
X81524247Y-77865727D01*
X81504819Y-77872712D01*
X81452392Y-77886760D01*
X81452385Y-77886762D01*
X81452379Y-77886764D01*
X81452372Y-77886767D01*
X81246496Y-77972045D01*
X81246493Y-77972046D01*
X81246471Y-77972058D01*
X81053508Y-78083463D01*
X80987595Y-78134040D01*
X80987595Y-78134043D01*
X81670645Y-78817092D01*
X81704130Y-78878415D01*
X81699146Y-78948106D01*
X81657274Y-79004040D01*
X81644967Y-79012159D01*
X81631592Y-79019881D01*
X81631589Y-79019883D01*
X81519883Y-79131589D01*
X81519881Y-79131592D01*
X81512159Y-79144967D01*
X81461590Y-79193181D01*
X81392983Y-79206402D01*
X81328119Y-79180433D01*
X81317092Y-79170645D01*
X80634043Y-78487595D01*
X80634040Y-78487595D01*
X80583463Y-78553508D01*
X80472058Y-78746471D01*
X80472056Y-78746475D01*
X80472054Y-78746479D01*
X80472045Y-78746497D01*
X80399162Y-78922449D01*
X80386764Y-78952379D01*
X80386761Y-78952387D01*
X80329091Y-79167616D01*
X80329088Y-79167632D01*
X80329083Y-79167654D01*
X80300000Y-79388574D01*
X80300000Y-79611424D01*
X80329083Y-79832344D01*
X80329086Y-79832357D01*
X80329091Y-79832382D01*
X80386761Y-80047611D01*
X80386763Y-80047618D01*
X80424064Y-80137669D01*
X80472047Y-80253508D01*
X80472052Y-80253517D01*
X80472054Y-80253520D01*
X80564349Y-80413383D01*
X80583466Y-80446494D01*
X80583478Y-80446511D01*
X80634039Y-80512402D01*
X80634040Y-80512403D01*
X80634043Y-80512403D01*
X81317094Y-79829351D01*
X81378415Y-79795868D01*
X81448106Y-79800852D01*
X81504040Y-79842723D01*
X81512157Y-79855031D01*
X81519881Y-79868408D01*
X81631592Y-79980119D01*
X81644964Y-79987839D01*
X81693179Y-80038407D01*
X81706401Y-80107014D01*
X81680433Y-80171879D01*
X81670644Y-80182907D01*
X80987595Y-80865954D01*
X80987595Y-80865957D01*
X81053505Y-80916532D01*
X81053507Y-80916533D01*
X81246485Y-81027949D01*
X81246497Y-81027954D01*
X81452381Y-81113236D01*
X81498565Y-81125611D01*
X81531005Y-81139502D01*
X81540664Y-81145389D01*
X81587664Y-81197088D01*
X81599251Y-81265990D01*
X81571748Y-81330219D01*
X81571701Y-81330276D01*
X81571310Y-81330749D01*
X81527260Y-81364533D01*
X81525211Y-81365469D01*
X81505780Y-81372455D01*
X81452396Y-81386758D01*
X81452383Y-81386762D01*
X81246490Y-81472047D01*
X81246471Y-81472058D01*
X81053508Y-81583463D01*
X80987595Y-81634040D01*
X80987595Y-81634043D01*
X81670645Y-82317092D01*
X81704130Y-82378415D01*
X81699146Y-82448106D01*
X81657274Y-82504040D01*
X81644967Y-82512159D01*
X81631592Y-82519881D01*
X81631589Y-82519883D01*
X81519883Y-82631589D01*
X81519881Y-82631592D01*
X81512159Y-82644967D01*
X81461590Y-82693181D01*
X81392983Y-82706402D01*
X81328119Y-82680433D01*
X81317092Y-82670645D01*
X80634043Y-81987595D01*
X80634040Y-81987595D01*
X80583463Y-82053508D01*
X80472058Y-82246471D01*
X80472047Y-82246490D01*
X80420557Y-82370796D01*
X80387607Y-82450345D01*
X80386764Y-82452379D01*
X80386761Y-82452387D01*
X80329091Y-82667616D01*
X80329086Y-82667641D01*
X80329083Y-82667654D01*
X80300000Y-82888574D01*
X80300000Y-83111424D01*
X80329083Y-83332344D01*
X80329086Y-83332357D01*
X80329091Y-83332382D01*
X80386761Y-83547611D01*
X80386763Y-83547618D01*
X80419752Y-83627259D01*
X80472047Y-83753508D01*
X80472050Y-83753513D01*
X80472054Y-83753520D01*
X80582197Y-83944297D01*
X80583466Y-83946494D01*
X80583478Y-83946511D01*
X80634039Y-84012402D01*
X80634040Y-84012403D01*
X80634043Y-84012403D01*
X81317094Y-83329351D01*
X81378415Y-83295868D01*
X81448106Y-83300852D01*
X81504040Y-83342723D01*
X81512157Y-83355031D01*
X81519881Y-83368408D01*
X81631592Y-83480119D01*
X81644964Y-83487839D01*
X81693179Y-83538407D01*
X81706401Y-83607014D01*
X81680433Y-83671879D01*
X81670644Y-83682907D01*
X80987595Y-84365954D01*
X80987595Y-84365957D01*
X81053505Y-84416532D01*
X81074546Y-84428680D01*
X81246485Y-84527949D01*
X81246497Y-84527954D01*
X81452381Y-84613236D01*
X81598557Y-84652403D01*
X81667616Y-84670907D01*
X81667620Y-84670907D01*
X81667632Y-84670911D01*
X81667645Y-84670914D01*
X81888575Y-84700000D01*
X82111418Y-84700000D01*
X82111425Y-84700000D01*
X82332354Y-84670914D01*
X82332367Y-84670911D01*
X82547618Y-84613236D01*
X82753502Y-84527954D01*
X82753514Y-84527949D01*
X82946498Y-84416530D01*
X83012403Y-84365957D01*
X83012404Y-84365956D01*
X83012403Y-84365955D01*
X83012404Y-84365955D01*
X82329354Y-83682907D01*
X82295869Y-83621584D01*
X82300853Y-83551893D01*
X82342724Y-83495959D01*
X82355022Y-83487846D01*
X82368408Y-83480119D01*
X82480119Y-83368408D01*
X82487839Y-83355035D01*
X82538405Y-83306821D01*
X82607012Y-83293597D01*
X82671877Y-83319565D01*
X82682907Y-83329355D01*
X83365956Y-84012404D01*
X83365957Y-84012403D01*
X83416530Y-83946497D01*
X83416534Y-83946492D01*
X83444718Y-83897676D01*
X103220000Y-83897676D01*
X103220000Y-84102322D01*
X103252008Y-84304411D01*
X103252009Y-84304417D01*
X103315244Y-84499031D01*
X103373434Y-84613234D01*
X103408144Y-84681357D01*
X103408147Y-84681360D01*
X103440517Y-84725914D01*
X103440521Y-84725919D01*
X103440523Y-84725921D01*
X103440524Y-84725922D01*
X103983503Y-84182942D01*
X104044824Y-84149459D01*
X104114515Y-84154443D01*
X104170449Y-84196314D01*
X104178567Y-84208622D01*
X104199920Y-84245606D01*
X104274394Y-84320080D01*
X104274395Y-84320081D01*
X104274397Y-84320082D01*
X104311373Y-84341430D01*
X104359588Y-84391996D01*
X104372812Y-84460603D01*
X104346844Y-84525468D01*
X104337054Y-84536498D01*
X103794075Y-85079473D01*
X103794076Y-85079473D01*
X103794076Y-85079474D01*
X103838650Y-85111859D01*
X103884628Y-85135286D01*
X104020963Y-85204753D01*
X104020965Y-85204753D01*
X104020968Y-85204755D01*
X104215582Y-85267990D01*
X104417683Y-85300000D01*
X104622316Y-85300000D01*
X104622317Y-85300000D01*
X104824417Y-85267990D01*
X105019031Y-85204755D01*
X105024572Y-85201932D01*
X105201347Y-85111860D01*
X105201346Y-85111860D01*
X105201349Y-85111859D01*
X105245921Y-85079474D01*
X104702945Y-84536498D01*
X104669460Y-84475175D01*
X104674444Y-84405483D01*
X104716316Y-84349550D01*
X104728618Y-84341434D01*
X104765606Y-84320080D01*
X104840080Y-84245606D01*
X104861430Y-84208625D01*
X104911995Y-84160411D01*
X104980602Y-84147187D01*
X105045467Y-84173154D01*
X105056498Y-84182945D01*
X105255436Y-84381883D01*
X105273482Y-84404773D01*
X105288396Y-84429110D01*
X105300599Y-84455580D01*
X105310255Y-84485296D01*
X105314717Y-84499029D01*
X105314778Y-84499215D01*
X105314781Y-84499224D01*
X105356277Y-84580661D01*
X105356277Y-84580663D01*
X105356278Y-84580663D01*
X105407537Y-84681265D01*
X105407715Y-84681614D01*
X105528026Y-84847211D01*
X105528027Y-84847212D01*
X105528028Y-84847213D01*
X105672786Y-84991971D01*
X105827748Y-85104555D01*
X105827749Y-85104557D01*
X105834626Y-85109552D01*
X105838390Y-85112287D01*
X105883528Y-85135286D01*
X105954607Y-85171503D01*
X106014327Y-85201932D01*
X106015930Y-85202870D01*
X106019629Y-85204662D01*
X106021636Y-85205659D01*
X106025401Y-85206721D01*
X106078697Y-85224038D01*
X106099430Y-85230774D01*
X106116952Y-85237991D01*
X106137361Y-85248286D01*
X106137366Y-85248288D01*
X106137372Y-85248291D01*
X107287452Y-85634995D01*
X107335612Y-85664847D01*
X107927785Y-86257020D01*
X107927806Y-86257042D01*
X107928849Y-86258085D01*
X107933179Y-86262415D01*
X107933180Y-86262416D01*
X108044984Y-86374220D01*
X108123121Y-86419331D01*
X108124730Y-86420260D01*
X108124756Y-86420280D01*
X108124759Y-86420277D01*
X108131795Y-86424339D01*
X108131797Y-86424341D01*
X108181913Y-86453276D01*
X108181915Y-86453277D01*
X108334642Y-86494200D01*
X108334643Y-86494200D01*
X114367914Y-86494200D01*
X114422262Y-86506745D01*
X115055109Y-86815335D01*
X115055113Y-86815338D01*
X115388960Y-86978130D01*
X115428656Y-86995423D01*
X115434130Y-86997225D01*
X115433843Y-86998096D01*
X115451788Y-87004552D01*
X115491493Y-87024783D01*
X115582845Y-87054464D01*
X115674199Y-87084147D01*
X115863945Y-87114200D01*
X115863946Y-87114200D01*
X116056054Y-87114200D01*
X116056055Y-87114200D01*
X116245801Y-87084147D01*
X116428509Y-87024782D01*
X116492476Y-86992187D01*
X116510822Y-86984624D01*
X116531039Y-86978129D01*
X117175653Y-86663799D01*
X117244536Y-86652110D01*
X117284346Y-86663799D01*
X117595110Y-86815335D01*
X117595114Y-86815338D01*
X117928960Y-86978130D01*
X117968656Y-86995423D01*
X117974130Y-86997225D01*
X117973843Y-86998096D01*
X117991788Y-87004552D01*
X118031493Y-87024783D01*
X118122845Y-87054464D01*
X118214199Y-87084147D01*
X118403945Y-87114200D01*
X118403946Y-87114200D01*
X118596054Y-87114200D01*
X118596055Y-87114200D01*
X118785801Y-87084147D01*
X118961919Y-87026923D01*
X118968506Y-87024783D01*
X118968506Y-87024782D01*
X118968509Y-87024782D01*
X119139681Y-86937565D01*
X119295102Y-86824645D01*
X119430945Y-86688802D01*
X119543865Y-86533381D01*
X119631082Y-86362209D01*
X119634791Y-86350794D01*
X119639123Y-86337463D01*
X119641998Y-86328612D01*
X119646560Y-86314571D01*
X119662124Y-86282912D01*
X119668515Y-86273566D01*
X119722598Y-86229338D01*
X119792012Y-86221370D01*
X119854707Y-86252188D01*
X119856987Y-86254281D01*
X119891085Y-86307330D01*
X119908911Y-86362197D01*
X119909699Y-86363926D01*
X119910863Y-86366027D01*
X119996135Y-86533381D01*
X120109055Y-86688802D01*
X120244898Y-86824645D01*
X120400319Y-86937565D01*
X120476780Y-86976524D01*
X120571493Y-87024783D01*
X120662845Y-87054464D01*
X120754199Y-87084147D01*
X120943945Y-87114200D01*
X120943946Y-87114200D01*
X121136054Y-87114200D01*
X121136055Y-87114200D01*
X121325801Y-87084147D01*
X121501919Y-87026923D01*
X121508506Y-87024783D01*
X121508506Y-87024782D01*
X121508509Y-87024782D01*
X121679681Y-86937565D01*
X121835102Y-86824645D01*
X121970945Y-86688802D01*
X122083865Y-86533381D01*
X122171082Y-86362209D01*
X122230447Y-86179501D01*
X122260500Y-85989755D01*
X122260500Y-85797645D01*
X122260499Y-85797639D01*
X126239500Y-85797639D01*
X126239500Y-85989759D01*
X126269553Y-86179505D01*
X126328914Y-86362202D01*
X126328914Y-86362203D01*
X126358025Y-86419334D01*
X126358025Y-86419336D01*
X126358026Y-86419336D01*
X126416135Y-86533381D01*
X126529055Y-86688802D01*
X126664898Y-86824645D01*
X126820319Y-86937565D01*
X126896780Y-86976524D01*
X126991493Y-87024783D01*
X127082845Y-87054464D01*
X127174199Y-87084147D01*
X127363945Y-87114200D01*
X127363946Y-87114200D01*
X127556054Y-87114200D01*
X127556055Y-87114200D01*
X127745801Y-87084147D01*
X127928509Y-87024782D01*
X127992476Y-86992187D01*
X128010822Y-86984624D01*
X128031039Y-86978129D01*
X128675653Y-86663799D01*
X128744536Y-86652110D01*
X128784346Y-86663799D01*
X129095110Y-86815335D01*
X129095114Y-86815338D01*
X129428960Y-86978130D01*
X129468656Y-86995423D01*
X129474130Y-86997225D01*
X129473843Y-86998096D01*
X129491788Y-87004552D01*
X129531493Y-87024783D01*
X129622845Y-87054464D01*
X129714199Y-87084147D01*
X129903945Y-87114200D01*
X129903946Y-87114200D01*
X130096054Y-87114200D01*
X130096055Y-87114200D01*
X130285801Y-87084147D01*
X130461919Y-87026923D01*
X130468506Y-87024783D01*
X130468506Y-87024782D01*
X130468509Y-87024782D01*
X130639681Y-86937565D01*
X130795102Y-86824645D01*
X130930945Y-86688802D01*
X131043865Y-86533381D01*
X131131082Y-86362209D01*
X131134791Y-86350794D01*
X131139123Y-86337463D01*
X131141998Y-86328612D01*
X131146560Y-86314571D01*
X131162124Y-86282912D01*
X131168515Y-86273566D01*
X131222598Y-86229338D01*
X131292012Y-86221370D01*
X131354707Y-86252188D01*
X131356987Y-86254281D01*
X131391085Y-86307330D01*
X131408911Y-86362197D01*
X131409699Y-86363926D01*
X131410863Y-86366027D01*
X131496135Y-86533381D01*
X131609055Y-86688802D01*
X131744898Y-86824645D01*
X131900319Y-86937565D01*
X131976780Y-86976524D01*
X132071493Y-87024783D01*
X132162845Y-87054464D01*
X132254199Y-87084147D01*
X132443945Y-87114200D01*
X132443946Y-87114200D01*
X132636054Y-87114200D01*
X132636055Y-87114200D01*
X132825801Y-87084147D01*
X133001919Y-87026923D01*
X133008506Y-87024783D01*
X133008506Y-87024782D01*
X133008509Y-87024782D01*
X133179681Y-86937565D01*
X133335102Y-86824645D01*
X133470945Y-86688802D01*
X133583865Y-86533381D01*
X133671082Y-86362209D01*
X133730447Y-86179501D01*
X133760500Y-85989755D01*
X133760500Y-85797645D01*
X133730447Y-85607899D01*
X133700424Y-85515497D01*
X133700424Y-85515496D01*
X133671085Y-85425198D01*
X133671078Y-85425182D01*
X133607550Y-85300502D01*
X133607547Y-85300499D01*
X133607293Y-85300000D01*
X133583865Y-85254019D01*
X133470945Y-85098598D01*
X133335102Y-84962755D01*
X133179681Y-84849835D01*
X133179680Y-84849834D01*
X133179678Y-84849833D01*
X133174535Y-84847212D01*
X133174535Y-84847213D01*
X133008505Y-84762615D01*
X133008500Y-84762613D01*
X132825804Y-84703253D01*
X132825805Y-84703253D01*
X132689153Y-84681610D01*
X132686975Y-84681265D01*
X132636055Y-84673200D01*
X132636054Y-84673200D01*
X132443946Y-84673200D01*
X132443945Y-84673200D01*
X132393025Y-84681265D01*
X132390847Y-84681610D01*
X132254193Y-84703253D01*
X132071498Y-84762613D01*
X132071482Y-84762620D01*
X131900325Y-84849830D01*
X131900319Y-84849833D01*
X131864466Y-84875882D01*
X131851708Y-84885153D01*
X131756769Y-84954130D01*
X131749388Y-84958263D01*
X131604563Y-85103088D01*
X131600430Y-85110469D01*
X131560560Y-85165345D01*
X131496131Y-85254022D01*
X131408920Y-85425182D01*
X131408914Y-85425195D01*
X131393440Y-85472823D01*
X131377868Y-85504495D01*
X131371483Y-85513833D01*
X131317395Y-85558062D01*
X131247981Y-85566027D01*
X131185283Y-85535202D01*
X131182984Y-85533091D01*
X131148913Y-85480069D01*
X131131083Y-85425193D01*
X131067548Y-85300500D01*
X131043865Y-85254019D01*
X130930945Y-85098598D01*
X130795102Y-84962755D01*
X130639681Y-84849835D01*
X130639680Y-84849834D01*
X130639678Y-84849833D01*
X130634535Y-84847212D01*
X130634535Y-84847213D01*
X130468505Y-84762615D01*
X130468500Y-84762613D01*
X130285804Y-84703253D01*
X130285805Y-84703253D01*
X130149153Y-84681610D01*
X130146975Y-84681265D01*
X130096055Y-84673200D01*
X130096054Y-84673200D01*
X129903946Y-84673200D01*
X129903945Y-84673200D01*
X129853025Y-84681265D01*
X129850847Y-84681610D01*
X129714193Y-84703253D01*
X129531498Y-84762613D01*
X129531486Y-84762618D01*
X129467533Y-84795204D01*
X129449177Y-84802773D01*
X129428961Y-84809269D01*
X129428954Y-84809272D01*
X128784347Y-85123596D01*
X128715462Y-85135286D01*
X128675651Y-85123596D01*
X128031048Y-84809273D01*
X127991286Y-84791953D01*
X127985825Y-84790156D01*
X127986096Y-84789331D01*
X127968178Y-84782830D01*
X127928506Y-84762615D01*
X127928500Y-84762613D01*
X127745804Y-84703253D01*
X127745805Y-84703253D01*
X127609153Y-84681610D01*
X127606975Y-84681265D01*
X127556055Y-84673200D01*
X127556054Y-84673200D01*
X127363946Y-84673200D01*
X127363945Y-84673200D01*
X127313025Y-84681265D01*
X127310847Y-84681610D01*
X127174193Y-84703253D01*
X126991498Y-84762613D01*
X126991482Y-84762620D01*
X126820325Y-84849830D01*
X126820319Y-84849833D01*
X126784466Y-84875882D01*
X126771708Y-84885153D01*
X126676769Y-84954130D01*
X126669388Y-84958263D01*
X126524563Y-85103088D01*
X126520430Y-85110469D01*
X126480560Y-85165345D01*
X126416131Y-85254022D01*
X126328920Y-85425182D01*
X126328913Y-85425198D01*
X126269553Y-85607893D01*
X126239500Y-85797639D01*
X122260499Y-85797639D01*
X122230447Y-85607899D01*
X122200424Y-85515497D01*
X122200424Y-85515496D01*
X122171085Y-85425198D01*
X122171078Y-85425182D01*
X122107550Y-85300502D01*
X122107547Y-85300499D01*
X122107293Y-85300000D01*
X122083865Y-85254019D01*
X121970945Y-85098598D01*
X121835102Y-84962755D01*
X121679681Y-84849835D01*
X121679680Y-84849834D01*
X121679678Y-84849833D01*
X121674535Y-84847212D01*
X121674535Y-84847213D01*
X121508505Y-84762615D01*
X121508500Y-84762613D01*
X121325804Y-84703253D01*
X121325805Y-84703253D01*
X121189153Y-84681610D01*
X121186975Y-84681265D01*
X121136055Y-84673200D01*
X121136054Y-84673200D01*
X120943946Y-84673200D01*
X120943945Y-84673200D01*
X120893025Y-84681265D01*
X120890847Y-84681610D01*
X120754193Y-84703253D01*
X120571498Y-84762613D01*
X120571482Y-84762620D01*
X120400325Y-84849830D01*
X120400319Y-84849833D01*
X120364466Y-84875882D01*
X120351708Y-84885153D01*
X120256769Y-84954130D01*
X120249388Y-84958263D01*
X120104563Y-85103088D01*
X120100430Y-85110469D01*
X120060560Y-85165345D01*
X119996131Y-85254022D01*
X119908920Y-85425182D01*
X119908914Y-85425195D01*
X119893440Y-85472823D01*
X119877868Y-85504495D01*
X119871483Y-85513833D01*
X119817395Y-85558062D01*
X119747981Y-85566027D01*
X119685283Y-85535202D01*
X119682984Y-85533091D01*
X119648913Y-85480069D01*
X119631083Y-85425193D01*
X119567548Y-85300500D01*
X119543865Y-85254019D01*
X119430945Y-85098598D01*
X119295102Y-84962755D01*
X119139681Y-84849835D01*
X119139680Y-84849834D01*
X119139678Y-84849833D01*
X119134535Y-84847212D01*
X119134535Y-84847213D01*
X118968505Y-84762615D01*
X118968500Y-84762613D01*
X118785804Y-84703253D01*
X118785805Y-84703253D01*
X118649153Y-84681610D01*
X118646975Y-84681265D01*
X118596055Y-84673200D01*
X118596054Y-84673200D01*
X118403946Y-84673200D01*
X118403945Y-84673200D01*
X118353025Y-84681265D01*
X118350847Y-84681610D01*
X118214193Y-84703253D01*
X118031498Y-84762613D01*
X118031486Y-84762618D01*
X117967533Y-84795204D01*
X117949177Y-84802773D01*
X117928961Y-84809269D01*
X117928954Y-84809272D01*
X117284347Y-85123596D01*
X117215462Y-85135286D01*
X117175651Y-85123596D01*
X116531048Y-84809273D01*
X116491286Y-84791953D01*
X116485825Y-84790156D01*
X116486096Y-84789331D01*
X116468178Y-84782830D01*
X116428506Y-84762615D01*
X116428500Y-84762613D01*
X116245804Y-84703253D01*
X116245805Y-84703253D01*
X116109153Y-84681610D01*
X116106975Y-84681265D01*
X116056055Y-84673200D01*
X116056054Y-84673200D01*
X115863946Y-84673200D01*
X115863945Y-84673200D01*
X115813025Y-84681265D01*
X115810847Y-84681610D01*
X115674193Y-84703253D01*
X115491498Y-84762613D01*
X115491486Y-84762618D01*
X115427533Y-84795204D01*
X115409177Y-84802773D01*
X115388961Y-84809269D01*
X115388954Y-84809272D01*
X114422260Y-85280655D01*
X114367912Y-85293200D01*
X108731627Y-85293200D01*
X108696691Y-85288177D01*
X108671449Y-85280765D01*
X108618704Y-85249469D01*
X108184847Y-84815612D01*
X108154994Y-84767451D01*
X108153368Y-84762616D01*
X107768291Y-83617372D01*
X107759721Y-83595220D01*
X107751964Y-83575168D01*
X107749364Y-83569959D01*
X107750038Y-83569622D01*
X107741906Y-83552138D01*
X107726715Y-83505382D01*
X107725657Y-83501632D01*
X107724662Y-83499629D01*
X107722870Y-83495930D01*
X107721932Y-83494327D01*
X107691503Y-83434607D01*
X107632287Y-83318390D01*
X107605208Y-83281118D01*
X107579417Y-83245619D01*
X107579414Y-83245616D01*
X107569225Y-83231591D01*
X107511971Y-83152786D01*
X107367217Y-83008032D01*
X107367211Y-83008028D01*
X107357491Y-83000966D01*
X107357451Y-83000936D01*
X107226102Y-82905507D01*
X110299500Y-82905507D01*
X110299500Y-83094491D01*
X110328447Y-83277252D01*
X110329059Y-83281118D01*
X110387454Y-83460836D01*
X110387455Y-83460837D01*
X110387456Y-83460842D01*
X110433975Y-83552138D01*
X110469360Y-83621584D01*
X110472240Y-83627235D01*
X110472245Y-83627259D01*
X110472251Y-83627257D01*
X110472252Y-83627259D01*
X110473240Y-83629199D01*
X110584310Y-83782073D01*
X110717927Y-83915690D01*
X110808000Y-83981132D01*
X110870802Y-84026761D01*
X110886383Y-84034699D01*
X110901360Y-84042330D01*
X110901362Y-84042332D01*
X110901363Y-84042332D01*
X111030111Y-84107933D01*
X111032714Y-84109259D01*
X111034314Y-84110195D01*
X111038011Y-84111986D01*
X111040024Y-84112987D01*
X111043790Y-84114049D01*
X111080169Y-84125869D01*
X111135495Y-84143845D01*
X111135496Y-84143846D01*
X111152901Y-84149501D01*
X111218881Y-84170940D01*
X111405514Y-84200500D01*
X111405519Y-84200500D01*
X111594485Y-84200500D01*
X111594486Y-84200500D01*
X111781118Y-84170940D01*
X111960832Y-84112547D01*
X112129199Y-84026760D01*
X112282073Y-83915690D01*
X112415690Y-83782073D01*
X112526760Y-83629199D01*
X112612547Y-83460832D01*
X112670940Y-83281118D01*
X112678784Y-83231591D01*
X112700500Y-83094486D01*
X112700500Y-82905513D01*
X112670940Y-82718881D01*
X112634220Y-82605869D01*
X112627962Y-82586609D01*
X112627962Y-82586608D01*
X112614047Y-82543784D01*
X112612987Y-82540025D01*
X112611997Y-82538034D01*
X112610193Y-82534310D01*
X112609260Y-82532716D01*
X112567290Y-82450347D01*
X112567289Y-82450345D01*
X112551106Y-82418583D01*
X112526760Y-82370801D01*
X112526758Y-82370798D01*
X112526757Y-82370796D01*
X112478043Y-82303748D01*
X112415690Y-82217927D01*
X112282073Y-82084310D01*
X112129199Y-81973240D01*
X111960836Y-81887454D01*
X111781118Y-81829059D01*
X111781112Y-81829058D01*
X111594491Y-81799500D01*
X111594486Y-81799500D01*
X111594481Y-81799500D01*
X111405519Y-81799500D01*
X111405514Y-81799500D01*
X111405509Y-81799500D01*
X111218886Y-81829058D01*
X111218884Y-81829058D01*
X111218881Y-81829059D01*
X111039163Y-81887454D01*
X111017616Y-81898433D01*
X110870800Y-81973239D01*
X110806290Y-82020110D01*
X110729798Y-82075685D01*
X110722417Y-82079818D01*
X110579817Y-82222418D01*
X110575685Y-82229797D01*
X110552507Y-82261699D01*
X110552507Y-82261700D01*
X110473239Y-82370800D01*
X110433850Y-82448106D01*
X110387454Y-82539163D01*
X110329059Y-82718881D01*
X110329059Y-82718883D01*
X110329058Y-82718886D01*
X110299500Y-82905507D01*
X107226102Y-82905507D01*
X107201612Y-82887714D01*
X107201611Y-82887713D01*
X107201609Y-82887712D01*
X107019223Y-82794781D01*
X106824534Y-82731522D01*
X106824532Y-82731521D01*
X106824530Y-82731521D01*
X106824529Y-82731520D01*
X106649995Y-82703878D01*
X106633409Y-82701251D01*
X106622354Y-82699500D01*
X106622352Y-82699500D01*
X106417648Y-82699500D01*
X106417647Y-82699500D01*
X106393327Y-82703351D01*
X106393326Y-82703350D01*
X106215468Y-82731521D01*
X106020777Y-82794780D01*
X106020764Y-82794786D01*
X105838397Y-82887708D01*
X105838385Y-82887715D01*
X105672787Y-83008027D01*
X105672784Y-83008029D01*
X105528030Y-83152783D01*
X105407714Y-83318386D01*
X105378037Y-83376632D01*
X105378036Y-83376631D01*
X105314805Y-83500731D01*
X105314780Y-83500781D01*
X105314779Y-83500783D01*
X105314778Y-83500786D01*
X105308577Y-83519871D01*
X105300600Y-83544418D01*
X105288398Y-83570884D01*
X105273485Y-83595220D01*
X105255438Y-83618112D01*
X105056497Y-83817053D01*
X104995174Y-83850538D01*
X104925482Y-83845554D01*
X104869549Y-83803682D01*
X104861430Y-83791374D01*
X104840080Y-83754394D01*
X104765606Y-83679920D01*
X104728625Y-83658569D01*
X104680410Y-83608003D01*
X104667186Y-83539396D01*
X104693154Y-83474531D01*
X104702936Y-83463509D01*
X105245922Y-82920524D01*
X105245921Y-82920523D01*
X105245920Y-82920522D01*
X105245919Y-82920521D01*
X105245914Y-82920517D01*
X105201360Y-82888147D01*
X105201357Y-82888144D01*
X105136198Y-82854944D01*
X105019031Y-82795244D01*
X104824417Y-82732009D01*
X104824411Y-82732008D01*
X104622322Y-82700000D01*
X104622317Y-82700000D01*
X104417683Y-82700000D01*
X104417678Y-82700000D01*
X104215587Y-82732008D01*
X104215585Y-82732008D01*
X104215582Y-82732009D01*
X104123616Y-82761891D01*
X104020963Y-82795245D01*
X103838640Y-82888145D01*
X103794077Y-82920522D01*
X103794077Y-82920523D01*
X103794077Y-82920524D01*
X104119172Y-83245619D01*
X104337055Y-83463501D01*
X104370540Y-83524824D01*
X104365556Y-83594515D01*
X104323685Y-83650449D01*
X104311374Y-83658569D01*
X104274397Y-83679917D01*
X104274392Y-83679921D01*
X104199921Y-83754392D01*
X104199915Y-83754400D01*
X104178568Y-83791374D01*
X104128001Y-83839589D01*
X104059393Y-83852811D01*
X103994529Y-83826843D01*
X103983501Y-83817054D01*
X103440524Y-83274077D01*
X103440523Y-83274077D01*
X103440522Y-83274077D01*
X103408145Y-83318640D01*
X103315245Y-83500963D01*
X103284848Y-83594515D01*
X103252009Y-83695582D01*
X103252008Y-83695585D01*
X103252008Y-83695587D01*
X103220000Y-83897676D01*
X83444718Y-83897676D01*
X83483319Y-83830817D01*
X83483319Y-83830816D01*
X83527949Y-83753513D01*
X83527954Y-83753502D01*
X83613236Y-83547618D01*
X83670911Y-83332367D01*
X83670914Y-83332354D01*
X83700000Y-83111424D01*
X83700000Y-82888575D01*
X83670914Y-82667645D01*
X83670911Y-82667632D01*
X83665465Y-82647308D01*
X83639330Y-82549768D01*
X83613236Y-82452381D01*
X83527954Y-82246497D01*
X83527949Y-82246485D01*
X83431724Y-82079818D01*
X83416532Y-82053505D01*
X83365957Y-81987595D01*
X83365956Y-81987595D01*
X83365955Y-81987595D01*
X83365954Y-81987595D01*
X82682906Y-82670643D01*
X82621583Y-82704128D01*
X82551891Y-82699144D01*
X82495958Y-82657272D01*
X82487838Y-82644961D01*
X82480122Y-82631598D01*
X82480119Y-82631592D01*
X82368408Y-82519881D01*
X82359677Y-82514840D01*
X82355032Y-82512158D01*
X82306817Y-82461590D01*
X82293596Y-82392983D01*
X82319565Y-82328118D01*
X82329343Y-82317101D01*
X83012403Y-81634043D01*
X83012403Y-81634040D01*
X82946504Y-81583473D01*
X82946491Y-81583464D01*
X82753520Y-81472054D01*
X82753508Y-81472047D01*
X82585583Y-81402489D01*
X82547618Y-81386763D01*
X82547616Y-81386762D01*
X82547615Y-81386762D01*
X82547613Y-81386761D01*
X82524594Y-81380594D01*
X82501431Y-81374388D01*
X82468986Y-81360493D01*
X82459326Y-81354605D01*
X82412330Y-81302902D01*
X82400748Y-81233999D01*
X82428254Y-81169774D01*
X82428690Y-81169247D01*
X82472745Y-81135462D01*
X82474807Y-81134520D01*
X82494207Y-81127547D01*
X82547618Y-81113236D01*
X82753502Y-81027954D01*
X82753514Y-81027949D01*
X82946498Y-80916530D01*
X83012403Y-80865957D01*
X83012404Y-80865956D01*
X83012403Y-80865955D01*
X83012404Y-80865955D01*
X82329354Y-80182907D01*
X82295869Y-80121584D01*
X82300853Y-80051893D01*
X82342724Y-79995959D01*
X82355022Y-79987846D01*
X82368408Y-79980119D01*
X82480119Y-79868408D01*
X82487839Y-79855035D01*
X82538405Y-79806821D01*
X82607012Y-79793597D01*
X82671877Y-79819565D01*
X82682907Y-79829355D01*
X83365955Y-80512403D01*
X83365956Y-80512404D01*
X83365957Y-80512403D01*
X83416530Y-80446498D01*
X83527949Y-80253514D01*
X83527954Y-80253502D01*
X83613236Y-80047618D01*
X83670911Y-79832367D01*
X83670914Y-79832354D01*
X83700000Y-79611424D01*
X83700000Y-79388575D01*
X83670914Y-79167645D01*
X83670911Y-79167632D01*
X83665234Y-79146446D01*
X83646274Y-79075685D01*
X83613236Y-78952381D01*
X83527954Y-78746497D01*
X83527949Y-78746485D01*
X83416533Y-78553507D01*
X83416532Y-78553505D01*
X83365957Y-78487595D01*
X83365956Y-78487595D01*
X83365955Y-78487595D01*
X83365954Y-78487595D01*
X82682906Y-79170643D01*
X82621583Y-79204128D01*
X82551891Y-79199144D01*
X82495958Y-79157272D01*
X82487838Y-79144961D01*
X82480122Y-79131598D01*
X82480119Y-79131592D01*
X82368408Y-79019881D01*
X82361586Y-79015942D01*
X82355032Y-79012158D01*
X82306817Y-78961590D01*
X82293596Y-78892983D01*
X82319565Y-78828118D01*
X82329343Y-78817101D01*
X83012403Y-78134043D01*
X83012403Y-78134040D01*
X82971110Y-78102354D01*
X82946511Y-78083478D01*
X82946494Y-78083466D01*
X82946487Y-78083462D01*
X82753520Y-77972054D01*
X82753516Y-77972052D01*
X82753505Y-77972046D01*
X82753502Y-77972045D01*
X82717883Y-77957291D01*
X82547620Y-77886764D01*
X82547618Y-77886763D01*
X82547617Y-77886763D01*
X82528214Y-77881564D01*
X82502395Y-77874646D01*
X82469955Y-77860754D01*
X82460292Y-77854864D01*
X82413297Y-77803164D01*
X82401712Y-77734261D01*
X82429197Y-77670060D01*
X82429590Y-77669583D01*
X82473692Y-77635728D01*
X82475749Y-77634788D01*
X82495169Y-77627806D01*
X82535870Y-77616901D01*
X82547771Y-77613713D01*
X82547773Y-77613711D01*
X82547781Y-77613710D01*
X82753726Y-77528405D01*
X82946774Y-77416948D01*
X83123624Y-77281247D01*
X83281247Y-77123624D01*
X83416948Y-76946774D01*
X83528405Y-76753726D01*
X83613710Y-76547781D01*
X83671404Y-76332463D01*
X83700500Y-76111457D01*
X83700500Y-75888543D01*
X83671404Y-75667537D01*
X83613710Y-75452219D01*
X83528405Y-75246274D01*
X83416948Y-75053226D01*
X83281247Y-74876376D01*
X83281242Y-74876370D01*
X83123629Y-74718757D01*
X83123622Y-74718751D01*
X83123612Y-74718743D01*
X83123603Y-74718736D01*
X82948754Y-74584571D01*
X82946873Y-74583067D01*
X82945486Y-74582233D01*
X82943589Y-74581212D01*
X82753726Y-74471595D01*
X82753724Y-74471594D01*
X82753722Y-74471593D01*
X82551833Y-74387968D01*
X82550016Y-74387138D01*
X82549536Y-74386956D01*
X82548015Y-74386352D01*
X82503362Y-74374388D01*
X82470917Y-74360494D01*
X82461262Y-74354609D01*
X82414264Y-74302909D01*
X82402677Y-74234007D01*
X82430179Y-74169782D01*
X82430655Y-74169205D01*
X82474641Y-74135477D01*
X82476698Y-74134538D01*
X82496134Y-74127548D01*
X82547781Y-74113710D01*
X82753726Y-74028405D01*
X82946774Y-73916948D01*
X83123624Y-73781247D01*
X83281247Y-73623624D01*
X83416948Y-73446774D01*
X83528405Y-73253726D01*
X83613710Y-73047781D01*
X83671404Y-72832463D01*
X83700500Y-72611457D01*
X83700500Y-72413389D01*
X89399500Y-72413389D01*
X89399500Y-72417432D01*
X89399500Y-74586610D01*
X89420429Y-74718755D01*
X89426598Y-74757701D01*
X89480127Y-74922445D01*
X89558768Y-75076788D01*
X89660586Y-75216928D01*
X89723102Y-75279444D01*
X89783072Y-75339414D01*
X89783571Y-75339823D01*
X89785094Y-75340884D01*
X89851598Y-75389203D01*
X89876909Y-75413801D01*
X89885384Y-75424792D01*
X89910732Y-75489902D01*
X89896859Y-75558373D01*
X89893599Y-75564552D01*
X89856814Y-75607007D01*
X89783069Y-75660587D01*
X89656096Y-75787560D01*
X89651967Y-75794935D01*
X89648687Y-75799450D01*
X89558768Y-75923211D01*
X89558765Y-75923215D01*
X89558764Y-75923218D01*
X89480129Y-76077549D01*
X89480128Y-76077551D01*
X89480128Y-76077552D01*
X89469109Y-76111466D01*
X89426596Y-76242305D01*
X89399500Y-76413383D01*
X89399500Y-78586614D01*
X89424819Y-78746471D01*
X89424821Y-78746485D01*
X89426598Y-78757701D01*
X89480127Y-78922445D01*
X89558768Y-79076788D01*
X89660586Y-79216928D01*
X89724469Y-79280811D01*
X89783072Y-79339414D01*
X89783571Y-79339823D01*
X89785094Y-79340884D01*
X89851598Y-79389203D01*
X89876909Y-79413801D01*
X89885384Y-79424792D01*
X89910732Y-79489902D01*
X89896859Y-79558373D01*
X89893599Y-79564552D01*
X89856814Y-79607007D01*
X89783069Y-79660587D01*
X89656093Y-79787563D01*
X89651961Y-79794942D01*
X89624771Y-79832366D01*
X89558772Y-79923205D01*
X89558768Y-79923211D01*
X89558766Y-79923213D01*
X89558764Y-79923218D01*
X89480129Y-80077549D01*
X89426596Y-80242305D01*
X89399500Y-80413383D01*
X89399500Y-82586615D01*
X89425236Y-82749114D01*
X89425237Y-82749114D01*
X89426597Y-82757699D01*
X89480128Y-82922449D01*
X89531013Y-83022316D01*
X89558768Y-83076788D01*
X89660586Y-83216928D01*
X89783072Y-83339414D01*
X89923212Y-83441232D01*
X90077555Y-83519873D01*
X90242299Y-83573402D01*
X90413389Y-83600500D01*
X90413390Y-83600500D01*
X90586610Y-83600500D01*
X90586611Y-83600500D01*
X90757701Y-83573402D01*
X90922445Y-83519873D01*
X91076788Y-83441232D01*
X91216928Y-83339414D01*
X91339414Y-83216928D01*
X91441232Y-83076788D01*
X91519873Y-82922445D01*
X91573402Y-82757701D01*
X91600500Y-82586611D01*
X91600500Y-82399008D01*
X91620185Y-82331969D01*
X91645117Y-82303748D01*
X91695578Y-82261698D01*
X91854528Y-82129240D01*
X91918631Y-82101445D01*
X91933911Y-82100500D01*
X94066090Y-82100500D01*
X94133129Y-82120185D01*
X94145464Y-82129233D01*
X94354884Y-82303750D01*
X94393782Y-82361788D01*
X94399500Y-82399008D01*
X94399500Y-82586615D01*
X94425236Y-82749114D01*
X94425237Y-82749114D01*
X94426597Y-82757699D01*
X94480128Y-82922449D01*
X94531013Y-83022316D01*
X94558768Y-83076788D01*
X94660586Y-83216928D01*
X94783072Y-83339414D01*
X94923212Y-83441232D01*
X95077555Y-83519873D01*
X95242299Y-83573402D01*
X95413389Y-83600500D01*
X95413390Y-83600500D01*
X95586610Y-83600500D01*
X95586611Y-83600500D01*
X95757701Y-83573402D01*
X95922445Y-83519873D01*
X96076788Y-83441232D01*
X96216928Y-83339414D01*
X96339414Y-83216928D01*
X96441232Y-83076788D01*
X96519873Y-82922445D01*
X96573402Y-82757701D01*
X96600500Y-82586611D01*
X96600500Y-80413389D01*
X96573402Y-80242299D01*
X96519873Y-80077555D01*
X96441232Y-79923212D01*
X96441231Y-79923211D01*
X96428368Y-79905507D01*
X122799500Y-79905507D01*
X122799500Y-80094491D01*
X122824688Y-80253520D01*
X122829059Y-80281118D01*
X122887454Y-80460836D01*
X122938400Y-80560823D01*
X122962921Y-80608948D01*
X122968647Y-80620185D01*
X122973240Y-80629199D01*
X123084310Y-80782073D01*
X123217927Y-80915690D01*
X123286918Y-80965815D01*
X123370796Y-81026757D01*
X123370800Y-81026759D01*
X123370801Y-81026760D01*
X123402105Y-81042710D01*
X123402106Y-81042711D01*
X123445278Y-81064708D01*
X123532720Y-81109262D01*
X123534307Y-81110192D01*
X123538025Y-81111993D01*
X123540023Y-81112986D01*
X123543789Y-81114049D01*
X123592184Y-81129773D01*
X123623319Y-81139889D01*
X123623320Y-81139890D01*
X123646157Y-81147310D01*
X123718881Y-81170940D01*
X123905514Y-81200500D01*
X123905519Y-81200500D01*
X124094485Y-81200500D01*
X124094486Y-81200500D01*
X124281118Y-81170940D01*
X124287812Y-81168765D01*
X124294504Y-81166591D01*
X124294504Y-81166590D01*
X124294506Y-81166590D01*
X124460832Y-81112547D01*
X124522284Y-81081234D01*
X124540877Y-81073592D01*
X124560642Y-81067288D01*
X125497429Y-80612929D01*
X125551542Y-80600500D01*
X134182073Y-80600500D01*
X134217005Y-80605521D01*
X134242249Y-80612934D01*
X134294995Y-80644230D01*
X137549474Y-83898709D01*
X137570624Y-83926961D01*
X137573552Y-83932323D01*
X137588405Y-84000596D01*
X137563989Y-84066061D01*
X137508057Y-84107933D01*
X137438366Y-84112918D01*
X137438071Y-84112854D01*
X137437709Y-84112775D01*
X137391417Y-84091979D01*
X137246736Y-83986863D01*
X137246396Y-83986572D01*
X137238838Y-83981124D01*
X137238474Y-83980941D01*
X137212624Y-83967770D01*
X137110406Y-83915687D01*
X137014383Y-83866760D01*
X136895446Y-83828115D01*
X136774787Y-83788910D01*
X136731631Y-83782075D01*
X136731618Y-83782073D01*
X136525962Y-83749500D01*
X136525961Y-83749500D01*
X136274039Y-83749500D01*
X136274038Y-83749500D01*
X136248657Y-83753520D01*
X136243139Y-83754394D01*
X136025212Y-83788910D01*
X136025209Y-83788910D01*
X135785622Y-83866758D01*
X135785616Y-83866760D01*
X135587348Y-83967784D01*
X135561147Y-83981134D01*
X135357367Y-84129188D01*
X135357338Y-84129210D01*
X135179210Y-84307338D01*
X135179188Y-84307367D01*
X135031134Y-84511147D01*
X135031132Y-84511151D01*
X134916760Y-84735616D01*
X134916759Y-84735618D01*
X134916759Y-84735619D01*
X134838910Y-84975209D01*
X134838910Y-84975212D01*
X134799500Y-85224036D01*
X134799500Y-86775961D01*
X134811306Y-86850500D01*
X134838910Y-87024786D01*
X134838910Y-87024789D01*
X134916759Y-87264381D01*
X134916762Y-87264388D01*
X134948998Y-87327652D01*
X134948998Y-87327654D01*
X134948999Y-87327654D01*
X135013286Y-87453825D01*
X135031132Y-87488848D01*
X135031135Y-87488853D01*
X135126181Y-87619673D01*
X135179201Y-87692649D01*
X135179205Y-87692654D01*
X135179210Y-87692660D01*
X135357338Y-87870788D01*
X135357342Y-87870791D01*
X135357345Y-87870794D01*
X135357350Y-87870798D01*
X135357367Y-87870810D01*
X135525603Y-87993040D01*
X135525604Y-87993041D01*
X135561150Y-88018867D01*
X135561152Y-88018868D01*
X135561155Y-88018870D01*
X135704184Y-88091747D01*
X135704183Y-88091747D01*
X135715019Y-88097268D01*
X135779173Y-88129956D01*
X135780760Y-88130886D01*
X135784478Y-88132687D01*
X135786475Y-88133680D01*
X135790243Y-88134743D01*
X135981727Y-88196960D01*
X136025215Y-88211090D01*
X136274038Y-88250500D01*
X136274039Y-88250500D01*
X136525961Y-88250500D01*
X136525962Y-88250500D01*
X136774785Y-88211090D01*
X137014379Y-88133241D01*
X137238845Y-88018870D01*
X137442656Y-87870793D01*
X137620793Y-87692656D01*
X137673817Y-87619672D01*
X137698413Y-87594363D01*
X137710793Y-87584816D01*
X137775899Y-87559465D01*
X137782471Y-87558901D01*
X137849374Y-87571960D01*
X137893345Y-87594363D01*
X137914705Y-87605246D01*
X137914707Y-87605248D01*
X137932265Y-87614194D01*
X138013527Y-87655599D01*
X138015118Y-87656531D01*
X138018818Y-87658323D01*
X138020831Y-87659324D01*
X138024597Y-87660386D01*
X138062082Y-87672565D01*
X138120315Y-87691486D01*
X138120316Y-87691487D01*
X138127423Y-87693796D01*
X138207173Y-87719709D01*
X138401578Y-87750500D01*
X138401583Y-87750500D01*
X138598421Y-87750500D01*
X138598422Y-87750500D01*
X138792826Y-87719709D01*
X138872574Y-87693797D01*
X138980025Y-87658884D01*
X139155405Y-87569524D01*
X139314646Y-87453828D01*
X139399717Y-87368756D01*
X139427964Y-87347611D01*
X139441688Y-87340117D01*
X139509946Y-87325266D01*
X139511756Y-87325395D01*
X139569953Y-87344761D01*
X139576471Y-87348950D01*
X139597106Y-87365580D01*
X139685354Y-87453828D01*
X139844595Y-87569524D01*
X139914708Y-87605248D01*
X139914709Y-87605249D01*
X139932265Y-87614194D01*
X140013527Y-87655599D01*
X140015118Y-87656531D01*
X140018818Y-87658323D01*
X140020831Y-87659324D01*
X140024597Y-87660386D01*
X140062082Y-87672565D01*
X140120315Y-87691486D01*
X140120316Y-87691487D01*
X140127423Y-87693796D01*
X140207173Y-87719709D01*
X140401578Y-87750500D01*
X140401583Y-87750500D01*
X140598421Y-87750500D01*
X140598422Y-87750500D01*
X140792826Y-87719709D01*
X140872574Y-87693797D01*
X140980025Y-87658884D01*
X141155405Y-87569524D01*
X141177194Y-87553692D01*
X141208399Y-87537225D01*
X141223121Y-87531972D01*
X141292859Y-87527977D01*
X141295087Y-87528495D01*
X141348896Y-87556151D01*
X141354095Y-87560722D01*
X141371480Y-87579529D01*
X141385792Y-87598646D01*
X141387977Y-87602187D01*
X141390340Y-87605015D01*
X141394033Y-87609684D01*
X141401333Y-87614193D01*
X141507664Y-87693793D01*
X141507671Y-87693797D01*
X141557155Y-87712253D01*
X141592513Y-87738721D01*
X141649444Y-87744835D01*
X141649443Y-87744839D01*
X141649458Y-87744836D01*
X141702127Y-87750500D01*
X143297872Y-87750499D01*
X143346831Y-87745236D01*
X143382101Y-87746496D01*
X143405625Y-87750740D01*
X143456132Y-87772191D01*
X143457402Y-87773106D01*
X143472539Y-87785988D01*
X143557345Y-87870794D01*
X143557350Y-87870798D01*
X143557367Y-87870810D01*
X143725603Y-87993040D01*
X143725604Y-87993041D01*
X143761150Y-88018867D01*
X143761152Y-88018868D01*
X143761155Y-88018870D01*
X143904184Y-88091747D01*
X143904183Y-88091747D01*
X143915019Y-88097268D01*
X143979173Y-88129956D01*
X143980760Y-88130886D01*
X143984478Y-88132687D01*
X143986475Y-88133680D01*
X143990243Y-88134743D01*
X144181727Y-88196960D01*
X144225215Y-88211090D01*
X144474038Y-88250500D01*
X144474039Y-88250500D01*
X144725961Y-88250500D01*
X144725962Y-88250500D01*
X144974785Y-88211090D01*
X145214379Y-88133241D01*
X145438845Y-88018870D01*
X145642656Y-87870793D01*
X145820793Y-87692656D01*
X145968870Y-87488845D01*
X146083241Y-87264379D01*
X146161090Y-87024785D01*
X146200500Y-86775962D01*
X146200500Y-85224038D01*
X146197757Y-85206722D01*
X146182800Y-85112285D01*
X146161090Y-84975215D01*
X146161089Y-84975211D01*
X146161089Y-84975210D01*
X146131825Y-84885145D01*
X146120397Y-84849973D01*
X146649500Y-84849973D01*
X146649500Y-84849996D01*
X146649501Y-86150000D01*
X146649501Y-86150026D01*
X146657604Y-86229338D01*
X146660000Y-86252796D01*
X146660001Y-86252799D01*
X146715185Y-86419331D01*
X146715186Y-86419334D01*
X146807288Y-86568656D01*
X146931344Y-86692712D01*
X147080666Y-86784814D01*
X147247203Y-86839999D01*
X147349991Y-86850500D01*
X148650008Y-86850499D01*
X148752797Y-86839999D01*
X148919334Y-86784814D01*
X149068656Y-86692712D01*
X149192712Y-86568656D01*
X149284814Y-86419334D01*
X149339999Y-86252797D01*
X149350500Y-86150009D01*
X149350499Y-84849992D01*
X149350497Y-84849973D01*
X149649500Y-84849973D01*
X149649500Y-84849996D01*
X149649501Y-86150000D01*
X149649501Y-86150026D01*
X149657604Y-86229338D01*
X149660000Y-86252796D01*
X149660001Y-86252799D01*
X149715185Y-86419331D01*
X149715186Y-86419334D01*
X149807288Y-86568656D01*
X149931344Y-86692712D01*
X150080666Y-86784814D01*
X150247203Y-86839999D01*
X150349991Y-86850500D01*
X151650008Y-86850499D01*
X151752797Y-86839999D01*
X151919334Y-86784814D01*
X152068656Y-86692712D01*
X152192712Y-86568656D01*
X152284814Y-86419334D01*
X152339999Y-86252797D01*
X152350500Y-86150009D01*
X152350499Y-84849992D01*
X152350482Y-84849830D01*
X152339999Y-84747203D01*
X152339998Y-84747200D01*
X152332946Y-84725919D01*
X152284814Y-84580666D01*
X152192712Y-84431344D01*
X152068656Y-84307288D01*
X151928861Y-84221062D01*
X151919336Y-84215187D01*
X151919331Y-84215185D01*
X151917862Y-84214698D01*
X151761265Y-84162807D01*
X151758439Y-84161639D01*
X151752796Y-84159999D01*
X151650025Y-84149500D01*
X151650016Y-84149500D01*
X151349857Y-84149500D01*
X151314921Y-84144477D01*
X151306288Y-84141942D01*
X151247510Y-84104167D01*
X151218486Y-84040610D01*
X151228430Y-83971452D01*
X151268698Y-83922386D01*
X151272858Y-83919387D01*
X151297927Y-83905408D01*
X151450224Y-83842325D01*
X151450224Y-83842324D01*
X151450231Y-83842322D01*
X151605908Y-83738302D01*
X151738302Y-83605908D01*
X151842322Y-83450231D01*
X151913973Y-83277251D01*
X151950500Y-83093616D01*
X151950500Y-82906384D01*
X151913973Y-82722749D01*
X151842322Y-82549769D01*
X151842321Y-82549768D01*
X151842318Y-82549762D01*
X151842318Y-82549761D01*
X151738300Y-82394089D01*
X151738299Y-82394088D01*
X151738294Y-82394082D01*
X151605916Y-82261704D01*
X151605910Y-82261699D01*
X151605909Y-82261698D01*
X151450231Y-82157677D01*
X151450232Y-82157677D01*
X151450222Y-82157672D01*
X151277252Y-82086027D01*
X151277225Y-82086021D01*
X151093622Y-82049500D01*
X151093620Y-82049500D01*
X151093616Y-82049500D01*
X150906384Y-82049500D01*
X150906379Y-82049500D01*
X150906377Y-82049500D01*
X150722773Y-82086021D01*
X150722746Y-82086027D01*
X150549776Y-82157672D01*
X150549766Y-82157677D01*
X150394089Y-82261698D01*
X150394088Y-82261699D01*
X150394082Y-82261704D01*
X150261704Y-82394082D01*
X150261699Y-82394088D01*
X150261698Y-82394089D01*
X150157677Y-82549766D01*
X150157672Y-82549776D01*
X150086027Y-82722746D01*
X150086021Y-82722773D01*
X150049500Y-82906376D01*
X150049500Y-82906379D01*
X150049500Y-83093620D01*
X150049500Y-83093622D01*
X150049499Y-83093622D01*
X150086021Y-83277225D01*
X150086027Y-83277252D01*
X150157672Y-83450222D01*
X150157677Y-83450232D01*
X150261698Y-83605909D01*
X150261699Y-83605910D01*
X150261704Y-83605916D01*
X150394082Y-83738294D01*
X150394088Y-83738299D01*
X150394092Y-83738302D01*
X150549762Y-83842318D01*
X150549775Y-83842325D01*
X150549779Y-83842327D01*
X150557696Y-83845606D01*
X150608765Y-83866759D01*
X150608766Y-83866760D01*
X150698952Y-83904116D01*
X150729298Y-83922119D01*
X150733572Y-83925562D01*
X150735307Y-83926961D01*
X150736303Y-83927763D01*
X150776156Y-83985152D01*
X150778656Y-84054977D01*
X150743009Y-84115069D01*
X150687039Y-84144993D01*
X150682053Y-84146172D01*
X150653519Y-84149500D01*
X150349998Y-84149500D01*
X150349981Y-84149501D01*
X150320890Y-84152472D01*
X150247201Y-84160000D01*
X150247088Y-84160038D01*
X150080676Y-84215182D01*
X150080667Y-84215185D01*
X150080665Y-84215186D01*
X150080663Y-84215187D01*
X150013410Y-84256669D01*
X149931340Y-84307290D01*
X149807290Y-84431340D01*
X149747703Y-84527947D01*
X149715187Y-84580663D01*
X149715186Y-84580666D01*
X149681735Y-84681614D01*
X149670300Y-84716123D01*
X149661852Y-84729069D01*
X149660365Y-84743630D01*
X149659541Y-84749883D01*
X149659359Y-84753473D01*
X149649500Y-84849973D01*
X149350497Y-84849973D01*
X149339999Y-84747203D01*
X149284814Y-84580666D01*
X149192712Y-84431344D01*
X149068656Y-84307288D01*
X148928861Y-84221062D01*
X148919336Y-84215187D01*
X148919331Y-84215185D01*
X148917862Y-84214698D01*
X148761265Y-84162807D01*
X148758439Y-84161639D01*
X148752796Y-84159999D01*
X148650025Y-84149500D01*
X148650016Y-84149500D01*
X148349857Y-84149500D01*
X148314921Y-84144477D01*
X148306288Y-84141942D01*
X148247510Y-84104167D01*
X148218486Y-84040610D01*
X148228430Y-83971452D01*
X148268698Y-83922386D01*
X148272858Y-83919387D01*
X148297927Y-83905408D01*
X148450224Y-83842325D01*
X148450224Y-83842324D01*
X148450231Y-83842322D01*
X148605908Y-83738302D01*
X148738302Y-83605908D01*
X148842322Y-83450231D01*
X148913973Y-83277251D01*
X148950500Y-83093616D01*
X148950500Y-82906384D01*
X148913973Y-82722749D01*
X148842322Y-82549769D01*
X148842321Y-82549768D01*
X148842318Y-82549762D01*
X148842318Y-82549761D01*
X148738300Y-82394089D01*
X148738299Y-82394088D01*
X148738294Y-82394082D01*
X148605916Y-82261704D01*
X148605910Y-82261699D01*
X148605909Y-82261698D01*
X148450231Y-82157677D01*
X148450232Y-82157677D01*
X148450222Y-82157672D01*
X148277252Y-82086027D01*
X148277225Y-82086021D01*
X148093622Y-82049500D01*
X148093620Y-82049500D01*
X148093616Y-82049500D01*
X147906384Y-82049500D01*
X147906379Y-82049500D01*
X147906377Y-82049500D01*
X147722773Y-82086021D01*
X147722746Y-82086027D01*
X147549776Y-82157672D01*
X147549766Y-82157677D01*
X147394089Y-82261698D01*
X147394088Y-82261699D01*
X147394082Y-82261704D01*
X147261704Y-82394082D01*
X147261699Y-82394088D01*
X147261698Y-82394089D01*
X147157677Y-82549766D01*
X147157672Y-82549776D01*
X147086027Y-82722746D01*
X147086021Y-82722773D01*
X147049500Y-82906376D01*
X147049500Y-82906379D01*
X147049500Y-83093620D01*
X147049500Y-83093622D01*
X147049499Y-83093622D01*
X147086021Y-83277225D01*
X147086027Y-83277252D01*
X147157672Y-83450222D01*
X147157677Y-83450232D01*
X147261698Y-83605909D01*
X147261699Y-83605910D01*
X147261704Y-83605916D01*
X147394082Y-83738294D01*
X147394088Y-83738299D01*
X147394092Y-83738302D01*
X147549762Y-83842318D01*
X147549775Y-83842325D01*
X147549779Y-83842327D01*
X147557696Y-83845606D01*
X147608765Y-83866759D01*
X147608766Y-83866760D01*
X147698952Y-83904116D01*
X147729298Y-83922119D01*
X147733572Y-83925562D01*
X147735307Y-83926961D01*
X147736303Y-83927763D01*
X147776156Y-83985152D01*
X147778656Y-84054977D01*
X147743009Y-84115069D01*
X147687039Y-84144993D01*
X147682053Y-84146172D01*
X147653519Y-84149500D01*
X147349998Y-84149500D01*
X147349981Y-84149501D01*
X147320890Y-84152472D01*
X147247201Y-84160000D01*
X147247088Y-84160038D01*
X147080676Y-84215182D01*
X147080667Y-84215185D01*
X147080665Y-84215186D01*
X147080663Y-84215187D01*
X147013410Y-84256669D01*
X146931340Y-84307290D01*
X146807290Y-84431340D01*
X146747703Y-84527947D01*
X146715187Y-84580663D01*
X146715186Y-84580666D01*
X146681735Y-84681614D01*
X146670300Y-84716123D01*
X146661852Y-84729069D01*
X146660365Y-84743630D01*
X146659541Y-84749883D01*
X146659359Y-84753473D01*
X146649500Y-84849973D01*
X146120397Y-84849973D01*
X146087875Y-84749883D01*
X146084742Y-84740241D01*
X146083680Y-84736476D01*
X146082683Y-84734469D01*
X146080891Y-84730770D01*
X146079953Y-84729167D01*
X146050270Y-84670912D01*
X146020883Y-84613236D01*
X145968870Y-84511155D01*
X145910472Y-84430777D01*
X145820798Y-84307350D01*
X145820794Y-84307345D01*
X145820791Y-84307342D01*
X145820788Y-84307338D01*
X145642660Y-84129210D01*
X145642655Y-84129206D01*
X145642654Y-84129205D01*
X145642649Y-84129201D01*
X145446743Y-83986868D01*
X145446402Y-83986577D01*
X145438838Y-83981124D01*
X145438474Y-83980941D01*
X145412624Y-83967770D01*
X145310406Y-83915687D01*
X145214383Y-83866760D01*
X145095446Y-83828115D01*
X144974787Y-83788910D01*
X144931631Y-83782075D01*
X144931618Y-83782073D01*
X144725962Y-83749500D01*
X144725961Y-83749500D01*
X144474039Y-83749500D01*
X144474038Y-83749500D01*
X144448657Y-83753520D01*
X144443139Y-83754394D01*
X144225212Y-83788910D01*
X144225209Y-83788910D01*
X143985622Y-83866758D01*
X143985616Y-83866760D01*
X143912302Y-83904116D01*
X143761154Y-83981130D01*
X143761151Y-83981131D01*
X143761151Y-83981132D01*
X143753256Y-83986868D01*
X143557343Y-84129205D01*
X143478091Y-84208456D01*
X143449834Y-84229608D01*
X143428854Y-84241063D01*
X143376070Y-84256051D01*
X143374522Y-84256134D01*
X143354630Y-84255602D01*
X143344037Y-84254463D01*
X143297873Y-84249500D01*
X143297869Y-84249500D01*
X141702123Y-84249500D01*
X141700192Y-84249659D01*
X141698545Y-84249885D01*
X141642516Y-84255908D01*
X141507666Y-84306204D01*
X141507665Y-84306205D01*
X141392451Y-84392454D01*
X141389711Y-84395195D01*
X141386309Y-84397052D01*
X141385355Y-84397767D01*
X141385252Y-84397629D01*
X141328388Y-84428680D01*
X141258696Y-84423696D01*
X141206758Y-84386881D01*
X141054508Y-84204120D01*
X141042390Y-84186748D01*
X141033262Y-84170936D01*
X141033262Y-84170935D01*
X140999550Y-84112545D01*
X140980524Y-84079590D01*
X140980518Y-84079582D01*
X140980514Y-84079578D01*
X140980513Y-84079576D01*
X140868722Y-83967785D01*
X140868720Y-83967784D01*
X140868717Y-83967781D01*
X140868709Y-83967775D01*
X140831845Y-83946492D01*
X140731807Y-83888735D01*
X140731783Y-83888722D01*
X140589275Y-83850538D01*
X140579057Y-83847800D01*
X140579056Y-83847800D01*
X139266227Y-83847800D01*
X139231291Y-83842777D01*
X139206049Y-83835365D01*
X139153304Y-83804069D01*
X138738474Y-83389239D01*
X138717325Y-83360988D01*
X138712259Y-83351711D01*
X138697405Y-83283439D01*
X138721820Y-83217974D01*
X138777752Y-83176101D01*
X138836471Y-83169239D01*
X138840331Y-83169722D01*
X138840331Y-83169721D01*
X138869000Y-83173306D01*
X138869476Y-83173142D01*
X138887859Y-83173648D01*
X138950019Y-83179999D01*
X139599999Y-83179999D01*
X139600000Y-83179998D01*
X139600000Y-82244014D01*
X139619685Y-82176975D01*
X139672489Y-82131220D01*
X139741647Y-82121276D01*
X139756080Y-82124236D01*
X139777591Y-82130000D01*
X139922406Y-82130000D01*
X139922409Y-82130000D01*
X139943908Y-82124239D01*
X140013755Y-82125902D01*
X140071618Y-82165064D01*
X140099123Y-82229292D01*
X140100000Y-82244014D01*
X140100000Y-83179999D01*
X140749960Y-83179999D01*
X140749972Y-83179999D01*
X140749986Y-83179998D01*
X140846412Y-83170147D01*
X140849781Y-83169975D01*
X140852690Y-83169505D01*
X140852696Y-83169505D01*
X140852698Y-83169505D01*
X141019119Y-83114359D01*
X141019130Y-83114354D01*
X141168340Y-83022319D01*
X141168344Y-83022316D01*
X141292317Y-82898343D01*
X141298339Y-82888581D01*
X141377931Y-82759544D01*
X141377931Y-82759543D01*
X141384352Y-82749133D01*
X141384359Y-82749119D01*
X141439505Y-82582697D01*
X141449999Y-82479986D01*
X141450000Y-82479973D01*
X141450000Y-81830000D01*
X140514014Y-81830000D01*
X140446975Y-81810315D01*
X140401220Y-81757511D01*
X140391276Y-81688353D01*
X140394236Y-81673919D01*
X140400000Y-81652409D01*
X140400000Y-81507591D01*
X140394239Y-81486091D01*
X140395001Y-81454071D01*
X141900000Y-81454071D01*
X141900000Y-81705927D01*
X141939397Y-81954670D01*
X142017217Y-82194181D01*
X142017218Y-82194184D01*
X142107212Y-82370804D01*
X142131557Y-82418583D01*
X142182066Y-82488102D01*
X142191606Y-82514840D01*
X142205748Y-82520698D01*
X142853695Y-81872749D01*
X142915016Y-81839266D01*
X142984707Y-81844250D01*
X143040641Y-81886121D01*
X143048762Y-81898433D01*
X143059887Y-81917704D01*
X143059890Y-81917708D01*
X143162292Y-82020110D01*
X143162293Y-82020111D01*
X143162295Y-82020112D01*
X143181563Y-82031236D01*
X143229780Y-82081802D01*
X143243004Y-82150409D01*
X143217037Y-82215274D01*
X143207246Y-82226305D01*
X142559299Y-82874249D01*
X142559300Y-82874249D01*
X142559300Y-82874250D01*
X142661416Y-82948442D01*
X142764440Y-83000936D01*
X142885814Y-83062780D01*
X142885817Y-83062781D01*
X142980720Y-83093616D01*
X143125330Y-83140602D01*
X143374072Y-83180000D01*
X143625927Y-83180000D01*
X143625928Y-83180000D01*
X143874669Y-83140602D01*
X144114184Y-83062780D01*
X144338575Y-82948446D01*
X144338581Y-82948442D01*
X144408102Y-82897932D01*
X144434840Y-82888391D01*
X144440698Y-82874249D01*
X143792753Y-82226305D01*
X143759268Y-82164982D01*
X143764252Y-82095291D01*
X143806123Y-82039357D01*
X143818433Y-82031238D01*
X143837708Y-82020110D01*
X143940110Y-81917708D01*
X143951235Y-81898437D01*
X144001800Y-81850220D01*
X144070407Y-81836995D01*
X144135272Y-81862961D01*
X144146305Y-81872753D01*
X144794249Y-82520698D01*
X144794249Y-82520697D01*
X144794250Y-82520698D01*
X144794250Y-82520697D01*
X144807718Y-82515118D01*
X144813935Y-82493948D01*
X144817932Y-82488102D01*
X144823838Y-82479973D01*
X144868442Y-82418581D01*
X144868446Y-82418575D01*
X144982780Y-82194184D01*
X145060602Y-81954669D01*
X145100000Y-81705928D01*
X145100000Y-81454071D01*
X145060602Y-81205330D01*
X145006469Y-81038723D01*
X144982781Y-80965817D01*
X144982780Y-80965814D01*
X144868442Y-80741416D01*
X144817932Y-80671896D01*
X144808391Y-80645157D01*
X144794249Y-80639299D01*
X144146305Y-81287245D01*
X144084982Y-81320730D01*
X144015291Y-81315746D01*
X143959357Y-81273875D01*
X143951237Y-81261564D01*
X143940112Y-81242295D01*
X143940111Y-81242293D01*
X143940110Y-81242292D01*
X143837708Y-81139890D01*
X143837707Y-81139889D01*
X143826091Y-81133183D01*
X143818432Y-81128761D01*
X143770217Y-81078195D01*
X143756993Y-81009588D01*
X143782961Y-80944723D01*
X143792751Y-80933693D01*
X143944370Y-80782075D01*
X144440698Y-80285748D01*
X144338583Y-80211557D01*
X144282355Y-80182907D01*
X144114184Y-80097218D01*
X144114181Y-80097217D01*
X143874670Y-80019397D01*
X143692184Y-79990494D01*
X143625928Y-79980000D01*
X143625927Y-79980000D01*
X143374073Y-79980000D01*
X143374072Y-79980000D01*
X143307822Y-79990493D01*
X143125328Y-80019397D01*
X142885817Y-80097217D01*
X142885804Y-80097223D01*
X142661418Y-80211555D01*
X142559300Y-80285747D01*
X142559300Y-80285748D01*
X143207246Y-80933694D01*
X143240731Y-80995017D01*
X143235747Y-81064708D01*
X143193876Y-81120642D01*
X143181566Y-81128762D01*
X143162293Y-81139889D01*
X143162292Y-81139890D01*
X143059891Y-81242290D01*
X143059889Y-81242293D01*
X143048762Y-81261566D01*
X142998194Y-81309781D01*
X142929587Y-81323003D01*
X142864722Y-81297035D01*
X142853694Y-81287246D01*
X142205749Y-80639300D01*
X142205748Y-80639300D01*
X142205747Y-80639301D01*
X142191386Y-80659068D01*
X142131555Y-80741418D01*
X142017223Y-80965804D01*
X142017217Y-80965817D01*
X141939397Y-81205328D01*
X141900000Y-81454071D01*
X140395001Y-81454071D01*
X140395902Y-81416245D01*
X140435064Y-81358382D01*
X140499292Y-81330877D01*
X140514014Y-81330000D01*
X141449999Y-81330000D01*
X141449999Y-80680032D01*
X141449998Y-80680013D01*
X141440147Y-80583587D01*
X141439975Y-80580217D01*
X141439505Y-80577302D01*
X141439505Y-80577301D01*
X141384359Y-80410880D01*
X141384357Y-80410875D01*
X141380239Y-80404199D01*
X141380228Y-80404179D01*
X141292329Y-80261674D01*
X141292324Y-80261667D01*
X141292319Y-80261659D01*
X141292316Y-80261655D01*
X141292313Y-80261652D01*
X141292311Y-80261649D01*
X141168349Y-80137687D01*
X141168346Y-80137685D01*
X141168344Y-80137683D01*
X141168340Y-80137680D01*
X141168334Y-80137676D01*
X141168324Y-80137669D01*
X141022330Y-80047619D01*
X141019130Y-80045645D01*
X141019128Y-80045644D01*
X141019114Y-80045637D01*
X140852695Y-79990493D01*
X140749991Y-79980000D01*
X140749986Y-79980000D01*
X140100000Y-79980000D01*
X140100000Y-80915985D01*
X140080315Y-80983024D01*
X140027511Y-81028779D01*
X139958353Y-81038723D01*
X139943909Y-81035761D01*
X139937695Y-81034096D01*
X139922409Y-81030000D01*
X139922407Y-81030000D01*
X139777593Y-81030000D01*
X139777591Y-81030000D01*
X139756091Y-81035761D01*
X139686241Y-81034096D01*
X139628379Y-80994932D01*
X139600877Y-80930703D01*
X139600000Y-80915985D01*
X139600000Y-79980000D01*
X138950028Y-79980000D01*
X138950012Y-79980001D01*
X138950002Y-79980001D01*
X138950002Y-79980002D01*
X138853586Y-79989852D01*
X138850217Y-79990023D01*
X138847298Y-79990494D01*
X138680882Y-80045639D01*
X138680870Y-80045644D01*
X138680867Y-80045646D01*
X138531674Y-80137669D01*
X138531652Y-80137685D01*
X138531649Y-80137687D01*
X138407687Y-80261649D01*
X138407685Y-80261652D01*
X138407669Y-80261674D01*
X138315646Y-80410867D01*
X138315644Y-80410870D01*
X138315637Y-80410884D01*
X138260493Y-80577303D01*
X138250000Y-80680007D01*
X138250000Y-80680010D01*
X138250000Y-80680013D01*
X138250000Y-81330000D01*
X139185986Y-81330000D01*
X139253025Y-81349685D01*
X139298780Y-81402489D01*
X139308724Y-81471647D01*
X139305763Y-81486080D01*
X139300000Y-81507591D01*
X139300000Y-81652409D01*
X139305760Y-81673908D01*
X139304098Y-81743755D01*
X139264936Y-81801618D01*
X139200708Y-81829123D01*
X139185986Y-81830000D01*
X138250001Y-81830000D01*
X138250001Y-82479993D01*
X138254077Y-82519883D01*
X138257129Y-82549762D01*
X138257736Y-82555698D01*
X138258306Y-82564073D01*
X138259732Y-82605869D01*
X138242345Y-82673541D01*
X138191132Y-82721069D01*
X138122352Y-82733365D01*
X138066823Y-82713139D01*
X138063465Y-82710891D01*
X138044765Y-82695530D01*
X134991928Y-79642693D01*
X134991919Y-79642683D01*
X134935438Y-79586202D01*
X134868717Y-79519481D01*
X134868716Y-79519480D01*
X134868715Y-79519479D01*
X134817485Y-79489902D01*
X134768985Y-79461901D01*
X134768982Y-79461898D01*
X134731783Y-79440422D01*
X134731784Y-79440422D01*
X134673450Y-79424792D01*
X134659332Y-79421009D01*
X134659330Y-79421008D01*
X134608439Y-79407372D01*
X134579057Y-79399499D01*
X134579056Y-79399499D01*
X134411443Y-79399499D01*
X134411380Y-79399500D01*
X133152251Y-79399500D01*
X133117307Y-79394474D01*
X133107052Y-79391462D01*
X133048277Y-79353683D01*
X133019257Y-79290126D01*
X133029206Y-79220968D01*
X133065585Y-79174828D01*
X133068698Y-79172392D01*
X133088801Y-79159575D01*
X133114569Y-79146446D01*
X133181610Y-79112287D01*
X133277000Y-79042982D01*
X133308796Y-79019882D01*
X133330601Y-79004040D01*
X133347213Y-78991971D01*
X133347213Y-78991970D01*
X133347273Y-78991927D01*
X133348036Y-78991148D01*
X133491152Y-78848032D01*
X133491924Y-78847275D01*
X133491962Y-78847222D01*
X133491966Y-78847219D01*
X133491968Y-78847215D01*
X133491971Y-78847213D01*
X133565157Y-78746479D01*
X133612287Y-78681610D01*
X133705220Y-78499219D01*
X133768477Y-78304534D01*
X133800500Y-78102352D01*
X133800500Y-77897648D01*
X133768477Y-77695466D01*
X133768476Y-77695462D01*
X133768476Y-77695461D01*
X133706723Y-77505406D01*
X133705660Y-77501639D01*
X133704659Y-77499623D01*
X133702868Y-77495925D01*
X133701933Y-77494329D01*
X133660027Y-77412085D01*
X133612287Y-77318390D01*
X133604656Y-77307886D01*
X133604557Y-77307750D01*
X133604555Y-77307748D01*
X133491971Y-77152786D01*
X133347213Y-77008028D01*
X133347212Y-77008027D01*
X133347211Y-77008026D01*
X133189507Y-76893450D01*
X133189168Y-76893161D01*
X133181603Y-76887707D01*
X133181188Y-76887498D01*
X133124654Y-76858691D01*
X133124653Y-76858691D01*
X132999223Y-76794781D01*
X132804534Y-76731522D01*
X132804532Y-76731521D01*
X132804530Y-76731521D01*
X132804529Y-76731520D01*
X132629995Y-76703878D01*
X132613409Y-76701251D01*
X132602354Y-76699500D01*
X132602352Y-76699500D01*
X132397648Y-76699500D01*
X132397647Y-76699500D01*
X132373327Y-76703351D01*
X132373326Y-76703350D01*
X132195468Y-76731521D01*
X132000777Y-76794780D01*
X132000764Y-76794786D01*
X131818397Y-76887708D01*
X131818385Y-76887715D01*
X131652787Y-77008027D01*
X131652784Y-77008029D01*
X131508029Y-77152784D01*
X131508027Y-77152787D01*
X131387715Y-77318385D01*
X131387708Y-77318397D01*
X131294786Y-77500764D01*
X131294780Y-77500777D01*
X131231521Y-77695468D01*
X131199500Y-77897642D01*
X131199500Y-78102352D01*
X131199499Y-78102354D01*
X131231521Y-78304530D01*
X131294780Y-78499221D01*
X131294783Y-78499228D01*
X131339308Y-78586610D01*
X131352457Y-78612416D01*
X131370962Y-78648735D01*
X131387715Y-78681613D01*
X131508028Y-78847213D01*
X131508030Y-78847215D01*
X131652787Y-78991972D01*
X131779885Y-79084312D01*
X131818390Y-79112287D01*
X131885426Y-79146444D01*
X131885429Y-79146445D01*
X131885431Y-79146446D01*
X131905990Y-79156921D01*
X131934830Y-79177251D01*
X131942604Y-79184593D01*
X131977826Y-79244933D01*
X131974836Y-79314739D01*
X131934580Y-79371846D01*
X131881243Y-79396441D01*
X131877369Y-79397198D01*
X131853589Y-79399500D01*
X128152251Y-79399500D01*
X128117307Y-79394474D01*
X128107052Y-79391462D01*
X128048277Y-79353683D01*
X128019257Y-79290126D01*
X128029206Y-79220968D01*
X128065585Y-79174828D01*
X128068698Y-79172392D01*
X128088801Y-79159575D01*
X128114569Y-79146446D01*
X128181610Y-79112287D01*
X128277000Y-79042982D01*
X128308796Y-79019882D01*
X128330601Y-79004040D01*
X128347213Y-78991971D01*
X128347213Y-78991970D01*
X128347273Y-78991927D01*
X128348036Y-78991148D01*
X128491152Y-78848032D01*
X128491924Y-78847275D01*
X128491962Y-78847222D01*
X128491966Y-78847219D01*
X128491968Y-78847215D01*
X128491971Y-78847213D01*
X128565157Y-78746479D01*
X128612287Y-78681610D01*
X128705220Y-78499219D01*
X128768477Y-78304534D01*
X128800500Y-78102352D01*
X128800500Y-77897648D01*
X128768477Y-77695466D01*
X128768476Y-77695462D01*
X128768476Y-77695461D01*
X128706723Y-77505406D01*
X128705660Y-77501639D01*
X128704659Y-77499623D01*
X128702868Y-77495925D01*
X128701933Y-77494329D01*
X128660027Y-77412085D01*
X128612287Y-77318390D01*
X128604656Y-77307886D01*
X128604557Y-77307750D01*
X128604555Y-77307748D01*
X128491971Y-77152786D01*
X128347213Y-77008028D01*
X128347212Y-77008027D01*
X128347211Y-77008026D01*
X128189507Y-76893450D01*
X128189168Y-76893161D01*
X128181603Y-76887707D01*
X128181188Y-76887498D01*
X128124654Y-76858691D01*
X128124653Y-76858691D01*
X127999223Y-76794781D01*
X127804534Y-76731522D01*
X127804532Y-76731521D01*
X127804530Y-76731521D01*
X127804529Y-76731520D01*
X127629995Y-76703878D01*
X127613409Y-76701251D01*
X127602354Y-76699500D01*
X127602352Y-76699500D01*
X127397648Y-76699500D01*
X127397647Y-76699500D01*
X127373327Y-76703351D01*
X127373326Y-76703350D01*
X127195468Y-76731521D01*
X127000777Y-76794780D01*
X127000764Y-76794786D01*
X126818397Y-76887708D01*
X126818385Y-76887715D01*
X126652787Y-77008027D01*
X126652784Y-77008029D01*
X126508029Y-77152784D01*
X126508027Y-77152787D01*
X126387715Y-77318385D01*
X126387708Y-77318397D01*
X126294786Y-77500764D01*
X126294780Y-77500777D01*
X126231521Y-77695468D01*
X126199500Y-77897642D01*
X126199500Y-78102352D01*
X126199499Y-78102354D01*
X126231521Y-78304530D01*
X126294780Y-78499221D01*
X126294783Y-78499228D01*
X126339308Y-78586610D01*
X126352457Y-78612416D01*
X126370962Y-78648735D01*
X126387715Y-78681613D01*
X126508028Y-78847213D01*
X126508030Y-78847215D01*
X126652787Y-78991972D01*
X126779885Y-79084312D01*
X126818390Y-79112287D01*
X126885426Y-79146444D01*
X126885429Y-79146445D01*
X126885431Y-79146446D01*
X126905990Y-79156921D01*
X126934830Y-79177251D01*
X126942604Y-79184593D01*
X126977826Y-79244933D01*
X126974836Y-79314739D01*
X126934580Y-79371846D01*
X126881243Y-79396441D01*
X126877369Y-79397198D01*
X126853589Y-79399500D01*
X125551544Y-79399500D01*
X125497431Y-79387070D01*
X125482473Y-79379815D01*
X124560642Y-78932710D01*
X124521339Y-78915665D01*
X124521338Y-78915664D01*
X124521332Y-78915662D01*
X124516079Y-78913941D01*
X124498393Y-78906590D01*
X124471687Y-78892983D01*
X124460836Y-78887454D01*
X124281118Y-78829059D01*
X124275177Y-78828118D01*
X124094491Y-78799500D01*
X124094486Y-78799500D01*
X124094481Y-78799500D01*
X123905519Y-78799500D01*
X123905514Y-78799500D01*
X123905509Y-78799500D01*
X123718886Y-78829058D01*
X123718884Y-78829058D01*
X123718881Y-78829059D01*
X123539163Y-78887454D01*
X123470490Y-78922445D01*
X123370807Y-78973236D01*
X123370794Y-78973244D01*
X123306604Y-79019880D01*
X123306605Y-79019881D01*
X123229798Y-79075685D01*
X123222417Y-79079818D01*
X123079817Y-79222418D01*
X123075685Y-79229797D01*
X123055302Y-79257852D01*
X122973244Y-79370794D01*
X122973236Y-79370807D01*
X122937155Y-79441621D01*
X122887454Y-79539163D01*
X122829059Y-79718881D01*
X122829058Y-79718884D01*
X122829058Y-79718886D01*
X122799500Y-79905507D01*
X96428368Y-79905507D01*
X96401414Y-79868408D01*
X96375222Y-79832357D01*
X96339417Y-79783075D01*
X96216930Y-79660588D01*
X96216929Y-79660587D01*
X96216928Y-79660586D01*
X96148397Y-79610795D01*
X96123091Y-79586202D01*
X96122731Y-79585735D01*
X96114615Y-79575210D01*
X96089265Y-79510103D01*
X96103138Y-79441626D01*
X96106404Y-79435437D01*
X96143185Y-79392990D01*
X96216365Y-79339823D01*
X96216924Y-79339417D01*
X96216924Y-79339416D01*
X96216928Y-79339414D01*
X96339414Y-79216928D01*
X96441232Y-79076788D01*
X96519873Y-78922445D01*
X96573402Y-78757701D01*
X96600500Y-78586611D01*
X96600500Y-78102354D01*
X114699499Y-78102354D01*
X114731521Y-78304530D01*
X114794780Y-78499221D01*
X114794783Y-78499228D01*
X114839308Y-78586610D01*
X114852457Y-78612416D01*
X114870962Y-78648735D01*
X114887715Y-78681613D01*
X115008028Y-78847213D01*
X115008030Y-78847215D01*
X115152787Y-78991972D01*
X115191203Y-79019882D01*
X115279885Y-79084312D01*
X115318390Y-79112287D01*
X115427011Y-79167632D01*
X115494330Y-79201933D01*
X115495930Y-79202870D01*
X115499650Y-79204672D01*
X115501634Y-79205658D01*
X115505388Y-79206716D01*
X115605137Y-79239127D01*
X115695465Y-79268477D01*
X115796557Y-79284488D01*
X115897648Y-79300500D01*
X115897649Y-79300500D01*
X116102351Y-79300500D01*
X116102352Y-79300500D01*
X116304534Y-79268477D01*
X116499219Y-79205220D01*
X116681610Y-79112287D01*
X116777000Y-79042982D01*
X116808796Y-79019882D01*
X116830601Y-79004040D01*
X116847213Y-78991971D01*
X116847213Y-78991970D01*
X116847273Y-78991927D01*
X116848036Y-78991148D01*
X116991152Y-78848032D01*
X116991924Y-78847275D01*
X116991962Y-78847222D01*
X116991966Y-78847219D01*
X116991968Y-78847215D01*
X116991971Y-78847213D01*
X117065157Y-78746479D01*
X117112287Y-78681610D01*
X117205220Y-78499219D01*
X117268477Y-78304534D01*
X117300500Y-78102354D01*
X119699499Y-78102354D01*
X119731521Y-78304530D01*
X119794780Y-78499221D01*
X119794783Y-78499228D01*
X119839308Y-78586610D01*
X119852457Y-78612416D01*
X119870962Y-78648735D01*
X119887715Y-78681613D01*
X120008028Y-78847213D01*
X120008030Y-78847215D01*
X120152787Y-78991972D01*
X120191203Y-79019882D01*
X120279885Y-79084312D01*
X120318390Y-79112287D01*
X120427011Y-79167632D01*
X120494330Y-79201933D01*
X120495930Y-79202870D01*
X120499650Y-79204672D01*
X120501634Y-79205658D01*
X120505388Y-79206716D01*
X120605137Y-79239127D01*
X120695465Y-79268477D01*
X120796557Y-79284488D01*
X120897648Y-79300500D01*
X120897649Y-79300500D01*
X121102351Y-79300500D01*
X121102352Y-79300500D01*
X121304534Y-79268477D01*
X121499219Y-79205220D01*
X121681610Y-79112287D01*
X121777000Y-79042982D01*
X121808796Y-79019882D01*
X121830601Y-79004040D01*
X121847213Y-78991971D01*
X121847213Y-78991970D01*
X121847273Y-78991927D01*
X121848036Y-78991148D01*
X121991152Y-78848032D01*
X121991924Y-78847275D01*
X121991962Y-78847222D01*
X121991966Y-78847219D01*
X121991968Y-78847215D01*
X121991971Y-78847213D01*
X122065157Y-78746479D01*
X122112287Y-78681610D01*
X122205220Y-78499219D01*
X122268477Y-78304534D01*
X122300500Y-78102352D01*
X122300500Y-77897648D01*
X122268477Y-77695466D01*
X122268476Y-77695462D01*
X122268476Y-77695461D01*
X122206723Y-77505406D01*
X122205660Y-77501639D01*
X122204659Y-77499623D01*
X122202868Y-77495925D01*
X122201933Y-77494329D01*
X122160027Y-77412085D01*
X122112287Y-77318390D01*
X122104656Y-77307886D01*
X122104557Y-77307750D01*
X122104555Y-77307748D01*
X121991971Y-77152786D01*
X121847213Y-77008028D01*
X121847212Y-77008027D01*
X121847211Y-77008026D01*
X121689507Y-76893450D01*
X121689168Y-76893161D01*
X121681603Y-76887707D01*
X121681188Y-76887498D01*
X121624654Y-76858691D01*
X121624653Y-76858691D01*
X121499223Y-76794781D01*
X121304534Y-76731522D01*
X121304532Y-76731521D01*
X121304530Y-76731521D01*
X121304529Y-76731520D01*
X121129995Y-76703878D01*
X121113409Y-76701251D01*
X121102354Y-76699500D01*
X121102352Y-76699500D01*
X120897648Y-76699500D01*
X120897647Y-76699500D01*
X120873327Y-76703351D01*
X120873326Y-76703350D01*
X120695468Y-76731521D01*
X120500777Y-76794780D01*
X120500764Y-76794786D01*
X120318397Y-76887708D01*
X120318385Y-76887715D01*
X120152787Y-77008027D01*
X120152784Y-77008029D01*
X120008029Y-77152784D01*
X120008027Y-77152787D01*
X119887715Y-77318385D01*
X119887708Y-77318397D01*
X119794786Y-77500764D01*
X119794780Y-77500777D01*
X119731521Y-77695468D01*
X119699500Y-77897642D01*
X119699500Y-78102352D01*
X119699499Y-78102354D01*
X117300500Y-78102354D01*
X117300500Y-78102352D01*
X117300500Y-77897648D01*
X117268477Y-77695466D01*
X117268476Y-77695462D01*
X117268476Y-77695461D01*
X117206723Y-77505406D01*
X117205660Y-77501639D01*
X117204659Y-77499623D01*
X117202868Y-77495925D01*
X117201933Y-77494329D01*
X117160027Y-77412085D01*
X117112287Y-77318390D01*
X117104656Y-77307886D01*
X117104557Y-77307750D01*
X117104555Y-77307748D01*
X116991971Y-77152786D01*
X116847213Y-77008028D01*
X116847212Y-77008027D01*
X116847211Y-77008026D01*
X116689507Y-76893450D01*
X116689168Y-76893161D01*
X116681603Y-76887707D01*
X116681188Y-76887498D01*
X116624654Y-76858691D01*
X116624653Y-76858691D01*
X116499223Y-76794781D01*
X116304534Y-76731522D01*
X116304532Y-76731521D01*
X116304530Y-76731521D01*
X116304529Y-76731520D01*
X116129995Y-76703878D01*
X116113409Y-76701251D01*
X116102354Y-76699500D01*
X116102352Y-76699500D01*
X115897648Y-76699500D01*
X115897647Y-76699500D01*
X115873327Y-76703351D01*
X115873326Y-76703350D01*
X115695468Y-76731521D01*
X115500777Y-76794780D01*
X115500764Y-76794786D01*
X115318397Y-76887708D01*
X115318385Y-76887715D01*
X115152787Y-77008027D01*
X115152784Y-77008029D01*
X115008029Y-77152784D01*
X115008027Y-77152787D01*
X114887715Y-77318385D01*
X114887708Y-77318397D01*
X114794786Y-77500764D01*
X114794780Y-77500777D01*
X114731521Y-77695468D01*
X114699500Y-77897642D01*
X114699500Y-78102352D01*
X114699499Y-78102354D01*
X96600500Y-78102354D01*
X96600500Y-77885199D01*
X96609840Y-77837986D01*
X96621364Y-77809999D01*
X97019413Y-76843307D01*
X97046387Y-76802846D01*
X98827911Y-75021323D01*
X98856161Y-75000175D01*
X98879253Y-74987567D01*
X98938678Y-74972400D01*
X100426905Y-74972400D01*
X100461841Y-74977423D01*
X100472095Y-74980434D01*
X100530873Y-75018210D01*
X100559897Y-75081766D01*
X100549953Y-75150924D01*
X100513563Y-75197076D01*
X100510453Y-75199509D01*
X100490344Y-75212329D01*
X100370799Y-75273240D01*
X100283579Y-75336610D01*
X100283578Y-75336610D01*
X100229794Y-75375686D01*
X100222419Y-75379816D01*
X100079816Y-75522419D01*
X100075685Y-75529796D01*
X99975603Y-75667547D01*
X99973240Y-75670800D01*
X99973238Y-75670802D01*
X99973236Y-75670807D01*
X99938984Y-75738030D01*
X99887454Y-75839163D01*
X99829059Y-76018881D01*
X99829059Y-76018883D01*
X99829058Y-76018886D01*
X99799500Y-76205507D01*
X99799500Y-76394491D01*
X99828893Y-76580068D01*
X99829059Y-76581118D01*
X99887454Y-76760836D01*
X99887455Y-76760837D01*
X99887456Y-76760841D01*
X99904760Y-76794801D01*
X99952102Y-76887713D01*
X99973238Y-76929197D01*
X99991497Y-76954328D01*
X100084310Y-77082073D01*
X100217927Y-77215690D01*
X100304229Y-77278393D01*
X100370796Y-77326757D01*
X100370797Y-77326757D01*
X100370801Y-77326760D01*
X100450347Y-77367290D01*
X100532722Y-77409263D01*
X100534320Y-77410199D01*
X100538037Y-77411999D01*
X100540021Y-77412985D01*
X100543775Y-77414043D01*
X100635497Y-77443846D01*
X100718881Y-77470940D01*
X100905514Y-77500500D01*
X100905519Y-77500500D01*
X101094485Y-77500500D01*
X101094486Y-77500500D01*
X101281118Y-77470940D01*
X101282623Y-77470451D01*
X101460832Y-77412547D01*
X101629199Y-77326760D01*
X101782073Y-77215690D01*
X101915690Y-77082073D01*
X102026760Y-76929199D01*
X102112547Y-76760832D01*
X102170940Y-76581118D01*
X102184730Y-76494049D01*
X102184968Y-76492548D01*
X102192287Y-76446341D01*
X102200500Y-76394486D01*
X102200500Y-76205513D01*
X102170940Y-76018881D01*
X102128590Y-75888543D01*
X102114049Y-75843789D01*
X102112988Y-75840028D01*
X102111985Y-75838009D01*
X102110193Y-75834311D01*
X102109260Y-75832716D01*
X102063554Y-75743014D01*
X102046493Y-75709529D01*
X102026760Y-75670801D01*
X101915690Y-75517927D01*
X101782073Y-75384310D01*
X101629199Y-75273240D01*
X101576281Y-75246277D01*
X101514854Y-75214978D01*
X101486010Y-75194645D01*
X101478239Y-75187306D01*
X101443017Y-75126967D01*
X101446007Y-75057161D01*
X101486262Y-75000054D01*
X101539636Y-74975451D01*
X101543511Y-74974695D01*
X101567255Y-74972400D01*
X108048007Y-74972400D01*
X108082943Y-74977423D01*
X108093197Y-74980434D01*
X108151975Y-75018210D01*
X108180999Y-75081766D01*
X108171055Y-75150924D01*
X108134665Y-75197076D01*
X108131555Y-75199509D01*
X108111446Y-75212329D01*
X107991057Y-75273670D01*
X107990771Y-75273846D01*
X107990640Y-75273882D01*
X107986719Y-75275881D01*
X107986321Y-75275100D01*
X107970917Y-75279444D01*
X107965668Y-75292116D01*
X108473657Y-75800104D01*
X108507142Y-75861427D01*
X108502158Y-75931118D01*
X108460287Y-75987052D01*
X108447976Y-75995172D01*
X108405098Y-76019927D01*
X108405093Y-76019931D01*
X108339931Y-76085093D01*
X108339927Y-76085098D01*
X108315172Y-76127976D01*
X108264605Y-76176192D01*
X108195998Y-76189414D01*
X108131133Y-76163446D01*
X108120104Y-76153657D01*
X107612116Y-75645668D01*
X107599444Y-75650917D01*
X107595100Y-75666321D01*
X107595881Y-75666719D01*
X107593882Y-75670640D01*
X107593846Y-75670771D01*
X107593670Y-75671057D01*
X107507913Y-75839361D01*
X107507912Y-75839364D01*
X107449548Y-76018995D01*
X107426886Y-76162074D01*
X107420000Y-76205552D01*
X107420000Y-76394447D01*
X107428219Y-76446341D01*
X107449548Y-76581003D01*
X107507912Y-76760634D01*
X107507913Y-76760636D01*
X107572662Y-76887710D01*
X107593666Y-76928933D01*
X107612116Y-76954328D01*
X108120106Y-76446339D01*
X108181426Y-76412856D01*
X108251118Y-76417840D01*
X108307051Y-76459712D01*
X108315171Y-76472022D01*
X108339927Y-76514901D01*
X108339929Y-76514904D01*
X108339930Y-76514905D01*
X108405095Y-76580070D01*
X108447976Y-76604827D01*
X108496191Y-76655393D01*
X108509415Y-76724000D01*
X108483447Y-76788865D01*
X108473657Y-76799895D01*
X107965669Y-77307881D01*
X107965669Y-77307882D01*
X107965673Y-77307886D01*
X107980133Y-77318391D01*
X107991059Y-77326329D01*
X108159362Y-77412085D01*
X108159367Y-77412086D01*
X108159368Y-77412087D01*
X108174307Y-77416941D01*
X108338997Y-77470451D01*
X108525553Y-77500000D01*
X108714446Y-77500000D01*
X108714447Y-77500000D01*
X108901002Y-77470451D01*
X109080637Y-77412085D01*
X109248937Y-77326331D01*
X109274328Y-77307883D01*
X109274328Y-77307882D01*
X109048519Y-77082073D01*
X108766342Y-76799895D01*
X108732857Y-76738572D01*
X108737841Y-76668880D01*
X108779713Y-76612947D01*
X108792017Y-76604830D01*
X108834905Y-76580070D01*
X108900070Y-76514905D01*
X108924828Y-76472021D01*
X108975391Y-76423808D01*
X109043997Y-76410583D01*
X109108863Y-76436549D01*
X109119895Y-76446341D01*
X109627882Y-76954328D01*
X109627883Y-76954328D01*
X109646331Y-76928937D01*
X109732085Y-76760637D01*
X109790451Y-76581002D01*
X109820000Y-76394447D01*
X109820000Y-76205552D01*
X109790451Y-76018997D01*
X109732085Y-75839362D01*
X109646329Y-75671059D01*
X109646141Y-75670800D01*
X109627886Y-75645673D01*
X109627882Y-75645669D01*
X109627881Y-75645669D01*
X109119895Y-76153656D01*
X109058572Y-76187141D01*
X108988881Y-76182157D01*
X108932947Y-76140286D01*
X108924827Y-76127975D01*
X108900072Y-76085098D01*
X108900068Y-76085093D01*
X108834906Y-76019931D01*
X108834898Y-76019925D01*
X108792024Y-75995172D01*
X108743808Y-75944606D01*
X108730584Y-75875999D01*
X108756552Y-75811134D01*
X108766342Y-75800104D01*
X108849711Y-75716735D01*
X109274328Y-75292116D01*
X109265239Y-75285513D01*
X109248933Y-75273666D01*
X109248926Y-75273662D01*
X109133753Y-75214977D01*
X109104916Y-75194650D01*
X109097146Y-75187313D01*
X109061918Y-75126975D01*
X109064903Y-75057169D01*
X109105155Y-75000059D01*
X109158535Y-74975451D01*
X109162410Y-74974695D01*
X109186154Y-74972400D01*
X110186078Y-74972400D01*
X110221010Y-74977421D01*
X110234329Y-74981332D01*
X110293107Y-75019106D01*
X110322133Y-75082661D01*
X110322133Y-75082667D01*
X110323985Y-75095551D01*
X110323720Y-75132592D01*
X110299500Y-75285513D01*
X110299500Y-75474491D01*
X110317228Y-75586421D01*
X110329059Y-75661118D01*
X110387454Y-75840836D01*
X110387455Y-75840837D01*
X110387456Y-75840841D01*
X110411757Y-75888533D01*
X110455230Y-75973852D01*
X110461956Y-75987052D01*
X110473241Y-76009200D01*
X110473242Y-76009203D01*
X110481037Y-76019931D01*
X110584310Y-76162073D01*
X110717927Y-76295690D01*
X110870801Y-76406760D01*
X110926412Y-76435095D01*
X111032720Y-76489262D01*
X111034312Y-76490194D01*
X111038025Y-76491993D01*
X111040022Y-76492986D01*
X111043790Y-76494049D01*
X111080169Y-76505869D01*
X111135495Y-76523845D01*
X111135496Y-76523846D01*
X111156343Y-76530619D01*
X111218881Y-76550940D01*
X111405514Y-76580500D01*
X111405519Y-76580500D01*
X111594485Y-76580500D01*
X111594486Y-76580500D01*
X111781118Y-76550940D01*
X111790838Y-76547781D01*
X111790843Y-76547781D01*
X111790843Y-76547780D01*
X111790846Y-76547779D01*
X111960832Y-76492547D01*
X112129199Y-76406760D01*
X112282073Y-76295690D01*
X112415690Y-76162073D01*
X112526760Y-76009199D01*
X112612547Y-75840832D01*
X112670940Y-75661118D01*
X112682771Y-75586421D01*
X112700500Y-75474486D01*
X112700500Y-75285513D01*
X112676407Y-75133406D01*
X112675904Y-75098116D01*
X112677683Y-75084351D01*
X112705798Y-75020388D01*
X112764027Y-74981779D01*
X112776466Y-74977933D01*
X112813095Y-74972400D01*
X144053973Y-74972400D01*
X144088905Y-74977421D01*
X144114149Y-74984834D01*
X144166895Y-75016130D01*
X147133785Y-77983020D01*
X147162910Y-78029080D01*
X147600754Y-79257852D01*
X147787904Y-79783075D01*
X147792306Y-79795427D01*
X147799500Y-79837048D01*
X147799500Y-80500024D01*
X147809999Y-80602796D01*
X147811639Y-80608439D01*
X147812807Y-80611265D01*
X147835588Y-80680013D01*
X147835588Y-80680014D01*
X147865183Y-80769328D01*
X147865184Y-80769330D01*
X147865190Y-80769343D01*
X147924782Y-80865954D01*
X147957286Y-80918651D01*
X147957289Y-80918655D01*
X147957291Y-80918657D01*
X147957293Y-80918660D01*
X148081338Y-81042705D01*
X148081341Y-81042707D01*
X148081344Y-81042710D01*
X148081348Y-81042713D01*
X148156799Y-81089252D01*
X148220853Y-81128762D01*
X148230662Y-81134812D01*
X148230664Y-81134813D01*
X148230666Y-81134814D01*
X148397203Y-81189999D01*
X148499992Y-81200500D01*
X148499997Y-81200500D01*
X150500003Y-81200500D01*
X150500008Y-81200500D01*
X150602797Y-81189999D01*
X150769334Y-81134814D01*
X150918655Y-81042711D01*
X151042711Y-80918655D01*
X151134814Y-80769334D01*
X151189999Y-80602797D01*
X151200500Y-80500008D01*
X151200500Y-78499992D01*
X151189999Y-78397203D01*
X151134814Y-78230666D01*
X151134812Y-78230663D01*
X151134811Y-78230660D01*
X151055668Y-78102352D01*
X151055667Y-78102351D01*
X151042713Y-78081348D01*
X151042710Y-78081344D01*
X151042707Y-78081341D01*
X151042706Y-78081339D01*
X150918660Y-77957293D01*
X150918657Y-77957291D01*
X150918655Y-77957289D01*
X150918651Y-77957286D01*
X150821964Y-77897648D01*
X150769343Y-77865190D01*
X150769337Y-77865187D01*
X150769335Y-77865186D01*
X150769332Y-77865185D01*
X150769330Y-77865184D01*
X150769328Y-77865183D01*
X150674220Y-77833668D01*
X150674219Y-77833668D01*
X150611265Y-77812807D01*
X150608439Y-77811639D01*
X150602796Y-77809999D01*
X150500024Y-77799500D01*
X150500015Y-77799500D01*
X150500008Y-77799500D01*
X150240465Y-77799500D01*
X150205529Y-77794477D01*
X150196896Y-77791942D01*
X150138118Y-77754167D01*
X150109094Y-77690610D01*
X150119038Y-77621452D01*
X150159305Y-77572387D01*
X150163469Y-77569385D01*
X150188528Y-77555411D01*
X150253402Y-77528539D01*
X150254250Y-77528193D01*
X150259623Y-77526020D01*
X150265916Y-77521367D01*
X150301579Y-77500777D01*
X150446774Y-77416948D01*
X150623624Y-77281247D01*
X150781247Y-77123624D01*
X150916948Y-76946774D01*
X151028405Y-76753726D01*
X151113710Y-76547781D01*
X151171404Y-76332463D01*
X151200500Y-76111457D01*
X151200500Y-75888543D01*
X151171404Y-75667537D01*
X151113710Y-75452219D01*
X151028405Y-75246274D01*
X150916948Y-75053226D01*
X150781247Y-74876376D01*
X150781242Y-74876370D01*
X150623629Y-74718757D01*
X150623622Y-74718751D01*
X150623612Y-74718743D01*
X150623603Y-74718736D01*
X150448754Y-74584571D01*
X150446873Y-74583067D01*
X150445486Y-74582233D01*
X150443589Y-74581212D01*
X150253726Y-74471594D01*
X150138449Y-74423845D01*
X150122931Y-74411340D01*
X150048614Y-74386568D01*
X150047860Y-74386310D01*
X150002394Y-74374127D01*
X149969960Y-74360239D01*
X149960305Y-74354355D01*
X149913303Y-74302659D01*
X149901711Y-74233757D01*
X149929145Y-74169606D01*
X149929536Y-74169131D01*
X149973701Y-74135208D01*
X149975155Y-74134544D01*
X149975752Y-74134270D01*
X149995174Y-74127287D01*
X150047617Y-74113236D01*
X150253502Y-74027954D01*
X150253514Y-74027949D01*
X150446498Y-73916530D01*
X150512403Y-73865957D01*
X150512404Y-73865956D01*
X150512403Y-73865955D01*
X150512404Y-73865955D01*
X149829354Y-73182907D01*
X149795869Y-73121584D01*
X149800853Y-73051893D01*
X149842724Y-72995959D01*
X149855022Y-72987846D01*
X149868408Y-72980119D01*
X149980119Y-72868408D01*
X149987839Y-72855035D01*
X150038402Y-72806821D01*
X150107009Y-72793596D01*
X150171875Y-72819562D01*
X150182907Y-72829354D01*
X150865955Y-73512404D01*
X150865955Y-73512403D01*
X150865956Y-73512404D01*
X150865957Y-73512403D01*
X150916530Y-73446498D01*
X151027949Y-73253514D01*
X151027954Y-73253502D01*
X151113236Y-73047618D01*
X151170911Y-72832367D01*
X151170914Y-72832354D01*
X151200000Y-72611424D01*
X151200000Y-72388575D01*
X151170914Y-72167645D01*
X151170911Y-72167632D01*
X151170888Y-72167547D01*
X151135207Y-72034380D01*
X151113236Y-71952381D01*
X151027954Y-71746497D01*
X151027949Y-71746485D01*
X150929517Y-71575996D01*
X150916532Y-71553505D01*
X150865957Y-71487595D01*
X150865956Y-71487595D01*
X150865955Y-71487595D01*
X150865954Y-71487595D01*
X150182906Y-72170643D01*
X150121583Y-72204128D01*
X150051891Y-72199144D01*
X149995958Y-72157272D01*
X149987838Y-72144961D01*
X149980122Y-72131598D01*
X149980119Y-72131592D01*
X149868408Y-72019881D01*
X149861586Y-72015942D01*
X149855032Y-72012158D01*
X149806817Y-71961590D01*
X149793596Y-71892983D01*
X149819565Y-71828118D01*
X149829343Y-71817101D01*
X150512403Y-71134043D01*
X150512403Y-71134040D01*
X150512402Y-71134039D01*
X150446511Y-71083478D01*
X150446494Y-71083466D01*
X150446487Y-71083462D01*
X150253520Y-70972054D01*
X150253508Y-70972047D01*
X150146866Y-70927874D01*
X150047618Y-70886763D01*
X150047611Y-70886761D01*
X149832382Y-70829091D01*
X149832367Y-70829088D01*
X149832354Y-70829085D01*
X149832350Y-70829084D01*
X149832344Y-70829083D01*
X149611426Y-70800000D01*
X149611425Y-70800000D01*
X149388575Y-70800000D01*
X149388574Y-70800000D01*
X149167654Y-70829083D01*
X149167641Y-70829086D01*
X149167616Y-70829091D01*
X148952387Y-70886761D01*
X148952383Y-70886762D01*
X148952381Y-70886763D01*
X148919403Y-70900423D01*
X148746490Y-70972047D01*
X148746471Y-70972058D01*
X148553508Y-71083463D01*
X148487595Y-71134040D01*
X148487595Y-71134043D01*
X149170645Y-71817092D01*
X149204130Y-71878415D01*
X149199146Y-71948106D01*
X149157274Y-72004040D01*
X149144967Y-72012159D01*
X149131592Y-72019881D01*
X149131589Y-72019883D01*
X149019883Y-72131589D01*
X149019883Y-72131590D01*
X149019881Y-72131592D01*
X149019878Y-72131598D01*
X149012159Y-72144967D01*
X148961590Y-72193181D01*
X148892983Y-72206402D01*
X148828119Y-72180433D01*
X148817092Y-72170645D01*
X148134043Y-71487595D01*
X148134040Y-71487595D01*
X148083463Y-71553508D01*
X147972058Y-71746471D01*
X147972047Y-71746490D01*
X147914506Y-71885404D01*
X147886763Y-71952381D01*
X147870746Y-72012158D01*
X147829091Y-72167616D01*
X147829086Y-72167641D01*
X147829083Y-72167654D01*
X147800000Y-72388574D01*
X147800000Y-72611424D01*
X147829083Y-72832344D01*
X147829086Y-72832357D01*
X147829091Y-72832382D01*
X147886761Y-73047611D01*
X147886763Y-73047618D01*
X147930926Y-73154234D01*
X147972047Y-73253508D01*
X147972052Y-73253517D01*
X147972054Y-73253520D01*
X148055847Y-73398657D01*
X148083466Y-73446494D01*
X148083478Y-73446511D01*
X148134039Y-73512402D01*
X148134040Y-73512403D01*
X148134043Y-73512403D01*
X148817094Y-72829351D01*
X148878415Y-72795868D01*
X148948106Y-72800852D01*
X149004040Y-72842723D01*
X149012157Y-72855031D01*
X149019881Y-72868408D01*
X149131592Y-72980119D01*
X149144964Y-72987839D01*
X149193179Y-73038407D01*
X149206401Y-73107014D01*
X149180433Y-73171879D01*
X149170644Y-73182907D01*
X148487595Y-73865954D01*
X148487595Y-73865957D01*
X148553505Y-73916532D01*
X148554224Y-73916947D01*
X148746485Y-74027949D01*
X148746497Y-74027954D01*
X148952383Y-74113236D01*
X148997603Y-74125352D01*
X149030041Y-74139244D01*
X149039705Y-74145134D01*
X149086701Y-74196835D01*
X149098286Y-74265738D01*
X149070780Y-74329965D01*
X149070754Y-74329997D01*
X149070364Y-74330469D01*
X149026271Y-74364285D01*
X149024223Y-74365220D01*
X149004823Y-74372194D01*
X149001238Y-74373154D01*
X148967986Y-74382064D01*
X148959820Y-74383139D01*
X148955494Y-74384932D01*
X148955486Y-74384934D01*
X148955487Y-74384935D01*
X148746272Y-74471594D01*
X148553237Y-74583044D01*
X148553212Y-74583061D01*
X148553210Y-74583062D01*
X148376395Y-74718736D01*
X148376379Y-74718749D01*
X148376369Y-74718758D01*
X148376361Y-74718765D01*
X148218765Y-74876361D01*
X148218758Y-74876369D01*
X148218749Y-74876379D01*
X148218736Y-74876395D01*
X148083062Y-75053210D01*
X148083061Y-75053212D01*
X148083044Y-75053237D01*
X147971595Y-75246272D01*
X147886297Y-75452199D01*
X147886288Y-75452222D01*
X147834457Y-75645667D01*
X147834456Y-75645669D01*
X147828601Y-75667517D01*
X147828593Y-75667550D01*
X147828592Y-75667556D01*
X147799503Y-75888516D01*
X147799500Y-75888541D01*
X147799500Y-76111457D01*
X147799503Y-76111482D01*
X147828593Y-76332450D01*
X147828596Y-76332462D01*
X147848504Y-76406760D01*
X147886289Y-76547779D01*
X147886291Y-76547786D01*
X147886293Y-76547790D01*
X147900098Y-76581118D01*
X147971595Y-76753727D01*
X147971595Y-76753728D01*
X147971614Y-76753762D01*
X147995307Y-76794801D01*
X148008420Y-76827550D01*
X148009860Y-76833488D01*
X148006543Y-76903276D01*
X147966021Y-76960194D01*
X147901159Y-76986169D01*
X147832551Y-76972954D01*
X147832550Y-76972953D01*
X147830479Y-76971886D01*
X147828361Y-76970794D01*
X147797491Y-76948255D01*
X144866558Y-74017323D01*
X144866556Y-74017320D01*
X144740617Y-73891381D01*
X144740612Y-73891377D01*
X144674697Y-73853321D01*
X144661330Y-73841698D01*
X144638742Y-73832563D01*
X144603686Y-73812323D01*
X144565503Y-73802092D01*
X144450957Y-73771399D01*
X144450954Y-73771399D01*
X144283343Y-73771399D01*
X144283280Y-73771400D01*
X137328148Y-73771400D01*
X137293204Y-73766374D01*
X137282949Y-73763362D01*
X137224174Y-73725583D01*
X137195154Y-73662026D01*
X137205103Y-73592868D01*
X137241470Y-73546738D01*
X137244590Y-73544296D01*
X137264717Y-73531465D01*
X137268636Y-73529469D01*
X137341610Y-73492287D01*
X137470482Y-73398657D01*
X137507213Y-73371971D01*
X137507213Y-73371970D01*
X137507272Y-73371928D01*
X137508036Y-73371148D01*
X137651148Y-73228036D01*
X137651927Y-73227273D01*
X137651971Y-73227213D01*
X137712363Y-73144089D01*
X137772287Y-73061610D01*
X137865220Y-72879219D01*
X137928477Y-72684534D01*
X137960500Y-72482352D01*
X137960500Y-72277648D01*
X137954902Y-72242305D01*
X137954901Y-72242298D01*
X137947484Y-72195468D01*
X137928477Y-72075465D01*
X137888484Y-71952381D01*
X137888483Y-71952379D01*
X137866722Y-71885404D01*
X137865659Y-71881635D01*
X137864666Y-71879638D01*
X137862526Y-71875220D01*
X137861933Y-71874329D01*
X137821403Y-71794785D01*
X137772287Y-71698390D01*
X137772284Y-71698386D01*
X137772283Y-71698384D01*
X137752827Y-71671604D01*
X137752823Y-71671600D01*
X137752763Y-71671517D01*
X137651971Y-71532786D01*
X137507213Y-71388028D01*
X137507212Y-71388027D01*
X137507211Y-71388026D01*
X137349507Y-71273450D01*
X137349168Y-71273161D01*
X137341603Y-71267707D01*
X137341239Y-71267524D01*
X137319481Y-71256438D01*
X137270583Y-71231523D01*
X137270583Y-71231522D01*
X137270581Y-71231522D01*
X137159228Y-71174783D01*
X137159221Y-71174780D01*
X137033846Y-71134043D01*
X136964534Y-71111522D01*
X136964532Y-71111521D01*
X136964530Y-71111521D01*
X136964529Y-71111520D01*
X136784779Y-71083052D01*
X136784778Y-71083052D01*
X136762352Y-71079500D01*
X136762351Y-71079500D01*
X136557649Y-71079500D01*
X136557648Y-71079500D01*
X136535222Y-71083052D01*
X136535221Y-71083052D01*
X136355469Y-71111520D01*
X136355468Y-71111521D01*
X136160777Y-71174780D01*
X136160764Y-71174786D01*
X135978397Y-71267708D01*
X135978385Y-71267715D01*
X135812787Y-71388027D01*
X135812784Y-71388029D01*
X135668031Y-71532783D01*
X135668027Y-71532787D01*
X135547715Y-71698385D01*
X135547708Y-71698397D01*
X135454786Y-71880764D01*
X135454780Y-71880777D01*
X135391521Y-72075468D01*
X135359500Y-72277642D01*
X135359500Y-72482356D01*
X135391521Y-72684530D01*
X135391522Y-72684534D01*
X135400141Y-72711059D01*
X135454780Y-72879221D01*
X135454783Y-72879228D01*
X135506134Y-72980007D01*
X135506134Y-72980009D01*
X135506135Y-72980009D01*
X135544099Y-73054518D01*
X135546440Y-73059111D01*
X135547716Y-73061615D01*
X135635838Y-73182907D01*
X135668028Y-73227213D01*
X135812786Y-73371971D01*
X135915375Y-73446504D01*
X135915745Y-73446773D01*
X135915746Y-73446775D01*
X135964936Y-73482512D01*
X135978390Y-73492287D01*
X135978392Y-73492288D01*
X135978395Y-73492290D01*
X136050090Y-73528820D01*
X136078933Y-73549151D01*
X136086706Y-73556492D01*
X136121929Y-73616832D01*
X136118939Y-73686638D01*
X136078683Y-73743746D01*
X136025346Y-73768341D01*
X136021472Y-73769098D01*
X135997692Y-73771400D01*
X127570537Y-73771400D01*
X127535602Y-73766377D01*
X127524748Y-73763190D01*
X127465970Y-73725416D01*
X127436945Y-73661860D01*
X127446887Y-73592706D01*
X127447537Y-73591282D01*
X127479897Y-73548421D01*
X127480317Y-73548063D01*
X127495639Y-73536908D01*
X127507701Y-73529469D01*
X127518656Y-73522712D01*
X127642712Y-73398656D01*
X127734814Y-73249334D01*
X127789999Y-73082797D01*
X127800500Y-72980009D01*
X127800499Y-71779992D01*
X127797077Y-71746497D01*
X127797076Y-71746490D01*
X127790000Y-71677211D01*
X127789999Y-71677209D01*
X127789999Y-71677203D01*
X127789998Y-71677200D01*
X127763728Y-71597924D01*
X127734814Y-71510666D01*
X127642712Y-71361344D01*
X127518656Y-71237288D01*
X127369334Y-71145186D01*
X127211265Y-71092807D01*
X127208445Y-71091641D01*
X127202792Y-71089999D01*
X127100019Y-71079500D01*
X127100010Y-71079500D01*
X125899998Y-71079500D01*
X125899981Y-71079501D01*
X125885959Y-71080933D01*
X125797198Y-71090000D01*
X125797193Y-71090001D01*
X125797032Y-71090056D01*
X125630667Y-71145185D01*
X125630665Y-71145186D01*
X125630663Y-71145187D01*
X125563420Y-71186663D01*
X125481340Y-71237290D01*
X125357290Y-71361340D01*
X125265187Y-71510662D01*
X125265152Y-71510770D01*
X125265151Y-71510769D01*
X125217463Y-71654678D01*
X125201707Y-71686258D01*
X125194278Y-71696988D01*
X125139933Y-71740901D01*
X125070474Y-71748462D01*
X125012195Y-71721030D01*
X125005230Y-71715133D01*
X124985050Y-71693393D01*
X124976654Y-71681837D01*
X124915690Y-71597927D01*
X124782073Y-71464310D01*
X124701514Y-71405780D01*
X124629203Y-71353242D01*
X124629200Y-71353240D01*
X124629199Y-71353240D01*
X124617370Y-71347213D01*
X124617367Y-71347211D01*
X124565177Y-71320619D01*
X124460836Y-71267454D01*
X124281118Y-71209059D01*
X124281112Y-71209058D01*
X124094491Y-71179500D01*
X124094486Y-71179500D01*
X124094481Y-71179500D01*
X123905519Y-71179500D01*
X123905514Y-71179500D01*
X123905509Y-71179500D01*
X123718886Y-71209058D01*
X123718884Y-71209058D01*
X123718881Y-71209059D01*
X123632003Y-71237288D01*
X123539162Y-71267454D01*
X123539159Y-71267455D01*
X123477729Y-71298755D01*
X123459129Y-71306401D01*
X123439367Y-71312706D01*
X123439353Y-71312711D01*
X122702099Y-71670293D01*
X122633190Y-71681837D01*
X122605442Y-71675196D01*
X122272286Y-71553505D01*
X121961825Y-71440103D01*
X121931489Y-71423951D01*
X121889502Y-71393446D01*
X121889162Y-71393156D01*
X121881603Y-71387707D01*
X121881239Y-71387524D01*
X121813953Y-71353240D01*
X121813953Y-71353239D01*
X121813951Y-71353239D01*
X121699228Y-71294783D01*
X121699221Y-71294780D01*
X121570014Y-71252798D01*
X121504534Y-71231522D01*
X121504532Y-71231521D01*
X121504530Y-71231521D01*
X121504529Y-71231520D01*
X121329995Y-71203878D01*
X121313409Y-71201251D01*
X121302354Y-71199500D01*
X121302352Y-71199500D01*
X121097648Y-71199500D01*
X121097647Y-71199500D01*
X121073327Y-71203351D01*
X121073326Y-71203350D01*
X120895468Y-71231521D01*
X120700777Y-71294780D01*
X120700764Y-71294786D01*
X120518397Y-71387708D01*
X120518385Y-71387715D01*
X120352787Y-71508027D01*
X120352784Y-71508029D01*
X120208029Y-71652784D01*
X120208027Y-71652787D01*
X120087715Y-71818385D01*
X120087708Y-71818397D01*
X119994786Y-72000764D01*
X119994780Y-72000777D01*
X119931521Y-72195468D01*
X119899500Y-72397642D01*
X119899500Y-72602356D01*
X119931064Y-72801642D01*
X119931522Y-72804534D01*
X119994781Y-72999223D01*
X120058691Y-73124653D01*
X120077759Y-73162075D01*
X120087715Y-73181613D01*
X120208028Y-73347213D01*
X120208030Y-73347215D01*
X120352784Y-73491969D01*
X120352790Y-73491974D01*
X120414219Y-73536605D01*
X120439527Y-73561199D01*
X120443381Y-73566197D01*
X120446433Y-73570154D01*
X120471783Y-73635263D01*
X120457909Y-73703741D01*
X120409241Y-73753833D01*
X120406544Y-73755357D01*
X120345541Y-73771400D01*
X117062074Y-73771400D01*
X117027139Y-73766377D01*
X117016285Y-73763190D01*
X116957507Y-73725416D01*
X116928482Y-73661860D01*
X116938417Y-73592722D01*
X116939709Y-73589893D01*
X116979616Y-73541082D01*
X117047213Y-73491971D01*
X117047215Y-73491968D01*
X117047219Y-73491966D01*
X117047222Y-73491962D01*
X117047277Y-73491923D01*
X117048062Y-73491123D01*
X117191152Y-73348032D01*
X117191928Y-73347271D01*
X117191982Y-73347198D01*
X117260056Y-73253502D01*
X117286171Y-73217556D01*
X117312287Y-73181610D01*
X117405220Y-72999219D01*
X117468477Y-72804534D01*
X117500500Y-72602352D01*
X117500500Y-72397648D01*
X117488202Y-72320004D01*
X117468477Y-72195465D01*
X117416138Y-72034383D01*
X117406717Y-72005391D01*
X117405659Y-72001635D01*
X117404671Y-71999647D01*
X117402870Y-71995929D01*
X117401932Y-71994327D01*
X117371503Y-71934607D01*
X117365693Y-71923205D01*
X117312287Y-71818390D01*
X117292022Y-71790498D01*
X117284395Y-71779999D01*
X117284393Y-71779997D01*
X117191971Y-71652786D01*
X117047213Y-71508028D01*
X116881611Y-71387713D01*
X116881610Y-71387712D01*
X116881608Y-71387711D01*
X116859974Y-71376688D01*
X116831130Y-71356355D01*
X116827831Y-71353239D01*
X116821039Y-71346824D01*
X116785817Y-71286486D01*
X116788806Y-71216681D01*
X116791065Y-71210053D01*
X116820752Y-71162380D01*
X117313911Y-70669223D01*
X117342161Y-70648075D01*
X117365253Y-70635467D01*
X117424678Y-70620300D01*
X138241005Y-70620300D01*
X138275937Y-70625321D01*
X138289256Y-70629232D01*
X138348034Y-70667006D01*
X138377060Y-70730561D01*
X138377060Y-70730565D01*
X138377535Y-70733869D01*
X138372995Y-70789000D01*
X138372231Y-70791409D01*
X138367512Y-70803909D01*
X138366765Y-70805603D01*
X138364989Y-70810339D01*
X138364176Y-70813569D01*
X138362249Y-70819500D01*
X138340395Y-70886761D01*
X138288909Y-71045213D01*
X138256032Y-71252798D01*
X138253669Y-71267715D01*
X138249500Y-71294038D01*
X138249500Y-71545962D01*
X138250651Y-71553226D01*
X138260005Y-71612287D01*
X138288910Y-71794785D01*
X138288910Y-71794789D01*
X138359539Y-72012158D01*
X138366760Y-72034383D01*
X138416291Y-72131592D01*
X138472699Y-72242299D01*
X138481132Y-72258848D01*
X138481136Y-72258855D01*
X138593412Y-72413389D01*
X138629201Y-72462649D01*
X138629205Y-72462654D01*
X138629210Y-72462660D01*
X138807338Y-72640788D01*
X138807342Y-72640791D01*
X138807345Y-72640794D01*
X138807350Y-72640798D01*
X138985117Y-72769952D01*
X139011155Y-72788870D01*
X139138103Y-72853553D01*
X139198505Y-72884330D01*
X139229169Y-72899954D01*
X139230763Y-72900887D01*
X139234450Y-72902673D01*
X139236479Y-72903681D01*
X139240245Y-72904744D01*
X139465209Y-72977839D01*
X139475215Y-72981090D01*
X139724038Y-73020500D01*
X139724039Y-73020500D01*
X139975961Y-73020500D01*
X139975962Y-73020500D01*
X140224785Y-72981090D01*
X140464379Y-72903241D01*
X140663781Y-72801639D01*
X140676341Y-72796093D01*
X140678305Y-72795354D01*
X141477171Y-72355515D01*
X141545387Y-72340426D01*
X141610937Y-72364614D01*
X141617429Y-72369787D01*
X141900810Y-72611457D01*
X142095992Y-72777911D01*
X142103211Y-72784579D01*
X142181344Y-72862712D01*
X142330665Y-72954814D01*
X142497202Y-73009999D01*
X142599990Y-73020500D01*
X142599995Y-73020500D01*
X144400005Y-73020500D01*
X144400010Y-73020500D01*
X144502798Y-73009999D01*
X144669335Y-72954814D01*
X144818656Y-72862712D01*
X144942712Y-72738656D01*
X145034814Y-72589335D01*
X145089999Y-72422798D01*
X145100500Y-72320010D01*
X145100500Y-70519990D01*
X145089999Y-70417202D01*
X145034814Y-70250665D01*
X144942712Y-70101344D01*
X144818656Y-69977288D01*
X144669335Y-69885186D01*
X144511266Y-69832807D01*
X144508440Y-69831639D01*
X144502797Y-69829999D01*
X144400026Y-69819500D01*
X144400017Y-69819500D01*
X144400010Y-69819500D01*
X142599990Y-69819500D01*
X142599982Y-69819500D01*
X142599974Y-69819500D01*
X142495495Y-69830174D01*
X142489912Y-69832416D01*
X142414669Y-69857349D01*
X142330679Y-69885180D01*
X142330666Y-69885184D01*
X142181342Y-69977288D01*
X142103210Y-70055419D01*
X142095992Y-70062085D01*
X141617434Y-70470206D01*
X141553652Y-70498730D01*
X141484574Y-70488242D01*
X141477166Y-70484481D01*
X141357617Y-70418660D01*
X141110700Y-70282712D01*
X141061468Y-70233136D01*
X141046855Y-70164811D01*
X141071500Y-70099433D01*
X141082819Y-70086415D01*
X142261753Y-68907482D01*
X143360644Y-67808589D01*
X143374001Y-67797015D01*
X143395030Y-67781275D01*
X143566507Y-67609798D01*
X143598849Y-67570386D01*
X143620520Y-67548716D01*
X143630157Y-67532022D01*
X143631930Y-67529370D01*
X143634929Y-67523758D01*
X143699577Y-67411784D01*
X143704978Y-67391624D01*
X143714183Y-67376471D01*
X143714852Y-67375860D01*
X143715553Y-67374267D01*
X143721332Y-67365187D01*
X144175420Y-66651700D01*
X144179691Y-66645425D01*
X144183865Y-66639681D01*
X144184360Y-66638708D01*
X144190249Y-66628400D01*
X144194709Y-66621394D01*
X144204117Y-66606010D01*
X144204540Y-66605290D01*
X144204548Y-66605275D01*
X144236335Y-66541147D01*
X144238628Y-66534929D01*
X144239182Y-66535133D01*
X144244897Y-66519898D01*
X144271082Y-66468509D01*
X144271085Y-66468501D01*
X144271172Y-66468236D01*
X144286560Y-66420874D01*
X144302124Y-66389212D01*
X144308515Y-66379866D01*
X144362598Y-66335638D01*
X144432012Y-66327670D01*
X144494707Y-66358488D01*
X144496987Y-66360581D01*
X144531085Y-66413629D01*
X144548913Y-66468501D01*
X144548914Y-66468504D01*
X144607722Y-66583919D01*
X144636133Y-66639679D01*
X144657179Y-66668646D01*
X144749055Y-66795102D01*
X144884898Y-66930945D01*
X145040319Y-67043865D01*
X145153119Y-67101340D01*
X145153135Y-67101348D01*
X145181080Y-67115587D01*
X145211493Y-67131083D01*
X145300757Y-67160086D01*
X145394199Y-67190447D01*
X145583945Y-67220500D01*
X145583946Y-67220500D01*
X145776054Y-67220500D01*
X145776055Y-67220500D01*
X145965801Y-67190447D01*
X146148509Y-67131082D01*
X146319681Y-67043865D01*
X146475102Y-66930945D01*
X146610945Y-66795102D01*
X146723865Y-66639681D01*
X146811082Y-66468509D01*
X146811318Y-66467785D01*
X146841302Y-66375500D01*
X146842676Y-66371270D01*
X146858249Y-66339587D01*
X146866085Y-66328127D01*
X146920172Y-66283899D01*
X146989581Y-66275932D01*
X146992872Y-66276501D01*
X147043899Y-66297850D01*
X147045510Y-66299003D01*
X147061018Y-66312153D01*
X147215585Y-66466720D01*
X147215606Y-66466742D01*
X147216649Y-66467785D01*
X147220979Y-66472115D01*
X147220980Y-66472116D01*
X147332784Y-66583920D01*
X147369297Y-66605000D01*
X147369298Y-66605001D01*
X147412554Y-66629974D01*
X147412558Y-66629977D01*
X147412559Y-66629977D01*
X147418517Y-66633417D01*
X147419595Y-66634039D01*
X147419597Y-66634041D01*
X147469713Y-66662976D01*
X147469715Y-66662977D01*
X147622442Y-66703900D01*
X147622443Y-66703900D01*
X148357670Y-66703900D01*
X148392606Y-66708923D01*
X148407604Y-66713327D01*
X148466355Y-66751072D01*
X148467542Y-66752441D01*
X148495018Y-66807302D01*
X148496663Y-66814860D01*
X148499500Y-66841231D01*
X148499500Y-67849576D01*
X148499659Y-67851506D01*
X148499885Y-67853154D01*
X148505907Y-67909182D01*
X148531234Y-67977085D01*
X148556202Y-68044028D01*
X148556206Y-68044035D01*
X148580358Y-68076298D01*
X148642450Y-68159242D01*
X148642452Y-68159244D01*
X148642455Y-68159247D01*
X148757664Y-68245493D01*
X148757671Y-68245497D01*
X148807155Y-68263953D01*
X148842513Y-68290421D01*
X148899444Y-68296535D01*
X148899443Y-68296539D01*
X148899458Y-68296536D01*
X148952127Y-68302200D01*
X150047872Y-68302199D01*
X150107483Y-68295791D01*
X150242331Y-68245496D01*
X150357546Y-68159246D01*
X150390363Y-68115406D01*
X150415315Y-68090454D01*
X150426432Y-68082132D01*
X150491893Y-68057719D01*
X150560163Y-68072571D01*
X150566992Y-68076300D01*
X150606822Y-68110816D01*
X150642800Y-68158876D01*
X150642810Y-68158888D01*
X150642813Y-68158891D01*
X150643289Y-68159247D01*
X150757906Y-68245050D01*
X150757913Y-68245054D01*
X150892620Y-68295296D01*
X150892627Y-68295298D01*
X150897212Y-68295791D01*
X150952138Y-68301698D01*
X150952155Y-68301699D01*
X150952172Y-68301700D01*
X151250000Y-68301700D01*
X151250000Y-67654324D01*
X151269685Y-67587285D01*
X151322489Y-67541530D01*
X151391647Y-67531586D01*
X151421452Y-67539763D01*
X151438551Y-67546845D01*
X151450272Y-67551700D01*
X151549726Y-67551700D01*
X151549728Y-67551700D01*
X151567077Y-67544513D01*
X151578548Y-67539763D01*
X151648017Y-67532294D01*
X151710496Y-67563569D01*
X151746148Y-67623659D01*
X151750000Y-67654324D01*
X151750000Y-68301700D01*
X152047828Y-68301700D01*
X152047836Y-68301700D01*
X152047847Y-68301699D01*
X152083560Y-68297858D01*
X152107372Y-68295298D01*
X152107379Y-68295296D01*
X152242086Y-68245054D01*
X152242093Y-68245050D01*
X152357187Y-68158890D01*
X152357190Y-68158887D01*
X152443350Y-68043793D01*
X152443354Y-68043786D01*
X152493596Y-67909079D01*
X152493598Y-67909072D01*
X152497578Y-67872060D01*
X152499998Y-67849560D01*
X152500000Y-67849527D01*
X152500000Y-67551700D01*
X151852624Y-67551700D01*
X151785585Y-67532015D01*
X151739830Y-67479211D01*
X151729886Y-67410053D01*
X151738063Y-67380248D01*
X151744302Y-67365184D01*
X151750000Y-67351428D01*
X151750000Y-67251972D01*
X151741493Y-67231434D01*
X151738063Y-67223152D01*
X151730594Y-67153683D01*
X151761869Y-67091204D01*
X151821959Y-67055552D01*
X151852624Y-67051700D01*
X152500000Y-67051700D01*
X152500000Y-66753872D01*
X152499998Y-66753838D01*
X152494280Y-66700671D01*
X152493598Y-66694327D01*
X152493596Y-66694320D01*
X152443354Y-66559613D01*
X152443350Y-66559606D01*
X152374430Y-66467542D01*
X152357191Y-66444513D01*
X152357188Y-66444510D01*
X152357176Y-66444500D01*
X152313710Y-66411961D01*
X152288755Y-66387006D01*
X152280438Y-66375896D01*
X152256020Y-66310432D01*
X152270869Y-66242164D01*
X152274599Y-66235333D01*
X152309118Y-66195498D01*
X152357546Y-66159246D01*
X152443796Y-66044031D01*
X152494091Y-65909183D01*
X152500500Y-65849573D01*
X152500499Y-64753828D01*
X152500499Y-64753822D01*
X152500498Y-64753820D01*
X152496727Y-64718737D01*
X152494091Y-64694217D01*
X152488298Y-64678686D01*
X152488166Y-64678333D01*
X152443798Y-64559373D01*
X152443797Y-64559371D01*
X152443793Y-64559364D01*
X152374730Y-64467108D01*
X152357548Y-64444156D01*
X152357542Y-64444150D01*
X152288381Y-64392376D01*
X152242335Y-64357906D01*
X152242332Y-64357904D01*
X152242330Y-64357903D01*
X152242328Y-64357902D01*
X152192844Y-64339446D01*
X152157497Y-64312984D01*
X152055583Y-64302028D01*
X152050742Y-64301200D01*
X152047881Y-64301200D01*
X152047873Y-64301200D01*
X152047864Y-64301200D01*
X150952129Y-64301200D01*
X150952123Y-64301200D01*
X150950192Y-64301359D01*
X150948545Y-64301585D01*
X150892516Y-64307608D01*
X150784684Y-64347827D01*
X150757666Y-64357904D01*
X150757659Y-64357909D01*
X150711616Y-64392376D01*
X150707780Y-64394232D01*
X150705832Y-64396454D01*
X150690435Y-64406662D01*
X150690430Y-64406667D01*
X150690120Y-64406975D01*
X150677098Y-64418215D01*
X150642453Y-64444152D01*
X150618322Y-64476386D01*
X150606424Y-64490067D01*
X150586835Y-64509516D01*
X150525392Y-64542781D01*
X150455719Y-64537547D01*
X150440045Y-64530354D01*
X150433321Y-64526682D01*
X150393487Y-64492165D01*
X150391916Y-64490067D01*
X150374731Y-64467110D01*
X150364185Y-64453023D01*
X150359680Y-64445729D01*
X150355013Y-64442037D01*
X150352189Y-64439678D01*
X150348639Y-64437486D01*
X150338639Y-64430000D01*
X150242335Y-64357906D01*
X150242332Y-64357904D01*
X150242330Y-64357903D01*
X150242328Y-64357902D01*
X150192844Y-64339446D01*
X150157497Y-64312984D01*
X150055583Y-64302028D01*
X150050742Y-64301200D01*
X150047881Y-64301200D01*
X150047873Y-64301200D01*
X150047864Y-64301200D01*
X148952129Y-64301200D01*
X148952123Y-64301200D01*
X148950192Y-64301359D01*
X148948545Y-64301585D01*
X148892515Y-64307608D01*
X148892514Y-64307608D01*
X148757671Y-64357901D01*
X148757653Y-64357909D01*
X148757593Y-64357940D01*
X148745504Y-64363197D01*
X148724303Y-64371105D01*
X148654612Y-64376090D01*
X148652499Y-64375631D01*
X148648404Y-64374740D01*
X148587092Y-64341257D01*
X148446528Y-64200693D01*
X148446508Y-64200671D01*
X148323322Y-64077485D01*
X148323317Y-64077481D01*
X148323309Y-64077475D01*
X148204122Y-64008663D01*
X148178847Y-63989268D01*
X148161029Y-63991184D01*
X148150953Y-63988929D01*
X148033657Y-63957499D01*
X148033654Y-63957499D01*
X147866043Y-63957499D01*
X147865980Y-63957500D01*
X120549621Y-63957500D01*
X120549558Y-63957499D01*
X120547654Y-63957499D01*
X120540058Y-63957499D01*
X120381943Y-63957499D01*
X120305578Y-63977960D01*
X120305579Y-63977961D01*
X120229217Y-63998422D01*
X120229215Y-63998422D01*
X120229214Y-63998423D01*
X120229212Y-63998423D01*
X120229143Y-63998453D01*
X120228334Y-63998930D01*
X120092298Y-64077470D01*
X120092294Y-64077472D01*
X120092290Y-64077475D01*
X120092282Y-64077481D01*
X120092278Y-64077484D01*
X120092276Y-64077485D01*
X118017913Y-66151849D01*
X117974343Y-66180057D01*
X117447111Y-66380737D01*
X117377454Y-66386188D01*
X117315908Y-66353115D01*
X117282013Y-66292017D01*
X117279000Y-66264848D01*
X117279000Y-66080000D01*
X116647002Y-66080000D01*
X116579963Y-66060315D01*
X116539615Y-66018000D01*
X116529077Y-65999748D01*
X116529073Y-65999743D01*
X116459256Y-65929926D01*
X116459251Y-65929922D01*
X116373747Y-65880557D01*
X116373746Y-65880556D01*
X116344579Y-65872741D01*
X116278370Y-65855000D01*
X116278367Y-65855000D01*
X116179633Y-65855000D01*
X116179630Y-65855000D01*
X116122405Y-65870333D01*
X116084253Y-65880556D01*
X116084252Y-65880557D01*
X115998748Y-65929922D01*
X115998743Y-65929926D01*
X115928926Y-65999743D01*
X115928922Y-65999748D01*
X115918385Y-66018000D01*
X115867818Y-66066216D01*
X115810998Y-66080000D01*
X115179000Y-66080000D01*
X115179000Y-66357670D01*
X115173975Y-66392614D01*
X115169570Y-66407612D01*
X115131827Y-66466355D01*
X115130458Y-66467542D01*
X115075597Y-66495018D01*
X115068039Y-66496663D01*
X115041668Y-66499500D01*
X114361123Y-66499500D01*
X114359192Y-66499659D01*
X114357545Y-66499885D01*
X114301516Y-66505908D01*
X114188287Y-66548140D01*
X114166666Y-66556204D01*
X114166665Y-66556205D01*
X114051456Y-66642450D01*
X114051450Y-66642456D01*
X113965205Y-66757665D01*
X113965203Y-66757668D01*
X113914908Y-66892516D01*
X113908500Y-66952125D01*
X113908500Y-68847876D01*
X113908659Y-68849806D01*
X113908885Y-68851454D01*
X113914907Y-68907482D01*
X113942690Y-68981971D01*
X113965202Y-69042328D01*
X113965203Y-69042330D01*
X113965204Y-69042332D01*
X113965205Y-69042333D01*
X114051450Y-69157542D01*
X114051456Y-69157548D01*
X114072199Y-69173076D01*
X114166664Y-69243793D01*
X114166671Y-69243797D01*
X114188574Y-69251966D01*
X114188578Y-69251969D01*
X114188579Y-69251968D01*
X114301517Y-69294091D01*
X114361127Y-69300500D01*
X114552074Y-69300499D01*
X114586998Y-69305518D01*
X114597854Y-69308706D01*
X114656632Y-69346475D01*
X114685662Y-69410028D01*
X114675723Y-69479187D01*
X114675721Y-69479192D01*
X114672535Y-69486169D01*
X114647420Y-69522342D01*
X114319190Y-69850573D01*
X114290941Y-69871721D01*
X114267854Y-69884329D01*
X114208422Y-69899500D01*
X109293951Y-69899500D01*
X109238787Y-69886554D01*
X108152115Y-69346765D01*
X108110760Y-69328480D01*
X108105242Y-69326636D01*
X108105478Y-69325928D01*
X108087358Y-69319307D01*
X108060297Y-69305519D01*
X108039223Y-69294781D01*
X107844534Y-69231522D01*
X107844532Y-69231521D01*
X107844530Y-69231521D01*
X107844529Y-69231520D01*
X107666956Y-69203397D01*
X107666659Y-69203350D01*
X107642352Y-69199500D01*
X107642351Y-69199500D01*
X107437647Y-69199500D01*
X107413327Y-69203351D01*
X107413326Y-69203350D01*
X107235468Y-69231521D01*
X107040777Y-69294780D01*
X107040764Y-69294786D01*
X106858397Y-69387708D01*
X106858385Y-69387715D01*
X106692787Y-69508027D01*
X106692784Y-69508029D01*
X106548029Y-69652784D01*
X106548027Y-69652787D01*
X106427715Y-69818385D01*
X106427708Y-69818397D01*
X106334786Y-70000764D01*
X106334780Y-70000777D01*
X106271521Y-70195468D01*
X106239500Y-70397642D01*
X106239500Y-70602356D01*
X106269443Y-70791409D01*
X106271522Y-70804534D01*
X106285740Y-70848291D01*
X106334780Y-70999221D01*
X106334783Y-70999228D01*
X106381034Y-71089998D01*
X106381034Y-71090000D01*
X106381035Y-71090000D01*
X106424233Y-71174781D01*
X106427715Y-71181613D01*
X106548028Y-71347213D01*
X106692786Y-71491971D01*
X106784732Y-71558772D01*
X106808438Y-71575995D01*
X106808441Y-71575998D01*
X106852372Y-71607915D01*
X106858390Y-71612287D01*
X106953182Y-71660586D01*
X107027389Y-71698397D01*
X107034329Y-71701933D01*
X107035925Y-71702868D01*
X107039623Y-71704659D01*
X107041638Y-71705660D01*
X107045406Y-71706723D01*
X107071296Y-71715135D01*
X107112077Y-71728385D01*
X107112078Y-71728386D01*
X107134964Y-71735822D01*
X107235465Y-71768477D01*
X107327595Y-71783069D01*
X107437648Y-71800500D01*
X107437649Y-71800500D01*
X107642351Y-71800500D01*
X107642352Y-71800500D01*
X107844534Y-71768477D01*
X108039219Y-71705220D01*
X108112907Y-71667673D01*
X108130387Y-71660391D01*
X108152116Y-71653234D01*
X109238786Y-71113446D01*
X109293950Y-71100500D01*
X114430380Y-71100500D01*
X114430443Y-71100501D01*
X114432347Y-71100501D01*
X114439943Y-71100501D01*
X114598054Y-71100501D01*
X114598057Y-71100501D01*
X114750785Y-71059577D01*
X114800904Y-71030639D01*
X114887716Y-70980520D01*
X114999520Y-70868716D01*
X114999520Y-70868714D01*
X115009728Y-70858507D01*
X115009728Y-70858505D01*
X115010233Y-70858001D01*
X115010243Y-70857992D01*
X115019926Y-70848310D01*
X115019937Y-70848295D01*
X116652233Y-69216000D01*
X116680488Y-69194850D01*
X116694208Y-69187359D01*
X116762474Y-69172509D01*
X116770405Y-69173076D01*
X116827532Y-69191766D01*
X116863228Y-69214195D01*
X116869495Y-69218404D01*
X116904500Y-69243494D01*
X116947521Y-69298548D01*
X116953948Y-69368122D01*
X116921741Y-69430125D01*
X116921736Y-69430130D01*
X116917424Y-69434624D01*
X116885658Y-69457891D01*
X116885832Y-69458192D01*
X116883606Y-69459477D01*
X116883604Y-69459477D01*
X116883075Y-69459782D01*
X116882809Y-69459978D01*
X116882316Y-69460220D01*
X116745388Y-69539276D01*
X116745385Y-69539277D01*
X116745382Y-69539280D01*
X116684164Y-69600500D01*
X116684163Y-69600499D01*
X116633581Y-69651083D01*
X116633578Y-69651086D01*
X115016950Y-71267715D01*
X113434091Y-72850573D01*
X113405840Y-72871722D01*
X113382752Y-72884330D01*
X113323322Y-72899500D01*
X96933910Y-72899500D01*
X96866871Y-72879815D01*
X96854527Y-72870759D01*
X96645117Y-72696249D01*
X96606218Y-72638209D01*
X96600500Y-72600990D01*
X96600500Y-72413389D01*
X96585709Y-72320004D01*
X96585709Y-72320003D01*
X96573402Y-72242298D01*
X96573401Y-72242295D01*
X96519871Y-72077550D01*
X96456094Y-71952381D01*
X96441232Y-71923212D01*
X96339414Y-71783072D01*
X96216928Y-71660586D01*
X96076788Y-71558768D01*
X96076780Y-71558764D01*
X95922449Y-71480128D01*
X95766532Y-71429467D01*
X95762010Y-71427614D01*
X95752820Y-71425444D01*
X95748057Y-71425070D01*
X95737513Y-71423400D01*
X95626271Y-71405781D01*
X95610407Y-71403268D01*
X95586614Y-71399500D01*
X95586611Y-71399500D01*
X95413389Y-71399500D01*
X95413388Y-71399500D01*
X95373726Y-71405781D01*
X95373725Y-71405780D01*
X95242304Y-71426596D01*
X95077549Y-71480129D01*
X94923218Y-71558764D01*
X94923205Y-71558772D01*
X94869316Y-71597925D01*
X94794942Y-71651961D01*
X94787563Y-71656093D01*
X94656094Y-71787562D01*
X94651962Y-71794941D01*
X94558768Y-71923210D01*
X94480129Y-72077549D01*
X94426596Y-72242305D01*
X94414290Y-72320004D01*
X94406069Y-72371913D01*
X94403435Y-72388543D01*
X94399500Y-72413386D01*
X94399500Y-74586610D01*
X94420429Y-74718755D01*
X94426598Y-74757701D01*
X94480127Y-74922445D01*
X94558768Y-75076788D01*
X94660586Y-75216928D01*
X94723102Y-75279444D01*
X94783072Y-75339414D01*
X94783571Y-75339823D01*
X94785094Y-75340884D01*
X94851598Y-75389203D01*
X94876909Y-75413801D01*
X94885384Y-75424792D01*
X94910732Y-75489902D01*
X94896859Y-75558373D01*
X94893599Y-75564552D01*
X94856814Y-75607007D01*
X94783069Y-75660587D01*
X94656096Y-75787560D01*
X94651967Y-75794935D01*
X94648687Y-75799450D01*
X94558768Y-75923211D01*
X94558765Y-75923215D01*
X94558764Y-75923218D01*
X94480129Y-76077549D01*
X94480128Y-76077551D01*
X94480128Y-76077552D01*
X94469109Y-76111466D01*
X94426596Y-76242305D01*
X94399500Y-76413383D01*
X94399500Y-78586614D01*
X94424819Y-78746471D01*
X94424821Y-78746485D01*
X94426598Y-78757701D01*
X94480127Y-78922445D01*
X94558768Y-79076788D01*
X94660586Y-79216928D01*
X94724469Y-79280811D01*
X94783072Y-79339414D01*
X94783571Y-79339823D01*
X94785094Y-79340884D01*
X94851598Y-79389203D01*
X94876909Y-79413801D01*
X94885384Y-79424792D01*
X94910732Y-79489902D01*
X94896859Y-79558373D01*
X94893599Y-79564552D01*
X94856814Y-79607007D01*
X94783069Y-79660587D01*
X94656093Y-79787563D01*
X94651961Y-79794942D01*
X94624771Y-79832366D01*
X94558772Y-79923205D01*
X94558768Y-79923211D01*
X94558766Y-79923213D01*
X94558764Y-79923218D01*
X94480129Y-80077549D01*
X94426596Y-80242305D01*
X94399500Y-80413383D01*
X94399500Y-80600989D01*
X94379815Y-80668028D01*
X94354883Y-80696248D01*
X94145471Y-80870759D01*
X94081368Y-80898555D01*
X94066088Y-80899500D01*
X91933910Y-80899500D01*
X91866871Y-80879815D01*
X91854527Y-80870759D01*
X91645117Y-80696249D01*
X91606218Y-80638209D01*
X91600500Y-80600990D01*
X91600500Y-80413389D01*
X91600101Y-80410869D01*
X91598079Y-80398102D01*
X91573402Y-80242299D01*
X91519873Y-80077555D01*
X91441232Y-79923212D01*
X91339414Y-79783072D01*
X91216928Y-79660586D01*
X91148397Y-79610795D01*
X91123091Y-79586202D01*
X91122731Y-79585735D01*
X91114615Y-79575210D01*
X91089265Y-79510103D01*
X91103138Y-79441626D01*
X91106404Y-79435437D01*
X91143185Y-79392990D01*
X91216365Y-79339823D01*
X91216924Y-79339417D01*
X91216924Y-79339416D01*
X91216928Y-79339414D01*
X91339414Y-79216928D01*
X91441232Y-79076788D01*
X91519873Y-78922445D01*
X91573402Y-78757701D01*
X91600500Y-78586611D01*
X91600500Y-76413389D01*
X91573402Y-76242299D01*
X91519873Y-76077555D01*
X91441232Y-75923212D01*
X91339414Y-75783072D01*
X91216928Y-75660586D01*
X91148397Y-75610795D01*
X91123091Y-75586202D01*
X91122731Y-75585735D01*
X91114615Y-75575210D01*
X91089265Y-75510103D01*
X91103138Y-75441626D01*
X91106404Y-75435437D01*
X91143185Y-75392990D01*
X91216365Y-75339823D01*
X91216924Y-75339417D01*
X91216924Y-75339416D01*
X91216928Y-75339414D01*
X91339414Y-75216928D01*
X91441232Y-75076788D01*
X91519873Y-74922445D01*
X91573402Y-74757701D01*
X91600500Y-74586611D01*
X91600500Y-72413389D01*
X91573402Y-72242299D01*
X91519873Y-72077555D01*
X91441232Y-71923212D01*
X91406035Y-71874769D01*
X91395718Y-71857880D01*
X91386513Y-71839693D01*
X91371578Y-71818386D01*
X91332126Y-71762101D01*
X91309767Y-71695907D01*
X91326744Y-71628132D01*
X91329332Y-71623920D01*
X91332409Y-71619133D01*
X91349038Y-71598495D01*
X91401573Y-71545962D01*
X91680082Y-71267453D01*
X91738477Y-71209058D01*
X91798111Y-71149425D01*
X91826364Y-71128274D01*
X91849454Y-71115667D01*
X91908879Y-71100500D01*
X100786050Y-71100500D01*
X100841214Y-71113446D01*
X101927882Y-71653233D01*
X101969239Y-71671519D01*
X101969245Y-71671520D01*
X101974753Y-71673361D01*
X101974512Y-71674079D01*
X101992638Y-71680690D01*
X102034329Y-71701933D01*
X102035925Y-71702867D01*
X102039638Y-71704666D01*
X102041635Y-71705659D01*
X102045403Y-71706722D01*
X102071296Y-71715135D01*
X102112077Y-71728385D01*
X102112078Y-71728386D01*
X102134964Y-71735822D01*
X102235465Y-71768477D01*
X102327595Y-71783069D01*
X102437648Y-71800500D01*
X102437649Y-71800500D01*
X102642351Y-71800500D01*
X102642352Y-71800500D01*
X102844534Y-71768477D01*
X103039219Y-71705220D01*
X103221610Y-71612287D01*
X103295279Y-71558764D01*
X103331043Y-71532781D01*
X103361339Y-71510769D01*
X103387213Y-71491971D01*
X103387215Y-71491968D01*
X103387219Y-71491966D01*
X103387221Y-71491963D01*
X103387275Y-71491924D01*
X103388032Y-71491152D01*
X103531148Y-71348036D01*
X103531926Y-71347274D01*
X103531969Y-71347213D01*
X103531971Y-71347213D01*
X103599187Y-71254696D01*
X103625297Y-71218759D01*
X103625302Y-71218751D01*
X103652287Y-71181610D01*
X103745220Y-70999219D01*
X103808477Y-70804534D01*
X103840500Y-70602352D01*
X103840500Y-70397648D01*
X103817219Y-70250662D01*
X103808479Y-70195478D01*
X103808477Y-70195468D01*
X103808477Y-70195466D01*
X103808182Y-70194559D01*
X103798516Y-70164811D01*
X103751296Y-70019481D01*
X103751296Y-70019480D01*
X103746723Y-70005408D01*
X103745659Y-70001635D01*
X103744662Y-69999629D01*
X103742870Y-69995930D01*
X103741932Y-69994327D01*
X103711503Y-69934607D01*
X103692171Y-69896666D01*
X103652287Y-69818390D01*
X103644556Y-69807749D01*
X103531971Y-69652786D01*
X103387213Y-69508028D01*
X103387212Y-69508027D01*
X103387211Y-69508026D01*
X103229507Y-69393450D01*
X103229168Y-69393161D01*
X103221603Y-69387707D01*
X103221239Y-69387524D01*
X103164278Y-69358501D01*
X103164278Y-69358500D01*
X103164276Y-69358500D01*
X103039228Y-69294783D01*
X103039221Y-69294780D01*
X102934316Y-69260694D01*
X102844534Y-69231522D01*
X102844532Y-69231521D01*
X102844530Y-69231521D01*
X102844529Y-69231520D01*
X102666956Y-69203397D01*
X102666659Y-69203350D01*
X102642352Y-69199500D01*
X102642351Y-69199500D01*
X102437647Y-69199500D01*
X102413327Y-69203351D01*
X102413326Y-69203350D01*
X102235468Y-69231521D01*
X102040770Y-69294783D01*
X101967102Y-69332318D01*
X101949613Y-69339605D01*
X101927887Y-69346763D01*
X100841212Y-69886554D01*
X100786048Y-69899500D01*
X91686921Y-69899500D01*
X91686858Y-69899499D01*
X91684954Y-69899499D01*
X91677358Y-69899499D01*
X91519243Y-69899499D01*
X91442878Y-69919960D01*
X91442879Y-69919961D01*
X91366517Y-69940422D01*
X91366515Y-69940422D01*
X91366514Y-69940423D01*
X91366512Y-69940423D01*
X91366443Y-69940453D01*
X91365634Y-69940930D01*
X91229598Y-70019470D01*
X91229580Y-70019482D01*
X90305266Y-70943795D01*
X90291900Y-70955378D01*
X90270876Y-70971117D01*
X90270862Y-70971129D01*
X90073486Y-71168505D01*
X90073479Y-71168513D01*
X90045031Y-71203184D01*
X90036856Y-71212205D01*
X90019482Y-71229580D01*
X90019478Y-71229585D01*
X90011864Y-71242773D01*
X90008804Y-71247696D01*
X90008035Y-71248979D01*
X90005923Y-71252930D01*
X90003974Y-71256438D01*
X89997624Y-71267440D01*
X89997615Y-71267455D01*
X89979973Y-71298012D01*
X89951566Y-71347214D01*
X89943409Y-71361343D01*
X89943402Y-71361356D01*
X89940420Y-71366519D01*
X89938794Y-71370445D01*
X89925777Y-71394156D01*
X89613493Y-71839681D01*
X89591378Y-71874118D01*
X89590426Y-71875742D01*
X89590367Y-71875869D01*
X89590296Y-71875988D01*
X89589076Y-71878312D01*
X89588962Y-71878252D01*
X89578341Y-71896269D01*
X89558771Y-71923205D01*
X89480129Y-72077549D01*
X89426596Y-72242305D01*
X89406203Y-72371063D01*
X89406196Y-72371108D01*
X89406069Y-72371913D01*
X89399500Y-72413389D01*
X83700500Y-72413389D01*
X83700500Y-72388543D01*
X83671404Y-72167537D01*
X83613710Y-71952219D01*
X83528405Y-71746274D01*
X83416948Y-71553226D01*
X83360858Y-71480128D01*
X83320563Y-71427614D01*
X83281262Y-71376395D01*
X83281258Y-71376390D01*
X83281248Y-71376377D01*
X83281242Y-71376370D01*
X83123629Y-71218757D01*
X83123622Y-71218751D01*
X83123612Y-71218743D01*
X83123603Y-71218736D01*
X82948754Y-71084571D01*
X82946873Y-71083067D01*
X82945486Y-71082233D01*
X82943589Y-71081212D01*
X82753767Y-70971618D01*
X82753715Y-70971589D01*
X82743165Y-70967219D01*
X82691651Y-70945882D01*
X82661301Y-70927874D01*
X82654296Y-70922229D01*
X82614448Y-70864837D01*
X82611954Y-70795012D01*
X82647606Y-70734923D01*
X82703596Y-70704999D01*
X82708583Y-70703821D01*
X82737089Y-70700500D01*
X83000003Y-70700500D01*
X83000008Y-70700500D01*
X83102797Y-70689999D01*
X83269334Y-70634814D01*
X83418655Y-70542711D01*
X83542711Y-70418655D01*
X83609667Y-70310101D01*
X83632704Y-70282627D01*
X84362899Y-69631924D01*
X84426045Y-69602019D01*
X84445396Y-69600500D01*
X94411380Y-69600500D01*
X94411443Y-69600501D01*
X94413347Y-69600501D01*
X94420943Y-69600501D01*
X94579054Y-69600501D01*
X94579057Y-69600501D01*
X94731785Y-69559577D01*
X94781904Y-69530639D01*
X94868716Y-69480520D01*
X94980520Y-69368716D01*
X94980520Y-69368715D01*
X94997960Y-69351275D01*
X94997961Y-69351272D01*
X97291676Y-67057555D01*
X97339032Y-67027978D01*
X98364223Y-66675457D01*
X98404734Y-66659546D01*
X98404736Y-66659545D01*
X98409879Y-66656951D01*
X98410288Y-66657763D01*
X98427535Y-66649651D01*
X98470429Y-66635715D01*
X98642302Y-66548141D01*
X98798359Y-66434759D01*
X98934759Y-66298359D01*
X99048141Y-66142302D01*
X99135715Y-65970429D01*
X99195324Y-65786972D01*
X99225500Y-65596449D01*
X99225500Y-65403551D01*
X99195324Y-65213028D01*
X99178569Y-65161462D01*
X115179000Y-65161462D01*
X115179000Y-65161469D01*
X115179000Y-65580000D01*
X115979000Y-65580000D01*
X116479000Y-65580000D01*
X117279000Y-65580000D01*
X117279000Y-65161458D01*
X117278953Y-65161066D01*
X117264351Y-65031460D01*
X117206669Y-64866613D01*
X117113753Y-64718737D01*
X116990262Y-64595246D01*
X116842386Y-64502330D01*
X116842385Y-64502329D01*
X116842384Y-64502329D01*
X116677536Y-64444647D01*
X116547536Y-64430000D01*
X116547530Y-64430000D01*
X116479000Y-64430000D01*
X116479000Y-65580000D01*
X115979000Y-65580000D01*
X115979000Y-64430000D01*
X115910462Y-64430000D01*
X115780462Y-64444647D01*
X115615614Y-64502329D01*
X115467736Y-64595246D01*
X115344246Y-64718736D01*
X115251329Y-64866614D01*
X115193647Y-65031462D01*
X115179000Y-65161462D01*
X99178569Y-65161462D01*
X99135715Y-65029571D01*
X99048141Y-64857698D01*
X98945895Y-64716968D01*
X98933040Y-64694754D01*
X98925657Y-64678261D01*
X98916233Y-64609030D01*
X98945734Y-64545694D01*
X99004349Y-64508490D01*
X99015055Y-64505390D01*
X99049536Y-64500500D01*
X101819375Y-64500500D01*
X101875502Y-64500507D01*
X101875509Y-64500507D01*
X101911753Y-64500511D01*
X101921376Y-64502055D01*
X101922442Y-64501895D01*
X101940915Y-64500514D01*
X101955617Y-64500516D01*
X101964082Y-64495894D01*
X101971959Y-64494445D01*
X102153638Y-64467110D01*
X102368206Y-64401045D01*
X102570556Y-64303791D01*
X102756183Y-64177512D01*
X102920955Y-64025019D01*
X102920961Y-64025012D01*
X102942225Y-63998426D01*
X102995159Y-63932244D01*
X102995169Y-63932227D01*
X103032231Y-63885902D01*
X103032231Y-63885901D01*
X103045407Y-63869432D01*
X103045407Y-63869431D01*
X103045423Y-63869412D01*
X103045428Y-63869405D01*
X103047484Y-63866834D01*
X103047489Y-63866826D01*
X103561730Y-63224028D01*
X103584105Y-63196058D01*
X103588554Y-63190806D01*
X103593189Y-63185636D01*
X103597945Y-63180619D01*
X103654861Y-63123856D01*
X103665198Y-63114642D01*
X103676027Y-63106026D01*
X103687334Y-63098021D01*
X103746564Y-63060884D01*
X103758680Y-63054202D01*
X103771170Y-63048199D01*
X103783942Y-63042919D01*
X103849952Y-63019865D01*
X103863260Y-63016037D01*
X103876742Y-63012965D01*
X103890417Y-63010645D01*
X103970275Y-63001663D01*
X103977200Y-63001081D01*
X103984119Y-63000694D01*
X103991044Y-63000500D01*
X152289554Y-63000500D01*
X152296492Y-63000693D01*
G37*
G04 #@! TD.AperFunction*
G04 #@! TA.AperFunction,Conductor*
G36*
X96108200Y-72906833D02*
G01*
X96695790Y-73396492D01*
X96699952Y-73404420D01*
X96700000Y-73405479D01*
X96700000Y-73594520D01*
X96696573Y-73602793D01*
X96695790Y-73603508D01*
X96108201Y-74093165D01*
X96099652Y-74095829D01*
X96092445Y-74092457D01*
X95848572Y-73848990D01*
X95507292Y-73508278D01*
X95503859Y-73500010D01*
X95507278Y-73491735D01*
X96092445Y-72907541D01*
X96100721Y-72904122D01*
X96108200Y-72906833D01*
G37*
G04 #@! TD.AperFunction*
G04 #@! TA.AperFunction,Conductor*
G36*
X127809481Y-85263629D02*
G01*
X128889961Y-85790495D01*
X128895895Y-85797201D01*
X128896533Y-85801011D01*
X128896533Y-85986388D01*
X128893106Y-85994661D01*
X128889961Y-85996904D01*
X127809483Y-86523769D01*
X127800545Y-86524315D01*
X127794067Y-86518825D01*
X127458549Y-85899270D01*
X127457623Y-85890365D01*
X127458550Y-85888128D01*
X127505728Y-85801011D01*
X127794068Y-85268572D01*
X127801020Y-85262931D01*
X127809481Y-85263629D01*
G37*
G04 #@! TD.AperFunction*
G04 #@! TA.AperFunction,Conductor*
G36*
X96002747Y-76166809D02*
G01*
X96451994Y-76404202D01*
X96454801Y-76406274D01*
X96589458Y-76540931D01*
X96592885Y-76549204D01*
X96592004Y-76553659D01*
X96104457Y-77737701D01*
X96098138Y-77744046D01*
X96089183Y-77744065D01*
X96089176Y-77744062D01*
X95509687Y-77504995D01*
X95503346Y-77498672D01*
X95503165Y-77490151D01*
X95986303Y-76173127D01*
X95992369Y-76166541D01*
X96001316Y-76166173D01*
X96002747Y-76166809D01*
G37*
G04 #@! TD.AperFunction*
G04 #@! TA.AperFunction,Conductor*
G36*
X142462968Y-70427303D02*
G01*
X143492158Y-71411544D01*
X143495769Y-71419739D01*
X143492528Y-71428086D01*
X143492158Y-71428456D01*
X142462968Y-72412696D01*
X142454621Y-72415937D01*
X142447290Y-72413142D01*
X141404109Y-71523503D01*
X141400038Y-71515528D01*
X141400001Y-71514601D01*
X141400001Y-71325398D01*
X141403428Y-71317125D01*
X141404099Y-71316504D01*
X142447290Y-70426856D01*
X142455809Y-70424096D01*
X142462968Y-70427303D01*
G37*
G04 #@! TD.AperFunction*
M02*
