G04 #@! TF.GenerationSoftware,KiCad,Pcbnew,10.0.5-71-g2cb2c974e9*
G04 #@! TF.CreationDate,2026-09-09T17:04:39-04:00*
G04 #@! TF.ProjectId,Fury-Taur,46757279-2d54-4617-9572-2e6b69636164,rev?*
G04 #@! TF.SameCoordinates,Original*
G04 #@! TF.FileFunction,Copper,L2,Bot*
G04 #@! TF.FilePolarity,Positive*
%FSLAX46Y46*%
G04 Gerber Fmt 4.6, Leading zero omitted, Abs format (unit mm)*
G04 Created by KiCad (PCBNEW 10.0.5-71-g2cb2c974e9) date 2026-09-09 17:04:39*
%MOMM*%
%LPD*%
G01*
G04 APERTURE LIST*
G04 Aperture macros list*
%AMRoundRect*
0 Rectangle with rounded corners*
0 $1 Rounding radius*
0 $2 $3 $4 $5 $6 $7 $8 $9 X,Y pos of 4 corners*
0 Add a 4 corners polygon primitive as box body*
4,1,4,$2,$3,$4,$5,$6,$7,$8,$9,$2,$3,0*
0 Add four circle primitives for the rounded corners*
1,1,$1+$1,$2,$3*
1,1,$1+$1,$4,$5*
1,1,$1+$1,$6,$7*
1,1,$1+$1,$8,$9*
0 Add four rect primitives between the rounded corners*
20,1,$1+$1,$2,$3,$4,$5,0*
20,1,$1+$1,$4,$5,$6,$7,0*
20,1,$1+$1,$6,$7,$8,$9,0*
20,1,$1+$1,$8,$9,$2,$3,0*%
G04 Aperture macros list end*
G04 #@! TA.AperFunction,ComponentPad*
%ADD10C,1.440000*%
G04 #@! TD*
G04 #@! TA.AperFunction,ComponentPad*
%ADD11C,2.400000*%
G04 #@! TD*
G04 #@! TA.AperFunction,ComponentPad*
%ADD12RoundRect,0.250001X-0.949999X0.949999X-0.949999X-0.949999X0.949999X-0.949999X0.949999X0.949999X0*%
G04 #@! TD*
G04 #@! TA.AperFunction,ComponentPad*
%ADD13RoundRect,0.250000X-0.600000X-0.600000X0.600000X-0.600000X0.600000X0.600000X-0.600000X0.600000X0*%
G04 #@! TD*
G04 #@! TA.AperFunction,ComponentPad*
%ADD14RoundRect,0.250000X-0.550000X-0.550000X0.550000X-0.550000X0.550000X0.550000X-0.550000X0.550000X0*%
G04 #@! TD*
G04 #@! TA.AperFunction,ComponentPad*
%ADD15C,1.600000*%
G04 #@! TD*
G04 #@! TA.AperFunction,ComponentPad*
%ADD16O,3.000000X1.200000*%
G04 #@! TD*
G04 #@! TA.AperFunction,ComponentPad*
%ADD17R,1.000000X1.000000*%
G04 #@! TD*
G04 #@! TA.AperFunction,ComponentPad*
%ADD18R,1.100000X1.800000*%
G04 #@! TD*
G04 #@! TA.AperFunction,ComponentPad*
%ADD19RoundRect,0.275000X-0.275000X-0.625000X0.275000X-0.625000X0.275000X0.625000X-0.275000X0.625000X0*%
G04 #@! TD*
G04 #@! TA.AperFunction,ComponentPad*
%ADD20C,1.400000*%
G04 #@! TD*
G04 #@! TA.AperFunction,ComponentPad*
%ADD21C,1.450000*%
G04 #@! TD*
G04 #@! TA.AperFunction,ComponentPad*
%ADD22RoundRect,0.250001X0.949999X-0.949999X0.949999X0.949999X-0.949999X0.949999X-0.949999X-0.949999X0*%
G04 #@! TD*
G04 #@! TA.AperFunction,ComponentPad*
%ADD23RoundRect,0.249999X0.850001X-0.850001X0.850001X0.850001X-0.850001X0.850001X-0.850001X-0.850001X0*%
G04 #@! TD*
G04 #@! TA.AperFunction,ComponentPad*
%ADD24C,2.200000*%
G04 #@! TD*
G04 #@! TA.AperFunction,ComponentPad*
%ADD25O,2.200000X3.500000*%
G04 #@! TD*
G04 #@! TA.AperFunction,ComponentPad*
%ADD26R,1.500000X2.500000*%
G04 #@! TD*
G04 #@! TA.AperFunction,ComponentPad*
%ADD27O,1.500000X2.500000*%
G04 #@! TD*
G04 #@! TA.AperFunction,ComponentPad*
%ADD28O,1.200000X3.200000*%
G04 #@! TD*
G04 #@! TA.AperFunction,ComponentPad*
%ADD29RoundRect,0.249999X-0.850001X0.850001X-0.850001X-0.850001X0.850001X-0.850001X0.850001X0.850001X0*%
G04 #@! TD*
G04 #@! TA.AperFunction,Conductor*
%ADD30C,0.200000*%
G04 #@! TD*
G04 APERTURE END LIST*
D10*
X134880000Y-66000000D03*
X132340000Y-66000000D03*
X129800000Y-66000000D03*
D11*
X82000000Y-83000000D03*
X82000000Y-79500000D03*
X82000000Y-76000000D03*
X82000000Y-72500000D03*
D12*
X82000000Y-69000000D03*
D13*
X151000000Y-85500000D03*
D10*
X145680000Y-66000000D03*
X143140000Y-66000000D03*
X140600000Y-66000000D03*
D14*
X126500000Y-72380000D03*
D15*
X136660000Y-72380000D03*
D16*
X87750000Y-86400000D03*
D15*
X132500000Y-78000000D03*
X127500000Y-78000000D03*
D17*
X151500000Y-65301700D03*
D15*
X106520000Y-84000000D03*
X104520000Y-84000000D03*
X121200000Y-72500000D03*
X116200000Y-72500000D03*
X107540000Y-70500000D03*
X102540000Y-70500000D03*
D17*
X151500000Y-67301700D03*
D15*
X121000000Y-78000000D03*
X116000000Y-78000000D03*
D18*
X122500000Y-67900000D03*
D19*
X123770000Y-65830000D03*
X125040000Y-67900000D03*
D17*
X149500000Y-65301700D03*
D20*
X101000000Y-76300000D03*
X108620000Y-76300000D03*
D21*
X88000000Y-65500000D03*
X93000000Y-65500000D03*
X98000000Y-65500000D03*
D13*
X148000000Y-85500000D03*
D20*
X111500000Y-83000000D03*
X111500000Y-75380000D03*
X124000000Y-72380000D03*
X124000000Y-80000000D03*
D22*
X149500000Y-79500000D03*
D11*
X149500000Y-76000000D03*
X149500000Y-72500000D03*
D10*
X121040000Y-85893700D03*
X118500000Y-85893700D03*
X115960000Y-85893700D03*
D23*
X139850000Y-81580000D03*
D24*
X139850000Y-71420000D03*
D25*
X144600000Y-86000000D03*
X136400000Y-86000000D03*
D26*
X142500000Y-86000000D03*
D27*
X140500000Y-86000000D03*
X138500000Y-86000000D03*
D28*
X90500000Y-73500000D03*
X90500000Y-77500000D03*
X90500000Y-81500000D03*
X95500000Y-73500000D03*
X95500000Y-77500000D03*
X95500000Y-81500000D03*
D16*
X93000000Y-86400000D03*
D10*
X132540000Y-85893700D03*
X130000000Y-85893700D03*
X127460000Y-85893700D03*
D18*
X114959000Y-67900000D03*
D19*
X116229000Y-65830000D03*
X117499000Y-67900000D03*
D17*
X149500000Y-67301700D03*
D29*
X143500000Y-71420000D03*
D24*
X143500000Y-81580000D03*
D30*
X111500000Y-68777500D02*
X111500000Y-75380000D01*
X115696100Y-64581400D02*
X111500000Y-68777500D01*
X134880000Y-66000000D02*
X133461400Y-64581400D01*
X133461400Y-64581400D02*
X115696100Y-64581400D01*
X130840000Y-67500000D02*
X132340000Y-66000000D01*
X125040000Y-67500000D02*
X130840000Y-67500000D01*
X82000000Y-72500000D02*
X82000000Y-76000000D01*
X152264400Y-78764400D02*
X149500000Y-76000000D01*
X152264400Y-84235600D02*
X152264400Y-78764400D01*
X151000000Y-85500000D02*
X152264400Y-84235600D01*
X140500000Y-86000000D02*
X140500000Y-84448300D01*
X141422000Y-70258000D02*
X145680000Y-66000000D01*
X140500000Y-84448300D02*
X141422000Y-83526300D01*
X141422000Y-83526300D02*
X141422000Y-70258000D01*
X131038200Y-86931900D02*
X130000000Y-85893700D01*
X121000000Y-78000000D02*
X121000000Y-80714900D01*
X126500000Y-72380000D02*
X132120000Y-78000000D01*
X121477600Y-86937300D02*
X119543600Y-86937300D01*
X133599800Y-86315100D02*
X132983000Y-86931900D01*
X132983000Y-86931900D02*
X131038200Y-86931900D01*
X133599800Y-79099800D02*
X133599800Y-86315100D01*
X119543600Y-86937300D02*
X118500000Y-85893700D01*
X132500000Y-78000000D02*
X133599800Y-79099800D01*
X124350000Y-84064900D02*
X125631200Y-84064900D01*
X124350000Y-84064900D02*
X121477600Y-86937300D01*
X121000000Y-80714900D02*
X124350000Y-84064900D01*
X125631200Y-84064900D02*
X127460000Y-85893700D01*
X145181900Y-64972500D02*
X146369100Y-64972500D01*
X139613500Y-69426500D02*
X141189200Y-69426500D01*
X146369100Y-64972500D02*
X148698300Y-67301700D01*
X148000000Y-85500000D02*
X146700200Y-84200200D01*
X141189200Y-69426500D02*
X144410000Y-66205700D01*
X146700200Y-84200200D02*
X146700200Y-69299800D01*
X149500000Y-67301700D02*
X148698300Y-67301700D01*
X144410000Y-65744400D02*
X145181900Y-64972500D01*
X144410000Y-66205700D02*
X144410000Y-65744400D01*
X146700200Y-69299800D02*
X148698300Y-67301700D01*
X136660000Y-72380000D02*
X139613500Y-69426500D01*
X127500000Y-78000000D02*
X132540000Y-83040000D01*
X132540000Y-83040000D02*
X132540000Y-85893700D01*
X118146300Y-72500000D02*
X116200000Y-72500000D01*
X122466400Y-76820100D02*
X122466400Y-79927700D01*
X118146300Y-71002000D02*
X118146300Y-72500000D01*
X121648300Y-67500000D02*
X118146300Y-71002000D01*
X124485200Y-81014800D02*
X127500000Y-78000000D01*
X122466400Y-79927700D02*
X123553500Y-81014800D01*
X122500000Y-67500000D02*
X121648300Y-67500000D01*
X118146300Y-72500000D02*
X122466400Y-76820100D01*
X123553500Y-81014800D02*
X124485200Y-81014800D01*
X106800000Y-70500000D02*
X107540000Y-70500000D01*
X101000000Y-76300000D02*
X106800000Y-70500000D01*
X121040000Y-83040000D02*
X121040000Y-85893700D01*
X114959000Y-76959000D02*
X116000000Y-78000000D01*
X116000000Y-78000000D02*
X121040000Y-83040000D01*
X114959000Y-67520000D02*
X114959000Y-76959000D01*
X93000000Y-73285200D02*
X93000000Y-65500000D01*
X90500000Y-77500000D02*
X90500000Y-75598300D01*
X90686900Y-75598300D02*
X93000000Y-73285200D01*
X90500000Y-75598300D02*
X90686900Y-75598300D01*
X138500000Y-86000000D02*
X138500000Y-87551700D01*
X137981700Y-88070000D02*
X135759400Y-88070000D01*
X138500000Y-87551700D02*
X137981700Y-88070000D01*
X135759400Y-88070000D02*
X134997900Y-87308500D01*
X134997900Y-87308500D02*
X134997900Y-76272100D01*
X134997900Y-76272100D02*
X139850000Y-71420000D01*
G04 #@! TA.AperFunction,Conductor*
G36*
X126521840Y-84809588D02*
G01*
X126529938Y-84812377D01*
X127658405Y-85201052D01*
X127665110Y-85206985D01*
X127665809Y-85215448D01*
X127464964Y-85890784D01*
X127459321Y-85897737D01*
X127457084Y-85898664D01*
X126781748Y-86099509D01*
X126772841Y-86098582D01*
X126767352Y-86092105D01*
X126461706Y-85204703D01*
X126375888Y-84955540D01*
X126376434Y-84946602D01*
X126378674Y-84943460D01*
X126509758Y-84812376D01*
X126518030Y-84808950D01*
X126521840Y-84809588D01*
G37*
G04 #@! TD.AperFunction*
G04 #@! TA.AperFunction,Conductor*
G36*
X130687158Y-85688817D02*
G01*
X130692648Y-85695295D01*
X131084111Y-86831859D01*
X131083565Y-86840797D01*
X131081322Y-86843942D01*
X130950242Y-86975022D01*
X130941969Y-86978449D01*
X130938159Y-86977811D01*
X129801595Y-86586348D01*
X129794889Y-86580414D01*
X129794190Y-86571953D01*
X129995036Y-85896613D01*
X130000678Y-85889662D01*
X130002907Y-85888738D01*
X130678253Y-85687890D01*
X130687158Y-85688817D01*
G37*
G04 #@! TD.AperFunction*
G04 #@! TA.AperFunction,Conductor*
G36*
X138505972Y-86011862D02*
G01*
X138510061Y-86015951D01*
X139075538Y-86968685D01*
X139076814Y-86977549D01*
X139074466Y-86982146D01*
X138599999Y-87551699D01*
X138599998Y-87551701D01*
X138571601Y-87620260D01*
X138569065Y-87624056D01*
X138264542Y-87928580D01*
X138256269Y-87932007D01*
X138247996Y-87928580D01*
X138123793Y-87804377D01*
X138120366Y-87796104D01*
X138123793Y-87787831D01*
X138124450Y-87787222D01*
X138400000Y-87551700D01*
X137925533Y-86982146D01*
X137922870Y-86973596D01*
X137924459Y-86968688D01*
X138489939Y-86015950D01*
X138497108Y-86010586D01*
X138505972Y-86011862D01*
G37*
G04 #@! TD.AperFunction*
G04 #@! TA.AperFunction,Conductor*
G36*
X132640962Y-84460594D02*
G01*
X132643205Y-84463739D01*
X133170069Y-85544216D01*
X133170615Y-85553154D01*
X133165125Y-85559632D01*
X132545572Y-85895149D01*
X132536665Y-85896076D01*
X132534428Y-85895149D01*
X131914874Y-85559632D01*
X131909231Y-85552679D01*
X131909929Y-85544219D01*
X132436795Y-84463738D01*
X132443501Y-84457805D01*
X132447311Y-84457167D01*
X132632689Y-84457167D01*
X132640962Y-84460594D01*
G37*
G04 #@! TD.AperFunction*
G04 #@! TA.AperFunction,Conductor*
G36*
X150670957Y-75762706D02*
G01*
X150675807Y-75769495D01*
X151122032Y-77475819D01*
X151120810Y-77484690D01*
X151118986Y-77487052D01*
X150987052Y-77618986D01*
X150978779Y-77622413D01*
X150975819Y-77622032D01*
X149269495Y-77175807D01*
X149262358Y-77170399D01*
X149260987Y-77162169D01*
X149495139Y-76004288D01*
X149500138Y-75996858D01*
X149504288Y-75995139D01*
X150662169Y-75760987D01*
X150670957Y-75762706D01*
G37*
G04 #@! TD.AperFunction*
G04 #@! TA.AperFunction,Conductor*
G36*
X152296492Y-63000693D02*
G01*
X152303470Y-63001086D01*
X152310335Y-63001664D01*
X152323878Y-63003190D01*
X152390354Y-63010679D01*
X152398016Y-63013281D01*
X152404063Y-63013009D01*
X152417556Y-63016089D01*
X152430898Y-63019933D01*
X152490352Y-63040737D01*
X152510481Y-63050430D01*
X152513734Y-63051757D01*
X152513736Y-63051759D01*
X152513738Y-63051759D01*
X152520435Y-63054493D01*
X152539540Y-63064301D01*
X152593712Y-63098339D01*
X152605043Y-63106379D01*
X152615878Y-63115020D01*
X152626235Y-63124277D01*
X152675715Y-63173757D01*
X152684980Y-63184124D01*
X152693616Y-63194953D01*
X152701663Y-63206294D01*
X152738896Y-63265549D01*
X152745627Y-63277729D01*
X152751632Y-63290201D01*
X152756949Y-63303039D01*
X152780060Y-63369085D01*
X152783911Y-63382450D01*
X152786992Y-63395950D01*
X152789320Y-63409657D01*
X152798035Y-63487011D01*
X152798036Y-63487011D01*
X152798329Y-63489609D01*
X152798915Y-63496547D01*
X152799305Y-63503485D01*
X152799500Y-63510444D01*
X152799500Y-78133073D01*
X152794476Y-78168011D01*
X152791289Y-78178864D01*
X152753514Y-78237641D01*
X152689957Y-78266664D01*
X152620807Y-78256723D01*
X152613829Y-78253536D01*
X152577657Y-78228422D01*
X151604382Y-77255147D01*
X151572097Y-77198838D01*
X151569991Y-77190784D01*
X151164861Y-75641601D01*
X151162046Y-75632348D01*
X151160909Y-75628370D01*
X151160679Y-75627511D01*
X151113710Y-75452219D01*
X151028405Y-75246274D01*
X150916948Y-75053226D01*
X150814082Y-74919168D01*
X150781248Y-74876377D01*
X150781242Y-74876370D01*
X150623629Y-74718757D01*
X150623622Y-74718751D01*
X150623612Y-74718743D01*
X150623603Y-74718736D01*
X150448754Y-74584571D01*
X150446873Y-74583067D01*
X150445486Y-74582233D01*
X150443589Y-74581212D01*
X150255866Y-74472830D01*
X150255862Y-74472828D01*
X150253726Y-74471595D01*
X150253724Y-74471594D01*
X150253722Y-74471593D01*
X150047790Y-74386293D01*
X150047783Y-74386291D01*
X150047784Y-74386291D01*
X150047781Y-74386290D01*
X150042624Y-74384908D01*
X150042619Y-74384906D01*
X150002394Y-74374127D01*
X149969960Y-74360239D01*
X149960305Y-74354355D01*
X149913303Y-74302659D01*
X149901711Y-74233757D01*
X149929145Y-74169606D01*
X149929536Y-74169131D01*
X149973701Y-74135208D01*
X149973917Y-74135108D01*
X149975752Y-74134270D01*
X149995174Y-74127287D01*
X150047617Y-74113236D01*
X150253502Y-74027954D01*
X150253514Y-74027949D01*
X150446498Y-73916530D01*
X150512403Y-73865957D01*
X150512404Y-73865956D01*
X150512403Y-73865955D01*
X150512404Y-73865955D01*
X149829354Y-73182907D01*
X149795869Y-73121584D01*
X149800853Y-73051893D01*
X149842724Y-72995959D01*
X149855022Y-72987846D01*
X149868408Y-72980119D01*
X149980119Y-72868408D01*
X149987839Y-72855035D01*
X150038402Y-72806821D01*
X150107009Y-72793596D01*
X150171875Y-72819562D01*
X150182907Y-72829354D01*
X150865955Y-73512404D01*
X150865955Y-73512403D01*
X150865956Y-73512404D01*
X150865957Y-73512403D01*
X150916530Y-73446498D01*
X151027949Y-73253514D01*
X151027954Y-73253502D01*
X151113236Y-73047618D01*
X151170911Y-72832367D01*
X151170914Y-72832354D01*
X151200000Y-72611424D01*
X151200000Y-72388575D01*
X151170914Y-72167645D01*
X151170911Y-72167632D01*
X151170888Y-72167547D01*
X151146215Y-72075465D01*
X151113236Y-71952381D01*
X151027954Y-71746497D01*
X151027949Y-71746485D01*
X150919571Y-71558769D01*
X150916532Y-71553505D01*
X150865957Y-71487595D01*
X150865956Y-71487595D01*
X150865955Y-71487595D01*
X150865954Y-71487595D01*
X150182906Y-72170643D01*
X150121583Y-72204128D01*
X150051891Y-72199144D01*
X149995958Y-72157272D01*
X149987838Y-72144961D01*
X149980122Y-72131598D01*
X149980119Y-72131592D01*
X149868408Y-72019881D01*
X149861586Y-72015942D01*
X149855032Y-72012158D01*
X149806817Y-71961590D01*
X149793596Y-71892983D01*
X149819565Y-71828118D01*
X149829343Y-71817101D01*
X150512403Y-71134043D01*
X150512403Y-71134040D01*
X150512402Y-71134039D01*
X150446511Y-71083478D01*
X150446494Y-71083466D01*
X150446487Y-71083462D01*
X150253520Y-70972054D01*
X150253508Y-70972047D01*
X150146866Y-70927874D01*
X150047618Y-70886763D01*
X150047611Y-70886761D01*
X149832382Y-70829091D01*
X149832367Y-70829088D01*
X149832354Y-70829085D01*
X149832350Y-70829084D01*
X149832344Y-70829083D01*
X149611426Y-70800000D01*
X149611425Y-70800000D01*
X149388575Y-70800000D01*
X149388574Y-70800000D01*
X149167654Y-70829083D01*
X149167641Y-70829086D01*
X149167616Y-70829091D01*
X148952387Y-70886761D01*
X148952383Y-70886762D01*
X148952381Y-70886763D01*
X148919403Y-70900423D01*
X148746490Y-70972047D01*
X148746471Y-70972058D01*
X148553508Y-71083463D01*
X148487595Y-71134040D01*
X148487595Y-71134043D01*
X149170645Y-71817092D01*
X149204130Y-71878415D01*
X149199146Y-71948106D01*
X149157274Y-72004040D01*
X149144967Y-72012159D01*
X149131592Y-72019881D01*
X149131589Y-72019883D01*
X149019883Y-72131589D01*
X149019883Y-72131590D01*
X149019881Y-72131592D01*
X149019878Y-72131598D01*
X149012159Y-72144967D01*
X148961590Y-72193181D01*
X148892983Y-72206402D01*
X148828119Y-72180433D01*
X148817092Y-72170645D01*
X148134043Y-71487595D01*
X148134040Y-71487595D01*
X148083463Y-71553508D01*
X147972065Y-71746459D01*
X147972047Y-71746490D01*
X147931965Y-71843256D01*
X147886839Y-71952199D01*
X147886764Y-71952379D01*
X147886761Y-71952387D01*
X147829091Y-72167616D01*
X147829086Y-72167641D01*
X147829083Y-72167654D01*
X147800000Y-72388574D01*
X147800000Y-72611424D01*
X147829083Y-72832344D01*
X147829086Y-72832357D01*
X147829091Y-72832382D01*
X147886761Y-73047611D01*
X147886763Y-73047618D01*
X147923712Y-73136819D01*
X147972047Y-73253508D01*
X147972058Y-73253527D01*
X148083464Y-73446491D01*
X148083478Y-73446511D01*
X148134039Y-73512402D01*
X148134040Y-73512403D01*
X148134043Y-73512403D01*
X148817094Y-72829351D01*
X148878415Y-72795868D01*
X148948106Y-72800852D01*
X149004040Y-72842723D01*
X149012157Y-72855031D01*
X149019881Y-72868408D01*
X149131592Y-72980119D01*
X149144964Y-72987839D01*
X149193179Y-73038407D01*
X149206401Y-73107014D01*
X149180433Y-73171879D01*
X149170644Y-73182907D01*
X148487595Y-73865954D01*
X148487595Y-73865957D01*
X148553505Y-73916532D01*
X148553507Y-73916533D01*
X148746485Y-74027949D01*
X148746497Y-74027954D01*
X148952383Y-74113236D01*
X148997603Y-74125352D01*
X149030041Y-74139244D01*
X149039705Y-74145134D01*
X149086701Y-74196835D01*
X149098286Y-74265738D01*
X149070780Y-74329965D01*
X149070754Y-74329997D01*
X149070364Y-74330469D01*
X149026271Y-74364285D01*
X149024223Y-74365220D01*
X149004822Y-74372194D01*
X148967986Y-74382064D01*
X148959820Y-74383139D01*
X148955494Y-74384932D01*
X148955486Y-74384934D01*
X148955487Y-74384935D01*
X148746272Y-74471594D01*
X148553237Y-74583044D01*
X148553212Y-74583061D01*
X148553210Y-74583062D01*
X148376395Y-74718736D01*
X148376379Y-74718749D01*
X148376369Y-74718758D01*
X148376361Y-74718765D01*
X148218765Y-74876361D01*
X148218758Y-74876369D01*
X148218749Y-74876379D01*
X148218736Y-74876395D01*
X148083062Y-75053210D01*
X148083061Y-75053212D01*
X148083044Y-75053237D01*
X147971595Y-75246272D01*
X147886297Y-75452199D01*
X147886288Y-75452222D01*
X147850390Y-75586202D01*
X147838024Y-75632356D01*
X147834457Y-75645667D01*
X147834456Y-75645669D01*
X147828601Y-75667517D01*
X147828593Y-75667550D01*
X147828592Y-75667556D01*
X147799503Y-75888516D01*
X147799500Y-75888541D01*
X147799500Y-76111457D01*
X147799503Y-76111482D01*
X147828593Y-76332447D01*
X147828597Y-76332467D01*
X147877480Y-76514904D01*
X147877481Y-76514904D01*
X147877481Y-76514905D01*
X147878706Y-76519475D01*
X147886290Y-76547782D01*
X147886296Y-76547799D01*
X147906956Y-76597675D01*
X147966342Y-76741045D01*
X147969824Y-76749450D01*
X147971593Y-76753722D01*
X147971595Y-76753726D01*
X148081212Y-76943589D01*
X148082233Y-76945486D01*
X148083067Y-76946873D01*
X148084571Y-76948754D01*
X148186869Y-77082073D01*
X148218751Y-77123622D01*
X148218757Y-77123629D01*
X148376370Y-77281242D01*
X148376377Y-77281248D01*
X148411089Y-77307883D01*
X148553226Y-77416948D01*
X148706447Y-77505411D01*
X148745415Y-77527909D01*
X148746408Y-77528493D01*
X148748004Y-77529183D01*
X148748450Y-77529383D01*
X148750321Y-77530082D01*
X148808346Y-77554116D01*
X148838689Y-77572118D01*
X148845698Y-77577766D01*
X148885549Y-77635154D01*
X148888047Y-77704979D01*
X148852399Y-77765070D01*
X148796431Y-77794993D01*
X148791445Y-77796172D01*
X148762911Y-77799500D01*
X148499974Y-77799500D01*
X148395495Y-77810174D01*
X148389915Y-77812415D01*
X148230667Y-77865184D01*
X148230655Y-77865190D01*
X148081354Y-77957282D01*
X148081341Y-77957291D01*
X148081338Y-77957293D01*
X147957293Y-78081338D01*
X147957291Y-78081341D01*
X147957282Y-78081354D01*
X147865190Y-78230655D01*
X147865184Y-78230667D01*
X147812415Y-78389915D01*
X147810174Y-78395495D01*
X147799500Y-78499974D01*
X147799500Y-80500024D01*
X147809999Y-80602796D01*
X147811639Y-80608439D01*
X147812807Y-80611265D01*
X147822097Y-80639300D01*
X147822097Y-80639301D01*
X147865183Y-80769327D01*
X147865184Y-80769330D01*
X147865190Y-80769343D01*
X147866796Y-80771946D01*
X147957286Y-80918651D01*
X147957289Y-80918655D01*
X147957291Y-80918657D01*
X147957293Y-80918660D01*
X148081338Y-81042705D01*
X148081341Y-81042707D01*
X148081344Y-81042710D01*
X148081348Y-81042713D01*
X148156799Y-81089252D01*
X148220853Y-81128762D01*
X148230662Y-81134812D01*
X148230664Y-81134813D01*
X148230666Y-81134814D01*
X148397203Y-81189999D01*
X148499992Y-81200500D01*
X148499997Y-81200500D01*
X150500003Y-81200500D01*
X150500008Y-81200500D01*
X150602797Y-81189999D01*
X150769334Y-81134814D01*
X150918655Y-81042711D01*
X151042711Y-80918655D01*
X151134814Y-80769334D01*
X151189999Y-80602797D01*
X151200500Y-80500008D01*
X151200500Y-78866926D01*
X151205521Y-78831999D01*
X151208707Y-78821146D01*
X151246477Y-78762365D01*
X151310031Y-78733336D01*
X151379186Y-78743274D01*
X151386172Y-78746464D01*
X151422342Y-78771577D01*
X151614973Y-78964208D01*
X151636123Y-78992460D01*
X151648731Y-79015549D01*
X151663900Y-79074978D01*
X151663900Y-82050628D01*
X151658875Y-82085570D01*
X151655037Y-82098638D01*
X151617259Y-82157414D01*
X151553701Y-82186435D01*
X151491691Y-82179486D01*
X151483977Y-82176530D01*
X151459463Y-82163846D01*
X151450227Y-82157675D01*
X151450224Y-82157674D01*
X151277252Y-82086027D01*
X151277225Y-82086021D01*
X151093622Y-82049500D01*
X151093620Y-82049500D01*
X151093616Y-82049500D01*
X150906384Y-82049500D01*
X150906379Y-82049500D01*
X150906377Y-82049500D01*
X150722773Y-82086021D01*
X150722746Y-82086027D01*
X150549776Y-82157672D01*
X150549766Y-82157677D01*
X150394089Y-82261698D01*
X150394088Y-82261699D01*
X150394082Y-82261704D01*
X150261704Y-82394082D01*
X150261699Y-82394088D01*
X150261698Y-82394089D01*
X150157677Y-82549766D01*
X150157672Y-82549776D01*
X150086027Y-82722746D01*
X150086021Y-82722773D01*
X150049500Y-82906376D01*
X150049500Y-82906379D01*
X150049500Y-83093620D01*
X150049500Y-83093622D01*
X150049499Y-83093622D01*
X150086021Y-83277225D01*
X150086027Y-83277252D01*
X150157672Y-83450222D01*
X150157677Y-83450232D01*
X150261698Y-83605909D01*
X150261699Y-83605910D01*
X150261704Y-83605916D01*
X150394082Y-83738294D01*
X150394088Y-83738299D01*
X150394092Y-83738302D01*
X150549762Y-83842318D01*
X150549775Y-83842325D01*
X150549779Y-83842327D01*
X150557696Y-83845606D01*
X150608767Y-83866760D01*
X150658329Y-83887289D01*
X150712732Y-83931129D01*
X150734798Y-83997423D01*
X150717519Y-84065122D01*
X150666383Y-84112733D01*
X150648008Y-84120160D01*
X150572653Y-84143810D01*
X150535522Y-84149500D01*
X150349998Y-84149500D01*
X150349981Y-84149501D01*
X150335959Y-84150933D01*
X150247198Y-84160000D01*
X150247193Y-84160001D01*
X150247032Y-84160056D01*
X150080667Y-84215185D01*
X150080665Y-84215186D01*
X150080663Y-84215187D01*
X150014414Y-84256050D01*
X149931340Y-84307290D01*
X149807290Y-84431340D01*
X149715186Y-84580665D01*
X149715177Y-84580691D01*
X149692836Y-84648111D01*
X149692836Y-84648115D01*
X149680585Y-84685085D01*
X149670300Y-84716123D01*
X149661852Y-84729069D01*
X149660365Y-84743630D01*
X149659788Y-84745042D01*
X149659359Y-84753473D01*
X149649500Y-84849973D01*
X149649500Y-84849996D01*
X149649501Y-86150000D01*
X149649501Y-86150026D01*
X149657604Y-86229338D01*
X149660000Y-86252796D01*
X149660001Y-86252799D01*
X149706843Y-86394157D01*
X149715186Y-86419334D01*
X149807288Y-86568656D01*
X149931344Y-86692712D01*
X150080666Y-86784814D01*
X150247203Y-86839999D01*
X150349991Y-86850500D01*
X151650008Y-86850499D01*
X151752797Y-86839999D01*
X151919334Y-86784814D01*
X152068656Y-86692712D01*
X152192712Y-86568656D01*
X152284814Y-86419334D01*
X152339999Y-86252797D01*
X152350500Y-86150009D01*
X152350499Y-85964471D01*
X152356188Y-85927342D01*
X152432745Y-85683397D01*
X152557189Y-85286863D01*
X152596044Y-85228794D01*
X152660126Y-85200950D01*
X152729089Y-85212171D01*
X152781038Y-85258894D01*
X152799500Y-85323993D01*
X152799500Y-87989554D01*
X152799304Y-87996517D01*
X152798913Y-88003469D01*
X152798329Y-88010389D01*
X152790106Y-88083374D01*
X152785131Y-88105168D01*
X152783383Y-88115787D01*
X152778072Y-88136596D01*
X152756949Y-88196960D01*
X152752711Y-88203844D01*
X152751632Y-88209797D01*
X152745627Y-88222269D01*
X152738896Y-88234449D01*
X152701663Y-88293704D01*
X152693616Y-88305045D01*
X152684980Y-88315874D01*
X152680788Y-88319550D01*
X152679377Y-88322420D01*
X152675715Y-88326241D01*
X152626241Y-88375715D01*
X152615874Y-88384980D01*
X152605045Y-88393616D01*
X152593704Y-88401663D01*
X152534449Y-88438896D01*
X152522269Y-88445627D01*
X152509797Y-88451632D01*
X152496959Y-88456949D01*
X152430913Y-88480060D01*
X152417557Y-88483909D01*
X152408348Y-88486011D01*
X152404053Y-88486991D01*
X152390341Y-88489321D01*
X152310389Y-88498329D01*
X152303470Y-88498913D01*
X152296519Y-88499304D01*
X152289555Y-88499500D01*
X138718626Y-88499500D01*
X138683689Y-88494476D01*
X138675373Y-88492034D01*
X138616595Y-88454259D01*
X138587572Y-88390702D01*
X138597517Y-88321544D01*
X138622626Y-88285380D01*
X138926508Y-87981498D01*
X138954998Y-87946778D01*
X138963144Y-87937790D01*
X138980520Y-87920416D01*
X138988132Y-87907229D01*
X138990999Y-87902622D01*
X138991922Y-87901081D01*
X138991930Y-87901070D01*
X138993964Y-87897264D01*
X138995948Y-87893693D01*
X139009173Y-87870789D01*
X139021009Y-87850285D01*
X139042403Y-87813230D01*
X139054504Y-87795880D01*
X139408872Y-87370496D01*
X139466903Y-87331590D01*
X139536759Y-87330233D01*
X139571176Y-87345547D01*
X139576466Y-87348947D01*
X139597106Y-87365580D01*
X139685354Y-87453828D01*
X139800930Y-87537799D01*
X139844596Y-87569525D01*
X139881906Y-87588535D01*
X139919218Y-87607546D01*
X140013521Y-87655596D01*
X140015121Y-87656532D01*
X140018818Y-87658323D01*
X140020831Y-87659324D01*
X140024597Y-87660386D01*
X140044734Y-87666928D01*
X140076387Y-87677213D01*
X140076388Y-87677214D01*
X140119983Y-87691379D01*
X140207173Y-87719709D01*
X140401578Y-87750500D01*
X140401583Y-87750500D01*
X140598421Y-87750500D01*
X140598422Y-87750500D01*
X140792826Y-87719709D01*
X140872574Y-87693797D01*
X140980025Y-87658884D01*
X141155405Y-87569524D01*
X141177194Y-87553692D01*
X141208399Y-87537225D01*
X141223121Y-87531972D01*
X141292859Y-87527977D01*
X141295087Y-87528495D01*
X141348896Y-87556151D01*
X141354095Y-87560722D01*
X141371480Y-87579529D01*
X141385792Y-87598646D01*
X141387977Y-87602187D01*
X141390340Y-87605015D01*
X141394033Y-87609684D01*
X141401333Y-87614193D01*
X141507664Y-87693793D01*
X141507671Y-87693797D01*
X141557155Y-87712253D01*
X141592513Y-87738721D01*
X141649444Y-87744835D01*
X141649443Y-87744839D01*
X141649458Y-87744836D01*
X141702127Y-87750500D01*
X143297872Y-87750499D01*
X143346831Y-87745236D01*
X143382101Y-87746496D01*
X143405625Y-87750740D01*
X143456132Y-87772191D01*
X143457402Y-87773106D01*
X143472539Y-87785988D01*
X143557345Y-87870794D01*
X143557350Y-87870798D01*
X143625644Y-87920416D01*
X143725603Y-87993040D01*
X143725604Y-87993041D01*
X143761150Y-88018867D01*
X143761152Y-88018868D01*
X143761155Y-88018870D01*
X143904184Y-88091747D01*
X143904183Y-88091747D01*
X143915019Y-88097268D01*
X143979173Y-88129956D01*
X143980760Y-88130886D01*
X143984478Y-88132687D01*
X143986475Y-88133680D01*
X143990243Y-88134743D01*
X144181727Y-88196960D01*
X144225215Y-88211090D01*
X144474038Y-88250500D01*
X144474039Y-88250500D01*
X144725961Y-88250500D01*
X144725962Y-88250500D01*
X144974785Y-88211090D01*
X145214379Y-88133241D01*
X145438845Y-88018870D01*
X145642656Y-87870793D01*
X145820793Y-87692656D01*
X145968870Y-87488845D01*
X146083241Y-87264379D01*
X146161090Y-87024785D01*
X146200500Y-86775962D01*
X146200500Y-85357637D01*
X146220185Y-85290598D01*
X146272989Y-85244843D01*
X146342147Y-85234899D01*
X146405703Y-85263924D01*
X146442281Y-85318863D01*
X146562285Y-85683402D01*
X146643282Y-85929447D01*
X146649500Y-85968219D01*
X146649501Y-86150000D01*
X146649501Y-86150026D01*
X146657604Y-86229338D01*
X146660000Y-86252796D01*
X146660001Y-86252799D01*
X146706843Y-86394157D01*
X146715186Y-86419334D01*
X146807288Y-86568656D01*
X146931344Y-86692712D01*
X147080666Y-86784814D01*
X147247203Y-86839999D01*
X147349991Y-86850500D01*
X148650008Y-86850499D01*
X148752797Y-86839999D01*
X148919334Y-86784814D01*
X149068656Y-86692712D01*
X149192712Y-86568656D01*
X149284814Y-86419334D01*
X149339999Y-86252797D01*
X149350500Y-86150009D01*
X149350499Y-84849992D01*
X149343123Y-84777790D01*
X149343123Y-84777786D01*
X149340000Y-84747208D01*
X149339999Y-84747206D01*
X149339999Y-84747203D01*
X149339998Y-84747200D01*
X149324927Y-84701719D01*
X149284814Y-84580666D01*
X149192712Y-84431344D01*
X149068656Y-84307288D01*
X148966823Y-84244477D01*
X148919336Y-84215187D01*
X148919331Y-84215185D01*
X148761265Y-84162807D01*
X148758439Y-84161639D01*
X148752796Y-84159999D01*
X148650025Y-84149500D01*
X148650016Y-84149500D01*
X148650009Y-84149500D01*
X148468218Y-84149500D01*
X148429446Y-84143282D01*
X148386632Y-84129188D01*
X148353561Y-84118301D01*
X148296038Y-84078640D01*
X148269089Y-84014177D01*
X148281270Y-83945377D01*
X148328713Y-83894085D01*
X148344879Y-83885959D01*
X148415032Y-83856902D01*
X148450225Y-83842325D01*
X148450228Y-83842323D01*
X148450231Y-83842322D01*
X148605908Y-83738302D01*
X148738302Y-83605908D01*
X148842322Y-83450231D01*
X148913973Y-83277251D01*
X148950500Y-83093616D01*
X148950500Y-82906384D01*
X148913973Y-82722749D01*
X148852102Y-82573379D01*
X148852102Y-82573378D01*
X148842329Y-82549784D01*
X148842318Y-82549762D01*
X148738300Y-82394089D01*
X148738299Y-82394088D01*
X148738294Y-82394082D01*
X148605916Y-82261704D01*
X148605910Y-82261699D01*
X148605909Y-82261698D01*
X148450231Y-82157677D01*
X148450232Y-82157677D01*
X148450222Y-82157672D01*
X148277252Y-82086027D01*
X148277225Y-82086021D01*
X148093622Y-82049500D01*
X148093620Y-82049500D01*
X148093616Y-82049500D01*
X147906384Y-82049500D01*
X147906379Y-82049500D01*
X147906377Y-82049500D01*
X147722773Y-82086021D01*
X147722746Y-82086027D01*
X147549780Y-82157671D01*
X147549763Y-82157679D01*
X147508415Y-82185308D01*
X147476572Y-82200542D01*
X147463575Y-82204611D01*
X147393716Y-82205855D01*
X147334275Y-82169133D01*
X147305599Y-82113703D01*
X147303772Y-82105648D01*
X147300700Y-82078220D01*
X147300700Y-69617725D01*
X147305722Y-69582792D01*
X147310462Y-69566649D01*
X147313134Y-69557547D01*
X147344428Y-69504805D01*
X148581056Y-68268176D01*
X148592900Y-68261709D01*
X148601745Y-68251512D01*
X148609312Y-68247025D01*
X148612113Y-68245496D01*
X148621669Y-68240278D01*
X148623032Y-68239534D01*
X148640450Y-68235745D01*
X148642377Y-68234693D01*
X148644874Y-68234782D01*
X148691298Y-68224684D01*
X148697620Y-68225136D01*
X148738220Y-68240278D01*
X148738597Y-68239148D01*
X148755571Y-68244798D01*
X148759720Y-68246261D01*
X148807155Y-68263953D01*
X148814566Y-68269500D01*
X148849869Y-68279884D01*
X148892517Y-68295791D01*
X148892516Y-68295791D01*
X148899444Y-68296535D01*
X148952127Y-68302200D01*
X150047872Y-68302199D01*
X150107483Y-68295791D01*
X150242331Y-68245496D01*
X150357546Y-68159246D01*
X150390363Y-68115406D01*
X150415315Y-68090454D01*
X150426432Y-68082132D01*
X150491893Y-68057719D01*
X150560163Y-68072571D01*
X150566992Y-68076300D01*
X150606822Y-68110816D01*
X150642800Y-68158876D01*
X150642810Y-68158888D01*
X150642813Y-68158891D01*
X150671747Y-68180550D01*
X150757906Y-68245050D01*
X150757913Y-68245054D01*
X150892620Y-68295296D01*
X150892627Y-68295298D01*
X150897212Y-68295791D01*
X150952138Y-68301698D01*
X150952155Y-68301699D01*
X150952172Y-68301700D01*
X151250000Y-68301700D01*
X151250000Y-67654324D01*
X151269685Y-67587285D01*
X151322489Y-67541530D01*
X151391647Y-67531586D01*
X151421452Y-67539763D01*
X151438551Y-67546845D01*
X151450272Y-67551700D01*
X151549726Y-67551700D01*
X151549728Y-67551700D01*
X151567077Y-67544513D01*
X151578548Y-67539763D01*
X151648017Y-67532294D01*
X151710496Y-67563569D01*
X151746148Y-67623659D01*
X151750000Y-67654324D01*
X151750000Y-68301700D01*
X152047828Y-68301700D01*
X152047836Y-68301700D01*
X152047847Y-68301699D01*
X152084801Y-68297725D01*
X152107372Y-68295298D01*
X152107379Y-68295296D01*
X152242086Y-68245054D01*
X152242093Y-68245050D01*
X152357187Y-68158890D01*
X152357190Y-68158887D01*
X152443350Y-68043793D01*
X152443354Y-68043786D01*
X152493596Y-67909079D01*
X152493598Y-67909072D01*
X152496858Y-67878755D01*
X152499998Y-67849560D01*
X152500000Y-67849527D01*
X152500000Y-67551700D01*
X151852624Y-67551700D01*
X151785585Y-67532015D01*
X151739830Y-67479211D01*
X151729886Y-67410053D01*
X151738063Y-67380248D01*
X151744302Y-67365184D01*
X151750000Y-67351428D01*
X151750000Y-67251972D01*
X151741493Y-67231434D01*
X151738063Y-67223152D01*
X151730594Y-67153683D01*
X151761869Y-67091204D01*
X151821959Y-67055552D01*
X151852624Y-67051700D01*
X152500000Y-67051700D01*
X152500000Y-66753872D01*
X152499998Y-66753838D01*
X152494280Y-66700671D01*
X152493598Y-66694327D01*
X152493596Y-66694320D01*
X152443354Y-66559613D01*
X152443350Y-66559606D01*
X152378399Y-66472843D01*
X152357191Y-66444513D01*
X152357188Y-66444510D01*
X152357176Y-66444500D01*
X152313710Y-66411961D01*
X152288755Y-66387006D01*
X152280438Y-66375896D01*
X152256020Y-66310432D01*
X152270869Y-66242164D01*
X152274599Y-66235333D01*
X152309118Y-66195498D01*
X152357546Y-66159246D01*
X152443796Y-66044031D01*
X152494091Y-65909183D01*
X152500500Y-65849573D01*
X152500499Y-64753828D01*
X152494091Y-64694217D01*
X152488298Y-64678686D01*
X152488166Y-64678333D01*
X152443798Y-64559373D01*
X152443797Y-64559371D01*
X152443795Y-64559368D01*
X152443793Y-64559364D01*
X152364858Y-64453921D01*
X152357548Y-64444156D01*
X152357542Y-64444150D01*
X152261162Y-64372000D01*
X152242335Y-64357906D01*
X152242332Y-64357904D01*
X152242330Y-64357903D01*
X152242328Y-64357902D01*
X152192844Y-64339446D01*
X152157497Y-64312984D01*
X152055583Y-64302028D01*
X152050742Y-64301200D01*
X152047881Y-64301200D01*
X152047873Y-64301200D01*
X152047864Y-64301200D01*
X150952129Y-64301200D01*
X150952123Y-64301200D01*
X150950192Y-64301359D01*
X150948545Y-64301585D01*
X150892516Y-64307608D01*
X150807152Y-64339447D01*
X150757666Y-64357904D01*
X150757665Y-64357905D01*
X150642457Y-64444150D01*
X150642454Y-64444152D01*
X150609951Y-64487571D01*
X150584989Y-64512531D01*
X150573876Y-64520849D01*
X150508410Y-64545262D01*
X150440146Y-64530409D01*
X150433323Y-64526683D01*
X150393487Y-64492165D01*
X150393349Y-64491981D01*
X150374731Y-64467110D01*
X150364185Y-64453023D01*
X150359680Y-64445729D01*
X150355013Y-64442037D01*
X150352189Y-64439678D01*
X150348639Y-64437486D01*
X150242335Y-64357906D01*
X150242332Y-64357904D01*
X150242330Y-64357903D01*
X150242328Y-64357902D01*
X150192844Y-64339446D01*
X150157497Y-64312984D01*
X150055583Y-64302028D01*
X150050742Y-64301200D01*
X150047881Y-64301200D01*
X150047873Y-64301200D01*
X150047864Y-64301200D01*
X148952129Y-64301200D01*
X148952123Y-64301200D01*
X148950192Y-64301359D01*
X148948545Y-64301585D01*
X148892516Y-64307608D01*
X148807152Y-64339447D01*
X148757666Y-64357904D01*
X148757665Y-64357905D01*
X148642456Y-64444150D01*
X148642450Y-64444156D01*
X148556205Y-64559365D01*
X148556203Y-64559368D01*
X148505908Y-64694216D01*
X148499500Y-64753825D01*
X148499500Y-65849576D01*
X148499659Y-65851504D01*
X148499885Y-65853150D01*
X148505909Y-65909185D01*
X148509205Y-65918024D01*
X148516705Y-65952498D01*
X148517405Y-65962278D01*
X148502556Y-66030552D01*
X148453154Y-66079960D01*
X148384881Y-66094816D01*
X148326690Y-66075452D01*
X148322793Y-66072948D01*
X148302143Y-66056308D01*
X146861028Y-64615193D01*
X146861019Y-64615183D01*
X146800205Y-64554369D01*
X146737817Y-64491981D01*
X146737816Y-64491980D01*
X146737815Y-64491979D01*
X146737812Y-64491977D01*
X146671897Y-64453921D01*
X146658530Y-64442298D01*
X146635942Y-64433163D01*
X146600886Y-64412923D01*
X146556553Y-64401044D01*
X146448157Y-64371999D01*
X146448154Y-64371999D01*
X146280543Y-64371999D01*
X146280480Y-64372000D01*
X145102834Y-64372000D01*
X145021267Y-64393855D01*
X145021261Y-64393859D01*
X144950117Y-64412922D01*
X144950115Y-64412922D01*
X144950114Y-64412923D01*
X144950112Y-64412923D01*
X144950043Y-64412953D01*
X144949234Y-64413430D01*
X144813198Y-64491970D01*
X144813193Y-64491972D01*
X144813190Y-64491975D01*
X144813186Y-64491978D01*
X144813180Y-64491982D01*
X144701378Y-64603786D01*
X144701377Y-64603786D01*
X144185893Y-65119269D01*
X144157637Y-65140421D01*
X144143916Y-65147913D01*
X144075656Y-65162765D01*
X144073850Y-65162636D01*
X144015649Y-65143268D01*
X144009134Y-65139081D01*
X143988498Y-65122451D01*
X143935104Y-65069057D01*
X143935102Y-65069055D01*
X143780277Y-64956568D01*
X143779676Y-64956131D01*
X143736451Y-64934107D01*
X143608516Y-64868920D01*
X143608500Y-64868913D01*
X143425804Y-64809553D01*
X143425805Y-64809553D01*
X143259889Y-64783275D01*
X143236055Y-64779500D01*
X143236054Y-64779500D01*
X143043946Y-64779500D01*
X143043945Y-64779500D01*
X143020111Y-64783275D01*
X142854193Y-64809553D01*
X142671498Y-64868913D01*
X142671482Y-64868920D01*
X142500328Y-64956129D01*
X142500321Y-64956132D01*
X142439944Y-65000000D01*
X142356766Y-65060431D01*
X142349387Y-65064564D01*
X142204562Y-65209389D01*
X142200432Y-65216765D01*
X142173100Y-65254386D01*
X142173098Y-65254388D01*
X142097746Y-65358100D01*
X142096135Y-65360318D01*
X142096133Y-65360320D01*
X142096131Y-65360325D01*
X142008917Y-65531490D01*
X141993175Y-65579938D01*
X141977602Y-65611610D01*
X141971218Y-65620946D01*
X141917129Y-65665173D01*
X141847714Y-65673137D01*
X141785017Y-65642309D01*
X141782718Y-65640200D01*
X141748649Y-65587178D01*
X141730616Y-65531680D01*
X141643434Y-65360577D01*
X141643246Y-65360318D01*
X141622204Y-65331355D01*
X141622200Y-65331351D01*
X141622199Y-65331351D01*
X141136497Y-65817053D01*
X141075174Y-65850538D01*
X141005482Y-65845554D01*
X140949549Y-65803682D01*
X140941430Y-65791374D01*
X140920080Y-65754394D01*
X140845606Y-65679920D01*
X140808625Y-65658569D01*
X140760410Y-65608003D01*
X140747186Y-65539396D01*
X140773154Y-65474531D01*
X140782933Y-65463512D01*
X141268646Y-64977798D01*
X141249183Y-64963658D01*
X141239415Y-64956561D01*
X141239413Y-64956560D01*
X141195347Y-64934107D01*
X141068321Y-64869383D01*
X140885684Y-64810040D01*
X140885682Y-64810039D01*
X140885680Y-64810039D01*
X140696020Y-64780000D01*
X140696015Y-64780000D01*
X140503985Y-64780000D01*
X140503980Y-64780000D01*
X140314318Y-64810039D01*
X140314315Y-64810040D01*
X140131678Y-64869383D01*
X140066228Y-64902732D01*
X139960569Y-64956568D01*
X139956422Y-64959110D01*
X139955265Y-64957223D01*
X139937207Y-64963658D01*
X139931350Y-64977798D01*
X140417055Y-65463501D01*
X140450540Y-65524824D01*
X140445556Y-65594515D01*
X140403685Y-65650449D01*
X140391374Y-65658569D01*
X140354397Y-65679917D01*
X140354392Y-65679921D01*
X140279921Y-65754392D01*
X140279915Y-65754400D01*
X140258568Y-65791374D01*
X140208001Y-65839589D01*
X140139393Y-65852811D01*
X140074529Y-65826843D01*
X140063501Y-65817054D01*
X139577798Y-65331350D01*
X139564329Y-65336930D01*
X139558682Y-65356160D01*
X139559110Y-65356422D01*
X139558141Y-65358002D01*
X139558113Y-65358100D01*
X139557810Y-65358542D01*
X139556568Y-65360569D01*
X139512356Y-65447339D01*
X139469383Y-65531678D01*
X139469382Y-65531680D01*
X139469382Y-65531681D01*
X139410039Y-65714318D01*
X139380000Y-65903978D01*
X139380000Y-66096020D01*
X139408451Y-66275653D01*
X139410040Y-66285684D01*
X139469383Y-66468321D01*
X139556561Y-66639415D01*
X139577798Y-66668646D01*
X140063503Y-66182940D01*
X140124823Y-66149458D01*
X140194514Y-66154442D01*
X140250448Y-66196313D01*
X140258568Y-66208624D01*
X140279917Y-66245602D01*
X140279919Y-66245604D01*
X140279920Y-66245606D01*
X140354394Y-66320080D01*
X140354395Y-66320081D01*
X140354397Y-66320082D01*
X140391373Y-66341430D01*
X140439588Y-66391996D01*
X140452812Y-66460603D01*
X140426844Y-66525468D01*
X140417054Y-66536498D01*
X139931351Y-67022199D01*
X139931351Y-67022200D01*
X139931355Y-67022204D01*
X139960576Y-67043434D01*
X140131671Y-67130613D01*
X140131675Y-67130614D01*
X140131678Y-67130616D01*
X140314315Y-67189959D01*
X140503985Y-67220000D01*
X140696014Y-67220000D01*
X140696015Y-67220000D01*
X140885684Y-67189959D01*
X141068321Y-67130616D01*
X141239419Y-67043436D01*
X141268646Y-67022201D01*
X141268646Y-67022200D01*
X141034869Y-66788423D01*
X140782945Y-66536498D01*
X140749460Y-66475175D01*
X140754444Y-66405483D01*
X140796316Y-66349550D01*
X140808618Y-66341434D01*
X140845606Y-66320080D01*
X140920080Y-66245606D01*
X140941430Y-66208625D01*
X140991994Y-66160411D01*
X141060601Y-66147186D01*
X141125466Y-66173153D01*
X141136497Y-66182943D01*
X141622200Y-66668646D01*
X141622201Y-66668646D01*
X141643436Y-66639419D01*
X141730616Y-66468319D01*
X141746296Y-66420061D01*
X141761867Y-66388393D01*
X141768252Y-66379055D01*
X141822340Y-66334826D01*
X141891754Y-66326861D01*
X141954451Y-66357685D01*
X141956751Y-66359796D01*
X141990823Y-66412821D01*
X142009219Y-66469438D01*
X142011126Y-66472843D01*
X142093184Y-66633889D01*
X142096135Y-66639681D01*
X142209055Y-66795102D01*
X142344898Y-66930945D01*
X142452059Y-67008802D01*
X142470499Y-67022199D01*
X142470500Y-67022201D01*
X142494711Y-67039791D01*
X142513771Y-67056910D01*
X142525291Y-67069641D01*
X142555676Y-67132558D01*
X142547223Y-67201912D01*
X142543502Y-67210547D01*
X142517306Y-67249156D01*
X140989391Y-68777073D01*
X140961140Y-68798222D01*
X140938052Y-68810830D01*
X140878622Y-68826000D01*
X139702121Y-68826000D01*
X139702058Y-68825999D01*
X139700154Y-68825999D01*
X139692558Y-68825999D01*
X139534443Y-68825999D01*
X139458078Y-68846460D01*
X139458079Y-68846461D01*
X139381717Y-68866922D01*
X139381715Y-68866922D01*
X139381714Y-68866923D01*
X139381712Y-68866923D01*
X139381643Y-68866953D01*
X139380834Y-68867430D01*
X139244798Y-68945970D01*
X139244793Y-68945972D01*
X139244790Y-68945975D01*
X139244786Y-68945978D01*
X139244780Y-68945982D01*
X137475611Y-70715150D01*
X137427450Y-70745003D01*
X136277358Y-71131712D01*
X136277355Y-71131713D01*
X136235131Y-71148050D01*
X136229929Y-71150648D01*
X136229594Y-71149977D01*
X136212125Y-71158095D01*
X136160773Y-71174781D01*
X136160770Y-71174783D01*
X135978397Y-71267708D01*
X135978385Y-71267715D01*
X135812787Y-71388027D01*
X135812784Y-71388029D01*
X135668031Y-71532783D01*
X135668027Y-71532787D01*
X135547715Y-71698385D01*
X135547708Y-71698397D01*
X135454786Y-71880764D01*
X135454780Y-71880777D01*
X135391521Y-72075468D01*
X135359500Y-72277642D01*
X135359500Y-72482356D01*
X135391521Y-72684530D01*
X135454780Y-72879221D01*
X135454783Y-72879228D01*
X135506190Y-72980117D01*
X135506190Y-72980119D01*
X135506191Y-72980119D01*
X135544099Y-73054518D01*
X135546440Y-73059111D01*
X135547716Y-73061615D01*
X135620703Y-73162075D01*
X135668028Y-73227213D01*
X135812786Y-73371971D01*
X135915375Y-73446504D01*
X135915745Y-73446773D01*
X135915746Y-73446775D01*
X135964936Y-73482512D01*
X135978390Y-73492287D01*
X136064384Y-73536103D01*
X136121191Y-73565048D01*
X136154330Y-73581934D01*
X136155931Y-73582871D01*
X136159620Y-73584658D01*
X136161639Y-73585660D01*
X136165406Y-73586723D01*
X136355462Y-73648476D01*
X136355463Y-73648476D01*
X136355466Y-73648477D01*
X136430664Y-73660387D01*
X136457320Y-73664609D01*
X136491036Y-73675033D01*
X136502735Y-73680579D01*
X136554882Y-73727081D01*
X136573609Y-73794395D01*
X136555808Y-73856663D01*
X136551021Y-73864601D01*
X136532516Y-73888247D01*
X134517383Y-75903378D01*
X134517381Y-75903382D01*
X134517369Y-75903401D01*
X134505934Y-75923209D01*
X134505933Y-75923210D01*
X134476696Y-75973852D01*
X134474906Y-75976953D01*
X134473750Y-75978953D01*
X134471322Y-75983158D01*
X134471322Y-75983160D01*
X134446487Y-76026172D01*
X134446479Y-76026184D01*
X134438324Y-76040308D01*
X134428345Y-76077552D01*
X134397399Y-76193043D01*
X134397399Y-76363500D01*
X134397400Y-76363551D01*
X134397400Y-78799678D01*
X134392376Y-78834616D01*
X134389189Y-78845469D01*
X134351414Y-78904246D01*
X134287857Y-78933269D01*
X134218764Y-78923354D01*
X134218204Y-78923098D01*
X134174041Y-78889232D01*
X134172605Y-78887493D01*
X134160839Y-78870547D01*
X134144224Y-78841772D01*
X134133551Y-78817688D01*
X133750354Y-77624147D01*
X133733242Y-77578530D01*
X133733239Y-77578525D01*
X133730638Y-77573199D01*
X133731122Y-77572962D01*
X133722828Y-77554976D01*
X133714223Y-77528493D01*
X133706721Y-77505403D01*
X133705658Y-77501633D01*
X133704654Y-77499613D01*
X133702867Y-77495925D01*
X133701933Y-77494329D01*
X133690312Y-77471522D01*
X133660027Y-77412085D01*
X133612287Y-77318390D01*
X133585298Y-77281242D01*
X133537673Y-77215690D01*
X133491972Y-77152787D01*
X133347211Y-77008026D01*
X133189507Y-76893450D01*
X133189168Y-76893161D01*
X133181603Y-76887707D01*
X133181239Y-76887524D01*
X133101104Y-76846693D01*
X133101104Y-76846692D01*
X133101102Y-76846692D01*
X132999228Y-76794783D01*
X132999221Y-76794780D01*
X132847267Y-76745407D01*
X132804534Y-76731522D01*
X132804532Y-76731521D01*
X132804530Y-76731521D01*
X132804529Y-76731520D01*
X132611861Y-76701006D01*
X132611860Y-76701005D01*
X132602353Y-76699500D01*
X132602352Y-76699500D01*
X132397648Y-76699500D01*
X132397647Y-76699500D01*
X132388138Y-76701005D01*
X132388139Y-76701006D01*
X132195464Y-76731522D01*
X132195457Y-76731523D01*
X132176919Y-76737547D01*
X132107077Y-76739542D01*
X132103358Y-76738502D01*
X131571213Y-76580746D01*
X131518776Y-76549541D01*
X128323600Y-73354365D01*
X128294708Y-73308954D01*
X128289898Y-73295690D01*
X127827281Y-72019881D01*
X127807926Y-71966503D01*
X127800499Y-71924233D01*
X127800499Y-71780008D01*
X127800499Y-71779998D01*
X127800498Y-71779981D01*
X127789999Y-71677203D01*
X127789998Y-71677200D01*
X127789996Y-71677194D01*
X127789997Y-71677194D01*
X127789985Y-71677139D01*
X127789937Y-71677016D01*
X127781906Y-71652781D01*
X127734814Y-71510666D01*
X127642712Y-71361344D01*
X127518656Y-71237288D01*
X127409585Y-71170013D01*
X127369336Y-71145187D01*
X127369331Y-71145185D01*
X127211265Y-71092807D01*
X127208445Y-71091641D01*
X127202792Y-71089999D01*
X127100019Y-71079500D01*
X127100010Y-71079500D01*
X125899998Y-71079500D01*
X125899981Y-71079501D01*
X125885959Y-71080933D01*
X125797198Y-71090000D01*
X125797193Y-71090001D01*
X125797032Y-71090056D01*
X125630667Y-71145185D01*
X125630665Y-71145186D01*
X125630663Y-71145187D01*
X125556132Y-71191158D01*
X125481340Y-71237290D01*
X125357290Y-71361340D01*
X125265187Y-71510662D01*
X125265152Y-71510770D01*
X125265151Y-71510769D01*
X125217463Y-71654678D01*
X125201707Y-71686258D01*
X125194278Y-71696988D01*
X125139933Y-71740901D01*
X125070474Y-71748462D01*
X125012195Y-71721030D01*
X125005230Y-71715133D01*
X124985050Y-71693393D01*
X124973285Y-71677200D01*
X124915690Y-71597927D01*
X124782073Y-71464310D01*
X124701514Y-71405780D01*
X124629203Y-71353242D01*
X124629200Y-71353240D01*
X124629199Y-71353240D01*
X124617370Y-71347213D01*
X124617367Y-71347211D01*
X124562604Y-71319308D01*
X124460836Y-71267454D01*
X124281118Y-71209059D01*
X124268137Y-71207003D01*
X124094491Y-71179500D01*
X124094486Y-71179500D01*
X124094481Y-71179500D01*
X123905519Y-71179500D01*
X123905514Y-71179500D01*
X123905509Y-71179500D01*
X123718886Y-71209058D01*
X123718884Y-71209058D01*
X123718881Y-71209059D01*
X123539163Y-71267454D01*
X123495034Y-71289939D01*
X123370800Y-71353239D01*
X123322911Y-71388034D01*
X123229798Y-71455685D01*
X123222417Y-71459818D01*
X123079818Y-71602417D01*
X123075685Y-71609798D01*
X123038785Y-71660586D01*
X123038784Y-71660585D01*
X122973244Y-71750794D01*
X122973236Y-71750807D01*
X122950749Y-71794941D01*
X122887454Y-71919163D01*
X122829059Y-72098881D01*
X122829059Y-72098883D01*
X122799500Y-72285507D01*
X122799500Y-72474491D01*
X122829058Y-72661112D01*
X122829059Y-72661118D01*
X122887454Y-72840836D01*
X122927725Y-72919871D01*
X122961882Y-72986909D01*
X122973238Y-73009196D01*
X122973240Y-73009199D01*
X123084310Y-73162073D01*
X123217927Y-73295690D01*
X123370801Y-73406760D01*
X123448778Y-73446491D01*
X123532716Y-73489260D01*
X123534310Y-73490193D01*
X123537997Y-73491979D01*
X123540027Y-73492988D01*
X123543792Y-73494050D01*
X123598380Y-73511786D01*
X123631998Y-73522709D01*
X123631999Y-73522710D01*
X123660960Y-73532120D01*
X123718881Y-73550940D01*
X123905514Y-73580500D01*
X123905519Y-73580500D01*
X124094485Y-73580500D01*
X124094486Y-73580500D01*
X124281118Y-73550940D01*
X124326781Y-73536103D01*
X124460832Y-73492547D01*
X124461963Y-73491971D01*
X124461977Y-73491964D01*
X124467027Y-73489390D01*
X124467031Y-73489386D01*
X124629199Y-73406760D01*
X124782073Y-73295690D01*
X124915690Y-73162073D01*
X124915690Y-73162072D01*
X124915693Y-73162070D01*
X124915693Y-73162069D01*
X124955692Y-73107014D01*
X124983353Y-73068941D01*
X125007948Y-73043634D01*
X125018283Y-73035664D01*
X125083391Y-73010312D01*
X125151869Y-73024185D01*
X125199074Y-73068003D01*
X125203919Y-73075733D01*
X125216557Y-73102583D01*
X125236270Y-73162073D01*
X125236271Y-73162074D01*
X125242744Y-73181610D01*
X125265186Y-73249333D01*
X125265187Y-73249336D01*
X125267895Y-73253726D01*
X125357288Y-73398656D01*
X125481344Y-73522712D01*
X125630666Y-73614814D01*
X125797203Y-73669999D01*
X125899991Y-73680500D01*
X126044234Y-73680499D01*
X126086505Y-73687926D01*
X126257387Y-73749889D01*
X127428955Y-74174708D01*
X127474365Y-74203600D01*
X130715581Y-77444816D01*
X130735872Y-77471522D01*
X131080258Y-78081348D01*
X131237993Y-78360661D01*
X131259582Y-78398889D01*
X131269540Y-78421544D01*
X131294779Y-78499219D01*
X131294783Y-78499228D01*
X131387708Y-78681601D01*
X131387715Y-78681613D01*
X131486572Y-78817681D01*
X131508027Y-78847211D01*
X131508029Y-78847214D01*
X131559795Y-78898980D01*
X131566945Y-78906767D01*
X131575584Y-78917021D01*
X131575584Y-78917022D01*
X131576129Y-78917419D01*
X131590728Y-78929913D01*
X131652787Y-78991972D01*
X131734022Y-79050991D01*
X131779885Y-79084312D01*
X131818390Y-79112287D01*
X131899499Y-79153614D01*
X131965219Y-79187100D01*
X131994330Y-79201934D01*
X131995931Y-79202871D01*
X131999620Y-79204658D01*
X132001639Y-79205660D01*
X132005406Y-79206723D01*
X132039880Y-79217924D01*
X132075818Y-79229601D01*
X132084826Y-79232528D01*
X132100818Y-79238985D01*
X132124147Y-79250354D01*
X132880675Y-79493244D01*
X132880681Y-79493248D01*
X132913202Y-79503688D01*
X132971016Y-79542922D01*
X132998441Y-79607184D01*
X132999300Y-79621753D01*
X132999300Y-82332873D01*
X132994276Y-82367811D01*
X132991089Y-82378664D01*
X132953314Y-82437441D01*
X132889757Y-82466464D01*
X132820607Y-82456523D01*
X132813629Y-82453336D01*
X132777457Y-82428222D01*
X129164847Y-78815612D01*
X129134994Y-78767451D01*
X129131715Y-78757700D01*
X128748291Y-77617372D01*
X128737108Y-77588464D01*
X128731964Y-77575168D01*
X128729364Y-77569959D01*
X128730038Y-77569622D01*
X128721906Y-77552137D01*
X128714203Y-77528428D01*
X128706720Y-77505399D01*
X128705659Y-77501636D01*
X128704659Y-77499623D01*
X128702868Y-77495925D01*
X128701933Y-77494329D01*
X128690312Y-77471522D01*
X128660027Y-77412085D01*
X128612287Y-77318390D01*
X128585298Y-77281242D01*
X128537673Y-77215690D01*
X128491972Y-77152787D01*
X128347211Y-77008026D01*
X128189507Y-76893450D01*
X128189168Y-76893161D01*
X128181603Y-76887707D01*
X128181239Y-76887524D01*
X128101104Y-76846693D01*
X128101104Y-76846692D01*
X128101102Y-76846692D01*
X127999228Y-76794783D01*
X127999221Y-76794780D01*
X127847267Y-76745407D01*
X127804534Y-76731522D01*
X127804532Y-76731521D01*
X127804530Y-76731521D01*
X127804529Y-76731520D01*
X127611861Y-76701006D01*
X127611860Y-76701005D01*
X127602353Y-76699500D01*
X127602352Y-76699500D01*
X127397648Y-76699500D01*
X127397647Y-76699500D01*
X127388138Y-76701006D01*
X127195469Y-76731520D01*
X127195468Y-76731521D01*
X127000777Y-76794780D01*
X127000764Y-76794786D01*
X126818397Y-76887708D01*
X126818385Y-76887715D01*
X126652787Y-77008027D01*
X126652784Y-77008029D01*
X126508029Y-77152784D01*
X126508027Y-77152787D01*
X126387715Y-77318385D01*
X126387708Y-77318397D01*
X126294783Y-77500770D01*
X126294779Y-77500779D01*
X126269224Y-77579427D01*
X126262010Y-77596946D01*
X126251709Y-77617368D01*
X126251706Y-77617376D01*
X126178985Y-77833655D01*
X125865003Y-78767450D01*
X125835150Y-78815611D01*
X125245516Y-79405246D01*
X125217263Y-79426397D01*
X125205081Y-79433049D01*
X125136808Y-79447901D01*
X125071345Y-79423485D01*
X125065739Y-79419289D01*
X125029576Y-79376327D01*
X125026764Y-79370809D01*
X125026758Y-79370799D01*
X124915690Y-79217927D01*
X124782073Y-79084310D01*
X124629199Y-78973240D01*
X124584909Y-78950673D01*
X124460836Y-78887454D01*
X124281118Y-78829059D01*
X124275177Y-78828118D01*
X124094491Y-78799500D01*
X124094486Y-78799500D01*
X124094481Y-78799500D01*
X123905519Y-78799500D01*
X123905514Y-78799500D01*
X123905509Y-78799500D01*
X123718886Y-78829058D01*
X123718884Y-78829058D01*
X123718881Y-78829059D01*
X123539163Y-78887454D01*
X123539161Y-78887454D01*
X123539161Y-78887455D01*
X123370794Y-78973243D01*
X123278204Y-79040513D01*
X123246995Y-79056981D01*
X123234802Y-79061332D01*
X123165046Y-79065324D01*
X123104206Y-79030969D01*
X123072761Y-78974340D01*
X123070533Y-78965342D01*
X123066900Y-78935548D01*
X123066900Y-76911551D01*
X123066901Y-76911500D01*
X123066901Y-76741045D01*
X123066901Y-76741043D01*
X123025977Y-76588315D01*
X122970685Y-76492547D01*
X122946920Y-76451384D01*
X122835116Y-76339580D01*
X122835115Y-76339579D01*
X122830785Y-76335249D01*
X122829763Y-76334227D01*
X122829720Y-76334185D01*
X118893177Y-72397642D01*
X119899500Y-72397642D01*
X119899500Y-72602356D01*
X119931521Y-72804530D01*
X119931522Y-72804534D01*
X119994781Y-72999223D01*
X120046385Y-73100500D01*
X120077756Y-73162070D01*
X120087713Y-73181609D01*
X120087715Y-73181614D01*
X120140100Y-73253716D01*
X120208028Y-73347213D01*
X120208030Y-73347215D01*
X120352787Y-73491972D01*
X120413531Y-73536104D01*
X120481132Y-73585218D01*
X120518390Y-73612287D01*
X120557717Y-73632325D01*
X120606672Y-73657269D01*
X120694329Y-73701933D01*
X120695923Y-73702866D01*
X120699610Y-73704652D01*
X120701638Y-73705660D01*
X120705406Y-73706723D01*
X120737627Y-73717192D01*
X120805135Y-73739126D01*
X120805136Y-73739127D01*
X120848612Y-73753253D01*
X120895465Y-73768477D01*
X120996557Y-73784488D01*
X121097648Y-73800500D01*
X121097649Y-73800500D01*
X121302351Y-73800500D01*
X121302352Y-73800500D01*
X121504534Y-73768477D01*
X121699219Y-73705220D01*
X121881610Y-73612287D01*
X121960254Y-73555149D01*
X121986468Y-73536104D01*
X121986469Y-73536103D01*
X122047176Y-73491998D01*
X122047202Y-73491979D01*
X122047213Y-73491971D01*
X122047213Y-73491970D01*
X122047270Y-73491929D01*
X122048032Y-73491152D01*
X122191152Y-73348032D01*
X122191928Y-73347271D01*
X122191982Y-73347198D01*
X122260056Y-73253502D01*
X122294463Y-73206143D01*
X122312287Y-73181610D01*
X122405220Y-72999219D01*
X122468477Y-72804534D01*
X122500500Y-72602352D01*
X122500500Y-72397648D01*
X122482739Y-72285513D01*
X122481493Y-72277642D01*
X122468477Y-72195464D01*
X122437095Y-72098881D01*
X122437095Y-72098880D01*
X122427659Y-72069842D01*
X122406719Y-72005395D01*
X122405660Y-72001641D01*
X122404646Y-71999599D01*
X122402863Y-71995917D01*
X122401934Y-71994331D01*
X122371503Y-71934606D01*
X122371503Y-71934607D01*
X122312287Y-71818390D01*
X122289891Y-71787564D01*
X122284395Y-71779999D01*
X122284393Y-71779997D01*
X122191971Y-71652786D01*
X122047213Y-71508028D01*
X122047212Y-71508027D01*
X122047211Y-71508026D01*
X121889507Y-71393450D01*
X121889168Y-71393161D01*
X121881603Y-71387707D01*
X121881239Y-71387524D01*
X121813953Y-71353240D01*
X121813953Y-71353239D01*
X121813951Y-71353239D01*
X121699228Y-71294783D01*
X121699221Y-71294780D01*
X121522301Y-71237295D01*
X121504534Y-71231522D01*
X121504532Y-71231521D01*
X121504530Y-71231521D01*
X121504529Y-71231520D01*
X121329995Y-71203878D01*
X121313409Y-71201251D01*
X121302354Y-71199500D01*
X121302352Y-71199500D01*
X121097648Y-71199500D01*
X121097647Y-71199500D01*
X121073327Y-71203351D01*
X121073326Y-71203350D01*
X120895468Y-71231521D01*
X120700777Y-71294780D01*
X120700764Y-71294786D01*
X120518397Y-71387708D01*
X120518385Y-71387715D01*
X120352787Y-71508027D01*
X120352784Y-71508029D01*
X120208032Y-71652782D01*
X120208027Y-71652787D01*
X120087715Y-71818385D01*
X120087708Y-71818397D01*
X119994786Y-72000764D01*
X119994780Y-72000777D01*
X119931521Y-72195468D01*
X119899500Y-72397642D01*
X118893177Y-72397642D01*
X118795726Y-72300191D01*
X118774574Y-72271935D01*
X118761967Y-72248846D01*
X118746800Y-72189421D01*
X118746800Y-71319925D01*
X118751822Y-71284992D01*
X118752573Y-71282435D01*
X118759234Y-71259747D01*
X118790528Y-71207005D01*
X121225215Y-68772317D01*
X121253464Y-68751170D01*
X121263393Y-68745748D01*
X121331665Y-68730897D01*
X121397129Y-68755314D01*
X121439001Y-68811247D01*
X121439002Y-68811252D01*
X121442778Y-68821377D01*
X121449885Y-68851453D01*
X121455907Y-68907482D01*
X121470265Y-68945977D01*
X121506202Y-69042328D01*
X121506206Y-69042335D01*
X121525429Y-69068013D01*
X121592450Y-69157542D01*
X121592452Y-69157544D01*
X121592455Y-69157547D01*
X121707664Y-69243793D01*
X121707671Y-69243797D01*
X121757150Y-69262251D01*
X121792501Y-69288714D01*
X121842516Y-69294091D01*
X121848925Y-69294780D01*
X121902127Y-69300500D01*
X123097872Y-69300499D01*
X123157483Y-69294091D01*
X123292331Y-69243796D01*
X123407546Y-69157546D01*
X123493796Y-69042331D01*
X123544091Y-68907483D01*
X123550500Y-68847873D01*
X123550499Y-66952128D01*
X123544091Y-66892517D01*
X123542133Y-66887270D01*
X123542133Y-66887259D01*
X123542131Y-66887260D01*
X123531695Y-66859279D01*
X123525847Y-66837961D01*
X123521970Y-66816470D01*
X123520000Y-66794456D01*
X123520000Y-66712840D01*
X123539685Y-66645801D01*
X123592489Y-66600046D01*
X123661647Y-66590102D01*
X123676080Y-66593062D01*
X123720630Y-66605000D01*
X123819368Y-66605000D01*
X123819370Y-66605000D01*
X123863907Y-66593066D01*
X123933754Y-66594727D01*
X123991618Y-66633889D01*
X124019123Y-66698117D01*
X124020000Y-66712840D01*
X124020000Y-67024543D01*
X124018248Y-67045312D01*
X124016278Y-67056910D01*
X124014794Y-67065643D01*
X124009589Y-67085821D01*
X124005659Y-67097054D01*
X124004157Y-67101346D01*
X124004157Y-67101348D01*
X123989500Y-67231434D01*
X123989500Y-68568564D01*
X124004154Y-68698629D01*
X124004157Y-68698652D01*
X124004158Y-68698656D01*
X124004159Y-68698659D01*
X124047025Y-68821160D01*
X124056376Y-68847883D01*
X124061878Y-68863606D01*
X124154853Y-69011576D01*
X124278424Y-69135147D01*
X124426394Y-69228122D01*
X124471187Y-69243796D01*
X124583920Y-69283244D01*
X124587054Y-69284569D01*
X124588423Y-69284975D01*
X124591465Y-69285957D01*
X124594775Y-69286424D01*
X124598255Y-69286620D01*
X124602726Y-69287123D01*
X124632748Y-69290505D01*
X124632749Y-69290506D01*
X124648281Y-69292255D01*
X124718440Y-69300160D01*
X124720909Y-69300500D01*
X125358555Y-69300500D01*
X125368348Y-69300500D01*
X125375944Y-69298539D01*
X125488657Y-69285841D01*
X125653606Y-69228122D01*
X125801576Y-69135147D01*
X125925147Y-69011576D01*
X126018122Y-68863606D01*
X126075841Y-68698657D01*
X126090500Y-68568552D01*
X126090500Y-68352396D01*
X126110185Y-68285357D01*
X126135979Y-68256425D01*
X126149877Y-68245054D01*
X126292297Y-68128528D01*
X126356647Y-68101312D01*
X126370818Y-68100500D01*
X130751380Y-68100500D01*
X130751443Y-68100501D01*
X130753347Y-68100501D01*
X130760943Y-68100501D01*
X130919054Y-68100501D01*
X130919057Y-68100501D01*
X131071785Y-68059577D01*
X131121904Y-68030639D01*
X131208716Y-67980520D01*
X131320520Y-67868716D01*
X131320520Y-67868714D01*
X131330728Y-67858507D01*
X131330730Y-67858504D01*
X131638840Y-67550391D01*
X131686137Y-67520834D01*
X132703021Y-67170593D01*
X132743341Y-67154742D01*
X132743349Y-67154736D01*
X132748486Y-67152145D01*
X132748908Y-67152982D01*
X132766150Y-67144844D01*
X132808509Y-67131082D01*
X132979681Y-67043865D01*
X133135102Y-66930945D01*
X133270945Y-66795102D01*
X133383865Y-66639681D01*
X133471082Y-66468509D01*
X133478879Y-66444512D01*
X133486560Y-66420872D01*
X133502132Y-66389201D01*
X133508159Y-66380386D01*
X133562249Y-66336162D01*
X133631664Y-66328201D01*
X133694363Y-66359032D01*
X133721605Y-66398732D01*
X133722663Y-66398199D01*
X133727851Y-66408480D01*
X133727085Y-66408866D01*
X133735150Y-66426140D01*
X133748913Y-66468501D01*
X133748914Y-66468503D01*
X133818464Y-66605000D01*
X133818463Y-66605000D01*
X133836131Y-66639676D01*
X133857179Y-66668645D01*
X133949055Y-66795102D01*
X134084898Y-66930945D01*
X134240319Y-67043865D01*
X134353135Y-67101348D01*
X134411493Y-67131083D01*
X134500757Y-67160086D01*
X134594199Y-67190447D01*
X134783945Y-67220500D01*
X134783946Y-67220500D01*
X134976054Y-67220500D01*
X134976055Y-67220500D01*
X135165801Y-67190447D01*
X135348509Y-67131082D01*
X135519681Y-67043865D01*
X135675102Y-66930945D01*
X135810945Y-66795102D01*
X135923865Y-66639681D01*
X136011082Y-66468509D01*
X136070447Y-66285801D01*
X136100500Y-66096055D01*
X136100500Y-65903945D01*
X136070447Y-65714199D01*
X136032188Y-65596448D01*
X136031560Y-65594515D01*
X136011085Y-65531498D01*
X136011083Y-65531492D01*
X135945893Y-65403551D01*
X135945893Y-65403550D01*
X135923866Y-65360320D01*
X135902819Y-65331352D01*
X135810945Y-65204898D01*
X135675102Y-65069055D01*
X135520277Y-64956568D01*
X135519676Y-64956131D01*
X135476451Y-64934107D01*
X135476451Y-64934108D01*
X135348506Y-64868916D01*
X135280230Y-64846731D01*
X135261902Y-64839104D01*
X135243024Y-64829408D01*
X135243021Y-64829406D01*
X134226139Y-64479164D01*
X134178839Y-64449604D01*
X133953328Y-64224093D01*
X133953319Y-64224083D01*
X133906748Y-64177512D01*
X133830117Y-64100881D01*
X133830116Y-64100880D01*
X133830115Y-64100879D01*
X133830112Y-64100877D01*
X133764197Y-64062821D01*
X133750830Y-64051198D01*
X133728242Y-64042063D01*
X133693186Y-64021823D01*
X133655003Y-64011592D01*
X133540457Y-63980899D01*
X133540454Y-63980899D01*
X133372843Y-63980899D01*
X133372780Y-63980900D01*
X115784721Y-63980900D01*
X115784658Y-63980899D01*
X115782754Y-63980899D01*
X115775158Y-63980899D01*
X115617043Y-63980899D01*
X115540678Y-64001360D01*
X115540679Y-64001361D01*
X115464317Y-64021822D01*
X115464315Y-64021822D01*
X115464314Y-64021823D01*
X115464312Y-64021823D01*
X115464243Y-64021853D01*
X115463434Y-64022330D01*
X115327398Y-64100870D01*
X115327393Y-64100872D01*
X115327390Y-64100875D01*
X115327387Y-64100877D01*
X115327377Y-64100884D01*
X111019485Y-68408776D01*
X111019481Y-68408781D01*
X111019481Y-68408782D01*
X110973424Y-68488556D01*
X110973422Y-68488560D01*
X110948585Y-68531575D01*
X110940424Y-68545709D01*
X110934304Y-68568552D01*
X110899499Y-68698444D01*
X110899499Y-68868900D01*
X110899500Y-68868951D01*
X110899500Y-73828457D01*
X110887069Y-73882570D01*
X110432717Y-74819339D01*
X110415661Y-74858667D01*
X110413941Y-74863919D01*
X110406591Y-74881602D01*
X110387456Y-74919155D01*
X110385948Y-74923797D01*
X110329059Y-75098881D01*
X110329058Y-75098884D01*
X110329058Y-75098886D01*
X110299500Y-75285507D01*
X110299500Y-75474491D01*
X110325967Y-75641598D01*
X110329059Y-75661118D01*
X110387454Y-75840836D01*
X110473240Y-76009199D01*
X110584310Y-76162073D01*
X110717927Y-76295690D01*
X110870801Y-76406760D01*
X110926412Y-76435095D01*
X111032719Y-76489262D01*
X111034318Y-76490198D01*
X111038034Y-76491998D01*
X111040025Y-76492987D01*
X111043786Y-76494048D01*
X111077980Y-76505158D01*
X111126227Y-76520834D01*
X111126228Y-76520835D01*
X111152595Y-76529402D01*
X111218881Y-76550940D01*
X111405514Y-76580500D01*
X111405519Y-76580500D01*
X111594485Y-76580500D01*
X111594486Y-76580500D01*
X111781118Y-76550940D01*
X111785987Y-76549358D01*
X111790854Y-76547777D01*
X111790854Y-76547776D01*
X111790856Y-76547776D01*
X111960832Y-76492547D01*
X111961910Y-76491998D01*
X111976594Y-76484516D01*
X112129199Y-76406760D01*
X112282073Y-76295690D01*
X112415690Y-76162073D01*
X112526760Y-76009199D01*
X112612547Y-75840832D01*
X112670940Y-75661118D01*
X112684422Y-75575995D01*
X112686235Y-75564552D01*
X112700500Y-75474485D01*
X112700500Y-75285513D01*
X112694286Y-75246278D01*
X112670940Y-75098881D01*
X112614051Y-74923797D01*
X112612987Y-74920024D01*
X112611975Y-74917989D01*
X112610193Y-74914311D01*
X112609264Y-74912723D01*
X112590753Y-74876395D01*
X112581239Y-74857724D01*
X112573594Y-74839125D01*
X112567288Y-74819356D01*
X112183444Y-74027954D01*
X112112930Y-73882569D01*
X112100500Y-73828456D01*
X112100500Y-69095426D01*
X112105522Y-69060493D01*
X112112934Y-69035248D01*
X112144228Y-68982506D01*
X112904648Y-68222087D01*
X113684216Y-67442517D01*
X113712464Y-67421371D01*
X113722393Y-67415949D01*
X113790665Y-67401098D01*
X113856129Y-67425515D01*
X113898001Y-67481448D01*
X113900682Y-67488636D01*
X113908500Y-67531970D01*
X113908500Y-68767630D01*
X113907594Y-68782592D01*
X113905397Y-68800662D01*
X113905397Y-68800669D01*
X113907102Y-68811925D01*
X113908500Y-68830491D01*
X113908500Y-68847876D01*
X113908659Y-68849806D01*
X113908885Y-68851454D01*
X113914907Y-68907481D01*
X113922184Y-68926991D01*
X113926297Y-68940804D01*
X113929524Y-68951499D01*
X113929528Y-68951511D01*
X113947897Y-69002369D01*
X113947904Y-69002385D01*
X113948214Y-69002898D01*
X113958225Y-69023623D01*
X113965202Y-69042328D01*
X113965207Y-69042337D01*
X113996588Y-69084256D01*
X114003491Y-69094504D01*
X114021556Y-69124442D01*
X114022234Y-69125565D01*
X114330472Y-69502300D01*
X114357688Y-69566649D01*
X114358500Y-69580820D01*
X114358500Y-76803102D01*
X114357238Y-76820747D01*
X114353500Y-76846744D01*
X114353500Y-76956664D01*
X114353501Y-76956694D01*
X114356369Y-76985796D01*
X114351449Y-77011745D01*
X114362441Y-77052769D01*
X114363701Y-77058172D01*
X114364112Y-77059812D01*
X114365379Y-77063988D01*
X114366488Y-77067873D01*
X114370294Y-77082075D01*
X114370295Y-77082080D01*
X114381425Y-77123620D01*
X114381430Y-77123637D01*
X114399423Y-77190784D01*
X114399424Y-77190787D01*
X114399425Y-77190788D01*
X114404959Y-77200373D01*
X114404962Y-77200379D01*
X114410200Y-77209451D01*
X114421974Y-77237150D01*
X114745408Y-78360720D01*
X114745685Y-78361678D01*
X114745714Y-78361778D01*
X114758812Y-78398889D01*
X114764896Y-78416126D01*
X114767534Y-78421741D01*
X114767290Y-78421855D01*
X114775537Y-78440000D01*
X114794778Y-78499216D01*
X114794786Y-78499234D01*
X114887708Y-78681601D01*
X114887715Y-78681613D01*
X114986572Y-78817681D01*
X115008027Y-78847211D01*
X115008029Y-78847214D01*
X115152787Y-78991972D01*
X115234022Y-79050991D01*
X115279885Y-79084312D01*
X115318390Y-79112287D01*
X115399499Y-79153614D01*
X115465219Y-79187100D01*
X115494330Y-79201934D01*
X115495931Y-79202871D01*
X115499620Y-79204658D01*
X115501637Y-79205660D01*
X115505405Y-79206722D01*
X115575818Y-79229601D01*
X115579426Y-79230773D01*
X115596952Y-79237991D01*
X115617372Y-79248291D01*
X116767452Y-79634995D01*
X116815612Y-79664847D01*
X120390573Y-83239808D01*
X120411723Y-83268060D01*
X120424331Y-83291149D01*
X120439500Y-83350578D01*
X120439500Y-84301609D01*
X120426955Y-84355957D01*
X119955570Y-85322659D01*
X119938257Y-85362404D01*
X119936456Y-85367878D01*
X119935699Y-85367628D01*
X119929132Y-85385514D01*
X119908918Y-85425186D01*
X119908914Y-85425196D01*
X119893440Y-85472823D01*
X119877874Y-85504487D01*
X119871851Y-85513297D01*
X119817765Y-85557530D01*
X119748352Y-85565501D01*
X119685648Y-85534678D01*
X119658396Y-85494966D01*
X119657338Y-85495501D01*
X119652147Y-85485216D01*
X119652919Y-85484826D01*
X119644846Y-85467551D01*
X119631085Y-85425198D01*
X119631078Y-85425182D01*
X119567550Y-85300502D01*
X119567547Y-85300499D01*
X119566162Y-85297780D01*
X119543865Y-85254019D01*
X119430945Y-85098598D01*
X119295102Y-84962755D01*
X119139681Y-84849835D01*
X119139680Y-84849834D01*
X119139678Y-84849833D01*
X119134535Y-84847212D01*
X119134535Y-84847213D01*
X118968505Y-84762615D01*
X118968500Y-84762613D01*
X118785804Y-84703253D01*
X118785805Y-84703253D01*
X118649153Y-84681610D01*
X118622130Y-84677330D01*
X118596055Y-84673200D01*
X118596054Y-84673200D01*
X118403946Y-84673200D01*
X118403945Y-84673200D01*
X118377870Y-84677330D01*
X118350847Y-84681610D01*
X118214193Y-84703253D01*
X118031498Y-84762613D01*
X118031482Y-84762620D01*
X117860322Y-84849831D01*
X117771645Y-84914260D01*
X117716769Y-84954130D01*
X117709388Y-84958263D01*
X117564563Y-85103088D01*
X117560430Y-85110469D01*
X117520560Y-85165345D01*
X117456131Y-85254022D01*
X117368920Y-85425182D01*
X117368914Y-85425195D01*
X117353440Y-85472823D01*
X117337868Y-85504495D01*
X117331483Y-85513833D01*
X117277395Y-85558062D01*
X117207981Y-85566027D01*
X117145283Y-85535202D01*
X117142984Y-85533091D01*
X117108913Y-85480069D01*
X117091083Y-85425193D01*
X117027548Y-85300500D01*
X117003865Y-85254019D01*
X116890945Y-85098598D01*
X116755102Y-84962755D01*
X116599681Y-84849835D01*
X116599680Y-84849834D01*
X116599678Y-84849833D01*
X116594535Y-84847212D01*
X116594535Y-84847213D01*
X116428505Y-84762615D01*
X116428500Y-84762613D01*
X116245804Y-84703253D01*
X116245805Y-84703253D01*
X116109153Y-84681610D01*
X116082130Y-84677330D01*
X116056055Y-84673200D01*
X116056054Y-84673200D01*
X115863946Y-84673200D01*
X115863945Y-84673200D01*
X115837870Y-84677330D01*
X115810847Y-84681610D01*
X115674193Y-84703253D01*
X115491498Y-84762613D01*
X115491482Y-84762620D01*
X115320322Y-84849831D01*
X115231645Y-84914260D01*
X115176769Y-84954130D01*
X115169388Y-84958263D01*
X115024563Y-85103088D01*
X115020430Y-85110469D01*
X114980560Y-85165345D01*
X114916131Y-85254022D01*
X114828920Y-85425182D01*
X114828913Y-85425198D01*
X114769553Y-85607893D01*
X114739500Y-85797639D01*
X114739500Y-85989759D01*
X114769553Y-86179505D01*
X114828913Y-86362200D01*
X114828915Y-86362206D01*
X114895957Y-86493781D01*
X114916133Y-86533379D01*
X114947513Y-86576569D01*
X115029055Y-86688802D01*
X115164898Y-86824645D01*
X115320319Y-86937565D01*
X115396780Y-86976524D01*
X115491493Y-87024783D01*
X115582845Y-87054464D01*
X115674199Y-87084147D01*
X115863945Y-87114200D01*
X115863946Y-87114200D01*
X116056054Y-87114200D01*
X116056055Y-87114200D01*
X116245801Y-87084147D01*
X116428509Y-87024782D01*
X116599681Y-86937565D01*
X116755102Y-86824645D01*
X116890945Y-86688802D01*
X117003865Y-86533381D01*
X117091082Y-86362209D01*
X117097586Y-86342190D01*
X117099339Y-86336798D01*
X117106560Y-86314574D01*
X117122124Y-86282912D01*
X117128515Y-86273566D01*
X117182598Y-86229338D01*
X117252012Y-86221370D01*
X117314707Y-86252188D01*
X117316987Y-86254281D01*
X117351085Y-86307329D01*
X117368913Y-86362201D01*
X117368914Y-86362204D01*
X117435957Y-86493781D01*
X117456133Y-86533379D01*
X117487513Y-86576569D01*
X117569055Y-86688802D01*
X117704898Y-86824645D01*
X117860319Y-86937565D01*
X117936780Y-86976524D01*
X118031493Y-87024783D01*
X118099758Y-87046963D01*
X118118086Y-87054590D01*
X118136972Y-87064290D01*
X118136980Y-87064294D01*
X118412793Y-87159291D01*
X119180594Y-87423742D01*
X119202196Y-87433588D01*
X119252342Y-87462539D01*
X119254644Y-87463868D01*
X119254658Y-87463877D01*
X119254659Y-87463877D01*
X119261695Y-87467939D01*
X119261697Y-87467941D01*
X119302462Y-87491477D01*
X119302464Y-87491478D01*
X119302465Y-87491479D01*
X119311811Y-87496875D01*
X119311812Y-87496875D01*
X119311815Y-87496877D01*
X119464542Y-87537800D01*
X119464543Y-87537800D01*
X121388980Y-87537800D01*
X121389043Y-87537801D01*
X121390947Y-87537801D01*
X121398543Y-87537801D01*
X121556654Y-87537801D01*
X121556657Y-87537801D01*
X121709385Y-87496877D01*
X121759504Y-87467939D01*
X121846316Y-87417820D01*
X121958120Y-87306016D01*
X121958120Y-87306014D01*
X121968328Y-87295807D01*
X121968328Y-87295805D01*
X121968833Y-87295301D01*
X121968843Y-87295292D01*
X121978526Y-87285610D01*
X121978537Y-87285595D01*
X124549811Y-84714323D01*
X124578061Y-84693175D01*
X124601153Y-84680567D01*
X124660578Y-84665400D01*
X125313273Y-84665400D01*
X125348205Y-84670421D01*
X125373449Y-84677834D01*
X125426195Y-84709130D01*
X125909605Y-85192541D01*
X125939165Y-85239841D01*
X125980403Y-85359571D01*
X125980405Y-85359576D01*
X125983761Y-85369319D01*
X125983761Y-85369321D01*
X126288057Y-86252804D01*
X126289413Y-86256740D01*
X126305252Y-86297030D01*
X126307852Y-86302181D01*
X126307059Y-86302581D01*
X126315151Y-86319842D01*
X126328913Y-86362200D01*
X126328915Y-86362206D01*
X126395957Y-86493781D01*
X126416133Y-86533379D01*
X126447513Y-86576569D01*
X126529055Y-86688802D01*
X126664898Y-86824645D01*
X126820319Y-86937565D01*
X126896780Y-86976524D01*
X126991493Y-87024783D01*
X127082845Y-87054464D01*
X127174199Y-87084147D01*
X127363945Y-87114200D01*
X127363946Y-87114200D01*
X127556054Y-87114200D01*
X127556055Y-87114200D01*
X127745801Y-87084147D01*
X127928509Y-87024782D01*
X128099681Y-86937565D01*
X128255102Y-86824645D01*
X128390945Y-86688802D01*
X128503865Y-86533381D01*
X128591082Y-86362209D01*
X128597586Y-86342190D01*
X128599339Y-86336798D01*
X128606560Y-86314574D01*
X128622124Y-86282912D01*
X128628515Y-86273566D01*
X128682598Y-86229338D01*
X128752012Y-86221370D01*
X128814707Y-86252188D01*
X128816987Y-86254281D01*
X128851085Y-86307329D01*
X128868913Y-86362201D01*
X128868914Y-86362204D01*
X128935957Y-86493781D01*
X128956133Y-86533379D01*
X128987513Y-86576569D01*
X129069055Y-86688802D01*
X129204898Y-86824645D01*
X129360319Y-86937565D01*
X129436780Y-86976524D01*
X129531493Y-87024783D01*
X129599758Y-87046963D01*
X129618086Y-87054590D01*
X129636972Y-87064290D01*
X129636980Y-87064294D01*
X129923468Y-87162967D01*
X130690387Y-87427115D01*
X130711991Y-87436961D01*
X130801857Y-87488845D01*
X130801861Y-87488847D01*
X130801862Y-87488848D01*
X130806412Y-87491475D01*
X130806416Y-87491477D01*
X130959143Y-87532401D01*
X130959145Y-87532401D01*
X131124854Y-87532401D01*
X131126758Y-87532401D01*
X131126821Y-87532400D01*
X132894380Y-87532400D01*
X132894443Y-87532401D01*
X132896347Y-87532401D01*
X132903943Y-87532401D01*
X133062054Y-87532401D01*
X133062057Y-87532401D01*
X133214785Y-87491477D01*
X133264904Y-87462539D01*
X133351716Y-87412420D01*
X133463520Y-87300616D01*
X133463520Y-87300615D01*
X133480960Y-87283175D01*
X133480961Y-87283173D01*
X133968513Y-86795621D01*
X133968516Y-86795620D01*
X134080320Y-86683816D01*
X134130439Y-86597004D01*
X134153292Y-86557422D01*
X134164122Y-86541626D01*
X134164887Y-86540676D01*
X134164888Y-86540677D01*
X134175672Y-86527294D01*
X134233063Y-86487448D01*
X134302888Y-86484955D01*
X134362976Y-86520608D01*
X134392893Y-86576569D01*
X134394072Y-86581555D01*
X134397400Y-86610089D01*
X134397400Y-87220090D01*
X134397399Y-87220164D01*
X134397399Y-87345460D01*
X134391500Y-87365546D01*
X134424539Y-87488845D01*
X134437657Y-87537801D01*
X134438325Y-87540292D01*
X134446480Y-87554418D01*
X134446486Y-87554426D01*
X134466725Y-87589479D01*
X134466726Y-87589480D01*
X134490557Y-87630757D01*
X134517375Y-87677209D01*
X134517377Y-87677211D01*
X134517378Y-87677213D01*
X134517385Y-87677222D01*
X134638214Y-87798051D01*
X134638258Y-87798093D01*
X135115375Y-88275211D01*
X135136524Y-88303461D01*
X135141945Y-88313388D01*
X135156799Y-88381661D01*
X135132385Y-88447126D01*
X135076453Y-88488999D01*
X135076449Y-88489001D01*
X135069261Y-88491682D01*
X135025927Y-88499500D01*
X79210445Y-88499500D01*
X79203482Y-88499304D01*
X79196530Y-88498913D01*
X79189610Y-88498329D01*
X79116619Y-88490105D01*
X79094847Y-88485135D01*
X79091362Y-88484561D01*
X79091361Y-88484561D01*
X79091359Y-88484561D01*
X79084214Y-88483385D01*
X79063407Y-88478073D01*
X79035463Y-88468295D01*
X79003038Y-88456949D01*
X78996151Y-88452709D01*
X78990197Y-88451630D01*
X78977720Y-88445622D01*
X78965669Y-88438972D01*
X78965378Y-88438789D01*
X78965282Y-88438680D01*
X78965261Y-88438715D01*
X78906294Y-88401663D01*
X78894953Y-88393616D01*
X78884124Y-88384980D01*
X78880448Y-88380789D01*
X78877580Y-88379379D01*
X78873757Y-88375715D01*
X78824283Y-88326241D01*
X78815018Y-88315874D01*
X78806382Y-88305045D01*
X78798334Y-88293703D01*
X78793508Y-88286022D01*
X78761095Y-88234438D01*
X78754381Y-88222290D01*
X78748364Y-88209796D01*
X78743052Y-88196970D01*
X78719933Y-88130897D01*
X78716085Y-88117539D01*
X78713010Y-88104068D01*
X78710680Y-88090355D01*
X78701669Y-88010372D01*
X78701084Y-88003434D01*
X78700695Y-87996498D01*
X78700500Y-87989554D01*
X78700500Y-86149998D01*
X85775883Y-86149998D01*
X85775884Y-86149999D01*
X85775885Y-86150000D01*
X86263631Y-86150000D01*
X86330670Y-86169685D01*
X86376425Y-86222489D01*
X86386369Y-86291647D01*
X86383406Y-86306092D01*
X86375000Y-86337463D01*
X86375000Y-86462536D01*
X86383406Y-86493908D01*
X86381743Y-86563758D01*
X86342579Y-86621620D01*
X86278351Y-86649123D01*
X86263631Y-86650000D01*
X85775885Y-86650000D01*
X85777084Y-86657582D01*
X85830592Y-86822259D01*
X85909197Y-86976527D01*
X86010961Y-87116596D01*
X86133402Y-87239037D01*
X86255375Y-87327654D01*
X86273475Y-87340804D01*
X86427742Y-87419408D01*
X86592415Y-87472914D01*
X86763429Y-87500000D01*
X87500000Y-87500000D01*
X87500000Y-86999000D01*
X87519685Y-86931961D01*
X87572489Y-86886206D01*
X87624000Y-86875000D01*
X87876000Y-86875000D01*
X87943039Y-86894685D01*
X87988794Y-86947489D01*
X88000000Y-86999000D01*
X88000000Y-87500000D01*
X88736570Y-87500000D01*
X88736571Y-87500000D01*
X88907584Y-87472914D01*
X89072257Y-87419408D01*
X89226524Y-87340804D01*
X89305850Y-87283171D01*
X89366596Y-87239037D01*
X89366598Y-87239034D01*
X89366602Y-87239032D01*
X89489032Y-87116602D01*
X89489034Y-87116598D01*
X89489037Y-87116596D01*
X89539630Y-87046959D01*
X89590804Y-86976524D01*
X89669408Y-86822255D01*
X89722914Y-86657584D01*
X89724115Y-86650000D01*
X89236369Y-86650000D01*
X89169330Y-86630315D01*
X89123575Y-86577511D01*
X89113631Y-86508353D01*
X89116594Y-86493908D01*
X89122540Y-86471716D01*
X89125000Y-86462535D01*
X89125000Y-86337465D01*
X89119645Y-86317482D01*
X89116594Y-86306092D01*
X89118257Y-86236242D01*
X89157421Y-86178380D01*
X89221649Y-86150877D01*
X89236369Y-86150000D01*
X89724115Y-86150000D01*
X89724115Y-86149998D01*
X91025883Y-86149998D01*
X91025884Y-86149999D01*
X91025885Y-86150000D01*
X91513631Y-86150000D01*
X91580670Y-86169685D01*
X91626425Y-86222489D01*
X91636369Y-86291647D01*
X91633406Y-86306092D01*
X91625000Y-86337463D01*
X91625000Y-86462536D01*
X91633406Y-86493908D01*
X91631743Y-86563758D01*
X91592579Y-86621620D01*
X91528351Y-86649123D01*
X91513631Y-86650000D01*
X91025885Y-86650000D01*
X91027084Y-86657582D01*
X91080592Y-86822259D01*
X91159197Y-86976527D01*
X91260961Y-87116596D01*
X91383402Y-87239037D01*
X91505375Y-87327654D01*
X91523475Y-87340804D01*
X91677742Y-87419408D01*
X91842415Y-87472914D01*
X92013429Y-87500000D01*
X92750000Y-87500000D01*
X92750000Y-86999000D01*
X92769685Y-86931961D01*
X92822489Y-86886206D01*
X92874000Y-86875000D01*
X93126000Y-86875000D01*
X93193039Y-86894685D01*
X93238794Y-86947489D01*
X93250000Y-86999000D01*
X93250000Y-87500000D01*
X93986570Y-87500000D01*
X93986571Y-87500000D01*
X94157584Y-87472914D01*
X94322257Y-87419408D01*
X94476524Y-87340804D01*
X94555850Y-87283171D01*
X94616596Y-87239037D01*
X94616598Y-87239034D01*
X94616602Y-87239032D01*
X94739032Y-87116602D01*
X94739034Y-87116598D01*
X94739037Y-87116596D01*
X94789630Y-87046959D01*
X94840804Y-86976524D01*
X94919408Y-86822255D01*
X94972914Y-86657584D01*
X94974115Y-86650000D01*
X94486369Y-86650000D01*
X94419330Y-86630315D01*
X94373575Y-86577511D01*
X94363631Y-86508353D01*
X94366594Y-86493908D01*
X94372540Y-86471716D01*
X94375000Y-86462535D01*
X94375000Y-86337465D01*
X94369645Y-86317482D01*
X94366594Y-86306092D01*
X94368257Y-86236242D01*
X94407421Y-86178380D01*
X94471649Y-86150877D01*
X94486369Y-86150000D01*
X94974115Y-86150000D01*
X94974115Y-86149998D01*
X94972914Y-86142416D01*
X94919406Y-85977739D01*
X94886824Y-85913794D01*
X94840804Y-85823475D01*
X94822033Y-85797639D01*
X94739037Y-85683402D01*
X94616596Y-85560961D01*
X94476527Y-85459197D01*
X94476526Y-85459196D01*
X94476524Y-85459195D01*
X94322257Y-85380591D01*
X94251613Y-85357637D01*
X94157584Y-85327084D01*
X93986575Y-85300000D01*
X93986571Y-85300000D01*
X93250000Y-85300000D01*
X93250000Y-85801000D01*
X93230315Y-85868039D01*
X93177511Y-85913794D01*
X93126000Y-85925000D01*
X92874000Y-85925000D01*
X92806961Y-85905315D01*
X92761206Y-85852511D01*
X92750000Y-85801000D01*
X92750000Y-85300000D01*
X92013429Y-85300000D01*
X92013425Y-85300000D01*
X91842416Y-85327084D01*
X91842410Y-85327086D01*
X91748386Y-85357637D01*
X91677742Y-85380591D01*
X91590221Y-85425186D01*
X91523471Y-85459197D01*
X91383402Y-85560961D01*
X91260961Y-85683402D01*
X91159197Y-85823471D01*
X91080592Y-85977739D01*
X91027084Y-86142417D01*
X91025883Y-86149998D01*
X89724115Y-86149998D01*
X89722914Y-86142416D01*
X89669406Y-85977739D01*
X89636824Y-85913794D01*
X89590804Y-85823475D01*
X89572033Y-85797639D01*
X89489037Y-85683402D01*
X89366596Y-85560961D01*
X89226527Y-85459197D01*
X89226526Y-85459196D01*
X89226524Y-85459195D01*
X89072257Y-85380591D01*
X89001613Y-85357637D01*
X88907584Y-85327084D01*
X88736575Y-85300000D01*
X88736571Y-85300000D01*
X88000000Y-85300000D01*
X88000000Y-85801000D01*
X87980315Y-85868039D01*
X87927511Y-85913794D01*
X87876000Y-85925000D01*
X87624000Y-85925000D01*
X87556961Y-85905315D01*
X87511206Y-85852511D01*
X87500000Y-85801000D01*
X87500000Y-85300000D01*
X86763429Y-85300000D01*
X86763425Y-85300000D01*
X86592416Y-85327084D01*
X86592410Y-85327086D01*
X86498386Y-85357637D01*
X86427742Y-85380591D01*
X86340221Y-85425186D01*
X86273471Y-85459197D01*
X86133402Y-85560961D01*
X86010961Y-85683402D01*
X85909197Y-85823471D01*
X85830592Y-85977739D01*
X85777084Y-86142417D01*
X85775883Y-86149998D01*
X78700500Y-86149998D01*
X78700500Y-67999984D01*
X80299500Y-67999984D01*
X80299500Y-68004951D01*
X80299500Y-70000024D01*
X80309999Y-70102796D01*
X80311639Y-70108439D01*
X80312807Y-70111265D01*
X80326514Y-70152630D01*
X80326514Y-70152631D01*
X80365183Y-70269327D01*
X80365184Y-70269330D01*
X80365190Y-70269343D01*
X80428558Y-70372076D01*
X80457286Y-70418651D01*
X80457289Y-70418655D01*
X80457291Y-70418657D01*
X80457293Y-70418660D01*
X80581338Y-70542705D01*
X80581341Y-70542707D01*
X80581344Y-70542710D01*
X80581348Y-70542713D01*
X80714666Y-70624945D01*
X80728181Y-70633282D01*
X80730662Y-70634812D01*
X80730664Y-70634813D01*
X80730666Y-70634814D01*
X80897203Y-70689999D01*
X80999992Y-70700500D01*
X80999997Y-70700500D01*
X81259535Y-70700500D01*
X81294462Y-70705521D01*
X81303094Y-70708055D01*
X81361875Y-70745825D01*
X81390904Y-70809379D01*
X81380965Y-70878538D01*
X81340698Y-70927609D01*
X81336545Y-70930604D01*
X81311466Y-70944590D01*
X81246288Y-70971586D01*
X81246279Y-70971591D01*
X81246256Y-70971603D01*
X81053237Y-71083044D01*
X81053212Y-71083061D01*
X81053210Y-71083062D01*
X80876395Y-71218736D01*
X80876379Y-71218749D01*
X80876369Y-71218758D01*
X80876361Y-71218765D01*
X80718765Y-71376361D01*
X80718758Y-71376369D01*
X80718749Y-71376379D01*
X80718736Y-71376395D01*
X80583062Y-71553210D01*
X80583061Y-71553212D01*
X80583044Y-71553237D01*
X80471595Y-71746272D01*
X80386297Y-71952199D01*
X80386288Y-71952222D01*
X80338229Y-72131590D01*
X80338228Y-72131592D01*
X80328601Y-72167516D01*
X80328593Y-72167550D01*
X80328592Y-72167556D01*
X80299503Y-72388516D01*
X80299500Y-72388541D01*
X80299500Y-72611457D01*
X80299503Y-72611482D01*
X80328593Y-72832447D01*
X80328597Y-72832467D01*
X80386288Y-73047776D01*
X80386290Y-73047780D01*
X80386293Y-73047790D01*
X80471593Y-73253722D01*
X80471595Y-73253726D01*
X80525570Y-73347213D01*
X80564646Y-73414894D01*
X80568469Y-73422045D01*
X80569342Y-73423815D01*
X81016316Y-74187354D01*
X81033197Y-74255154D01*
X81016316Y-74312644D01*
X80569333Y-75076196D01*
X80564769Y-75084751D01*
X80562760Y-75088370D01*
X80471592Y-75246278D01*
X80386297Y-75452199D01*
X80386288Y-75452222D01*
X80350390Y-75586202D01*
X80338024Y-75632356D01*
X80334457Y-75645667D01*
X80334456Y-75645669D01*
X80328601Y-75667517D01*
X80328593Y-75667550D01*
X80328592Y-75667556D01*
X80299503Y-75888516D01*
X80299500Y-75888541D01*
X80299500Y-76111457D01*
X80299503Y-76111482D01*
X80328593Y-76332447D01*
X80328597Y-76332467D01*
X80377480Y-76514904D01*
X80377481Y-76514904D01*
X80377481Y-76514905D01*
X80378706Y-76519475D01*
X80386290Y-76547782D01*
X80386296Y-76547799D01*
X80406956Y-76597675D01*
X80466342Y-76741045D01*
X80469824Y-76749450D01*
X80471593Y-76753722D01*
X80471595Y-76753726D01*
X80581212Y-76943589D01*
X80582233Y-76945486D01*
X80583067Y-76946873D01*
X80584571Y-76948754D01*
X80686869Y-77082073D01*
X80718751Y-77123622D01*
X80718757Y-77123629D01*
X80876370Y-77281242D01*
X80876377Y-77281248D01*
X80911089Y-77307883D01*
X81053226Y-77416948D01*
X81246274Y-77528405D01*
X81246278Y-77528406D01*
X81246320Y-77528428D01*
X81246873Y-77528653D01*
X81324818Y-77560939D01*
X81440568Y-77608885D01*
X81440569Y-77608885D01*
X81447138Y-77611605D01*
X81452219Y-77613710D01*
X81452220Y-77613710D01*
X81452222Y-77613711D01*
X81459923Y-77615774D01*
X81497603Y-77625870D01*
X81530046Y-77639763D01*
X81539709Y-77645653D01*
X81586704Y-77697357D01*
X81598285Y-77766260D01*
X81570776Y-77830487D01*
X81570754Y-77830514D01*
X81570364Y-77830986D01*
X81526296Y-77864791D01*
X81524247Y-77865727D01*
X81504819Y-77872712D01*
X81452392Y-77886760D01*
X81452385Y-77886762D01*
X81452379Y-77886764D01*
X81452372Y-77886767D01*
X81246496Y-77972045D01*
X81246493Y-77972046D01*
X81246471Y-77972058D01*
X81053508Y-78083463D01*
X80987595Y-78134040D01*
X80987595Y-78134043D01*
X81670645Y-78817092D01*
X81704130Y-78878415D01*
X81699146Y-78948106D01*
X81657274Y-79004040D01*
X81644967Y-79012159D01*
X81631592Y-79019881D01*
X81631589Y-79019883D01*
X81519883Y-79131589D01*
X81519881Y-79131592D01*
X81512159Y-79144967D01*
X81461590Y-79193181D01*
X81392983Y-79206402D01*
X81328119Y-79180433D01*
X81317092Y-79170645D01*
X80634043Y-78487595D01*
X80634040Y-78487595D01*
X80583463Y-78553508D01*
X80473903Y-78743276D01*
X80472054Y-78746479D01*
X80472045Y-78746497D01*
X80386764Y-78952379D01*
X80386761Y-78952387D01*
X80329091Y-79167616D01*
X80329086Y-79167641D01*
X80329083Y-79167654D01*
X80300000Y-79388574D01*
X80300000Y-79611424D01*
X80329083Y-79832344D01*
X80329086Y-79832357D01*
X80329091Y-79832382D01*
X80386761Y-80047611D01*
X80386763Y-80047618D01*
X80424064Y-80137669D01*
X80472047Y-80253508D01*
X80472052Y-80253517D01*
X80472054Y-80253520D01*
X80564349Y-80413383D01*
X80583466Y-80446494D01*
X80583478Y-80446511D01*
X80634039Y-80512402D01*
X80634040Y-80512403D01*
X80634043Y-80512403D01*
X81317094Y-79829351D01*
X81378415Y-79795868D01*
X81448106Y-79800852D01*
X81504040Y-79842723D01*
X81512157Y-79855031D01*
X81519881Y-79868408D01*
X81631592Y-79980119D01*
X81644964Y-79987839D01*
X81693179Y-80038407D01*
X81706401Y-80107014D01*
X81680433Y-80171879D01*
X81670644Y-80182907D01*
X80987595Y-80865954D01*
X80987595Y-80865957D01*
X81053505Y-80916532D01*
X81053507Y-80916533D01*
X81246485Y-81027949D01*
X81246497Y-81027954D01*
X81452381Y-81113236D01*
X81498565Y-81125611D01*
X81531005Y-81139502D01*
X81540664Y-81145389D01*
X81587664Y-81197088D01*
X81599251Y-81265990D01*
X81571748Y-81330219D01*
X81571701Y-81330276D01*
X81571310Y-81330749D01*
X81527260Y-81364533D01*
X81525211Y-81365469D01*
X81505780Y-81372455D01*
X81452396Y-81386758D01*
X81452383Y-81386762D01*
X81246490Y-81472047D01*
X81246471Y-81472058D01*
X81053508Y-81583463D01*
X80987595Y-81634040D01*
X80987595Y-81634043D01*
X81670645Y-82317092D01*
X81704130Y-82378415D01*
X81699146Y-82448106D01*
X81657274Y-82504040D01*
X81644967Y-82512159D01*
X81631592Y-82519881D01*
X81631589Y-82519883D01*
X81519883Y-82631589D01*
X81519881Y-82631592D01*
X81512159Y-82644967D01*
X81461590Y-82693181D01*
X81392983Y-82706402D01*
X81328119Y-82680433D01*
X81317092Y-82670645D01*
X80634043Y-81987595D01*
X80634040Y-81987595D01*
X80583463Y-82053508D01*
X80472058Y-82246471D01*
X80472047Y-82246490D01*
X80436266Y-82332873D01*
X80392952Y-82437441D01*
X80386764Y-82452379D01*
X80386761Y-82452387D01*
X80329091Y-82667616D01*
X80329086Y-82667641D01*
X80329083Y-82667654D01*
X80300000Y-82888574D01*
X80300000Y-83111424D01*
X80329083Y-83332344D01*
X80329086Y-83332357D01*
X80329091Y-83332382D01*
X80386415Y-83546321D01*
X80386763Y-83547618D01*
X80419752Y-83627259D01*
X80472047Y-83753508D01*
X80472050Y-83753513D01*
X80472054Y-83753520D01*
X80582197Y-83944297D01*
X80583466Y-83946494D01*
X80583478Y-83946511D01*
X80634039Y-84012402D01*
X80634040Y-84012403D01*
X80634043Y-84012403D01*
X81317094Y-83329351D01*
X81378415Y-83295868D01*
X81448106Y-83300852D01*
X81504040Y-83342723D01*
X81512157Y-83355031D01*
X81519881Y-83368408D01*
X81631592Y-83480119D01*
X81644964Y-83487839D01*
X81693179Y-83538407D01*
X81706401Y-83607014D01*
X81680433Y-83671879D01*
X81670644Y-83682907D01*
X80987595Y-84365954D01*
X80987595Y-84365957D01*
X81053505Y-84416532D01*
X81053507Y-84416533D01*
X81246485Y-84527949D01*
X81246497Y-84527954D01*
X81452381Y-84613236D01*
X81598405Y-84652362D01*
X81667616Y-84670907D01*
X81667620Y-84670907D01*
X81667632Y-84670911D01*
X81667645Y-84670914D01*
X81888575Y-84700000D01*
X82111418Y-84700000D01*
X82111425Y-84700000D01*
X82332354Y-84670914D01*
X82332367Y-84670911D01*
X82547618Y-84613236D01*
X82753502Y-84527954D01*
X82753514Y-84527949D01*
X82946498Y-84416530D01*
X83012403Y-84365957D01*
X83012404Y-84365956D01*
X83012403Y-84365955D01*
X83012404Y-84365955D01*
X82329354Y-83682907D01*
X82295869Y-83621584D01*
X82300853Y-83551893D01*
X82342724Y-83495959D01*
X82355022Y-83487846D01*
X82368408Y-83480119D01*
X82480119Y-83368408D01*
X82487839Y-83355035D01*
X82538405Y-83306821D01*
X82607012Y-83293597D01*
X82671877Y-83319565D01*
X82682907Y-83329355D01*
X83365956Y-84012404D01*
X83365957Y-84012403D01*
X83416530Y-83946497D01*
X83416534Y-83946492D01*
X83444718Y-83897676D01*
X103220000Y-83897676D01*
X103220000Y-84102322D01*
X103248188Y-84280290D01*
X103252009Y-84304417D01*
X103315244Y-84499031D01*
X103373434Y-84613234D01*
X103408144Y-84681357D01*
X103408147Y-84681360D01*
X103440517Y-84725914D01*
X103440521Y-84725919D01*
X103440523Y-84725921D01*
X103440524Y-84725922D01*
X103983503Y-84182942D01*
X104044824Y-84149459D01*
X104114515Y-84154443D01*
X104170449Y-84196314D01*
X104178567Y-84208622D01*
X104199920Y-84245606D01*
X104274394Y-84320080D01*
X104274395Y-84320081D01*
X104274397Y-84320082D01*
X104311373Y-84341430D01*
X104359588Y-84391996D01*
X104372812Y-84460603D01*
X104346844Y-84525468D01*
X104337054Y-84536498D01*
X103794075Y-85079473D01*
X103794076Y-85079473D01*
X103794076Y-85079474D01*
X103838650Y-85111859D01*
X103924786Y-85155747D01*
X104020963Y-85204753D01*
X104020965Y-85204753D01*
X104020968Y-85204755D01*
X104215582Y-85267990D01*
X104417683Y-85300000D01*
X104622316Y-85300000D01*
X104622317Y-85300000D01*
X104824417Y-85267990D01*
X105019031Y-85204755D01*
X105024572Y-85201932D01*
X105201347Y-85111860D01*
X105201346Y-85111860D01*
X105201349Y-85111859D01*
X105245921Y-85079474D01*
X104702945Y-84536498D01*
X104669460Y-84475175D01*
X104674444Y-84405483D01*
X104716316Y-84349550D01*
X104728618Y-84341434D01*
X104765606Y-84320080D01*
X104840080Y-84245606D01*
X104861430Y-84208625D01*
X104911995Y-84160411D01*
X104980602Y-84147187D01*
X105045467Y-84173154D01*
X105056498Y-84182945D01*
X105255436Y-84381883D01*
X105273482Y-84404773D01*
X105288396Y-84429110D01*
X105300599Y-84455580D01*
X105310255Y-84485296D01*
X105314717Y-84499029D01*
X105314778Y-84499215D01*
X105314781Y-84499224D01*
X105350291Y-84568914D01*
X105350291Y-84568916D01*
X105350292Y-84568916D01*
X105407537Y-84681265D01*
X105407715Y-84681614D01*
X105528026Y-84847211D01*
X105528027Y-84847212D01*
X105528028Y-84847213D01*
X105672786Y-84991971D01*
X105827748Y-85104555D01*
X105827749Y-85104557D01*
X105834626Y-85109552D01*
X105838390Y-85112287D01*
X105942521Y-85165345D01*
X105954607Y-85171503D01*
X106014327Y-85201932D01*
X106015930Y-85202870D01*
X106019629Y-85204662D01*
X106021636Y-85205659D01*
X106025401Y-85206721D01*
X106078697Y-85224038D01*
X106215465Y-85268477D01*
X106230506Y-85270859D01*
X106230510Y-85270861D01*
X106230511Y-85270860D01*
X106417648Y-85300500D01*
X106417649Y-85300500D01*
X106622351Y-85300500D01*
X106622352Y-85300500D01*
X106824534Y-85268477D01*
X107019219Y-85205220D01*
X107201610Y-85112287D01*
X107323487Y-85023739D01*
X107367213Y-84991971D01*
X107367215Y-84991968D01*
X107367219Y-84991966D01*
X107367221Y-84991963D01*
X107367274Y-84991925D01*
X107368032Y-84991152D01*
X107511148Y-84848036D01*
X107511927Y-84847273D01*
X107511971Y-84847213D01*
X107583396Y-84748903D01*
X107632287Y-84681610D01*
X107725220Y-84499219D01*
X107788477Y-84304534D01*
X107820500Y-84102352D01*
X107820500Y-83897648D01*
X107820500Y-83897643D01*
X107803278Y-83788910D01*
X107802195Y-83782074D01*
X107788477Y-83695465D01*
X107748816Y-83573402D01*
X107737767Y-83539396D01*
X107726723Y-83505406D01*
X107725660Y-83501639D01*
X107724656Y-83499616D01*
X107722871Y-83495931D01*
X107721933Y-83494329D01*
X107643347Y-83340097D01*
X107643347Y-83340096D01*
X107643345Y-83340094D01*
X107632287Y-83318390D01*
X107600092Y-83274077D01*
X107584409Y-83252490D01*
X107584406Y-83252487D01*
X107511971Y-83152786D01*
X107367217Y-83008032D01*
X107357490Y-83000965D01*
X107357479Y-83000957D01*
X107357451Y-83000936D01*
X107226102Y-82905507D01*
X110299500Y-82905507D01*
X110299500Y-83094491D01*
X110328447Y-83277252D01*
X110329059Y-83281118D01*
X110387454Y-83460836D01*
X110387455Y-83460837D01*
X110387456Y-83460842D01*
X110437153Y-83558375D01*
X110469360Y-83621584D01*
X110472240Y-83627235D01*
X110472245Y-83627259D01*
X110472251Y-83627257D01*
X110472252Y-83627259D01*
X110473240Y-83629199D01*
X110584310Y-83782073D01*
X110717927Y-83915690D01*
X110870801Y-84026760D01*
X110921635Y-84052661D01*
X111032720Y-84109262D01*
X111034312Y-84110194D01*
X111038025Y-84111993D01*
X111040022Y-84112986D01*
X111043790Y-84114049D01*
X111080169Y-84125869D01*
X111135495Y-84143845D01*
X111135496Y-84143846D01*
X111152901Y-84149501D01*
X111218881Y-84170940D01*
X111405514Y-84200500D01*
X111405519Y-84200500D01*
X111594485Y-84200500D01*
X111594486Y-84200500D01*
X111781118Y-84170940D01*
X111960832Y-84112547D01*
X112129199Y-84026760D01*
X112282073Y-83915690D01*
X112415690Y-83782073D01*
X112526760Y-83629199D01*
X112612547Y-83460832D01*
X112670940Y-83281118D01*
X112672055Y-83274077D01*
X112700500Y-83094486D01*
X112700500Y-82905513D01*
X112670940Y-82718881D01*
X112619146Y-82559478D01*
X112614045Y-82543779D01*
X112612985Y-82540021D01*
X112611992Y-82538022D01*
X112610196Y-82534315D01*
X112609259Y-82532714D01*
X112564269Y-82444416D01*
X112562472Y-82440889D01*
X112526760Y-82370801D01*
X112415690Y-82217927D01*
X112282073Y-82084310D01*
X112129199Y-81973240D01*
X111960836Y-81887454D01*
X111781118Y-81829059D01*
X111781112Y-81829058D01*
X111594491Y-81799500D01*
X111594486Y-81799500D01*
X111594481Y-81799500D01*
X111405519Y-81799500D01*
X111405514Y-81799500D01*
X111405509Y-81799500D01*
X111218886Y-81829058D01*
X111218884Y-81829058D01*
X111218881Y-81829059D01*
X111039163Y-81887454D01*
X111017616Y-81898433D01*
X110870800Y-81973239D01*
X110806290Y-82020110D01*
X110729798Y-82075685D01*
X110722417Y-82079818D01*
X110579817Y-82222418D01*
X110575685Y-82229797D01*
X110552507Y-82261699D01*
X110552507Y-82261700D01*
X110473239Y-82370800D01*
X110426980Y-82461590D01*
X110387454Y-82539163D01*
X110329059Y-82718881D01*
X110329058Y-82718884D01*
X110329058Y-82718886D01*
X110299500Y-82905507D01*
X107226102Y-82905507D01*
X107201612Y-82887714D01*
X107201611Y-82887713D01*
X107201609Y-82887712D01*
X107019223Y-82794781D01*
X106824534Y-82731522D01*
X106824532Y-82731521D01*
X106824530Y-82731521D01*
X106824529Y-82731520D01*
X106649995Y-82703878D01*
X106633409Y-82701251D01*
X106622354Y-82699500D01*
X106622352Y-82699500D01*
X106417648Y-82699500D01*
X106417647Y-82699500D01*
X106393327Y-82703351D01*
X106393326Y-82703350D01*
X106215468Y-82731521D01*
X106020777Y-82794780D01*
X106020764Y-82794786D01*
X105838397Y-82887708D01*
X105838385Y-82887715D01*
X105672787Y-83008027D01*
X105672784Y-83008029D01*
X105528030Y-83152783D01*
X105407714Y-83318386D01*
X105382228Y-83368407D01*
X105370370Y-83391680D01*
X105314780Y-83500781D01*
X105314779Y-83500783D01*
X105314778Y-83500786D01*
X105314719Y-83500968D01*
X105300600Y-83544418D01*
X105288398Y-83570884D01*
X105273485Y-83595220D01*
X105255438Y-83618112D01*
X105056497Y-83817053D01*
X104995174Y-83850538D01*
X104925482Y-83845554D01*
X104869549Y-83803682D01*
X104861430Y-83791374D01*
X104840080Y-83754394D01*
X104765606Y-83679920D01*
X104728625Y-83658569D01*
X104680410Y-83608003D01*
X104667186Y-83539396D01*
X104693154Y-83474531D01*
X104702936Y-83463509D01*
X105245922Y-82920524D01*
X105245921Y-82920523D01*
X105245920Y-82920522D01*
X105245919Y-82920521D01*
X105245914Y-82920517D01*
X105201360Y-82888147D01*
X105201357Y-82888144D01*
X105136198Y-82854944D01*
X105019031Y-82795244D01*
X104824417Y-82732009D01*
X104824411Y-82732008D01*
X104622322Y-82700000D01*
X104622317Y-82700000D01*
X104417683Y-82700000D01*
X104417678Y-82700000D01*
X104215587Y-82732008D01*
X104215585Y-82732008D01*
X104215582Y-82732009D01*
X104136524Y-82757697D01*
X104020963Y-82795245D01*
X103838640Y-82888145D01*
X103794077Y-82920522D01*
X103794077Y-82920523D01*
X103794077Y-82920524D01*
X104126043Y-83252490D01*
X104337055Y-83463501D01*
X104370540Y-83524824D01*
X104365556Y-83594515D01*
X104323685Y-83650449D01*
X104311374Y-83658569D01*
X104274400Y-83679916D01*
X104274392Y-83679921D01*
X104199921Y-83754392D01*
X104199915Y-83754400D01*
X104178568Y-83791374D01*
X104128001Y-83839589D01*
X104059393Y-83852811D01*
X103994529Y-83826843D01*
X103983501Y-83817054D01*
X103440524Y-83274077D01*
X103440523Y-83274077D01*
X103440522Y-83274077D01*
X103408145Y-83318640D01*
X103315245Y-83500963D01*
X103291708Y-83573402D01*
X103252009Y-83695582D01*
X103252008Y-83695585D01*
X103252008Y-83695587D01*
X103220000Y-83897676D01*
X83444718Y-83897676D01*
X83483319Y-83830817D01*
X83483319Y-83830816D01*
X83527949Y-83753513D01*
X83527954Y-83753502D01*
X83613236Y-83547618D01*
X83670911Y-83332367D01*
X83670914Y-83332354D01*
X83700000Y-83111424D01*
X83700000Y-82888575D01*
X83670914Y-82667645D01*
X83670911Y-82667632D01*
X83668396Y-82658247D01*
X83648154Y-82582700D01*
X83613236Y-82452381D01*
X83527954Y-82246497D01*
X83527949Y-82246485D01*
X83430801Y-82078220D01*
X83416532Y-82053505D01*
X83365957Y-81987595D01*
X83365956Y-81987595D01*
X83365955Y-81987595D01*
X83365954Y-81987595D01*
X82682906Y-82670643D01*
X82621583Y-82704128D01*
X82551891Y-82699144D01*
X82495958Y-82657272D01*
X82487838Y-82644961D01*
X82480122Y-82631598D01*
X82480119Y-82631592D01*
X82368408Y-82519881D01*
X82360158Y-82515118D01*
X82355032Y-82512158D01*
X82306817Y-82461590D01*
X82293596Y-82392983D01*
X82319565Y-82328118D01*
X82329343Y-82317101D01*
X83012403Y-81634043D01*
X83012403Y-81634040D01*
X83012402Y-81634039D01*
X82946511Y-81583478D01*
X82946494Y-81583466D01*
X82946487Y-81583462D01*
X82753520Y-81472054D01*
X82753508Y-81472047D01*
X82585583Y-81402489D01*
X82547618Y-81386763D01*
X82547616Y-81386762D01*
X82547615Y-81386762D01*
X82547613Y-81386761D01*
X82524594Y-81380594D01*
X82501431Y-81374388D01*
X82468986Y-81360493D01*
X82459326Y-81354605D01*
X82412330Y-81302902D01*
X82400748Y-81233999D01*
X82428254Y-81169774D01*
X82428690Y-81169247D01*
X82472745Y-81135462D01*
X82474807Y-81134520D01*
X82494207Y-81127547D01*
X82547618Y-81113236D01*
X82753502Y-81027954D01*
X82753514Y-81027949D01*
X82946498Y-80916530D01*
X83012403Y-80865957D01*
X83012404Y-80865956D01*
X83012403Y-80865955D01*
X83012404Y-80865955D01*
X82329354Y-80182907D01*
X82295869Y-80121584D01*
X82300853Y-80051893D01*
X82342724Y-79995959D01*
X82355022Y-79987846D01*
X82368408Y-79980119D01*
X82480119Y-79868408D01*
X82487839Y-79855035D01*
X82538405Y-79806821D01*
X82607012Y-79793597D01*
X82671877Y-79819565D01*
X82682907Y-79829355D01*
X83365955Y-80512403D01*
X83365956Y-80512404D01*
X83365957Y-80512403D01*
X83416530Y-80446498D01*
X83527949Y-80253514D01*
X83527954Y-80253502D01*
X83613236Y-80047618D01*
X83670911Y-79832367D01*
X83670914Y-79832354D01*
X83700000Y-79611424D01*
X83700000Y-79388575D01*
X83670914Y-79167645D01*
X83670911Y-79167632D01*
X83667154Y-79153612D01*
X83634293Y-79030969D01*
X83613236Y-78952381D01*
X83527954Y-78746497D01*
X83527949Y-78746485D01*
X83416533Y-78553507D01*
X83416532Y-78553505D01*
X83365957Y-78487595D01*
X83365956Y-78487595D01*
X83365955Y-78487595D01*
X83365954Y-78487595D01*
X82682906Y-79170643D01*
X82621583Y-79204128D01*
X82551891Y-79199144D01*
X82495958Y-79157272D01*
X82487838Y-79144961D01*
X82480122Y-79131598D01*
X82480119Y-79131592D01*
X82368408Y-79019881D01*
X82360905Y-79015549D01*
X82355032Y-79012158D01*
X82306817Y-78961590D01*
X82293596Y-78892983D01*
X82319565Y-78828118D01*
X82329343Y-78817101D01*
X83012403Y-78134043D01*
X83012403Y-78134040D01*
X83011143Y-78133073D01*
X82946511Y-78083478D01*
X82946494Y-78083466D01*
X82946487Y-78083462D01*
X82753520Y-77972054D01*
X82753516Y-77972052D01*
X82753505Y-77972046D01*
X82753502Y-77972045D01*
X82717883Y-77957291D01*
X82547620Y-77886764D01*
X82547618Y-77886763D01*
X82547617Y-77886763D01*
X82528214Y-77881564D01*
X82502395Y-77874646D01*
X82469955Y-77860754D01*
X82460292Y-77854864D01*
X82413297Y-77803164D01*
X82401712Y-77734261D01*
X82429197Y-77670060D01*
X82429590Y-77669583D01*
X82473692Y-77635728D01*
X82475749Y-77634788D01*
X82495169Y-77627806D01*
X82535870Y-77616901D01*
X82547771Y-77613713D01*
X82547773Y-77613711D01*
X82547781Y-77613710D01*
X82753726Y-77528405D01*
X82946774Y-77416948D01*
X83123624Y-77281247D01*
X83281247Y-77123624D01*
X83281249Y-77123622D01*
X83281251Y-77123620D01*
X83367094Y-77011745D01*
X83416948Y-76946774D01*
X83528405Y-76753726D01*
X83613710Y-76547781D01*
X83671404Y-76332463D01*
X83700500Y-76111457D01*
X83700500Y-75888543D01*
X83671404Y-75667537D01*
X83613710Y-75452219D01*
X83528405Y-75246274D01*
X83435339Y-75085080D01*
X83431525Y-75077944D01*
X83430654Y-75076177D01*
X82983681Y-74312643D01*
X82966800Y-74244843D01*
X82983681Y-74187354D01*
X83430660Y-73423808D01*
X83435222Y-73415255D01*
X83437190Y-73411711D01*
X83528405Y-73253726D01*
X83613710Y-73047781D01*
X83671404Y-72832463D01*
X83700500Y-72611457D01*
X83700500Y-72388543D01*
X83700499Y-72388532D01*
X83700499Y-72388531D01*
X83675081Y-72195465D01*
X83671404Y-72167537D01*
X83613710Y-71952219D01*
X83606414Y-71934606D01*
X83532379Y-71755868D01*
X83528405Y-71746274D01*
X83416948Y-71553226D01*
X83360858Y-71480128D01*
X83320563Y-71427614D01*
X83281262Y-71376395D01*
X83281258Y-71376390D01*
X83281248Y-71376377D01*
X83281242Y-71376370D01*
X83123629Y-71218757D01*
X83123622Y-71218751D01*
X83123612Y-71218743D01*
X83123603Y-71218736D01*
X82948754Y-71084571D01*
X82946873Y-71083067D01*
X82945486Y-71082233D01*
X82943589Y-71081212D01*
X82753767Y-70971618D01*
X82753715Y-70971589D01*
X82743165Y-70967219D01*
X82691651Y-70945882D01*
X82661301Y-70927874D01*
X82654296Y-70922229D01*
X82614448Y-70864837D01*
X82611954Y-70795012D01*
X82647606Y-70734923D01*
X82703596Y-70704999D01*
X82708583Y-70703821D01*
X82737089Y-70700500D01*
X83000003Y-70700500D01*
X83000008Y-70700500D01*
X83102797Y-70689999D01*
X83269334Y-70634814D01*
X83418655Y-70542711D01*
X83542711Y-70418655D01*
X83634814Y-70269334D01*
X83689999Y-70102797D01*
X83700500Y-70000008D01*
X83700500Y-67999992D01*
X83689999Y-67897203D01*
X83634814Y-67730666D01*
X83634807Y-67730655D01*
X83542713Y-67581348D01*
X83542712Y-67581347D01*
X83542711Y-67581345D01*
X83418655Y-67457289D01*
X83418651Y-67457286D01*
X83351636Y-67415950D01*
X83269343Y-67365190D01*
X83269339Y-67365188D01*
X83269337Y-67365187D01*
X83269335Y-67365186D01*
X83186065Y-67337593D01*
X83186064Y-67337592D01*
X83111264Y-67312806D01*
X83108440Y-67311639D01*
X83102796Y-67309999D01*
X83000024Y-67299500D01*
X83000015Y-67299500D01*
X83000008Y-67299500D01*
X80999992Y-67299500D01*
X80999984Y-67299500D01*
X80999974Y-67299500D01*
X80895495Y-67310174D01*
X80889915Y-67312415D01*
X80730667Y-67365184D01*
X80730655Y-67365190D01*
X80581354Y-67457282D01*
X80581341Y-67457291D01*
X80581338Y-67457293D01*
X80457293Y-67581338D01*
X80457291Y-67581341D01*
X80457282Y-67581354D01*
X80365190Y-67730655D01*
X80365184Y-67730667D01*
X80316113Y-67878755D01*
X80316112Y-67878760D01*
X80310001Y-67897203D01*
X80310000Y-67897204D01*
X80299500Y-67999984D01*
X78700500Y-67999984D01*
X78700500Y-65010444D01*
X78700695Y-65003499D01*
X78701085Y-64996547D01*
X78701666Y-64989649D01*
X78705107Y-64959110D01*
X78705443Y-64956129D01*
X78707923Y-64934108D01*
X78709893Y-64916615D01*
X78714860Y-64894861D01*
X78715435Y-64891365D01*
X78715437Y-64891362D01*
X78715436Y-64891358D01*
X78716614Y-64884213D01*
X78721925Y-64863407D01*
X78743055Y-64803022D01*
X78747292Y-64796138D01*
X78748372Y-64790186D01*
X78754376Y-64777716D01*
X78761086Y-64765574D01*
X78798353Y-64706265D01*
X78806374Y-64694961D01*
X78815016Y-64684124D01*
X78819202Y-64680453D01*
X78820612Y-64677588D01*
X78824252Y-64673788D01*
X78873774Y-64624266D01*
X78884114Y-64615024D01*
X78894961Y-64606374D01*
X78906265Y-64598353D01*
X78965574Y-64561086D01*
X78977716Y-64554376D01*
X78990198Y-64548366D01*
X79003014Y-64543058D01*
X79069098Y-64519933D01*
X79082444Y-64516088D01*
X79095955Y-64513004D01*
X79109641Y-64510680D01*
X79162386Y-64504737D01*
X79178755Y-64502893D01*
X79178755Y-64502894D01*
X79178759Y-64502892D01*
X79189662Y-64501664D01*
X79196549Y-64501085D01*
X79203503Y-64500695D01*
X79210446Y-64500500D01*
X86950883Y-64500500D01*
X86985814Y-64505522D01*
X86996802Y-64508748D01*
X87055581Y-64546520D01*
X87084608Y-64610075D01*
X87074841Y-64678852D01*
X87067548Y-64694967D01*
X87054896Y-64716726D01*
X86952290Y-64857952D01*
X86933484Y-64894861D01*
X86902265Y-64956131D01*
X86864744Y-65029768D01*
X86864736Y-65029792D01*
X86805164Y-65213138D01*
X86805164Y-65213142D01*
X86801091Y-65238861D01*
X86799327Y-65250000D01*
X87491277Y-65250000D01*
X87558316Y-65269685D01*
X87604071Y-65322489D01*
X87614015Y-65391647D01*
X87611052Y-65406088D01*
X87600000Y-65447339D01*
X87600000Y-65552661D01*
X87609248Y-65587177D01*
X87611052Y-65593907D01*
X87609389Y-65663757D01*
X87570226Y-65721619D01*
X87505998Y-65749123D01*
X87491277Y-65750000D01*
X86799327Y-65750000D01*
X86803637Y-65777213D01*
X86803638Y-65777221D01*
X86805164Y-65786861D01*
X86864736Y-65970206D01*
X86864744Y-65970230D01*
X86864745Y-65970233D01*
X86864746Y-65970234D01*
X86864747Y-65970237D01*
X86952288Y-66142043D01*
X86952290Y-66142046D01*
X86991717Y-66196313D01*
X87065616Y-66298027D01*
X87065620Y-66298032D01*
X87065625Y-66298038D01*
X87201960Y-66434373D01*
X87201964Y-66434376D01*
X87201967Y-66434379D01*
X87201972Y-66434383D01*
X87357956Y-66547711D01*
X87529762Y-66635252D01*
X87529765Y-66635253D01*
X87529767Y-66635253D01*
X87529768Y-66635254D01*
X87529776Y-66635257D01*
X87620866Y-66664853D01*
X87713142Y-66694835D01*
X87750000Y-66700673D01*
X87750000Y-66700672D01*
X87750000Y-66008722D01*
X87769685Y-65941683D01*
X87822489Y-65895928D01*
X87891647Y-65885984D01*
X87906082Y-65888945D01*
X87947339Y-65900000D01*
X88052659Y-65900000D01*
X88052661Y-65900000D01*
X88093907Y-65888948D01*
X88163755Y-65890609D01*
X88221618Y-65929771D01*
X88249123Y-65993999D01*
X88250000Y-66008722D01*
X88250000Y-66700671D01*
X88250000Y-66700672D01*
X88277215Y-66696361D01*
X88277221Y-66696361D01*
X88286855Y-66694835D01*
X88286858Y-66694835D01*
X88350367Y-66674200D01*
X88470223Y-66635257D01*
X88470227Y-66635255D01*
X88470234Y-66635253D01*
X88470237Y-66635252D01*
X88642043Y-66547711D01*
X88798027Y-66434383D01*
X88798032Y-66434379D01*
X88934379Y-66298032D01*
X88934383Y-66298027D01*
X89047711Y-66142043D01*
X89135252Y-65970237D01*
X89135253Y-65970234D01*
X89194835Y-65786858D01*
X89194835Y-65786855D01*
X89200673Y-65750000D01*
X88508723Y-65750000D01*
X88441684Y-65730315D01*
X88395929Y-65677511D01*
X88385985Y-65608353D01*
X88388948Y-65593907D01*
X88389672Y-65591206D01*
X88400000Y-65552661D01*
X88400000Y-65447339D01*
X88388948Y-65406092D01*
X88390611Y-65336243D01*
X88429774Y-65278381D01*
X88494002Y-65250877D01*
X88508723Y-65250000D01*
X89200673Y-65250000D01*
X89196077Y-65220985D01*
X89196076Y-65220978D01*
X89194835Y-65213142D01*
X89194835Y-65213141D01*
X89135253Y-65029765D01*
X89135252Y-65029762D01*
X89047711Y-64857956D01*
X89026969Y-64829407D01*
X88945210Y-64716873D01*
X88932383Y-64694722D01*
X88925033Y-64678330D01*
X88915570Y-64609107D01*
X88945035Y-64545754D01*
X89003664Y-64508507D01*
X89014377Y-64505402D01*
X89048896Y-64500500D01*
X91950225Y-64500500D01*
X91985154Y-64505521D01*
X91987289Y-64506147D01*
X91996154Y-64508751D01*
X92054933Y-64546522D01*
X92083961Y-64610076D01*
X92074208Y-64678822D01*
X92066883Y-64695020D01*
X92054218Y-64716811D01*
X92030702Y-64749179D01*
X92030701Y-64749181D01*
X91951859Y-64857696D01*
X91864287Y-65029565D01*
X91804674Y-65213032D01*
X91787338Y-65322489D01*
X91781347Y-65360318D01*
X91781306Y-65360577D01*
X91774500Y-65403547D01*
X91774500Y-65403550D01*
X91774500Y-65403551D01*
X91774500Y-65596449D01*
X91781495Y-65640614D01*
X91804657Y-65786858D01*
X91804675Y-65786968D01*
X91804682Y-65786998D01*
X91804830Y-65787446D01*
X91864286Y-65970433D01*
X91881601Y-66004414D01*
X91896570Y-66033793D01*
X91897184Y-66034997D01*
X91904734Y-66053295D01*
X91908894Y-66066216D01*
X91911280Y-66073629D01*
X92386106Y-67046132D01*
X92386928Y-67047815D01*
X92399500Y-67102220D01*
X92399500Y-72967273D01*
X92394476Y-73002210D01*
X92387064Y-73027451D01*
X92355769Y-73080195D01*
X91824788Y-73611176D01*
X91796538Y-73632325D01*
X91786611Y-73637746D01*
X91718338Y-73652600D01*
X91652873Y-73628186D01*
X91611000Y-73572254D01*
X91608313Y-73565048D01*
X91600500Y-73521728D01*
X91600500Y-72413389D01*
X91585709Y-72320004D01*
X91585709Y-72320003D01*
X91573402Y-72242299D01*
X91573402Y-72242298D01*
X91519871Y-72077550D01*
X91477469Y-71994331D01*
X91441232Y-71923212D01*
X91339414Y-71783072D01*
X91216928Y-71660586D01*
X91160342Y-71619474D01*
X91076792Y-71558770D01*
X91076789Y-71558769D01*
X91076790Y-71558769D01*
X91076788Y-71558768D01*
X91025785Y-71532781D01*
X91025782Y-71532779D01*
X90939944Y-71489043D01*
X90934604Y-71485163D01*
X90910287Y-71475090D01*
X90903767Y-71474058D01*
X90847221Y-71455685D01*
X90766532Y-71429467D01*
X90762010Y-71427614D01*
X90752820Y-71425444D01*
X90748057Y-71425070D01*
X90737513Y-71423400D01*
X90626271Y-71405781D01*
X90610407Y-71403268D01*
X90586614Y-71399500D01*
X90586611Y-71399500D01*
X90413389Y-71399500D01*
X90413388Y-71399500D01*
X90373726Y-71405781D01*
X90373725Y-71405780D01*
X90242304Y-71426596D01*
X90077549Y-71480129D01*
X89923218Y-71558764D01*
X89923205Y-71558772D01*
X89869316Y-71597925D01*
X89794942Y-71651961D01*
X89787563Y-71656093D01*
X89656092Y-71787564D01*
X89651961Y-71794941D01*
X89616859Y-71843255D01*
X89616859Y-71843256D01*
X89558768Y-71923210D01*
X89480129Y-72077547D01*
X89426596Y-72242301D01*
X89426596Y-72242302D01*
X89403437Y-72388531D01*
X89403437Y-72388532D01*
X89399500Y-72413388D01*
X89399500Y-74586610D01*
X89420428Y-74718749D01*
X89426598Y-74757701D01*
X89480127Y-74922445D01*
X89558768Y-75076788D01*
X89660586Y-75216928D01*
X89660588Y-75216930D01*
X89783075Y-75339417D01*
X89804418Y-75354923D01*
X89847084Y-75410253D01*
X89853063Y-75479866D01*
X89833073Y-75526414D01*
X89613495Y-75839679D01*
X89591378Y-75874118D01*
X89590426Y-75875742D01*
X89590367Y-75875869D01*
X89590296Y-75875988D01*
X89589076Y-75878312D01*
X89588962Y-75878252D01*
X89578341Y-75896269D01*
X89558771Y-75923205D01*
X89480129Y-76077549D01*
X89480128Y-76077551D01*
X89480128Y-76077552D01*
X89469109Y-76111466D01*
X89426596Y-76242305D01*
X89399500Y-76413383D01*
X89399500Y-78586614D01*
X89421633Y-78726359D01*
X89424821Y-78746485D01*
X89426598Y-78757701D01*
X89480127Y-78922445D01*
X89558768Y-79076788D01*
X89660586Y-79216928D01*
X89732597Y-79288939D01*
X89783072Y-79339414D01*
X89783571Y-79339823D01*
X89785094Y-79340884D01*
X89851598Y-79389203D01*
X89876909Y-79413801D01*
X89885384Y-79424792D01*
X89910732Y-79489902D01*
X89896859Y-79558373D01*
X89893599Y-79564552D01*
X89856814Y-79607007D01*
X89783069Y-79660587D01*
X89656093Y-79787563D01*
X89651961Y-79794942D01*
X89624771Y-79832366D01*
X89595166Y-79873114D01*
X89558768Y-79923211D01*
X89558766Y-79923213D01*
X89558764Y-79923218D01*
X89480129Y-80077549D01*
X89426596Y-80242305D01*
X89399500Y-80413383D01*
X89399500Y-82586615D01*
X89425236Y-82749114D01*
X89425237Y-82749114D01*
X89426597Y-82757699D01*
X89480128Y-82922449D01*
X89531013Y-83022316D01*
X89558768Y-83076788D01*
X89660586Y-83216928D01*
X89783072Y-83339414D01*
X89923212Y-83441232D01*
X90077555Y-83519873D01*
X90242299Y-83573402D01*
X90413389Y-83600500D01*
X90413390Y-83600500D01*
X90586610Y-83600500D01*
X90586611Y-83600500D01*
X90757701Y-83573402D01*
X90922445Y-83519873D01*
X91076788Y-83441232D01*
X91216928Y-83339414D01*
X91339414Y-83216928D01*
X91441232Y-83076788D01*
X91519873Y-82922445D01*
X91573402Y-82757701D01*
X91600500Y-82586611D01*
X91600500Y-80413389D01*
X91573402Y-80242299D01*
X91519873Y-80077555D01*
X91441232Y-79923212D01*
X91339414Y-79783072D01*
X91216928Y-79660586D01*
X91148397Y-79610795D01*
X91123091Y-79586202D01*
X91122731Y-79585735D01*
X91114615Y-79575210D01*
X91089265Y-79510103D01*
X91103138Y-79441626D01*
X91106404Y-79435437D01*
X91143185Y-79392990D01*
X91216365Y-79339823D01*
X91216924Y-79339417D01*
X91216924Y-79339416D01*
X91216928Y-79339414D01*
X91339414Y-79216928D01*
X91441232Y-79076788D01*
X91519873Y-78922445D01*
X91573402Y-78757701D01*
X91600500Y-78586611D01*
X91600500Y-76413389D01*
X91573402Y-76242299D01*
X91519873Y-76077555D01*
X91441232Y-75923212D01*
X91417166Y-75890088D01*
X91400700Y-75858881D01*
X91395447Y-75844159D01*
X91391457Y-75774404D01*
X91392950Y-75767981D01*
X91426045Y-75708387D01*
X93351273Y-73783160D01*
X93351277Y-73783158D01*
X93368715Y-73765720D01*
X93368716Y-73765720D01*
X93480520Y-73653916D01*
X93559577Y-73516984D01*
X93591283Y-73398656D01*
X93600500Y-73364258D01*
X93600500Y-73206143D01*
X93600500Y-72413389D01*
X94399500Y-72413389D01*
X94399500Y-72417081D01*
X94399500Y-74586610D01*
X94420428Y-74718749D01*
X94426598Y-74757701D01*
X94480127Y-74922445D01*
X94558768Y-75076788D01*
X94660586Y-75216928D01*
X94723102Y-75279444D01*
X94783072Y-75339414D01*
X94783571Y-75339823D01*
X94785094Y-75340884D01*
X94851598Y-75389203D01*
X94876909Y-75413801D01*
X94885384Y-75424792D01*
X94910732Y-75489902D01*
X94896859Y-75558373D01*
X94893599Y-75564552D01*
X94856814Y-75607007D01*
X94783069Y-75660587D01*
X94656094Y-75787562D01*
X94651961Y-75794943D01*
X94619833Y-75839163D01*
X94558768Y-75923210D01*
X94480129Y-76077549D01*
X94480128Y-76077551D01*
X94480128Y-76077552D01*
X94469109Y-76111466D01*
X94426596Y-76242305D01*
X94399500Y-76413383D01*
X94399500Y-78586614D01*
X94421633Y-78726359D01*
X94424821Y-78746485D01*
X94426598Y-78757701D01*
X94480127Y-78922445D01*
X94558768Y-79076788D01*
X94660586Y-79216928D01*
X94732597Y-79288939D01*
X94783072Y-79339414D01*
X94783571Y-79339823D01*
X94785094Y-79340884D01*
X94851598Y-79389203D01*
X94876909Y-79413801D01*
X94885384Y-79424792D01*
X94910732Y-79489902D01*
X94896859Y-79558373D01*
X94893599Y-79564552D01*
X94856814Y-79607007D01*
X94783069Y-79660587D01*
X94656093Y-79787563D01*
X94651961Y-79794942D01*
X94624771Y-79832366D01*
X94595166Y-79873114D01*
X94558768Y-79923211D01*
X94558766Y-79923213D01*
X94558764Y-79923218D01*
X94480129Y-80077549D01*
X94426596Y-80242305D01*
X94399500Y-80413383D01*
X94399500Y-82586615D01*
X94425236Y-82749114D01*
X94425237Y-82749114D01*
X94426597Y-82757699D01*
X94480128Y-82922449D01*
X94531013Y-83022316D01*
X94558768Y-83076788D01*
X94660586Y-83216928D01*
X94783072Y-83339414D01*
X94923212Y-83441232D01*
X95077555Y-83519873D01*
X95242299Y-83573402D01*
X95413389Y-83600500D01*
X95413390Y-83600500D01*
X95586610Y-83600500D01*
X95586611Y-83600500D01*
X95757701Y-83573402D01*
X95922445Y-83519873D01*
X96076788Y-83441232D01*
X96216928Y-83339414D01*
X96339414Y-83216928D01*
X96441232Y-83076788D01*
X96519873Y-82922445D01*
X96573402Y-82757701D01*
X96600500Y-82586611D01*
X96600500Y-80413389D01*
X96573402Y-80242299D01*
X96519873Y-80077555D01*
X96441232Y-79923212D01*
X96339414Y-79783072D01*
X96216928Y-79660586D01*
X96148397Y-79610795D01*
X96123091Y-79586202D01*
X96122731Y-79585735D01*
X96114615Y-79575210D01*
X96089265Y-79510103D01*
X96103138Y-79441626D01*
X96106404Y-79435437D01*
X96143185Y-79392990D01*
X96216365Y-79339823D01*
X96216924Y-79339417D01*
X96216924Y-79339416D01*
X96216928Y-79339414D01*
X96339414Y-79216928D01*
X96441232Y-79076788D01*
X96519873Y-78922445D01*
X96573402Y-78757701D01*
X96600500Y-78586611D01*
X96600500Y-76413389D01*
X96573402Y-76242299D01*
X96561447Y-76205507D01*
X99799500Y-76205507D01*
X99799500Y-76394491D01*
X99823778Y-76547776D01*
X99829059Y-76581118D01*
X99887454Y-76760836D01*
X99931200Y-76846692D01*
X99963028Y-76909158D01*
X99973238Y-76929196D01*
X99973240Y-76929199D01*
X100084310Y-77082073D01*
X100217927Y-77215690D01*
X100272235Y-77255147D01*
X100370796Y-77326757D01*
X100370797Y-77326757D01*
X100370801Y-77326760D01*
X100450347Y-77367290D01*
X100532722Y-77409263D01*
X100534320Y-77410198D01*
X100538055Y-77412008D01*
X100540022Y-77412985D01*
X100543777Y-77414044D01*
X100622182Y-77439520D01*
X100718881Y-77470940D01*
X100905514Y-77500500D01*
X100905519Y-77500500D01*
X101094485Y-77500500D01*
X101094486Y-77500500D01*
X101281118Y-77470940D01*
X101282623Y-77470451D01*
X101460832Y-77412547D01*
X101629199Y-77326760D01*
X101782073Y-77215690D01*
X101915690Y-77082073D01*
X102026760Y-76929199D01*
X102112547Y-76760832D01*
X102133859Y-76695238D01*
X102141608Y-76676673D01*
X102151120Y-76658251D01*
X102308108Y-76205552D01*
X107420000Y-76205552D01*
X107420000Y-76394447D01*
X107428219Y-76446341D01*
X107449548Y-76581003D01*
X107507912Y-76760634D01*
X107507913Y-76760636D01*
X107584783Y-76911500D01*
X107593666Y-76928933D01*
X107612116Y-76954328D01*
X108120106Y-76446339D01*
X108181426Y-76412856D01*
X108251118Y-76417840D01*
X108307051Y-76459712D01*
X108315171Y-76472022D01*
X108339927Y-76514901D01*
X108339929Y-76514904D01*
X108339930Y-76514905D01*
X108405095Y-76580070D01*
X108447976Y-76604827D01*
X108496191Y-76655393D01*
X108509415Y-76724000D01*
X108483447Y-76788865D01*
X108473657Y-76799895D01*
X107965669Y-77307881D01*
X107965669Y-77307882D01*
X107965673Y-77307886D01*
X107980141Y-77318397D01*
X107991059Y-77326329D01*
X108159362Y-77412085D01*
X108338997Y-77470451D01*
X108525553Y-77500000D01*
X108714446Y-77500000D01*
X108714447Y-77500000D01*
X108901002Y-77470451D01*
X109080637Y-77412085D01*
X109248937Y-77326331D01*
X109274328Y-77307883D01*
X109274328Y-77307882D01*
X109023128Y-77056682D01*
X108766342Y-76799895D01*
X108732857Y-76738572D01*
X108737841Y-76668880D01*
X108779713Y-76612947D01*
X108792017Y-76604830D01*
X108834905Y-76580070D01*
X108900070Y-76514905D01*
X108924828Y-76472021D01*
X108975391Y-76423808D01*
X109043997Y-76410583D01*
X109108863Y-76436549D01*
X109119895Y-76446341D01*
X109627882Y-76954328D01*
X109627883Y-76954328D01*
X109646331Y-76928937D01*
X109732085Y-76760637D01*
X109790451Y-76581002D01*
X109820000Y-76394447D01*
X109820000Y-76205552D01*
X109790451Y-76018997D01*
X109732085Y-75839362D01*
X109646329Y-75671059D01*
X109646141Y-75670800D01*
X109627886Y-75645673D01*
X109627882Y-75645669D01*
X109627881Y-75645669D01*
X109119895Y-76153656D01*
X109058572Y-76187141D01*
X108988881Y-76182157D01*
X108932947Y-76140286D01*
X108924827Y-76127975D01*
X108900072Y-76085098D01*
X108900068Y-76085093D01*
X108834906Y-76019931D01*
X108834898Y-76019925D01*
X108792024Y-75995172D01*
X108743808Y-75944606D01*
X108730584Y-75875999D01*
X108756552Y-75811134D01*
X108766342Y-75800104D01*
X108824633Y-75741813D01*
X109274328Y-75292116D01*
X109265239Y-75285513D01*
X109248933Y-75273666D01*
X109248931Y-75273665D01*
X109080636Y-75187913D01*
X109080634Y-75187912D01*
X108901003Y-75129548D01*
X108807724Y-75114774D01*
X108714447Y-75100000D01*
X108714446Y-75100000D01*
X108525554Y-75100000D01*
X108525553Y-75100000D01*
X108463367Y-75109849D01*
X108338995Y-75129548D01*
X108159364Y-75187912D01*
X108159361Y-75187913D01*
X107991057Y-75273670D01*
X107990771Y-75273846D01*
X107990640Y-75273882D01*
X107986719Y-75275881D01*
X107986321Y-75275100D01*
X107970917Y-75279444D01*
X107965668Y-75292116D01*
X108473657Y-75800104D01*
X108507142Y-75861427D01*
X108502158Y-75931118D01*
X108460287Y-75987052D01*
X108447976Y-75995172D01*
X108405098Y-76019927D01*
X108405093Y-76019931D01*
X108339931Y-76085093D01*
X108339927Y-76085098D01*
X108315172Y-76127976D01*
X108264605Y-76176192D01*
X108195998Y-76189414D01*
X108131133Y-76163446D01*
X108120104Y-76153657D01*
X107612116Y-75645668D01*
X107599444Y-75650917D01*
X107595100Y-75666321D01*
X107595881Y-75666719D01*
X107593882Y-75670640D01*
X107593846Y-75670771D01*
X107593670Y-75671057D01*
X107507913Y-75839361D01*
X107507912Y-75839364D01*
X107449548Y-76018995D01*
X107426886Y-76162074D01*
X107420000Y-76205552D01*
X102308108Y-76205552D01*
X102492247Y-75674561D01*
X102521718Y-75627513D01*
X106529762Y-71619470D01*
X106556188Y-71599339D01*
X106646305Y-71548148D01*
X106714318Y-71532153D01*
X106780183Y-71555467D01*
X106858390Y-71612287D01*
X107034329Y-71701933D01*
X107035925Y-71702867D01*
X107039638Y-71704666D01*
X107041635Y-71705659D01*
X107045401Y-71706721D01*
X107114107Y-71729045D01*
X107235465Y-71768477D01*
X107327595Y-71783069D01*
X107437648Y-71800500D01*
X107437649Y-71800500D01*
X107642351Y-71800500D01*
X107642352Y-71800500D01*
X107844534Y-71768477D01*
X108039219Y-71705220D01*
X108221610Y-71612287D01*
X108299817Y-71555467D01*
X108331043Y-71532781D01*
X108352539Y-71517162D01*
X108387213Y-71491971D01*
X108387215Y-71491968D01*
X108387219Y-71491966D01*
X108387221Y-71491963D01*
X108387275Y-71491924D01*
X108388032Y-71491152D01*
X108531152Y-71348032D01*
X108531924Y-71347275D01*
X108531962Y-71347222D01*
X108531966Y-71347219D01*
X108531968Y-71347215D01*
X108531971Y-71347213D01*
X108611835Y-71237288D01*
X108652287Y-71181610D01*
X108745220Y-70999219D01*
X108808477Y-70804534D01*
X108840500Y-70602352D01*
X108840500Y-70397648D01*
X108808477Y-70195466D01*
X108791468Y-70143119D01*
X108745218Y-70000776D01*
X108745216Y-70000773D01*
X108745216Y-70000771D01*
X108711503Y-69934607D01*
X108686322Y-69885187D01*
X108652287Y-69818390D01*
X108619685Y-69773516D01*
X108600430Y-69747013D01*
X108600427Y-69747010D01*
X108573509Y-69709960D01*
X108531971Y-69652786D01*
X108387213Y-69508028D01*
X108387212Y-69508027D01*
X108387211Y-69508026D01*
X108229507Y-69393450D01*
X108229168Y-69393161D01*
X108221603Y-69387707D01*
X108221239Y-69387524D01*
X108116978Y-69334400D01*
X108116978Y-69334399D01*
X108116976Y-69334399D01*
X108039228Y-69294783D01*
X108039221Y-69294780D01*
X107882309Y-69243796D01*
X107844534Y-69231522D01*
X107844532Y-69231521D01*
X107844530Y-69231521D01*
X107844529Y-69231520D01*
X107669995Y-69203878D01*
X107653409Y-69201251D01*
X107642354Y-69199500D01*
X107642352Y-69199500D01*
X107437648Y-69199500D01*
X107437647Y-69199500D01*
X107413327Y-69203351D01*
X107413326Y-69203350D01*
X107235468Y-69231521D01*
X107040777Y-69294780D01*
X107040764Y-69294786D01*
X106858397Y-69387708D01*
X106858385Y-69387715D01*
X106692783Y-69508029D01*
X106692780Y-69508032D01*
X106578165Y-69622646D01*
X106576636Y-69624149D01*
X106570590Y-69629988D01*
X106566346Y-69634466D01*
X106548031Y-69652781D01*
X106477517Y-69749836D01*
X106475154Y-69752982D01*
X105714447Y-70733031D01*
X105710502Y-70738354D01*
X105698567Y-70752193D01*
X101672483Y-74778278D01*
X101625430Y-74807752D01*
X100641741Y-75148880D01*
X100601920Y-75164609D01*
X100596959Y-75167121D01*
X100579274Y-75174420D01*
X100539164Y-75187453D01*
X100370799Y-75273240D01*
X100283579Y-75336610D01*
X100283578Y-75336610D01*
X100229794Y-75375686D01*
X100222419Y-75379816D01*
X100079817Y-75522418D01*
X100075683Y-75529801D01*
X100064647Y-75544990D01*
X99973244Y-75670794D01*
X99973236Y-75670807D01*
X99971322Y-75674564D01*
X99887454Y-75839163D01*
X99829059Y-76018881D01*
X99829058Y-76018884D01*
X99829058Y-76018886D01*
X99799500Y-76205507D01*
X96561447Y-76205507D01*
X96519873Y-76077555D01*
X96441232Y-75923212D01*
X96339414Y-75783072D01*
X96216928Y-75660586D01*
X96148397Y-75610795D01*
X96123091Y-75586202D01*
X96115220Y-75575995D01*
X96114615Y-75575210D01*
X96089265Y-75510103D01*
X96103138Y-75441626D01*
X96106407Y-75435433D01*
X96143191Y-75392986D01*
X96148088Y-75389429D01*
X96216928Y-75339414D01*
X96339414Y-75216928D01*
X96441232Y-75076788D01*
X96519873Y-74922445D01*
X96573402Y-74757701D01*
X96600500Y-74586611D01*
X96600500Y-72413389D01*
X96573402Y-72242299D01*
X96519873Y-72077555D01*
X96441232Y-71923212D01*
X96339414Y-71783072D01*
X96216928Y-71660586D01*
X96160342Y-71619474D01*
X96076792Y-71558770D01*
X96076789Y-71558769D01*
X96076790Y-71558769D01*
X96076788Y-71558768D01*
X96025785Y-71532781D01*
X96025782Y-71532779D01*
X95939944Y-71489043D01*
X95934604Y-71485163D01*
X95910287Y-71475090D01*
X95903767Y-71474058D01*
X95847221Y-71455685D01*
X95766532Y-71429467D01*
X95762010Y-71427614D01*
X95752820Y-71425444D01*
X95748057Y-71425070D01*
X95737513Y-71423400D01*
X95626271Y-71405781D01*
X95610407Y-71403268D01*
X95586614Y-71399500D01*
X95586611Y-71399500D01*
X95413389Y-71399500D01*
X95413388Y-71399500D01*
X95373726Y-71405781D01*
X95373725Y-71405780D01*
X95242304Y-71426596D01*
X95077549Y-71480129D01*
X94923218Y-71558764D01*
X94923205Y-71558772D01*
X94869316Y-71597925D01*
X94794942Y-71651961D01*
X94787563Y-71656093D01*
X94656092Y-71787564D01*
X94651961Y-71794941D01*
X94616859Y-71843255D01*
X94616859Y-71843256D01*
X94558768Y-71923210D01*
X94480129Y-72077547D01*
X94426596Y-72242301D01*
X94426596Y-72242302D01*
X94403631Y-72387302D01*
X94403624Y-72387351D01*
X94403437Y-72388533D01*
X94399500Y-72413389D01*
X93600500Y-72413389D01*
X93600500Y-70397642D01*
X101239500Y-70397642D01*
X101239500Y-70602356D01*
X101270014Y-70795012D01*
X101271522Y-70804534D01*
X101291116Y-70864837D01*
X101334780Y-70999221D01*
X101334783Y-70999228D01*
X101378957Y-71085921D01*
X101378958Y-71085923D01*
X101424227Y-71174771D01*
X101424228Y-71174771D01*
X101424233Y-71174781D01*
X101427715Y-71181613D01*
X101548028Y-71347213D01*
X101692786Y-71491971D01*
X101784728Y-71558769D01*
X101838621Y-71597924D01*
X101838623Y-71597926D01*
X101858385Y-71612284D01*
X101858387Y-71612285D01*
X101858390Y-71612287D01*
X101937864Y-71652781D01*
X102024624Y-71696988D01*
X102034329Y-71701933D01*
X102035927Y-71702869D01*
X102039615Y-71704655D01*
X102041641Y-71705661D01*
X102045406Y-71706723D01*
X102071296Y-71715135D01*
X102114107Y-71729045D01*
X102235465Y-71768477D01*
X102327595Y-71783069D01*
X102437648Y-71800500D01*
X102437649Y-71800500D01*
X102642351Y-71800500D01*
X102642352Y-71800500D01*
X102844534Y-71768477D01*
X103039219Y-71705220D01*
X103221610Y-71612287D01*
X103299817Y-71555467D01*
X103331043Y-71532781D01*
X103352539Y-71517162D01*
X103387213Y-71491971D01*
X103387215Y-71491968D01*
X103387219Y-71491966D01*
X103387221Y-71491963D01*
X103387275Y-71491924D01*
X103388032Y-71491152D01*
X103531152Y-71348032D01*
X103531924Y-71347275D01*
X103531962Y-71347222D01*
X103531966Y-71347219D01*
X103531968Y-71347215D01*
X103531971Y-71347213D01*
X103611835Y-71237288D01*
X103652287Y-71181610D01*
X103745220Y-70999219D01*
X103808477Y-70804534D01*
X103840500Y-70602352D01*
X103840500Y-70397648D01*
X103808477Y-70195466D01*
X103791468Y-70143119D01*
X103745218Y-70000776D01*
X103745216Y-70000773D01*
X103745216Y-70000771D01*
X103711503Y-69934607D01*
X103686322Y-69885187D01*
X103652287Y-69818390D01*
X103619685Y-69773516D01*
X103600430Y-69747013D01*
X103600427Y-69747010D01*
X103573509Y-69709960D01*
X103531971Y-69652786D01*
X103387213Y-69508028D01*
X103387212Y-69508027D01*
X103387211Y-69508026D01*
X103229507Y-69393450D01*
X103229168Y-69393161D01*
X103221603Y-69387707D01*
X103221239Y-69387524D01*
X103116978Y-69334400D01*
X103116978Y-69334399D01*
X103116976Y-69334399D01*
X103039228Y-69294783D01*
X103039221Y-69294780D01*
X102882309Y-69243796D01*
X102844534Y-69231522D01*
X102844532Y-69231521D01*
X102844530Y-69231521D01*
X102844529Y-69231520D01*
X102669995Y-69203878D01*
X102653409Y-69201251D01*
X102642354Y-69199500D01*
X102642352Y-69199500D01*
X102437648Y-69199500D01*
X102437647Y-69199500D01*
X102413327Y-69203351D01*
X102413326Y-69203350D01*
X102235468Y-69231521D01*
X102040777Y-69294780D01*
X102040764Y-69294786D01*
X101858397Y-69387708D01*
X101858385Y-69387715D01*
X101692787Y-69508027D01*
X101692784Y-69508029D01*
X101548029Y-69652784D01*
X101548027Y-69652787D01*
X101427715Y-69818385D01*
X101427708Y-69818397D01*
X101334786Y-70000764D01*
X101334780Y-70000777D01*
X101271521Y-70195468D01*
X101239500Y-70397642D01*
X93600500Y-70397642D01*
X93600500Y-67102220D01*
X93613072Y-67047815D01*
X93613894Y-67046132D01*
X94088719Y-66073629D01*
X94106092Y-66033787D01*
X94106094Y-66033776D01*
X94107896Y-66028311D01*
X94108760Y-66028595D01*
X94115220Y-66010650D01*
X94135715Y-65970429D01*
X94195324Y-65786972D01*
X94225500Y-65596449D01*
X94225500Y-65403551D01*
X94195324Y-65213028D01*
X94135715Y-65029571D01*
X94048141Y-64857698D01*
X93945895Y-64716968D01*
X93933040Y-64694754D01*
X93932799Y-64694216D01*
X93925656Y-64678260D01*
X93916233Y-64609030D01*
X93945734Y-64545694D01*
X94004349Y-64508490D01*
X94015055Y-64505390D01*
X94049536Y-64500500D01*
X96950225Y-64500500D01*
X96985154Y-64505521D01*
X96987289Y-64506147D01*
X96996154Y-64508751D01*
X97054933Y-64546522D01*
X97083961Y-64610076D01*
X97074208Y-64678822D01*
X97066883Y-64695020D01*
X97054218Y-64716811D01*
X97030702Y-64749179D01*
X97030701Y-64749181D01*
X96951859Y-64857696D01*
X96864287Y-65029565D01*
X96804674Y-65213032D01*
X96787338Y-65322489D01*
X96781347Y-65360318D01*
X96781306Y-65360577D01*
X96774500Y-65403547D01*
X96774500Y-65403550D01*
X96774500Y-65403551D01*
X96774500Y-65596449D01*
X96781495Y-65640614D01*
X96804657Y-65786858D01*
X96804675Y-65786968D01*
X96804682Y-65786998D01*
X96804830Y-65787446D01*
X96864286Y-65970433D01*
X96931097Y-66101554D01*
X96951859Y-66142302D01*
X97065241Y-66298359D01*
X97201641Y-66434759D01*
X97357698Y-66548141D01*
X97529571Y-66635715D01*
X97713028Y-66695324D01*
X97903551Y-66725500D01*
X97903552Y-66725500D01*
X98096448Y-66725500D01*
X98096449Y-66725500D01*
X98286972Y-66695324D01*
X98470429Y-66635715D01*
X98642302Y-66548141D01*
X98798359Y-66434759D01*
X98934759Y-66298359D01*
X99048141Y-66142302D01*
X99135715Y-65970429D01*
X99195324Y-65786972D01*
X99225500Y-65596449D01*
X99225500Y-65403551D01*
X99195324Y-65213028D01*
X99135715Y-65029571D01*
X99048141Y-64857698D01*
X98945895Y-64716968D01*
X98933040Y-64694754D01*
X98932799Y-64694216D01*
X98925656Y-64678260D01*
X98916233Y-64609030D01*
X98945734Y-64545694D01*
X99004349Y-64508490D01*
X99015055Y-64505390D01*
X99049536Y-64500500D01*
X101819375Y-64500500D01*
X101875502Y-64500507D01*
X101875509Y-64500507D01*
X101911753Y-64500511D01*
X101921376Y-64502055D01*
X101922442Y-64501895D01*
X101940915Y-64500514D01*
X101955617Y-64500516D01*
X101964082Y-64495894D01*
X101971959Y-64494445D01*
X102153638Y-64467110D01*
X102368206Y-64401045D01*
X102570556Y-64303791D01*
X102756183Y-64177512D01*
X102920955Y-64025019D01*
X102923509Y-64021826D01*
X102956243Y-63980899D01*
X102995159Y-63932243D01*
X102995167Y-63932230D01*
X103032231Y-63885902D01*
X103032231Y-63885901D01*
X103045407Y-63869432D01*
X103045407Y-63869431D01*
X103045423Y-63869412D01*
X103045428Y-63869405D01*
X103047484Y-63866834D01*
X103047489Y-63866826D01*
X103561730Y-63224028D01*
X103584105Y-63196058D01*
X103588554Y-63190806D01*
X103593189Y-63185636D01*
X103597945Y-63180619D01*
X103654861Y-63123856D01*
X103665198Y-63114642D01*
X103676027Y-63106026D01*
X103687334Y-63098021D01*
X103746564Y-63060884D01*
X103758680Y-63054202D01*
X103771170Y-63048199D01*
X103783942Y-63042919D01*
X103849952Y-63019865D01*
X103863260Y-63016037D01*
X103876742Y-63012965D01*
X103890417Y-63010645D01*
X103970275Y-63001663D01*
X103977200Y-63001081D01*
X103984119Y-63000694D01*
X103991044Y-63000500D01*
X152289554Y-63000500D01*
X152296492Y-63000693D01*
G37*
G04 #@! TD.AperFunction*
G04 #@! TA.AperFunction,Conductor*
G36*
X140741890Y-72814264D02*
G01*
X140796604Y-72857716D01*
X140796617Y-72857734D01*
X140798540Y-72860463D01*
X140819498Y-72911555D01*
X140819821Y-72913498D01*
X140821500Y-72933832D01*
X140821500Y-79838170D01*
X140816475Y-79873114D01*
X140812070Y-79888112D01*
X140774327Y-79946855D01*
X140772958Y-79948042D01*
X140718097Y-79975518D01*
X140710539Y-79977163D01*
X140684168Y-79980000D01*
X140100000Y-79980000D01*
X140100000Y-80915985D01*
X140080315Y-80983024D01*
X140027511Y-81028779D01*
X139958353Y-81038723D01*
X139943909Y-81035761D01*
X139937695Y-81034096D01*
X139922409Y-81030000D01*
X139922407Y-81030000D01*
X139777593Y-81030000D01*
X139777591Y-81030000D01*
X139756091Y-81035761D01*
X139686241Y-81034096D01*
X139628379Y-80994932D01*
X139600877Y-80930703D01*
X139600000Y-80915985D01*
X139600000Y-79980000D01*
X138950028Y-79980000D01*
X138950012Y-79980001D01*
X138950002Y-79980001D01*
X138950002Y-79980002D01*
X138853586Y-79989852D01*
X138850217Y-79990023D01*
X138847298Y-79990494D01*
X138680882Y-80045639D01*
X138680870Y-80045644D01*
X138680867Y-80045646D01*
X138531674Y-80137669D01*
X138531652Y-80137685D01*
X138531649Y-80137687D01*
X138407687Y-80261649D01*
X138407685Y-80261652D01*
X138407669Y-80261674D01*
X138315646Y-80410867D01*
X138315644Y-80410870D01*
X138315637Y-80410884D01*
X138260493Y-80577303D01*
X138250000Y-80680007D01*
X138250000Y-80680013D01*
X138250000Y-81330000D01*
X139185986Y-81330000D01*
X139253025Y-81349685D01*
X139298780Y-81402489D01*
X139308724Y-81471647D01*
X139305763Y-81486080D01*
X139300000Y-81507591D01*
X139300000Y-81652409D01*
X139305760Y-81673908D01*
X139304098Y-81743755D01*
X139264936Y-81801618D01*
X139200708Y-81829123D01*
X139185986Y-81830000D01*
X138250001Y-81830000D01*
X138250001Y-82479993D01*
X138259852Y-82576410D01*
X138260023Y-82579782D01*
X138260494Y-82582700D01*
X138309809Y-82731522D01*
X138315640Y-82749119D01*
X138315645Y-82749130D01*
X138327536Y-82768408D01*
X138407669Y-82898324D01*
X138407676Y-82898334D01*
X138407680Y-82898340D01*
X138407683Y-82898344D01*
X138407685Y-82898346D01*
X138407687Y-82898349D01*
X138531649Y-83022311D01*
X138531652Y-83022313D01*
X138531655Y-83022316D01*
X138531659Y-83022319D01*
X138531667Y-83022324D01*
X138531674Y-83022329D01*
X138597257Y-83062781D01*
X138680869Y-83114354D01*
X138680880Y-83114359D01*
X138847302Y-83169505D01*
X138950019Y-83179999D01*
X139599999Y-83179999D01*
X139600000Y-83179998D01*
X139600000Y-82244014D01*
X139619685Y-82176975D01*
X139672489Y-82131220D01*
X139741647Y-82121276D01*
X139756080Y-82124236D01*
X139777591Y-82130000D01*
X139922406Y-82130000D01*
X139922409Y-82130000D01*
X139943908Y-82124239D01*
X140013755Y-82125902D01*
X140071618Y-82165064D01*
X140099123Y-82229292D01*
X140100000Y-82244014D01*
X140100000Y-83179999D01*
X140601874Y-83179999D01*
X140636801Y-83185020D01*
X140647654Y-83188206D01*
X140706435Y-83225976D01*
X140735464Y-83289530D01*
X140725525Y-83358689D01*
X140725521Y-83358698D01*
X140722336Y-83365672D01*
X140697223Y-83401840D01*
X140419134Y-83679929D01*
X140412397Y-83686664D01*
X140399045Y-83698233D01*
X140378025Y-83713969D01*
X140378015Y-83713978D01*
X140073486Y-84018505D01*
X140045031Y-84053185D01*
X140036852Y-84062210D01*
X140019488Y-84079573D01*
X140019476Y-84079587D01*
X140011859Y-84092781D01*
X140008837Y-84097641D01*
X140008029Y-84098990D01*
X140005942Y-84102896D01*
X140003974Y-84106437D01*
X139973020Y-84160056D01*
X139963894Y-84175860D01*
X139957606Y-84186752D01*
X139945494Y-84204115D01*
X139591128Y-84629499D01*
X139533095Y-84668408D01*
X139463238Y-84669765D01*
X139428814Y-84654446D01*
X139423533Y-84651052D01*
X139402893Y-84634419D01*
X139314648Y-84546174D01*
X139314646Y-84546172D01*
X139216928Y-84475175D01*
X139155409Y-84430478D01*
X139155406Y-84430477D01*
X139155407Y-84430477D01*
X139155405Y-84430476D01*
X139128040Y-84416533D01*
X139128037Y-84416531D01*
X139060036Y-84381883D01*
X138980029Y-84341117D01*
X138792826Y-84280290D01*
X138786348Y-84279264D01*
X138598427Y-84249500D01*
X138598422Y-84249500D01*
X138598417Y-84249500D01*
X138401583Y-84249500D01*
X138401578Y-84249500D01*
X138401573Y-84249500D01*
X138207178Y-84280289D01*
X138207176Y-84280289D01*
X138207173Y-84280290D01*
X138019967Y-84341118D01*
X138019965Y-84341118D01*
X138019965Y-84341119D01*
X137856796Y-84424257D01*
X137823386Y-84435642D01*
X137808022Y-84438527D01*
X137738502Y-84431553D01*
X137732397Y-84429075D01*
X137678715Y-84387065D01*
X137624083Y-84311871D01*
X137620798Y-84307349D01*
X137534511Y-84221062D01*
X137442662Y-84129212D01*
X137442656Y-84129207D01*
X137442654Y-84129205D01*
X137442649Y-84129201D01*
X137246743Y-83986868D01*
X137246402Y-83986577D01*
X137238838Y-83981124D01*
X137238474Y-83980941D01*
X137110406Y-83915687D01*
X137014383Y-83866760D01*
X136902648Y-83830455D01*
X136774787Y-83788910D01*
X136731637Y-83782076D01*
X136670154Y-83772338D01*
X136525962Y-83749500D01*
X136525961Y-83749500D01*
X136274039Y-83749500D01*
X136274038Y-83749500D01*
X136243139Y-83754394D01*
X136025217Y-83788909D01*
X136025214Y-83788910D01*
X135785612Y-83866762D01*
X135785610Y-83866762D01*
X135780978Y-83868268D01*
X135780869Y-83867932D01*
X135763112Y-83873213D01*
X135747528Y-83876139D01*
X135678007Y-83869164D01*
X135623294Y-83825710D01*
X135623281Y-83825692D01*
X135621356Y-83822960D01*
X135600389Y-83771812D01*
X135600067Y-83769865D01*
X135598400Y-83749600D01*
X135598400Y-76590026D01*
X135603422Y-76555093D01*
X135610834Y-76529848D01*
X135642128Y-76477106D01*
X137400484Y-74718751D01*
X138671231Y-73448001D01*
X138724389Y-73416586D01*
X139973589Y-73054518D01*
X140234722Y-72978831D01*
X140234724Y-72978830D01*
X140234732Y-72978828D01*
X140245639Y-72974547D01*
X140252629Y-72972042D01*
X140464373Y-72903243D01*
X140464373Y-72903242D01*
X140464379Y-72903241D01*
X140625323Y-72821235D01*
X140658729Y-72809851D01*
X140672369Y-72807290D01*
X140741890Y-72814264D01*
G37*
G04 #@! TD.AperFunction*
G04 #@! TA.AperFunction,Conductor*
G36*
X146954636Y-66429627D02*
G01*
X146961252Y-66431882D01*
X147008939Y-66461574D01*
X147748775Y-67201410D01*
X147769927Y-67229666D01*
X147777419Y-67243387D01*
X147792271Y-67311647D01*
X147792142Y-67313453D01*
X147772774Y-67371656D01*
X147768593Y-67378162D01*
X147751957Y-67398805D01*
X146331486Y-68819277D01*
X146219681Y-68931081D01*
X146219679Y-68931084D01*
X146215945Y-68937553D01*
X146211080Y-68945980D01*
X146174531Y-69009285D01*
X146140623Y-69068015D01*
X146099699Y-69220743D01*
X146099699Y-69220745D01*
X146099699Y-69391200D01*
X146099700Y-69391251D01*
X146099700Y-84057920D01*
X146097370Y-84065852D01*
X146098438Y-84075565D01*
X146094700Y-84101562D01*
X146094700Y-84197864D01*
X146094701Y-84197889D01*
X146099101Y-84242534D01*
X146099699Y-84254695D01*
X146099699Y-84279261D01*
X146100200Y-84284266D01*
X146099739Y-84284312D01*
X146101055Y-84301068D01*
X146100797Y-84311871D01*
X146079517Y-84378421D01*
X146025636Y-84422902D01*
X145956260Y-84431192D01*
X145897207Y-84403967D01*
X145893043Y-84400479D01*
X145872349Y-84378306D01*
X145868395Y-84372864D01*
X145845331Y-84341118D01*
X145820796Y-84307347D01*
X145642656Y-84129207D01*
X145642654Y-84129205D01*
X145642649Y-84129201D01*
X145446743Y-83986868D01*
X145446402Y-83986577D01*
X145438838Y-83981124D01*
X145438474Y-83980941D01*
X145310406Y-83915687D01*
X145214383Y-83866760D01*
X145102648Y-83830455D01*
X144974787Y-83788910D01*
X144931637Y-83782076D01*
X144870154Y-83772338D01*
X144725962Y-83749500D01*
X144725961Y-83749500D01*
X144474039Y-83749500D01*
X144474038Y-83749500D01*
X144443139Y-83754394D01*
X144225212Y-83788910D01*
X144225209Y-83788910D01*
X143985622Y-83866758D01*
X143985616Y-83866760D01*
X143924996Y-83897648D01*
X143761154Y-83981130D01*
X143761151Y-83981131D01*
X143761151Y-83981132D01*
X143738728Y-83997423D01*
X143557343Y-84129205D01*
X143478091Y-84208456D01*
X143449834Y-84229608D01*
X143428854Y-84241063D01*
X143376083Y-84256050D01*
X143374538Y-84256133D01*
X143354676Y-84255606D01*
X143353080Y-84255435D01*
X143353034Y-84255430D01*
X143297889Y-84249500D01*
X143297873Y-84249500D01*
X143297867Y-84249500D01*
X141865225Y-84249500D01*
X141830290Y-84244477D01*
X141819436Y-84241290D01*
X141760658Y-84203516D01*
X141731633Y-84139960D01*
X141741573Y-84070811D01*
X141744763Y-84063824D01*
X141769871Y-84027661D01*
X141773274Y-84024259D01*
X141773278Y-84024257D01*
X141790715Y-84006820D01*
X141790716Y-84006820D01*
X141902520Y-83895016D01*
X141958616Y-83797852D01*
X141958625Y-83797841D01*
X141967725Y-83782074D01*
X141967727Y-83782074D01*
X141973337Y-83772354D01*
X141973351Y-83772340D01*
X141973347Y-83772338D01*
X141975156Y-83769205D01*
X141981577Y-83758085D01*
X142022501Y-83605357D01*
X142022501Y-83447243D01*
X142022501Y-83439648D01*
X142022501Y-83437964D01*
X142022500Y-83437890D01*
X142022500Y-82658247D01*
X142027521Y-82623318D01*
X142031797Y-82608752D01*
X142069568Y-82549976D01*
X142129192Y-82521578D01*
X142140678Y-82519548D01*
X142171975Y-82518039D01*
X142205749Y-82520697D01*
X142853695Y-81872749D01*
X142915016Y-81839266D01*
X142984707Y-81844250D01*
X143040641Y-81886121D01*
X143048762Y-81898433D01*
X143059887Y-81917704D01*
X143059890Y-81917708D01*
X143162292Y-82020110D01*
X143162293Y-82020111D01*
X143162295Y-82020112D01*
X143181563Y-82031236D01*
X143229780Y-82081802D01*
X143243004Y-82150409D01*
X143217037Y-82215274D01*
X143207246Y-82226305D01*
X142559299Y-82874249D01*
X142559300Y-82874249D01*
X142559300Y-82874250D01*
X142661416Y-82948442D01*
X142764440Y-83000936D01*
X142885814Y-83062780D01*
X142885817Y-83062781D01*
X142980720Y-83093616D01*
X143125330Y-83140602D01*
X143374072Y-83180000D01*
X143625927Y-83180000D01*
X143625928Y-83180000D01*
X143874669Y-83140602D01*
X144114184Y-83062780D01*
X144338575Y-82948446D01*
X144338581Y-82948442D01*
X144408102Y-82897932D01*
X144434840Y-82888391D01*
X144440698Y-82874249D01*
X143792753Y-82226305D01*
X143759268Y-82164982D01*
X143764252Y-82095291D01*
X143806123Y-82039357D01*
X143818433Y-82031238D01*
X143837708Y-82020110D01*
X143940110Y-81917708D01*
X143951235Y-81898437D01*
X144001800Y-81850220D01*
X144070407Y-81836995D01*
X144135272Y-81862961D01*
X144146305Y-81872753D01*
X144794249Y-82520698D01*
X144794249Y-82520697D01*
X144794250Y-82520698D01*
X144794250Y-82520697D01*
X144807718Y-82515118D01*
X144813935Y-82493948D01*
X144817932Y-82488102D01*
X144823828Y-82479986D01*
X144868442Y-82418581D01*
X144868446Y-82418575D01*
X144982780Y-82194184D01*
X145060602Y-81954669D01*
X145100000Y-81705928D01*
X145100000Y-81454071D01*
X145060602Y-81205330D01*
X145006469Y-81038723D01*
X144982781Y-80965817D01*
X144982780Y-80965814D01*
X144868442Y-80741416D01*
X144817932Y-80671896D01*
X144808391Y-80645157D01*
X144794249Y-80639299D01*
X144146305Y-81287245D01*
X144084982Y-81320730D01*
X144015291Y-81315746D01*
X143959357Y-81273875D01*
X143951237Y-81261564D01*
X143940112Y-81242295D01*
X143940108Y-81242290D01*
X143837707Y-81139889D01*
X143826091Y-81133183D01*
X143818432Y-81128761D01*
X143770217Y-81078195D01*
X143756993Y-81009588D01*
X143782961Y-80944723D01*
X143792751Y-80933693D01*
X143932491Y-80793954D01*
X144440698Y-80285748D01*
X144338583Y-80211557D01*
X144334742Y-80209600D01*
X144114184Y-80097218D01*
X144114181Y-80097217D01*
X143874670Y-80019397D01*
X143689210Y-79990023D01*
X143625928Y-79980000D01*
X143625927Y-79980000D01*
X143374073Y-79980000D01*
X143374072Y-79980000D01*
X143307816Y-79990494D01*
X143125328Y-80019397D01*
X142885817Y-80097217D01*
X142885804Y-80097223D01*
X142661418Y-80211555D01*
X142559300Y-80285747D01*
X142559300Y-80285748D01*
X143207246Y-80933694D01*
X143240731Y-80995017D01*
X143235747Y-81064708D01*
X143193876Y-81120642D01*
X143181566Y-81128762D01*
X143162293Y-81139889D01*
X143162290Y-81139891D01*
X143059891Y-81242290D01*
X143059887Y-81242295D01*
X143048759Y-81261569D01*
X142998190Y-81309783D01*
X142929582Y-81323003D01*
X142864719Y-81297033D01*
X142853693Y-81287246D01*
X142584145Y-81017698D01*
X142205748Y-80639300D01*
X142205745Y-80639299D01*
X142174004Y-80641798D01*
X142153496Y-80640478D01*
X142153490Y-80640687D01*
X142147016Y-80640479D01*
X142143302Y-80639822D01*
X142138785Y-80639532D01*
X142131982Y-80638103D01*
X142132038Y-80637831D01*
X142112255Y-80634335D01*
X142110294Y-80633690D01*
X142052761Y-80594045D01*
X142052758Y-80594041D01*
X142050789Y-80591615D01*
X142033491Y-80563235D01*
X142033236Y-80562653D01*
X142024072Y-80530513D01*
X142023759Y-80528333D01*
X142022500Y-80510710D01*
X142022500Y-73004739D01*
X142027522Y-72969806D01*
X142028266Y-72967273D01*
X142031433Y-72956487D01*
X142069206Y-72897710D01*
X142132758Y-72868685D01*
X142133460Y-72868584D01*
X142193336Y-72874752D01*
X142199619Y-72877030D01*
X142222449Y-72888066D01*
X142328812Y-72953672D01*
X142330435Y-72954713D01*
X142330609Y-72954796D01*
X142494779Y-73009196D01*
X142497202Y-73009999D01*
X142599990Y-73020500D01*
X142599995Y-73020500D01*
X144400005Y-73020500D01*
X144400010Y-73020500D01*
X144502798Y-73009999D01*
X144669335Y-72954814D01*
X144818656Y-72862712D01*
X144942712Y-72738656D01*
X145034814Y-72589335D01*
X145089999Y-72422798D01*
X145100500Y-72320010D01*
X145100500Y-70519990D01*
X145089999Y-70417202D01*
X145034814Y-70250665D01*
X144942712Y-70101344D01*
X144818656Y-69977288D01*
X144669335Y-69885186D01*
X144511266Y-69832807D01*
X144508440Y-69831639D01*
X144502797Y-69829999D01*
X144400026Y-69819500D01*
X144400017Y-69819500D01*
X144400010Y-69819500D01*
X143026927Y-69819500D01*
X142991992Y-69814477D01*
X142981138Y-69811290D01*
X142922360Y-69773516D01*
X142893335Y-69709960D01*
X142903275Y-69640811D01*
X142906465Y-69633824D01*
X142931574Y-69597660D01*
X143503000Y-69026235D01*
X144978840Y-67550391D01*
X145026135Y-67520834D01*
X146043021Y-67170593D01*
X146083341Y-67154742D01*
X146083349Y-67154736D01*
X146088486Y-67152145D01*
X146088908Y-67152982D01*
X146106150Y-67144844D01*
X146148509Y-67131082D01*
X146319681Y-67043865D01*
X146475102Y-66930945D01*
X146610945Y-66795102D01*
X146723865Y-66639681D01*
X146794631Y-66500792D01*
X146814965Y-66471949D01*
X146824496Y-66461856D01*
X146884838Y-66426636D01*
X146954636Y-66429627D01*
G37*
G04 #@! TD.AperFunction*
G04 #@! TA.AperFunction,Conductor*
G36*
X122613106Y-65186923D02*
G01*
X122628104Y-65191327D01*
X122686855Y-65229072D01*
X122688042Y-65230441D01*
X122715518Y-65285302D01*
X122717163Y-65292860D01*
X122720000Y-65319231D01*
X122720000Y-65580000D01*
X124820000Y-65580000D01*
X124820000Y-65323729D01*
X124825023Y-65288793D01*
X124828081Y-65278381D01*
X124829427Y-65273794D01*
X124867172Y-65215044D01*
X124868541Y-65213857D01*
X124923420Y-65186377D01*
X124930979Y-65184733D01*
X124957332Y-65181900D01*
X128627426Y-65181900D01*
X128662358Y-65186921D01*
X128675677Y-65190832D01*
X128734455Y-65228606D01*
X128763481Y-65292161D01*
X128763481Y-65292165D01*
X128763956Y-65295469D01*
X128759426Y-65350569D01*
X128758830Y-65352450D01*
X128751106Y-65371291D01*
X128669385Y-65531672D01*
X128669382Y-65531679D01*
X128610039Y-65714318D01*
X128580000Y-65903978D01*
X128580000Y-66096020D01*
X128608451Y-66275653D01*
X128610040Y-66285684D01*
X128634120Y-66359793D01*
X128669382Y-66468319D01*
X128669385Y-66468327D01*
X128756563Y-66639420D01*
X128774108Y-66663568D01*
X128791999Y-66688193D01*
X128808469Y-66719408D01*
X128812820Y-66731603D01*
X128816808Y-66801359D01*
X128782450Y-66862197D01*
X128725841Y-66893635D01*
X128716845Y-66895863D01*
X128687035Y-66899500D01*
X126305126Y-66899500D01*
X126247344Y-66885214D01*
X126247260Y-66885170D01*
X126203640Y-66862197D01*
X125671574Y-66581980D01*
X125663331Y-66575906D01*
X125638951Y-66565807D01*
X125633717Y-66564918D01*
X125488658Y-66514159D01*
X125488656Y-66514158D01*
X125488652Y-66514157D01*
X125488629Y-66514154D01*
X125358564Y-66499500D01*
X125358558Y-66499500D01*
X125358552Y-66499500D01*
X124961830Y-66499500D01*
X124926889Y-66494475D01*
X124911890Y-66490070D01*
X124853144Y-66452327D01*
X124851957Y-66450958D01*
X124824477Y-66396083D01*
X124822832Y-66388521D01*
X124820000Y-66362168D01*
X124820000Y-66080000D01*
X124188002Y-66080000D01*
X124120963Y-66060315D01*
X124080615Y-66018000D01*
X124070077Y-65999748D01*
X124070073Y-65999743D01*
X124000256Y-65929926D01*
X124000251Y-65929922D01*
X123914747Y-65880557D01*
X123914746Y-65880556D01*
X123885579Y-65872741D01*
X123819370Y-65855000D01*
X123819367Y-65855000D01*
X123720633Y-65855000D01*
X123720630Y-65855000D01*
X123678093Y-65866398D01*
X123625253Y-65880556D01*
X123625252Y-65880557D01*
X123539748Y-65929922D01*
X123539743Y-65929926D01*
X123469926Y-65999743D01*
X123469922Y-65999748D01*
X123459385Y-66018000D01*
X123408818Y-66066216D01*
X123351998Y-66080000D01*
X122720000Y-66080000D01*
X122720000Y-66357670D01*
X122714975Y-66392614D01*
X122710570Y-66407612D01*
X122672827Y-66466355D01*
X122671458Y-66467542D01*
X122616597Y-66495018D01*
X122609039Y-66496663D01*
X122582668Y-66499500D01*
X121902123Y-66499500D01*
X121900192Y-66499659D01*
X121898545Y-66499885D01*
X121842516Y-66505908D01*
X121729287Y-66548140D01*
X121707666Y-66556204D01*
X121707657Y-66556210D01*
X121664545Y-66588484D01*
X121658755Y-66592566D01*
X121640817Y-66604458D01*
X121640816Y-66604459D01*
X121639616Y-66605651D01*
X121626575Y-66616908D01*
X121592468Y-66642441D01*
X121592455Y-66642452D01*
X121592449Y-66642458D01*
X121568687Y-66674200D01*
X121556789Y-66687879D01*
X121552765Y-66691874D01*
X121538713Y-66705826D01*
X121538701Y-66705840D01*
X121335036Y-66975862D01*
X121301334Y-67006161D01*
X121301475Y-67006371D01*
X121300026Y-67007337D01*
X121299790Y-67007550D01*
X121297700Y-67008802D01*
X121292787Y-67011856D01*
X121279581Y-67019481D01*
X121262211Y-67036851D01*
X121253190Y-67045027D01*
X121218511Y-67073482D01*
X121218499Y-67073493D01*
X121052841Y-67239152D01*
X121052822Y-67239172D01*
X121016692Y-67279394D01*
X121014023Y-67283027D01*
X121001785Y-67297276D01*
X117665780Y-70633282D01*
X117665778Y-70633284D01*
X117642763Y-70673148D01*
X117633037Y-70689998D01*
X117633035Y-70690001D01*
X117633033Y-70690003D01*
X117586724Y-70770211D01*
X117586723Y-70770215D01*
X117545799Y-70922943D01*
X117545799Y-70922945D01*
X117545799Y-71093400D01*
X117545800Y-71093451D01*
X117545800Y-71511161D01*
X117526115Y-71578200D01*
X117473311Y-71623955D01*
X117404153Y-71633899D01*
X117366636Y-71622215D01*
X117361118Y-71619474D01*
X116812117Y-71346766D01*
X116770760Y-71328480D01*
X116770756Y-71328479D01*
X116765247Y-71326638D01*
X116765485Y-71325925D01*
X116747360Y-71319308D01*
X116699225Y-71294782D01*
X116699224Y-71294781D01*
X116699223Y-71294781D01*
X116504534Y-71231522D01*
X116504532Y-71231521D01*
X116504530Y-71231521D01*
X116504529Y-71231520D01*
X116329995Y-71203878D01*
X116313409Y-71201251D01*
X116302354Y-71199500D01*
X116302352Y-71199500D01*
X116097648Y-71199500D01*
X116070007Y-71203878D01*
X116037296Y-71209059D01*
X115905105Y-71229996D01*
X115905097Y-71229996D01*
X115905098Y-71229997D01*
X115895459Y-71231523D01*
X115738772Y-71282435D01*
X115703992Y-71288453D01*
X115690121Y-71288849D01*
X115622547Y-71271086D01*
X115575304Y-71219609D01*
X115572216Y-71213328D01*
X115559500Y-71158630D01*
X115559500Y-69580818D01*
X115579185Y-69513779D01*
X115587529Y-69502297D01*
X115895765Y-69125564D01*
X115939197Y-69063520D01*
X115940984Y-69060510D01*
X115940985Y-69060506D01*
X115943023Y-69057076D01*
X115943260Y-69057216D01*
X115951192Y-69044472D01*
X115952796Y-69042331D01*
X115977197Y-68976903D01*
X115979503Y-68971163D01*
X115992361Y-68941345D01*
X115992361Y-68941337D01*
X115994620Y-68933220D01*
X115995025Y-68933332D01*
X115998276Y-68920388D01*
X116003091Y-68907483D01*
X116007492Y-68866546D01*
X116009499Y-68847885D01*
X116009499Y-68847882D01*
X116009500Y-68847873D01*
X116009499Y-68824092D01*
X116010638Y-68807325D01*
X116011546Y-68800667D01*
X116011803Y-68798784D01*
X116011738Y-68789829D01*
X116009728Y-68756831D01*
X116009499Y-68749292D01*
X116009499Y-66952129D01*
X116009499Y-66952128D01*
X116003091Y-66892517D01*
X116001133Y-66887270D01*
X116001133Y-66887259D01*
X116001131Y-66887260D01*
X115990695Y-66859279D01*
X115984847Y-66837961D01*
X115980970Y-66816470D01*
X115979000Y-66794456D01*
X115979000Y-66712840D01*
X115998685Y-66645801D01*
X116051489Y-66600046D01*
X116120647Y-66590102D01*
X116135080Y-66593062D01*
X116179630Y-66605000D01*
X116278368Y-66605000D01*
X116278370Y-66605000D01*
X116322907Y-66593066D01*
X116392754Y-66594727D01*
X116450618Y-66633889D01*
X116478123Y-66698117D01*
X116479000Y-66712840D01*
X116479000Y-67024543D01*
X116477248Y-67045312D01*
X116475278Y-67056910D01*
X116473794Y-67065643D01*
X116468589Y-67085821D01*
X116464659Y-67097054D01*
X116463157Y-67101346D01*
X116463157Y-67101348D01*
X116448500Y-67231434D01*
X116448500Y-68568564D01*
X116463154Y-68698629D01*
X116463157Y-68698652D01*
X116463158Y-68698656D01*
X116463159Y-68698659D01*
X116506025Y-68821160D01*
X116515376Y-68847883D01*
X116520878Y-68863606D01*
X116613853Y-69011576D01*
X116737424Y-69135147D01*
X116885394Y-69228122D01*
X116930187Y-69243796D01*
X117042920Y-69283244D01*
X117046054Y-69284569D01*
X117047423Y-69284975D01*
X117050465Y-69285957D01*
X117053775Y-69286424D01*
X117057255Y-69286620D01*
X117061726Y-69287123D01*
X117091748Y-69290505D01*
X117091749Y-69290506D01*
X117107281Y-69292255D01*
X117177440Y-69300160D01*
X117179909Y-69300500D01*
X117817555Y-69300500D01*
X117827348Y-69300500D01*
X117834944Y-69298539D01*
X117947657Y-69285841D01*
X118112606Y-69228122D01*
X118260576Y-69135147D01*
X118384147Y-69011576D01*
X118477122Y-68863606D01*
X118534841Y-68698657D01*
X118549500Y-68568552D01*
X118549500Y-67231448D01*
X118538139Y-67130616D01*
X118535619Y-67108254D01*
X118535424Y-67104778D01*
X118534956Y-67101462D01*
X118533975Y-67098423D01*
X118533569Y-67097054D01*
X118532244Y-67093920D01*
X118482628Y-66952129D01*
X118477122Y-66936394D01*
X118384147Y-66788424D01*
X118260576Y-66664853D01*
X118220507Y-66639676D01*
X118124433Y-66579309D01*
X118117825Y-66574039D01*
X118097951Y-66565807D01*
X118092717Y-66564918D01*
X117947658Y-66514159D01*
X117947656Y-66514158D01*
X117947652Y-66514157D01*
X117947629Y-66514154D01*
X117817564Y-66499500D01*
X117817558Y-66499500D01*
X117817552Y-66499500D01*
X117420830Y-66499500D01*
X117385889Y-66494475D01*
X117370890Y-66490070D01*
X117312144Y-66452327D01*
X117310957Y-66450958D01*
X117283477Y-66396083D01*
X117281832Y-66388521D01*
X117279000Y-66362168D01*
X117279000Y-66080000D01*
X116647002Y-66080000D01*
X116579963Y-66060315D01*
X116539615Y-66018000D01*
X116529077Y-65999748D01*
X116529073Y-65999743D01*
X116459256Y-65929926D01*
X116459251Y-65929922D01*
X116373747Y-65880557D01*
X116373746Y-65880556D01*
X116344579Y-65872741D01*
X116320904Y-65866397D01*
X116261245Y-65830032D01*
X116230717Y-65767185D01*
X116229000Y-65746623D01*
X116229000Y-65721829D01*
X116234023Y-65686893D01*
X116236072Y-65679917D01*
X116238427Y-65671894D01*
X116276172Y-65613144D01*
X116277541Y-65611957D01*
X116332420Y-65584477D01*
X116339979Y-65582833D01*
X116366332Y-65580000D01*
X117279000Y-65580000D01*
X117279000Y-65323729D01*
X117284023Y-65288793D01*
X117287081Y-65278381D01*
X117288427Y-65273794D01*
X117326172Y-65215044D01*
X117327541Y-65213857D01*
X117382420Y-65186377D01*
X117389979Y-65184733D01*
X117416332Y-65181900D01*
X122578170Y-65181900D01*
X122613106Y-65186923D01*
G37*
G04 #@! TD.AperFunction*
G04 #@! TA.AperFunction,Conductor*
G36*
X82006466Y-72499591D02*
G01*
X82990784Y-73152770D01*
X82995783Y-73160200D01*
X82994412Y-73168430D01*
X82103389Y-74690512D01*
X82096252Y-74695920D01*
X82093292Y-74696301D01*
X81906708Y-74696301D01*
X81898435Y-74692874D01*
X81896611Y-74690512D01*
X81005587Y-73168430D01*
X81004365Y-73159559D01*
X81009213Y-73152772D01*
X81993532Y-72499592D01*
X82002319Y-72497874D01*
X82006466Y-72499591D01*
G37*
G04 #@! TD.AperFunction*
G04 #@! TA.AperFunction,Conductor*
G36*
X121958670Y-67007932D02*
G01*
X121959487Y-67008609D01*
X122491896Y-67491739D01*
X122495720Y-67499835D01*
X122492698Y-67508264D01*
X122492300Y-67508683D01*
X121960064Y-68039953D01*
X121951787Y-68043372D01*
X121943517Y-68039938D01*
X121942080Y-68038187D01*
X121648300Y-67600000D01*
X121648299Y-67600000D01*
X121551469Y-67735079D01*
X121543864Y-67739806D01*
X121535143Y-67737771D01*
X121533687Y-67736535D01*
X121410288Y-67613136D01*
X121406861Y-67604863D01*
X121410288Y-67596590D01*
X121575946Y-67430931D01*
X121579737Y-67428399D01*
X121609699Y-67415988D01*
X121648299Y-67400001D01*
X121648300Y-67400000D01*
X121942286Y-67010226D01*
X121950002Y-67005686D01*
X121958670Y-67007932D01*
G37*
G04 #@! TD.AperFunction*
G04 #@! TA.AperFunction,Conductor*
G36*
X106981185Y-69935448D02*
G01*
X107293899Y-69987057D01*
X107301504Y-69991785D01*
X107303538Y-70000506D01*
X107302236Y-70004257D01*
X106829121Y-70860956D01*
X106824658Y-70865473D01*
X106256627Y-71188141D01*
X106247741Y-71189248D01*
X106242575Y-71186241D01*
X106114752Y-71058418D01*
X106111325Y-71050145D01*
X106113781Y-71042972D01*
X106970043Y-69939818D01*
X106977822Y-69935385D01*
X106981185Y-69935448D01*
G37*
G04 #@! TD.AperFunction*
G04 #@! TA.AperFunction,Conductor*
G36*
X116763631Y-77771918D02*
G01*
X116769151Y-77778478D01*
X117197046Y-79051062D01*
X117196434Y-79059996D01*
X117194229Y-79063064D01*
X117063064Y-79194229D01*
X117054791Y-79197656D01*
X117051062Y-79197046D01*
X115778478Y-78769151D01*
X115771729Y-78763266D01*
X115770993Y-78754725D01*
X115994763Y-78002637D01*
X116000406Y-77995687D01*
X116002630Y-77994765D01*
X116754725Y-77770993D01*
X116763631Y-77771918D01*
G37*
G04 #@! TD.AperFunction*
G04 #@! TA.AperFunction,Conductor*
G36*
X138793340Y-71166271D02*
G01*
X139843810Y-71414696D01*
X139847962Y-71416594D01*
X139850540Y-71418454D01*
X139855080Y-71425249D01*
X140103692Y-72476509D01*
X140103856Y-72481072D01*
X140103544Y-72482999D01*
X140099074Y-72490444D01*
X140097832Y-72491388D01*
X140094009Y-72493310D01*
X138447062Y-72970663D01*
X138442515Y-72971055D01*
X138439269Y-72970695D01*
X138432286Y-72967339D01*
X138303296Y-72838349D01*
X138300760Y-72834554D01*
X138299511Y-72831539D01*
X138299083Y-72823807D01*
X138776646Y-71176132D01*
X138778748Y-71172081D01*
X138779967Y-71170558D01*
X138787520Y-71166276D01*
X138787550Y-71166272D01*
X138789067Y-71166065D01*
X138793340Y-71166271D01*
G37*
G04 #@! TD.AperFunction*
G04 #@! TA.AperFunction,Conductor*
G36*
X116587233Y-71799488D02*
G01*
X117789654Y-72396774D01*
X117795538Y-72403522D01*
X117796148Y-72407251D01*
X117796148Y-72592748D01*
X117792721Y-72601021D01*
X117789653Y-72603226D01*
X116587233Y-73200511D01*
X116578299Y-73201123D01*
X116571739Y-73195603D01*
X116251033Y-72603226D01*
X116198162Y-72505568D01*
X116197238Y-72496663D01*
X116198161Y-72494434D01*
X116571739Y-71804395D01*
X116578691Y-71798752D01*
X116587233Y-71799488D01*
G37*
G04 #@! TD.AperFunction*
G04 #@! TA.AperFunction,Conductor*
G36*
X128263631Y-77771918D02*
G01*
X128269151Y-77778478D01*
X128697046Y-79051062D01*
X128696434Y-79059996D01*
X128694229Y-79063064D01*
X128563064Y-79194229D01*
X128554791Y-79197656D01*
X128551062Y-79197046D01*
X127278478Y-78769151D01*
X127271729Y-78763266D01*
X127270993Y-78754725D01*
X127494763Y-78002637D01*
X127500406Y-77995687D01*
X127502630Y-77994765D01*
X128254725Y-77770993D01*
X128263631Y-77771918D01*
G37*
G04 #@! TD.AperFunction*
G04 #@! TA.AperFunction,Conductor*
G36*
X90602185Y-75601727D02*
G01*
X90603493Y-75603284D01*
X90972572Y-76129836D01*
X90974514Y-76138578D01*
X90974040Y-76140401D01*
X90511049Y-77469286D01*
X90505091Y-77475971D01*
X90496151Y-77476486D01*
X90489466Y-77470528D01*
X90488951Y-77469286D01*
X90025959Y-76140401D01*
X90026474Y-76131461D01*
X90027427Y-76129836D01*
X90396507Y-75603284D01*
X90404062Y-75598477D01*
X90406088Y-75598300D01*
X90593912Y-75598300D01*
X90602185Y-75601727D01*
G37*
G04 #@! TD.AperFunction*
G04 #@! TA.AperFunction,Conductor*
G36*
X137719996Y-71183565D02*
G01*
X137723064Y-71185770D01*
X137854229Y-71316935D01*
X137857656Y-71325208D01*
X137857046Y-71328937D01*
X137429151Y-72601521D01*
X137423266Y-72608270D01*
X137414724Y-72609006D01*
X136662639Y-72385237D01*
X136655687Y-72379593D01*
X136654764Y-72377365D01*
X136430993Y-71625274D01*
X136431918Y-71616368D01*
X136438477Y-71610848D01*
X137711062Y-71182953D01*
X137719996Y-71183565D01*
G37*
G04 #@! TD.AperFunction*
G04 #@! TA.AperFunction,Conductor*
G36*
X149008292Y-66810133D02*
G01*
X149009512Y-66811193D01*
X149492702Y-67293419D01*
X149496137Y-67301688D01*
X149492718Y-67309965D01*
X149492702Y-67309981D01*
X149009512Y-67792206D01*
X149001235Y-67795625D01*
X148992966Y-67792190D01*
X148991912Y-67790977D01*
X148832371Y-67579454D01*
X148698300Y-67401699D01*
X148698299Y-67401698D01*
X148629739Y-67373301D01*
X148625943Y-67370765D01*
X148565143Y-67309965D01*
X148495642Y-67240463D01*
X148492216Y-67232192D01*
X148495642Y-67223920D01*
X148618405Y-67101157D01*
X148626677Y-67097731D01*
X148634950Y-67101158D01*
X148636591Y-67103219D01*
X148698299Y-67201699D01*
X148698300Y-67201700D01*
X148991908Y-66812427D01*
X148999624Y-66807887D01*
X149008292Y-66810133D01*
G37*
G04 #@! TD.AperFunction*
G04 #@! TA.AperFunction,Conductor*
G36*
X121140962Y-84460594D02*
G01*
X121143205Y-84463739D01*
X121670069Y-85544216D01*
X121670615Y-85553154D01*
X121665125Y-85559632D01*
X121045572Y-85895149D01*
X121036665Y-85896076D01*
X121034428Y-85895149D01*
X120414874Y-85559632D01*
X120409231Y-85552679D01*
X120409929Y-85544219D01*
X120936795Y-84463738D01*
X120943501Y-84457805D01*
X120947311Y-84457167D01*
X121132689Y-84457167D01*
X121140962Y-84460594D01*
G37*
G04 #@! TD.AperFunction*
G04 #@! TA.AperFunction,Conductor*
G36*
X145677085Y-65995035D02*
G01*
X145684037Y-66000678D01*
X145684964Y-66002915D01*
X145885809Y-66678251D01*
X145884882Y-66687158D01*
X145878404Y-66692648D01*
X144741840Y-67084111D01*
X144732902Y-67083565D01*
X144729757Y-67081322D01*
X144598677Y-66950242D01*
X144595250Y-66941969D01*
X144595888Y-66938159D01*
X144681706Y-66688997D01*
X144987352Y-65801593D01*
X144993285Y-65794889D01*
X145001746Y-65794190D01*
X145677085Y-65995035D01*
G37*
G04 #@! TD.AperFunction*
G04 #@! TA.AperFunction,Conductor*
G36*
X101918870Y-75244652D02*
G01*
X101922037Y-75246906D01*
X102053093Y-75377962D01*
X102056520Y-75386235D01*
X102055874Y-75390068D01*
X101673523Y-76492628D01*
X101667575Y-76499322D01*
X101659134Y-76500010D01*
X101634308Y-76492628D01*
X101002982Y-76304897D01*
X100996029Y-76299254D01*
X100995104Y-76297024D01*
X100799989Y-75640863D01*
X100800916Y-75631958D01*
X100807370Y-75626476D01*
X101909931Y-75244125D01*
X101918870Y-75244652D01*
G37*
G04 #@! TD.AperFunction*
G04 #@! TA.AperFunction,Conductor*
G36*
X114963556Y-67518271D02*
G01*
X114969777Y-67524492D01*
X115506251Y-68793498D01*
X115506316Y-68802453D01*
X115504529Y-68805463D01*
X115062511Y-69345709D01*
X115054620Y-69349942D01*
X115053456Y-69350000D01*
X114864544Y-69350000D01*
X114856271Y-69346573D01*
X114855489Y-69345709D01*
X114413470Y-68805463D01*
X114410883Y-68796890D01*
X114411746Y-68793502D01*
X114948223Y-67524491D01*
X114954601Y-67518206D01*
X114963556Y-67518271D01*
G37*
G04 #@! TD.AperFunction*
G04 #@! TA.AperFunction,Conductor*
G36*
X119187158Y-85688817D02*
G01*
X119192648Y-85695295D01*
X119584111Y-86831859D01*
X119583565Y-86840797D01*
X119581322Y-86843942D01*
X119450242Y-86975022D01*
X119441969Y-86978449D01*
X119438159Y-86977811D01*
X118301595Y-86586348D01*
X118294889Y-86580414D01*
X118294190Y-86571953D01*
X118495036Y-85896613D01*
X118500678Y-85889662D01*
X118502907Y-85888738D01*
X119178253Y-85687890D01*
X119187158Y-85688817D01*
G37*
G04 #@! TD.AperFunction*
G04 #@! TA.AperFunction,Conductor*
G36*
X146785274Y-84093293D02*
G01*
X146788701Y-84101566D01*
X146786410Y-84108521D01*
X146770911Y-84129488D01*
X146770911Y-84129489D01*
X148340117Y-84646061D01*
X148346904Y-84651903D01*
X148347572Y-84660832D01*
X148347273Y-84661641D01*
X148002562Y-85496215D01*
X147996236Y-85502553D01*
X147996215Y-85502562D01*
X147161641Y-85847273D01*
X147152686Y-85847264D01*
X147146360Y-85840926D01*
X147146061Y-85840117D01*
X146629489Y-84270910D01*
X146629487Y-84270905D01*
X146601091Y-84202351D01*
X146600200Y-84197874D01*
X146600200Y-84101566D01*
X146603627Y-84093293D01*
X146611900Y-84089866D01*
X146777001Y-84089866D01*
X146785274Y-84093293D01*
G37*
G04 #@! TD.AperFunction*
G04 #@! TA.AperFunction,Conductor*
G36*
X133263482Y-77771962D02*
G01*
X133269052Y-77778674D01*
X133670510Y-79029087D01*
X133670513Y-79029095D01*
X133698909Y-79097648D01*
X133699800Y-79102125D01*
X133699800Y-79128896D01*
X133696373Y-79137169D01*
X133688100Y-79140596D01*
X133516698Y-79140596D01*
X133519421Y-79147171D01*
X133519420Y-79156126D01*
X133513088Y-79162458D01*
X133505034Y-79162788D01*
X133399471Y-79128896D01*
X133073679Y-79024296D01*
X132278674Y-78769052D01*
X132271845Y-78763260D01*
X132271037Y-78754577D01*
X132494763Y-78002637D01*
X132500406Y-77995687D01*
X132502630Y-77994765D01*
X133254577Y-77771037D01*
X133263482Y-77771962D01*
G37*
G04 #@! TD.AperFunction*
G04 #@! TA.AperFunction,Conductor*
G36*
X82101565Y-73807126D02*
G01*
X82103389Y-73809488D01*
X82994412Y-75331568D01*
X82995634Y-75340439D01*
X82990784Y-75347228D01*
X82006469Y-76000406D01*
X81997681Y-76002125D01*
X81993531Y-76000406D01*
X81009215Y-75347228D01*
X81004216Y-75339798D01*
X81005586Y-75331569D01*
X81896611Y-73809487D01*
X81903748Y-73804080D01*
X81906708Y-73803699D01*
X82093292Y-73803699D01*
X82101565Y-73807126D01*
G37*
G04 #@! TD.AperFunction*
G04 #@! TA.AperFunction,Conductor*
G36*
X111600944Y-73986798D02*
G01*
X111603198Y-73989965D01*
X112112462Y-75039955D01*
X112112989Y-75048894D01*
X112107507Y-75055349D01*
X111505572Y-75381353D01*
X111496665Y-75382280D01*
X111494428Y-75381353D01*
X110892492Y-75055349D01*
X110886849Y-75048396D01*
X110887536Y-75039956D01*
X111396802Y-73989965D01*
X111403496Y-73984017D01*
X111407329Y-73983371D01*
X111592671Y-73983371D01*
X111600944Y-73986798D01*
G37*
G04 #@! TD.AperFunction*
G04 #@! TA.AperFunction,Conductor*
G36*
X115047483Y-76838475D02*
G01*
X115050910Y-76846748D01*
X115049461Y-76852387D01*
X115029711Y-76888288D01*
X115029711Y-76888289D01*
X116220884Y-77231182D01*
X116227886Y-77236763D01*
X116228890Y-77245662D01*
X116228861Y-77245762D01*
X116005237Y-77997360D01*
X115999593Y-78004312D01*
X115997360Y-78005237D01*
X115245762Y-78228861D01*
X115236855Y-78227936D01*
X115231211Y-78220984D01*
X115231182Y-78220884D01*
X114888289Y-77029711D01*
X114859891Y-76961151D01*
X114859000Y-76956674D01*
X114859000Y-76846748D01*
X114862427Y-76838475D01*
X114870700Y-76835048D01*
X115039210Y-76835048D01*
X115047483Y-76838475D01*
G37*
G04 #@! TD.AperFunction*
G04 #@! TA.AperFunction,Conductor*
G36*
X121005565Y-77998161D02*
G01*
X121547444Y-78291527D01*
X121695603Y-78371739D01*
X121701247Y-78378691D01*
X121700511Y-78387233D01*
X121103226Y-79589653D01*
X121096477Y-79595538D01*
X121092748Y-79596148D01*
X120907252Y-79596148D01*
X120898979Y-79592721D01*
X120896774Y-79589653D01*
X120299488Y-78387233D01*
X120298876Y-78378299D01*
X120304395Y-78371739D01*
X120994431Y-77998162D01*
X121003337Y-77997238D01*
X121005565Y-77998161D01*
G37*
G04 #@! TD.AperFunction*
G04 #@! TA.AperFunction,Conductor*
G36*
X127297656Y-72053303D02*
G01*
X127303981Y-72059642D01*
X127304166Y-72060120D01*
X127860635Y-73594753D01*
X127860234Y-73603698D01*
X127857909Y-73607014D01*
X127727014Y-73737909D01*
X127718741Y-73741336D01*
X127714753Y-73740635D01*
X126180120Y-73184166D01*
X126173510Y-73178124D01*
X126173109Y-73169179D01*
X126173277Y-73168743D01*
X126497438Y-72383783D01*
X126503759Y-72377448D01*
X127288703Y-72053294D01*
X127297656Y-72053303D01*
G37*
G04 #@! TD.AperFunction*
G04 #@! TA.AperFunction,Conductor*
G36*
X132337085Y-65995035D02*
G01*
X132344037Y-66000678D01*
X132344964Y-66002915D01*
X132545809Y-66678251D01*
X132544882Y-66687158D01*
X132538404Y-66692648D01*
X131401840Y-67084111D01*
X131392902Y-67083565D01*
X131389757Y-67081322D01*
X131258677Y-66950242D01*
X131255250Y-66941969D01*
X131255888Y-66938159D01*
X131341706Y-66688997D01*
X131647352Y-65801593D01*
X131653285Y-65794889D01*
X131661746Y-65794190D01*
X132337085Y-65995035D01*
G37*
G04 #@! TD.AperFunction*
G04 #@! TA.AperFunction,Conductor*
G36*
X125428810Y-67025447D02*
G01*
X126133752Y-67396709D01*
X126139475Y-67403596D01*
X126140000Y-67407061D01*
X126140000Y-67594455D01*
X126136573Y-67602728D01*
X126135709Y-67603510D01*
X125598188Y-68043300D01*
X125589615Y-68045887D01*
X125582513Y-68042526D01*
X125139182Y-67600000D01*
X125046397Y-67507384D01*
X125042964Y-67499115D01*
X125045507Y-67491822D01*
X125414204Y-67028514D01*
X125422037Y-67024175D01*
X125428810Y-67025447D01*
G37*
G04 #@! TD.AperFunction*
G04 #@! TA.AperFunction,Conductor*
G36*
X93005563Y-65498522D02*
G01*
X93494229Y-65763151D01*
X93629528Y-65836421D01*
X93635172Y-65843374D01*
X93634471Y-65851842D01*
X93103206Y-66939942D01*
X93096497Y-66945873D01*
X93092692Y-66946509D01*
X92907308Y-66946509D01*
X92899035Y-66943082D01*
X92896794Y-66939942D01*
X92365528Y-65851842D01*
X92364978Y-65842904D01*
X92370470Y-65836421D01*
X92994431Y-65498524D01*
X93003335Y-65497598D01*
X93005563Y-65498522D01*
G37*
G04 #@! TD.AperFunction*
G04 #@! TA.AperFunction,Conductor*
G36*
X152360973Y-84078630D02*
G01*
X152364400Y-84086903D01*
X152364400Y-84233274D01*
X152363509Y-84237751D01*
X152335113Y-84306302D01*
X152335108Y-84306315D01*
X151853824Y-85839893D01*
X151848077Y-85846761D01*
X151839158Y-85847553D01*
X151838194Y-85847204D01*
X151003784Y-85502562D01*
X150997446Y-85496236D01*
X150652795Y-84661805D01*
X150652804Y-84652850D01*
X150659142Y-84646524D01*
X150660098Y-84646177D01*
X152193689Y-84164889D01*
X152193688Y-84164887D01*
X152193689Y-84164887D01*
X152169407Y-84090535D01*
X152170096Y-84081607D01*
X152176897Y-84075781D01*
X152180529Y-84075203D01*
X152352700Y-84075203D01*
X152360973Y-84078630D01*
G37*
G04 #@! TD.AperFunction*
G04 #@! TA.AperFunction,Conductor*
G36*
X127497361Y-77994763D02*
G01*
X127504312Y-78000406D01*
X127505237Y-78002639D01*
X127729006Y-78754724D01*
X127728081Y-78763631D01*
X127721521Y-78769151D01*
X126448937Y-79197046D01*
X126440003Y-79196434D01*
X126436935Y-79194229D01*
X126305770Y-79063064D01*
X126302343Y-79054791D01*
X126302953Y-79051062D01*
X126658125Y-77994762D01*
X126730848Y-77778477D01*
X126736733Y-77771729D01*
X126745274Y-77770993D01*
X127497361Y-77994763D01*
G37*
G04 #@! TD.AperFunction*
G04 #@! TA.AperFunction,Conductor*
G36*
X133941840Y-64915888D02*
G01*
X133949938Y-64918677D01*
X135078405Y-65307352D01*
X135085110Y-65313285D01*
X135085809Y-65321748D01*
X134884964Y-65997084D01*
X134879321Y-66004037D01*
X134877084Y-66004964D01*
X134201748Y-66205809D01*
X134192841Y-66204882D01*
X134187352Y-66198405D01*
X133881706Y-65311003D01*
X133795888Y-65061840D01*
X133796434Y-65052902D01*
X133798674Y-65049760D01*
X133929758Y-64918676D01*
X133938030Y-64915250D01*
X133941840Y-64915888D01*
G37*
G04 #@! TD.AperFunction*
G04 #@! TA.AperFunction,Conductor*
G36*
X140752004Y-84071420D02*
G01*
X140876206Y-84195622D01*
X140879633Y-84203895D01*
X140876206Y-84212168D01*
X140875535Y-84212789D01*
X140600000Y-84448300D01*
X141074466Y-85017853D01*
X141077129Y-85026403D01*
X141075538Y-85031314D01*
X140510061Y-85984048D01*
X140502892Y-85989413D01*
X140494028Y-85988137D01*
X140489939Y-85984048D01*
X139924461Y-85031314D01*
X139923185Y-85022450D01*
X139925532Y-85017854D01*
X140400000Y-84448300D01*
X140428399Y-84379737D01*
X140430931Y-84375946D01*
X140735458Y-84071420D01*
X140743731Y-84067993D01*
X140752004Y-84071420D01*
G37*
G04 #@! TD.AperFunction*
G04 #@! TA.AperFunction,Conductor*
G36*
X131291051Y-77024937D02*
G01*
X132144621Y-77277980D01*
X132151578Y-77283616D01*
X132152755Y-77286840D01*
X132344331Y-78218855D01*
X132342640Y-78227649D01*
X132340323Y-78230231D01*
X131945084Y-78556786D01*
X131936524Y-78559413D01*
X131928612Y-78555218D01*
X131927446Y-78553523D01*
X131147329Y-77172119D01*
X131146246Y-77163233D01*
X131149243Y-77158098D01*
X131279460Y-77027881D01*
X131287732Y-77024455D01*
X131291051Y-77024937D01*
G37*
G04 #@! TD.AperFunction*
M02*
