M48
; DRILL file KiCad 10.0.5-71-g2cb2c974e9 date 2026-09-09T17:04:39
; FORMAT={-:-/ absolute / metric / decimal}
; #@! TF.CreationDate,2026-09-09T17:04:39-04:00
; #@! TF.GenerationSoftware,Kicad,Pcbnew,10.0.5-71-g2cb2c974e9
; #@! TF.FileFunction,Plated,1,2,PTH
FMAT,2
METRIC
; #@! TA.AperFunction,Plated,PTH,ComponentDrill
T1C0.500
; #@! TA.AperFunction,Plated,PTH,ComponentDrill
T2C0.700
; #@! TA.AperFunction,Plated,PTH,ComponentDrill
T3C0.750
; #@! TA.AperFunction,Plated,PTH,ComponentDrill
T4C0.800
; #@! TA.AperFunction,Plated,PTH,ComponentDrill
T5C0.950
; #@! TA.AperFunction,Plated,PTH,ComponentDrill
T6C1.100
; #@! TA.AperFunction,Plated,PTH,ComponentDrill
T7C1.200
; #@! TA.AperFunction,Plated,PTH,ComponentDrill
T8C1.500
%
G90
G05
T1
X149.5Y-65.302
X149.5Y-67.302
X151.5Y-65.302
X151.5Y-67.302
T2
X101.0Y-76.3
X108.62Y-76.3
X111.5Y-75.38
X111.5Y-83.0
X124.0Y-72.38
X124.0Y-80.0
X148.0Y-85.5
X151.0Y-85.5
T3
X114.959Y-67.5
X116.229Y-66.23
X117.499Y-67.5
X122.5Y-67.5
X123.77Y-66.23
X125.04Y-67.5
T4
X88.0Y-65.5
X93.0Y-65.5
X98.0Y-65.5
X102.54Y-70.5
X104.52Y-84.0
X106.52Y-84.0
X107.54Y-70.5
X115.96Y-85.894
X116.0Y-78.0
X116.2Y-72.5
X118.5Y-85.894
X121.0Y-78.0
X121.04Y-85.894
X121.2Y-72.5
X126.5Y-72.38
X127.46Y-85.894
X127.5Y-78.0
X129.8Y-66.0
X130.0Y-85.894
X132.34Y-66.0
X132.5Y-78.0
X132.54Y-85.894
X134.88Y-66.0
X136.66Y-72.38
X138.5Y-86.0
X140.5Y-86.0
X140.6Y-66.0
X142.5Y-86.0
X143.14Y-66.0
X145.68Y-66.0
T6
X139.85Y-71.42
X139.85Y-81.58
X143.5Y-71.42
X143.5Y-81.58
T7
X82.0Y-69.0
X82.0Y-72.5
X82.0Y-76.0
X82.0Y-79.5
X82.0Y-83.0
X149.5Y-72.5
X149.5Y-76.0
X149.5Y-79.5
T8
X136.4Y-86.0
X144.6Y-86.0
T3
X90.5Y-72.625G85X90.5Y-74.375
G05
X90.5Y-76.625G85X90.5Y-78.375
G05
X90.5Y-80.625G85X90.5Y-82.375
G05
X95.5Y-72.625G85X95.5Y-74.375
G05
X95.5Y-76.625G85X95.5Y-78.375
G05
X95.5Y-80.625G85X95.5Y-82.375
G05
T5
X86.85Y-86.4G85X88.65Y-86.4
G05
X92.1Y-86.4G85X93.9Y-86.4
G05
M30
