G04 #@! TF.GenerationSoftware,KiCad,Pcbnew,10.0.5-71-g2cb2c974e9*
G04 #@! TF.CreationDate,2026-09-16T22:04:22-04:00*
G04 #@! TF.ProjectId,Fury-Taur,46757279-2d54-4617-9572-2e6b69636164,rev?*
G04 #@! TF.SameCoordinates,Original*
G04 #@! TF.FileFunction,Copper,L2,Bot*
G04 #@! TF.FilePolarity,Positive*
%FSLAX46Y46*%
G04 Gerber Fmt 4.6, Leading zero omitted, Abs format (unit mm)*
G04 Created by KiCad (PCBNEW 10.0.5-71-g2cb2c974e9) date 2026-09-16 22:04:22*
%MOMM*%
%LPD*%
G01*
G04 APERTURE LIST*
G04 Aperture macros list*
%AMRoundRect*
0 Rectangle with rounded corners*
0 $1 Rounding radius*
0 $2 $3 $4 $5 $6 $7 $8 $9 X,Y pos of 4 corners*
0 Add a 4 corners polygon primitive as box body*
4,1,4,$2,$3,$4,$5,$6,$7,$8,$9,$2,$3,0*
0 Add four circle primitives for the rounded corners*
1,1,$1+$1,$2,$3*
1,1,$1+$1,$4,$5*
1,1,$1+$1,$6,$7*
1,1,$1+$1,$8,$9*
0 Add four rect primitives between the rounded corners*
20,1,$1+$1,$2,$3,$4,$5,0*
20,1,$1+$1,$4,$5,$6,$7,0*
20,1,$1+$1,$6,$7,$8,$9,0*
20,1,$1+$1,$8,$9,$2,$3,0*%
G04 Aperture macros list end*
G04 #@! TA.AperFunction,ComponentPad*
%ADD10C,1.440000*%
G04 #@! TD*
G04 #@! TA.AperFunction,ComponentPad*
%ADD11C,1.600000*%
G04 #@! TD*
G04 #@! TA.AperFunction,ComponentPad*
%ADD12C,2.400000*%
G04 #@! TD*
G04 #@! TA.AperFunction,ComponentPad*
%ADD13RoundRect,0.250001X-0.949999X0.949999X-0.949999X-0.949999X0.949999X-0.949999X0.949999X0.949999X0*%
G04 #@! TD*
G04 #@! TA.AperFunction,ComponentPad*
%ADD14RoundRect,0.250000X-0.600000X-0.600000X0.600000X-0.600000X0.600000X0.600000X-0.600000X0.600000X0*%
G04 #@! TD*
G04 #@! TA.AperFunction,ComponentPad*
%ADD15RoundRect,0.249999X-0.850001X-0.850001X0.850001X-0.850001X0.850001X0.850001X-0.850001X0.850001X0*%
G04 #@! TD*
G04 #@! TA.AperFunction,ComponentPad*
%ADD16C,2.200000*%
G04 #@! TD*
G04 #@! TA.AperFunction,ComponentPad*
%ADD17R,1.000000X1.000000*%
G04 #@! TD*
G04 #@! TA.AperFunction,ComponentPad*
%ADD18RoundRect,0.250000X0.550000X0.550000X-0.550000X0.550000X-0.550000X-0.550000X0.550000X-0.550000X0*%
G04 #@! TD*
G04 #@! TA.AperFunction,ComponentPad*
%ADD19R,1.100000X1.800000*%
G04 #@! TD*
G04 #@! TA.AperFunction,ComponentPad*
%ADD20RoundRect,0.275000X-0.275000X-0.625000X0.275000X-0.625000X0.275000X0.625000X-0.275000X0.625000X0*%
G04 #@! TD*
G04 #@! TA.AperFunction,ComponentPad*
%ADD21C,1.400000*%
G04 #@! TD*
G04 #@! TA.AperFunction,ComponentPad*
%ADD22C,1.450000*%
G04 #@! TD*
G04 #@! TA.AperFunction,ComponentPad*
%ADD23O,1.200000X3.200000*%
G04 #@! TD*
G04 #@! TA.AperFunction,ComponentPad*
%ADD24O,3.000000X1.200000*%
G04 #@! TD*
G04 #@! TA.AperFunction,ComponentPad*
%ADD25RoundRect,0.250001X0.949999X-0.949999X0.949999X0.949999X-0.949999X0.949999X-0.949999X-0.949999X0*%
G04 #@! TD*
G04 #@! TA.AperFunction,ComponentPad*
%ADD26RoundRect,0.249999X0.850001X-0.850001X0.850001X0.850001X-0.850001X0.850001X-0.850001X-0.850001X0*%
G04 #@! TD*
G04 #@! TA.AperFunction,ComponentPad*
%ADD27O,2.200000X3.500000*%
G04 #@! TD*
G04 #@! TA.AperFunction,ComponentPad*
%ADD28R,1.500000X2.500000*%
G04 #@! TD*
G04 #@! TA.AperFunction,ComponentPad*
%ADD29O,1.500000X2.500000*%
G04 #@! TD*
G04 #@! TA.AperFunction,ComponentPad*
%ADD30RoundRect,0.249999X-0.850001X0.850001X-0.850001X-0.850001X0.850001X-0.850001X0.850001X0.850001X0*%
G04 #@! TD*
G04 #@! TA.AperFunction,Conductor*
%ADD31C,0.200000*%
G04 #@! TD*
G04 APERTURE END LIST*
D10*
X134880000Y-66000000D03*
X132340000Y-66000000D03*
X129800000Y-66000000D03*
D11*
X103580000Y-78000000D03*
X108580000Y-78000000D03*
D12*
X82000000Y-83000000D03*
X82000000Y-79500000D03*
X82000000Y-76000000D03*
X82000000Y-72500000D03*
D13*
X82000000Y-69000000D03*
D14*
X151000000Y-85500000D03*
D10*
X145680000Y-66000000D03*
X143140000Y-66000000D03*
X140600000Y-66000000D03*
D15*
X126500000Y-72380000D03*
D16*
X136660000Y-72380000D03*
D11*
X132500000Y-78000000D03*
X127500000Y-78000000D03*
D17*
X151500000Y-65301700D03*
D18*
X107080000Y-84000000D03*
D11*
X105080000Y-84000000D03*
X121200000Y-72500000D03*
X116200000Y-72500000D03*
X108580000Y-70500000D03*
X103580000Y-70500000D03*
D17*
X151500000Y-67301700D03*
D11*
X121000000Y-78000000D03*
X116000000Y-78000000D03*
D19*
X122500000Y-67900000D03*
D20*
X123770000Y-65830000D03*
X125040000Y-67900000D03*
D17*
X149500000Y-65301700D03*
D21*
X102380000Y-73558600D03*
X110000000Y-73558600D03*
D14*
X148000000Y-85500000D03*
D21*
X112500000Y-81120000D03*
X112500000Y-73500000D03*
X124000000Y-72380000D03*
X124000000Y-80000000D03*
D22*
X88000000Y-65500000D03*
X93000000Y-65500000D03*
X98000000Y-65500000D03*
D23*
X90500000Y-73500000D03*
X90500000Y-77500000D03*
X90500000Y-81500000D03*
X95500000Y-73500000D03*
X95500000Y-77500000D03*
X95500000Y-81500000D03*
D24*
X87750000Y-86400000D03*
X93000000Y-86400000D03*
D25*
X149500000Y-79500000D03*
D12*
X149500000Y-76000000D03*
X149500000Y-72500000D03*
D10*
X121040000Y-85893700D03*
X118500000Y-85893700D03*
X115960000Y-85893700D03*
D26*
X139850000Y-81580000D03*
D16*
X139850000Y-71420000D03*
D27*
X144600000Y-86000000D03*
X136400000Y-86000000D03*
D28*
X142500000Y-86000000D03*
D29*
X140500000Y-86000000D03*
X138500000Y-86000000D03*
D10*
X132540000Y-85893700D03*
X130000000Y-85893700D03*
X127460000Y-85893700D03*
D19*
X114959000Y-67900000D03*
D20*
X116229000Y-65830000D03*
X117499000Y-67900000D03*
D17*
X149500000Y-67301700D03*
D30*
X143500000Y-71420000D03*
D16*
X143500000Y-81580000D03*
D31*
X122514400Y-64627200D02*
X125145300Y-64627200D01*
X112500000Y-73500000D02*
X113641600Y-73500000D01*
X133858000Y-67022000D02*
X134880000Y-66000000D01*
X127540100Y-67022000D02*
X133858000Y-67022000D01*
X113641600Y-73500000D02*
X122514400Y-64627200D01*
X125145300Y-64627200D02*
X127540100Y-67022000D01*
X151500000Y-65301700D02*
X150698300Y-65301700D01*
X150171500Y-64474300D02*
X133865700Y-64474300D01*
X150698300Y-65301700D02*
X150698300Y-65001100D01*
X150698300Y-65001100D02*
X150171500Y-64474300D01*
X133865700Y-64474300D02*
X132340000Y-66000000D01*
X106700000Y-81120000D02*
X103580000Y-78000000D01*
X112500000Y-81120000D02*
X106700000Y-81120000D01*
X108580000Y-78000000D02*
X108580000Y-73027300D01*
X114959000Y-67500000D02*
X114107300Y-67500000D01*
X108580000Y-73027300D02*
X114107300Y-67500000D01*
X115960000Y-85893700D02*
X115960000Y-78040000D01*
X82000000Y-72500000D02*
X82000000Y-76000000D01*
X88000000Y-65500000D02*
X85500000Y-65500000D01*
X85500000Y-65500000D02*
X82000000Y-69000000D01*
X152251700Y-84248300D02*
X152251700Y-78751700D01*
X152251700Y-78751700D02*
X149500000Y-76000000D01*
X151000000Y-85500000D02*
X152251700Y-84248300D01*
X132500000Y-85853700D02*
X132500000Y-78000000D01*
X128956400Y-86937300D02*
X122083600Y-86937300D01*
X121000000Y-78000000D02*
X126500000Y-72500000D01*
X118500000Y-85893700D02*
X117423600Y-86970100D01*
X122083600Y-86937300D02*
X121040000Y-85893700D01*
X117423600Y-86970100D02*
X110050100Y-86970100D01*
X110050100Y-86970100D02*
X107080000Y-84000000D01*
X121000000Y-85853700D02*
X121000000Y-78000000D01*
X130000000Y-85893700D02*
X128956400Y-86937300D01*
X145296200Y-64927900D02*
X144410000Y-65814100D01*
X148698300Y-67301700D02*
X146324500Y-64927900D01*
X146741000Y-84241000D02*
X148000000Y-85500000D01*
X148698300Y-67301700D02*
X146741000Y-69259000D01*
X144410000Y-65814100D02*
X144410000Y-66191000D01*
X146741000Y-69259000D02*
X146741000Y-84241000D01*
X144410000Y-66191000D02*
X141464600Y-69136400D01*
X141464600Y-69136400D02*
X139903600Y-69136400D01*
X146324500Y-64927900D02*
X145296200Y-64927900D01*
X139903600Y-69136400D02*
X136660000Y-72380000D01*
X149500000Y-67301700D02*
X148698300Y-67301700D01*
X127460000Y-85893700D02*
X127460000Y-78040000D01*
X122500000Y-67500000D02*
X123351700Y-67500000D01*
X127908800Y-77591200D02*
X127908800Y-71273900D01*
X122500000Y-67500000D02*
X121648300Y-67500000D01*
X126737800Y-70102900D02*
X125457200Y-70102900D01*
X127908800Y-71273900D02*
X126737800Y-70102900D01*
X125457200Y-70102900D02*
X123351700Y-67997400D01*
X123351700Y-67997400D02*
X123351700Y-67500000D01*
X121648300Y-67500000D02*
X116648300Y-72500000D01*
X102380000Y-73558600D02*
X105521400Y-73558600D01*
X105521400Y-73558600D02*
X108580000Y-70500000D01*
X90500000Y-77500000D02*
X90500000Y-75598300D01*
X93000000Y-73285200D02*
X90686900Y-75598300D01*
X93000000Y-65500000D02*
X93000000Y-73285200D01*
X90686900Y-75598300D02*
X90500000Y-75598300D01*
X138412500Y-84360800D02*
X138500000Y-84448300D01*
X138412500Y-72857500D02*
X138412500Y-84360800D01*
X138500000Y-86000000D02*
X138500000Y-84448300D01*
X139850000Y-71420000D02*
X138412500Y-72857500D01*
X140500000Y-84448300D02*
X142614100Y-84448300D01*
X145680000Y-81382400D02*
X145680000Y-66000000D01*
X142614100Y-84448300D02*
X145680000Y-81382400D01*
X140500000Y-86000000D02*
X140500000Y-84448300D01*
G04 #@! TA.AperFunction,Conductor*
G36*
X93005563Y-65498522D02*
G01*
X93494229Y-65763151D01*
X93629528Y-65836421D01*
X93635172Y-65843374D01*
X93634471Y-65851842D01*
X93103206Y-66939942D01*
X93096497Y-66945873D01*
X93092692Y-66946509D01*
X92907308Y-66946509D01*
X92899035Y-66943082D01*
X92896794Y-66939942D01*
X92365528Y-65851842D01*
X92364978Y-65842904D01*
X92370470Y-65836421D01*
X92994431Y-65498524D01*
X93003335Y-65497598D01*
X93005563Y-65498522D01*
G37*
G04 #@! TD.AperFunction*
G04 #@! TA.AperFunction,Conductor*
G36*
X132601195Y-84460594D02*
G01*
X132603285Y-84463436D01*
X133169488Y-85543810D01*
X133170293Y-85552728D01*
X133164556Y-85559604D01*
X133164436Y-85559666D01*
X132505663Y-85895281D01*
X132496736Y-85895983D01*
X132494497Y-85894986D01*
X131914179Y-85559589D01*
X131908731Y-85552482D01*
X131909369Y-85544647D01*
X132396892Y-84464055D01*
X132403418Y-84457924D01*
X132407557Y-84457167D01*
X132592922Y-84457167D01*
X132601195Y-84460594D01*
G37*
G04 #@! TD.AperFunction*
G04 #@! TA.AperFunction,Conductor*
G36*
X128007445Y-76519060D02*
G01*
X128010653Y-76525081D01*
X128297954Y-77989572D01*
X128296184Y-77998350D01*
X128289816Y-78003036D01*
X127918805Y-78113650D01*
X127909897Y-78112730D01*
X127904701Y-78107031D01*
X127859013Y-78000000D01*
X127519555Y-77204776D01*
X127519460Y-77195824D01*
X127519505Y-77195714D01*
X127805771Y-76522752D01*
X127812162Y-76516482D01*
X127816537Y-76515633D01*
X127999172Y-76515633D01*
X128007445Y-76519060D01*
G37*
G04 #@! TD.AperFunction*
G04 #@! TA.AperFunction,Conductor*
G36*
X151008292Y-64810133D02*
G01*
X151009512Y-64811193D01*
X151492702Y-65293419D01*
X151496137Y-65301688D01*
X151492718Y-65309965D01*
X151492702Y-65309981D01*
X151009512Y-65792206D01*
X151001235Y-65795625D01*
X150992966Y-65792190D01*
X150991912Y-65790977D01*
X150700659Y-65404827D01*
X150698300Y-65397782D01*
X150698300Y-65205617D01*
X150700659Y-65198572D01*
X150991908Y-64812427D01*
X150999624Y-64807887D01*
X151008292Y-64810133D01*
G37*
G04 #@! TD.AperFunction*
G04 #@! TA.AperFunction,Conductor*
G36*
X87663578Y-64870471D02*
G01*
X88001474Y-65494429D01*
X88002401Y-65503335D01*
X88001474Y-65505571D01*
X87663578Y-66129528D01*
X87656625Y-66135172D01*
X87648157Y-66134471D01*
X86560058Y-65603206D01*
X86554127Y-65596497D01*
X86553491Y-65592692D01*
X86553491Y-65407307D01*
X86556918Y-65399034D01*
X86560055Y-65396795D01*
X87648158Y-64865527D01*
X87657095Y-64864978D01*
X87663578Y-64870471D01*
G37*
G04 #@! TD.AperFunction*
G04 #@! TA.AperFunction,Conductor*
G36*
X83765146Y-67098341D02*
G01*
X83768403Y-67100638D01*
X83899361Y-67231596D01*
X83902788Y-67239869D01*
X83902109Y-67243796D01*
X83203321Y-69204888D01*
X83197316Y-69211531D01*
X83190252Y-69212480D01*
X82007334Y-69002136D01*
X81999788Y-68997314D01*
X81997863Y-68992665D01*
X81787519Y-67809746D01*
X81789444Y-67801001D01*
X81795110Y-67796677D01*
X83756203Y-67097890D01*
X83765146Y-67098341D01*
G37*
G04 #@! TD.AperFunction*
G04 #@! TA.AperFunction,Conductor*
G36*
X134203850Y-65794815D02*
G01*
X134874853Y-65994371D01*
X134878891Y-65996501D01*
X134881571Y-65998676D01*
X134885413Y-66004426D01*
X135085145Y-66676021D01*
X135085567Y-66680565D01*
X135085368Y-66682480D01*
X135081293Y-66690199D01*
X135080077Y-66691229D01*
X135076325Y-66693363D01*
X133944040Y-67083353D01*
X133939515Y-67083969D01*
X133936364Y-67083776D01*
X133928806Y-67080371D01*
X133800322Y-66951887D01*
X133797786Y-66948092D01*
X133796578Y-66945176D01*
X133796325Y-66936890D01*
X133881706Y-66688997D01*
X134186594Y-65803792D01*
X134188891Y-65799854D01*
X134190169Y-65798409D01*
X134197971Y-65794501D01*
X134199562Y-65794370D01*
X134203850Y-65794815D01*
G37*
G04 #@! TD.AperFunction*
G04 #@! TA.AperFunction,Conductor*
G36*
X82006466Y-72499591D02*
G01*
X82990784Y-73152770D01*
X82995783Y-73160200D01*
X82994412Y-73168430D01*
X82103389Y-74690512D01*
X82096252Y-74695920D01*
X82093292Y-74696301D01*
X81906708Y-74696301D01*
X81898435Y-74692874D01*
X81896611Y-74690512D01*
X81005587Y-73168430D01*
X81004365Y-73159559D01*
X81009213Y-73152772D01*
X81993532Y-72499592D01*
X82002319Y-72497874D01*
X82006466Y-72499591D01*
G37*
G04 #@! TD.AperFunction*
G04 #@! TA.AperFunction,Conductor*
G36*
X115965651Y-77998043D02*
G01*
X116694982Y-78371709D01*
X116700782Y-78378531D01*
X116700060Y-78387457D01*
X116699987Y-78387597D01*
X116063296Y-79589923D01*
X116056396Y-79595631D01*
X116052956Y-79596148D01*
X115867469Y-79596148D01*
X115859196Y-79592721D01*
X115856856Y-79589372D01*
X115298976Y-78386846D01*
X115298603Y-78377902D01*
X115303764Y-78371778D01*
X115954494Y-77998307D01*
X115963373Y-77997162D01*
X115965651Y-77998043D01*
G37*
G04 #@! TD.AperFunction*
G04 #@! TA.AperFunction,Conductor*
G36*
X102720043Y-72946136D02*
G01*
X103770036Y-73455402D01*
X103775983Y-73462095D01*
X103776629Y-73465928D01*
X103776629Y-73651271D01*
X103773202Y-73659544D01*
X103770035Y-73661798D01*
X102720044Y-74171062D01*
X102711105Y-74171589D01*
X102704650Y-74166107D01*
X102429788Y-73658600D01*
X102378645Y-73564170D01*
X102377719Y-73555265D01*
X102378643Y-73553033D01*
X102704650Y-72951091D01*
X102711603Y-72945449D01*
X102720043Y-72946136D01*
G37*
G04 #@! TD.AperFunction*
G04 #@! TA.AperFunction,Conductor*
G36*
X90602185Y-75601727D02*
G01*
X90603493Y-75603284D01*
X90972572Y-76129836D01*
X90974514Y-76138578D01*
X90974040Y-76140401D01*
X90511049Y-77469286D01*
X90505091Y-77475971D01*
X90496151Y-77476486D01*
X90489466Y-77470528D01*
X90488951Y-77469286D01*
X90025959Y-76140401D01*
X90026474Y-76131461D01*
X90027427Y-76129836D01*
X90396507Y-75603284D01*
X90404062Y-75598477D01*
X90406088Y-75598300D01*
X90593912Y-75598300D01*
X90602185Y-75601727D01*
G37*
G04 #@! TD.AperFunction*
G04 #@! TA.AperFunction,Conductor*
G36*
X144696617Y-66856130D02*
G01*
X144752550Y-66898002D01*
X144764738Y-66917964D01*
X145066955Y-67537740D01*
X145079500Y-67592088D01*
X145079500Y-69920940D01*
X145074476Y-69955878D01*
X145071289Y-69966731D01*
X145033514Y-70025508D01*
X144969957Y-70054531D01*
X144900807Y-70044590D01*
X144893829Y-70041403D01*
X144857657Y-70016289D01*
X144818657Y-69977289D01*
X144818656Y-69977288D01*
X144669335Y-69885186D01*
X144511266Y-69832807D01*
X144508440Y-69831639D01*
X144502797Y-69829999D01*
X144400026Y-69819500D01*
X144400017Y-69819500D01*
X144400010Y-69819500D01*
X142599990Y-69819500D01*
X142599982Y-69819500D01*
X142599974Y-69819500D01*
X142495496Y-69830174D01*
X142489913Y-69832416D01*
X142419983Y-69855589D01*
X142419982Y-69855589D01*
X142330684Y-69885178D01*
X142330666Y-69885185D01*
X142330664Y-69885186D01*
X142330662Y-69885187D01*
X142320481Y-69891467D01*
X142181340Y-69977290D01*
X142057290Y-70101340D01*
X141965184Y-70250666D01*
X141965180Y-70250679D01*
X141937349Y-70334669D01*
X141937349Y-70334670D01*
X141920299Y-70386122D01*
X141911852Y-70399067D01*
X141910364Y-70413634D01*
X141909542Y-70419876D01*
X141909359Y-70423475D01*
X141899500Y-70519972D01*
X141899500Y-72320024D01*
X141909999Y-72422794D01*
X141910000Y-72422796D01*
X141936874Y-72503896D01*
X141963521Y-72584312D01*
X141965185Y-72589332D01*
X141965187Y-72589337D01*
X141996926Y-72640793D01*
X142057288Y-72738656D01*
X142181344Y-72862712D01*
X142330665Y-72954814D01*
X142497202Y-73009999D01*
X142599990Y-73020500D01*
X142599995Y-73020500D01*
X144400005Y-73020500D01*
X144400010Y-73020500D01*
X144502798Y-73009999D01*
X144669335Y-72954814D01*
X144818656Y-72862712D01*
X144855213Y-72826154D01*
X144883457Y-72805009D01*
X144893391Y-72799585D01*
X144961661Y-72784732D01*
X145027126Y-72809146D01*
X145068999Y-72865078D01*
X145070242Y-72868410D01*
X145071682Y-72872270D01*
X145079500Y-72915604D01*
X145079500Y-80632449D01*
X145074476Y-80667387D01*
X145071289Y-80678240D01*
X145033514Y-80737017D01*
X144969957Y-80766040D01*
X144900799Y-80756095D01*
X144897981Y-80754808D01*
X144849178Y-80714902D01*
X144823840Y-80680028D01*
X144817932Y-80671896D01*
X144808391Y-80645157D01*
X144794249Y-80639299D01*
X144146305Y-81287246D01*
X144084982Y-81320731D01*
X144015291Y-81315747D01*
X143959357Y-81273876D01*
X143951236Y-81261563D01*
X143940112Y-81242295D01*
X143940111Y-81242293D01*
X143940110Y-81242292D01*
X143837708Y-81139890D01*
X143837707Y-81139889D01*
X143826091Y-81133183D01*
X143818432Y-81128761D01*
X143770217Y-81078195D01*
X143756993Y-81009588D01*
X143782961Y-80944723D01*
X143792751Y-80933693D01*
X143887559Y-80838886D01*
X144440698Y-80285748D01*
X144338583Y-80211557D01*
X144282355Y-80182907D01*
X144114184Y-80097218D01*
X144114181Y-80097217D01*
X143874670Y-80019397D01*
X143692184Y-79990494D01*
X143625928Y-79980000D01*
X143625927Y-79980000D01*
X143374073Y-79980000D01*
X143374072Y-79980000D01*
X143324579Y-79987839D01*
X143125328Y-80019397D01*
X142885817Y-80097217D01*
X142885804Y-80097223D01*
X142661418Y-80211555D01*
X142559300Y-80285747D01*
X142559300Y-80285748D01*
X143207246Y-80933694D01*
X143240731Y-80995017D01*
X143235747Y-81064708D01*
X143193876Y-81120642D01*
X143181566Y-81128762D01*
X143162293Y-81139889D01*
X143162292Y-81139890D01*
X143059891Y-81242290D01*
X143059889Y-81242293D01*
X143048762Y-81261566D01*
X142998194Y-81309781D01*
X142929587Y-81323003D01*
X142864722Y-81297035D01*
X142853694Y-81287246D01*
X142205749Y-80639300D01*
X142205748Y-80639300D01*
X142205747Y-80639301D01*
X142197771Y-80650279D01*
X142131555Y-80741418D01*
X142017223Y-80965804D01*
X142017217Y-80965817D01*
X141939397Y-81205328D01*
X141900000Y-81454071D01*
X141900000Y-81705927D01*
X141939397Y-81954670D01*
X142017217Y-82194181D01*
X142017218Y-82194184D01*
X142085462Y-82328118D01*
X142131557Y-82418583D01*
X142182066Y-82488102D01*
X142191606Y-82514840D01*
X142205748Y-82520698D01*
X142853695Y-81872749D01*
X142915016Y-81839266D01*
X142984707Y-81844250D01*
X143040641Y-81886121D01*
X143048759Y-81898429D01*
X143059890Y-81917708D01*
X143162292Y-82020110D01*
X143162293Y-82020111D01*
X143162295Y-82020112D01*
X143181563Y-82031236D01*
X143229780Y-82081802D01*
X143243004Y-82150409D01*
X143217037Y-82215274D01*
X143207246Y-82226305D01*
X142559299Y-82874249D01*
X142559300Y-82874249D01*
X142559300Y-82874250D01*
X142661416Y-82948442D01*
X142885812Y-83062779D01*
X142885815Y-83062780D01*
X142885816Y-83062780D01*
X142889943Y-83064883D01*
X142889792Y-83065177D01*
X142906042Y-83074013D01*
X142910098Y-83076786D01*
X142919226Y-83083027D01*
X142963456Y-83137115D01*
X142971425Y-83206515D01*
X142970857Y-83209800D01*
X142949501Y-83260847D01*
X142948350Y-83262455D01*
X142935200Y-83277962D01*
X142414291Y-83798873D01*
X142386040Y-83820022D01*
X142362952Y-83832630D01*
X142303522Y-83847800D01*
X140420943Y-83847800D01*
X140268218Y-83888722D01*
X140268211Y-83888724D01*
X140268210Y-83888725D01*
X140268200Y-83888730D01*
X140131298Y-83967770D01*
X140131294Y-83967772D01*
X140131290Y-83967775D01*
X140131282Y-83967781D01*
X140131278Y-83967784D01*
X140131276Y-83967785D01*
X140019485Y-84079576D01*
X140019482Y-84079580D01*
X140019480Y-84079582D01*
X140019470Y-84079597D01*
X139957604Y-84186753D01*
X139945490Y-84204120D01*
X139595271Y-84624525D01*
X139537237Y-84663434D01*
X139467381Y-84664791D01*
X139407880Y-84628166D01*
X139404725Y-84624525D01*
X139398695Y-84617287D01*
X139224044Y-84407634D01*
X139166609Y-84338688D01*
X139054508Y-84204121D01*
X139042403Y-84186770D01*
X139037774Y-84178751D01*
X139025388Y-84148850D01*
X139017223Y-84118379D01*
X139013000Y-84086290D01*
X139013000Y-83321828D01*
X139018023Y-83286892D01*
X139022427Y-83271894D01*
X139060172Y-83213143D01*
X139061541Y-83211956D01*
X139116420Y-83184476D01*
X139123979Y-83182832D01*
X139150332Y-83179999D01*
X139600000Y-83179999D01*
X139600000Y-82244014D01*
X139619685Y-82176975D01*
X139672489Y-82131220D01*
X139741647Y-82121276D01*
X139756080Y-82124236D01*
X139777591Y-82130000D01*
X139922406Y-82130000D01*
X139922409Y-82130000D01*
X139943908Y-82124239D01*
X140013755Y-82125902D01*
X140071618Y-82165064D01*
X140099123Y-82229292D01*
X140100000Y-82244014D01*
X140100000Y-83179999D01*
X140749960Y-83179999D01*
X140749972Y-83179999D01*
X140749986Y-83179998D01*
X140846412Y-83170147D01*
X140849781Y-83169975D01*
X140852690Y-83169505D01*
X140852696Y-83169505D01*
X140852698Y-83169505D01*
X141019119Y-83114359D01*
X141019130Y-83114354D01*
X141168340Y-83022319D01*
X141168344Y-83022316D01*
X141292316Y-82898344D01*
X141292319Y-82898340D01*
X141298339Y-82888581D01*
X141317642Y-82857285D01*
X141384354Y-82749130D01*
X141384359Y-82749119D01*
X141393098Y-82722748D01*
X141411366Y-82667616D01*
X141439505Y-82582697D01*
X141449999Y-82479986D01*
X141450000Y-82479973D01*
X141450000Y-81830000D01*
X140514014Y-81830000D01*
X140446975Y-81810315D01*
X140401220Y-81757511D01*
X140391276Y-81688353D01*
X140394236Y-81673919D01*
X140400000Y-81652409D01*
X140400000Y-81507591D01*
X140394239Y-81486091D01*
X140395902Y-81416245D01*
X140435064Y-81358382D01*
X140499292Y-81330877D01*
X140514014Y-81330000D01*
X141449999Y-81330000D01*
X141449999Y-80680032D01*
X141449999Y-80680028D01*
X141449998Y-80680013D01*
X141440147Y-80583587D01*
X141439975Y-80580217D01*
X141439505Y-80577303D01*
X141439505Y-80577301D01*
X141384359Y-80410880D01*
X141384357Y-80410875D01*
X141380239Y-80404199D01*
X141380228Y-80404179D01*
X141292329Y-80261674D01*
X141292324Y-80261667D01*
X141292319Y-80261659D01*
X141292316Y-80261655D01*
X141292313Y-80261652D01*
X141292311Y-80261649D01*
X141168349Y-80137687D01*
X141168346Y-80137685D01*
X141168344Y-80137683D01*
X141168340Y-80137680D01*
X141168334Y-80137676D01*
X141168324Y-80137669D01*
X141040961Y-80059111D01*
X141019130Y-80045645D01*
X141019128Y-80045644D01*
X141019114Y-80045637D01*
X140852695Y-79990493D01*
X140749991Y-79980000D01*
X140749986Y-79980000D01*
X140100000Y-79980000D01*
X140100000Y-80915985D01*
X140080315Y-80983024D01*
X140027511Y-81028779D01*
X139958353Y-81038723D01*
X139943909Y-81035761D01*
X139937695Y-81034096D01*
X139922409Y-81030000D01*
X139922407Y-81030000D01*
X139777593Y-81030000D01*
X139777591Y-81030000D01*
X139756091Y-81035761D01*
X139686241Y-81034096D01*
X139628379Y-80994932D01*
X139600877Y-80930703D01*
X139600000Y-80915985D01*
X139600000Y-79980000D01*
X139154830Y-79980000D01*
X139119889Y-79974975D01*
X139104890Y-79970570D01*
X139046144Y-79932827D01*
X139044957Y-79931458D01*
X139017477Y-79876583D01*
X139015832Y-79869021D01*
X139013000Y-79842668D01*
X139013000Y-73403656D01*
X139032685Y-73336617D01*
X139085489Y-73290862D01*
X139104658Y-73283947D01*
X140227679Y-72980569D01*
X140271607Y-72966523D01*
X140271622Y-72966514D01*
X140272807Y-72966009D01*
X140283191Y-72962112D01*
X140464379Y-72903241D01*
X140688845Y-72788870D01*
X140892656Y-72640793D01*
X141070793Y-72462656D01*
X141218870Y-72258845D01*
X141333241Y-72034379D01*
X141411090Y-71794785D01*
X141450500Y-71545962D01*
X141450500Y-71294038D01*
X141411090Y-71045215D01*
X141411089Y-71045211D01*
X141411089Y-71045210D01*
X141334743Y-70810243D01*
X141333680Y-70806477D01*
X141332683Y-70804469D01*
X141330891Y-70800770D01*
X141329953Y-70799167D01*
X141324255Y-70787985D01*
X141279679Y-70700499D01*
X141218870Y-70581155D01*
X141174425Y-70519982D01*
X141174425Y-70519981D01*
X141070812Y-70377369D01*
X141070794Y-70377345D01*
X141070786Y-70377336D01*
X140892660Y-70199210D01*
X140892655Y-70199206D01*
X140892654Y-70199205D01*
X140892649Y-70199201D01*
X140696743Y-70056868D01*
X140696402Y-70056577D01*
X140688838Y-70051124D01*
X140688474Y-70050941D01*
X140548221Y-69979478D01*
X140519378Y-69959146D01*
X140515918Y-69955878D01*
X140511606Y-69951806D01*
X140476384Y-69891467D01*
X140479374Y-69821661D01*
X140519630Y-69764553D01*
X140573003Y-69739951D01*
X140576878Y-69739195D01*
X140600622Y-69736900D01*
X141375980Y-69736900D01*
X141376043Y-69736901D01*
X141377947Y-69736901D01*
X141385543Y-69736901D01*
X141543654Y-69736901D01*
X141543657Y-69736901D01*
X141696385Y-69695977D01*
X141771202Y-69652781D01*
X141833316Y-69616920D01*
X141945120Y-69505116D01*
X141945120Y-69505115D01*
X141962556Y-69487679D01*
X141962560Y-69487672D01*
X144565604Y-66884629D01*
X144626925Y-66851146D01*
X144696617Y-66856130D01*
G37*
G04 #@! TD.AperFunction*
G04 #@! TA.AperFunction,Conductor*
G36*
X116135080Y-66593062D02*
G01*
X116179630Y-66605000D01*
X116278368Y-66605000D01*
X116278370Y-66605000D01*
X116322907Y-66593066D01*
X116392754Y-66594727D01*
X116450618Y-66633889D01*
X116478123Y-66698117D01*
X116479000Y-66712840D01*
X116479000Y-67024543D01*
X116477248Y-67045312D01*
X116474754Y-67059994D01*
X116473794Y-67065643D01*
X116468589Y-67085821D01*
X116466706Y-67091204D01*
X116463157Y-67101346D01*
X116463156Y-67101349D01*
X116448500Y-67231434D01*
X116448500Y-68568564D01*
X116463154Y-68698629D01*
X116463157Y-68698652D01*
X116463158Y-68698656D01*
X116463159Y-68698659D01*
X116502556Y-68811247D01*
X116515376Y-68847883D01*
X116520878Y-68863606D01*
X116613853Y-69011576D01*
X116737424Y-69135147D01*
X116773074Y-69157547D01*
X116848473Y-69204923D01*
X116875379Y-69227760D01*
X116884575Y-69238156D01*
X116914248Y-69301412D01*
X116905012Y-69370668D01*
X116905010Y-69370674D01*
X116901018Y-69379656D01*
X116875386Y-69416976D01*
X113620518Y-72671844D01*
X113559195Y-72705329D01*
X113489503Y-72700345D01*
X113466193Y-72688731D01*
X113140025Y-72480823D01*
X113133803Y-72476585D01*
X113129204Y-72473243D01*
X113129190Y-72473235D01*
X113129170Y-72473225D01*
X113118820Y-72467307D01*
X113112244Y-72463115D01*
X113096831Y-72453675D01*
X113096058Y-72453221D01*
X113096047Y-72453215D01*
X113031719Y-72421310D01*
X113025494Y-72419014D01*
X113025698Y-72418459D01*
X113010490Y-72412754D01*
X112960840Y-72387455D01*
X112917722Y-72373445D01*
X112781118Y-72329059D01*
X112780771Y-72329004D01*
X112594491Y-72299500D01*
X112594486Y-72299500D01*
X112594481Y-72299500D01*
X112405519Y-72299500D01*
X112405514Y-72299500D01*
X112405509Y-72299500D01*
X112218886Y-72329058D01*
X112218884Y-72329058D01*
X112218881Y-72329059D01*
X112039163Y-72387454D01*
X111988275Y-72413383D01*
X111870800Y-72473239D01*
X111825763Y-72505962D01*
X111729798Y-72575685D01*
X111722417Y-72579818D01*
X111579818Y-72722417D01*
X111575691Y-72729788D01*
X111569255Y-72738648D01*
X111569249Y-72738657D01*
X111473239Y-72870800D01*
X111387453Y-73039162D01*
X111363656Y-73112402D01*
X111348087Y-73144069D01*
X111341703Y-73153406D01*
X111287615Y-73197637D01*
X111218202Y-73205604D01*
X111155506Y-73174783D01*
X111153220Y-73172685D01*
X111119129Y-73119642D01*
X111118839Y-73118751D01*
X111112085Y-73097962D01*
X111026329Y-72929659D01*
X111026141Y-72929400D01*
X111007886Y-72904273D01*
X111007882Y-72904269D01*
X111007881Y-72904269D01*
X110499895Y-73412256D01*
X110438572Y-73445741D01*
X110368881Y-73440757D01*
X110312947Y-73398886D01*
X110304827Y-73386575D01*
X110280072Y-73343698D01*
X110280068Y-73343693D01*
X110214906Y-73278531D01*
X110214905Y-73278530D01*
X110172021Y-73253771D01*
X110123806Y-73203205D01*
X110110582Y-73134598D01*
X110136550Y-73069733D01*
X110146332Y-73058711D01*
X110654328Y-72550716D01*
X110628933Y-72532266D01*
X110577309Y-72505962D01*
X110460640Y-72446515D01*
X110383067Y-72421310D01*
X110329925Y-72404043D01*
X110298253Y-72388470D01*
X110296767Y-72387454D01*
X110286797Y-72380636D01*
X110242571Y-72326548D01*
X110234604Y-72257154D01*
X110235173Y-72253863D01*
X110256523Y-72202823D01*
X110257673Y-72201215D01*
X110270816Y-72185717D01*
X113684217Y-68772316D01*
X113712462Y-68751171D01*
X113722394Y-68745748D01*
X113790664Y-68730897D01*
X113856129Y-68755313D01*
X113898000Y-68811247D01*
X113898002Y-68811252D01*
X113901778Y-68821377D01*
X113908885Y-68851453D01*
X113914907Y-68907482D01*
X113942690Y-68981971D01*
X113965202Y-69042328D01*
X113965203Y-69042330D01*
X113965204Y-69042332D01*
X113965205Y-69042333D01*
X114051450Y-69157542D01*
X114051452Y-69157544D01*
X114051455Y-69157547D01*
X114166664Y-69243793D01*
X114166671Y-69243797D01*
X114216150Y-69262251D01*
X114251501Y-69288714D01*
X114301516Y-69294091D01*
X114307925Y-69294780D01*
X114361127Y-69300500D01*
X115556872Y-69300499D01*
X115616483Y-69294091D01*
X115751331Y-69243796D01*
X115866546Y-69157546D01*
X115952796Y-69042331D01*
X116003091Y-68907483D01*
X116009500Y-68847873D01*
X116009499Y-66952128D01*
X116003091Y-66892517D01*
X116001133Y-66887270D01*
X116001133Y-66887259D01*
X116001131Y-66887260D01*
X115990695Y-66859279D01*
X115984847Y-66837961D01*
X115980970Y-66816470D01*
X115979000Y-66794456D01*
X115979000Y-66712840D01*
X115998685Y-66645801D01*
X116051489Y-66600046D01*
X116120647Y-66590102D01*
X116135080Y-66593062D01*
G37*
G04 #@! TD.AperFunction*
G04 #@! TA.AperFunction,Conductor*
G36*
X152296492Y-63000693D02*
G01*
X152303470Y-63001086D01*
X152310349Y-63001666D01*
X152323878Y-63003190D01*
X152383379Y-63009893D01*
X152405167Y-63014866D01*
X152415785Y-63016615D01*
X152436585Y-63021924D01*
X152496969Y-63043052D01*
X152503860Y-63047293D01*
X152509816Y-63048373D01*
X152522290Y-63054381D01*
X152534440Y-63061097D01*
X152593711Y-63098339D01*
X152605048Y-63106383D01*
X152615874Y-63115017D01*
X152619546Y-63119204D01*
X152622413Y-63120614D01*
X152626235Y-63124277D01*
X152675715Y-63173757D01*
X152684980Y-63184124D01*
X152693616Y-63194953D01*
X152701663Y-63206294D01*
X152738896Y-63265549D01*
X152745627Y-63277729D01*
X152751632Y-63290201D01*
X152756949Y-63303039D01*
X152780060Y-63369085D01*
X152783911Y-63382450D01*
X152786992Y-63395950D01*
X152789320Y-63409657D01*
X152798035Y-63487011D01*
X152798036Y-63487011D01*
X152798329Y-63489609D01*
X152798915Y-63496547D01*
X152799305Y-63503485D01*
X152799500Y-63510444D01*
X152799500Y-78133073D01*
X152794476Y-78168011D01*
X152791289Y-78178864D01*
X152753514Y-78237641D01*
X152689957Y-78266664D01*
X152620807Y-78256723D01*
X152613829Y-78253536D01*
X152577657Y-78228422D01*
X151604382Y-77255147D01*
X151572097Y-77198838D01*
X151164861Y-75641601D01*
X151162046Y-75632348D01*
X151160909Y-75628370D01*
X151113710Y-75452219D01*
X151028405Y-75246274D01*
X150916948Y-75053226D01*
X150781247Y-74876376D01*
X150781242Y-74876370D01*
X150623629Y-74718757D01*
X150623622Y-74718751D01*
X150623612Y-74718743D01*
X150623603Y-74718736D01*
X150448754Y-74584571D01*
X150446873Y-74583067D01*
X150445486Y-74582233D01*
X150443589Y-74581212D01*
X150255866Y-74472830D01*
X150255862Y-74472828D01*
X150253726Y-74471595D01*
X150253724Y-74471594D01*
X150253722Y-74471593D01*
X150047790Y-74386293D01*
X150047783Y-74386291D01*
X150047784Y-74386291D01*
X150047781Y-74386290D01*
X150042624Y-74384908D01*
X150042619Y-74384906D01*
X150002394Y-74374127D01*
X149969960Y-74360239D01*
X149960305Y-74354355D01*
X149913303Y-74302659D01*
X149901711Y-74233757D01*
X149929145Y-74169606D01*
X149929536Y-74169131D01*
X149973701Y-74135208D01*
X149973917Y-74135108D01*
X149975752Y-74134270D01*
X149995174Y-74127287D01*
X150047617Y-74113236D01*
X150253502Y-74027954D01*
X150253514Y-74027949D01*
X150446498Y-73916530D01*
X150512403Y-73865957D01*
X150512404Y-73865956D01*
X150512403Y-73865955D01*
X150512404Y-73865955D01*
X149829354Y-73182907D01*
X149795869Y-73121584D01*
X149800853Y-73051893D01*
X149842724Y-72995959D01*
X149855022Y-72987846D01*
X149868408Y-72980119D01*
X149980119Y-72868408D01*
X149987839Y-72855035D01*
X150038402Y-72806821D01*
X150107009Y-72793596D01*
X150171875Y-72819562D01*
X150182907Y-72829354D01*
X150865955Y-73512404D01*
X150865955Y-73512403D01*
X150865956Y-73512404D01*
X150865957Y-73512403D01*
X150916530Y-73446498D01*
X151027949Y-73253514D01*
X151027954Y-73253502D01*
X151113236Y-73047618D01*
X151170911Y-72832367D01*
X151170914Y-72832354D01*
X151200000Y-72611424D01*
X151200000Y-72388575D01*
X151170914Y-72167645D01*
X151170911Y-72167632D01*
X151170888Y-72167547D01*
X151131757Y-72021504D01*
X151113236Y-71952381D01*
X151027954Y-71746497D01*
X151027949Y-71746485D01*
X150919573Y-71558772D01*
X150916532Y-71553505D01*
X150865957Y-71487595D01*
X150865956Y-71487595D01*
X150865955Y-71487595D01*
X150865954Y-71487595D01*
X150182906Y-72170643D01*
X150121583Y-72204128D01*
X150051891Y-72199144D01*
X149995958Y-72157272D01*
X149987838Y-72144961D01*
X149980122Y-72131598D01*
X149980119Y-72131592D01*
X149868408Y-72019881D01*
X149861586Y-72015942D01*
X149855032Y-72012158D01*
X149806817Y-71961590D01*
X149793596Y-71892983D01*
X149819565Y-71828118D01*
X149829343Y-71817101D01*
X150512403Y-71134043D01*
X150512403Y-71134040D01*
X150446504Y-71083473D01*
X150446491Y-71083464D01*
X150253520Y-70972054D01*
X150253508Y-70972047D01*
X150146866Y-70927874D01*
X150047618Y-70886763D01*
X150047611Y-70886761D01*
X149832382Y-70829091D01*
X149832367Y-70829088D01*
X149832354Y-70829085D01*
X149832350Y-70829084D01*
X149832344Y-70829083D01*
X149611426Y-70800000D01*
X149611425Y-70800000D01*
X149388575Y-70800000D01*
X149388574Y-70800000D01*
X149167654Y-70829083D01*
X149167641Y-70829086D01*
X149167616Y-70829091D01*
X148952387Y-70886761D01*
X148952383Y-70886762D01*
X148952381Y-70886763D01*
X148928713Y-70896567D01*
X148746490Y-70972047D01*
X148746471Y-70972058D01*
X148553508Y-71083463D01*
X148487595Y-71134040D01*
X148487595Y-71134043D01*
X149170645Y-71817092D01*
X149204130Y-71878415D01*
X149199146Y-71948106D01*
X149157274Y-72004040D01*
X149144967Y-72012159D01*
X149131592Y-72019881D01*
X149131589Y-72019883D01*
X149019883Y-72131589D01*
X149019883Y-72131590D01*
X149019881Y-72131592D01*
X149019878Y-72131598D01*
X149012159Y-72144967D01*
X148961590Y-72193181D01*
X148892983Y-72206402D01*
X148828119Y-72180433D01*
X148817092Y-72170645D01*
X148134043Y-71487595D01*
X148134040Y-71487595D01*
X148083463Y-71553508D01*
X147972065Y-71746459D01*
X147972047Y-71746490D01*
X147919649Y-71872989D01*
X147886839Y-71952199D01*
X147886764Y-71952379D01*
X147886761Y-71952387D01*
X147829091Y-72167616D01*
X147829086Y-72167641D01*
X147829083Y-72167654D01*
X147800000Y-72388574D01*
X147800000Y-72611424D01*
X147829083Y-72832344D01*
X147829086Y-72832357D01*
X147829091Y-72832382D01*
X147886761Y-73047611D01*
X147886763Y-73047618D01*
X147921058Y-73130411D01*
X147972047Y-73253508D01*
X147972058Y-73253527D01*
X148083464Y-73446491D01*
X148083478Y-73446511D01*
X148134039Y-73512402D01*
X148134040Y-73512403D01*
X148134043Y-73512403D01*
X148817094Y-72829351D01*
X148878415Y-72795868D01*
X148948106Y-72800852D01*
X149004040Y-72842723D01*
X149012157Y-72855031D01*
X149019881Y-72868408D01*
X149131592Y-72980119D01*
X149144964Y-72987839D01*
X149193179Y-73038407D01*
X149206401Y-73107014D01*
X149180433Y-73171879D01*
X149170644Y-73182907D01*
X148487595Y-73865954D01*
X148487595Y-73865957D01*
X148553505Y-73916532D01*
X148553507Y-73916533D01*
X148746485Y-74027949D01*
X148746497Y-74027954D01*
X148952383Y-74113236D01*
X148997603Y-74125352D01*
X149030041Y-74139244D01*
X149039705Y-74145134D01*
X149086701Y-74196835D01*
X149098286Y-74265738D01*
X149070780Y-74329965D01*
X149070754Y-74329997D01*
X149070364Y-74330469D01*
X149026271Y-74364285D01*
X149024223Y-74365220D01*
X149004822Y-74372194D01*
X148967986Y-74382064D01*
X148959820Y-74383139D01*
X148955494Y-74384932D01*
X148955486Y-74384934D01*
X148955487Y-74384935D01*
X148746272Y-74471594D01*
X148553237Y-74583044D01*
X148553212Y-74583061D01*
X148553210Y-74583062D01*
X148376395Y-74718736D01*
X148376379Y-74718749D01*
X148376377Y-74718751D01*
X148376370Y-74718757D01*
X148376366Y-74718760D01*
X148376361Y-74718765D01*
X148218765Y-74876361D01*
X148218758Y-74876369D01*
X148218749Y-74876379D01*
X148218736Y-74876395D01*
X148083062Y-75053210D01*
X148083061Y-75053212D01*
X148083044Y-75053237D01*
X147971595Y-75246272D01*
X147886297Y-75452199D01*
X147886288Y-75452222D01*
X147846608Y-75600316D01*
X147828594Y-75667544D01*
X147828592Y-75667556D01*
X147799503Y-75888516D01*
X147799500Y-75888541D01*
X147799500Y-76111457D01*
X147799503Y-76111482D01*
X147828594Y-76332454D01*
X147828708Y-76333146D01*
X147829443Y-76335624D01*
X147886289Y-76547779D01*
X147886297Y-76547799D01*
X147962397Y-76731521D01*
X147971593Y-76753722D01*
X147971600Y-76753736D01*
X148081212Y-76943589D01*
X148082233Y-76945486D01*
X148083067Y-76946873D01*
X148084571Y-76948754D01*
X148130052Y-77008027D01*
X148218751Y-77123622D01*
X148218757Y-77123629D01*
X148376370Y-77281242D01*
X148376377Y-77281248D01*
X148424775Y-77318385D01*
X148424781Y-77318389D01*
X148424782Y-77318390D01*
X148553215Y-77416940D01*
X148553217Y-77416941D01*
X148553226Y-77416948D01*
X148698419Y-77500776D01*
X148745415Y-77527909D01*
X148746408Y-77528493D01*
X148748004Y-77529183D01*
X148748450Y-77529383D01*
X148750321Y-77530082D01*
X148808346Y-77554116D01*
X148838689Y-77572118D01*
X148845698Y-77577766D01*
X148885549Y-77635154D01*
X148888047Y-77704979D01*
X148852399Y-77765070D01*
X148796431Y-77794993D01*
X148791445Y-77796172D01*
X148762911Y-77799500D01*
X148499974Y-77799500D01*
X148395495Y-77810174D01*
X148389915Y-77812415D01*
X148230667Y-77865184D01*
X148230655Y-77865190D01*
X148081354Y-77957282D01*
X148081341Y-77957291D01*
X148081338Y-77957293D01*
X147957293Y-78081338D01*
X147957291Y-78081341D01*
X147957282Y-78081354D01*
X147865190Y-78230655D01*
X147865184Y-78230667D01*
X147812415Y-78389915D01*
X147810174Y-78395495D01*
X147799500Y-78499974D01*
X147799500Y-80500024D01*
X147810174Y-80604502D01*
X147812415Y-80610083D01*
X147865184Y-80769331D01*
X147865190Y-80769343D01*
X147908083Y-80838881D01*
X147957286Y-80918651D01*
X147957289Y-80918655D01*
X147957291Y-80918657D01*
X147957293Y-80918660D01*
X148081338Y-81042705D01*
X148081341Y-81042707D01*
X148081344Y-81042710D01*
X148081348Y-81042713D01*
X148138873Y-81078195D01*
X148220853Y-81128762D01*
X148230662Y-81134812D01*
X148230664Y-81134813D01*
X148230666Y-81134814D01*
X148397203Y-81189999D01*
X148499992Y-81200500D01*
X148499997Y-81200500D01*
X150500003Y-81200500D01*
X150500008Y-81200500D01*
X150602797Y-81189999D01*
X150769334Y-81134814D01*
X150918655Y-81042711D01*
X151042711Y-80918655D01*
X151134814Y-80769334D01*
X151189999Y-80602797D01*
X151200500Y-80500008D01*
X151200500Y-78866926D01*
X151205521Y-78831999D01*
X151208707Y-78821146D01*
X151246477Y-78762365D01*
X151310031Y-78733336D01*
X151379186Y-78743274D01*
X151386172Y-78746464D01*
X151422342Y-78771577D01*
X151602273Y-78951508D01*
X151623423Y-78979760D01*
X151636031Y-79002849D01*
X151651200Y-79062278D01*
X151651200Y-82042142D01*
X151646175Y-82077084D01*
X151642337Y-82090152D01*
X151604559Y-82148928D01*
X151541001Y-82177949D01*
X151478992Y-82171000D01*
X151470930Y-82167911D01*
X151453753Y-82159401D01*
X151453752Y-82159404D01*
X151452191Y-82158638D01*
X151452123Y-82158758D01*
X151450238Y-82157681D01*
X151450218Y-82157671D01*
X151277252Y-82086027D01*
X151277225Y-82086021D01*
X151093622Y-82049500D01*
X151093620Y-82049500D01*
X151093616Y-82049500D01*
X150906384Y-82049500D01*
X150906379Y-82049500D01*
X150906377Y-82049500D01*
X150722773Y-82086021D01*
X150722746Y-82086027D01*
X150549776Y-82157672D01*
X150549766Y-82157677D01*
X150394093Y-82261696D01*
X150394088Y-82261699D01*
X150394082Y-82261704D01*
X150261704Y-82394082D01*
X150261699Y-82394088D01*
X150261698Y-82394089D01*
X150157677Y-82549766D01*
X150157672Y-82549776D01*
X150086027Y-82722746D01*
X150086021Y-82722773D01*
X150049500Y-82906376D01*
X150049500Y-82906379D01*
X150049500Y-83093620D01*
X150049500Y-83093622D01*
X150049499Y-83093622D01*
X150086021Y-83277225D01*
X150086027Y-83277252D01*
X150157672Y-83450222D01*
X150157677Y-83450232D01*
X150261698Y-83605909D01*
X150261699Y-83605910D01*
X150261704Y-83605916D01*
X150394082Y-83738294D01*
X150394088Y-83738299D01*
X150394092Y-83738302D01*
X150549762Y-83842318D01*
X150549775Y-83842325D01*
X150549779Y-83842327D01*
X150557696Y-83845606D01*
X150608765Y-83866759D01*
X150608766Y-83866760D01*
X150608767Y-83866760D01*
X150659511Y-83887779D01*
X150713914Y-83931620D01*
X150735979Y-83997914D01*
X150718700Y-84065614D01*
X150667562Y-84113224D01*
X150648574Y-84120841D01*
X150573416Y-84144001D01*
X150536900Y-84149500D01*
X150349998Y-84149500D01*
X150349981Y-84149501D01*
X150335959Y-84150933D01*
X150247198Y-84160000D01*
X150247193Y-84160001D01*
X150247032Y-84160056D01*
X150080667Y-84215185D01*
X150080665Y-84215186D01*
X150080663Y-84215187D01*
X149992246Y-84269723D01*
X149931340Y-84307290D01*
X149807290Y-84431340D01*
X149715186Y-84580665D01*
X149715177Y-84580691D01*
X149692836Y-84648111D01*
X149692836Y-84648115D01*
X149685282Y-84670911D01*
X149670300Y-84716123D01*
X149661852Y-84729069D01*
X149660365Y-84743630D01*
X149659541Y-84749883D01*
X149659359Y-84753473D01*
X149649500Y-84849973D01*
X149649500Y-84849996D01*
X149649501Y-86150000D01*
X149649501Y-86150026D01*
X149655180Y-86205619D01*
X149660000Y-86252796D01*
X149660001Y-86252799D01*
X149698104Y-86367784D01*
X149698103Y-86367784D01*
X149715182Y-86419325D01*
X149715185Y-86419330D01*
X149715186Y-86419334D01*
X149807288Y-86568656D01*
X149931344Y-86692712D01*
X150080666Y-86784814D01*
X150247203Y-86839999D01*
X150349991Y-86850500D01*
X151650008Y-86850499D01*
X151752797Y-86839999D01*
X151919334Y-86784814D01*
X152068656Y-86692712D01*
X152192712Y-86568656D01*
X152284814Y-86419334D01*
X152339999Y-86252797D01*
X152350500Y-86150009D01*
X152350499Y-85963097D01*
X152355998Y-85926581D01*
X152374038Y-85868039D01*
X152556999Y-85274289D01*
X152595552Y-85216020D01*
X152659489Y-85187844D01*
X152728509Y-85198707D01*
X152780699Y-85245161D01*
X152799500Y-85310806D01*
X152799500Y-87989554D01*
X152799304Y-87996517D01*
X152798913Y-88003469D01*
X152798329Y-88010389D01*
X152790106Y-88083374D01*
X152785131Y-88105168D01*
X152783383Y-88115787D01*
X152778072Y-88136596D01*
X152756949Y-88196960D01*
X152752711Y-88203844D01*
X152751632Y-88209797D01*
X152745627Y-88222269D01*
X152738896Y-88234449D01*
X152701663Y-88293704D01*
X152693616Y-88305045D01*
X152684980Y-88315874D01*
X152680788Y-88319550D01*
X152679377Y-88322420D01*
X152675715Y-88326241D01*
X152626241Y-88375715D01*
X152615874Y-88384980D01*
X152605045Y-88393616D01*
X152593704Y-88401663D01*
X152534449Y-88438896D01*
X152522269Y-88445627D01*
X152509797Y-88451632D01*
X152496959Y-88456949D01*
X152430913Y-88480060D01*
X152417557Y-88483909D01*
X152408348Y-88486011D01*
X152404053Y-88486991D01*
X152390341Y-88489321D01*
X152310389Y-88498329D01*
X152303470Y-88498913D01*
X152296519Y-88499304D01*
X152289555Y-88499500D01*
X79210445Y-88499500D01*
X79203482Y-88499304D01*
X79196530Y-88498913D01*
X79189610Y-88498329D01*
X79116619Y-88490105D01*
X79094847Y-88485135D01*
X79091362Y-88484561D01*
X79091361Y-88484561D01*
X79091359Y-88484561D01*
X79084214Y-88483385D01*
X79063407Y-88478073D01*
X79035463Y-88468295D01*
X79003038Y-88456949D01*
X78996153Y-88452711D01*
X78990201Y-88451632D01*
X78977729Y-88445627D01*
X78965549Y-88438896D01*
X78906294Y-88401663D01*
X78894953Y-88393616D01*
X78884124Y-88384980D01*
X78880448Y-88380789D01*
X78877580Y-88379379D01*
X78873757Y-88375715D01*
X78824283Y-88326241D01*
X78815018Y-88315874D01*
X78806382Y-88305045D01*
X78798335Y-88293704D01*
X78761099Y-88234444D01*
X78754376Y-88222280D01*
X78748371Y-88209810D01*
X78743052Y-88196970D01*
X78721278Y-88134743D01*
X78719932Y-88130895D01*
X78716085Y-88117539D01*
X78713010Y-88104068D01*
X78710680Y-88090355D01*
X78701669Y-88010372D01*
X78701084Y-88003434D01*
X78700695Y-87996498D01*
X78700500Y-87989554D01*
X78700500Y-86149998D01*
X85775883Y-86149998D01*
X85775884Y-86149999D01*
X85775885Y-86150000D01*
X86263631Y-86150000D01*
X86330670Y-86169685D01*
X86376425Y-86222489D01*
X86386369Y-86291647D01*
X86383406Y-86306092D01*
X86375000Y-86337463D01*
X86375000Y-86462536D01*
X86383406Y-86493908D01*
X86381743Y-86563758D01*
X86342579Y-86621620D01*
X86278351Y-86649123D01*
X86263631Y-86650000D01*
X85775885Y-86650000D01*
X85777084Y-86657582D01*
X85830592Y-86822259D01*
X85909197Y-86976527D01*
X86010961Y-87116596D01*
X86133402Y-87239037D01*
X86252266Y-87325395D01*
X86273475Y-87340804D01*
X86427742Y-87419408D01*
X86592415Y-87472914D01*
X86763429Y-87500000D01*
X87500000Y-87500000D01*
X87500000Y-86999000D01*
X87519685Y-86931961D01*
X87572489Y-86886206D01*
X87624000Y-86875000D01*
X87876000Y-86875000D01*
X87943039Y-86894685D01*
X87988794Y-86947489D01*
X88000000Y-86999000D01*
X88000000Y-87500000D01*
X88736570Y-87500000D01*
X88736571Y-87500000D01*
X88907584Y-87472914D01*
X89072257Y-87419408D01*
X89226524Y-87340804D01*
X89305170Y-87283664D01*
X89366596Y-87239037D01*
X89366598Y-87239034D01*
X89366602Y-87239032D01*
X89489032Y-87116602D01*
X89489034Y-87116598D01*
X89489037Y-87116596D01*
X89539630Y-87046959D01*
X89590804Y-86976524D01*
X89669408Y-86822255D01*
X89722914Y-86657584D01*
X89724115Y-86650000D01*
X89236369Y-86650000D01*
X89169330Y-86630315D01*
X89123575Y-86577511D01*
X89113631Y-86508353D01*
X89116594Y-86493908D01*
X89118825Y-86485579D01*
X89125000Y-86462535D01*
X89125000Y-86337465D01*
X89119547Y-86317115D01*
X89116594Y-86306092D01*
X89118257Y-86236242D01*
X89157421Y-86178380D01*
X89221649Y-86150877D01*
X89236369Y-86150000D01*
X89724115Y-86150000D01*
X89724115Y-86149998D01*
X91025883Y-86149998D01*
X91025884Y-86149999D01*
X91025885Y-86150000D01*
X91513631Y-86150000D01*
X91580670Y-86169685D01*
X91626425Y-86222489D01*
X91636369Y-86291647D01*
X91633406Y-86306092D01*
X91625000Y-86337463D01*
X91625000Y-86462536D01*
X91633406Y-86493908D01*
X91631743Y-86563758D01*
X91592579Y-86621620D01*
X91528351Y-86649123D01*
X91513631Y-86650000D01*
X91025885Y-86650000D01*
X91027084Y-86657582D01*
X91080592Y-86822259D01*
X91159197Y-86976527D01*
X91260961Y-87116596D01*
X91383402Y-87239037D01*
X91502266Y-87325395D01*
X91523475Y-87340804D01*
X91677742Y-87419408D01*
X91842415Y-87472914D01*
X92013429Y-87500000D01*
X92750000Y-87500000D01*
X92750000Y-86999000D01*
X92769685Y-86931961D01*
X92822489Y-86886206D01*
X92874000Y-86875000D01*
X93126000Y-86875000D01*
X93193039Y-86894685D01*
X93238794Y-86947489D01*
X93250000Y-86999000D01*
X93250000Y-87500000D01*
X93986570Y-87500000D01*
X93986571Y-87500000D01*
X94157584Y-87472914D01*
X94322257Y-87419408D01*
X94476524Y-87340804D01*
X94555170Y-87283664D01*
X94616596Y-87239037D01*
X94616598Y-87239034D01*
X94616602Y-87239032D01*
X94739032Y-87116602D01*
X94739034Y-87116598D01*
X94739037Y-87116596D01*
X94789630Y-87046959D01*
X94840804Y-86976524D01*
X94919408Y-86822255D01*
X94972914Y-86657584D01*
X94974115Y-86650000D01*
X94486369Y-86650000D01*
X94419330Y-86630315D01*
X94373575Y-86577511D01*
X94363631Y-86508353D01*
X94366594Y-86493908D01*
X94368825Y-86485579D01*
X94375000Y-86462535D01*
X94375000Y-86337465D01*
X94369547Y-86317115D01*
X94366594Y-86306092D01*
X94368257Y-86236242D01*
X94407421Y-86178380D01*
X94471649Y-86150877D01*
X94486369Y-86150000D01*
X94974115Y-86150000D01*
X94974115Y-86149998D01*
X94972914Y-86142416D01*
X94923312Y-85989759D01*
X94919408Y-85977744D01*
X94919406Y-85977741D01*
X94919406Y-85977739D01*
X94886824Y-85913794D01*
X94840804Y-85823475D01*
X94819903Y-85794707D01*
X94739037Y-85683402D01*
X94616596Y-85560961D01*
X94476527Y-85459197D01*
X94476526Y-85459196D01*
X94476524Y-85459195D01*
X94322257Y-85380591D01*
X94257393Y-85359515D01*
X94157584Y-85327084D01*
X93986575Y-85300000D01*
X93986571Y-85300000D01*
X93250000Y-85300000D01*
X93250000Y-85801000D01*
X93230315Y-85868039D01*
X93177511Y-85913794D01*
X93126000Y-85925000D01*
X92874000Y-85925000D01*
X92806961Y-85905315D01*
X92761206Y-85852511D01*
X92750000Y-85801000D01*
X92750000Y-85300000D01*
X92013429Y-85300000D01*
X92013425Y-85300000D01*
X91842416Y-85327084D01*
X91842410Y-85327086D01*
X91737316Y-85361234D01*
X91677742Y-85380591D01*
X91590223Y-85425185D01*
X91523471Y-85459197D01*
X91383402Y-85560961D01*
X91260961Y-85683402D01*
X91159197Y-85823471D01*
X91080592Y-85977739D01*
X91027084Y-86142417D01*
X91025883Y-86149998D01*
X89724115Y-86149998D01*
X89722914Y-86142416D01*
X89673312Y-85989759D01*
X89669408Y-85977744D01*
X89669406Y-85977741D01*
X89669406Y-85977739D01*
X89636824Y-85913794D01*
X89590804Y-85823475D01*
X89569903Y-85794707D01*
X89489037Y-85683402D01*
X89366596Y-85560961D01*
X89226527Y-85459197D01*
X89226526Y-85459196D01*
X89226524Y-85459195D01*
X89072257Y-85380591D01*
X89007393Y-85359515D01*
X88907584Y-85327084D01*
X88736575Y-85300000D01*
X88736571Y-85300000D01*
X88000000Y-85300000D01*
X88000000Y-85801000D01*
X87980315Y-85868039D01*
X87927511Y-85913794D01*
X87876000Y-85925000D01*
X87624000Y-85925000D01*
X87556961Y-85905315D01*
X87511206Y-85852511D01*
X87500000Y-85801000D01*
X87500000Y-85300000D01*
X86763429Y-85300000D01*
X86763425Y-85300000D01*
X86592416Y-85327084D01*
X86592410Y-85327086D01*
X86487316Y-85361234D01*
X86427742Y-85380591D01*
X86340223Y-85425185D01*
X86273471Y-85459197D01*
X86133402Y-85560961D01*
X86010961Y-85683402D01*
X85909197Y-85823471D01*
X85830592Y-85977739D01*
X85777084Y-86142417D01*
X85775883Y-86149998D01*
X78700500Y-86149998D01*
X78700500Y-65010444D01*
X78700695Y-65003499D01*
X78701085Y-64996547D01*
X78701666Y-64989642D01*
X78707212Y-64940426D01*
X78707213Y-64940419D01*
X78709893Y-64916622D01*
X78714860Y-64894862D01*
X78715436Y-64891364D01*
X78715437Y-64891362D01*
X78715436Y-64891359D01*
X78716614Y-64884213D01*
X78721925Y-64863407D01*
X78743055Y-64803022D01*
X78747292Y-64796138D01*
X78748372Y-64790186D01*
X78754376Y-64777716D01*
X78761086Y-64765574D01*
X78798353Y-64706265D01*
X78806374Y-64694961D01*
X78815016Y-64684124D01*
X78819201Y-64680454D01*
X78820612Y-64677587D01*
X78824251Y-64673789D01*
X78873774Y-64624266D01*
X78884114Y-64615024D01*
X78894961Y-64606374D01*
X78906265Y-64598353D01*
X78965574Y-64561086D01*
X78977716Y-64554376D01*
X78990198Y-64548366D01*
X79003014Y-64543058D01*
X79069098Y-64519933D01*
X79082447Y-64516087D01*
X79095955Y-64513004D01*
X79109631Y-64510681D01*
X79183758Y-64502330D01*
X79189644Y-64501666D01*
X79196549Y-64501085D01*
X79203503Y-64500695D01*
X79210446Y-64500500D01*
X86707045Y-64500500D01*
X86774084Y-64520185D01*
X86819839Y-64572989D01*
X86829783Y-64642147D01*
X86800758Y-64705703D01*
X86761450Y-64735928D01*
X86452185Y-64886928D01*
X86397780Y-64899500D01*
X85420934Y-64899500D01*
X85339367Y-64921355D01*
X85339361Y-64921359D01*
X85268217Y-64940422D01*
X85268215Y-64940422D01*
X85268214Y-64940423D01*
X85268212Y-64940423D01*
X85268143Y-64940453D01*
X85267334Y-64940930D01*
X85131298Y-65019470D01*
X85131280Y-65019482D01*
X85061634Y-65089130D01*
X85061633Y-65089129D01*
X85019481Y-65131283D01*
X85019478Y-65131286D01*
X83936435Y-66214330D01*
X83516978Y-66633785D01*
X83470918Y-66662910D01*
X81704569Y-67292306D01*
X81662948Y-67299500D01*
X80999974Y-67299500D01*
X80895495Y-67310174D01*
X80889915Y-67312415D01*
X80730667Y-67365184D01*
X80730655Y-67365190D01*
X80581354Y-67457282D01*
X80581341Y-67457291D01*
X80581338Y-67457293D01*
X80457293Y-67581338D01*
X80457291Y-67581341D01*
X80457282Y-67581354D01*
X80365190Y-67730655D01*
X80365184Y-67730667D01*
X80312415Y-67889915D01*
X80310174Y-67895495D01*
X80299500Y-67999974D01*
X80299500Y-70000024D01*
X80310174Y-70104502D01*
X80312415Y-70110083D01*
X80365184Y-70269331D01*
X80365190Y-70269343D01*
X80405485Y-70334670D01*
X80457286Y-70418651D01*
X80457289Y-70418655D01*
X80457291Y-70418657D01*
X80457293Y-70418660D01*
X80581338Y-70542705D01*
X80581341Y-70542707D01*
X80581344Y-70542710D01*
X80581348Y-70542713D01*
X80730662Y-70634812D01*
X80730664Y-70634813D01*
X80730666Y-70634814D01*
X80897203Y-70689999D01*
X80999992Y-70700500D01*
X80999997Y-70700500D01*
X81259535Y-70700500D01*
X81294462Y-70705521D01*
X81303094Y-70708055D01*
X81361875Y-70745825D01*
X81390904Y-70809379D01*
X81380965Y-70878538D01*
X81340698Y-70927609D01*
X81336545Y-70930604D01*
X81311466Y-70944590D01*
X81246288Y-70971586D01*
X81246279Y-70971591D01*
X81246256Y-70971603D01*
X81053237Y-71083044D01*
X81053212Y-71083061D01*
X81053210Y-71083062D01*
X80876395Y-71218736D01*
X80876379Y-71218749D01*
X80876375Y-71218753D01*
X80876361Y-71218765D01*
X80718765Y-71376361D01*
X80718758Y-71376369D01*
X80718749Y-71376379D01*
X80718736Y-71376395D01*
X80583062Y-71553210D01*
X80583061Y-71553212D01*
X80583044Y-71553237D01*
X80471595Y-71746272D01*
X80386297Y-71952199D01*
X80386288Y-71952222D01*
X80352708Y-72077552D01*
X80346992Y-72098886D01*
X80338229Y-72131590D01*
X80338228Y-72131592D01*
X80328601Y-72167516D01*
X80328593Y-72167553D01*
X80299503Y-72388516D01*
X80299500Y-72388541D01*
X80299500Y-72611457D01*
X80299503Y-72611482D01*
X80328593Y-72832447D01*
X80328597Y-72832467D01*
X80386288Y-73047776D01*
X80386290Y-73047780D01*
X80386293Y-73047790D01*
X80393261Y-73064612D01*
X80471594Y-73253726D01*
X80564646Y-73414894D01*
X80568469Y-73422045D01*
X80569341Y-73423813D01*
X81016316Y-74187354D01*
X81033197Y-74255154D01*
X81016316Y-74312644D01*
X80569333Y-75076196D01*
X80564769Y-75084751D01*
X80562760Y-75088370D01*
X80471592Y-75246278D01*
X80386297Y-75452199D01*
X80386288Y-75452222D01*
X80346608Y-75600316D01*
X80328594Y-75667544D01*
X80328592Y-75667556D01*
X80299503Y-75888516D01*
X80299500Y-75888541D01*
X80299500Y-76111457D01*
X80299503Y-76111482D01*
X80328594Y-76332454D01*
X80328708Y-76333146D01*
X80329443Y-76335624D01*
X80386289Y-76547779D01*
X80386297Y-76547799D01*
X80462397Y-76731521D01*
X80471593Y-76753722D01*
X80471600Y-76753736D01*
X80581212Y-76943589D01*
X80582233Y-76945486D01*
X80583067Y-76946873D01*
X80584571Y-76948754D01*
X80630052Y-77008027D01*
X80718751Y-77123622D01*
X80718757Y-77123629D01*
X80876370Y-77281242D01*
X80876377Y-77281248D01*
X80924775Y-77318385D01*
X80924781Y-77318389D01*
X80924782Y-77318390D01*
X81053215Y-77416940D01*
X81053217Y-77416941D01*
X81053226Y-77416948D01*
X81246274Y-77528405D01*
X81246278Y-77528406D01*
X81246320Y-77528428D01*
X81246873Y-77528653D01*
X81446429Y-77611312D01*
X81452219Y-77613710D01*
X81497603Y-77625870D01*
X81530046Y-77639763D01*
X81539709Y-77645653D01*
X81586704Y-77697357D01*
X81598285Y-77766260D01*
X81570776Y-77830487D01*
X81570754Y-77830514D01*
X81570364Y-77830986D01*
X81526296Y-77864791D01*
X81524247Y-77865727D01*
X81504819Y-77872712D01*
X81452392Y-77886760D01*
X81452385Y-77886762D01*
X81452379Y-77886764D01*
X81452372Y-77886767D01*
X81246496Y-77972045D01*
X81246493Y-77972046D01*
X81246471Y-77972058D01*
X81053508Y-78083463D01*
X80987595Y-78134040D01*
X80987595Y-78134043D01*
X81670645Y-78817092D01*
X81704130Y-78878415D01*
X81699146Y-78948106D01*
X81657274Y-79004040D01*
X81644967Y-79012159D01*
X81631592Y-79019881D01*
X81631589Y-79019883D01*
X81519883Y-79131589D01*
X81519881Y-79131592D01*
X81512159Y-79144967D01*
X81461590Y-79193181D01*
X81392983Y-79206402D01*
X81328119Y-79180433D01*
X81317092Y-79170645D01*
X80634043Y-78487595D01*
X80634040Y-78487595D01*
X80583463Y-78553508D01*
X80473903Y-78743276D01*
X80472054Y-78746479D01*
X80472045Y-78746497D01*
X80399162Y-78922449D01*
X80386764Y-78952379D01*
X80386761Y-78952387D01*
X80329091Y-79167616D01*
X80329086Y-79167641D01*
X80329083Y-79167654D01*
X80300000Y-79388574D01*
X80300000Y-79611424D01*
X80329083Y-79832344D01*
X80329086Y-79832357D01*
X80329091Y-79832382D01*
X80386437Y-80046401D01*
X80386763Y-80047618D01*
X80424064Y-80137669D01*
X80472047Y-80253508D01*
X80472052Y-80253517D01*
X80472054Y-80253520D01*
X80564349Y-80413383D01*
X80583466Y-80446494D01*
X80583478Y-80446511D01*
X80634039Y-80512402D01*
X80634040Y-80512403D01*
X80634043Y-80512403D01*
X81317094Y-79829351D01*
X81378415Y-79795868D01*
X81448106Y-79800852D01*
X81504040Y-79842723D01*
X81512157Y-79855031D01*
X81519881Y-79868408D01*
X81631592Y-79980119D01*
X81644964Y-79987839D01*
X81693179Y-80038407D01*
X81706401Y-80107014D01*
X81680433Y-80171879D01*
X81670644Y-80182907D01*
X80987595Y-80865954D01*
X80987595Y-80865957D01*
X81053505Y-80916532D01*
X81053507Y-80916533D01*
X81246485Y-81027949D01*
X81246497Y-81027954D01*
X81452381Y-81113236D01*
X81498565Y-81125611D01*
X81531005Y-81139502D01*
X81540664Y-81145389D01*
X81587664Y-81197088D01*
X81599251Y-81265990D01*
X81571748Y-81330219D01*
X81571701Y-81330276D01*
X81571310Y-81330749D01*
X81527260Y-81364533D01*
X81525211Y-81365469D01*
X81505780Y-81372455D01*
X81452396Y-81386758D01*
X81452383Y-81386762D01*
X81246490Y-81472047D01*
X81246471Y-81472058D01*
X81053508Y-81583463D01*
X80987595Y-81634040D01*
X80987595Y-81634043D01*
X81670645Y-82317092D01*
X81704130Y-82378415D01*
X81699146Y-82448106D01*
X81657274Y-82504040D01*
X81644967Y-82512159D01*
X81631592Y-82519881D01*
X81631589Y-82519883D01*
X81519883Y-82631589D01*
X81519881Y-82631592D01*
X81512159Y-82644967D01*
X81461590Y-82693181D01*
X81392983Y-82706402D01*
X81328119Y-82680433D01*
X81317092Y-82670645D01*
X80634043Y-81987595D01*
X80634040Y-81987595D01*
X80583463Y-82053508D01*
X80472058Y-82246471D01*
X80472047Y-82246490D01*
X80386764Y-82452379D01*
X80386761Y-82452387D01*
X80329091Y-82667616D01*
X80329086Y-82667641D01*
X80329083Y-82667654D01*
X80300000Y-82888574D01*
X80300000Y-83111424D01*
X80329083Y-83332344D01*
X80329086Y-83332357D01*
X80329091Y-83332382D01*
X80382057Y-83530054D01*
X80386763Y-83547618D01*
X80419752Y-83627259D01*
X80472047Y-83753508D01*
X80472050Y-83753513D01*
X80472054Y-83753520D01*
X80583463Y-83946490D01*
X80583466Y-83946494D01*
X80583478Y-83946511D01*
X80634039Y-84012402D01*
X80634040Y-84012403D01*
X80634043Y-84012403D01*
X81317094Y-83329351D01*
X81378415Y-83295868D01*
X81448106Y-83300852D01*
X81504040Y-83342723D01*
X81512157Y-83355031D01*
X81519881Y-83368408D01*
X81631592Y-83480119D01*
X81644964Y-83487839D01*
X81693179Y-83538407D01*
X81706401Y-83607014D01*
X81680433Y-83671879D01*
X81670644Y-83682907D01*
X80987595Y-84365954D01*
X80987595Y-84365957D01*
X81053505Y-84416532D01*
X81053507Y-84416533D01*
X81246485Y-84527949D01*
X81246497Y-84527954D01*
X81452381Y-84613236D01*
X81582554Y-84648115D01*
X81667616Y-84670907D01*
X81667620Y-84670907D01*
X81667632Y-84670911D01*
X81667645Y-84670914D01*
X81888575Y-84700000D01*
X82111418Y-84700000D01*
X82111425Y-84700000D01*
X82332354Y-84670914D01*
X82332367Y-84670911D01*
X82547618Y-84613236D01*
X82753502Y-84527954D01*
X82753514Y-84527949D01*
X82946498Y-84416530D01*
X83012403Y-84365957D01*
X83012404Y-84365956D01*
X83012403Y-84365955D01*
X83012404Y-84365955D01*
X82329354Y-83682907D01*
X82295869Y-83621584D01*
X82300853Y-83551893D01*
X82342724Y-83495959D01*
X82355022Y-83487846D01*
X82368408Y-83480119D01*
X82480119Y-83368408D01*
X82487839Y-83355035D01*
X82538405Y-83306821D01*
X82607012Y-83293597D01*
X82671877Y-83319565D01*
X82682907Y-83329355D01*
X83365956Y-84012404D01*
X83365957Y-84012403D01*
X83415792Y-83947458D01*
X83416427Y-83946648D01*
X83416535Y-83946491D01*
X83483319Y-83830817D01*
X83483319Y-83830816D01*
X83489551Y-83820022D01*
X83491480Y-83816681D01*
X83491480Y-83816679D01*
X83527949Y-83753513D01*
X83527954Y-83753502D01*
X83613236Y-83547618D01*
X83670911Y-83332367D01*
X83670914Y-83332354D01*
X83700000Y-83111424D01*
X83700000Y-82888575D01*
X83670914Y-82667645D01*
X83670911Y-82667632D01*
X83664836Y-82644961D01*
X83639330Y-82549768D01*
X83613236Y-82452381D01*
X83527954Y-82246497D01*
X83527949Y-82246485D01*
X83416533Y-82053507D01*
X83416532Y-82053505D01*
X83365957Y-81987595D01*
X83365956Y-81987595D01*
X83365955Y-81987595D01*
X83365954Y-81987595D01*
X82682906Y-82670643D01*
X82621583Y-82704128D01*
X82551891Y-82699144D01*
X82495958Y-82657272D01*
X82487838Y-82644961D01*
X82480122Y-82631598D01*
X82480119Y-82631592D01*
X82368408Y-82519881D01*
X82359677Y-82514840D01*
X82355032Y-82512158D01*
X82306817Y-82461590D01*
X82293596Y-82392983D01*
X82319565Y-82328118D01*
X82329343Y-82317101D01*
X83012403Y-81634043D01*
X83012403Y-81634040D01*
X82946504Y-81583473D01*
X82946491Y-81583464D01*
X82753520Y-81472054D01*
X82753508Y-81472047D01*
X82582266Y-81401115D01*
X82547618Y-81386763D01*
X82547616Y-81386762D01*
X82547615Y-81386762D01*
X82547613Y-81386761D01*
X82524594Y-81380594D01*
X82501431Y-81374388D01*
X82468986Y-81360493D01*
X82459326Y-81354605D01*
X82412330Y-81302902D01*
X82400748Y-81233999D01*
X82428254Y-81169774D01*
X82428690Y-81169247D01*
X82472745Y-81135462D01*
X82474807Y-81134520D01*
X82494207Y-81127547D01*
X82547618Y-81113236D01*
X82753502Y-81027954D01*
X82753514Y-81027949D01*
X82946498Y-80916530D01*
X83012403Y-80865957D01*
X83012404Y-80865956D01*
X83012403Y-80865955D01*
X83012404Y-80865955D01*
X82329354Y-80182907D01*
X82295869Y-80121584D01*
X82300853Y-80051893D01*
X82342724Y-79995959D01*
X82355022Y-79987846D01*
X82368408Y-79980119D01*
X82480119Y-79868408D01*
X82487839Y-79855035D01*
X82538405Y-79806821D01*
X82607012Y-79793597D01*
X82671877Y-79819565D01*
X82682907Y-79829355D01*
X83365955Y-80512403D01*
X83365956Y-80512404D01*
X83365957Y-80512403D01*
X83416530Y-80446498D01*
X83527949Y-80253514D01*
X83527954Y-80253502D01*
X83613236Y-80047618D01*
X83670911Y-79832367D01*
X83670914Y-79832354D01*
X83700000Y-79611424D01*
X83700000Y-79388575D01*
X83670914Y-79167645D01*
X83670911Y-79167632D01*
X83667154Y-79153612D01*
X83639874Y-79051797D01*
X83613236Y-78952381D01*
X83527954Y-78746497D01*
X83527949Y-78746485D01*
X83423304Y-78565235D01*
X83416532Y-78553505D01*
X83365957Y-78487595D01*
X83365956Y-78487595D01*
X83365955Y-78487595D01*
X83365954Y-78487595D01*
X82682906Y-79170643D01*
X82621583Y-79204128D01*
X82551891Y-79199144D01*
X82495958Y-79157272D01*
X82487838Y-79144961D01*
X82480122Y-79131598D01*
X82480119Y-79131592D01*
X82368408Y-79019881D01*
X82361586Y-79015942D01*
X82355032Y-79012158D01*
X82306817Y-78961590D01*
X82293596Y-78892983D01*
X82319565Y-78828118D01*
X82329343Y-78817101D01*
X83012403Y-78134043D01*
X83012403Y-78134040D01*
X83011143Y-78133073D01*
X82946511Y-78083478D01*
X82946494Y-78083466D01*
X82946487Y-78083462D01*
X82753520Y-77972054D01*
X82753516Y-77972052D01*
X82753505Y-77972046D01*
X82753502Y-77972045D01*
X82717883Y-77957291D01*
X82547620Y-77886764D01*
X82547618Y-77886763D01*
X82547617Y-77886763D01*
X82528214Y-77881564D01*
X82502395Y-77874646D01*
X82469955Y-77860754D01*
X82460292Y-77854864D01*
X82413297Y-77803164D01*
X82401712Y-77734261D01*
X82429197Y-77670060D01*
X82429590Y-77669583D01*
X82473692Y-77635728D01*
X82475749Y-77634788D01*
X82495169Y-77627806D01*
X82535870Y-77616901D01*
X82547771Y-77613713D01*
X82547773Y-77613711D01*
X82547781Y-77613710D01*
X82753726Y-77528405D01*
X82946774Y-77416948D01*
X82946782Y-77416941D01*
X82946785Y-77416940D01*
X83075223Y-77318386D01*
X83123624Y-77281247D01*
X83281247Y-77123624D01*
X83416948Y-76946774D01*
X83528405Y-76753726D01*
X83613710Y-76547781D01*
X83671404Y-76332463D01*
X83700500Y-76111457D01*
X83700500Y-75888543D01*
X83671404Y-75667537D01*
X83613710Y-75452219D01*
X83528405Y-75246274D01*
X83435339Y-75085080D01*
X83431525Y-75077944D01*
X83430654Y-75076177D01*
X82983681Y-74312643D01*
X82966800Y-74244843D01*
X82983681Y-74187354D01*
X83430660Y-73423808D01*
X83435222Y-73415255D01*
X83437190Y-73411711D01*
X83528405Y-73253726D01*
X83613710Y-73047781D01*
X83671404Y-72832463D01*
X83700500Y-72611457D01*
X83700500Y-72388543D01*
X83671404Y-72167537D01*
X83613710Y-71952219D01*
X83589097Y-71892799D01*
X83543646Y-71783069D01*
X83528405Y-71746274D01*
X83416948Y-71553226D01*
X83360858Y-71480128D01*
X83320563Y-71427614D01*
X83281262Y-71376395D01*
X83281258Y-71376390D01*
X83281248Y-71376377D01*
X83281242Y-71376370D01*
X83123629Y-71218757D01*
X83123622Y-71218751D01*
X83123612Y-71218743D01*
X83123603Y-71218736D01*
X82948754Y-71084571D01*
X82946873Y-71083067D01*
X82945486Y-71082233D01*
X82943589Y-71081212D01*
X82753767Y-70971618D01*
X82753715Y-70971589D01*
X82743165Y-70967219D01*
X82691651Y-70945882D01*
X82661301Y-70927874D01*
X82654296Y-70922229D01*
X82614448Y-70864837D01*
X82611954Y-70795012D01*
X82647606Y-70734923D01*
X82703596Y-70704999D01*
X82708583Y-70703821D01*
X82737089Y-70700500D01*
X83000003Y-70700500D01*
X83000008Y-70700500D01*
X83102797Y-70689999D01*
X83269334Y-70634814D01*
X83418655Y-70542711D01*
X83542711Y-70418655D01*
X83634814Y-70269334D01*
X83689999Y-70102797D01*
X83700500Y-70000008D01*
X83700500Y-69337043D01*
X83707694Y-69295422D01*
X83707922Y-69294782D01*
X84337086Y-67529080D01*
X84366209Y-67483024D01*
X85699811Y-66149423D01*
X85728061Y-66128275D01*
X85751153Y-66115667D01*
X85810578Y-66100500D01*
X86397779Y-66100500D01*
X86452184Y-66113072D01*
X86474050Y-66123748D01*
X87426370Y-66588719D01*
X87466212Y-66606092D01*
X87466217Y-66606093D01*
X87466224Y-66606096D01*
X87471697Y-66607900D01*
X87471424Y-66608727D01*
X87489356Y-66615224D01*
X87529571Y-66635715D01*
X87713028Y-66695324D01*
X87903551Y-66725500D01*
X87903552Y-66725500D01*
X88096448Y-66725500D01*
X88096449Y-66725500D01*
X88286972Y-66695324D01*
X88470429Y-66635715D01*
X88642302Y-66548141D01*
X88798359Y-66434759D01*
X88934759Y-66298359D01*
X89048141Y-66142302D01*
X89135715Y-65970429D01*
X89195324Y-65786972D01*
X89225500Y-65596449D01*
X89225500Y-65403551D01*
X89195324Y-65213028D01*
X89135715Y-65029571D01*
X89048141Y-64857698D01*
X88945895Y-64716968D01*
X88933040Y-64694754D01*
X88925657Y-64678261D01*
X88916233Y-64609030D01*
X88945734Y-64545694D01*
X89004349Y-64508490D01*
X89015055Y-64505390D01*
X89049536Y-64500500D01*
X91950225Y-64500500D01*
X91985154Y-64505521D01*
X91987289Y-64506147D01*
X91996154Y-64508751D01*
X92054933Y-64546522D01*
X92083961Y-64610076D01*
X92074208Y-64678822D01*
X92066883Y-64695020D01*
X92054219Y-64716810D01*
X92027331Y-64753820D01*
X92027329Y-64753822D01*
X91953699Y-64855164D01*
X91951859Y-64857697D01*
X91951857Y-64857699D01*
X91951855Y-64857704D01*
X91864287Y-65029565D01*
X91804674Y-65213033D01*
X91804673Y-65213034D01*
X91784929Y-65337703D01*
X91781907Y-65356784D01*
X91779342Y-65372977D01*
X91774500Y-65403548D01*
X91774500Y-65596447D01*
X91774499Y-65596447D01*
X91778643Y-65622606D01*
X91783053Y-65650449D01*
X91804657Y-65786858D01*
X91804675Y-65786968D01*
X91804682Y-65786998D01*
X91804830Y-65787446D01*
X91864286Y-65970433D01*
X91881601Y-66004414D01*
X91896570Y-66033793D01*
X91897184Y-66034997D01*
X91904734Y-66053295D01*
X91908894Y-66066216D01*
X91911280Y-66073629D01*
X92386928Y-67047815D01*
X92399500Y-67102220D01*
X92399500Y-72967273D01*
X92394476Y-73002210D01*
X92387064Y-73027451D01*
X92355769Y-73080195D01*
X91824788Y-73611176D01*
X91796538Y-73632325D01*
X91786611Y-73637746D01*
X91718338Y-73652600D01*
X91652873Y-73628186D01*
X91611000Y-73572254D01*
X91608313Y-73565048D01*
X91600500Y-73521728D01*
X91600500Y-72413389D01*
X91591743Y-72358100D01*
X91585711Y-72320017D01*
X91573402Y-72242299D01*
X91519873Y-72077555D01*
X91441232Y-71923212D01*
X91339414Y-71783072D01*
X91216928Y-71660586D01*
X91076788Y-71558768D01*
X91076780Y-71558764D01*
X90922449Y-71480128D01*
X90766532Y-71429467D01*
X90762010Y-71427614D01*
X90752820Y-71425445D01*
X90748057Y-71425070D01*
X90729085Y-71422065D01*
X90591212Y-71400228D01*
X90591207Y-71400228D01*
X90586611Y-71399500D01*
X90586609Y-71399500D01*
X90413391Y-71399500D01*
X90413389Y-71399500D01*
X90408793Y-71400228D01*
X90408787Y-71400228D01*
X90242304Y-71426596D01*
X90077549Y-71480129D01*
X89923218Y-71558764D01*
X89923205Y-71558772D01*
X89869316Y-71597925D01*
X89794942Y-71651961D01*
X89787563Y-71656093D01*
X89656094Y-71787562D01*
X89651962Y-71794941D01*
X89558768Y-71923210D01*
X89480129Y-72077549D01*
X89426596Y-72242305D01*
X89399500Y-72413383D01*
X89399500Y-74586614D01*
X89422137Y-74729540D01*
X89426596Y-74757696D01*
X89445277Y-74815190D01*
X89480127Y-74922445D01*
X89558768Y-75076788D01*
X89660586Y-75216928D01*
X89660588Y-75216930D01*
X89783075Y-75339417D01*
X89804418Y-75354923D01*
X89847084Y-75410253D01*
X89853063Y-75479866D01*
X89833073Y-75526414D01*
X89613495Y-75839679D01*
X89591378Y-75874118D01*
X89590426Y-75875742D01*
X89590367Y-75875869D01*
X89590296Y-75875988D01*
X89589076Y-75878312D01*
X89588962Y-75878252D01*
X89578341Y-75896269D01*
X89558771Y-75923205D01*
X89480129Y-76077549D01*
X89480128Y-76077551D01*
X89480128Y-76077552D01*
X89469109Y-76111466D01*
X89426596Y-76242305D01*
X89399500Y-76413383D01*
X89399500Y-78586614D01*
X89421633Y-78726359D01*
X89424821Y-78746485D01*
X89426598Y-78757701D01*
X89480127Y-78922445D01*
X89558768Y-79076788D01*
X89660586Y-79216928D01*
X89728144Y-79284486D01*
X89783072Y-79339414D01*
X89783571Y-79339823D01*
X89785094Y-79340884D01*
X89851598Y-79389203D01*
X89876909Y-79413801D01*
X89885384Y-79424792D01*
X89910732Y-79489902D01*
X89896859Y-79558373D01*
X89893599Y-79564552D01*
X89856814Y-79607007D01*
X89783069Y-79660587D01*
X89656093Y-79787563D01*
X89651961Y-79794942D01*
X89624771Y-79832366D01*
X89561464Y-79919500D01*
X89558768Y-79923211D01*
X89558766Y-79923213D01*
X89558764Y-79923218D01*
X89480129Y-80077549D01*
X89426596Y-80242305D01*
X89399500Y-80413383D01*
X89399500Y-82586615D01*
X89425236Y-82749114D01*
X89425237Y-82749114D01*
X89426597Y-82757700D01*
X89426598Y-82757701D01*
X89469123Y-82888581D01*
X89479660Y-82921009D01*
X89480128Y-82922447D01*
X89510136Y-82981342D01*
X89558766Y-83076786D01*
X89583933Y-83111424D01*
X89660586Y-83216928D01*
X89783072Y-83339414D01*
X89923212Y-83441232D01*
X90077555Y-83519873D01*
X90242299Y-83573402D01*
X90413389Y-83600500D01*
X90413390Y-83600500D01*
X90586610Y-83600500D01*
X90586611Y-83600500D01*
X90757701Y-83573402D01*
X90922445Y-83519873D01*
X91076788Y-83441232D01*
X91216928Y-83339414D01*
X91339414Y-83216928D01*
X91441232Y-83076788D01*
X91519873Y-82922445D01*
X91573402Y-82757701D01*
X91600500Y-82586611D01*
X91600500Y-80413389D01*
X91573402Y-80242299D01*
X91519873Y-80077555D01*
X91441232Y-79923212D01*
X91339414Y-79783072D01*
X91216928Y-79660586D01*
X91148397Y-79610795D01*
X91123091Y-79586202D01*
X91122731Y-79585735D01*
X91114615Y-79575210D01*
X91089265Y-79510103D01*
X91103138Y-79441626D01*
X91106404Y-79435437D01*
X91143185Y-79392990D01*
X91216365Y-79339823D01*
X91216924Y-79339417D01*
X91216924Y-79339416D01*
X91216928Y-79339414D01*
X91339414Y-79216928D01*
X91441232Y-79076788D01*
X91519873Y-78922445D01*
X91573402Y-78757701D01*
X91600500Y-78586611D01*
X91600500Y-76413389D01*
X91573402Y-76242299D01*
X91519873Y-76077555D01*
X91441232Y-75923212D01*
X91417166Y-75890088D01*
X91400700Y-75858881D01*
X91395447Y-75844159D01*
X91391457Y-75774404D01*
X91392950Y-75767981D01*
X91426045Y-75708387D01*
X93351273Y-73783160D01*
X93351277Y-73783158D01*
X93368715Y-73765720D01*
X93368716Y-73765720D01*
X93480520Y-73653916D01*
X93559577Y-73516984D01*
X93595532Y-73382798D01*
X93600500Y-73364258D01*
X93600500Y-73206143D01*
X93600500Y-72413383D01*
X94399500Y-72413383D01*
X94399500Y-74586614D01*
X94422137Y-74729540D01*
X94426596Y-74757696D01*
X94445277Y-74815190D01*
X94480127Y-74922445D01*
X94558768Y-75076788D01*
X94660586Y-75216928D01*
X94783072Y-75339414D01*
X94783571Y-75339823D01*
X94785094Y-75340884D01*
X94851598Y-75389203D01*
X94876909Y-75413801D01*
X94885384Y-75424792D01*
X94910732Y-75489902D01*
X94896859Y-75558373D01*
X94893599Y-75564552D01*
X94856814Y-75607007D01*
X94783069Y-75660587D01*
X94656092Y-75787564D01*
X94651961Y-75794941D01*
X94616859Y-75843255D01*
X94616859Y-75843256D01*
X94558768Y-75923210D01*
X94480129Y-76077549D01*
X94480128Y-76077551D01*
X94480128Y-76077552D01*
X94469109Y-76111466D01*
X94426596Y-76242305D01*
X94399500Y-76413383D01*
X94399500Y-78586614D01*
X94421633Y-78726359D01*
X94424821Y-78746485D01*
X94426598Y-78757701D01*
X94480127Y-78922445D01*
X94558768Y-79076788D01*
X94660586Y-79216928D01*
X94728144Y-79284486D01*
X94783072Y-79339414D01*
X94783571Y-79339823D01*
X94785094Y-79340884D01*
X94851598Y-79389203D01*
X94876909Y-79413801D01*
X94885384Y-79424792D01*
X94910732Y-79489902D01*
X94896859Y-79558373D01*
X94893599Y-79564552D01*
X94856814Y-79607007D01*
X94783069Y-79660587D01*
X94656093Y-79787563D01*
X94651961Y-79794942D01*
X94624771Y-79832366D01*
X94561464Y-79919500D01*
X94558768Y-79923211D01*
X94558766Y-79923213D01*
X94558764Y-79923218D01*
X94480129Y-80077549D01*
X94426596Y-80242305D01*
X94399500Y-80413383D01*
X94399500Y-82586615D01*
X94425236Y-82749114D01*
X94425237Y-82749114D01*
X94426597Y-82757700D01*
X94426598Y-82757701D01*
X94469123Y-82888581D01*
X94479660Y-82921009D01*
X94480128Y-82922447D01*
X94510136Y-82981342D01*
X94558766Y-83076786D01*
X94583933Y-83111424D01*
X94660586Y-83216928D01*
X94783072Y-83339414D01*
X94923212Y-83441232D01*
X95077555Y-83519873D01*
X95242299Y-83573402D01*
X95413389Y-83600500D01*
X95413390Y-83600500D01*
X95586610Y-83600500D01*
X95586611Y-83600500D01*
X95757701Y-83573402D01*
X95922445Y-83519873D01*
X96076788Y-83441232D01*
X96216928Y-83339414D01*
X96339414Y-83216928D01*
X96441232Y-83076788D01*
X96519873Y-82922445D01*
X96573402Y-82757701D01*
X96600500Y-82586611D01*
X96600500Y-80413389D01*
X96573402Y-80242299D01*
X96519873Y-80077555D01*
X96441232Y-79923212D01*
X96339414Y-79783072D01*
X96216928Y-79660586D01*
X96148397Y-79610795D01*
X96123091Y-79586202D01*
X96122731Y-79585735D01*
X96114615Y-79575210D01*
X96089265Y-79510103D01*
X96103138Y-79441626D01*
X96106404Y-79435437D01*
X96143185Y-79392990D01*
X96216365Y-79339823D01*
X96216924Y-79339417D01*
X96216924Y-79339416D01*
X96216928Y-79339414D01*
X96339414Y-79216928D01*
X96441232Y-79076788D01*
X96519873Y-78922445D01*
X96573402Y-78757701D01*
X96600500Y-78586611D01*
X96600500Y-77897642D01*
X102279500Y-77897642D01*
X102279500Y-78102356D01*
X102311521Y-78304530D01*
X102374780Y-78499221D01*
X102374786Y-78499234D01*
X102467708Y-78681601D01*
X102467713Y-78681610D01*
X102467715Y-78681613D01*
X102566144Y-78817092D01*
X102588027Y-78847211D01*
X102588029Y-78847214D01*
X102732787Y-78991972D01*
X102815131Y-79051797D01*
X102859885Y-79084312D01*
X102898390Y-79112287D01*
X102979499Y-79153614D01*
X103045219Y-79187100D01*
X103074330Y-79201934D01*
X103075931Y-79202871D01*
X103079620Y-79204658D01*
X103081637Y-79205660D01*
X103085405Y-79206722D01*
X103155818Y-79229601D01*
X103159426Y-79230773D01*
X103176952Y-79237991D01*
X103197372Y-79248291D01*
X104347452Y-79634995D01*
X104395612Y-79664847D01*
X106214085Y-81483320D01*
X106214106Y-81483342D01*
X106331284Y-81600520D01*
X106389349Y-81634043D01*
X106389348Y-81634043D01*
X106411052Y-81646573D01*
X106411058Y-81646577D01*
X106411059Y-81646577D01*
X106418095Y-81650639D01*
X106418097Y-81650641D01*
X106468213Y-81679576D01*
X106468215Y-81679577D01*
X106620942Y-81720500D01*
X106620943Y-81720500D01*
X110948457Y-81720500D01*
X111002569Y-81732929D01*
X111939356Y-82187288D01*
X111978608Y-82204313D01*
X111978625Y-82204316D01*
X111983905Y-82206048D01*
X112001583Y-82213397D01*
X112032714Y-82229259D01*
X112034316Y-82230197D01*
X112038032Y-82231997D01*
X112040025Y-82232987D01*
X112043786Y-82234048D01*
X112082080Y-82246490D01*
X112128880Y-82261696D01*
X112128881Y-82261697D01*
X112158881Y-82271444D01*
X112218881Y-82290940D01*
X112405514Y-82320500D01*
X112405519Y-82320500D01*
X112594485Y-82320500D01*
X112594486Y-82320500D01*
X112781118Y-82290940D01*
X112960832Y-82232547D01*
X113129199Y-82146760D01*
X113282073Y-82035690D01*
X113415690Y-81902073D01*
X113526760Y-81749199D01*
X113612547Y-81580832D01*
X113670940Y-81401118D01*
X113682204Y-81330000D01*
X113700500Y-81214486D01*
X113700500Y-81025513D01*
X113670940Y-80838881D01*
X113612545Y-80659163D01*
X113537767Y-80512404D01*
X113526760Y-80490801D01*
X113526758Y-80490798D01*
X113526757Y-80490796D01*
X113494514Y-80446418D01*
X113415690Y-80337927D01*
X113282073Y-80204310D01*
X113129199Y-80093240D01*
X112960836Y-80007454D01*
X112781118Y-79949059D01*
X112781112Y-79949058D01*
X112594491Y-79919500D01*
X112594486Y-79919500D01*
X112594481Y-79919500D01*
X112405519Y-79919500D01*
X112405514Y-79919500D01*
X112405509Y-79919500D01*
X112218886Y-79949058D01*
X112218884Y-79949058D01*
X112218881Y-79949059D01*
X112123293Y-79980118D01*
X112039162Y-80007454D01*
X112039159Y-80007455D01*
X111977729Y-80038755D01*
X111959129Y-80046401D01*
X111939367Y-80052706D01*
X111939353Y-80052711D01*
X111002568Y-80507070D01*
X110948455Y-80519500D01*
X107017927Y-80519500D01*
X106982991Y-80514477D01*
X106957749Y-80507065D01*
X106905004Y-80475769D01*
X105244847Y-78815612D01*
X105214994Y-78767451D01*
X105211715Y-78757700D01*
X104828291Y-77617372D01*
X104811963Y-77575166D01*
X104809364Y-77569959D01*
X104810038Y-77569622D01*
X104801905Y-77552135D01*
X104794196Y-77528409D01*
X104786719Y-77505395D01*
X104785659Y-77501635D01*
X104784672Y-77499650D01*
X104782872Y-77495933D01*
X104781936Y-77494335D01*
X104742501Y-77416941D01*
X104692287Y-77318390D01*
X104692283Y-77318385D01*
X104665298Y-77281242D01*
X104571972Y-77152787D01*
X104427211Y-77008026D01*
X104269507Y-76893450D01*
X104269168Y-76893161D01*
X104261603Y-76887707D01*
X104261188Y-76887498D01*
X104204654Y-76858691D01*
X104204653Y-76858691D01*
X104079223Y-76794781D01*
X103884534Y-76731522D01*
X103884532Y-76731521D01*
X103884530Y-76731521D01*
X103884529Y-76731520D01*
X103691861Y-76701006D01*
X103691860Y-76701005D01*
X103682353Y-76699500D01*
X103682352Y-76699500D01*
X103477648Y-76699500D01*
X103477647Y-76699500D01*
X103468138Y-76701006D01*
X103275469Y-76731520D01*
X103275468Y-76731521D01*
X103080777Y-76794780D01*
X103080764Y-76794786D01*
X102898397Y-76887708D01*
X102898385Y-76887715D01*
X102732787Y-77008027D01*
X102732784Y-77008029D01*
X102588029Y-77152784D01*
X102588027Y-77152787D01*
X102467715Y-77318385D01*
X102467708Y-77318397D01*
X102374786Y-77500764D01*
X102374780Y-77500777D01*
X102311521Y-77695468D01*
X102279500Y-77897642D01*
X96600500Y-77897642D01*
X96600500Y-76413389D01*
X96573402Y-76242299D01*
X96519873Y-76077555D01*
X96441232Y-75923212D01*
X96339414Y-75783072D01*
X96216928Y-75660586D01*
X96148397Y-75610795D01*
X96123091Y-75586202D01*
X96122731Y-75585735D01*
X96114615Y-75575210D01*
X96089265Y-75510103D01*
X96103138Y-75441626D01*
X96106407Y-75435433D01*
X96143191Y-75392986D01*
X96148088Y-75389429D01*
X96216928Y-75339414D01*
X96339414Y-75216928D01*
X96441232Y-75076788D01*
X96519873Y-74922445D01*
X96573402Y-74757701D01*
X96600500Y-74586611D01*
X96600500Y-73464107D01*
X101179500Y-73464107D01*
X101179500Y-73653091D01*
X101202947Y-73801129D01*
X101209059Y-73839718D01*
X101267454Y-74019436D01*
X101267455Y-74019437D01*
X101267456Y-74019441D01*
X101303021Y-74089239D01*
X101353022Y-74187371D01*
X101353051Y-74187492D01*
X101353091Y-74187556D01*
X101353112Y-74187546D01*
X101353240Y-74187799D01*
X101464310Y-74340673D01*
X101597927Y-74474290D01*
X101750801Y-74585360D01*
X101804155Y-74612545D01*
X101912720Y-74667862D01*
X101914312Y-74668794D01*
X101918025Y-74670593D01*
X101920023Y-74671586D01*
X101923789Y-74672649D01*
X101975863Y-74689568D01*
X102009505Y-74700499D01*
X102009506Y-74700500D01*
X102039298Y-74710180D01*
X102098881Y-74729540D01*
X102285514Y-74759100D01*
X102285519Y-74759100D01*
X102474485Y-74759100D01*
X102474486Y-74759100D01*
X102661118Y-74729540D01*
X102690951Y-74719846D01*
X102694295Y-74718760D01*
X102694295Y-74718759D01*
X102694304Y-74718757D01*
X102840832Y-74671147D01*
X102902284Y-74639834D01*
X102920877Y-74632192D01*
X102940642Y-74625888D01*
X103877429Y-74171529D01*
X103931542Y-74159100D01*
X105432780Y-74159100D01*
X105432843Y-74159101D01*
X105434747Y-74159101D01*
X105442343Y-74159101D01*
X105600454Y-74159101D01*
X105600457Y-74159101D01*
X105753185Y-74118177D01*
X105803304Y-74089239D01*
X105890116Y-74039120D01*
X106001920Y-73927316D01*
X106001920Y-73927315D01*
X106016731Y-73912504D01*
X106016740Y-73912496D01*
X106022326Y-73906910D01*
X106022337Y-73906895D01*
X107764387Y-72164845D01*
X107812543Y-72134995D01*
X108532849Y-71892798D01*
X108602666Y-71890091D01*
X108662863Y-71925559D01*
X108694330Y-71987942D01*
X108687074Y-72057434D01*
X108660049Y-72098014D01*
X108099484Y-72658578D01*
X108099475Y-72658589D01*
X108099471Y-72658596D01*
X108049056Y-72745921D01*
X108049053Y-72745923D01*
X108049054Y-72745924D01*
X108020423Y-72795513D01*
X108020422Y-72795514D01*
X108020423Y-72795515D01*
X107979499Y-72948243D01*
X107979499Y-72948245D01*
X107979499Y-73118700D01*
X107979500Y-73118751D01*
X107979500Y-76246050D01*
X107966554Y-76301214D01*
X107426769Y-77387875D01*
X107408479Y-77429241D01*
X107406637Y-77434753D01*
X107405927Y-77434515D01*
X107399308Y-77452638D01*
X107374782Y-77500773D01*
X107374780Y-77500778D01*
X107311521Y-77695468D01*
X107279500Y-77897642D01*
X107279500Y-78102356D01*
X107311521Y-78304530D01*
X107374780Y-78499221D01*
X107374786Y-78499234D01*
X107467708Y-78681601D01*
X107467713Y-78681610D01*
X107467715Y-78681613D01*
X107566144Y-78817092D01*
X107588027Y-78847211D01*
X107588029Y-78847214D01*
X107732787Y-78991972D01*
X107815131Y-79051797D01*
X107859885Y-79084312D01*
X107898390Y-79112287D01*
X107979499Y-79153614D01*
X108045219Y-79187100D01*
X108074330Y-79201934D01*
X108075931Y-79202871D01*
X108079620Y-79204658D01*
X108081639Y-79205660D01*
X108085406Y-79206723D01*
X108155818Y-79229601D01*
X108275465Y-79268477D01*
X108376557Y-79284488D01*
X108477648Y-79300500D01*
X108477649Y-79300500D01*
X108682351Y-79300500D01*
X108682352Y-79300500D01*
X108884534Y-79268477D01*
X109079219Y-79205220D01*
X109261610Y-79112287D01*
X109381147Y-79025439D01*
X109388796Y-79019882D01*
X109412240Y-79002849D01*
X109427213Y-78991971D01*
X109427213Y-78991970D01*
X109427273Y-78991927D01*
X109428036Y-78991148D01*
X109571152Y-78848032D01*
X109571924Y-78847275D01*
X109571962Y-78847222D01*
X109571966Y-78847219D01*
X109571968Y-78847215D01*
X109571971Y-78847213D01*
X109645157Y-78746479D01*
X109692287Y-78681610D01*
X109785220Y-78499219D01*
X109848477Y-78304534D01*
X109880500Y-78102352D01*
X109880500Y-77897648D01*
X109848777Y-77697357D01*
X109848477Y-77695465D01*
X109807588Y-77569622D01*
X109786716Y-77505387D01*
X109785658Y-77501635D01*
X109784674Y-77499655D01*
X109782868Y-77495927D01*
X109781936Y-77494334D01*
X109747678Y-77427103D01*
X109740389Y-77409606D01*
X109733233Y-77387883D01*
X109733229Y-77387875D01*
X109225132Y-76365003D01*
X109193446Y-76301214D01*
X109180500Y-76246050D01*
X109180500Y-74707402D01*
X109185522Y-74672469D01*
X109185582Y-74672265D01*
X109189433Y-74659150D01*
X109227206Y-74600373D01*
X109290760Y-74571348D01*
X109291518Y-74571239D01*
X109351253Y-74577336D01*
X109360758Y-74580766D01*
X109374966Y-74586921D01*
X109539351Y-74670680D01*
X109539364Y-74670686D01*
X109629179Y-74699868D01*
X109718997Y-74729051D01*
X109905553Y-74758600D01*
X110094446Y-74758600D01*
X110094447Y-74758600D01*
X110281002Y-74729051D01*
X110460637Y-74670685D01*
X110628937Y-74584931D01*
X110654328Y-74566483D01*
X110654328Y-74566482D01*
X110146341Y-74058495D01*
X110112856Y-73997172D01*
X110117840Y-73927480D01*
X110159712Y-73871547D01*
X110172005Y-73863437D01*
X110214905Y-73838670D01*
X110280070Y-73773505D01*
X110304828Y-73730621D01*
X110355391Y-73682408D01*
X110423997Y-73669183D01*
X110488863Y-73695149D01*
X110499895Y-73704941D01*
X111007882Y-74212928D01*
X111007883Y-74212928D01*
X111026331Y-74187537D01*
X111112086Y-74019235D01*
X111135819Y-73946190D01*
X111151389Y-73914524D01*
X111152771Y-73912504D01*
X111157772Y-73905188D01*
X111211861Y-73860960D01*
X111281275Y-73852995D01*
X111343968Y-73883815D01*
X111346250Y-73885909D01*
X111380344Y-73938955D01*
X111381038Y-73941090D01*
X111387452Y-73960833D01*
X111467623Y-74118176D01*
X111472265Y-74127286D01*
X111473240Y-74129199D01*
X111584310Y-74282073D01*
X111717927Y-74415690D01*
X111870801Y-74526760D01*
X111948760Y-74566482D01*
X112032720Y-74609262D01*
X112034312Y-74610194D01*
X112038025Y-74611993D01*
X112040020Y-74612985D01*
X112043778Y-74614045D01*
X112069905Y-74622534D01*
X112218881Y-74670940D01*
X112405514Y-74700500D01*
X112405519Y-74700500D01*
X112594485Y-74700500D01*
X112594486Y-74700500D01*
X112632254Y-74694518D01*
X112781103Y-74670943D01*
X112781109Y-74670941D01*
X112781118Y-74670940D01*
X112781903Y-74670685D01*
X112960832Y-74612547D01*
X113083911Y-74549834D01*
X113089082Y-74547350D01*
X113112283Y-74536859D01*
X113118799Y-74532705D01*
X113129171Y-74526773D01*
X113129199Y-74526760D01*
X113133843Y-74523385D01*
X113140029Y-74519171D01*
X113830562Y-74079010D01*
X113852128Y-74072721D01*
X113850594Y-74069017D01*
X113865866Y-74062690D01*
X113873585Y-74060069D01*
X113880899Y-74056463D01*
X113880997Y-74056422D01*
X113887525Y-74051412D01*
X113927375Y-74028406D01*
X113927376Y-74028405D01*
X113983671Y-73995902D01*
X113987105Y-73993995D01*
X113990970Y-73991930D01*
X113990996Y-73991912D01*
X113992540Y-73990987D01*
X113997145Y-73988124D01*
X114010311Y-73980523D01*
X114010311Y-73980522D01*
X114010316Y-73980520D01*
X114027694Y-73963140D01*
X114036680Y-73954996D01*
X114071398Y-73926507D01*
X114241812Y-73756093D01*
X114277966Y-73715845D01*
X114277973Y-73715832D01*
X114280629Y-73712219D01*
X114292873Y-73697959D01*
X114860424Y-73130408D01*
X114888675Y-73109260D01*
X114900858Y-73102607D01*
X114969132Y-73087757D01*
X115034593Y-73112174D01*
X115040193Y-73116366D01*
X115076361Y-73159333D01*
X115087714Y-73181614D01*
X115208024Y-73347209D01*
X115208028Y-73347213D01*
X115352786Y-73491971D01*
X115493882Y-73594481D01*
X115518390Y-73612287D01*
X115605634Y-73656740D01*
X115674919Y-73692043D01*
X115694329Y-73701933D01*
X115695925Y-73702868D01*
X115699623Y-73704659D01*
X115701639Y-73705660D01*
X115705406Y-73706723D01*
X115803751Y-73738677D01*
X115895465Y-73768477D01*
X115996557Y-73784488D01*
X116097648Y-73800500D01*
X116097649Y-73800500D01*
X116302351Y-73800500D01*
X116302352Y-73800500D01*
X116504534Y-73768477D01*
X116699219Y-73705220D01*
X116881610Y-73612287D01*
X116960254Y-73555149D01*
X116986468Y-73536104D01*
X117018926Y-73512522D01*
X117047213Y-73491971D01*
X117047214Y-73491969D01*
X117047272Y-73491927D01*
X117048014Y-73491170D01*
X117099076Y-73440108D01*
X117107662Y-73432293D01*
X117115059Y-73426172D01*
X117119979Y-73420123D01*
X117128473Y-73410710D01*
X117191169Y-73348015D01*
X117191927Y-73347273D01*
X117191971Y-73347213D01*
X117232912Y-73290862D01*
X117275348Y-73232453D01*
X117297243Y-73202316D01*
X117312287Y-73181610D01*
X117405220Y-72999219D01*
X117412996Y-72975283D01*
X117424578Y-72949838D01*
X117755714Y-72397642D01*
X119899500Y-72397642D01*
X119899500Y-72602356D01*
X119931521Y-72804530D01*
X119931522Y-72804534D01*
X119952275Y-72868404D01*
X119994780Y-72999221D01*
X119994783Y-72999228D01*
X120049371Y-73106360D01*
X120049372Y-73106362D01*
X120076361Y-73159333D01*
X120077759Y-73162075D01*
X120087714Y-73181612D01*
X120087715Y-73181614D01*
X120156355Y-73276090D01*
X120208028Y-73347213D01*
X120352786Y-73491971D01*
X120493882Y-73594481D01*
X120518390Y-73612287D01*
X120605634Y-73656740D01*
X120674919Y-73692043D01*
X120694329Y-73701933D01*
X120695925Y-73702868D01*
X120699623Y-73704659D01*
X120701639Y-73705660D01*
X120705406Y-73706723D01*
X120803751Y-73738677D01*
X120895465Y-73768477D01*
X120996557Y-73784488D01*
X121097648Y-73800500D01*
X121097649Y-73800500D01*
X121302351Y-73800500D01*
X121302352Y-73800500D01*
X121504534Y-73768477D01*
X121699219Y-73705220D01*
X121881610Y-73612287D01*
X121960254Y-73555149D01*
X121986468Y-73536104D01*
X121986469Y-73536103D01*
X122047176Y-73491998D01*
X122047270Y-73491929D01*
X122048032Y-73491152D01*
X122191152Y-73348032D01*
X122191926Y-73347273D01*
X122191969Y-73347213D01*
X122191971Y-73347213D01*
X122232912Y-73290862D01*
X122275348Y-73232453D01*
X122297243Y-73202316D01*
X122312287Y-73181610D01*
X122405220Y-72999219D01*
X122468477Y-72804534D01*
X122500500Y-72602352D01*
X122500500Y-72397648D01*
X122478516Y-72258848D01*
X122468477Y-72195465D01*
X122416138Y-72034383D01*
X122406717Y-72005391D01*
X122405659Y-72001635D01*
X122404671Y-71999647D01*
X122402870Y-71995929D01*
X122401932Y-71994327D01*
X122371503Y-71934607D01*
X122350294Y-71892983D01*
X122312287Y-71818390D01*
X122286625Y-71783069D01*
X122191971Y-71652786D01*
X122047213Y-71508028D01*
X122047212Y-71508027D01*
X122047211Y-71508026D01*
X121889507Y-71393450D01*
X121889168Y-71393161D01*
X121881603Y-71387707D01*
X121881239Y-71387524D01*
X121813953Y-71353240D01*
X121813953Y-71353239D01*
X121813951Y-71353239D01*
X121699228Y-71294783D01*
X121699221Y-71294780D01*
X121594316Y-71260694D01*
X121504534Y-71231522D01*
X121504532Y-71231521D01*
X121504530Y-71231521D01*
X121504529Y-71231520D01*
X121329995Y-71203878D01*
X121313409Y-71201251D01*
X121302354Y-71199500D01*
X121302352Y-71199500D01*
X121097648Y-71199500D01*
X121097647Y-71199500D01*
X121073327Y-71203351D01*
X121073326Y-71203350D01*
X120895468Y-71231521D01*
X120700777Y-71294780D01*
X120700764Y-71294786D01*
X120518397Y-71387708D01*
X120518385Y-71387715D01*
X120352787Y-71508027D01*
X120352784Y-71508029D01*
X120208028Y-71652785D01*
X120087715Y-71818385D01*
X120087708Y-71818397D01*
X119994786Y-72000764D01*
X119994780Y-72000777D01*
X119931521Y-72195468D01*
X119899500Y-72397642D01*
X117755714Y-72397642D01*
X117981276Y-72021500D01*
X117999933Y-71997599D01*
X121225215Y-68772317D01*
X121253464Y-68751170D01*
X121263393Y-68745748D01*
X121331665Y-68730897D01*
X121397129Y-68755314D01*
X121439001Y-68811247D01*
X121439002Y-68811252D01*
X121442778Y-68821377D01*
X121449885Y-68851453D01*
X121455907Y-68907482D01*
X121483690Y-68981971D01*
X121506202Y-69042328D01*
X121506203Y-69042330D01*
X121506204Y-69042332D01*
X121506205Y-69042333D01*
X121592450Y-69157542D01*
X121592452Y-69157544D01*
X121592455Y-69157547D01*
X121707664Y-69243793D01*
X121707671Y-69243797D01*
X121757150Y-69262251D01*
X121792501Y-69288714D01*
X121842516Y-69294091D01*
X121848925Y-69294780D01*
X121902127Y-69300500D01*
X123097872Y-69300499D01*
X123157483Y-69294091D01*
X123292331Y-69243796D01*
X123407546Y-69157546D01*
X123420302Y-69140504D01*
X123445251Y-69115554D01*
X123456365Y-69107234D01*
X123521826Y-69082817D01*
X123590095Y-69097666D01*
X123601802Y-69104058D01*
X123602283Y-69104321D01*
X123630536Y-69125471D01*
X125088536Y-70583472D01*
X125089052Y-70583852D01*
X125091675Y-70585263D01*
X125142062Y-70614353D01*
X125208155Y-70652512D01*
X125208158Y-70652513D01*
X125232191Y-70666389D01*
X125237481Y-70669076D01*
X125252505Y-70678233D01*
X125299505Y-70729931D01*
X125311094Y-70798833D01*
X125283592Y-70863062D01*
X125283588Y-70863067D01*
X125277880Y-70869980D01*
X125247360Y-70896567D01*
X125181344Y-70937286D01*
X125057289Y-71061341D01*
X125057286Y-71061345D01*
X124965188Y-71210658D01*
X124965187Y-71210662D01*
X124965186Y-71210665D01*
X124958275Y-71231521D01*
X124920878Y-71344375D01*
X124905122Y-71375955D01*
X124897223Y-71387364D01*
X124842878Y-71431277D01*
X124773424Y-71438839D01*
X124766396Y-71437581D01*
X124715360Y-71415839D01*
X124629202Y-71353242D01*
X124629201Y-71353241D01*
X124629199Y-71353240D01*
X124598013Y-71337350D01*
X124460836Y-71267454D01*
X124281118Y-71209059D01*
X124281112Y-71209058D01*
X124094491Y-71179500D01*
X124094486Y-71179500D01*
X124094481Y-71179500D01*
X123905519Y-71179500D01*
X123905514Y-71179500D01*
X123905509Y-71179500D01*
X123718886Y-71209058D01*
X123718884Y-71209058D01*
X123718881Y-71209059D01*
X123539163Y-71267454D01*
X123485533Y-71294780D01*
X123370800Y-71353239D01*
X123337820Y-71377202D01*
X123229798Y-71455685D01*
X123222417Y-71459818D01*
X123079818Y-71602417D01*
X123075685Y-71609798D01*
X123038785Y-71660586D01*
X123038784Y-71660585D01*
X122973244Y-71750794D01*
X122973236Y-71750807D01*
X122950828Y-71794785D01*
X122887454Y-71919163D01*
X122829059Y-72098881D01*
X122829058Y-72098884D01*
X122829058Y-72098886D01*
X122799500Y-72285507D01*
X122799500Y-72474491D01*
X122828657Y-72658578D01*
X122829059Y-72661118D01*
X122887454Y-72840836D01*
X122922274Y-72909173D01*
X122962356Y-72987839D01*
X122965689Y-72994379D01*
X122973240Y-73009199D01*
X122973241Y-73009200D01*
X122973242Y-73009203D01*
X123053482Y-73119642D01*
X123084310Y-73162073D01*
X123217927Y-73295690D01*
X123370801Y-73406760D01*
X123420891Y-73432282D01*
X123448778Y-73446491D01*
X123532716Y-73489260D01*
X123534310Y-73490193D01*
X123537997Y-73491979D01*
X123540025Y-73492987D01*
X123543793Y-73494050D01*
X123582477Y-73506619D01*
X123635495Y-73523845D01*
X123635496Y-73523846D01*
X123656343Y-73530619D01*
X123718881Y-73550940D01*
X123905514Y-73580500D01*
X123905519Y-73580500D01*
X124094482Y-73580500D01*
X124094485Y-73580500D01*
X124168025Y-73568851D01*
X124220174Y-73560592D01*
X124289467Y-73569546D01*
X124342919Y-73614542D01*
X124363559Y-73681294D01*
X124357255Y-73722140D01*
X124331028Y-73801129D01*
X124301026Y-73849735D01*
X121815611Y-76335150D01*
X121767450Y-76365003D01*
X120617358Y-76751712D01*
X120617355Y-76751713D01*
X120575131Y-76768050D01*
X120569929Y-76770648D01*
X120569594Y-76769977D01*
X120552125Y-76778095D01*
X120500773Y-76794781D01*
X120500770Y-76794783D01*
X120318397Y-76887708D01*
X120318385Y-76887715D01*
X120152787Y-77008027D01*
X120152784Y-77008029D01*
X120008029Y-77152784D01*
X120008027Y-77152787D01*
X119887715Y-77318385D01*
X119887708Y-77318397D01*
X119794786Y-77500764D01*
X119794780Y-77500777D01*
X119731521Y-77695468D01*
X119699500Y-77897642D01*
X119699500Y-78102356D01*
X119725054Y-78263697D01*
X119731522Y-78304534D01*
X119794781Y-78499223D01*
X119831233Y-78570763D01*
X119832321Y-78572898D01*
X119839610Y-78590395D01*
X119846765Y-78612115D01*
X119846766Y-78612117D01*
X120367580Y-79660588D01*
X120386554Y-79698784D01*
X120399500Y-79753948D01*
X120399500Y-84310652D01*
X120388529Y-84361645D01*
X120289704Y-84580691D01*
X119948592Y-85336762D01*
X119937504Y-85363334D01*
X119935887Y-85368389D01*
X119935142Y-85368150D01*
X119928142Y-85387459D01*
X119908916Y-85425192D01*
X119908914Y-85425196D01*
X119893440Y-85472823D01*
X119877868Y-85504495D01*
X119871483Y-85513833D01*
X119817395Y-85558062D01*
X119747981Y-85566027D01*
X119685283Y-85535202D01*
X119682984Y-85533091D01*
X119648913Y-85480069D01*
X119631083Y-85425193D01*
X119567548Y-85300499D01*
X119567548Y-85300498D01*
X119543866Y-85254020D01*
X119522608Y-85224761D01*
X119430945Y-85098598D01*
X119295102Y-84962755D01*
X119139903Y-84849996D01*
X119139679Y-84849833D01*
X119128200Y-84843985D01*
X119128198Y-84843984D01*
X118968511Y-84762617D01*
X118968500Y-84762613D01*
X118785804Y-84703253D01*
X118785805Y-84703253D01*
X118672792Y-84685354D01*
X118596055Y-84673200D01*
X118596054Y-84673200D01*
X118403941Y-84673200D01*
X118340696Y-84683217D01*
X118214193Y-84703253D01*
X118031498Y-84762613D01*
X118031482Y-84762620D01*
X117860335Y-84849825D01*
X117860321Y-84849833D01*
X117860318Y-84849834D01*
X117860318Y-84849835D01*
X117808385Y-84887567D01*
X117808384Y-84887568D01*
X117808383Y-84887567D01*
X117716768Y-84954130D01*
X117709389Y-84958262D01*
X117564562Y-85103089D01*
X117560432Y-85110465D01*
X117537008Y-85142707D01*
X117537006Y-85142709D01*
X117456139Y-85254012D01*
X117456135Y-85254018D01*
X117456134Y-85254020D01*
X117456125Y-85254035D01*
X117368920Y-85425182D01*
X117368914Y-85425195D01*
X117353440Y-85472823D01*
X117337868Y-85504495D01*
X117331483Y-85513833D01*
X117277395Y-85558062D01*
X117207981Y-85566027D01*
X117145283Y-85535202D01*
X117142984Y-85533091D01*
X117108913Y-85480069D01*
X117091083Y-85425193D01*
X117058493Y-85361233D01*
X117050923Y-85342872D01*
X117045851Y-85327086D01*
X117044429Y-85322660D01*
X116763824Y-84747203D01*
X116573045Y-84355958D01*
X116560500Y-84301610D01*
X116560500Y-79761975D01*
X116574916Y-79703946D01*
X117074033Y-78761416D01*
X117146723Y-78624149D01*
X117148158Y-78621420D01*
X117148213Y-78621315D01*
X117148286Y-78621175D01*
X117172023Y-78568514D01*
X117172026Y-78568498D01*
X117173161Y-78565116D01*
X117180249Y-78548225D01*
X117205220Y-78499219D01*
X117268477Y-78304534D01*
X117300500Y-78102352D01*
X117300500Y-77897648D01*
X117268777Y-77697357D01*
X117268477Y-77695465D01*
X117227588Y-77569622D01*
X117206716Y-77505387D01*
X117205658Y-77501633D01*
X117204672Y-77499650D01*
X117202872Y-77495933D01*
X117201936Y-77494335D01*
X117162501Y-77416941D01*
X117112287Y-77318390D01*
X117112283Y-77318385D01*
X117085298Y-77281242D01*
X116991972Y-77152787D01*
X116847211Y-77008026D01*
X116689507Y-76893450D01*
X116689168Y-76893161D01*
X116681603Y-76887707D01*
X116681188Y-76887498D01*
X116624654Y-76858691D01*
X116624653Y-76858691D01*
X116499223Y-76794781D01*
X116304534Y-76731522D01*
X116304532Y-76731521D01*
X116304530Y-76731521D01*
X116304529Y-76731520D01*
X116111861Y-76701006D01*
X116111860Y-76701005D01*
X116102353Y-76699500D01*
X116102352Y-76699500D01*
X115897648Y-76699500D01*
X115897647Y-76699500D01*
X115888138Y-76701006D01*
X115695469Y-76731520D01*
X115695468Y-76731521D01*
X115500777Y-76794780D01*
X115500764Y-76794786D01*
X115318397Y-76887708D01*
X115318385Y-76887715D01*
X115152787Y-77008027D01*
X115152784Y-77008029D01*
X115008029Y-77152784D01*
X115008027Y-77152787D01*
X114887715Y-77318385D01*
X114887708Y-77318397D01*
X114794786Y-77500764D01*
X114794780Y-77500777D01*
X114731521Y-77695468D01*
X114699500Y-77897642D01*
X114699500Y-78102356D01*
X114725054Y-78263697D01*
X114731522Y-78304534D01*
X114794780Y-78499221D01*
X114794782Y-78499225D01*
X114827471Y-78563381D01*
X114835752Y-78584029D01*
X114840419Y-78599578D01*
X114840419Y-78599579D01*
X115120884Y-79204128D01*
X115325075Y-79644269D01*
X115347985Y-79693651D01*
X115359500Y-79745835D01*
X115359500Y-84301609D01*
X115346955Y-84355957D01*
X114875570Y-85322659D01*
X114858257Y-85362404D01*
X114856456Y-85367878D01*
X114855716Y-85367634D01*
X114849132Y-85385513D01*
X114828918Y-85425185D01*
X114828913Y-85425198D01*
X114769553Y-85607893D01*
X114739500Y-85797639D01*
X114739500Y-85989759D01*
X114769553Y-86179505D01*
X114769553Y-86179507D01*
X114773069Y-86190326D01*
X114779088Y-86225108D01*
X114779484Y-86238977D01*
X114761721Y-86306551D01*
X114710257Y-86353788D01*
X114703986Y-86356872D01*
X114649264Y-86369600D01*
X110368028Y-86369600D01*
X110333092Y-86364577D01*
X110307850Y-86357165D01*
X110255105Y-86325869D01*
X108903599Y-84974363D01*
X108874707Y-84928952D01*
X108846075Y-84849991D01*
X108411113Y-83650449D01*
X108387926Y-83586503D01*
X108380499Y-83544233D01*
X108380499Y-83400008D01*
X108380499Y-83399998D01*
X108380498Y-83399981D01*
X108369999Y-83297203D01*
X108369998Y-83297200D01*
X108314814Y-83130666D01*
X108222712Y-82981344D01*
X108098656Y-82857288D01*
X108098655Y-82857287D01*
X107998066Y-82795244D01*
X107998063Y-82795241D01*
X107949339Y-82765188D01*
X107949335Y-82765186D01*
X107949313Y-82765178D01*
X107926747Y-82757701D01*
X107926746Y-82757701D01*
X107791265Y-82712807D01*
X107788445Y-82711641D01*
X107782792Y-82709999D01*
X107680019Y-82699500D01*
X107680010Y-82699500D01*
X106479998Y-82699500D01*
X106479981Y-82699501D01*
X106465959Y-82700933D01*
X106377198Y-82710000D01*
X106377193Y-82710001D01*
X106377032Y-82710056D01*
X106210666Y-82765185D01*
X106210664Y-82765186D01*
X106061347Y-82857285D01*
X106004728Y-82913904D01*
X105976473Y-82935055D01*
X105962754Y-82942546D01*
X105894481Y-82957397D01*
X105894471Y-82957396D01*
X105887894Y-82956925D01*
X105823866Y-82933560D01*
X105761355Y-82888144D01*
X105761354Y-82888143D01*
X105761352Y-82888142D01*
X105579031Y-82795244D01*
X105384417Y-82732009D01*
X105384411Y-82732008D01*
X105182322Y-82700000D01*
X105182317Y-82700000D01*
X104977683Y-82700000D01*
X104977678Y-82700000D01*
X104775587Y-82732008D01*
X104775585Y-82732008D01*
X104775582Y-82732009D01*
X104696524Y-82757697D01*
X104580963Y-82795245D01*
X104398640Y-82888145D01*
X104354077Y-82920522D01*
X104354077Y-82920524D01*
X104897054Y-83463501D01*
X104930539Y-83524824D01*
X104925555Y-83594516D01*
X104883683Y-83650449D01*
X104871374Y-83658568D01*
X104834400Y-83679915D01*
X104834392Y-83679921D01*
X104759921Y-83754392D01*
X104759915Y-83754400D01*
X104738568Y-83791374D01*
X104688001Y-83839589D01*
X104619393Y-83852811D01*
X104554529Y-83826843D01*
X104543501Y-83817054D01*
X104000524Y-83274077D01*
X104000523Y-83274077D01*
X104000522Y-83274077D01*
X103968145Y-83318640D01*
X103875245Y-83500963D01*
X103844848Y-83594516D01*
X103812009Y-83695582D01*
X103812008Y-83695585D01*
X103812008Y-83695587D01*
X103780000Y-83897676D01*
X103780000Y-84102322D01*
X103809230Y-84286870D01*
X103812009Y-84304417D01*
X103875244Y-84499031D01*
X103933434Y-84613234D01*
X103968144Y-84681357D01*
X103968147Y-84681360D01*
X104000517Y-84725914D01*
X104000521Y-84725919D01*
X104000523Y-84725921D01*
X104000524Y-84725922D01*
X104543503Y-84182942D01*
X104604824Y-84149459D01*
X104674515Y-84154443D01*
X104730449Y-84196314D01*
X104738567Y-84208622D01*
X104759920Y-84245606D01*
X104834394Y-84320080D01*
X104871372Y-84341429D01*
X104919587Y-84391995D01*
X104932811Y-84460602D01*
X104906843Y-84525467D01*
X104897053Y-84536497D01*
X104354075Y-85079473D01*
X104354076Y-85079473D01*
X104354076Y-85079474D01*
X104398650Y-85111859D01*
X104459202Y-85142712D01*
X104580963Y-85204753D01*
X104580965Y-85204753D01*
X104580968Y-85204755D01*
X104775582Y-85267990D01*
X104977683Y-85300000D01*
X105182316Y-85300000D01*
X105182317Y-85300000D01*
X105384417Y-85267990D01*
X105579031Y-85204755D01*
X105761341Y-85111863D01*
X105761349Y-85111858D01*
X105817129Y-85071330D01*
X105848339Y-85054861D01*
X105863063Y-85049607D01*
X105932815Y-85045616D01*
X105939238Y-85047109D01*
X105998839Y-85080207D01*
X106061344Y-85142712D01*
X106210666Y-85234814D01*
X106377203Y-85289999D01*
X106479991Y-85300500D01*
X106624234Y-85300499D01*
X106666505Y-85307926D01*
X106928061Y-85402768D01*
X108008953Y-85794707D01*
X108054363Y-85823599D01*
X109681436Y-87450672D01*
X109681952Y-87451052D01*
X109684575Y-87452463D01*
X109761504Y-87496877D01*
X109818305Y-87529671D01*
X109818309Y-87529673D01*
X109818312Y-87529675D01*
X109818316Y-87529677D01*
X109971043Y-87570601D01*
X109971045Y-87570601D01*
X110136754Y-87570601D01*
X110138658Y-87570601D01*
X110138721Y-87570600D01*
X117334980Y-87570600D01*
X117335043Y-87570601D01*
X117336947Y-87570601D01*
X117344543Y-87570601D01*
X117502654Y-87570601D01*
X117502657Y-87570601D01*
X117655385Y-87529677D01*
X117712196Y-87496877D01*
X117792316Y-87450620D01*
X117798839Y-87444096D01*
X117846139Y-87414533D01*
X118863021Y-87064293D01*
X118903341Y-87048442D01*
X118903349Y-87048436D01*
X118908486Y-87045845D01*
X118908908Y-87046682D01*
X118926150Y-87038544D01*
X118968509Y-87024782D01*
X119139681Y-86937565D01*
X119295102Y-86824645D01*
X119430945Y-86688802D01*
X119543865Y-86533381D01*
X119631082Y-86362209D01*
X119637586Y-86342190D01*
X119639339Y-86336798D01*
X119646560Y-86314574D01*
X119662124Y-86282912D01*
X119668515Y-86273566D01*
X119722598Y-86229338D01*
X119792012Y-86221370D01*
X119854707Y-86252188D01*
X119856987Y-86254281D01*
X119891085Y-86307329D01*
X119908913Y-86362201D01*
X119908916Y-86362209D01*
X119938022Y-86419330D01*
X119938023Y-86419331D01*
X119996135Y-86533381D01*
X120109055Y-86688802D01*
X120244898Y-86824645D01*
X120400319Y-86937565D01*
X120476780Y-86976524D01*
X120571493Y-87024783D01*
X120639758Y-87046963D01*
X120658086Y-87054590D01*
X120676972Y-87064290D01*
X120676980Y-87064294D01*
X120952793Y-87159291D01*
X121720594Y-87423742D01*
X121742193Y-87433586D01*
X121794657Y-87463875D01*
X121794662Y-87463879D01*
X121801696Y-87467940D01*
X121801697Y-87467941D01*
X121843941Y-87492331D01*
X121851815Y-87496877D01*
X122004542Y-87537800D01*
X122004543Y-87537800D01*
X128867780Y-87537800D01*
X128867843Y-87537801D01*
X128869747Y-87537801D01*
X128877343Y-87537801D01*
X129035454Y-87537801D01*
X129035457Y-87537801D01*
X129188185Y-87496877D01*
X129188189Y-87496875D01*
X129196058Y-87492331D01*
X129238304Y-87467939D01*
X129297807Y-87433585D01*
X129319404Y-87423741D01*
X130363021Y-87064293D01*
X130403341Y-87048442D01*
X130403349Y-87048436D01*
X130408486Y-87045845D01*
X130408908Y-87046682D01*
X130426150Y-87038544D01*
X130468509Y-87024782D01*
X130639681Y-86937565D01*
X130795102Y-86824645D01*
X130930945Y-86688802D01*
X131043865Y-86533381D01*
X131131082Y-86362209D01*
X131137586Y-86342190D01*
X131139339Y-86336798D01*
X131146560Y-86314574D01*
X131162124Y-86282912D01*
X131168515Y-86273566D01*
X131222598Y-86229338D01*
X131292012Y-86221370D01*
X131354707Y-86252188D01*
X131356987Y-86254281D01*
X131391085Y-86307329D01*
X131408913Y-86362201D01*
X131408916Y-86362209D01*
X131438022Y-86419330D01*
X131438023Y-86419331D01*
X131496135Y-86533381D01*
X131609055Y-86688802D01*
X131744898Y-86824645D01*
X131900319Y-86937565D01*
X131976780Y-86976524D01*
X132071493Y-87024783D01*
X132162845Y-87054464D01*
X132254199Y-87084147D01*
X132443945Y-87114200D01*
X132443946Y-87114200D01*
X132636054Y-87114200D01*
X132636055Y-87114200D01*
X132825801Y-87084147D01*
X133001919Y-87026923D01*
X133008506Y-87024783D01*
X133008506Y-87024782D01*
X133008509Y-87024782D01*
X133179681Y-86937565D01*
X133335102Y-86824645D01*
X133470945Y-86688802D01*
X133583865Y-86533381D01*
X133671082Y-86362209D01*
X133730447Y-86179501D01*
X133760500Y-85989755D01*
X133760500Y-85797645D01*
X133730447Y-85607899D01*
X133700424Y-85515497D01*
X133700424Y-85515496D01*
X133671085Y-85425198D01*
X133671081Y-85425188D01*
X133632874Y-85350204D01*
X133626453Y-85335250D01*
X133623565Y-85327085D01*
X133620235Y-85317667D01*
X133617225Y-85309156D01*
X133114669Y-84350227D01*
X133100500Y-84292667D01*
X133100500Y-79753949D01*
X133113446Y-79698785D01*
X133653234Y-78612116D01*
X133671519Y-78570760D01*
X133671521Y-78570750D01*
X133673365Y-78565235D01*
X133674083Y-78565475D01*
X133680693Y-78547352D01*
X133705220Y-78499219D01*
X133768477Y-78304534D01*
X133800500Y-78102352D01*
X133800500Y-77897648D01*
X133768777Y-77697357D01*
X133768477Y-77695465D01*
X133727588Y-77569622D01*
X133706716Y-77505387D01*
X133705658Y-77501633D01*
X133704672Y-77499650D01*
X133702872Y-77495933D01*
X133701936Y-77494335D01*
X133662501Y-77416941D01*
X133612287Y-77318390D01*
X133612283Y-77318385D01*
X133585298Y-77281242D01*
X133491972Y-77152787D01*
X133347211Y-77008026D01*
X133189507Y-76893450D01*
X133189168Y-76893161D01*
X133181603Y-76887707D01*
X133181188Y-76887498D01*
X133124654Y-76858691D01*
X133124653Y-76858691D01*
X132999223Y-76794781D01*
X132804534Y-76731522D01*
X132804532Y-76731521D01*
X132804530Y-76731521D01*
X132804529Y-76731520D01*
X132611861Y-76701006D01*
X132611860Y-76701005D01*
X132602353Y-76699500D01*
X132602352Y-76699500D01*
X132397648Y-76699500D01*
X132397647Y-76699500D01*
X132388138Y-76701006D01*
X132195469Y-76731520D01*
X132195468Y-76731521D01*
X132000777Y-76794780D01*
X132000764Y-76794786D01*
X131818397Y-76887708D01*
X131818385Y-76887715D01*
X131652787Y-77008027D01*
X131652784Y-77008029D01*
X131508029Y-77152784D01*
X131508027Y-77152787D01*
X131387715Y-77318385D01*
X131387708Y-77318397D01*
X131294786Y-77500764D01*
X131294780Y-77500777D01*
X131231521Y-77695468D01*
X131199500Y-77897642D01*
X131199500Y-78102356D01*
X131225054Y-78263697D01*
X131231522Y-78304534D01*
X131294781Y-78499223D01*
X131331233Y-78570763D01*
X131332321Y-78572898D01*
X131339610Y-78590395D01*
X131346765Y-78612115D01*
X131346766Y-78612117D01*
X131867580Y-79660588D01*
X131886554Y-79698784D01*
X131899500Y-79753948D01*
X131899500Y-84310652D01*
X131888529Y-84361645D01*
X131789704Y-84580691D01*
X131448592Y-85336762D01*
X131437504Y-85363334D01*
X131435887Y-85368389D01*
X131435142Y-85368150D01*
X131428142Y-85387459D01*
X131408916Y-85425192D01*
X131408914Y-85425196D01*
X131393440Y-85472823D01*
X131377868Y-85504495D01*
X131371483Y-85513833D01*
X131317395Y-85558062D01*
X131247981Y-85566027D01*
X131185283Y-85535202D01*
X131182984Y-85533091D01*
X131148913Y-85480069D01*
X131131083Y-85425193D01*
X131067548Y-85300499D01*
X131067548Y-85300498D01*
X131043866Y-85254020D01*
X131022608Y-85224761D01*
X130930945Y-85098598D01*
X130795102Y-84962755D01*
X130639903Y-84849996D01*
X130639679Y-84849833D01*
X130628200Y-84843985D01*
X130628198Y-84843984D01*
X130468511Y-84762617D01*
X130468500Y-84762613D01*
X130285804Y-84703253D01*
X130285805Y-84703253D01*
X130172792Y-84685354D01*
X130096055Y-84673200D01*
X130096054Y-84673200D01*
X129903941Y-84673200D01*
X129840696Y-84683217D01*
X129714193Y-84703253D01*
X129531498Y-84762613D01*
X129531482Y-84762620D01*
X129360335Y-84849825D01*
X129360321Y-84849833D01*
X129360318Y-84849834D01*
X129360318Y-84849835D01*
X129308385Y-84887567D01*
X129308384Y-84887568D01*
X129308383Y-84887567D01*
X129216768Y-84954130D01*
X129209389Y-84958262D01*
X129064562Y-85103089D01*
X129060432Y-85110465D01*
X129037008Y-85142707D01*
X129037006Y-85142709D01*
X128956139Y-85254012D01*
X128956135Y-85254018D01*
X128956134Y-85254020D01*
X128956125Y-85254035D01*
X128868920Y-85425182D01*
X128868914Y-85425195D01*
X128853440Y-85472823D01*
X128837868Y-85504495D01*
X128831483Y-85513833D01*
X128777395Y-85558062D01*
X128707981Y-85566027D01*
X128645283Y-85535202D01*
X128642984Y-85533091D01*
X128608913Y-85480069D01*
X128591083Y-85425193D01*
X128558493Y-85361233D01*
X128550923Y-85342872D01*
X128545851Y-85327086D01*
X128544429Y-85322660D01*
X128263824Y-84747203D01*
X128073045Y-84355958D01*
X128060500Y-84301610D01*
X128060500Y-79761975D01*
X128074916Y-79703946D01*
X128574033Y-78761416D01*
X128646723Y-78624149D01*
X128648158Y-78621420D01*
X128648213Y-78621315D01*
X128648286Y-78621175D01*
X128672023Y-78568514D01*
X128672026Y-78568498D01*
X128673161Y-78565116D01*
X128680249Y-78548225D01*
X128705220Y-78499219D01*
X128768477Y-78304534D01*
X128800500Y-78102352D01*
X128800500Y-78050599D01*
X128801123Y-78042048D01*
X128801034Y-78042044D01*
X128801320Y-78035964D01*
X128801322Y-78035953D01*
X128800661Y-78022982D01*
X128800500Y-78016671D01*
X128800500Y-77897648D01*
X128790366Y-77833668D01*
X128768477Y-77695466D01*
X128737764Y-77600942D01*
X128734015Y-77586498D01*
X128731792Y-77575168D01*
X128597998Y-76893161D01*
X128511619Y-76452851D01*
X128509300Y-76428980D01*
X128509300Y-71194845D01*
X128509300Y-71194843D01*
X128479457Y-71083466D01*
X128472937Y-71059131D01*
X128468381Y-71042128D01*
X128468377Y-71042115D01*
X128443612Y-70999221D01*
X128421054Y-70960150D01*
X128409121Y-70939481D01*
X128389320Y-70905184D01*
X128277516Y-70793380D01*
X128277515Y-70793379D01*
X128273185Y-70789049D01*
X128272163Y-70788027D01*
X128272120Y-70787985D01*
X127229728Y-69745593D01*
X127229719Y-69745583D01*
X127180111Y-69695975D01*
X127106517Y-69622381D01*
X127106516Y-69622380D01*
X126997738Y-69559577D01*
X126997736Y-69559576D01*
X126983722Y-69551485D01*
X126977190Y-69546472D01*
X126961977Y-69540171D01*
X126953815Y-69539097D01*
X126913681Y-69528343D01*
X126913681Y-69528342D01*
X126837317Y-69507881D01*
X126816857Y-69502399D01*
X126816856Y-69502399D01*
X126649243Y-69502399D01*
X126649180Y-69502400D01*
X125775128Y-69502400D01*
X125740192Y-69497377D01*
X125714950Y-69489965D01*
X125662205Y-69458669D01*
X125639858Y-69436322D01*
X125618709Y-69408072D01*
X125612054Y-69395884D01*
X125597203Y-69327614D01*
X125621617Y-69262153D01*
X125627516Y-69254273D01*
X125660806Y-69223598D01*
X125801573Y-69135149D01*
X125801573Y-69135148D01*
X125801576Y-69135147D01*
X125925147Y-69011576D01*
X126018122Y-68863606D01*
X126075841Y-68698657D01*
X126090500Y-68568552D01*
X126090500Y-67231448D01*
X126075841Y-67101343D01*
X126018122Y-66936394D01*
X125925147Y-66788424D01*
X125801576Y-66664853D01*
X125761095Y-66639417D01*
X125665433Y-66579309D01*
X125658825Y-66574039D01*
X125638951Y-66565807D01*
X125633717Y-66564918D01*
X125488658Y-66514159D01*
X125488656Y-66514158D01*
X125488652Y-66514157D01*
X125488629Y-66514154D01*
X125358564Y-66499500D01*
X125358558Y-66499500D01*
X125358552Y-66499500D01*
X124961830Y-66499500D01*
X124926889Y-66494475D01*
X124911890Y-66490070D01*
X124853144Y-66452327D01*
X124851957Y-66450958D01*
X124824477Y-66396083D01*
X124822832Y-66388521D01*
X124820000Y-66362168D01*
X124820000Y-66080000D01*
X124188002Y-66080000D01*
X124120963Y-66060315D01*
X124080615Y-66018000D01*
X124070077Y-65999748D01*
X124070073Y-65999743D01*
X124000256Y-65929926D01*
X124000251Y-65929922D01*
X123914747Y-65880557D01*
X123914746Y-65880556D01*
X123885579Y-65872741D01*
X123819370Y-65855000D01*
X123819367Y-65855000D01*
X123720633Y-65855000D01*
X123720630Y-65855000D01*
X123663405Y-65870333D01*
X123625253Y-65880556D01*
X123625252Y-65880557D01*
X123539748Y-65929922D01*
X123539743Y-65929926D01*
X123469926Y-65999743D01*
X123469922Y-65999748D01*
X123459385Y-66018000D01*
X123408818Y-66066216D01*
X123351998Y-66080000D01*
X122720000Y-66080000D01*
X122720000Y-66357670D01*
X122714975Y-66392614D01*
X122710570Y-66407612D01*
X122672827Y-66466355D01*
X122671458Y-66467542D01*
X122616597Y-66495018D01*
X122609039Y-66496663D01*
X122582668Y-66499500D01*
X121902123Y-66499500D01*
X121900192Y-66499659D01*
X121898548Y-66499885D01*
X121842510Y-66505909D01*
X121822988Y-66513190D01*
X121788512Y-66520691D01*
X121783240Y-66521068D01*
X121778731Y-66521390D01*
X121710458Y-66506542D01*
X121661050Y-66457140D01*
X121646194Y-66388867D01*
X121665563Y-66330668D01*
X121668071Y-66326766D01*
X121684695Y-66306138D01*
X122495715Y-65495118D01*
X122523964Y-65473971D01*
X122533893Y-65468549D01*
X122602165Y-65453698D01*
X122667629Y-65478115D01*
X122709501Y-65534048D01*
X122712182Y-65541236D01*
X122718994Y-65578994D01*
X122720000Y-65580000D01*
X124820000Y-65580000D01*
X124820000Y-65468326D01*
X124825021Y-65433399D01*
X124828207Y-65422546D01*
X124865977Y-65363765D01*
X124929531Y-65334736D01*
X124998686Y-65344674D01*
X125005672Y-65347864D01*
X125041841Y-65372976D01*
X126108721Y-66439857D01*
X127171436Y-67502572D01*
X127171955Y-67502953D01*
X127174587Y-67504370D01*
X127270396Y-67559684D01*
X127308316Y-67581577D01*
X127461043Y-67622501D01*
X127461045Y-67622501D01*
X127626754Y-67622501D01*
X127628658Y-67622501D01*
X127628721Y-67622500D01*
X133769380Y-67622500D01*
X133769443Y-67622501D01*
X133771347Y-67622501D01*
X133778943Y-67622501D01*
X133937054Y-67622501D01*
X133937057Y-67622501D01*
X134089785Y-67581577D01*
X134110719Y-67569489D01*
X134138597Y-67553394D01*
X134160219Y-67543538D01*
X134166049Y-67541530D01*
X135240942Y-67171308D01*
X135276259Y-67155347D01*
X135288991Y-67150419D01*
X135348509Y-67131082D01*
X135519681Y-67043865D01*
X135675102Y-66930945D01*
X135810945Y-66795102D01*
X135923865Y-66639681D01*
X136011082Y-66468509D01*
X136070447Y-66285801D01*
X136100500Y-66096055D01*
X136100500Y-65903945D01*
X136070447Y-65714199D01*
X136032188Y-65596448D01*
X136031560Y-65594515D01*
X136011085Y-65531497D01*
X135978897Y-65468326D01*
X135925137Y-65362816D01*
X135923865Y-65360319D01*
X135912499Y-65344675D01*
X135869947Y-65286107D01*
X135853476Y-65254891D01*
X135849125Y-65242696D01*
X135845137Y-65172940D01*
X135879495Y-65112102D01*
X135936117Y-65080661D01*
X135943589Y-65078811D01*
X135945117Y-65078433D01*
X135974911Y-65074800D01*
X139503001Y-65074800D01*
X139537936Y-65079823D01*
X139550360Y-65083471D01*
X139609138Y-65121245D01*
X139638163Y-65184801D01*
X139630323Y-65249079D01*
X139626838Y-65257666D01*
X139612259Y-65283920D01*
X139556563Y-65360579D01*
X139469385Y-65531671D01*
X139469382Y-65531679D01*
X139410039Y-65714318D01*
X139380000Y-65903978D01*
X139380000Y-66096020D01*
X139408451Y-66275653D01*
X139410040Y-66285684D01*
X139469383Y-66468321D01*
X139542456Y-66611732D01*
X139556560Y-66639413D01*
X139556561Y-66639415D01*
X139573630Y-66662910D01*
X139577798Y-66668646D01*
X140063502Y-66182941D01*
X140124823Y-66149458D01*
X140194514Y-66154442D01*
X140250448Y-66196313D01*
X140258568Y-66208624D01*
X140279917Y-66245602D01*
X140279919Y-66245604D01*
X140279920Y-66245606D01*
X140354394Y-66320080D01*
X140354395Y-66320081D01*
X140354397Y-66320082D01*
X140391373Y-66341430D01*
X140439588Y-66391996D01*
X140452812Y-66460603D01*
X140426844Y-66525468D01*
X140417054Y-66536498D01*
X139931351Y-67022199D01*
X139931351Y-67022200D01*
X139931355Y-67022204D01*
X139960576Y-67043434D01*
X140131671Y-67130613D01*
X140131675Y-67130614D01*
X140131678Y-67130616D01*
X140314315Y-67189959D01*
X140503985Y-67220000D01*
X140696014Y-67220000D01*
X140696015Y-67220000D01*
X140885684Y-67189959D01*
X141068321Y-67130616D01*
X141239419Y-67043436D01*
X141268646Y-67022201D01*
X141268646Y-67022200D01*
X141034869Y-66788423D01*
X140782945Y-66536498D01*
X140749460Y-66475175D01*
X140754444Y-66405483D01*
X140796316Y-66349550D01*
X140808618Y-66341434D01*
X140845606Y-66320080D01*
X140920080Y-66245606D01*
X140941430Y-66208625D01*
X140991994Y-66160411D01*
X141060601Y-66147186D01*
X141125466Y-66173153D01*
X141136497Y-66182943D01*
X141622200Y-66668646D01*
X141622201Y-66668646D01*
X141643436Y-66639419D01*
X141730616Y-66468319D01*
X141746296Y-66420061D01*
X141761867Y-66388393D01*
X141768252Y-66379055D01*
X141822340Y-66334826D01*
X141891754Y-66326861D01*
X141954451Y-66357685D01*
X141956751Y-66359796D01*
X141990823Y-66412821D01*
X142009219Y-66469438D01*
X142011126Y-66472843D01*
X142093131Y-66633785D01*
X142096135Y-66639681D01*
X142209055Y-66795102D01*
X142344898Y-66930945D01*
X142453489Y-67009841D01*
X142470499Y-67022199D01*
X142470500Y-67022201D01*
X142488666Y-67035399D01*
X142513975Y-67059994D01*
X142522450Y-67070985D01*
X142547801Y-67136093D01*
X142533927Y-67204571D01*
X142533925Y-67204575D01*
X142527850Y-67216088D01*
X142505862Y-67245901D01*
X141264791Y-68486973D01*
X141236540Y-68508122D01*
X141213452Y-68520730D01*
X141154022Y-68535900D01*
X139824543Y-68535900D01*
X139671813Y-68576823D01*
X139671812Y-68576823D01*
X139671810Y-68576824D01*
X139649738Y-68589568D01*
X139640626Y-68594829D01*
X139635308Y-68597900D01*
X139619454Y-68607053D01*
X139534887Y-68655876D01*
X139534885Y-68655878D01*
X139534878Y-68655884D01*
X139423077Y-68767686D01*
X137838768Y-70351993D01*
X137785607Y-70383410D01*
X136275263Y-70821169D01*
X136275253Y-70821172D01*
X136264326Y-70825462D01*
X136257340Y-70827966D01*
X136128036Y-70869980D01*
X136045616Y-70896760D01*
X135898758Y-70971589D01*
X135821147Y-71011134D01*
X135617367Y-71159188D01*
X135617338Y-71159210D01*
X135439210Y-71337338D01*
X135439188Y-71337367D01*
X135296869Y-71533254D01*
X135293767Y-71536886D01*
X135288802Y-71544919D01*
X135286915Y-71549427D01*
X135265263Y-71591921D01*
X135176760Y-71765616D01*
X135176759Y-71765618D01*
X135176759Y-71765619D01*
X135098910Y-72005209D01*
X135098910Y-72005212D01*
X135073199Y-72167547D01*
X135059500Y-72254038D01*
X135059500Y-72505967D01*
X135091756Y-72709619D01*
X135094950Y-72729788D01*
X135098910Y-72754785D01*
X135176759Y-72994378D01*
X135176759Y-72994379D01*
X135176762Y-72994388D01*
X135229436Y-73097763D01*
X135245534Y-73129357D01*
X135253030Y-73144069D01*
X135272157Y-73181610D01*
X135291133Y-73218851D01*
X135410244Y-73382793D01*
X135439201Y-73422649D01*
X135439205Y-73422654D01*
X135439210Y-73422660D01*
X135617338Y-73600788D01*
X135617342Y-73600791D01*
X135617345Y-73600794D01*
X135617350Y-73600798D01*
X135742939Y-73692043D01*
X135821155Y-73748870D01*
X135922485Y-73800500D01*
X136039172Y-73859956D01*
X136040767Y-73860889D01*
X136044472Y-73862684D01*
X136046477Y-73863680D01*
X136050243Y-73864743D01*
X136211394Y-73917104D01*
X136285215Y-73941090D01*
X136534038Y-73980500D01*
X136534039Y-73980500D01*
X136785961Y-73980500D01*
X136785962Y-73980500D01*
X137034785Y-73941090D01*
X137274379Y-73863241D01*
X137498845Y-73748870D01*
X137600695Y-73674871D01*
X137631907Y-73658403D01*
X137644102Y-73654052D01*
X137713858Y-73650064D01*
X137774696Y-73684422D01*
X137806134Y-73741028D01*
X137808363Y-73750027D01*
X137812000Y-73779840D01*
X137812000Y-84181359D01*
X137806976Y-84216297D01*
X137803789Y-84227150D01*
X137766014Y-84285927D01*
X137702457Y-84314950D01*
X137633307Y-84305009D01*
X137626329Y-84301822D01*
X137590159Y-84276710D01*
X137442654Y-84129205D01*
X137442649Y-84129201D01*
X137246743Y-83986868D01*
X137246402Y-83986577D01*
X137238838Y-83981124D01*
X137238474Y-83980941D01*
X137166556Y-83944297D01*
X137101088Y-83910939D01*
X137014383Y-83866760D01*
X137014377Y-83866758D01*
X136774787Y-83788910D01*
X136556861Y-83754394D01*
X136525962Y-83749500D01*
X136525961Y-83749500D01*
X136274039Y-83749500D01*
X136274038Y-83749500D01*
X136248657Y-83753520D01*
X136243139Y-83754394D01*
X136025212Y-83788910D01*
X136025209Y-83788910D01*
X135785622Y-83866758D01*
X135785616Y-83866760D01*
X135587348Y-83967784D01*
X135561147Y-83981134D01*
X135357367Y-84129188D01*
X135357338Y-84129210D01*
X135179210Y-84307338D01*
X135179188Y-84307367D01*
X135031134Y-84511147D01*
X135031132Y-84511151D01*
X134916760Y-84735616D01*
X134916759Y-84735618D01*
X134916759Y-84735619D01*
X134838910Y-84975209D01*
X134838910Y-84975212D01*
X134817267Y-85111863D01*
X134799500Y-85224038D01*
X134799500Y-86775961D01*
X134811306Y-86850500D01*
X134838910Y-87024786D01*
X134838910Y-87024789D01*
X134916760Y-87264382D01*
X134916760Y-87264383D01*
X134954685Y-87338816D01*
X134954686Y-87338816D01*
X135020478Y-87467941D01*
X135031128Y-87488842D01*
X135031130Y-87488845D01*
X135031132Y-87488848D01*
X135179201Y-87692649D01*
X135179205Y-87692654D01*
X135179210Y-87692660D01*
X135357338Y-87870788D01*
X135357342Y-87870791D01*
X135357345Y-87870794D01*
X135357350Y-87870798D01*
X135357367Y-87870810D01*
X135525603Y-87993040D01*
X135525604Y-87993041D01*
X135561150Y-88018867D01*
X135561152Y-88018868D01*
X135561155Y-88018870D01*
X135704184Y-88091747D01*
X135704183Y-88091747D01*
X135715019Y-88097268D01*
X135779173Y-88129956D01*
X135780760Y-88130886D01*
X135784478Y-88132687D01*
X135786475Y-88133680D01*
X135790243Y-88134743D01*
X135981727Y-88196960D01*
X136025215Y-88211090D01*
X136274038Y-88250500D01*
X136274039Y-88250500D01*
X136525961Y-88250500D01*
X136525962Y-88250500D01*
X136774785Y-88211090D01*
X137014379Y-88133241D01*
X137238845Y-88018870D01*
X137442656Y-87870793D01*
X137620793Y-87692656D01*
X137673817Y-87619672D01*
X137698413Y-87594363D01*
X137710793Y-87584816D01*
X137775899Y-87559465D01*
X137782471Y-87558901D01*
X137849374Y-87571960D01*
X137893345Y-87594363D01*
X137914705Y-87605246D01*
X137914707Y-87605248D01*
X137932265Y-87614194D01*
X138013527Y-87655599D01*
X138015118Y-87656531D01*
X138018818Y-87658323D01*
X138020831Y-87659324D01*
X138024597Y-87660386D01*
X138062082Y-87672565D01*
X138120315Y-87691486D01*
X138120316Y-87691487D01*
X138127423Y-87693796D01*
X138207173Y-87719709D01*
X138401578Y-87750500D01*
X138401583Y-87750500D01*
X138598421Y-87750500D01*
X138598422Y-87750500D01*
X138792826Y-87719709D01*
X138872574Y-87693797D01*
X138980025Y-87658884D01*
X139155405Y-87569524D01*
X139314646Y-87453828D01*
X139399717Y-87368756D01*
X139427964Y-87347611D01*
X139441688Y-87340117D01*
X139509946Y-87325266D01*
X139511756Y-87325395D01*
X139569953Y-87344761D01*
X139576471Y-87348950D01*
X139597106Y-87365580D01*
X139685354Y-87453828D01*
X139844595Y-87569524D01*
X139914708Y-87605248D01*
X139914709Y-87605249D01*
X139932265Y-87614194D01*
X140013527Y-87655599D01*
X140015118Y-87656531D01*
X140018818Y-87658323D01*
X140020831Y-87659324D01*
X140024597Y-87660386D01*
X140062082Y-87672565D01*
X140120315Y-87691486D01*
X140120316Y-87691487D01*
X140127423Y-87693796D01*
X140207173Y-87719709D01*
X140401578Y-87750500D01*
X140401583Y-87750500D01*
X140598421Y-87750500D01*
X140598422Y-87750500D01*
X140792826Y-87719709D01*
X140872574Y-87693797D01*
X140980025Y-87658884D01*
X141155405Y-87569524D01*
X141177194Y-87553692D01*
X141208399Y-87537225D01*
X141223121Y-87531972D01*
X141292859Y-87527977D01*
X141295087Y-87528495D01*
X141348896Y-87556151D01*
X141354095Y-87560722D01*
X141371480Y-87579529D01*
X141385792Y-87598646D01*
X141387977Y-87602187D01*
X141390340Y-87605015D01*
X141394033Y-87609684D01*
X141401333Y-87614193D01*
X141507664Y-87693793D01*
X141507671Y-87693797D01*
X141557155Y-87712253D01*
X141592513Y-87738721D01*
X141649444Y-87744835D01*
X141649443Y-87744839D01*
X141649458Y-87744836D01*
X141702127Y-87750500D01*
X143297872Y-87750499D01*
X143346831Y-87745236D01*
X143382101Y-87746496D01*
X143405625Y-87750740D01*
X143456132Y-87772191D01*
X143457402Y-87773106D01*
X143472539Y-87785988D01*
X143557345Y-87870794D01*
X143557350Y-87870798D01*
X143557367Y-87870810D01*
X143725603Y-87993040D01*
X143725604Y-87993041D01*
X143761150Y-88018867D01*
X143761152Y-88018868D01*
X143761155Y-88018870D01*
X143904184Y-88091747D01*
X143904183Y-88091747D01*
X143915019Y-88097268D01*
X143979173Y-88129956D01*
X143980760Y-88130886D01*
X143984478Y-88132687D01*
X143986475Y-88133680D01*
X143990243Y-88134743D01*
X144181727Y-88196960D01*
X144225215Y-88211090D01*
X144474038Y-88250500D01*
X144474039Y-88250500D01*
X144725961Y-88250500D01*
X144725962Y-88250500D01*
X144974785Y-88211090D01*
X145214379Y-88133241D01*
X145438845Y-88018870D01*
X145642656Y-87870793D01*
X145820793Y-87692656D01*
X145968870Y-87488845D01*
X146083241Y-87264379D01*
X146161090Y-87024785D01*
X146200500Y-86775962D01*
X146200500Y-85318474D01*
X146220185Y-85251435D01*
X146272989Y-85205680D01*
X146342147Y-85195736D01*
X146405703Y-85224761D01*
X146442891Y-85281603D01*
X146637131Y-85905315D01*
X146643892Y-85927024D01*
X146649500Y-85963893D01*
X146649501Y-86150000D01*
X146649501Y-86150026D01*
X146655180Y-86205619D01*
X146660000Y-86252796D01*
X146660001Y-86252799D01*
X146698104Y-86367784D01*
X146698103Y-86367784D01*
X146715182Y-86419325D01*
X146715185Y-86419330D01*
X146715186Y-86419334D01*
X146807288Y-86568656D01*
X146931344Y-86692712D01*
X147080666Y-86784814D01*
X147247203Y-86839999D01*
X147349991Y-86850500D01*
X148650008Y-86850499D01*
X148752797Y-86839999D01*
X148919334Y-86784814D01*
X149068656Y-86692712D01*
X149192712Y-86568656D01*
X149284814Y-86419334D01*
X149339999Y-86252797D01*
X149350500Y-86150009D01*
X149350499Y-84849992D01*
X149350407Y-84849096D01*
X149341574Y-84762620D01*
X149340000Y-84747211D01*
X149339999Y-84747209D01*
X149339999Y-84747203D01*
X149339998Y-84747200D01*
X149333830Y-84728585D01*
X149284814Y-84580666D01*
X149192712Y-84431344D01*
X149068656Y-84307288D01*
X149068655Y-84307287D01*
X148927317Y-84220110D01*
X148927315Y-84220109D01*
X148919336Y-84215187D01*
X148919332Y-84215185D01*
X148919330Y-84215184D01*
X148919313Y-84215178D01*
X148871059Y-84199189D01*
X148871058Y-84199189D01*
X148761265Y-84162807D01*
X148758439Y-84161639D01*
X148752796Y-84159999D01*
X148650025Y-84149500D01*
X148650016Y-84149500D01*
X148650009Y-84149500D01*
X148463892Y-84149500D01*
X148427022Y-84143892D01*
X148351748Y-84120449D01*
X148293595Y-84081721D01*
X148265611Y-84017701D01*
X148276681Y-83948714D01*
X148323291Y-83896663D01*
X148341168Y-83887497D01*
X148391235Y-83866759D01*
X148450231Y-83842322D01*
X148605908Y-83738302D01*
X148738302Y-83605908D01*
X148842322Y-83450231D01*
X148913973Y-83277251D01*
X148950500Y-83093616D01*
X148950500Y-82906384D01*
X148913973Y-82722749D01*
X148842322Y-82549769D01*
X148842321Y-82549768D01*
X148842318Y-82549762D01*
X148842318Y-82549761D01*
X148738300Y-82394089D01*
X148738299Y-82394088D01*
X148738294Y-82394082D01*
X148605916Y-82261704D01*
X148605910Y-82261699D01*
X148605906Y-82261696D01*
X148450231Y-82157677D01*
X148450232Y-82157677D01*
X148450222Y-82157672D01*
X148277252Y-82086027D01*
X148277225Y-82086021D01*
X148093622Y-82049500D01*
X148093620Y-82049500D01*
X148093616Y-82049500D01*
X147906384Y-82049500D01*
X147906379Y-82049500D01*
X147906377Y-82049500D01*
X147722773Y-82086021D01*
X147722746Y-82086027D01*
X147549774Y-82157674D01*
X147549769Y-82157676D01*
X147549751Y-82157688D01*
X147549210Y-82158050D01*
X147549088Y-82158107D01*
X147548481Y-82158493D01*
X147548435Y-82158420D01*
X147517367Y-82173283D01*
X147504372Y-82177351D01*
X147434513Y-82178593D01*
X147375073Y-82141870D01*
X147346401Y-82086451D01*
X147344572Y-82078391D01*
X147341500Y-82050961D01*
X147341500Y-69576925D01*
X147346522Y-69541992D01*
X147347372Y-69539097D01*
X147353934Y-69516747D01*
X147385228Y-69464005D01*
X148581056Y-68268176D01*
X148592900Y-68261709D01*
X148601745Y-68251512D01*
X148609312Y-68247025D01*
X148612113Y-68245496D01*
X148621669Y-68240278D01*
X148623032Y-68239534D01*
X148640450Y-68235745D01*
X148642377Y-68234693D01*
X148644874Y-68234782D01*
X148691298Y-68224684D01*
X148697620Y-68225136D01*
X148738220Y-68240278D01*
X148738597Y-68239148D01*
X148755571Y-68244798D01*
X148759720Y-68246261D01*
X148807155Y-68263953D01*
X148814566Y-68269500D01*
X148849869Y-68279884D01*
X148892517Y-68295791D01*
X148892516Y-68295791D01*
X148899444Y-68296535D01*
X148952127Y-68302200D01*
X150047872Y-68302199D01*
X150107483Y-68295791D01*
X150242331Y-68245496D01*
X150357546Y-68159246D01*
X150390363Y-68115406D01*
X150415315Y-68090454D01*
X150426432Y-68082132D01*
X150491893Y-68057719D01*
X150560163Y-68072571D01*
X150566992Y-68076300D01*
X150606822Y-68110816D01*
X150642800Y-68158876D01*
X150642810Y-68158888D01*
X150642813Y-68158891D01*
X150671747Y-68180550D01*
X150757906Y-68245050D01*
X150757913Y-68245054D01*
X150892620Y-68295296D01*
X150892627Y-68295298D01*
X150897212Y-68295791D01*
X150952138Y-68301698D01*
X150952155Y-68301699D01*
X150952172Y-68301700D01*
X151250000Y-68301700D01*
X151250000Y-67654324D01*
X151269685Y-67587285D01*
X151322489Y-67541530D01*
X151391647Y-67531586D01*
X151421452Y-67539763D01*
X151438551Y-67546845D01*
X151450272Y-67551700D01*
X151549726Y-67551700D01*
X151549728Y-67551700D01*
X151569433Y-67543538D01*
X151578548Y-67539763D01*
X151648017Y-67532294D01*
X151710496Y-67563569D01*
X151746148Y-67623659D01*
X151750000Y-67654324D01*
X151750000Y-68301700D01*
X152047828Y-68301700D01*
X152047836Y-68301700D01*
X152047847Y-68301699D01*
X152084801Y-68297725D01*
X152107372Y-68295298D01*
X152107379Y-68295296D01*
X152242086Y-68245054D01*
X152242093Y-68245050D01*
X152357187Y-68158890D01*
X152357190Y-68158887D01*
X152443350Y-68043793D01*
X152443354Y-68043786D01*
X152493596Y-67909079D01*
X152493598Y-67909072D01*
X152495658Y-67889915D01*
X152499998Y-67849560D01*
X152500000Y-67849527D01*
X152500000Y-67551700D01*
X151852624Y-67551700D01*
X151785585Y-67532015D01*
X151739830Y-67479211D01*
X151729886Y-67410053D01*
X151738063Y-67380248D01*
X151744302Y-67365184D01*
X151750000Y-67351428D01*
X151750000Y-67251972D01*
X151742505Y-67233878D01*
X151738063Y-67223152D01*
X151730594Y-67153683D01*
X151761869Y-67091204D01*
X151821959Y-67055552D01*
X151852624Y-67051700D01*
X152500000Y-67051700D01*
X152500000Y-66753872D01*
X152499998Y-66753838D01*
X152494280Y-66700671D01*
X152493598Y-66694327D01*
X152493596Y-66694320D01*
X152443354Y-66559613D01*
X152443350Y-66559606D01*
X152369236Y-66460603D01*
X152357191Y-66444513D01*
X152357188Y-66444510D01*
X152357176Y-66444500D01*
X152313710Y-66411961D01*
X152288755Y-66387006D01*
X152280438Y-66375896D01*
X152256020Y-66310432D01*
X152270869Y-66242164D01*
X152274599Y-66235333D01*
X152309118Y-66195498D01*
X152357546Y-66159246D01*
X152443796Y-66044031D01*
X152494091Y-65909183D01*
X152500500Y-65849573D01*
X152500499Y-64753828D01*
X152500499Y-64753822D01*
X152500498Y-64753820D01*
X152496727Y-64718737D01*
X152494091Y-64694217D01*
X152488298Y-64678686D01*
X152488166Y-64678333D01*
X152443798Y-64559373D01*
X152443797Y-64559371D01*
X152443793Y-64559364D01*
X152357916Y-64444648D01*
X152357548Y-64444156D01*
X152357542Y-64444150D01*
X152299616Y-64400786D01*
X152242335Y-64357906D01*
X152242332Y-64357904D01*
X152242330Y-64357903D01*
X152242328Y-64357902D01*
X152192844Y-64339446D01*
X152157497Y-64312984D01*
X152055583Y-64302028D01*
X152050742Y-64301200D01*
X152047881Y-64301200D01*
X152047873Y-64301200D01*
X152047864Y-64301200D01*
X150952129Y-64301200D01*
X150952127Y-64301200D01*
X150952101Y-64301202D01*
X150934483Y-64303096D01*
X150899212Y-64301835D01*
X150875687Y-64297590D01*
X150825150Y-64276116D01*
X150823892Y-64275209D01*
X150808776Y-64262340D01*
X150540215Y-63993779D01*
X150509864Y-63976256D01*
X150443897Y-63938171D01*
X150443894Y-63938168D01*
X150403283Y-63914722D01*
X150403278Y-63914720D01*
X150347382Y-63899742D01*
X150347382Y-63899743D01*
X150295722Y-63885901D01*
X150250557Y-63873799D01*
X150250556Y-63873799D01*
X150082943Y-63873799D01*
X150082880Y-63873800D01*
X133954321Y-63873800D01*
X133954258Y-63873799D01*
X133952354Y-63873799D01*
X133944758Y-63873799D01*
X133786643Y-63873799D01*
X133710278Y-63894260D01*
X133710279Y-63894261D01*
X133633917Y-63914722D01*
X133633915Y-63914722D01*
X133633914Y-63914723D01*
X133633912Y-63914723D01*
X133633843Y-63914753D01*
X133633034Y-63915230D01*
X133496998Y-63993770D01*
X133496993Y-63993772D01*
X133496990Y-63993775D01*
X133496986Y-63993778D01*
X133496983Y-63993780D01*
X133041155Y-64449606D01*
X132993855Y-64479165D01*
X131976972Y-64829407D01*
X131936588Y-64845287D01*
X131931452Y-64847880D01*
X131931081Y-64847146D01*
X131913814Y-64855164D01*
X131871496Y-64868914D01*
X131700318Y-64956134D01*
X131639944Y-65000000D01*
X131556766Y-65060431D01*
X131549387Y-65064564D01*
X131404562Y-65209389D01*
X131400430Y-65216768D01*
X131373094Y-65254393D01*
X131373094Y-65254394D01*
X131296135Y-65360317D01*
X131208917Y-65531490D01*
X131193175Y-65579938D01*
X131177602Y-65611610D01*
X131171218Y-65620946D01*
X131117129Y-65665173D01*
X131047714Y-65673137D01*
X130985017Y-65642309D01*
X130982718Y-65640200D01*
X130948649Y-65587178D01*
X130930616Y-65531680D01*
X130843434Y-65360577D01*
X130843245Y-65360317D01*
X130822204Y-65331355D01*
X130822200Y-65331351D01*
X130336497Y-65817053D01*
X130275174Y-65850538D01*
X130205482Y-65845554D01*
X130149549Y-65803682D01*
X130141430Y-65791374D01*
X130120080Y-65754394D01*
X130045606Y-65679920D01*
X130008625Y-65658569D01*
X129960410Y-65608003D01*
X129947186Y-65539396D01*
X129973154Y-65474531D01*
X129982933Y-65463512D01*
X130468646Y-64977798D01*
X130449183Y-64963658D01*
X130439415Y-64956561D01*
X130439413Y-64956560D01*
X130438577Y-64956134D01*
X130268321Y-64869383D01*
X130085684Y-64810040D01*
X130085682Y-64810039D01*
X130085680Y-64810039D01*
X129896020Y-64780000D01*
X129896015Y-64780000D01*
X129703985Y-64780000D01*
X129703980Y-64780000D01*
X129514318Y-64810039D01*
X129514315Y-64810040D01*
X129331678Y-64869383D01*
X129272571Y-64899500D01*
X129160569Y-64956568D01*
X129156422Y-64959110D01*
X129155265Y-64957223D01*
X129137207Y-64963658D01*
X129131350Y-64977798D01*
X129617055Y-65463501D01*
X129650540Y-65524824D01*
X129645556Y-65594515D01*
X129603685Y-65650449D01*
X129591374Y-65658569D01*
X129554397Y-65679917D01*
X129554392Y-65679921D01*
X129479921Y-65754392D01*
X129479915Y-65754400D01*
X129458568Y-65791374D01*
X129408001Y-65839589D01*
X129339393Y-65852811D01*
X129274529Y-65826843D01*
X129263501Y-65817054D01*
X128777798Y-65331350D01*
X128764329Y-65336930D01*
X128758682Y-65356160D01*
X128759110Y-65356422D01*
X128758141Y-65358002D01*
X128758113Y-65358100D01*
X128757810Y-65358542D01*
X128756568Y-65360569D01*
X128724989Y-65422546D01*
X128669383Y-65531678D01*
X128669382Y-65531680D01*
X128669382Y-65531681D01*
X128610039Y-65714318D01*
X128580000Y-65903978D01*
X128580000Y-66096015D01*
X128579999Y-66096015D01*
X128606050Y-66260493D01*
X128606555Y-66295776D01*
X128604777Y-66309540D01*
X128576666Y-66373505D01*
X128518436Y-66412118D01*
X128518433Y-66412119D01*
X128505996Y-66415965D01*
X128469362Y-66421500D01*
X127858028Y-66421500D01*
X127823092Y-66416477D01*
X127797850Y-66409065D01*
X127745105Y-66377769D01*
X127117336Y-65750000D01*
X126386806Y-65019470D01*
X125639957Y-64272622D01*
X125639956Y-64272620D01*
X125514017Y-64146681D01*
X125514012Y-64146677D01*
X125448097Y-64108621D01*
X125434730Y-64096998D01*
X125412142Y-64087863D01*
X125377086Y-64067623D01*
X125338903Y-64057392D01*
X125224357Y-64026699D01*
X125224354Y-64026699D01*
X125056743Y-64026699D01*
X125056680Y-64026700D01*
X122435343Y-64026700D01*
X122284421Y-64067139D01*
X122282700Y-64067572D01*
X122263358Y-64078739D01*
X122232496Y-64096559D01*
X122232495Y-64096560D01*
X122189089Y-64121620D01*
X122189088Y-64121619D01*
X122145689Y-64146675D01*
X122145687Y-64146677D01*
X122145681Y-64146681D01*
X122145676Y-64146685D01*
X118773788Y-67518575D01*
X118745538Y-67539724D01*
X118735611Y-67545145D01*
X118667338Y-67559999D01*
X118601873Y-67535585D01*
X118560000Y-67479653D01*
X118557313Y-67472447D01*
X118549500Y-67429127D01*
X118549500Y-67231420D01*
X118549419Y-67230733D01*
X118545287Y-67194059D01*
X118545287Y-67194058D01*
X118534842Y-67101351D01*
X118534841Y-67101349D01*
X118534841Y-67101343D01*
X118477122Y-66936394D01*
X118384147Y-66788424D01*
X118260576Y-66664853D01*
X118220095Y-66639417D01*
X118124433Y-66579309D01*
X118117825Y-66574039D01*
X118097951Y-66565807D01*
X118092717Y-66564918D01*
X117947658Y-66514159D01*
X117947656Y-66514158D01*
X117947652Y-66514157D01*
X117947629Y-66514154D01*
X117817564Y-66499500D01*
X117817558Y-66499500D01*
X117817552Y-66499500D01*
X117420830Y-66499500D01*
X117385889Y-66494475D01*
X117370890Y-66490070D01*
X117312144Y-66452327D01*
X117310957Y-66450958D01*
X117283477Y-66396083D01*
X117281832Y-66388521D01*
X117279000Y-66362168D01*
X117279000Y-66080000D01*
X116647002Y-66080000D01*
X116579963Y-66060315D01*
X116539615Y-66018000D01*
X116529077Y-65999748D01*
X116529073Y-65999743D01*
X116459256Y-65929926D01*
X116459251Y-65929922D01*
X116373747Y-65880557D01*
X116373746Y-65880556D01*
X116344579Y-65872741D01*
X116278370Y-65855000D01*
X116278367Y-65855000D01*
X116179633Y-65855000D01*
X116179630Y-65855000D01*
X116122405Y-65870333D01*
X116084253Y-65880556D01*
X116084252Y-65880557D01*
X115998748Y-65929922D01*
X115998743Y-65929926D01*
X115928926Y-65999743D01*
X115928922Y-65999748D01*
X115918385Y-66018000D01*
X115867818Y-66066216D01*
X115810998Y-66080000D01*
X115179000Y-66080000D01*
X115179000Y-66357670D01*
X115173975Y-66392614D01*
X115169570Y-66407612D01*
X115131827Y-66466355D01*
X115130458Y-66467542D01*
X115075597Y-66495018D01*
X115068039Y-66496663D01*
X115041668Y-66499500D01*
X114361123Y-66499500D01*
X114359192Y-66499659D01*
X114357545Y-66499885D01*
X114301516Y-66505908D01*
X114188287Y-66548140D01*
X114166666Y-66556204D01*
X114166657Y-66556210D01*
X114123545Y-66588484D01*
X114117755Y-66592566D01*
X114099817Y-66604458D01*
X114099816Y-66604459D01*
X114098616Y-66605651D01*
X114085575Y-66616908D01*
X114051468Y-66642441D01*
X114051455Y-66642452D01*
X114051442Y-66642467D01*
X114027685Y-66674201D01*
X114015790Y-66687878D01*
X114005479Y-66698117D01*
X113997705Y-66705835D01*
X113997703Y-66705837D01*
X113794037Y-66975861D01*
X113760329Y-67006169D01*
X113760467Y-67006376D01*
X113759042Y-67007326D01*
X113758805Y-67007540D01*
X113756705Y-67008798D01*
X113751784Y-67011857D01*
X113738586Y-67019477D01*
X113738578Y-67019484D01*
X113721211Y-67036851D01*
X113712190Y-67045027D01*
X113677511Y-67073482D01*
X113677499Y-67073493D01*
X113511841Y-67239152D01*
X113511822Y-67239172D01*
X113475692Y-67279394D01*
X113473023Y-67283027D01*
X113460785Y-67297276D01*
X110104788Y-70653275D01*
X110076538Y-70674424D01*
X110066611Y-70679845D01*
X109998338Y-70694699D01*
X109932873Y-70670285D01*
X109891000Y-70614353D01*
X109888313Y-70607147D01*
X109880500Y-70563827D01*
X109880500Y-70397648D01*
X109849069Y-70199205D01*
X109848477Y-70195465D01*
X109817894Y-70101342D01*
X109801585Y-70051147D01*
X109801582Y-70051140D01*
X109801579Y-70051130D01*
X109786717Y-70005388D01*
X109785658Y-70001633D01*
X109784677Y-69999659D01*
X109782871Y-69995931D01*
X109781930Y-69994323D01*
X109745797Y-69923410D01*
X109745796Y-69923409D01*
X109729521Y-69891467D01*
X109692287Y-69818390D01*
X109671264Y-69789454D01*
X109571971Y-69652786D01*
X109427213Y-69508028D01*
X109427212Y-69508027D01*
X109427211Y-69508026D01*
X109269507Y-69393450D01*
X109269168Y-69393161D01*
X109261603Y-69387707D01*
X109261188Y-69387498D01*
X109204654Y-69358691D01*
X109204653Y-69358691D01*
X109079223Y-69294781D01*
X108884534Y-69231522D01*
X108884532Y-69231521D01*
X108884530Y-69231521D01*
X108884529Y-69231520D01*
X108709995Y-69203878D01*
X108693409Y-69201251D01*
X108682354Y-69199500D01*
X108682352Y-69199500D01*
X108477648Y-69199500D01*
X108477647Y-69199500D01*
X108453327Y-69203351D01*
X108453326Y-69203350D01*
X108275468Y-69231521D01*
X108080777Y-69294780D01*
X108080764Y-69294786D01*
X107898397Y-69387708D01*
X107898385Y-69387715D01*
X107732787Y-69508027D01*
X107732784Y-69508029D01*
X107588032Y-69652782D01*
X107588027Y-69652787D01*
X107467715Y-69818385D01*
X107467708Y-69818397D01*
X107374783Y-70000770D01*
X107374779Y-70000779D01*
X107349224Y-70079427D01*
X107342010Y-70096946D01*
X107331709Y-70117368D01*
X107331706Y-70117376D01*
X107258985Y-70333655D01*
X106945003Y-71267449D01*
X106915150Y-71315610D01*
X105321591Y-72909173D01*
X105293340Y-72930322D01*
X105270252Y-72942930D01*
X105210822Y-72958100D01*
X103931544Y-72958100D01*
X103877431Y-72945670D01*
X103843886Y-72929400D01*
X102940642Y-72491310D01*
X102901339Y-72474265D01*
X102901338Y-72474264D01*
X102901332Y-72474262D01*
X102896079Y-72472541D01*
X102878393Y-72465190D01*
X102855724Y-72453640D01*
X102840836Y-72446054D01*
X102661118Y-72387659D01*
X102659824Y-72387454D01*
X102474491Y-72358100D01*
X102474486Y-72358100D01*
X102474481Y-72358100D01*
X102285519Y-72358100D01*
X102285514Y-72358100D01*
X102285509Y-72358100D01*
X102098886Y-72387658D01*
X102098884Y-72387658D01*
X102098881Y-72387659D01*
X101919163Y-72446054D01*
X101863363Y-72474486D01*
X101750799Y-72531840D01*
X101663579Y-72595210D01*
X101663578Y-72595210D01*
X101609794Y-72634286D01*
X101602419Y-72638416D01*
X101459816Y-72781019D01*
X101455685Y-72788396D01*
X101417589Y-72840831D01*
X101353244Y-72929394D01*
X101353236Y-72929407D01*
X101316141Y-73002210D01*
X101267454Y-73097763D01*
X101209059Y-73277481D01*
X101209058Y-73277484D01*
X101209058Y-73277486D01*
X101179500Y-73464107D01*
X96600500Y-73464107D01*
X96600500Y-72413389D01*
X96573402Y-72242299D01*
X96519873Y-72077555D01*
X96441232Y-71923212D01*
X96339414Y-71783072D01*
X96216928Y-71660586D01*
X96076788Y-71558768D01*
X96076780Y-71558764D01*
X95922449Y-71480128D01*
X95766532Y-71429467D01*
X95762010Y-71427614D01*
X95752820Y-71425445D01*
X95748057Y-71425070D01*
X95729085Y-71422065D01*
X95591212Y-71400228D01*
X95591207Y-71400228D01*
X95586611Y-71399500D01*
X95586609Y-71399500D01*
X95413391Y-71399500D01*
X95413389Y-71399500D01*
X95408793Y-71400228D01*
X95408787Y-71400228D01*
X95242304Y-71426596D01*
X95077549Y-71480129D01*
X94923218Y-71558764D01*
X94923205Y-71558772D01*
X94869316Y-71597925D01*
X94794942Y-71651961D01*
X94787563Y-71656093D01*
X94656094Y-71787562D01*
X94651962Y-71794941D01*
X94558768Y-71923210D01*
X94480129Y-72077549D01*
X94426596Y-72242305D01*
X94399500Y-72413383D01*
X93600500Y-72413383D01*
X93600500Y-70397642D01*
X102279500Y-70397642D01*
X102279500Y-70602356D01*
X102311521Y-70804530D01*
X102311522Y-70804534D01*
X102330539Y-70863062D01*
X102374780Y-70999221D01*
X102374786Y-70999234D01*
X102467708Y-71181601D01*
X102467713Y-71181610D01*
X102467715Y-71181613D01*
X102588028Y-71347213D01*
X102732786Y-71491971D01*
X102856341Y-71581737D01*
X102898390Y-71612287D01*
X102977864Y-71652781D01*
X103074329Y-71701933D01*
X103075927Y-71702869D01*
X103079615Y-71704655D01*
X103081640Y-71705661D01*
X103085406Y-71706723D01*
X103127956Y-71720547D01*
X103185135Y-71739126D01*
X103185136Y-71739127D01*
X103215246Y-71748910D01*
X103275465Y-71768477D01*
X103367595Y-71783069D01*
X103477648Y-71800500D01*
X103477649Y-71800500D01*
X103682351Y-71800500D01*
X103682352Y-71800500D01*
X103884534Y-71768477D01*
X104079219Y-71705220D01*
X104261610Y-71612287D01*
X104335268Y-71558772D01*
X104359517Y-71541155D01*
X104427200Y-71491981D01*
X104427269Y-71491930D01*
X104428032Y-71491152D01*
X104571148Y-71348036D01*
X104571926Y-71347274D01*
X104571969Y-71347213D01*
X104571971Y-71347213D01*
X104656025Y-71231521D01*
X104665297Y-71218759D01*
X104665302Y-71218751D01*
X104692287Y-71181610D01*
X104785220Y-70999219D01*
X104848477Y-70804534D01*
X104880500Y-70602352D01*
X104880500Y-70397648D01*
X104848477Y-70195466D01*
X104786716Y-70005387D01*
X104785657Y-70001633D01*
X104784677Y-69999659D01*
X104782871Y-69995931D01*
X104781930Y-69994323D01*
X104745797Y-69923410D01*
X104745796Y-69923409D01*
X104729521Y-69891467D01*
X104692287Y-69818390D01*
X104671264Y-69789454D01*
X104571971Y-69652786D01*
X104427213Y-69508028D01*
X104427212Y-69508027D01*
X104427211Y-69508026D01*
X104269507Y-69393450D01*
X104269168Y-69393161D01*
X104261603Y-69387707D01*
X104261188Y-69387498D01*
X104204654Y-69358691D01*
X104204653Y-69358691D01*
X104079223Y-69294781D01*
X103884534Y-69231522D01*
X103884532Y-69231521D01*
X103884530Y-69231521D01*
X103884529Y-69231520D01*
X103709995Y-69203878D01*
X103693409Y-69201251D01*
X103682354Y-69199500D01*
X103682352Y-69199500D01*
X103477648Y-69199500D01*
X103477647Y-69199500D01*
X103453327Y-69203351D01*
X103453326Y-69203350D01*
X103275468Y-69231521D01*
X103080777Y-69294780D01*
X103080764Y-69294786D01*
X102898397Y-69387708D01*
X102898385Y-69387715D01*
X102732787Y-69508027D01*
X102732784Y-69508029D01*
X102588032Y-69652782D01*
X102588027Y-69652787D01*
X102467715Y-69818385D01*
X102467708Y-69818397D01*
X102374786Y-70000764D01*
X102374780Y-70000777D01*
X102311521Y-70195468D01*
X102279500Y-70397642D01*
X93600500Y-70397642D01*
X93600500Y-67102220D01*
X93613072Y-67047815D01*
X94088719Y-66073629D01*
X94106092Y-66033787D01*
X94106094Y-66033776D01*
X94107896Y-66028311D01*
X94108760Y-66028595D01*
X94115220Y-66010650D01*
X94135715Y-65970429D01*
X94195324Y-65786972D01*
X94205675Y-65721619D01*
X94206850Y-65714202D01*
X94206850Y-65714200D01*
X94210885Y-65688727D01*
X94210885Y-65688725D01*
X94218237Y-65642308D01*
X94225500Y-65596453D01*
X94225500Y-65403547D01*
X94218694Y-65360579D01*
X94218694Y-65360578D01*
X94212661Y-65322489D01*
X94195324Y-65213028D01*
X94135715Y-65029571D01*
X94048141Y-64857698D01*
X93945895Y-64716968D01*
X93933040Y-64694754D01*
X93925657Y-64678261D01*
X93916233Y-64609030D01*
X93945734Y-64545694D01*
X94004349Y-64508490D01*
X94015055Y-64505390D01*
X94049536Y-64500500D01*
X96950883Y-64500500D01*
X96985814Y-64505522D01*
X96996802Y-64508748D01*
X97055581Y-64546520D01*
X97084608Y-64610075D01*
X97074841Y-64678852D01*
X97067548Y-64694967D01*
X97054896Y-64716726D01*
X96952290Y-64857952D01*
X96864744Y-65029768D01*
X96864736Y-65029792D01*
X96805165Y-65213134D01*
X96805018Y-65214065D01*
X96799327Y-65250000D01*
X97491277Y-65250000D01*
X97558316Y-65269685D01*
X97604071Y-65322489D01*
X97614015Y-65391647D01*
X97611052Y-65406088D01*
X97600000Y-65447339D01*
X97600000Y-65552661D01*
X97609248Y-65587177D01*
X97611052Y-65593907D01*
X97609389Y-65663757D01*
X97570226Y-65721619D01*
X97505998Y-65749123D01*
X97491277Y-65750000D01*
X96799327Y-65750000D01*
X96803637Y-65777213D01*
X96803638Y-65777221D01*
X96805164Y-65786861D01*
X96864736Y-65970206D01*
X96864744Y-65970230D01*
X96864745Y-65970233D01*
X96864746Y-65970234D01*
X96864747Y-65970237D01*
X96950905Y-66139328D01*
X96952290Y-66142046D01*
X96991717Y-66196313D01*
X97065616Y-66298027D01*
X97065620Y-66298032D01*
X97065625Y-66298038D01*
X97201960Y-66434373D01*
X97201964Y-66434376D01*
X97201967Y-66434379D01*
X97201972Y-66434383D01*
X97357956Y-66547711D01*
X97529762Y-66635252D01*
X97529765Y-66635253D01*
X97529767Y-66635253D01*
X97529768Y-66635254D01*
X97529776Y-66635257D01*
X97620866Y-66664853D01*
X97713142Y-66694835D01*
X97750000Y-66700673D01*
X97750000Y-66700672D01*
X97750000Y-66008722D01*
X97769685Y-65941683D01*
X97822489Y-65895928D01*
X97891647Y-65885984D01*
X97906082Y-65888945D01*
X97947339Y-65900000D01*
X98052659Y-65900000D01*
X98052661Y-65900000D01*
X98093907Y-65888948D01*
X98163755Y-65890609D01*
X98221618Y-65929771D01*
X98249123Y-65993999D01*
X98250000Y-66008722D01*
X98250000Y-66700671D01*
X98250000Y-66700672D01*
X98277215Y-66696361D01*
X98277221Y-66696361D01*
X98286855Y-66694835D01*
X98286858Y-66694835D01*
X98327973Y-66681476D01*
X98470223Y-66635257D01*
X98470227Y-66635255D01*
X98470234Y-66635253D01*
X98470237Y-66635252D01*
X98642043Y-66547711D01*
X98798027Y-66434383D01*
X98798032Y-66434379D01*
X98934379Y-66298032D01*
X98934383Y-66298027D01*
X99047711Y-66142043D01*
X99135252Y-65970237D01*
X99135253Y-65970234D01*
X99194835Y-65786858D01*
X99194835Y-65786855D01*
X99200673Y-65750000D01*
X98508723Y-65750000D01*
X98441684Y-65730315D01*
X98395929Y-65677511D01*
X98385985Y-65608353D01*
X98388948Y-65593907D01*
X98400000Y-65552661D01*
X98400000Y-65447339D01*
X98388948Y-65406092D01*
X98390611Y-65336243D01*
X98429774Y-65278381D01*
X98494002Y-65250877D01*
X98508723Y-65250000D01*
X99200673Y-65250000D01*
X99200673Y-65249999D01*
X99197252Y-65228405D01*
X99194835Y-65213144D01*
X99194835Y-65213141D01*
X99189368Y-65196315D01*
X99178044Y-65161462D01*
X115179000Y-65161462D01*
X115179000Y-65161469D01*
X115179000Y-65580000D01*
X115979000Y-65580000D01*
X116479000Y-65580000D01*
X117279000Y-65580000D01*
X117279000Y-65161458D01*
X117278953Y-65161066D01*
X117264351Y-65031460D01*
X117206669Y-64866613D01*
X117113753Y-64718737D01*
X116990262Y-64595246D01*
X116842386Y-64502330D01*
X116842385Y-64502329D01*
X116842384Y-64502329D01*
X116677536Y-64444647D01*
X116547536Y-64430000D01*
X116547530Y-64430000D01*
X116479000Y-64430000D01*
X116479000Y-65580000D01*
X115979000Y-65580000D01*
X115979000Y-64430000D01*
X115910462Y-64430000D01*
X115780462Y-64444647D01*
X115615614Y-64502329D01*
X115467736Y-64595246D01*
X115344246Y-64718736D01*
X115251329Y-64866614D01*
X115193647Y-65031462D01*
X115179000Y-65161462D01*
X99178044Y-65161462D01*
X99166903Y-65127173D01*
X99135262Y-65029792D01*
X99135254Y-65029768D01*
X99135253Y-65029767D01*
X99135253Y-65029765D01*
X99135252Y-65029762D01*
X99047711Y-64857956D01*
X99026969Y-64829407D01*
X98945210Y-64716873D01*
X98932383Y-64694722D01*
X98925033Y-64678330D01*
X98915570Y-64609107D01*
X98945035Y-64545754D01*
X99003664Y-64508507D01*
X99014377Y-64505402D01*
X99048896Y-64500500D01*
X101819375Y-64500500D01*
X101875502Y-64500507D01*
X101875509Y-64500507D01*
X101911753Y-64500511D01*
X101921376Y-64502055D01*
X101922442Y-64501895D01*
X101940915Y-64500514D01*
X101955617Y-64500516D01*
X101964082Y-64495894D01*
X101971959Y-64494445D01*
X102153638Y-64467110D01*
X102368206Y-64401045D01*
X102570556Y-64303791D01*
X102756183Y-64177512D01*
X102920955Y-64025019D01*
X102920961Y-64025012D01*
X102945941Y-63993780D01*
X102995159Y-63932244D01*
X102995169Y-63932227D01*
X103032231Y-63885902D01*
X103032231Y-63885901D01*
X103045407Y-63869432D01*
X103045407Y-63869431D01*
X103045423Y-63869412D01*
X103045428Y-63869405D01*
X103047484Y-63866834D01*
X103047489Y-63866826D01*
X103561730Y-63224028D01*
X103584105Y-63196058D01*
X103588554Y-63190806D01*
X103593189Y-63185636D01*
X103597945Y-63180619D01*
X103654861Y-63123856D01*
X103665198Y-63114642D01*
X103676027Y-63106026D01*
X103687334Y-63098021D01*
X103746564Y-63060884D01*
X103758680Y-63054202D01*
X103771170Y-63048199D01*
X103783942Y-63042919D01*
X103849952Y-63019865D01*
X103863260Y-63016037D01*
X103876742Y-63012965D01*
X103890417Y-63010645D01*
X103970275Y-63001663D01*
X103977200Y-63001081D01*
X103984119Y-63000694D01*
X103991044Y-63000500D01*
X152289554Y-63000500D01*
X152296492Y-63000693D01*
G37*
G04 #@! TD.AperFunction*
G04 #@! TA.AperFunction,Conductor*
G36*
X116060962Y-84460594D02*
G01*
X116063205Y-84463739D01*
X116590069Y-85544216D01*
X116590615Y-85553154D01*
X116585125Y-85559632D01*
X115965572Y-85895149D01*
X115956665Y-85896076D01*
X115954428Y-85895149D01*
X115334874Y-85559632D01*
X115329231Y-85552679D01*
X115329929Y-85544219D01*
X115856795Y-84463738D01*
X115863501Y-84457805D01*
X115867311Y-84457167D01*
X116052689Y-84457167D01*
X116060962Y-84460594D01*
G37*
G04 #@! TD.AperFunction*
G04 #@! TA.AperFunction,Conductor*
G36*
X104343631Y-77771918D02*
G01*
X104349151Y-77778478D01*
X104777046Y-79051062D01*
X104776434Y-79059996D01*
X104774229Y-79063064D01*
X104643064Y-79194229D01*
X104634791Y-79197656D01*
X104631062Y-79197046D01*
X103358478Y-78769151D01*
X103351729Y-78763266D01*
X103350993Y-78754725D01*
X103574763Y-78002637D01*
X103580406Y-77995687D01*
X103582630Y-77994765D01*
X104334725Y-77770993D01*
X104343631Y-77771918D01*
G37*
G04 #@! TD.AperFunction*
G04 #@! TA.AperFunction,Conductor*
G36*
X139846074Y-71415232D02*
G01*
X139853336Y-71420471D01*
X139854767Y-71423925D01*
X140104181Y-72478575D01*
X140102750Y-72487415D01*
X140095846Y-72492563D01*
X138508672Y-72921332D01*
X138497773Y-72924277D01*
X138488892Y-72923127D01*
X138486806Y-72921177D01*
X138486125Y-72921177D01*
X138324200Y-72921177D01*
X138315927Y-72917750D01*
X138312500Y-72909477D01*
X138312500Y-72859825D01*
X138313390Y-72855350D01*
X138341789Y-72786789D01*
X138777437Y-71174151D01*
X138782902Y-71167060D01*
X138791422Y-71165818D01*
X139846074Y-71415232D01*
G37*
G04 #@! TD.AperFunction*
G04 #@! TA.AperFunction,Conductor*
G36*
X112175349Y-80512492D02*
G01*
X112501353Y-81114428D01*
X112502280Y-81123335D01*
X112501353Y-81125572D01*
X112175349Y-81727507D01*
X112168396Y-81733150D01*
X112159955Y-81732462D01*
X111109965Y-81223198D01*
X111104017Y-81216504D01*
X111103371Y-81212671D01*
X111103371Y-81027328D01*
X111106798Y-81019055D01*
X111109961Y-81016803D01*
X112159956Y-80507536D01*
X112168894Y-80507010D01*
X112175349Y-80512492D01*
G37*
G04 #@! TD.AperFunction*
G04 #@! TA.AperFunction,Conductor*
G36*
X114417670Y-67007932D02*
G01*
X114418487Y-67008609D01*
X114950896Y-67491739D01*
X114954720Y-67499835D01*
X114951698Y-67508264D01*
X114951300Y-67508683D01*
X114419064Y-68039953D01*
X114410787Y-68043372D01*
X114402517Y-68039938D01*
X114401080Y-68038187D01*
X114107300Y-67600000D01*
X114107299Y-67600000D01*
X114010469Y-67735079D01*
X114002864Y-67739806D01*
X113994143Y-67737771D01*
X113992687Y-67736535D01*
X113869288Y-67613136D01*
X113865861Y-67604863D01*
X113869288Y-67596590D01*
X114034946Y-67430931D01*
X114038737Y-67428399D01*
X114068699Y-67415988D01*
X114107299Y-67400001D01*
X114107300Y-67400000D01*
X114401286Y-67010226D01*
X114409002Y-67005686D01*
X114417670Y-67007932D01*
G37*
G04 #@! TD.AperFunction*
G04 #@! TA.AperFunction,Conductor*
G36*
X127465651Y-77998043D02*
G01*
X128194982Y-78371709D01*
X128200782Y-78378531D01*
X128200060Y-78387457D01*
X128199987Y-78387597D01*
X127563296Y-79589923D01*
X127556396Y-79595631D01*
X127552956Y-79596148D01*
X127367469Y-79596148D01*
X127359196Y-79592721D01*
X127356856Y-79589372D01*
X126798976Y-78386846D01*
X126798603Y-78377902D01*
X126803764Y-78371778D01*
X127454494Y-77998307D01*
X127463373Y-77997162D01*
X127465651Y-77998043D01*
G37*
G04 #@! TD.AperFunction*
G04 #@! TA.AperFunction,Conductor*
G36*
X150670957Y-75762706D02*
G01*
X150675807Y-75769495D01*
X151122032Y-77475819D01*
X151120810Y-77484690D01*
X151118986Y-77487052D01*
X150987052Y-77618986D01*
X150978779Y-77622413D01*
X150975819Y-77622032D01*
X149269495Y-77175807D01*
X149262358Y-77170399D01*
X149260987Y-77162169D01*
X149495139Y-76004288D01*
X149500138Y-75996858D01*
X149504288Y-75995139D01*
X150662169Y-75760987D01*
X150670957Y-75762706D01*
G37*
G04 #@! TD.AperFunction*
G04 #@! TA.AperFunction,Conductor*
G36*
X140602792Y-84451727D02*
G01*
X140603508Y-84452511D01*
X141074466Y-85017853D01*
X141077129Y-85026403D01*
X141075538Y-85031314D01*
X140510061Y-85984048D01*
X140502892Y-85989413D01*
X140494028Y-85988137D01*
X140489939Y-85984048D01*
X139924461Y-85031314D01*
X139923185Y-85022450D01*
X139925532Y-85017854D01*
X140396492Y-84452510D01*
X140404420Y-84448348D01*
X140405481Y-84448300D01*
X140594519Y-84448300D01*
X140602792Y-84451727D01*
G37*
G04 #@! TD.AperFunction*
G04 #@! TA.AperFunction,Conductor*
G36*
X133287097Y-64916434D02*
G01*
X133290242Y-64918677D01*
X133421322Y-65049757D01*
X133424749Y-65058030D01*
X133424111Y-65061840D01*
X133032648Y-66198404D01*
X133026714Y-66205110D01*
X133018251Y-66205809D01*
X132342915Y-66004964D01*
X132335962Y-65999321D01*
X132335037Y-65997089D01*
X132134190Y-65321746D01*
X132135117Y-65312841D01*
X132141592Y-65307352D01*
X133278159Y-64915888D01*
X133287097Y-64916434D01*
G37*
G04 #@! TD.AperFunction*
G04 #@! TA.AperFunction,Conductor*
G36*
X121958670Y-67007932D02*
G01*
X121959487Y-67008609D01*
X122491896Y-67491739D01*
X122495720Y-67499835D01*
X122492698Y-67508264D01*
X122492300Y-67508683D01*
X121960064Y-68039953D01*
X121951787Y-68043372D01*
X121943517Y-68039938D01*
X121942080Y-68038187D01*
X121648300Y-67600000D01*
X121648299Y-67600000D01*
X121551469Y-67735079D01*
X121543864Y-67739806D01*
X121535143Y-67737771D01*
X121533687Y-67736535D01*
X121410288Y-67613136D01*
X121406861Y-67604863D01*
X121410288Y-67596590D01*
X121575946Y-67430931D01*
X121579737Y-67428399D01*
X121609699Y-67415988D01*
X121648299Y-67400001D01*
X121648300Y-67400000D01*
X121942286Y-67010226D01*
X121950002Y-67005686D01*
X121958670Y-67007932D01*
G37*
G04 #@! TD.AperFunction*
G04 #@! TA.AperFunction,Conductor*
G36*
X138070731Y-70829303D02*
G01*
X138077712Y-70832659D01*
X138206702Y-70961649D01*
X138209238Y-70965444D01*
X138210487Y-70968459D01*
X138210915Y-70976194D01*
X137733353Y-72623863D01*
X137731247Y-72627921D01*
X137730027Y-72629444D01*
X137722477Y-72633722D01*
X137720930Y-72633933D01*
X137716656Y-72633726D01*
X136666189Y-72385302D01*
X136662036Y-72383404D01*
X136659458Y-72381544D01*
X136654919Y-72374750D01*
X136406305Y-71323485D01*
X136406143Y-71318925D01*
X136406456Y-71316993D01*
X136410922Y-71309555D01*
X136412170Y-71308607D01*
X136415982Y-71306689D01*
X138062945Y-70829333D01*
X138067484Y-70828943D01*
X138070731Y-70829303D01*
G37*
G04 #@! TD.AperFunction*
G04 #@! TA.AperFunction,Conductor*
G36*
X107877656Y-83673303D02*
G01*
X107883981Y-83679642D01*
X107884166Y-83680120D01*
X108440635Y-85214753D01*
X108440234Y-85223698D01*
X108437909Y-85227014D01*
X108307014Y-85357909D01*
X108298741Y-85361336D01*
X108294753Y-85360635D01*
X106760120Y-84804166D01*
X106753510Y-84798124D01*
X106753109Y-84789179D01*
X106753277Y-84788743D01*
X107077438Y-84003783D01*
X107083759Y-83997448D01*
X107868703Y-83673294D01*
X107877656Y-83673303D01*
G37*
G04 #@! TD.AperFunction*
G04 #@! TA.AperFunction,Conductor*
G36*
X121727158Y-85688817D02*
G01*
X121732648Y-85695295D01*
X122124111Y-86831859D01*
X122123565Y-86840797D01*
X122121322Y-86843942D01*
X121990242Y-86975022D01*
X121981969Y-86978449D01*
X121978159Y-86977811D01*
X120841595Y-86586348D01*
X120834889Y-86580414D01*
X120834190Y-86571953D01*
X121035036Y-85896613D01*
X121040678Y-85889662D01*
X121042907Y-85888738D01*
X121718253Y-85687890D01*
X121727158Y-85688817D01*
G37*
G04 #@! TD.AperFunction*
G04 #@! TA.AperFunction,Conductor*
G36*
X122059996Y-76803565D02*
G01*
X122063064Y-76805770D01*
X122194229Y-76936935D01*
X122197656Y-76945208D01*
X122197046Y-76948937D01*
X121769151Y-78221521D01*
X121763266Y-78228270D01*
X121754724Y-78229006D01*
X121002639Y-78005237D01*
X120995687Y-77999593D01*
X120994764Y-77997365D01*
X120770993Y-77245274D01*
X120771918Y-77236368D01*
X120778477Y-77230848D01*
X122051062Y-76802953D01*
X122059996Y-76803565D01*
G37*
G04 #@! TD.AperFunction*
G04 #@! TA.AperFunction,Conductor*
G36*
X118497085Y-85888735D02*
G01*
X118504037Y-85894378D01*
X118504964Y-85896615D01*
X118705809Y-86571951D01*
X118704882Y-86580858D01*
X118698404Y-86586348D01*
X117561840Y-86977811D01*
X117552902Y-86977265D01*
X117549757Y-86975022D01*
X117418677Y-86843942D01*
X117415250Y-86835669D01*
X117415888Y-86831859D01*
X117501706Y-86582697D01*
X117807352Y-85695293D01*
X117813285Y-85688589D01*
X117821746Y-85687890D01*
X118497085Y-85888735D01*
G37*
G04 #@! TD.AperFunction*
G04 #@! TA.AperFunction,Conductor*
G36*
X112839855Y-72888985D02*
G01*
X112840554Y-72889396D01*
X113641600Y-73400000D01*
X113743172Y-73260048D01*
X113750804Y-73255366D01*
X113759512Y-73257452D01*
X113760913Y-73258648D01*
X113884370Y-73382105D01*
X113887797Y-73390378D01*
X113884370Y-73398651D01*
X113713956Y-73569065D01*
X113710160Y-73571601D01*
X113641607Y-73599995D01*
X113641604Y-73599997D01*
X112840572Y-74110592D01*
X112831754Y-74112149D01*
X112824417Y-74107015D01*
X112823995Y-74106298D01*
X112549788Y-73600000D01*
X112498645Y-73505570D01*
X112497719Y-73496665D01*
X112498643Y-73494433D01*
X112823996Y-72893700D01*
X112830948Y-72888058D01*
X112839855Y-72888985D01*
G37*
G04 #@! TD.AperFunction*
G04 #@! TA.AperFunction,Conductor*
G36*
X123057038Y-67009411D02*
G01*
X123057709Y-67010220D01*
X123349341Y-67396872D01*
X123351700Y-67403917D01*
X123351700Y-67596441D01*
X123349718Y-67602956D01*
X123057919Y-68038187D01*
X123050466Y-68043151D01*
X123041686Y-68041390D01*
X123039935Y-68039953D01*
X122507699Y-67508683D01*
X122504265Y-67500413D01*
X122507684Y-67492136D01*
X122508066Y-67491773D01*
X123040513Y-67008608D01*
X123048941Y-67005587D01*
X123057038Y-67009411D01*
G37*
G04 #@! TD.AperFunction*
G04 #@! TA.AperFunction,Conductor*
G36*
X129997085Y-85888735D02*
G01*
X130004037Y-85894378D01*
X130004964Y-85896615D01*
X130205809Y-86571951D01*
X130204882Y-86580858D01*
X130198404Y-86586348D01*
X129061840Y-86977811D01*
X129052902Y-86977265D01*
X129049757Y-86975022D01*
X128918677Y-86843942D01*
X128915250Y-86835669D01*
X128915888Y-86831859D01*
X129001706Y-86582697D01*
X129307352Y-85695293D01*
X129313285Y-85688589D01*
X129321746Y-85687890D01*
X129997085Y-85888735D01*
G37*
G04 #@! TD.AperFunction*
G04 #@! TA.AperFunction,Conductor*
G36*
X146833533Y-84076393D02*
G01*
X146836960Y-84084666D01*
X146836463Y-84088038D01*
X146811711Y-84170289D01*
X148339861Y-84646194D01*
X148346740Y-84651925D01*
X148347552Y-84660843D01*
X148347195Y-84661831D01*
X148002562Y-85496215D01*
X147996236Y-85502553D01*
X147996215Y-85502562D01*
X147161831Y-85847195D01*
X147152876Y-85847186D01*
X147146550Y-85840848D01*
X147146198Y-85839875D01*
X146670289Y-84311711D01*
X146641891Y-84243151D01*
X146641000Y-84238674D01*
X146641000Y-84084666D01*
X146644427Y-84076393D01*
X146652700Y-84072966D01*
X146825260Y-84072966D01*
X146833533Y-84076393D01*
G37*
G04 #@! TD.AperFunction*
G04 #@! TA.AperFunction,Conductor*
G36*
X121101195Y-84460594D02*
G01*
X121103285Y-84463436D01*
X121669488Y-85543810D01*
X121670293Y-85552728D01*
X121664556Y-85559604D01*
X121664436Y-85559666D01*
X121005663Y-85895281D01*
X120996736Y-85895983D01*
X120994497Y-85894986D01*
X120414179Y-85559589D01*
X120408731Y-85552482D01*
X120409369Y-85544647D01*
X120896892Y-84464055D01*
X120903418Y-84457924D01*
X120907557Y-84457167D01*
X121092922Y-84457167D01*
X121101195Y-84460594D01*
G37*
G04 #@! TD.AperFunction*
G04 #@! TA.AperFunction,Conductor*
G36*
X138489340Y-84297474D02*
G01*
X138493130Y-84300008D01*
X138568249Y-84375127D01*
X138569705Y-84376902D01*
X138570962Y-84378784D01*
X138572042Y-84380805D01*
X138599993Y-84448289D01*
X138599998Y-84448298D01*
X138599999Y-84448300D01*
X138835654Y-84731182D01*
X139072975Y-85016064D01*
X139075156Y-85020071D01*
X139076023Y-85022852D01*
X139075961Y-85030008D01*
X139075918Y-85030138D01*
X139074871Y-85032436D01*
X138511248Y-85982047D01*
X138508199Y-85985441D01*
X138506775Y-85986507D01*
X138498101Y-85988722D01*
X138497885Y-85988691D01*
X138491274Y-85985383D01*
X138490977Y-85985086D01*
X138489189Y-85982785D01*
X137925649Y-85033316D01*
X137924129Y-85029010D01*
X137923714Y-85026126D01*
X137924864Y-85019160D01*
X137924930Y-85019031D01*
X137926363Y-85016855D01*
X138400000Y-84448300D01*
X138399993Y-84448298D01*
X138363076Y-84437650D01*
X138359020Y-84435553D01*
X138357627Y-84434441D01*
X138353299Y-84426601D01*
X138353298Y-84426589D01*
X138353276Y-84426391D01*
X138354838Y-84419136D01*
X138355066Y-84418751D01*
X138356858Y-84416443D01*
X138398174Y-84375127D01*
X138473295Y-84300006D01*
X138477082Y-84297475D01*
X138478736Y-84296789D01*
X138487685Y-84296789D01*
X138489340Y-84297474D01*
G37*
G04 #@! TD.AperFunction*
G04 #@! TA.AperFunction,Conductor*
G36*
X121005565Y-77998161D02*
G01*
X121547444Y-78291527D01*
X121695603Y-78371739D01*
X121701247Y-78378691D01*
X121700511Y-78387233D01*
X121103226Y-79589653D01*
X121096477Y-79595538D01*
X121092748Y-79596148D01*
X120907252Y-79596148D01*
X120898979Y-79592721D01*
X120896774Y-79589653D01*
X120299488Y-78387233D01*
X120298876Y-78378299D01*
X120304395Y-78371739D01*
X120994431Y-77998162D01*
X121003337Y-77997238D01*
X121005565Y-77998161D01*
G37*
G04 #@! TD.AperFunction*
G04 #@! TA.AperFunction,Conductor*
G36*
X82101565Y-73807126D02*
G01*
X82103389Y-73809488D01*
X82994412Y-75331568D01*
X82995634Y-75340439D01*
X82990784Y-75347228D01*
X82006469Y-76000406D01*
X81997681Y-76002125D01*
X81993531Y-76000406D01*
X81009215Y-75347228D01*
X81004216Y-75339798D01*
X81005586Y-75331569D01*
X81896611Y-73809487D01*
X81903748Y-73804080D01*
X81906708Y-73803699D01*
X82093292Y-73803699D01*
X82101565Y-73807126D01*
G37*
G04 #@! TD.AperFunction*
G04 #@! TA.AperFunction,Conductor*
G36*
X132505565Y-77998161D02*
G01*
X133047444Y-78291527D01*
X133195603Y-78371739D01*
X133201247Y-78378691D01*
X133200511Y-78387233D01*
X132603226Y-79589653D01*
X132596477Y-79595538D01*
X132592748Y-79596148D01*
X132407252Y-79596148D01*
X132398979Y-79592721D01*
X132396774Y-79589653D01*
X131799488Y-78387233D01*
X131798876Y-78378299D01*
X131804395Y-78371739D01*
X132494431Y-77998162D01*
X132503337Y-77997238D01*
X132505565Y-77998161D01*
G37*
G04 #@! TD.AperFunction*
G04 #@! TA.AperFunction,Conductor*
G36*
X145685568Y-65998548D02*
G01*
X146305125Y-66334067D01*
X146310768Y-66341020D01*
X146310069Y-66349483D01*
X145783205Y-67429961D01*
X145776499Y-67435895D01*
X145772689Y-67436533D01*
X145587311Y-67436533D01*
X145579038Y-67433106D01*
X145576795Y-67429961D01*
X145049929Y-66349481D01*
X145049384Y-66340545D01*
X145054872Y-66334068D01*
X145674429Y-65998549D01*
X145683335Y-65997623D01*
X145685568Y-65998548D01*
G37*
G04 #@! TD.AperFunction*
G04 #@! TA.AperFunction,Conductor*
G36*
X117437741Y-71574172D02*
G01*
X117440681Y-71576313D01*
X117570587Y-71706219D01*
X117574014Y-71714492D01*
X117572348Y-71720509D01*
X116772337Y-73054592D01*
X116765143Y-73059925D01*
X116756286Y-73058609D01*
X116755313Y-73057957D01*
X116653767Y-72982298D01*
X116380678Y-72778829D01*
X116376092Y-72771139D01*
X116376393Y-72766326D01*
X116634304Y-71835316D01*
X116639815Y-71828259D01*
X116641985Y-71827306D01*
X117428816Y-71573451D01*
X117437741Y-71574172D01*
G37*
G04 #@! TD.AperFunction*
G04 #@! TA.AperFunction,Conductor*
G36*
X108681021Y-76407279D02*
G01*
X108683226Y-76410347D01*
X109280511Y-77612766D01*
X109281123Y-77621700D01*
X109275603Y-77628260D01*
X108585570Y-78001836D01*
X108576663Y-78002761D01*
X108574430Y-78001836D01*
X107884396Y-77628260D01*
X107878752Y-77621308D01*
X107879488Y-77612766D01*
X108476774Y-76410347D01*
X108483523Y-76404462D01*
X108487252Y-76403852D01*
X108672748Y-76403852D01*
X108681021Y-76407279D01*
G37*
G04 #@! TD.AperFunction*
G04 #@! TA.AperFunction,Conductor*
G36*
X149008292Y-66810133D02*
G01*
X149009512Y-66811193D01*
X149492702Y-67293419D01*
X149496137Y-67301688D01*
X149492718Y-67309965D01*
X149492702Y-67309981D01*
X149009512Y-67792206D01*
X149001235Y-67795625D01*
X148992966Y-67792190D01*
X148991912Y-67790977D01*
X148832371Y-67579454D01*
X148698300Y-67401699D01*
X148698299Y-67401698D01*
X148629739Y-67373301D01*
X148625943Y-67370765D01*
X148565143Y-67309965D01*
X148495642Y-67240463D01*
X148492216Y-67232192D01*
X148495642Y-67223920D01*
X148618405Y-67101157D01*
X148626677Y-67097731D01*
X148634950Y-67101158D01*
X148636591Y-67103219D01*
X148698299Y-67201699D01*
X148698300Y-67201700D01*
X148991908Y-66812427D01*
X148999624Y-66807887D01*
X149008292Y-66810133D01*
G37*
G04 #@! TD.AperFunction*
G04 #@! TA.AperFunction,Conductor*
G36*
X152348273Y-84073370D02*
G01*
X152351700Y-84081643D01*
X152351700Y-84245974D01*
X152350809Y-84250451D01*
X152322417Y-84318993D01*
X152322406Y-84319025D01*
X151853781Y-85839811D01*
X151848070Y-85846709D01*
X151839155Y-85847547D01*
X151838133Y-85847180D01*
X151003784Y-85502562D01*
X150997446Y-85496236D01*
X150652819Y-84661865D01*
X150652828Y-84652911D01*
X150659166Y-84646585D01*
X150660167Y-84646225D01*
X152180989Y-84177589D01*
X152155719Y-84084714D01*
X152156854Y-84075832D01*
X152163937Y-84070353D01*
X152167009Y-84069943D01*
X152340000Y-84069943D01*
X152348273Y-84073370D01*
G37*
G04 #@! TD.AperFunction*
G04 #@! TA.AperFunction,Conductor*
G36*
X108577361Y-70494763D02*
G01*
X108584312Y-70500406D01*
X108585237Y-70502639D01*
X108809006Y-71254724D01*
X108808081Y-71263631D01*
X108801521Y-71269151D01*
X107528937Y-71697046D01*
X107520003Y-71696434D01*
X107516935Y-71694229D01*
X107385770Y-71563064D01*
X107382343Y-71554791D01*
X107382953Y-71551062D01*
X107738125Y-70494762D01*
X107810848Y-70278477D01*
X107816733Y-70271729D01*
X107825274Y-70270993D01*
X108577361Y-70494763D01*
G37*
G04 #@! TD.AperFunction*
G04 #@! TA.AperFunction,Conductor*
G36*
X126554380Y-72437911D02*
G01*
X126561731Y-72443025D01*
X126562895Y-72445390D01*
X126930305Y-73469110D01*
X126929875Y-73478054D01*
X126923368Y-73484029D01*
X124915800Y-74230043D01*
X124906852Y-74229713D01*
X124903452Y-74227349D01*
X124772447Y-74096344D01*
X124769020Y-74088071D01*
X124769615Y-74084388D01*
X125396683Y-72195774D01*
X125402542Y-72189003D01*
X125410283Y-72188031D01*
X126554380Y-72437911D01*
G37*
G04 #@! TD.AperFunction*
G04 #@! TA.AperFunction,Conductor*
G36*
X127560962Y-84460594D02*
G01*
X127563205Y-84463739D01*
X128090069Y-85544216D01*
X128090615Y-85553154D01*
X128085125Y-85559632D01*
X127465572Y-85895149D01*
X127456665Y-85896076D01*
X127454428Y-85895149D01*
X126834874Y-85559632D01*
X126829231Y-85552679D01*
X126829929Y-85544219D01*
X127356795Y-84463738D01*
X127363501Y-84457805D01*
X127367311Y-84457167D01*
X127552689Y-84457167D01*
X127560962Y-84460594D01*
G37*
G04 #@! TD.AperFunction*
M02*
